M48
; DRILL file {KiCad (5.1.8)-1} date 06/23/21 22:25:01
; FORMAT={3:3/ absolute / metric / suppress leading zeros}
; #@! TF.CreationDate,2021-06-23T22:25:01-07:00
; #@! TF.GenerationSoftware,Kicad,Pcbnew,(5.1.8)-1
FMAT,2
METRIC,TZ
T1C0.300
T2C0.330
T3C0.400
T4C0.500
T5C0.700
T6C0.800
T7C1.000
T8C1.200
T9C2.700
%
G90
G05
T1
X144300Y-88950
X144300Y-90450
X145800Y-88950
X145800Y-90450
X147300Y-88950
X147300Y-90450
T2
X133350Y-69400
X133350Y-70700
X133350Y-72000
X134650Y-69400
X134650Y-70700
X134650Y-72000
X133350Y-94200
X133350Y-95500
X133350Y-96800
X134650Y-94200
X134650Y-95500
X134650Y-96800
X133350Y-106600
X133350Y-107900
X133350Y-109200
X134650Y-106600
X134650Y-107900
X134650Y-109200
X133350Y-81800
X133350Y-83100
X133350Y-84400
X134650Y-81800
X134650Y-83100
X134650Y-84400
T3
X134600Y-66900
X134600Y-79300
X134600Y-91800
X134600Y-104200
X138700Y-70100
X138700Y-71400
X138700Y-72600
X138700Y-82500
X138700Y-83750
X138700Y-85000
X138700Y-94850
X138700Y-96150
X138700Y-97400
X138700Y-109800
X138800Y-78100
X138900Y-90450
X142600Y-88900
X142600Y-90450
X142800Y-95700
X143400Y-113600
X149200Y-88100
X149900Y-94100
X150400Y-88000
X150900Y-83900
X152600Y-89000
X154900Y-80900
X155100Y-75700
X155200Y-89000
X155300Y-70100
X155300Y-71400
X155400Y-96300
X155400Y-97500
X155400Y-98700
X155900Y-113600
X156590Y-84800
X156590Y-87390
X156600Y-105600
X157500Y-80100
X157800Y-86500
X157800Y-88200
X158400Y-80900
X159700Y-106200
X160900Y-113100
X161600Y-94540
X162260Y-82090
X162260Y-83090
X162500Y-80340
X163200Y-95200
X163400Y-68300
X164200Y-95200
X165600Y-86500
X165650Y-92350
X166200Y-90900
X166600Y-85700
X167150Y-90300
X167600Y-87500
X167600Y-101000
X167625Y-95700
X168600Y-97800
X169400Y-84300
X169900Y-99500
X170000Y-92100
X170400Y-84300
X171000Y-85650
X171000Y-91300
X171010Y-86740
X172400Y-79740
X172700Y-73800
X173170Y-98400
X173200Y-92200
X173400Y-79740
X173600Y-88900
X173930Y-102320
X175100Y-95640
X175570Y-94200
X175700Y-102500
X176000Y-75300
X176000Y-97140
X176500Y-79200
X176570Y-94210
X176800Y-86800
X177000Y-75300
X177200Y-82100
X177400Y-97100
X178200Y-105900
X178400Y-101400
X178500Y-91040
X178600Y-71100
X178600Y-75900
X179100Y-92940
X179300Y-83540
X179300Y-84540
X179300Y-85540
X180280Y-64980
X180280Y-72380
X180600Y-109700
X180800Y-79500
X182200Y-87140
X183000Y-88740
X184600Y-73950
X184600Y-75850
X185350Y-102700
X186700Y-102100
X186800Y-85600
X186800Y-91600
X189600Y-74900
X189900Y-72500
T5
X192430Y-71375
X192430Y-76225
T6
X129150Y-71350
X129150Y-83750
X129150Y-96150
X129150Y-108550
X130900Y-64200
X130900Y-76600
X130900Y-89000
X130900Y-101400
X142350Y-85900
X146400Y-94500
X146800Y-75500
X146800Y-97700
X150900Y-62600
X150900Y-68100
X158400Y-111100
X187400Y-110600
X125400Y-104300
X127400Y-104300
X125400Y-91900
X127400Y-91900
X125400Y-79500
X127400Y-79500
X125400Y-67100
X127400Y-67100
T7
X145900Y-105980
X145900Y-108520
X145900Y-111060
X145900Y-113600
X148440Y-105980
X148440Y-108520
X148440Y-111060
X148440Y-113600
X150980Y-105980
X150980Y-108520
X150980Y-111060
X150980Y-113600
X153520Y-105980
X153520Y-108520
X153520Y-111060
X153520Y-113600
X155700Y-62600
X155700Y-65140
X158240Y-62600
X158240Y-65140
X160780Y-62600
X160780Y-65140
X163320Y-62600
X163320Y-65140
X165860Y-62600
X165860Y-65140
X168400Y-62600
X168400Y-65140
X163400Y-113100
X165940Y-113100
X180280Y-62600
X182820Y-62600
X185360Y-62600
X187900Y-62600
T8
X145900Y-65400
X150900Y-65400
X117700Y-100600
X117700Y-105600
X117700Y-80600
X117700Y-85600
X117700Y-70600
X117700Y-75600
X117700Y-90600
X117700Y-95600
T9
X115900Y-112600
X193900Y-63600
X173900Y-112600
X115900Y-63600
X173900Y-63600
X193900Y-112600
T4
G00X195500Y-70200
M15
G01X194700Y-70200
M16
G05
G00X195500Y-77400
M15
G01X194700Y-77400
M16
G05
T0
M30
