%TF.GenerationSoftware,KiCad,Pcbnew,(5.1.8)-1*%
%TF.CreationDate,2021-06-23T22:25:45-07:00*%
%TF.ProjectId,smart_motor_controller,736d6172-745f-46d6-9f74-6f725f636f6e,0.1.1*%
%TF.SameCoordinates,Original*%
%TF.FileFunction,Soldermask,Top*%
%TF.FilePolarity,Negative*%
%FSLAX46Y46*%
G04 Gerber Fmt 4.6, Leading zero omitted, Abs format (unit mm)*
G04 Created by KiCad (PCBNEW (5.1.8)-1) date 2021-06-23 22:25:45*
%MOMM*%
%LPD*%
G01*
G04 APERTURE LIST*
%ADD10O,1.700000X1.700000*%
%ADD11R,1.700000X1.700000*%
%ADD12C,2.800000*%
%ADD13R,2.800000X2.800000*%
%ADD14R,1.200000X0.900000*%
%ADD15R,3.000000X2.130000*%
%ADD16R,0.500000X2.200000*%
%ADD17R,2.000000X0.900000*%
%ADD18C,1.500000*%
%ADD19C,5.400000*%
%ADD20R,6.400000X5.800000*%
%ADD21R,2.200000X1.200000*%
%ADD22C,2.000000*%
%ADD23C,1.250000*%
%ADD24R,1.250000X0.400000*%
%ADD25O,1.900000X1.100000*%
%ADD26R,1.060000X0.650000*%
%ADD27R,1.200000X1.400000*%
%ADD28R,0.900000X1.200000*%
%ADD29R,1.600000X1.600000*%
%ADD30C,1.600000*%
%ADD31R,1.900000X2.500000*%
%ADD32C,0.770000*%
%ADD33R,2.400000X3.100000*%
G04 APERTURE END LIST*
D10*
%TO.C,J104*%
X180280000Y-62600000D03*
X182820000Y-62600000D03*
X185360000Y-62600000D03*
D11*
X187900000Y-62600000D03*
%TD*%
D10*
%TO.C,J101*%
X155700000Y-65140000D03*
X155700000Y-62600000D03*
X158240000Y-65140000D03*
X158240000Y-62600000D03*
X160780000Y-65140000D03*
X160780000Y-62600000D03*
X163320000Y-65140000D03*
X163320000Y-62600000D03*
X165860000Y-65140000D03*
X165860000Y-62600000D03*
X168400000Y-65140000D03*
D11*
X168400000Y-62600000D03*
%TD*%
D12*
%TO.C,J304*%
X117700000Y-105600000D03*
D13*
X117700000Y-100600000D03*
%TD*%
D12*
%TO.C,J303*%
X117700000Y-85600000D03*
D13*
X117700000Y-80600000D03*
%TD*%
D12*
%TO.C,J302*%
X117700000Y-95600000D03*
D13*
X117700000Y-90600000D03*
%TD*%
D12*
%TO.C,J301*%
X117700000Y-75600000D03*
D13*
X117700000Y-70600000D03*
%TD*%
D12*
%TO.C,J9*%
X145900000Y-65400000D03*
D13*
X150900000Y-65400000D03*
%TD*%
D10*
%TO.C,J309*%
X165940000Y-113100000D03*
D11*
X163400000Y-113100000D03*
%TD*%
D14*
%TO.C,D301*%
X158400000Y-112750000D03*
X158400000Y-109450000D03*
%TD*%
D15*
%TO.C,U201*%
X145800000Y-89700000D03*
D16*
X147705000Y-92575000D03*
X146435000Y-92575000D03*
X145165000Y-92575000D03*
X143895000Y-92575000D03*
X143895000Y-86825000D03*
X145165000Y-86825000D03*
X146435000Y-86825000D03*
X147705000Y-86825000D03*
%TD*%
D17*
%TO.C,SW103*%
X180800000Y-73950000D03*
X180800000Y-78050000D03*
%TD*%
%TO.C,SW102*%
X180600000Y-108050000D03*
X180600000Y-103950000D03*
%TD*%
D18*
%TO.C,3.3V201*%
X187400000Y-113100000D03*
%TD*%
D19*
%TO.C,H6*%
X115900000Y-112600000D03*
%TD*%
%TO.C,H5*%
X173900000Y-112600000D03*
%TD*%
%TO.C,R101*%
G36*
G01*
X178385000Y-104160000D02*
X178015000Y-104160000D01*
G75*
G02*
X177880000Y-104025000I0J135000D01*
G01*
X177880000Y-103755000D01*
G75*
G02*
X178015000Y-103620000I135000J0D01*
G01*
X178385000Y-103620000D01*
G75*
G02*
X178520000Y-103755000I0J-135000D01*
G01*
X178520000Y-104025000D01*
G75*
G02*
X178385000Y-104160000I-135000J0D01*
G01*
G37*
G36*
G01*
X178385000Y-105180000D02*
X178015000Y-105180000D01*
G75*
G02*
X177880000Y-105045000I0J135000D01*
G01*
X177880000Y-104775000D01*
G75*
G02*
X178015000Y-104640000I135000J0D01*
G01*
X178385000Y-104640000D01*
G75*
G02*
X178520000Y-104775000I0J-135000D01*
G01*
X178520000Y-105045000D01*
G75*
G02*
X178385000Y-105180000I-135000J0D01*
G01*
G37*
%TD*%
%TO.C,H4*%
X193900000Y-63600000D03*
%TD*%
%TO.C,H3*%
X115900000Y-63600000D03*
%TD*%
%TO.C,H2*%
X173900000Y-63600000D03*
%TD*%
%TO.C,H1*%
X193900000Y-112600000D03*
%TD*%
%TO.C,C101*%
G36*
G01*
X178430000Y-74680000D02*
X178770000Y-74680000D01*
G75*
G02*
X178910000Y-74820000I0J-140000D01*
G01*
X178910000Y-75100000D01*
G75*
G02*
X178770000Y-75240000I-140000J0D01*
G01*
X178430000Y-75240000D01*
G75*
G02*
X178290000Y-75100000I0J140000D01*
G01*
X178290000Y-74820000D01*
G75*
G02*
X178430000Y-74680000I140000J0D01*
G01*
G37*
G36*
G01*
X178430000Y-73720000D02*
X178770000Y-73720000D01*
G75*
G02*
X178910000Y-73860000I0J-140000D01*
G01*
X178910000Y-74140000D01*
G75*
G02*
X178770000Y-74280000I-140000J0D01*
G01*
X178430000Y-74280000D01*
G75*
G02*
X178290000Y-74140000I0J140000D01*
G01*
X178290000Y-73860000D01*
G75*
G02*
X178430000Y-73720000I140000J0D01*
G01*
G37*
%TD*%
D20*
%TO.C,Q101*%
X151000000Y-75575000D03*
D21*
X144700000Y-77855000D03*
X144700000Y-73295000D03*
%TD*%
D14*
%TO.C,D201*%
X149900000Y-89450000D03*
X149900000Y-92750000D03*
%TD*%
D22*
%TO.C,TP2*%
X185000000Y-79100000D03*
%TD*%
D23*
%TO.C,J10*%
X192430000Y-71375000D03*
X192430000Y-76225000D03*
D24*
X192430000Y-72500000D03*
X192430000Y-73150000D03*
X192430000Y-75100000D03*
X192430000Y-74450000D03*
X192430000Y-73800000D03*
D25*
X195100000Y-77400000D03*
X195100000Y-70200000D03*
%TD*%
D26*
%TO.C,U3*%
X186000000Y-74900000D03*
X186000000Y-75850000D03*
X186000000Y-73950000D03*
X188200000Y-73950000D03*
X188200000Y-74900000D03*
X188200000Y-75850000D03*
%TD*%
%TO.C,U2*%
G36*
G01*
X173300000Y-93115000D02*
X173300000Y-94515000D01*
G75*
G02*
X173225000Y-94590000I-75000J0D01*
G01*
X173075000Y-94590000D01*
G75*
G02*
X173000000Y-94515000I0J75000D01*
G01*
X173000000Y-93115000D01*
G75*
G02*
X173075000Y-93040000I75000J0D01*
G01*
X173225000Y-93040000D01*
G75*
G02*
X173300000Y-93115000I0J-75000D01*
G01*
G37*
G36*
G01*
X172800000Y-93115000D02*
X172800000Y-94515000D01*
G75*
G02*
X172725000Y-94590000I-75000J0D01*
G01*
X172575000Y-94590000D01*
G75*
G02*
X172500000Y-94515000I0J75000D01*
G01*
X172500000Y-93115000D01*
G75*
G02*
X172575000Y-93040000I75000J0D01*
G01*
X172725000Y-93040000D01*
G75*
G02*
X172800000Y-93115000I0J-75000D01*
G01*
G37*
G36*
G01*
X172300000Y-93115000D02*
X172300000Y-94515000D01*
G75*
G02*
X172225000Y-94590000I-75000J0D01*
G01*
X172075000Y-94590000D01*
G75*
G02*
X172000000Y-94515000I0J75000D01*
G01*
X172000000Y-93115000D01*
G75*
G02*
X172075000Y-93040000I75000J0D01*
G01*
X172225000Y-93040000D01*
G75*
G02*
X172300000Y-93115000I0J-75000D01*
G01*
G37*
G36*
G01*
X171800000Y-93115000D02*
X171800000Y-94515000D01*
G75*
G02*
X171725000Y-94590000I-75000J0D01*
G01*
X171575000Y-94590000D01*
G75*
G02*
X171500000Y-94515000I0J75000D01*
G01*
X171500000Y-93115000D01*
G75*
G02*
X171575000Y-93040000I75000J0D01*
G01*
X171725000Y-93040000D01*
G75*
G02*
X171800000Y-93115000I0J-75000D01*
G01*
G37*
G36*
G01*
X171300000Y-93115000D02*
X171300000Y-94515000D01*
G75*
G02*
X171225000Y-94590000I-75000J0D01*
G01*
X171075000Y-94590000D01*
G75*
G02*
X171000000Y-94515000I0J75000D01*
G01*
X171000000Y-93115000D01*
G75*
G02*
X171075000Y-93040000I75000J0D01*
G01*
X171225000Y-93040000D01*
G75*
G02*
X171300000Y-93115000I0J-75000D01*
G01*
G37*
G36*
G01*
X170800000Y-93115000D02*
X170800000Y-94515000D01*
G75*
G02*
X170725000Y-94590000I-75000J0D01*
G01*
X170575000Y-94590000D01*
G75*
G02*
X170500000Y-94515000I0J75000D01*
G01*
X170500000Y-93115000D01*
G75*
G02*
X170575000Y-93040000I75000J0D01*
G01*
X170725000Y-93040000D01*
G75*
G02*
X170800000Y-93115000I0J-75000D01*
G01*
G37*
G36*
G01*
X170300000Y-93115000D02*
X170300000Y-94515000D01*
G75*
G02*
X170225000Y-94590000I-75000J0D01*
G01*
X170075000Y-94590000D01*
G75*
G02*
X170000000Y-94515000I0J75000D01*
G01*
X170000000Y-93115000D01*
G75*
G02*
X170075000Y-93040000I75000J0D01*
G01*
X170225000Y-93040000D01*
G75*
G02*
X170300000Y-93115000I0J-75000D01*
G01*
G37*
G36*
G01*
X169800000Y-93115000D02*
X169800000Y-94515000D01*
G75*
G02*
X169725000Y-94590000I-75000J0D01*
G01*
X169575000Y-94590000D01*
G75*
G02*
X169500000Y-94515000I0J75000D01*
G01*
X169500000Y-93115000D01*
G75*
G02*
X169575000Y-93040000I75000J0D01*
G01*
X169725000Y-93040000D01*
G75*
G02*
X169800000Y-93115000I0J-75000D01*
G01*
G37*
G36*
G01*
X169300000Y-93115000D02*
X169300000Y-94515000D01*
G75*
G02*
X169225000Y-94590000I-75000J0D01*
G01*
X169075000Y-94590000D01*
G75*
G02*
X169000000Y-94515000I0J75000D01*
G01*
X169000000Y-93115000D01*
G75*
G02*
X169075000Y-93040000I75000J0D01*
G01*
X169225000Y-93040000D01*
G75*
G02*
X169300000Y-93115000I0J-75000D01*
G01*
G37*
G36*
G01*
X168800000Y-93115000D02*
X168800000Y-94515000D01*
G75*
G02*
X168725000Y-94590000I-75000J0D01*
G01*
X168575000Y-94590000D01*
G75*
G02*
X168500000Y-94515000I0J75000D01*
G01*
X168500000Y-93115000D01*
G75*
G02*
X168575000Y-93040000I75000J0D01*
G01*
X168725000Y-93040000D01*
G75*
G02*
X168800000Y-93115000I0J-75000D01*
G01*
G37*
G36*
G01*
X168300000Y-93115000D02*
X168300000Y-94515000D01*
G75*
G02*
X168225000Y-94590000I-75000J0D01*
G01*
X168075000Y-94590000D01*
G75*
G02*
X168000000Y-94515000I0J75000D01*
G01*
X168000000Y-93115000D01*
G75*
G02*
X168075000Y-93040000I75000J0D01*
G01*
X168225000Y-93040000D01*
G75*
G02*
X168300000Y-93115000I0J-75000D01*
G01*
G37*
G36*
G01*
X167800000Y-93115000D02*
X167800000Y-94515000D01*
G75*
G02*
X167725000Y-94590000I-75000J0D01*
G01*
X167575000Y-94590000D01*
G75*
G02*
X167500000Y-94515000I0J75000D01*
G01*
X167500000Y-93115000D01*
G75*
G02*
X167575000Y-93040000I75000J0D01*
G01*
X167725000Y-93040000D01*
G75*
G02*
X167800000Y-93115000I0J-75000D01*
G01*
G37*
G36*
G01*
X167300000Y-93115000D02*
X167300000Y-94515000D01*
G75*
G02*
X167225000Y-94590000I-75000J0D01*
G01*
X167075000Y-94590000D01*
G75*
G02*
X167000000Y-94515000I0J75000D01*
G01*
X167000000Y-93115000D01*
G75*
G02*
X167075000Y-93040000I75000J0D01*
G01*
X167225000Y-93040000D01*
G75*
G02*
X167300000Y-93115000I0J-75000D01*
G01*
G37*
G36*
G01*
X166800000Y-93115000D02*
X166800000Y-94515000D01*
G75*
G02*
X166725000Y-94590000I-75000J0D01*
G01*
X166575000Y-94590000D01*
G75*
G02*
X166500000Y-94515000I0J75000D01*
G01*
X166500000Y-93115000D01*
G75*
G02*
X166575000Y-93040000I75000J0D01*
G01*
X166725000Y-93040000D01*
G75*
G02*
X166800000Y-93115000I0J-75000D01*
G01*
G37*
G36*
G01*
X166300000Y-93115000D02*
X166300000Y-94515000D01*
G75*
G02*
X166225000Y-94590000I-75000J0D01*
G01*
X166075000Y-94590000D01*
G75*
G02*
X166000000Y-94515000I0J75000D01*
G01*
X166000000Y-93115000D01*
G75*
G02*
X166075000Y-93040000I75000J0D01*
G01*
X166225000Y-93040000D01*
G75*
G02*
X166300000Y-93115000I0J-75000D01*
G01*
G37*
G36*
G01*
X165800000Y-93115000D02*
X165800000Y-94515000D01*
G75*
G02*
X165725000Y-94590000I-75000J0D01*
G01*
X165575000Y-94590000D01*
G75*
G02*
X165500000Y-94515000I0J75000D01*
G01*
X165500000Y-93115000D01*
G75*
G02*
X165575000Y-93040000I75000J0D01*
G01*
X165725000Y-93040000D01*
G75*
G02*
X165800000Y-93115000I0J-75000D01*
G01*
G37*
G36*
G01*
X164500000Y-91815000D02*
X164500000Y-91965000D01*
G75*
G02*
X164425000Y-92040000I-75000J0D01*
G01*
X163025000Y-92040000D01*
G75*
G02*
X162950000Y-91965000I0J75000D01*
G01*
X162950000Y-91815000D01*
G75*
G02*
X163025000Y-91740000I75000J0D01*
G01*
X164425000Y-91740000D01*
G75*
G02*
X164500000Y-91815000I0J-75000D01*
G01*
G37*
G36*
G01*
X164500000Y-91315000D02*
X164500000Y-91465000D01*
G75*
G02*
X164425000Y-91540000I-75000J0D01*
G01*
X163025000Y-91540000D01*
G75*
G02*
X162950000Y-91465000I0J75000D01*
G01*
X162950000Y-91315000D01*
G75*
G02*
X163025000Y-91240000I75000J0D01*
G01*
X164425000Y-91240000D01*
G75*
G02*
X164500000Y-91315000I0J-75000D01*
G01*
G37*
G36*
G01*
X164500000Y-90815000D02*
X164500000Y-90965000D01*
G75*
G02*
X164425000Y-91040000I-75000J0D01*
G01*
X163025000Y-91040000D01*
G75*
G02*
X162950000Y-90965000I0J75000D01*
G01*
X162950000Y-90815000D01*
G75*
G02*
X163025000Y-90740000I75000J0D01*
G01*
X164425000Y-90740000D01*
G75*
G02*
X164500000Y-90815000I0J-75000D01*
G01*
G37*
G36*
G01*
X164500000Y-90315000D02*
X164500000Y-90465000D01*
G75*
G02*
X164425000Y-90540000I-75000J0D01*
G01*
X163025000Y-90540000D01*
G75*
G02*
X162950000Y-90465000I0J75000D01*
G01*
X162950000Y-90315000D01*
G75*
G02*
X163025000Y-90240000I75000J0D01*
G01*
X164425000Y-90240000D01*
G75*
G02*
X164500000Y-90315000I0J-75000D01*
G01*
G37*
G36*
G01*
X164500000Y-89815000D02*
X164500000Y-89965000D01*
G75*
G02*
X164425000Y-90040000I-75000J0D01*
G01*
X163025000Y-90040000D01*
G75*
G02*
X162950000Y-89965000I0J75000D01*
G01*
X162950000Y-89815000D01*
G75*
G02*
X163025000Y-89740000I75000J0D01*
G01*
X164425000Y-89740000D01*
G75*
G02*
X164500000Y-89815000I0J-75000D01*
G01*
G37*
G36*
G01*
X164500000Y-89315000D02*
X164500000Y-89465000D01*
G75*
G02*
X164425000Y-89540000I-75000J0D01*
G01*
X163025000Y-89540000D01*
G75*
G02*
X162950000Y-89465000I0J75000D01*
G01*
X162950000Y-89315000D01*
G75*
G02*
X163025000Y-89240000I75000J0D01*
G01*
X164425000Y-89240000D01*
G75*
G02*
X164500000Y-89315000I0J-75000D01*
G01*
G37*
G36*
G01*
X164500000Y-88815000D02*
X164500000Y-88965000D01*
G75*
G02*
X164425000Y-89040000I-75000J0D01*
G01*
X163025000Y-89040000D01*
G75*
G02*
X162950000Y-88965000I0J75000D01*
G01*
X162950000Y-88815000D01*
G75*
G02*
X163025000Y-88740000I75000J0D01*
G01*
X164425000Y-88740000D01*
G75*
G02*
X164500000Y-88815000I0J-75000D01*
G01*
G37*
G36*
G01*
X164500000Y-88315000D02*
X164500000Y-88465000D01*
G75*
G02*
X164425000Y-88540000I-75000J0D01*
G01*
X163025000Y-88540000D01*
G75*
G02*
X162950000Y-88465000I0J75000D01*
G01*
X162950000Y-88315000D01*
G75*
G02*
X163025000Y-88240000I75000J0D01*
G01*
X164425000Y-88240000D01*
G75*
G02*
X164500000Y-88315000I0J-75000D01*
G01*
G37*
G36*
G01*
X164500000Y-87815000D02*
X164500000Y-87965000D01*
G75*
G02*
X164425000Y-88040000I-75000J0D01*
G01*
X163025000Y-88040000D01*
G75*
G02*
X162950000Y-87965000I0J75000D01*
G01*
X162950000Y-87815000D01*
G75*
G02*
X163025000Y-87740000I75000J0D01*
G01*
X164425000Y-87740000D01*
G75*
G02*
X164500000Y-87815000I0J-75000D01*
G01*
G37*
G36*
G01*
X164500000Y-87315000D02*
X164500000Y-87465000D01*
G75*
G02*
X164425000Y-87540000I-75000J0D01*
G01*
X163025000Y-87540000D01*
G75*
G02*
X162950000Y-87465000I0J75000D01*
G01*
X162950000Y-87315000D01*
G75*
G02*
X163025000Y-87240000I75000J0D01*
G01*
X164425000Y-87240000D01*
G75*
G02*
X164500000Y-87315000I0J-75000D01*
G01*
G37*
G36*
G01*
X164500000Y-86815000D02*
X164500000Y-86965000D01*
G75*
G02*
X164425000Y-87040000I-75000J0D01*
G01*
X163025000Y-87040000D01*
G75*
G02*
X162950000Y-86965000I0J75000D01*
G01*
X162950000Y-86815000D01*
G75*
G02*
X163025000Y-86740000I75000J0D01*
G01*
X164425000Y-86740000D01*
G75*
G02*
X164500000Y-86815000I0J-75000D01*
G01*
G37*
G36*
G01*
X164500000Y-86315000D02*
X164500000Y-86465000D01*
G75*
G02*
X164425000Y-86540000I-75000J0D01*
G01*
X163025000Y-86540000D01*
G75*
G02*
X162950000Y-86465000I0J75000D01*
G01*
X162950000Y-86315000D01*
G75*
G02*
X163025000Y-86240000I75000J0D01*
G01*
X164425000Y-86240000D01*
G75*
G02*
X164500000Y-86315000I0J-75000D01*
G01*
G37*
G36*
G01*
X164500000Y-85815000D02*
X164500000Y-85965000D01*
G75*
G02*
X164425000Y-86040000I-75000J0D01*
G01*
X163025000Y-86040000D01*
G75*
G02*
X162950000Y-85965000I0J75000D01*
G01*
X162950000Y-85815000D01*
G75*
G02*
X163025000Y-85740000I75000J0D01*
G01*
X164425000Y-85740000D01*
G75*
G02*
X164500000Y-85815000I0J-75000D01*
G01*
G37*
G36*
G01*
X164500000Y-85315000D02*
X164500000Y-85465000D01*
G75*
G02*
X164425000Y-85540000I-75000J0D01*
G01*
X163025000Y-85540000D01*
G75*
G02*
X162950000Y-85465000I0J75000D01*
G01*
X162950000Y-85315000D01*
G75*
G02*
X163025000Y-85240000I75000J0D01*
G01*
X164425000Y-85240000D01*
G75*
G02*
X164500000Y-85315000I0J-75000D01*
G01*
G37*
G36*
G01*
X164500000Y-84815000D02*
X164500000Y-84965000D01*
G75*
G02*
X164425000Y-85040000I-75000J0D01*
G01*
X163025000Y-85040000D01*
G75*
G02*
X162950000Y-84965000I0J75000D01*
G01*
X162950000Y-84815000D01*
G75*
G02*
X163025000Y-84740000I75000J0D01*
G01*
X164425000Y-84740000D01*
G75*
G02*
X164500000Y-84815000I0J-75000D01*
G01*
G37*
G36*
G01*
X164500000Y-84315000D02*
X164500000Y-84465000D01*
G75*
G02*
X164425000Y-84540000I-75000J0D01*
G01*
X163025000Y-84540000D01*
G75*
G02*
X162950000Y-84465000I0J75000D01*
G01*
X162950000Y-84315000D01*
G75*
G02*
X163025000Y-84240000I75000J0D01*
G01*
X164425000Y-84240000D01*
G75*
G02*
X164500000Y-84315000I0J-75000D01*
G01*
G37*
G36*
G01*
X165800000Y-81765000D02*
X165800000Y-83165000D01*
G75*
G02*
X165725000Y-83240000I-75000J0D01*
G01*
X165575000Y-83240000D01*
G75*
G02*
X165500000Y-83165000I0J75000D01*
G01*
X165500000Y-81765000D01*
G75*
G02*
X165575000Y-81690000I75000J0D01*
G01*
X165725000Y-81690000D01*
G75*
G02*
X165800000Y-81765000I0J-75000D01*
G01*
G37*
G36*
G01*
X166300000Y-81765000D02*
X166300000Y-83165000D01*
G75*
G02*
X166225000Y-83240000I-75000J0D01*
G01*
X166075000Y-83240000D01*
G75*
G02*
X166000000Y-83165000I0J75000D01*
G01*
X166000000Y-81765000D01*
G75*
G02*
X166075000Y-81690000I75000J0D01*
G01*
X166225000Y-81690000D01*
G75*
G02*
X166300000Y-81765000I0J-75000D01*
G01*
G37*
G36*
G01*
X166800000Y-81765000D02*
X166800000Y-83165000D01*
G75*
G02*
X166725000Y-83240000I-75000J0D01*
G01*
X166575000Y-83240000D01*
G75*
G02*
X166500000Y-83165000I0J75000D01*
G01*
X166500000Y-81765000D01*
G75*
G02*
X166575000Y-81690000I75000J0D01*
G01*
X166725000Y-81690000D01*
G75*
G02*
X166800000Y-81765000I0J-75000D01*
G01*
G37*
G36*
G01*
X167300000Y-81765000D02*
X167300000Y-83165000D01*
G75*
G02*
X167225000Y-83240000I-75000J0D01*
G01*
X167075000Y-83240000D01*
G75*
G02*
X167000000Y-83165000I0J75000D01*
G01*
X167000000Y-81765000D01*
G75*
G02*
X167075000Y-81690000I75000J0D01*
G01*
X167225000Y-81690000D01*
G75*
G02*
X167300000Y-81765000I0J-75000D01*
G01*
G37*
G36*
G01*
X167800000Y-81765000D02*
X167800000Y-83165000D01*
G75*
G02*
X167725000Y-83240000I-75000J0D01*
G01*
X167575000Y-83240000D01*
G75*
G02*
X167500000Y-83165000I0J75000D01*
G01*
X167500000Y-81765000D01*
G75*
G02*
X167575000Y-81690000I75000J0D01*
G01*
X167725000Y-81690000D01*
G75*
G02*
X167800000Y-81765000I0J-75000D01*
G01*
G37*
G36*
G01*
X168300000Y-81765000D02*
X168300000Y-83165000D01*
G75*
G02*
X168225000Y-83240000I-75000J0D01*
G01*
X168075000Y-83240000D01*
G75*
G02*
X168000000Y-83165000I0J75000D01*
G01*
X168000000Y-81765000D01*
G75*
G02*
X168075000Y-81690000I75000J0D01*
G01*
X168225000Y-81690000D01*
G75*
G02*
X168300000Y-81765000I0J-75000D01*
G01*
G37*
G36*
G01*
X168800000Y-81765000D02*
X168800000Y-83165000D01*
G75*
G02*
X168725000Y-83240000I-75000J0D01*
G01*
X168575000Y-83240000D01*
G75*
G02*
X168500000Y-83165000I0J75000D01*
G01*
X168500000Y-81765000D01*
G75*
G02*
X168575000Y-81690000I75000J0D01*
G01*
X168725000Y-81690000D01*
G75*
G02*
X168800000Y-81765000I0J-75000D01*
G01*
G37*
G36*
G01*
X169300000Y-81765000D02*
X169300000Y-83165000D01*
G75*
G02*
X169225000Y-83240000I-75000J0D01*
G01*
X169075000Y-83240000D01*
G75*
G02*
X169000000Y-83165000I0J75000D01*
G01*
X169000000Y-81765000D01*
G75*
G02*
X169075000Y-81690000I75000J0D01*
G01*
X169225000Y-81690000D01*
G75*
G02*
X169300000Y-81765000I0J-75000D01*
G01*
G37*
G36*
G01*
X169800000Y-81765000D02*
X169800000Y-83165000D01*
G75*
G02*
X169725000Y-83240000I-75000J0D01*
G01*
X169575000Y-83240000D01*
G75*
G02*
X169500000Y-83165000I0J75000D01*
G01*
X169500000Y-81765000D01*
G75*
G02*
X169575000Y-81690000I75000J0D01*
G01*
X169725000Y-81690000D01*
G75*
G02*
X169800000Y-81765000I0J-75000D01*
G01*
G37*
G36*
G01*
X170300000Y-81765000D02*
X170300000Y-83165000D01*
G75*
G02*
X170225000Y-83240000I-75000J0D01*
G01*
X170075000Y-83240000D01*
G75*
G02*
X170000000Y-83165000I0J75000D01*
G01*
X170000000Y-81765000D01*
G75*
G02*
X170075000Y-81690000I75000J0D01*
G01*
X170225000Y-81690000D01*
G75*
G02*
X170300000Y-81765000I0J-75000D01*
G01*
G37*
G36*
G01*
X170800000Y-81765000D02*
X170800000Y-83165000D01*
G75*
G02*
X170725000Y-83240000I-75000J0D01*
G01*
X170575000Y-83240000D01*
G75*
G02*
X170500000Y-83165000I0J75000D01*
G01*
X170500000Y-81765000D01*
G75*
G02*
X170575000Y-81690000I75000J0D01*
G01*
X170725000Y-81690000D01*
G75*
G02*
X170800000Y-81765000I0J-75000D01*
G01*
G37*
G36*
G01*
X171300000Y-81765000D02*
X171300000Y-83165000D01*
G75*
G02*
X171225000Y-83240000I-75000J0D01*
G01*
X171075000Y-83240000D01*
G75*
G02*
X171000000Y-83165000I0J75000D01*
G01*
X171000000Y-81765000D01*
G75*
G02*
X171075000Y-81690000I75000J0D01*
G01*
X171225000Y-81690000D01*
G75*
G02*
X171300000Y-81765000I0J-75000D01*
G01*
G37*
G36*
G01*
X171800000Y-81765000D02*
X171800000Y-83165000D01*
G75*
G02*
X171725000Y-83240000I-75000J0D01*
G01*
X171575000Y-83240000D01*
G75*
G02*
X171500000Y-83165000I0J75000D01*
G01*
X171500000Y-81765000D01*
G75*
G02*
X171575000Y-81690000I75000J0D01*
G01*
X171725000Y-81690000D01*
G75*
G02*
X171800000Y-81765000I0J-75000D01*
G01*
G37*
G36*
G01*
X172300000Y-81765000D02*
X172300000Y-83165000D01*
G75*
G02*
X172225000Y-83240000I-75000J0D01*
G01*
X172075000Y-83240000D01*
G75*
G02*
X172000000Y-83165000I0J75000D01*
G01*
X172000000Y-81765000D01*
G75*
G02*
X172075000Y-81690000I75000J0D01*
G01*
X172225000Y-81690000D01*
G75*
G02*
X172300000Y-81765000I0J-75000D01*
G01*
G37*
G36*
G01*
X172800000Y-81765000D02*
X172800000Y-83165000D01*
G75*
G02*
X172725000Y-83240000I-75000J0D01*
G01*
X172575000Y-83240000D01*
G75*
G02*
X172500000Y-83165000I0J75000D01*
G01*
X172500000Y-81765000D01*
G75*
G02*
X172575000Y-81690000I75000J0D01*
G01*
X172725000Y-81690000D01*
G75*
G02*
X172800000Y-81765000I0J-75000D01*
G01*
G37*
G36*
G01*
X173300000Y-81765000D02*
X173300000Y-83165000D01*
G75*
G02*
X173225000Y-83240000I-75000J0D01*
G01*
X173075000Y-83240000D01*
G75*
G02*
X173000000Y-83165000I0J75000D01*
G01*
X173000000Y-81765000D01*
G75*
G02*
X173075000Y-81690000I75000J0D01*
G01*
X173225000Y-81690000D01*
G75*
G02*
X173300000Y-81765000I0J-75000D01*
G01*
G37*
G36*
G01*
X175850000Y-84315000D02*
X175850000Y-84465000D01*
G75*
G02*
X175775000Y-84540000I-75000J0D01*
G01*
X174375000Y-84540000D01*
G75*
G02*
X174300000Y-84465000I0J75000D01*
G01*
X174300000Y-84315000D01*
G75*
G02*
X174375000Y-84240000I75000J0D01*
G01*
X175775000Y-84240000D01*
G75*
G02*
X175850000Y-84315000I0J-75000D01*
G01*
G37*
G36*
G01*
X175850000Y-84815000D02*
X175850000Y-84965000D01*
G75*
G02*
X175775000Y-85040000I-75000J0D01*
G01*
X174375000Y-85040000D01*
G75*
G02*
X174300000Y-84965000I0J75000D01*
G01*
X174300000Y-84815000D01*
G75*
G02*
X174375000Y-84740000I75000J0D01*
G01*
X175775000Y-84740000D01*
G75*
G02*
X175850000Y-84815000I0J-75000D01*
G01*
G37*
G36*
G01*
X175850000Y-85315000D02*
X175850000Y-85465000D01*
G75*
G02*
X175775000Y-85540000I-75000J0D01*
G01*
X174375000Y-85540000D01*
G75*
G02*
X174300000Y-85465000I0J75000D01*
G01*
X174300000Y-85315000D01*
G75*
G02*
X174375000Y-85240000I75000J0D01*
G01*
X175775000Y-85240000D01*
G75*
G02*
X175850000Y-85315000I0J-75000D01*
G01*
G37*
G36*
G01*
X175850000Y-85815000D02*
X175850000Y-85965000D01*
G75*
G02*
X175775000Y-86040000I-75000J0D01*
G01*
X174375000Y-86040000D01*
G75*
G02*
X174300000Y-85965000I0J75000D01*
G01*
X174300000Y-85815000D01*
G75*
G02*
X174375000Y-85740000I75000J0D01*
G01*
X175775000Y-85740000D01*
G75*
G02*
X175850000Y-85815000I0J-75000D01*
G01*
G37*
G36*
G01*
X175850000Y-86315000D02*
X175850000Y-86465000D01*
G75*
G02*
X175775000Y-86540000I-75000J0D01*
G01*
X174375000Y-86540000D01*
G75*
G02*
X174300000Y-86465000I0J75000D01*
G01*
X174300000Y-86315000D01*
G75*
G02*
X174375000Y-86240000I75000J0D01*
G01*
X175775000Y-86240000D01*
G75*
G02*
X175850000Y-86315000I0J-75000D01*
G01*
G37*
G36*
G01*
X175850000Y-86815000D02*
X175850000Y-86965000D01*
G75*
G02*
X175775000Y-87040000I-75000J0D01*
G01*
X174375000Y-87040000D01*
G75*
G02*
X174300000Y-86965000I0J75000D01*
G01*
X174300000Y-86815000D01*
G75*
G02*
X174375000Y-86740000I75000J0D01*
G01*
X175775000Y-86740000D01*
G75*
G02*
X175850000Y-86815000I0J-75000D01*
G01*
G37*
G36*
G01*
X175850000Y-87315000D02*
X175850000Y-87465000D01*
G75*
G02*
X175775000Y-87540000I-75000J0D01*
G01*
X174375000Y-87540000D01*
G75*
G02*
X174300000Y-87465000I0J75000D01*
G01*
X174300000Y-87315000D01*
G75*
G02*
X174375000Y-87240000I75000J0D01*
G01*
X175775000Y-87240000D01*
G75*
G02*
X175850000Y-87315000I0J-75000D01*
G01*
G37*
G36*
G01*
X175850000Y-87815000D02*
X175850000Y-87965000D01*
G75*
G02*
X175775000Y-88040000I-75000J0D01*
G01*
X174375000Y-88040000D01*
G75*
G02*
X174300000Y-87965000I0J75000D01*
G01*
X174300000Y-87815000D01*
G75*
G02*
X174375000Y-87740000I75000J0D01*
G01*
X175775000Y-87740000D01*
G75*
G02*
X175850000Y-87815000I0J-75000D01*
G01*
G37*
G36*
G01*
X175850000Y-88315000D02*
X175850000Y-88465000D01*
G75*
G02*
X175775000Y-88540000I-75000J0D01*
G01*
X174375000Y-88540000D01*
G75*
G02*
X174300000Y-88465000I0J75000D01*
G01*
X174300000Y-88315000D01*
G75*
G02*
X174375000Y-88240000I75000J0D01*
G01*
X175775000Y-88240000D01*
G75*
G02*
X175850000Y-88315000I0J-75000D01*
G01*
G37*
G36*
G01*
X175850000Y-88815000D02*
X175850000Y-88965000D01*
G75*
G02*
X175775000Y-89040000I-75000J0D01*
G01*
X174375000Y-89040000D01*
G75*
G02*
X174300000Y-88965000I0J75000D01*
G01*
X174300000Y-88815000D01*
G75*
G02*
X174375000Y-88740000I75000J0D01*
G01*
X175775000Y-88740000D01*
G75*
G02*
X175850000Y-88815000I0J-75000D01*
G01*
G37*
G36*
G01*
X175850000Y-89315000D02*
X175850000Y-89465000D01*
G75*
G02*
X175775000Y-89540000I-75000J0D01*
G01*
X174375000Y-89540000D01*
G75*
G02*
X174300000Y-89465000I0J75000D01*
G01*
X174300000Y-89315000D01*
G75*
G02*
X174375000Y-89240000I75000J0D01*
G01*
X175775000Y-89240000D01*
G75*
G02*
X175850000Y-89315000I0J-75000D01*
G01*
G37*
G36*
G01*
X175850000Y-89815000D02*
X175850000Y-89965000D01*
G75*
G02*
X175775000Y-90040000I-75000J0D01*
G01*
X174375000Y-90040000D01*
G75*
G02*
X174300000Y-89965000I0J75000D01*
G01*
X174300000Y-89815000D01*
G75*
G02*
X174375000Y-89740000I75000J0D01*
G01*
X175775000Y-89740000D01*
G75*
G02*
X175850000Y-89815000I0J-75000D01*
G01*
G37*
G36*
G01*
X175850000Y-90315000D02*
X175850000Y-90465000D01*
G75*
G02*
X175775000Y-90540000I-75000J0D01*
G01*
X174375000Y-90540000D01*
G75*
G02*
X174300000Y-90465000I0J75000D01*
G01*
X174300000Y-90315000D01*
G75*
G02*
X174375000Y-90240000I75000J0D01*
G01*
X175775000Y-90240000D01*
G75*
G02*
X175850000Y-90315000I0J-75000D01*
G01*
G37*
G36*
G01*
X175850000Y-90815000D02*
X175850000Y-90965000D01*
G75*
G02*
X175775000Y-91040000I-75000J0D01*
G01*
X174375000Y-91040000D01*
G75*
G02*
X174300000Y-90965000I0J75000D01*
G01*
X174300000Y-90815000D01*
G75*
G02*
X174375000Y-90740000I75000J0D01*
G01*
X175775000Y-90740000D01*
G75*
G02*
X175850000Y-90815000I0J-75000D01*
G01*
G37*
G36*
G01*
X175850000Y-91315000D02*
X175850000Y-91465000D01*
G75*
G02*
X175775000Y-91540000I-75000J0D01*
G01*
X174375000Y-91540000D01*
G75*
G02*
X174300000Y-91465000I0J75000D01*
G01*
X174300000Y-91315000D01*
G75*
G02*
X174375000Y-91240000I75000J0D01*
G01*
X175775000Y-91240000D01*
G75*
G02*
X175850000Y-91315000I0J-75000D01*
G01*
G37*
G36*
G01*
X175850000Y-91815000D02*
X175850000Y-91965000D01*
G75*
G02*
X175775000Y-92040000I-75000J0D01*
G01*
X174375000Y-92040000D01*
G75*
G02*
X174300000Y-91965000I0J75000D01*
G01*
X174300000Y-91815000D01*
G75*
G02*
X174375000Y-91740000I75000J0D01*
G01*
X175775000Y-91740000D01*
G75*
G02*
X175850000Y-91815000I0J-75000D01*
G01*
G37*
%TD*%
%TO.C,R15*%
G36*
G01*
X177215000Y-97920000D02*
X177585000Y-97920000D01*
G75*
G02*
X177720000Y-98055000I0J-135000D01*
G01*
X177720000Y-98325000D01*
G75*
G02*
X177585000Y-98460000I-135000J0D01*
G01*
X177215000Y-98460000D01*
G75*
G02*
X177080000Y-98325000I0J135000D01*
G01*
X177080000Y-98055000D01*
G75*
G02*
X177215000Y-97920000I135000J0D01*
G01*
G37*
G36*
G01*
X177215000Y-98940000D02*
X177585000Y-98940000D01*
G75*
G02*
X177720000Y-99075000I0J-135000D01*
G01*
X177720000Y-99345000D01*
G75*
G02*
X177585000Y-99480000I-135000J0D01*
G01*
X177215000Y-99480000D01*
G75*
G02*
X177080000Y-99345000I0J135000D01*
G01*
X177080000Y-99075000D01*
G75*
G02*
X177215000Y-98940000I135000J0D01*
G01*
G37*
%TD*%
%TO.C,R14*%
G36*
G01*
X177585000Y-101680000D02*
X177215000Y-101680000D01*
G75*
G02*
X177080000Y-101545000I0J135000D01*
G01*
X177080000Y-101275000D01*
G75*
G02*
X177215000Y-101140000I135000J0D01*
G01*
X177585000Y-101140000D01*
G75*
G02*
X177720000Y-101275000I0J-135000D01*
G01*
X177720000Y-101545000D01*
G75*
G02*
X177585000Y-101680000I-135000J0D01*
G01*
G37*
G36*
G01*
X177585000Y-100660000D02*
X177215000Y-100660000D01*
G75*
G02*
X177080000Y-100525000I0J135000D01*
G01*
X177080000Y-100255000D01*
G75*
G02*
X177215000Y-100120000I135000J0D01*
G01*
X177585000Y-100120000D01*
G75*
G02*
X177720000Y-100255000I0J-135000D01*
G01*
X177720000Y-100525000D01*
G75*
G02*
X177585000Y-100660000I-135000J0D01*
G01*
G37*
%TD*%
%TO.C,R7*%
G36*
G01*
X174195000Y-105845000D02*
X173645000Y-105845000D01*
G75*
G02*
X173445000Y-105645000I0J200000D01*
G01*
X173445000Y-105245000D01*
G75*
G02*
X173645000Y-105045000I200000J0D01*
G01*
X174195000Y-105045000D01*
G75*
G02*
X174395000Y-105245000I0J-200000D01*
G01*
X174395000Y-105645000D01*
G75*
G02*
X174195000Y-105845000I-200000J0D01*
G01*
G37*
G36*
G01*
X174195000Y-104195000D02*
X173645000Y-104195000D01*
G75*
G02*
X173445000Y-103995000I0J200000D01*
G01*
X173445000Y-103595000D01*
G75*
G02*
X173645000Y-103395000I200000J0D01*
G01*
X174195000Y-103395000D01*
G75*
G02*
X174395000Y-103595000I0J-200000D01*
G01*
X174395000Y-103995000D01*
G75*
G02*
X174195000Y-104195000I-200000J0D01*
G01*
G37*
%TD*%
%TO.C,R6*%
G36*
G01*
X176630000Y-89325000D02*
X176630000Y-88955000D01*
G75*
G02*
X176765000Y-88820000I135000J0D01*
G01*
X177035000Y-88820000D01*
G75*
G02*
X177170000Y-88955000I0J-135000D01*
G01*
X177170000Y-89325000D01*
G75*
G02*
X177035000Y-89460000I-135000J0D01*
G01*
X176765000Y-89460000D01*
G75*
G02*
X176630000Y-89325000I0J135000D01*
G01*
G37*
G36*
G01*
X177650000Y-89325000D02*
X177650000Y-88955000D01*
G75*
G02*
X177785000Y-88820000I135000J0D01*
G01*
X178055000Y-88820000D01*
G75*
G02*
X178190000Y-88955000I0J-135000D01*
G01*
X178190000Y-89325000D01*
G75*
G02*
X178055000Y-89460000I-135000J0D01*
G01*
X177785000Y-89460000D01*
G75*
G02*
X177650000Y-89325000I0J135000D01*
G01*
G37*
%TD*%
%TO.C,L2*%
G36*
G01*
X177610000Y-83317500D02*
X177610000Y-83662500D01*
G75*
G02*
X177462500Y-83810000I-147500J0D01*
G01*
X177167500Y-83810000D01*
G75*
G02*
X177020000Y-83662500I0J147500D01*
G01*
X177020000Y-83317500D01*
G75*
G02*
X177167500Y-83170000I147500J0D01*
G01*
X177462500Y-83170000D01*
G75*
G02*
X177610000Y-83317500I0J-147500D01*
G01*
G37*
G36*
G01*
X178580000Y-83317500D02*
X178580000Y-83662500D01*
G75*
G02*
X178432500Y-83810000I-147500J0D01*
G01*
X178137500Y-83810000D01*
G75*
G02*
X177990000Y-83662500I0J147500D01*
G01*
X177990000Y-83317500D01*
G75*
G02*
X178137500Y-83170000I147500J0D01*
G01*
X178432500Y-83170000D01*
G75*
G02*
X178580000Y-83317500I0J-147500D01*
G01*
G37*
%TD*%
D27*
%TO.C,HSE1*%
X181550000Y-91040000D03*
X181550000Y-88840000D03*
X179850000Y-88840000D03*
X179850000Y-91040000D03*
%TD*%
%TO.C,D3*%
G36*
G01*
X175946250Y-105825000D02*
X175433750Y-105825000D01*
G75*
G02*
X175215000Y-105606250I0J218750D01*
G01*
X175215000Y-105168750D01*
G75*
G02*
X175433750Y-104950000I218750J0D01*
G01*
X175946250Y-104950000D01*
G75*
G02*
X176165000Y-105168750I0J-218750D01*
G01*
X176165000Y-105606250D01*
G75*
G02*
X175946250Y-105825000I-218750J0D01*
G01*
G37*
G36*
G01*
X175946250Y-104250000D02*
X175433750Y-104250000D01*
G75*
G02*
X175215000Y-104031250I0J218750D01*
G01*
X175215000Y-103593750D01*
G75*
G02*
X175433750Y-103375000I218750J0D01*
G01*
X175946250Y-103375000D01*
G75*
G02*
X176165000Y-103593750I0J-218750D01*
G01*
X176165000Y-104031250D01*
G75*
G02*
X175946250Y-104250000I-218750J0D01*
G01*
G37*
%TD*%
D28*
%TO.C,D2*%
X143150000Y-80900000D03*
X146450000Y-80900000D03*
%TD*%
%TO.C,D1*%
X153550000Y-80900000D03*
X150250000Y-80900000D03*
%TD*%
%TO.C,C18*%
G36*
G01*
X179940000Y-87310000D02*
X179940000Y-86970000D01*
G75*
G02*
X180080000Y-86830000I140000J0D01*
G01*
X180360000Y-86830000D01*
G75*
G02*
X180500000Y-86970000I0J-140000D01*
G01*
X180500000Y-87310000D01*
G75*
G02*
X180360000Y-87450000I-140000J0D01*
G01*
X180080000Y-87450000D01*
G75*
G02*
X179940000Y-87310000I0J140000D01*
G01*
G37*
G36*
G01*
X180900000Y-87310000D02*
X180900000Y-86970000D01*
G75*
G02*
X181040000Y-86830000I140000J0D01*
G01*
X181320000Y-86830000D01*
G75*
G02*
X181460000Y-86970000I0J-140000D01*
G01*
X181460000Y-87310000D01*
G75*
G02*
X181320000Y-87450000I-140000J0D01*
G01*
X181040000Y-87450000D01*
G75*
G02*
X180900000Y-87310000I0J140000D01*
G01*
G37*
%TD*%
%TO.C,C17*%
G36*
G01*
X181360000Y-92770000D02*
X181360000Y-93110000D01*
G75*
G02*
X181220000Y-93250000I-140000J0D01*
G01*
X180940000Y-93250000D01*
G75*
G02*
X180800000Y-93110000I0J140000D01*
G01*
X180800000Y-92770000D01*
G75*
G02*
X180940000Y-92630000I140000J0D01*
G01*
X181220000Y-92630000D01*
G75*
G02*
X181360000Y-92770000I0J-140000D01*
G01*
G37*
G36*
G01*
X180400000Y-92770000D02*
X180400000Y-93110000D01*
G75*
G02*
X180260000Y-93250000I-140000J0D01*
G01*
X179980000Y-93250000D01*
G75*
G02*
X179840000Y-93110000I0J140000D01*
G01*
X179840000Y-92770000D01*
G75*
G02*
X179980000Y-92630000I140000J0D01*
G01*
X180260000Y-92630000D01*
G75*
G02*
X180400000Y-92770000I0J-140000D01*
G01*
G37*
%TD*%
%TO.C,C16*%
G36*
G01*
X161340000Y-92800000D02*
X161840000Y-92800000D01*
G75*
G02*
X162065000Y-93025000I0J-225000D01*
G01*
X162065000Y-93475000D01*
G75*
G02*
X161840000Y-93700000I-225000J0D01*
G01*
X161340000Y-93700000D01*
G75*
G02*
X161115000Y-93475000I0J225000D01*
G01*
X161115000Y-93025000D01*
G75*
G02*
X161340000Y-92800000I225000J0D01*
G01*
G37*
G36*
G01*
X161340000Y-91250000D02*
X161840000Y-91250000D01*
G75*
G02*
X162065000Y-91475000I0J-225000D01*
G01*
X162065000Y-91925000D01*
G75*
G02*
X161840000Y-92150000I-225000J0D01*
G01*
X161340000Y-92150000D01*
G75*
G02*
X161115000Y-91925000I0J225000D01*
G01*
X161115000Y-91475000D01*
G75*
G02*
X161340000Y-91250000I225000J0D01*
G01*
G37*
%TD*%
%TO.C,C15*%
G36*
G01*
X164475000Y-80090000D02*
X164475000Y-80590000D01*
G75*
G02*
X164250000Y-80815000I-225000J0D01*
G01*
X163800000Y-80815000D01*
G75*
G02*
X163575000Y-80590000I0J225000D01*
G01*
X163575000Y-80090000D01*
G75*
G02*
X163800000Y-79865000I225000J0D01*
G01*
X164250000Y-79865000D01*
G75*
G02*
X164475000Y-80090000I0J-225000D01*
G01*
G37*
G36*
G01*
X166025000Y-80090000D02*
X166025000Y-80590000D01*
G75*
G02*
X165800000Y-80815000I-225000J0D01*
G01*
X165350000Y-80815000D01*
G75*
G02*
X165125000Y-80590000I0J225000D01*
G01*
X165125000Y-80090000D01*
G75*
G02*
X165350000Y-79865000I225000J0D01*
G01*
X165800000Y-79865000D01*
G75*
G02*
X166025000Y-80090000I0J-225000D01*
G01*
G37*
%TD*%
%TO.C,C14*%
G36*
G01*
X177980000Y-85740000D02*
X177980000Y-85400000D01*
G75*
G02*
X178120000Y-85260000I140000J0D01*
G01*
X178400000Y-85260000D01*
G75*
G02*
X178540000Y-85400000I0J-140000D01*
G01*
X178540000Y-85740000D01*
G75*
G02*
X178400000Y-85880000I-140000J0D01*
G01*
X178120000Y-85880000D01*
G75*
G02*
X177980000Y-85740000I0J140000D01*
G01*
G37*
G36*
G01*
X177020000Y-85740000D02*
X177020000Y-85400000D01*
G75*
G02*
X177160000Y-85260000I140000J0D01*
G01*
X177440000Y-85260000D01*
G75*
G02*
X177580000Y-85400000I0J-140000D01*
G01*
X177580000Y-85740000D01*
G75*
G02*
X177440000Y-85880000I-140000J0D01*
G01*
X177160000Y-85880000D01*
G75*
G02*
X177020000Y-85740000I0J140000D01*
G01*
G37*
%TD*%
%TO.C,C13*%
G36*
G01*
X177980000Y-84740000D02*
X177980000Y-84400000D01*
G75*
G02*
X178120000Y-84260000I140000J0D01*
G01*
X178400000Y-84260000D01*
G75*
G02*
X178540000Y-84400000I0J-140000D01*
G01*
X178540000Y-84740000D01*
G75*
G02*
X178400000Y-84880000I-140000J0D01*
G01*
X178120000Y-84880000D01*
G75*
G02*
X177980000Y-84740000I0J140000D01*
G01*
G37*
G36*
G01*
X177020000Y-84740000D02*
X177020000Y-84400000D01*
G75*
G02*
X177160000Y-84260000I140000J0D01*
G01*
X177440000Y-84260000D01*
G75*
G02*
X177580000Y-84400000I0J-140000D01*
G01*
X177580000Y-84740000D01*
G75*
G02*
X177440000Y-84880000I-140000J0D01*
G01*
X177160000Y-84880000D01*
G75*
G02*
X177020000Y-84740000I0J140000D01*
G01*
G37*
%TD*%
%TO.C,C8*%
G36*
G01*
X173860000Y-95870000D02*
X173860000Y-95530000D01*
G75*
G02*
X174000000Y-95390000I140000J0D01*
G01*
X174280000Y-95390000D01*
G75*
G02*
X174420000Y-95530000I0J-140000D01*
G01*
X174420000Y-95870000D01*
G75*
G02*
X174280000Y-96010000I-140000J0D01*
G01*
X174000000Y-96010000D01*
G75*
G02*
X173860000Y-95870000I0J140000D01*
G01*
G37*
G36*
G01*
X172900000Y-95870000D02*
X172900000Y-95530000D01*
G75*
G02*
X173040000Y-95390000I140000J0D01*
G01*
X173320000Y-95390000D01*
G75*
G02*
X173460000Y-95530000I0J-140000D01*
G01*
X173460000Y-95870000D01*
G75*
G02*
X173320000Y-96010000I-140000J0D01*
G01*
X173040000Y-96010000D01*
G75*
G02*
X172900000Y-95870000I0J140000D01*
G01*
G37*
%TD*%
%TO.C,C7*%
G36*
G01*
X163900000Y-94270000D02*
X163900000Y-93930000D01*
G75*
G02*
X164040000Y-93790000I140000J0D01*
G01*
X164320000Y-93790000D01*
G75*
G02*
X164460000Y-93930000I0J-140000D01*
G01*
X164460000Y-94270000D01*
G75*
G02*
X164320000Y-94410000I-140000J0D01*
G01*
X164040000Y-94410000D01*
G75*
G02*
X163900000Y-94270000I0J140000D01*
G01*
G37*
G36*
G01*
X162940000Y-94270000D02*
X162940000Y-93930000D01*
G75*
G02*
X163080000Y-93790000I140000J0D01*
G01*
X163360000Y-93790000D01*
G75*
G02*
X163500000Y-93930000I0J-140000D01*
G01*
X163500000Y-94270000D01*
G75*
G02*
X163360000Y-94410000I-140000J0D01*
G01*
X163080000Y-94410000D01*
G75*
G02*
X162940000Y-94270000I0J140000D01*
G01*
G37*
%TD*%
%TO.C,C6*%
G36*
G01*
X163220000Y-82800000D02*
X163560000Y-82800000D01*
G75*
G02*
X163700000Y-82940000I0J-140000D01*
G01*
X163700000Y-83220000D01*
G75*
G02*
X163560000Y-83360000I-140000J0D01*
G01*
X163220000Y-83360000D01*
G75*
G02*
X163080000Y-83220000I0J140000D01*
G01*
X163080000Y-82940000D01*
G75*
G02*
X163220000Y-82800000I140000J0D01*
G01*
G37*
G36*
G01*
X163220000Y-81840000D02*
X163560000Y-81840000D01*
G75*
G02*
X163700000Y-81980000I0J-140000D01*
G01*
X163700000Y-82260000D01*
G75*
G02*
X163560000Y-82400000I-140000J0D01*
G01*
X163220000Y-82400000D01*
G75*
G02*
X163080000Y-82260000I0J140000D01*
G01*
X163080000Y-81980000D01*
G75*
G02*
X163220000Y-81840000I140000J0D01*
G01*
G37*
%TD*%
%TO.C,C5*%
G36*
G01*
X173140000Y-80930000D02*
X173140000Y-80590000D01*
G75*
G02*
X173280000Y-80450000I140000J0D01*
G01*
X173560000Y-80450000D01*
G75*
G02*
X173700000Y-80590000I0J-140000D01*
G01*
X173700000Y-80930000D01*
G75*
G02*
X173560000Y-81070000I-140000J0D01*
G01*
X173280000Y-81070000D01*
G75*
G02*
X173140000Y-80930000I0J140000D01*
G01*
G37*
G36*
G01*
X172180000Y-80930000D02*
X172180000Y-80590000D01*
G75*
G02*
X172320000Y-80450000I140000J0D01*
G01*
X172600000Y-80450000D01*
G75*
G02*
X172740000Y-80590000I0J-140000D01*
G01*
X172740000Y-80930000D01*
G75*
G02*
X172600000Y-81070000I-140000J0D01*
G01*
X172320000Y-81070000D01*
G75*
G02*
X172180000Y-80930000I0J140000D01*
G01*
G37*
%TD*%
%TO.C,C4*%
G36*
G01*
X176250000Y-93270000D02*
X176250000Y-92930000D01*
G75*
G02*
X176390000Y-92790000I140000J0D01*
G01*
X176670000Y-92790000D01*
G75*
G02*
X176810000Y-92930000I0J-140000D01*
G01*
X176810000Y-93270000D01*
G75*
G02*
X176670000Y-93410000I-140000J0D01*
G01*
X176390000Y-93410000D01*
G75*
G02*
X176250000Y-93270000I0J140000D01*
G01*
G37*
G36*
G01*
X175290000Y-93270000D02*
X175290000Y-92930000D01*
G75*
G02*
X175430000Y-92790000I140000J0D01*
G01*
X175710000Y-92790000D01*
G75*
G02*
X175850000Y-92930000I0J-140000D01*
G01*
X175850000Y-93270000D01*
G75*
G02*
X175710000Y-93410000I-140000J0D01*
G01*
X175430000Y-93410000D01*
G75*
G02*
X175290000Y-93270000I0J140000D01*
G01*
G37*
%TD*%
%TO.C,C3*%
G36*
G01*
X174270000Y-97400000D02*
X174270000Y-96900000D01*
G75*
G02*
X174495000Y-96675000I225000J0D01*
G01*
X174945000Y-96675000D01*
G75*
G02*
X175170000Y-96900000I0J-225000D01*
G01*
X175170000Y-97400000D01*
G75*
G02*
X174945000Y-97625000I-225000J0D01*
G01*
X174495000Y-97625000D01*
G75*
G02*
X174270000Y-97400000I0J225000D01*
G01*
G37*
G36*
G01*
X172720000Y-97400000D02*
X172720000Y-96900000D01*
G75*
G02*
X172945000Y-96675000I225000J0D01*
G01*
X173395000Y-96675000D01*
G75*
G02*
X173620000Y-96900000I0J-225000D01*
G01*
X173620000Y-97400000D01*
G75*
G02*
X173395000Y-97625000I-225000J0D01*
G01*
X172945000Y-97625000D01*
G75*
G02*
X172720000Y-97400000I0J225000D01*
G01*
G37*
%TD*%
%TO.C,C201*%
G36*
G01*
X149030000Y-86800000D02*
X149370000Y-86800000D01*
G75*
G02*
X149510000Y-86940000I0J-140000D01*
G01*
X149510000Y-87220000D01*
G75*
G02*
X149370000Y-87360000I-140000J0D01*
G01*
X149030000Y-87360000D01*
G75*
G02*
X148890000Y-87220000I0J140000D01*
G01*
X148890000Y-86940000D01*
G75*
G02*
X149030000Y-86800000I140000J0D01*
G01*
G37*
G36*
G01*
X149030000Y-85840000D02*
X149370000Y-85840000D01*
G75*
G02*
X149510000Y-85980000I0J-140000D01*
G01*
X149510000Y-86260000D01*
G75*
G02*
X149370000Y-86400000I-140000J0D01*
G01*
X149030000Y-86400000D01*
G75*
G02*
X148890000Y-86260000I0J140000D01*
G01*
X148890000Y-85980000D01*
G75*
G02*
X149030000Y-85840000I140000J0D01*
G01*
G37*
%TD*%
%TO.C,C202*%
G36*
G01*
X145950000Y-84550001D02*
X145950000Y-83249999D01*
G75*
G02*
X146199999Y-83000000I249999J0D01*
G01*
X146850001Y-83000000D01*
G75*
G02*
X147100000Y-83249999I0J-249999D01*
G01*
X147100000Y-84550001D01*
G75*
G02*
X146850001Y-84800000I-249999J0D01*
G01*
X146199999Y-84800000D01*
G75*
G02*
X145950000Y-84550001I0J249999D01*
G01*
G37*
G36*
G01*
X148900000Y-84550001D02*
X148900000Y-83249999D01*
G75*
G02*
X149149999Y-83000000I249999J0D01*
G01*
X149800001Y-83000000D01*
G75*
G02*
X150050000Y-83249999I0J-249999D01*
G01*
X150050000Y-84550001D01*
G75*
G02*
X149800001Y-84800000I-249999J0D01*
G01*
X149149999Y-84800000D01*
G75*
G02*
X148900000Y-84550001I0J249999D01*
G01*
G37*
%TD*%
%TO.C,C203*%
G36*
G01*
X144775000Y-96150000D02*
X144775000Y-95650000D01*
G75*
G02*
X145000000Y-95425000I225000J0D01*
G01*
X145450000Y-95425000D01*
G75*
G02*
X145675000Y-95650000I0J-225000D01*
G01*
X145675000Y-96150000D01*
G75*
G02*
X145450000Y-96375000I-225000J0D01*
G01*
X145000000Y-96375000D01*
G75*
G02*
X144775000Y-96150000I0J225000D01*
G01*
G37*
G36*
G01*
X146325000Y-96150000D02*
X146325000Y-95650000D01*
G75*
G02*
X146550000Y-95425000I225000J0D01*
G01*
X147000000Y-95425000D01*
G75*
G02*
X147225000Y-95650000I0J-225000D01*
G01*
X147225000Y-96150000D01*
G75*
G02*
X147000000Y-96375000I-225000J0D01*
G01*
X146550000Y-96375000D01*
G75*
G02*
X146325000Y-96150000I0J225000D01*
G01*
G37*
%TD*%
%TO.C,C204*%
G36*
G01*
X145030000Y-96940000D02*
X145370000Y-96940000D01*
G75*
G02*
X145510000Y-97080000I0J-140000D01*
G01*
X145510000Y-97360000D01*
G75*
G02*
X145370000Y-97500000I-140000J0D01*
G01*
X145030000Y-97500000D01*
G75*
G02*
X144890000Y-97360000I0J140000D01*
G01*
X144890000Y-97080000D01*
G75*
G02*
X145030000Y-96940000I140000J0D01*
G01*
G37*
G36*
G01*
X145030000Y-97900000D02*
X145370000Y-97900000D01*
G75*
G02*
X145510000Y-98040000I0J-140000D01*
G01*
X145510000Y-98320000D01*
G75*
G02*
X145370000Y-98460000I-140000J0D01*
G01*
X145030000Y-98460000D01*
G75*
G02*
X144890000Y-98320000I0J140000D01*
G01*
X144890000Y-98040000D01*
G75*
G02*
X145030000Y-97900000I140000J0D01*
G01*
G37*
%TD*%
%TO.C,C205*%
G36*
G01*
X142800000Y-84250000D02*
X142800000Y-84750000D01*
G75*
G02*
X142575000Y-84975000I-225000J0D01*
G01*
X142125000Y-84975000D01*
G75*
G02*
X141900000Y-84750000I0J225000D01*
G01*
X141900000Y-84250000D01*
G75*
G02*
X142125000Y-84025000I225000J0D01*
G01*
X142575000Y-84025000D01*
G75*
G02*
X142800000Y-84250000I0J-225000D01*
G01*
G37*
G36*
G01*
X144350000Y-84250000D02*
X144350000Y-84750000D01*
G75*
G02*
X144125000Y-84975000I-225000J0D01*
G01*
X143675000Y-84975000D01*
G75*
G02*
X143450000Y-84750000I0J225000D01*
G01*
X143450000Y-84250000D01*
G75*
G02*
X143675000Y-84025000I225000J0D01*
G01*
X144125000Y-84025000D01*
G75*
G02*
X144350000Y-84250000I0J-225000D01*
G01*
G37*
%TD*%
%TO.C,C206*%
G36*
G01*
X153250001Y-93950000D02*
X151949999Y-93950000D01*
G75*
G02*
X151700000Y-93700001I0J249999D01*
G01*
X151700000Y-93049999D01*
G75*
G02*
X151949999Y-92800000I249999J0D01*
G01*
X153250001Y-92800000D01*
G75*
G02*
X153500000Y-93049999I0J-249999D01*
G01*
X153500000Y-93700001D01*
G75*
G02*
X153250001Y-93950000I-249999J0D01*
G01*
G37*
G36*
G01*
X153250001Y-91000000D02*
X151949999Y-91000000D01*
G75*
G02*
X151700000Y-90750001I0J249999D01*
G01*
X151700000Y-90099999D01*
G75*
G02*
X151949999Y-89850000I249999J0D01*
G01*
X153250001Y-89850000D01*
G75*
G02*
X153500000Y-90099999I0J-249999D01*
G01*
X153500000Y-90750001D01*
G75*
G02*
X153250001Y-91000000I-249999J0D01*
G01*
G37*
%TD*%
%TO.C,C207*%
G36*
G01*
X155850001Y-91000000D02*
X154549999Y-91000000D01*
G75*
G02*
X154300000Y-90750001I0J249999D01*
G01*
X154300000Y-90099999D01*
G75*
G02*
X154549999Y-89850000I249999J0D01*
G01*
X155850001Y-89850000D01*
G75*
G02*
X156100000Y-90099999I0J-249999D01*
G01*
X156100000Y-90750001D01*
G75*
G02*
X155850001Y-91000000I-249999J0D01*
G01*
G37*
G36*
G01*
X155850001Y-93950000D02*
X154549999Y-93950000D01*
G75*
G02*
X154300000Y-93700001I0J249999D01*
G01*
X154300000Y-93049999D01*
G75*
G02*
X154549999Y-92800000I249999J0D01*
G01*
X155850001Y-92800000D01*
G75*
G02*
X156100000Y-93049999I0J-249999D01*
G01*
X156100000Y-93700001D01*
G75*
G02*
X155850001Y-93950000I-249999J0D01*
G01*
G37*
%TD*%
%TO.C,C301*%
G36*
G01*
X130650000Y-65125000D02*
X131150000Y-65125000D01*
G75*
G02*
X131375000Y-65350000I0J-225000D01*
G01*
X131375000Y-65800000D01*
G75*
G02*
X131150000Y-66025000I-225000J0D01*
G01*
X130650000Y-66025000D01*
G75*
G02*
X130425000Y-65800000I0J225000D01*
G01*
X130425000Y-65350000D01*
G75*
G02*
X130650000Y-65125000I225000J0D01*
G01*
G37*
G36*
G01*
X130650000Y-66675000D02*
X131150000Y-66675000D01*
G75*
G02*
X131375000Y-66900000I0J-225000D01*
G01*
X131375000Y-67350000D01*
G75*
G02*
X131150000Y-67575000I-225000J0D01*
G01*
X130650000Y-67575000D01*
G75*
G02*
X130425000Y-67350000I0J225000D01*
G01*
X130425000Y-66900000D01*
G75*
G02*
X130650000Y-66675000I225000J0D01*
G01*
G37*
%TD*%
D29*
%TO.C,C302*%
X127400000Y-67100000D03*
D30*
X125400000Y-67100000D03*
%TD*%
%TO.C,C303*%
G36*
G01*
X130650000Y-79075000D02*
X131150000Y-79075000D01*
G75*
G02*
X131375000Y-79300000I0J-225000D01*
G01*
X131375000Y-79750000D01*
G75*
G02*
X131150000Y-79975000I-225000J0D01*
G01*
X130650000Y-79975000D01*
G75*
G02*
X130425000Y-79750000I0J225000D01*
G01*
X130425000Y-79300000D01*
G75*
G02*
X130650000Y-79075000I225000J0D01*
G01*
G37*
G36*
G01*
X130650000Y-77525000D02*
X131150000Y-77525000D01*
G75*
G02*
X131375000Y-77750000I0J-225000D01*
G01*
X131375000Y-78200000D01*
G75*
G02*
X131150000Y-78425000I-225000J0D01*
G01*
X130650000Y-78425000D01*
G75*
G02*
X130425000Y-78200000I0J225000D01*
G01*
X130425000Y-77750000D01*
G75*
G02*
X130650000Y-77525000I225000J0D01*
G01*
G37*
%TD*%
%TO.C,C304*%
X125400000Y-79500000D03*
D29*
X127400000Y-79500000D03*
%TD*%
%TO.C,C305*%
G36*
G01*
X130650000Y-89925000D02*
X131150000Y-89925000D01*
G75*
G02*
X131375000Y-90150000I0J-225000D01*
G01*
X131375000Y-90600000D01*
G75*
G02*
X131150000Y-90825000I-225000J0D01*
G01*
X130650000Y-90825000D01*
G75*
G02*
X130425000Y-90600000I0J225000D01*
G01*
X130425000Y-90150000D01*
G75*
G02*
X130650000Y-89925000I225000J0D01*
G01*
G37*
G36*
G01*
X130650000Y-91475000D02*
X131150000Y-91475000D01*
G75*
G02*
X131375000Y-91700000I0J-225000D01*
G01*
X131375000Y-92150000D01*
G75*
G02*
X131150000Y-92375000I-225000J0D01*
G01*
X130650000Y-92375000D01*
G75*
G02*
X130425000Y-92150000I0J225000D01*
G01*
X130425000Y-91700000D01*
G75*
G02*
X130650000Y-91475000I225000J0D01*
G01*
G37*
%TD*%
D30*
%TO.C,C306*%
X125400000Y-91900000D03*
D29*
X127400000Y-91900000D03*
%TD*%
%TO.C,C307*%
G36*
G01*
X130650000Y-103875000D02*
X131150000Y-103875000D01*
G75*
G02*
X131375000Y-104100000I0J-225000D01*
G01*
X131375000Y-104550000D01*
G75*
G02*
X131150000Y-104775000I-225000J0D01*
G01*
X130650000Y-104775000D01*
G75*
G02*
X130425000Y-104550000I0J225000D01*
G01*
X130425000Y-104100000D01*
G75*
G02*
X130650000Y-103875000I225000J0D01*
G01*
G37*
G36*
G01*
X130650000Y-102325000D02*
X131150000Y-102325000D01*
G75*
G02*
X131375000Y-102550000I0J-225000D01*
G01*
X131375000Y-103000000D01*
G75*
G02*
X131150000Y-103225000I-225000J0D01*
G01*
X130650000Y-103225000D01*
G75*
G02*
X130425000Y-103000000I0J225000D01*
G01*
X130425000Y-102550000D01*
G75*
G02*
X130650000Y-102325000I225000J0D01*
G01*
G37*
%TD*%
%TO.C,C308*%
X127400000Y-104300000D03*
D30*
X125400000Y-104300000D03*
%TD*%
D31*
%TO.C,L201*%
X149150000Y-97500000D03*
X153250000Y-97500000D03*
%TD*%
%TO.C,R201*%
G36*
G01*
X143985000Y-96260000D02*
X143615000Y-96260000D01*
G75*
G02*
X143480000Y-96125000I0J135000D01*
G01*
X143480000Y-95855000D01*
G75*
G02*
X143615000Y-95720000I135000J0D01*
G01*
X143985000Y-95720000D01*
G75*
G02*
X144120000Y-95855000I0J-135000D01*
G01*
X144120000Y-96125000D01*
G75*
G02*
X143985000Y-96260000I-135000J0D01*
G01*
G37*
G36*
G01*
X143985000Y-97280000D02*
X143615000Y-97280000D01*
G75*
G02*
X143480000Y-97145000I0J135000D01*
G01*
X143480000Y-96875000D01*
G75*
G02*
X143615000Y-96740000I135000J0D01*
G01*
X143985000Y-96740000D01*
G75*
G02*
X144120000Y-96875000I0J-135000D01*
G01*
X144120000Y-97145000D01*
G75*
G02*
X143985000Y-97280000I-135000J0D01*
G01*
G37*
%TD*%
%TO.C,R202*%
G36*
G01*
X146425000Y-99775000D02*
X146425000Y-99225000D01*
G75*
G02*
X146625000Y-99025000I200000J0D01*
G01*
X147025000Y-99025000D01*
G75*
G02*
X147225000Y-99225000I0J-200000D01*
G01*
X147225000Y-99775000D01*
G75*
G02*
X147025000Y-99975000I-200000J0D01*
G01*
X146625000Y-99975000D01*
G75*
G02*
X146425000Y-99775000I0J200000D01*
G01*
G37*
G36*
G01*
X144775000Y-99775000D02*
X144775000Y-99225000D01*
G75*
G02*
X144975000Y-99025000I200000J0D01*
G01*
X145375000Y-99025000D01*
G75*
G02*
X145575000Y-99225000I0J-200000D01*
G01*
X145575000Y-99775000D01*
G75*
G02*
X145375000Y-99975000I-200000J0D01*
G01*
X144975000Y-99975000D01*
G75*
G02*
X144775000Y-99775000I0J200000D01*
G01*
G37*
%TD*%
%TO.C,R203*%
G36*
G01*
X144180000Y-94515000D02*
X144180000Y-94885000D01*
G75*
G02*
X144045000Y-95020000I-135000J0D01*
G01*
X143775000Y-95020000D01*
G75*
G02*
X143640000Y-94885000I0J135000D01*
G01*
X143640000Y-94515000D01*
G75*
G02*
X143775000Y-94380000I135000J0D01*
G01*
X144045000Y-94380000D01*
G75*
G02*
X144180000Y-94515000I0J-135000D01*
G01*
G37*
G36*
G01*
X143160000Y-94515000D02*
X143160000Y-94885000D01*
G75*
G02*
X143025000Y-95020000I-135000J0D01*
G01*
X142755000Y-95020000D01*
G75*
G02*
X142620000Y-94885000I0J135000D01*
G01*
X142620000Y-94515000D01*
G75*
G02*
X142755000Y-94380000I135000J0D01*
G01*
X143025000Y-94380000D01*
G75*
G02*
X143160000Y-94515000I0J-135000D01*
G01*
G37*
%TD*%
%TO.C,R301*%
G36*
G01*
X136275000Y-66575000D02*
X136275000Y-67125000D01*
G75*
G02*
X136075000Y-67325000I-200000J0D01*
G01*
X135675000Y-67325000D01*
G75*
G02*
X135475000Y-67125000I0J200000D01*
G01*
X135475000Y-66575000D01*
G75*
G02*
X135675000Y-66375000I200000J0D01*
G01*
X136075000Y-66375000D01*
G75*
G02*
X136275000Y-66575000I0J-200000D01*
G01*
G37*
G36*
G01*
X137925000Y-66575000D02*
X137925000Y-67125000D01*
G75*
G02*
X137725000Y-67325000I-200000J0D01*
G01*
X137325000Y-67325000D01*
G75*
G02*
X137125000Y-67125000I0J200000D01*
G01*
X137125000Y-66575000D01*
G75*
G02*
X137325000Y-66375000I200000J0D01*
G01*
X137725000Y-66375000D01*
G75*
G02*
X137925000Y-66575000I0J-200000D01*
G01*
G37*
%TD*%
%TO.C,R302*%
G36*
G01*
X137925000Y-91475000D02*
X137925000Y-92025000D01*
G75*
G02*
X137725000Y-92225000I-200000J0D01*
G01*
X137325000Y-92225000D01*
G75*
G02*
X137125000Y-92025000I0J200000D01*
G01*
X137125000Y-91475000D01*
G75*
G02*
X137325000Y-91275000I200000J0D01*
G01*
X137725000Y-91275000D01*
G75*
G02*
X137925000Y-91475000I0J-200000D01*
G01*
G37*
G36*
G01*
X136275000Y-91475000D02*
X136275000Y-92025000D01*
G75*
G02*
X136075000Y-92225000I-200000J0D01*
G01*
X135675000Y-92225000D01*
G75*
G02*
X135475000Y-92025000I0J200000D01*
G01*
X135475000Y-91475000D01*
G75*
G02*
X135675000Y-91275000I200000J0D01*
G01*
X136075000Y-91275000D01*
G75*
G02*
X136275000Y-91475000I0J-200000D01*
G01*
G37*
%TD*%
%TO.C,R303*%
G36*
G01*
X137925000Y-79075000D02*
X137925000Y-79625000D01*
G75*
G02*
X137725000Y-79825000I-200000J0D01*
G01*
X137325000Y-79825000D01*
G75*
G02*
X137125000Y-79625000I0J200000D01*
G01*
X137125000Y-79075000D01*
G75*
G02*
X137325000Y-78875000I200000J0D01*
G01*
X137725000Y-78875000D01*
G75*
G02*
X137925000Y-79075000I0J-200000D01*
G01*
G37*
G36*
G01*
X136275000Y-79075000D02*
X136275000Y-79625000D01*
G75*
G02*
X136075000Y-79825000I-200000J0D01*
G01*
X135675000Y-79825000D01*
G75*
G02*
X135475000Y-79625000I0J200000D01*
G01*
X135475000Y-79075000D01*
G75*
G02*
X135675000Y-78875000I200000J0D01*
G01*
X136075000Y-78875000D01*
G75*
G02*
X136275000Y-79075000I0J-200000D01*
G01*
G37*
%TD*%
%TO.C,R304*%
G36*
G01*
X137925000Y-103875000D02*
X137925000Y-104425000D01*
G75*
G02*
X137725000Y-104625000I-200000J0D01*
G01*
X137325000Y-104625000D01*
G75*
G02*
X137125000Y-104425000I0J200000D01*
G01*
X137125000Y-103875000D01*
G75*
G02*
X137325000Y-103675000I200000J0D01*
G01*
X137725000Y-103675000D01*
G75*
G02*
X137925000Y-103875000I0J-200000D01*
G01*
G37*
G36*
G01*
X136275000Y-103875000D02*
X136275000Y-104425000D01*
G75*
G02*
X136075000Y-104625000I-200000J0D01*
G01*
X135675000Y-104625000D01*
G75*
G02*
X135475000Y-104425000I0J200000D01*
G01*
X135475000Y-103875000D01*
G75*
G02*
X135675000Y-103675000I200000J0D01*
G01*
X136075000Y-103675000D01*
G75*
G02*
X136275000Y-103875000I0J-200000D01*
G01*
G37*
%TD*%
D32*
%TO.C,U301*%
X133350000Y-69400000D03*
X134650000Y-69400000D03*
X133350000Y-72000000D03*
X133350000Y-70700000D03*
X134650000Y-70700000D03*
X134650000Y-72000000D03*
G36*
G01*
X132295000Y-72355000D02*
X132295000Y-72855000D01*
G75*
G02*
X132225000Y-72925000I-70000J0D01*
G01*
X130025000Y-72925000D01*
G75*
G02*
X129955000Y-72855000I0J70000D01*
G01*
X129955000Y-72355000D01*
G75*
G02*
X130025000Y-72285000I70000J0D01*
G01*
X132225000Y-72285000D01*
G75*
G02*
X132295000Y-72355000I0J-70000D01*
G01*
G37*
G36*
G01*
X132295000Y-71085000D02*
X132295000Y-71585000D01*
G75*
G02*
X132225000Y-71655000I-70000J0D01*
G01*
X130025000Y-71655000D01*
G75*
G02*
X129955000Y-71585000I0J70000D01*
G01*
X129955000Y-71085000D01*
G75*
G02*
X130025000Y-71015000I70000J0D01*
G01*
X132225000Y-71015000D01*
G75*
G02*
X132295000Y-71085000I0J-70000D01*
G01*
G37*
G36*
G01*
X132295000Y-69815000D02*
X132295000Y-70315000D01*
G75*
G02*
X132225000Y-70385000I-70000J0D01*
G01*
X130025000Y-70385000D01*
G75*
G02*
X129955000Y-70315000I0J70000D01*
G01*
X129955000Y-69815000D01*
G75*
G02*
X130025000Y-69745000I70000J0D01*
G01*
X132225000Y-69745000D01*
G75*
G02*
X132295000Y-69815000I0J-70000D01*
G01*
G37*
G36*
G01*
X132295000Y-68545000D02*
X132295000Y-69045000D01*
G75*
G02*
X132225000Y-69115000I-70000J0D01*
G01*
X130025000Y-69115000D01*
G75*
G02*
X129955000Y-69045000I0J70000D01*
G01*
X129955000Y-68545000D01*
G75*
G02*
X130025000Y-68475000I70000J0D01*
G01*
X132225000Y-68475000D01*
G75*
G02*
X132295000Y-68545000I0J-70000D01*
G01*
G37*
G36*
G01*
X138045000Y-68545000D02*
X138045000Y-69045000D01*
G75*
G02*
X137975000Y-69115000I-70000J0D01*
G01*
X135775000Y-69115000D01*
G75*
G02*
X135705000Y-69045000I0J70000D01*
G01*
X135705000Y-68545000D01*
G75*
G02*
X135775000Y-68475000I70000J0D01*
G01*
X137975000Y-68475000D01*
G75*
G02*
X138045000Y-68545000I0J-70000D01*
G01*
G37*
G36*
G01*
X138045000Y-69815000D02*
X138045000Y-70315000D01*
G75*
G02*
X137975000Y-70385000I-70000J0D01*
G01*
X135775000Y-70385000D01*
G75*
G02*
X135705000Y-70315000I0J70000D01*
G01*
X135705000Y-69815000D01*
G75*
G02*
X135775000Y-69745000I70000J0D01*
G01*
X137975000Y-69745000D01*
G75*
G02*
X138045000Y-69815000I0J-70000D01*
G01*
G37*
G36*
G01*
X138045000Y-71085000D02*
X138045000Y-71585000D01*
G75*
G02*
X137975000Y-71655000I-70000J0D01*
G01*
X135775000Y-71655000D01*
G75*
G02*
X135705000Y-71585000I0J70000D01*
G01*
X135705000Y-71085000D01*
G75*
G02*
X135775000Y-71015000I70000J0D01*
G01*
X137975000Y-71015000D01*
G75*
G02*
X138045000Y-71085000I0J-70000D01*
G01*
G37*
G36*
G01*
X138045000Y-72355000D02*
X138045000Y-72855000D01*
G75*
G02*
X137975000Y-72925000I-70000J0D01*
G01*
X135775000Y-72925000D01*
G75*
G02*
X135705000Y-72855000I0J70000D01*
G01*
X135705000Y-72355000D01*
G75*
G02*
X135775000Y-72285000I70000J0D01*
G01*
X137975000Y-72285000D01*
G75*
G02*
X138045000Y-72355000I0J-70000D01*
G01*
G37*
D33*
X134000000Y-70700000D03*
%TD*%
D32*
%TO.C,U302*%
X133350000Y-94200000D03*
X134650000Y-94200000D03*
X133350000Y-96800000D03*
X133350000Y-95500000D03*
X134650000Y-95500000D03*
X134650000Y-96800000D03*
G36*
G01*
X132295000Y-97155000D02*
X132295000Y-97655000D01*
G75*
G02*
X132225000Y-97725000I-70000J0D01*
G01*
X130025000Y-97725000D01*
G75*
G02*
X129955000Y-97655000I0J70000D01*
G01*
X129955000Y-97155000D01*
G75*
G02*
X130025000Y-97085000I70000J0D01*
G01*
X132225000Y-97085000D01*
G75*
G02*
X132295000Y-97155000I0J-70000D01*
G01*
G37*
G36*
G01*
X132295000Y-95885000D02*
X132295000Y-96385000D01*
G75*
G02*
X132225000Y-96455000I-70000J0D01*
G01*
X130025000Y-96455000D01*
G75*
G02*
X129955000Y-96385000I0J70000D01*
G01*
X129955000Y-95885000D01*
G75*
G02*
X130025000Y-95815000I70000J0D01*
G01*
X132225000Y-95815000D01*
G75*
G02*
X132295000Y-95885000I0J-70000D01*
G01*
G37*
G36*
G01*
X132295000Y-94615000D02*
X132295000Y-95115000D01*
G75*
G02*
X132225000Y-95185000I-70000J0D01*
G01*
X130025000Y-95185000D01*
G75*
G02*
X129955000Y-95115000I0J70000D01*
G01*
X129955000Y-94615000D01*
G75*
G02*
X130025000Y-94545000I70000J0D01*
G01*
X132225000Y-94545000D01*
G75*
G02*
X132295000Y-94615000I0J-70000D01*
G01*
G37*
G36*
G01*
X132295000Y-93345000D02*
X132295000Y-93845000D01*
G75*
G02*
X132225000Y-93915000I-70000J0D01*
G01*
X130025000Y-93915000D01*
G75*
G02*
X129955000Y-93845000I0J70000D01*
G01*
X129955000Y-93345000D01*
G75*
G02*
X130025000Y-93275000I70000J0D01*
G01*
X132225000Y-93275000D01*
G75*
G02*
X132295000Y-93345000I0J-70000D01*
G01*
G37*
G36*
G01*
X138045000Y-93345000D02*
X138045000Y-93845000D01*
G75*
G02*
X137975000Y-93915000I-70000J0D01*
G01*
X135775000Y-93915000D01*
G75*
G02*
X135705000Y-93845000I0J70000D01*
G01*
X135705000Y-93345000D01*
G75*
G02*
X135775000Y-93275000I70000J0D01*
G01*
X137975000Y-93275000D01*
G75*
G02*
X138045000Y-93345000I0J-70000D01*
G01*
G37*
G36*
G01*
X138045000Y-94615000D02*
X138045000Y-95115000D01*
G75*
G02*
X137975000Y-95185000I-70000J0D01*
G01*
X135775000Y-95185000D01*
G75*
G02*
X135705000Y-95115000I0J70000D01*
G01*
X135705000Y-94615000D01*
G75*
G02*
X135775000Y-94545000I70000J0D01*
G01*
X137975000Y-94545000D01*
G75*
G02*
X138045000Y-94615000I0J-70000D01*
G01*
G37*
G36*
G01*
X138045000Y-95885000D02*
X138045000Y-96385000D01*
G75*
G02*
X137975000Y-96455000I-70000J0D01*
G01*
X135775000Y-96455000D01*
G75*
G02*
X135705000Y-96385000I0J70000D01*
G01*
X135705000Y-95885000D01*
G75*
G02*
X135775000Y-95815000I70000J0D01*
G01*
X137975000Y-95815000D01*
G75*
G02*
X138045000Y-95885000I0J-70000D01*
G01*
G37*
G36*
G01*
X138045000Y-97155000D02*
X138045000Y-97655000D01*
G75*
G02*
X137975000Y-97725000I-70000J0D01*
G01*
X135775000Y-97725000D01*
G75*
G02*
X135705000Y-97655000I0J70000D01*
G01*
X135705000Y-97155000D01*
G75*
G02*
X135775000Y-97085000I70000J0D01*
G01*
X137975000Y-97085000D01*
G75*
G02*
X138045000Y-97155000I0J-70000D01*
G01*
G37*
D33*
X134000000Y-95500000D03*
%TD*%
%TO.C,U303*%
X134000000Y-83100000D03*
G36*
G01*
X138045000Y-84755000D02*
X138045000Y-85255000D01*
G75*
G02*
X137975000Y-85325000I-70000J0D01*
G01*
X135775000Y-85325000D01*
G75*
G02*
X135705000Y-85255000I0J70000D01*
G01*
X135705000Y-84755000D01*
G75*
G02*
X135775000Y-84685000I70000J0D01*
G01*
X137975000Y-84685000D01*
G75*
G02*
X138045000Y-84755000I0J-70000D01*
G01*
G37*
G36*
G01*
X138045000Y-83485000D02*
X138045000Y-83985000D01*
G75*
G02*
X137975000Y-84055000I-70000J0D01*
G01*
X135775000Y-84055000D01*
G75*
G02*
X135705000Y-83985000I0J70000D01*
G01*
X135705000Y-83485000D01*
G75*
G02*
X135775000Y-83415000I70000J0D01*
G01*
X137975000Y-83415000D01*
G75*
G02*
X138045000Y-83485000I0J-70000D01*
G01*
G37*
G36*
G01*
X138045000Y-82215000D02*
X138045000Y-82715000D01*
G75*
G02*
X137975000Y-82785000I-70000J0D01*
G01*
X135775000Y-82785000D01*
G75*
G02*
X135705000Y-82715000I0J70000D01*
G01*
X135705000Y-82215000D01*
G75*
G02*
X135775000Y-82145000I70000J0D01*
G01*
X137975000Y-82145000D01*
G75*
G02*
X138045000Y-82215000I0J-70000D01*
G01*
G37*
G36*
G01*
X138045000Y-80945000D02*
X138045000Y-81445000D01*
G75*
G02*
X137975000Y-81515000I-70000J0D01*
G01*
X135775000Y-81515000D01*
G75*
G02*
X135705000Y-81445000I0J70000D01*
G01*
X135705000Y-80945000D01*
G75*
G02*
X135775000Y-80875000I70000J0D01*
G01*
X137975000Y-80875000D01*
G75*
G02*
X138045000Y-80945000I0J-70000D01*
G01*
G37*
G36*
G01*
X132295000Y-80945000D02*
X132295000Y-81445000D01*
G75*
G02*
X132225000Y-81515000I-70000J0D01*
G01*
X130025000Y-81515000D01*
G75*
G02*
X129955000Y-81445000I0J70000D01*
G01*
X129955000Y-80945000D01*
G75*
G02*
X130025000Y-80875000I70000J0D01*
G01*
X132225000Y-80875000D01*
G75*
G02*
X132295000Y-80945000I0J-70000D01*
G01*
G37*
G36*
G01*
X132295000Y-82215000D02*
X132295000Y-82715000D01*
G75*
G02*
X132225000Y-82785000I-70000J0D01*
G01*
X130025000Y-82785000D01*
G75*
G02*
X129955000Y-82715000I0J70000D01*
G01*
X129955000Y-82215000D01*
G75*
G02*
X130025000Y-82145000I70000J0D01*
G01*
X132225000Y-82145000D01*
G75*
G02*
X132295000Y-82215000I0J-70000D01*
G01*
G37*
G36*
G01*
X132295000Y-83485000D02*
X132295000Y-83985000D01*
G75*
G02*
X132225000Y-84055000I-70000J0D01*
G01*
X130025000Y-84055000D01*
G75*
G02*
X129955000Y-83985000I0J70000D01*
G01*
X129955000Y-83485000D01*
G75*
G02*
X130025000Y-83415000I70000J0D01*
G01*
X132225000Y-83415000D01*
G75*
G02*
X132295000Y-83485000I0J-70000D01*
G01*
G37*
G36*
G01*
X132295000Y-84755000D02*
X132295000Y-85255000D01*
G75*
G02*
X132225000Y-85325000I-70000J0D01*
G01*
X130025000Y-85325000D01*
G75*
G02*
X129955000Y-85255000I0J70000D01*
G01*
X129955000Y-84755000D01*
G75*
G02*
X130025000Y-84685000I70000J0D01*
G01*
X132225000Y-84685000D01*
G75*
G02*
X132295000Y-84755000I0J-70000D01*
G01*
G37*
D32*
X134650000Y-84400000D03*
X134650000Y-83100000D03*
X133350000Y-83100000D03*
X133350000Y-84400000D03*
X134650000Y-81800000D03*
X133350000Y-81800000D03*
%TD*%
D33*
%TO.C,U304*%
X134000000Y-107900000D03*
G36*
G01*
X138045000Y-109555000D02*
X138045000Y-110055000D01*
G75*
G02*
X137975000Y-110125000I-70000J0D01*
G01*
X135775000Y-110125000D01*
G75*
G02*
X135705000Y-110055000I0J70000D01*
G01*
X135705000Y-109555000D01*
G75*
G02*
X135775000Y-109485000I70000J0D01*
G01*
X137975000Y-109485000D01*
G75*
G02*
X138045000Y-109555000I0J-70000D01*
G01*
G37*
G36*
G01*
X138045000Y-108285000D02*
X138045000Y-108785000D01*
G75*
G02*
X137975000Y-108855000I-70000J0D01*
G01*
X135775000Y-108855000D01*
G75*
G02*
X135705000Y-108785000I0J70000D01*
G01*
X135705000Y-108285000D01*
G75*
G02*
X135775000Y-108215000I70000J0D01*
G01*
X137975000Y-108215000D01*
G75*
G02*
X138045000Y-108285000I0J-70000D01*
G01*
G37*
G36*
G01*
X138045000Y-107015000D02*
X138045000Y-107515000D01*
G75*
G02*
X137975000Y-107585000I-70000J0D01*
G01*
X135775000Y-107585000D01*
G75*
G02*
X135705000Y-107515000I0J70000D01*
G01*
X135705000Y-107015000D01*
G75*
G02*
X135775000Y-106945000I70000J0D01*
G01*
X137975000Y-106945000D01*
G75*
G02*
X138045000Y-107015000I0J-70000D01*
G01*
G37*
G36*
G01*
X138045000Y-105745000D02*
X138045000Y-106245000D01*
G75*
G02*
X137975000Y-106315000I-70000J0D01*
G01*
X135775000Y-106315000D01*
G75*
G02*
X135705000Y-106245000I0J70000D01*
G01*
X135705000Y-105745000D01*
G75*
G02*
X135775000Y-105675000I70000J0D01*
G01*
X137975000Y-105675000D01*
G75*
G02*
X138045000Y-105745000I0J-70000D01*
G01*
G37*
G36*
G01*
X132295000Y-105745000D02*
X132295000Y-106245000D01*
G75*
G02*
X132225000Y-106315000I-70000J0D01*
G01*
X130025000Y-106315000D01*
G75*
G02*
X129955000Y-106245000I0J70000D01*
G01*
X129955000Y-105745000D01*
G75*
G02*
X130025000Y-105675000I70000J0D01*
G01*
X132225000Y-105675000D01*
G75*
G02*
X132295000Y-105745000I0J-70000D01*
G01*
G37*
G36*
G01*
X132295000Y-107015000D02*
X132295000Y-107515000D01*
G75*
G02*
X132225000Y-107585000I-70000J0D01*
G01*
X130025000Y-107585000D01*
G75*
G02*
X129955000Y-107515000I0J70000D01*
G01*
X129955000Y-107015000D01*
G75*
G02*
X130025000Y-106945000I70000J0D01*
G01*
X132225000Y-106945000D01*
G75*
G02*
X132295000Y-107015000I0J-70000D01*
G01*
G37*
G36*
G01*
X132295000Y-108285000D02*
X132295000Y-108785000D01*
G75*
G02*
X132225000Y-108855000I-70000J0D01*
G01*
X130025000Y-108855000D01*
G75*
G02*
X129955000Y-108785000I0J70000D01*
G01*
X129955000Y-108285000D01*
G75*
G02*
X130025000Y-108215000I70000J0D01*
G01*
X132225000Y-108215000D01*
G75*
G02*
X132295000Y-108285000I0J-70000D01*
G01*
G37*
G36*
G01*
X132295000Y-109555000D02*
X132295000Y-110055000D01*
G75*
G02*
X132225000Y-110125000I-70000J0D01*
G01*
X130025000Y-110125000D01*
G75*
G02*
X129955000Y-110055000I0J70000D01*
G01*
X129955000Y-109555000D01*
G75*
G02*
X130025000Y-109485000I70000J0D01*
G01*
X132225000Y-109485000D01*
G75*
G02*
X132295000Y-109555000I0J-70000D01*
G01*
G37*
D32*
X134650000Y-109200000D03*
X134650000Y-107900000D03*
X133350000Y-107900000D03*
X133350000Y-109200000D03*
X134650000Y-106600000D03*
X133350000Y-106600000D03*
%TD*%
%TO.C,J102*%
G36*
G01*
X191050000Y-92100000D02*
X188050000Y-92100000D01*
G75*
G02*
X187800000Y-91850000I0J250000D01*
G01*
X187800000Y-91350000D01*
G75*
G02*
X188050000Y-91100000I250000J0D01*
G01*
X191050000Y-91100000D01*
G75*
G02*
X191300000Y-91350000I0J-250000D01*
G01*
X191300000Y-91850000D01*
G75*
G02*
X191050000Y-92100000I-250000J0D01*
G01*
G37*
G36*
G01*
X191050000Y-90100000D02*
X188050000Y-90100000D01*
G75*
G02*
X187800000Y-89850000I0J250000D01*
G01*
X187800000Y-89350000D01*
G75*
G02*
X188050000Y-89100000I250000J0D01*
G01*
X191050000Y-89100000D01*
G75*
G02*
X191300000Y-89350000I0J-250000D01*
G01*
X191300000Y-89850000D01*
G75*
G02*
X191050000Y-90100000I-250000J0D01*
G01*
G37*
G36*
G01*
X191050000Y-88100000D02*
X188050000Y-88100000D01*
G75*
G02*
X187800000Y-87850000I0J250000D01*
G01*
X187800000Y-87350000D01*
G75*
G02*
X188050000Y-87100000I250000J0D01*
G01*
X191050000Y-87100000D01*
G75*
G02*
X191300000Y-87350000I0J-250000D01*
G01*
X191300000Y-87850000D01*
G75*
G02*
X191050000Y-88100000I-250000J0D01*
G01*
G37*
G36*
G01*
X191050000Y-86100000D02*
X188050000Y-86100000D01*
G75*
G02*
X187800000Y-85850000I0J250000D01*
G01*
X187800000Y-85350000D01*
G75*
G02*
X188050000Y-85100000I250000J0D01*
G01*
X191050000Y-85100000D01*
G75*
G02*
X191300000Y-85350000I0J-250000D01*
G01*
X191300000Y-85850000D01*
G75*
G02*
X191050000Y-86100000I-250000J0D01*
G01*
G37*
G36*
G01*
X196750000Y-94700000D02*
X193850000Y-94700000D01*
G75*
G02*
X193600000Y-94450000I0J250000D01*
G01*
X193600000Y-93450000D01*
G75*
G02*
X193850000Y-93200000I250000J0D01*
G01*
X196750000Y-93200000D01*
G75*
G02*
X197000000Y-93450000I0J-250000D01*
G01*
X197000000Y-94450000D01*
G75*
G02*
X196750000Y-94700000I-250000J0D01*
G01*
G37*
G36*
G01*
X196750000Y-84000000D02*
X193850000Y-84000000D01*
G75*
G02*
X193600000Y-83750000I0J250000D01*
G01*
X193600000Y-82750000D01*
G75*
G02*
X193850000Y-82500000I250000J0D01*
G01*
X196750000Y-82500000D01*
G75*
G02*
X197000000Y-82750000I0J-250000D01*
G01*
X197000000Y-83750000D01*
G75*
G02*
X196750000Y-84000000I-250000J0D01*
G01*
G37*
%TD*%
%TO.C,J103*%
G36*
G01*
X191050000Y-104600000D02*
X188050000Y-104600000D01*
G75*
G02*
X187800000Y-104350000I0J250000D01*
G01*
X187800000Y-103850000D01*
G75*
G02*
X188050000Y-103600000I250000J0D01*
G01*
X191050000Y-103600000D01*
G75*
G02*
X191300000Y-103850000I0J-250000D01*
G01*
X191300000Y-104350000D01*
G75*
G02*
X191050000Y-104600000I-250000J0D01*
G01*
G37*
G36*
G01*
X191050000Y-102600000D02*
X188050000Y-102600000D01*
G75*
G02*
X187800000Y-102350000I0J250000D01*
G01*
X187800000Y-101850000D01*
G75*
G02*
X188050000Y-101600000I250000J0D01*
G01*
X191050000Y-101600000D01*
G75*
G02*
X191300000Y-101850000I0J-250000D01*
G01*
X191300000Y-102350000D01*
G75*
G02*
X191050000Y-102600000I-250000J0D01*
G01*
G37*
G36*
G01*
X196750000Y-107200000D02*
X193850000Y-107200000D01*
G75*
G02*
X193600000Y-106950000I0J250000D01*
G01*
X193600000Y-105950000D01*
G75*
G02*
X193850000Y-105700000I250000J0D01*
G01*
X196750000Y-105700000D01*
G75*
G02*
X197000000Y-105950000I0J-250000D01*
G01*
X197000000Y-106950000D01*
G75*
G02*
X196750000Y-107200000I-250000J0D01*
G01*
G37*
G36*
G01*
X196750000Y-100500000D02*
X193850000Y-100500000D01*
G75*
G02*
X193600000Y-100250000I0J250000D01*
G01*
X193600000Y-99250000D01*
G75*
G02*
X193850000Y-99000000I250000J0D01*
G01*
X196750000Y-99000000D01*
G75*
G02*
X197000000Y-99250000I0J-250000D01*
G01*
X197000000Y-100250000D01*
G75*
G02*
X196750000Y-100500000I-250000J0D01*
G01*
G37*
%TD*%
D18*
%TO.C,TP1*%
X139850000Y-63050000D03*
%TD*%
D11*
%TO.C,J310*%
X145900000Y-113600000D03*
D10*
X145900000Y-111060000D03*
D11*
X148440000Y-113600000D03*
D10*
X148440000Y-111060000D03*
D11*
X150980000Y-113600000D03*
D10*
X150980000Y-111060000D03*
D11*
X153520000Y-113600000D03*
D10*
X153520000Y-111060000D03*
X145900000Y-108520000D03*
X145900000Y-105980000D03*
X148440000Y-108520000D03*
X148440000Y-105980000D03*
X150980000Y-108520000D03*
X150980000Y-105980000D03*
X153520000Y-108520000D03*
X153520000Y-105980000D03*
%TD*%
M02*
