%TF.GenerationSoftware,KiCad,Pcbnew,(5.1.8)-1*%
%TF.CreationDate,2021-03-21T22:52:41-07:00*%
%TF.ProjectId,smart_motor_controller,736d6172-745f-46d6-9f74-6f725f636f6e,rev?*%
%TF.SameCoordinates,Original*%
%TF.FileFunction,Copper,L4,Bot*%
%TF.FilePolarity,Positive*%
%FSLAX46Y46*%
G04 Gerber Fmt 4.6, Leading zero omitted, Abs format (unit mm)*
G04 Created by KiCad (PCBNEW (5.1.8)-1) date 2021-03-21 22:52:41*
%MOMM*%
%LPD*%
G01*
G04 APERTURE LIST*
%TA.AperFunction,ComponentPad*%
%ADD10O,1.400000X1.400000*%
%TD*%
%TA.AperFunction,ComponentPad*%
%ADD11C,1.400000*%
%TD*%
%TA.AperFunction,ComponentPad*%
%ADD12O,1.700000X1.700000*%
%TD*%
%TA.AperFunction,ComponentPad*%
%ADD13R,1.700000X1.700000*%
%TD*%
%TA.AperFunction,ComponentPad*%
%ADD14C,1.250000*%
%TD*%
%TA.AperFunction,ComponentPad*%
%ADD15O,1.100000X1.900000*%
%TD*%
%TA.AperFunction,ComponentPad*%
%ADD16C,1.300000*%
%TD*%
%TA.AperFunction,ComponentPad*%
%ADD17C,3.000000*%
%TD*%
%TA.AperFunction,ComponentPad*%
%ADD18R,3.000000X3.000000*%
%TD*%
%TA.AperFunction,ComponentPad*%
%ADD19C,0.630000*%
%TD*%
%TA.AperFunction,SMDPad,CuDef*%
%ADD20R,3.300000X2.600000*%
%TD*%
%TA.AperFunction,ComponentPad*%
%ADD21C,0.600000*%
%TD*%
%TA.AperFunction,SMDPad,CuDef*%
%ADD22R,4.500000X2.950000*%
%TD*%
%TA.AperFunction,ComponentPad*%
%ADD23C,0.900000*%
%TD*%
%TA.AperFunction,ComponentPad*%
%ADD24C,8.600000*%
%TD*%
%TA.AperFunction,ComponentPad*%
%ADD25C,1.600000*%
%TD*%
%TA.AperFunction,ComponentPad*%
%ADD26R,1.600000X1.600000*%
%TD*%
%TA.AperFunction,ViaPad*%
%ADD27C,0.800000*%
%TD*%
%TA.AperFunction,ViaPad*%
%ADD28C,1.000000*%
%TD*%
%TA.AperFunction,Conductor*%
%ADD29C,0.300000*%
%TD*%
%TA.AperFunction,Conductor*%
%ADD30C,0.254000*%
%TD*%
%TA.AperFunction,Conductor*%
%ADD31C,0.100000*%
%TD*%
G04 APERTURE END LIST*
D10*
%TO.P,R3,2*%
%TO.N,I2C1_SDA*%
X58800000Y-70220000D03*
D11*
%TO.P,R3,1*%
%TO.N,+3V3*%
X58800000Y-75300000D03*
%TD*%
D10*
%TO.P,R2,2*%
%TO.N,I2C1_SCL*%
X56350000Y-70220000D03*
D11*
%TO.P,R2,1*%
%TO.N,+3V3*%
X56350000Y-75300000D03*
%TD*%
D12*
%TO.P,J5,2*%
%TO.N,I2C1_SCL*%
X52540000Y-67620000D03*
D13*
%TO.P,J5,1*%
%TO.N,I2C1_SDA*%
X50000000Y-67620000D03*
%TD*%
D14*
%TO.P,J10,6*%
%TO.N,Net-(J10-Pad6)*%
X103675000Y-49770000D03*
X108525000Y-49770000D03*
D15*
X109700000Y-47100000D03*
X102500000Y-47100000D03*
%TD*%
D16*
%TO.P,SW1,3*%
%TO.N,GND*%
X51000000Y-81540000D03*
%TO.P,SW1,2*%
%TO.N,Net-(R4-Pad1)*%
X51000000Y-79000000D03*
%TO.P,SW1,1*%
%TO.N,+3V3*%
X51000000Y-76460000D03*
%TD*%
D17*
%TO.P,J14,2*%
%TO.N,Net-(J14-Pad2)*%
X100840000Y-105300000D03*
D18*
%TO.P,J14,1*%
%TO.N,Net-(J14-Pad1)*%
X95760000Y-105300000D03*
%TD*%
D17*
%TO.P,J13,2*%
%TO.N,Net-(J13-Pad2)*%
X90640000Y-105300000D03*
D18*
%TO.P,J13,1*%
%TO.N,Net-(J13-Pad1)*%
X85560000Y-105300000D03*
%TD*%
D17*
%TO.P,J12,2*%
%TO.N,Net-(J12-Pad2)*%
X80440000Y-105300000D03*
D18*
%TO.P,J12,1*%
%TO.N,Net-(J12-Pad1)*%
X75360000Y-105300000D03*
%TD*%
D17*
%TO.P,J11,2*%
%TO.N,Net-(J11-Pad2)*%
X70240000Y-105300000D03*
D18*
%TO.P,J11,1*%
%TO.N,Net-(J11-Pad1)*%
X65160000Y-105300000D03*
%TD*%
D17*
%TO.P,J8,2*%
%TO.N,CAN2_TX*%
X92830000Y-50100000D03*
D18*
%TO.P,J8,1*%
%TO.N,CAN2_RX*%
X87750000Y-50100000D03*
%TD*%
D17*
%TO.P,J2,2*%
%TO.N,GND*%
X82640000Y-50100000D03*
D18*
%TO.P,J2,1*%
%TO.N,I2C3_SDA*%
X77560000Y-50100000D03*
%TD*%
D17*
%TO.P,J1,2*%
%TO.N,I2C3_SCL*%
X72540000Y-50100000D03*
D18*
%TO.P,J1,1*%
%TO.N,+3V3*%
X67460000Y-50100000D03*
%TD*%
D17*
%TO.P,J9,2*%
%TO.N,GND*%
X120100000Y-62460000D03*
D18*
%TO.P,J9,1*%
%TO.N,VM*%
X120100000Y-67540000D03*
%TD*%
D19*
%TO.P,U7,9*%
%TO.N,GND*%
X106700000Y-94650000D03*
X106700000Y-93350000D03*
X109300000Y-94650000D03*
X108000000Y-94650000D03*
X108000000Y-93350000D03*
X109300000Y-93350000D03*
D20*
X108000000Y-94000000D03*
%TD*%
D19*
%TO.P,U6,9*%
%TO.N,GND*%
X90700000Y-94650000D03*
X90700000Y-93350000D03*
X93300000Y-94650000D03*
X92000000Y-94650000D03*
X92000000Y-93350000D03*
X93300000Y-93350000D03*
D20*
X92000000Y-94000000D03*
%TD*%
D19*
%TO.P,U5,9*%
%TO.N,GND*%
X74700000Y-94650000D03*
X74700000Y-93350000D03*
X77300000Y-94650000D03*
X76000000Y-94650000D03*
X76000000Y-93350000D03*
X77300000Y-93350000D03*
D20*
X76000000Y-94000000D03*
%TD*%
D19*
%TO.P,U4,9*%
%TO.N,GND*%
X58700000Y-94650000D03*
X58700000Y-93350000D03*
X61300000Y-94650000D03*
X60000000Y-94650000D03*
X60000000Y-93350000D03*
X61300000Y-93350000D03*
D20*
X60000000Y-94000000D03*
%TD*%
D21*
%TO.P,U1,9*%
%TO.N,GND*%
X100510000Y-76520000D03*
X101610000Y-76520000D03*
X101610000Y-75320000D03*
X100510000Y-75320000D03*
X104110000Y-76520000D03*
X102910000Y-76520000D03*
X102910000Y-75320000D03*
X104110000Y-75320000D03*
D22*
X102310000Y-75920000D03*
%TD*%
D12*
%TO.P,J7,2*%
%TO.N,GPIO3*%
X52540000Y-65080000D03*
D13*
%TO.P,J7,1*%
%TO.N,GPIO2*%
X50000000Y-65080000D03*
%TD*%
D12*
%TO.P,J6,2*%
%TO.N,GPIO1*%
X52540000Y-62540000D03*
D13*
%TO.P,J6,1*%
%TO.N,GPIO0*%
X50000000Y-62540000D03*
%TD*%
D12*
%TO.P,J3,2*%
%TO.N,GND*%
X52540000Y-60000000D03*
D13*
%TO.P,J3,1*%
%TO.N,+3V3*%
X50000000Y-60000000D03*
%TD*%
D23*
%TO.P,H4,1*%
%TO.N,GND*%
X122280419Y-102719581D03*
X120000000Y-101775000D03*
X117719581Y-102719581D03*
X116775000Y-105000000D03*
X117719581Y-107280419D03*
X120000000Y-108225000D03*
X122280419Y-107280419D03*
X123225000Y-105000000D03*
D24*
X120000000Y-105000000D03*
%TD*%
D23*
%TO.P,H3,1*%
%TO.N,GND*%
X52280419Y-47719581D03*
X50000000Y-46775000D03*
X47719581Y-47719581D03*
X46775000Y-50000000D03*
X47719581Y-52280419D03*
X50000000Y-53225000D03*
X52280419Y-52280419D03*
X53225000Y-50000000D03*
D24*
X50000000Y-50000000D03*
%TD*%
D23*
%TO.P,H2,1*%
%TO.N,GND*%
X122280419Y-47719581D03*
X120000000Y-46775000D03*
X117719581Y-47719581D03*
X116775000Y-50000000D03*
X117719581Y-52280419D03*
X120000000Y-53225000D03*
X122280419Y-52280419D03*
X123225000Y-50000000D03*
D24*
X120000000Y-50000000D03*
%TD*%
D23*
%TO.P,H1,1*%
%TO.N,GND*%
X52280419Y-102719581D03*
X50000000Y-101775000D03*
X47719581Y-102719581D03*
X46775000Y-105000000D03*
X47719581Y-107280419D03*
X50000000Y-108225000D03*
X52280419Y-107280419D03*
X53225000Y-105000000D03*
D24*
X50000000Y-105000000D03*
%TD*%
D25*
%TO.P,C23,2*%
%TO.N,GND*%
X67000000Y-95000000D03*
D26*
%TO.P,C23,1*%
%TO.N,VM*%
X69000000Y-95000000D03*
%TD*%
D25*
%TO.P,C21,2*%
%TO.N,GND*%
X51000000Y-95000000D03*
D26*
%TO.P,C21,1*%
%TO.N,VM*%
X53000000Y-95000000D03*
%TD*%
D25*
%TO.P,C19,2*%
%TO.N,GND*%
X99200000Y-95000000D03*
D26*
%TO.P,C19,1*%
%TO.N,VM*%
X101200000Y-95000000D03*
%TD*%
D25*
%TO.P,C11,2*%
%TO.N,GND*%
X83000000Y-95000000D03*
D26*
%TO.P,C11,1*%
%TO.N,VM*%
X85000000Y-95000000D03*
%TD*%
D27*
%TO.N,GND*%
X109900000Y-89000000D03*
X104200000Y-89000000D03*
D28*
X108600000Y-99000000D03*
X92650000Y-98900000D03*
X76650000Y-98950000D03*
X60650000Y-98950000D03*
D27*
X68100000Y-75560000D03*
X70600000Y-73300000D03*
X74600000Y-80360000D03*
X72200000Y-89000000D03*
X85140000Y-77010000D03*
X93900000Y-89000000D03*
X98500000Y-77100000D03*
X106460000Y-74080000D03*
X98360000Y-80780000D03*
X107200000Y-52600000D03*
X84900000Y-79760000D03*
X85800000Y-65560000D03*
X83200000Y-64900000D03*
X65200000Y-72960000D03*
X64400000Y-71360000D03*
X68900000Y-69060000D03*
X68300000Y-67160000D03*
X70830000Y-65890000D03*
X71400000Y-62960000D03*
X72300000Y-64460000D03*
X68100000Y-74560000D03*
X82280000Y-59530000D03*
X56000000Y-89000000D03*
X88000000Y-89000000D03*
X61900000Y-89000000D03*
X77900000Y-89000000D03*
X99030000Y-60300000D03*
X99130000Y-64100000D03*
X99130000Y-62800000D03*
X74200000Y-67900000D03*
D28*
X56000000Y-93500000D03*
X72000000Y-93500000D03*
X88000000Y-93500000D03*
X104200000Y-93500000D03*
X104800000Y-51800000D03*
X107800000Y-81300000D03*
D27*
X96650000Y-73850000D03*
X101700000Y-80300000D03*
D28*
X117000000Y-61250000D03*
X117000000Y-63500000D03*
D27*
%TO.N,+3V3*%
X95000000Y-75200000D03*
X99130000Y-65300000D03*
X74230000Y-61700000D03*
X84200000Y-64900000D03*
X85140000Y-78010000D03*
X68100000Y-76560000D03*
X75600000Y-80360000D03*
X79700000Y-56300000D03*
X70300000Y-56300000D03*
X56350000Y-76850000D03*
X58800000Y-76850000D03*
D28*
X94790000Y-69700000D03*
X94820000Y-70990000D03*
D27*
X71830000Y-65900000D03*
D28*
X96960000Y-69700000D03*
X98350000Y-69700000D03*
D27*
%TO.N,NRST*%
X80982120Y-68800000D03*
X83940000Y-61700000D03*
%TO.N,GPIO1*%
X71400000Y-61300000D03*
%TO.N,GPIO0*%
X75250000Y-68600000D03*
X56659999Y-63740001D03*
%TO.N,I2C3_SCL*%
X86670000Y-71700000D03*
X73580000Y-56300000D03*
%TO.N,I2C3_SDA*%
X87880000Y-71200000D03*
X77500000Y-57340000D03*
%TO.N,M2_OUT2*%
X92650000Y-89000000D03*
X78750000Y-67860000D03*
%TO.N,CAN2_TX*%
X93400000Y-73400000D03*
%TO.N,CAN2_RX*%
X91690000Y-75710000D03*
%TO.N,M3_OUT2*%
X108660000Y-89000000D03*
X96000000Y-83000000D03*
%TO.N,M3_OUT1*%
X107420000Y-89000000D03*
X96000000Y-84000000D03*
%TO.N,M2_OUT1*%
X91380000Y-89000000D03*
X76790000Y-79460000D03*
%TO.N,M1_OUT2*%
X76700000Y-89000000D03*
X73600000Y-81060000D03*
%TO.N,M1_OUT1*%
X72325000Y-81035000D03*
X75365000Y-89000000D03*
%TO.N,M0_OUT2*%
X75000000Y-75200000D03*
X60700000Y-89000000D03*
%TO.N,M0_OUT1*%
X73900000Y-74700000D03*
X59400000Y-89000000D03*
%TD*%
D29*
%TO.N,NRST*%
X80982120Y-64657880D02*
X80982120Y-64847880D01*
X83940000Y-61700000D02*
X80982120Y-64657880D01*
X80982120Y-64847880D02*
X80982120Y-68800000D01*
%TO.N,GPIO1*%
X70160000Y-62540000D02*
X71400000Y-61300000D01*
X52540000Y-62540000D02*
X70160000Y-62540000D01*
%TO.N,GPIO0*%
X71830001Y-68650001D02*
X66920001Y-63740001D01*
X75065684Y-68650001D02*
X71830001Y-68650001D01*
X66920001Y-63740001D02*
X56659999Y-63740001D01*
%TO.N,I2C3_SCL*%
X86670000Y-62809998D02*
X82270002Y-58410000D01*
X86670000Y-71700000D02*
X86670000Y-62809998D01*
X75690000Y-58410000D02*
X73580000Y-56300000D01*
X82270002Y-58410000D02*
X75690000Y-58410000D01*
%TO.N,I2C3_SDA*%
X77500000Y-57340000D02*
X82280000Y-57340000D01*
X87880000Y-62940000D02*
X87880000Y-71200000D01*
X82280000Y-57340000D02*
X87880000Y-62940000D01*
%TO.N,M2_OUT2*%
X92650000Y-89000000D02*
X92650000Y-86140000D01*
X78750000Y-67860000D02*
X78750000Y-68950000D01*
X78750000Y-68950000D02*
X92650000Y-82850000D01*
X92650000Y-86140000D02*
X92650000Y-82850000D01*
%TO.N,CAN2_TX*%
X93400000Y-50670000D02*
X92830000Y-50100000D01*
X93400000Y-73400000D02*
X93400000Y-50670000D01*
%TO.N,CAN2_RX*%
X92089999Y-54439999D02*
X87750000Y-50100000D01*
X92089999Y-75310001D02*
X92089999Y-54439999D01*
X91690000Y-75710000D02*
X92089999Y-75310001D01*
%TO.N,M3_OUT2*%
X108660000Y-89000000D02*
X108660000Y-87040000D01*
X105620000Y-84000000D02*
X106610000Y-84990000D01*
X106610000Y-84990000D02*
X105970001Y-84350001D01*
X108660000Y-87040000D02*
X106610000Y-84990000D01*
X96000000Y-83000000D02*
X98500000Y-83000000D01*
X98500000Y-83000000D02*
X99500000Y-84000000D01*
X99500000Y-84000000D02*
X105620000Y-84000000D01*
%TO.N,M3_OUT1*%
X96000000Y-84000000D02*
X98792880Y-84000000D01*
X98792880Y-84000000D02*
X99292880Y-84500000D01*
X104460000Y-84500000D02*
X104980000Y-85020000D01*
X99292880Y-84500000D02*
X104460000Y-84500000D01*
X104960000Y-85000000D02*
X104980000Y-85020000D01*
X105380000Y-85420000D02*
X104980000Y-85020000D01*
X107420000Y-87460000D02*
X105380000Y-85420000D01*
X107420000Y-89000000D02*
X107420000Y-87460000D01*
%TO.N,M2_OUT1*%
X78730000Y-81400000D02*
X76790000Y-79460000D01*
X86200000Y-81400000D02*
X78730000Y-81400000D01*
X91380000Y-86580000D02*
X86200000Y-81400000D01*
X91380000Y-89000000D02*
X91380000Y-86580000D01*
%TO.N,M1_OUT2*%
X73600000Y-85900000D02*
X73600000Y-81060000D01*
X73600000Y-85900000D02*
X76700000Y-89000000D01*
%TO.N,M1_OUT1*%
X72325000Y-85960000D02*
X75365000Y-89000000D01*
X72325000Y-81035000D02*
X72325000Y-85960000D01*
%TO.N,M0_OUT2*%
X68400000Y-81800000D02*
X75000000Y-75200000D01*
X64600000Y-81800000D02*
X68400000Y-81800000D01*
X60700000Y-85700000D02*
X64600000Y-81800000D01*
X60700000Y-89000000D02*
X60700000Y-85700000D01*
%TO.N,M0_OUT1*%
X59400000Y-85800000D02*
X59400000Y-89000000D01*
X73900000Y-74700000D02*
X73900000Y-75500000D01*
X73900000Y-75500000D02*
X68300000Y-81100000D01*
X64100000Y-81100000D02*
X68300000Y-81100000D01*
X59400000Y-85800000D02*
X64100000Y-81100000D01*
%TD*%
D30*
%TO.N,GND*%
X101658025Y-45858025D02*
X101509942Y-46038465D01*
X101399906Y-46244327D01*
X101332147Y-46467701D01*
X101315000Y-46641794D01*
X101315000Y-47558207D01*
X101332147Y-47732300D01*
X101399906Y-47955674D01*
X101509943Y-48161536D01*
X101658026Y-48341975D01*
X101838465Y-48490058D01*
X102044327Y-48600094D01*
X102267701Y-48667853D01*
X102500000Y-48690733D01*
X102732300Y-48667853D01*
X102955674Y-48600094D01*
X103161536Y-48490058D01*
X103341975Y-48341975D01*
X103490058Y-48161536D01*
X103600094Y-47955674D01*
X103667853Y-47732299D01*
X103685000Y-47558206D01*
X103685000Y-46641793D01*
X103667853Y-46467700D01*
X103600094Y-46244326D01*
X103490058Y-46038464D01*
X103341975Y-45858025D01*
X103161606Y-45710000D01*
X109038393Y-45710000D01*
X108858025Y-45858025D01*
X108709942Y-46038465D01*
X108599906Y-46244327D01*
X108532147Y-46467701D01*
X108515000Y-46641794D01*
X108515000Y-47558207D01*
X108532147Y-47732300D01*
X108599906Y-47955674D01*
X108709943Y-48161536D01*
X108858026Y-48341975D01*
X109038465Y-48490058D01*
X109244327Y-48600094D01*
X109467701Y-48667853D01*
X109700000Y-48690733D01*
X109932300Y-48667853D01*
X110155674Y-48600094D01*
X110361536Y-48490058D01*
X110541975Y-48341975D01*
X110690058Y-48161536D01*
X110800094Y-47955674D01*
X110867853Y-47732299D01*
X110885000Y-47558206D01*
X110885000Y-46641793D01*
X110867853Y-46467700D01*
X110800094Y-46244326D01*
X110690058Y-46038464D01*
X110541975Y-45858025D01*
X110361606Y-45710000D01*
X117552210Y-45710000D01*
X117301560Y-45839606D01*
X117188946Y-45914851D01*
X116696787Y-46517182D01*
X120000000Y-49820395D01*
X120014143Y-49806253D01*
X120193748Y-49985858D01*
X120179605Y-50000000D01*
X123482818Y-53303213D01*
X124085149Y-52811054D01*
X124290000Y-52440081D01*
X124290001Y-102552212D01*
X124160394Y-102301560D01*
X124085149Y-102188946D01*
X123482818Y-101696787D01*
X120179605Y-105000000D01*
X120193748Y-105014143D01*
X120014143Y-105193748D01*
X120000000Y-105179605D01*
X116696787Y-108482818D01*
X117188946Y-109085149D01*
X117559919Y-109290000D01*
X52447790Y-109290000D01*
X52698440Y-109160394D01*
X52811054Y-109085149D01*
X53303213Y-108482818D01*
X50000000Y-105179605D01*
X49985858Y-105193748D01*
X49806253Y-105014143D01*
X49820395Y-105000000D01*
X50179605Y-105000000D01*
X53482818Y-108303213D01*
X54085149Y-107811054D01*
X54555063Y-106960067D01*
X54849929Y-106033757D01*
X54958414Y-105067719D01*
X54935809Y-104800890D01*
X55250048Y-104800890D01*
X55250048Y-105047110D01*
X55298083Y-105288598D01*
X55392307Y-105516074D01*
X55529099Y-105720798D01*
X55703202Y-105894901D01*
X55907926Y-106031693D01*
X56135402Y-106125917D01*
X56376890Y-106173952D01*
X56623110Y-106173952D01*
X56864598Y-106125917D01*
X57092074Y-106031693D01*
X57296798Y-105894901D01*
X57470901Y-105720798D01*
X57607693Y-105516074D01*
X57701917Y-105288598D01*
X57749952Y-105047110D01*
X57749952Y-104800890D01*
X57701917Y-104559402D01*
X57607693Y-104331926D01*
X57470901Y-104127202D01*
X57296798Y-103953099D01*
X57092074Y-103816307D01*
X57052706Y-103800000D01*
X63021928Y-103800000D01*
X63021928Y-106800000D01*
X63034188Y-106924482D01*
X63070498Y-107044180D01*
X63129463Y-107154494D01*
X63208815Y-107251185D01*
X63305506Y-107330537D01*
X63415820Y-107389502D01*
X63535518Y-107425812D01*
X63660000Y-107438072D01*
X66660000Y-107438072D01*
X66784482Y-107425812D01*
X66904180Y-107389502D01*
X67014494Y-107330537D01*
X67111185Y-107251185D01*
X67190537Y-107154494D01*
X67249502Y-107044180D01*
X67285812Y-106924482D01*
X67298072Y-106800000D01*
X67298072Y-105089721D01*
X68105000Y-105089721D01*
X68105000Y-105510279D01*
X68187047Y-105922756D01*
X68347988Y-106311302D01*
X68581637Y-106660983D01*
X68879017Y-106958363D01*
X69228698Y-107192012D01*
X69617244Y-107352953D01*
X70029721Y-107435000D01*
X70450279Y-107435000D01*
X70862756Y-107352953D01*
X71251302Y-107192012D01*
X71600983Y-106958363D01*
X71898363Y-106660983D01*
X72132012Y-106311302D01*
X72292953Y-105922756D01*
X72375000Y-105510279D01*
X72375000Y-105089721D01*
X72292953Y-104677244D01*
X72132012Y-104288698D01*
X71898363Y-103939017D01*
X71759346Y-103800000D01*
X73221928Y-103800000D01*
X73221928Y-106800000D01*
X73234188Y-106924482D01*
X73270498Y-107044180D01*
X73329463Y-107154494D01*
X73408815Y-107251185D01*
X73505506Y-107330537D01*
X73615820Y-107389502D01*
X73735518Y-107425812D01*
X73860000Y-107438072D01*
X76860000Y-107438072D01*
X76984482Y-107425812D01*
X77104180Y-107389502D01*
X77214494Y-107330537D01*
X77311185Y-107251185D01*
X77390537Y-107154494D01*
X77449502Y-107044180D01*
X77485812Y-106924482D01*
X77498072Y-106800000D01*
X77498072Y-105089721D01*
X78305000Y-105089721D01*
X78305000Y-105510279D01*
X78387047Y-105922756D01*
X78547988Y-106311302D01*
X78781637Y-106660983D01*
X79079017Y-106958363D01*
X79428698Y-107192012D01*
X79817244Y-107352953D01*
X80229721Y-107435000D01*
X80650279Y-107435000D01*
X81062756Y-107352953D01*
X81451302Y-107192012D01*
X81800983Y-106958363D01*
X82098363Y-106660983D01*
X82332012Y-106311302D01*
X82492953Y-105922756D01*
X82575000Y-105510279D01*
X82575000Y-105089721D01*
X82492953Y-104677244D01*
X82332012Y-104288698D01*
X82098363Y-103939017D01*
X81959346Y-103800000D01*
X83421928Y-103800000D01*
X83421928Y-106800000D01*
X83434188Y-106924482D01*
X83470498Y-107044180D01*
X83529463Y-107154494D01*
X83608815Y-107251185D01*
X83705506Y-107330537D01*
X83815820Y-107389502D01*
X83935518Y-107425812D01*
X84060000Y-107438072D01*
X87060000Y-107438072D01*
X87184482Y-107425812D01*
X87304180Y-107389502D01*
X87414494Y-107330537D01*
X87511185Y-107251185D01*
X87590537Y-107154494D01*
X87649502Y-107044180D01*
X87685812Y-106924482D01*
X87698072Y-106800000D01*
X87698072Y-105089721D01*
X88505000Y-105089721D01*
X88505000Y-105510279D01*
X88587047Y-105922756D01*
X88747988Y-106311302D01*
X88981637Y-106660983D01*
X89279017Y-106958363D01*
X89628698Y-107192012D01*
X90017244Y-107352953D01*
X90429721Y-107435000D01*
X90850279Y-107435000D01*
X91262756Y-107352953D01*
X91651302Y-107192012D01*
X92000983Y-106958363D01*
X92298363Y-106660983D01*
X92532012Y-106311302D01*
X92692953Y-105922756D01*
X92775000Y-105510279D01*
X92775000Y-105089721D01*
X92692953Y-104677244D01*
X92532012Y-104288698D01*
X92298363Y-103939017D01*
X92159346Y-103800000D01*
X93621928Y-103800000D01*
X93621928Y-106800000D01*
X93634188Y-106924482D01*
X93670498Y-107044180D01*
X93729463Y-107154494D01*
X93808815Y-107251185D01*
X93905506Y-107330537D01*
X94015820Y-107389502D01*
X94135518Y-107425812D01*
X94260000Y-107438072D01*
X97260000Y-107438072D01*
X97384482Y-107425812D01*
X97504180Y-107389502D01*
X97614494Y-107330537D01*
X97711185Y-107251185D01*
X97790537Y-107154494D01*
X97849502Y-107044180D01*
X97885812Y-106924482D01*
X97898072Y-106800000D01*
X97898072Y-105089721D01*
X98705000Y-105089721D01*
X98705000Y-105510279D01*
X98787047Y-105922756D01*
X98947988Y-106311302D01*
X99181637Y-106660983D01*
X99479017Y-106958363D01*
X99828698Y-107192012D01*
X100217244Y-107352953D01*
X100629721Y-107435000D01*
X101050279Y-107435000D01*
X101462756Y-107352953D01*
X101851302Y-107192012D01*
X102200983Y-106958363D01*
X102498363Y-106660983D01*
X102732012Y-106311302D01*
X102892953Y-105922756D01*
X102975000Y-105510279D01*
X102975000Y-105089721D01*
X102917548Y-104800890D01*
X112750048Y-104800890D01*
X112750048Y-105047110D01*
X112798083Y-105288598D01*
X112892307Y-105516074D01*
X113029099Y-105720798D01*
X113203202Y-105894901D01*
X113407926Y-106031693D01*
X113635402Y-106125917D01*
X113876890Y-106173952D01*
X114123110Y-106173952D01*
X114364598Y-106125917D01*
X114592074Y-106031693D01*
X114796798Y-105894901D01*
X114970901Y-105720798D01*
X115092918Y-105538186D01*
X115123649Y-105900921D01*
X115393107Y-106834938D01*
X115839606Y-107698440D01*
X115914851Y-107811054D01*
X116517182Y-108303213D01*
X119820395Y-105000000D01*
X116517182Y-101696787D01*
X115914851Y-102188946D01*
X115444937Y-103039933D01*
X115150071Y-103966243D01*
X115108725Y-104334418D01*
X115107693Y-104331926D01*
X114970901Y-104127202D01*
X114796798Y-103953099D01*
X114592074Y-103816307D01*
X114364598Y-103722083D01*
X114123110Y-103674048D01*
X113876890Y-103674048D01*
X113635402Y-103722083D01*
X113407926Y-103816307D01*
X113203202Y-103953099D01*
X113029099Y-104127202D01*
X112892307Y-104331926D01*
X112798083Y-104559402D01*
X112750048Y-104800890D01*
X102917548Y-104800890D01*
X102892953Y-104677244D01*
X102732012Y-104288698D01*
X102498363Y-103939017D01*
X102200983Y-103641637D01*
X101851302Y-103407988D01*
X101462756Y-103247047D01*
X101050279Y-103165000D01*
X100629721Y-103165000D01*
X100217244Y-103247047D01*
X99828698Y-103407988D01*
X99479017Y-103641637D01*
X99181637Y-103939017D01*
X98947988Y-104288698D01*
X98787047Y-104677244D01*
X98705000Y-105089721D01*
X97898072Y-105089721D01*
X97898072Y-103800000D01*
X97885812Y-103675518D01*
X97849502Y-103555820D01*
X97790537Y-103445506D01*
X97711185Y-103348815D01*
X97614494Y-103269463D01*
X97504180Y-103210498D01*
X97384482Y-103174188D01*
X97260000Y-103161928D01*
X94260000Y-103161928D01*
X94135518Y-103174188D01*
X94015820Y-103210498D01*
X93905506Y-103269463D01*
X93808815Y-103348815D01*
X93729463Y-103445506D01*
X93670498Y-103555820D01*
X93634188Y-103675518D01*
X93621928Y-103800000D01*
X92159346Y-103800000D01*
X92000983Y-103641637D01*
X91651302Y-103407988D01*
X91262756Y-103247047D01*
X90850279Y-103165000D01*
X90429721Y-103165000D01*
X90017244Y-103247047D01*
X89628698Y-103407988D01*
X89279017Y-103641637D01*
X88981637Y-103939017D01*
X88747988Y-104288698D01*
X88587047Y-104677244D01*
X88505000Y-105089721D01*
X87698072Y-105089721D01*
X87698072Y-103800000D01*
X87685812Y-103675518D01*
X87649502Y-103555820D01*
X87590537Y-103445506D01*
X87511185Y-103348815D01*
X87414494Y-103269463D01*
X87304180Y-103210498D01*
X87184482Y-103174188D01*
X87060000Y-103161928D01*
X84060000Y-103161928D01*
X83935518Y-103174188D01*
X83815820Y-103210498D01*
X83705506Y-103269463D01*
X83608815Y-103348815D01*
X83529463Y-103445506D01*
X83470498Y-103555820D01*
X83434188Y-103675518D01*
X83421928Y-103800000D01*
X81959346Y-103800000D01*
X81800983Y-103641637D01*
X81451302Y-103407988D01*
X81062756Y-103247047D01*
X80650279Y-103165000D01*
X80229721Y-103165000D01*
X79817244Y-103247047D01*
X79428698Y-103407988D01*
X79079017Y-103641637D01*
X78781637Y-103939017D01*
X78547988Y-104288698D01*
X78387047Y-104677244D01*
X78305000Y-105089721D01*
X77498072Y-105089721D01*
X77498072Y-103800000D01*
X77485812Y-103675518D01*
X77449502Y-103555820D01*
X77390537Y-103445506D01*
X77311185Y-103348815D01*
X77214494Y-103269463D01*
X77104180Y-103210498D01*
X76984482Y-103174188D01*
X76860000Y-103161928D01*
X73860000Y-103161928D01*
X73735518Y-103174188D01*
X73615820Y-103210498D01*
X73505506Y-103269463D01*
X73408815Y-103348815D01*
X73329463Y-103445506D01*
X73270498Y-103555820D01*
X73234188Y-103675518D01*
X73221928Y-103800000D01*
X71759346Y-103800000D01*
X71600983Y-103641637D01*
X71251302Y-103407988D01*
X70862756Y-103247047D01*
X70450279Y-103165000D01*
X70029721Y-103165000D01*
X69617244Y-103247047D01*
X69228698Y-103407988D01*
X68879017Y-103641637D01*
X68581637Y-103939017D01*
X68347988Y-104288698D01*
X68187047Y-104677244D01*
X68105000Y-105089721D01*
X67298072Y-105089721D01*
X67298072Y-103800000D01*
X67285812Y-103675518D01*
X67249502Y-103555820D01*
X67190537Y-103445506D01*
X67111185Y-103348815D01*
X67014494Y-103269463D01*
X66904180Y-103210498D01*
X66784482Y-103174188D01*
X66660000Y-103161928D01*
X63660000Y-103161928D01*
X63535518Y-103174188D01*
X63415820Y-103210498D01*
X63305506Y-103269463D01*
X63208815Y-103348815D01*
X63129463Y-103445506D01*
X63070498Y-103555820D01*
X63034188Y-103675518D01*
X63021928Y-103800000D01*
X57052706Y-103800000D01*
X56864598Y-103722083D01*
X56623110Y-103674048D01*
X56376890Y-103674048D01*
X56135402Y-103722083D01*
X55907926Y-103816307D01*
X55703202Y-103953099D01*
X55529099Y-104127202D01*
X55392307Y-104331926D01*
X55298083Y-104559402D01*
X55250048Y-104800890D01*
X54935809Y-104800890D01*
X54876351Y-104099079D01*
X54606893Y-103165062D01*
X54160394Y-102301560D01*
X54085149Y-102188946D01*
X53482818Y-101696787D01*
X50179605Y-105000000D01*
X49820395Y-105000000D01*
X46517182Y-101696787D01*
X45914851Y-102188946D01*
X45710000Y-102559919D01*
X45710000Y-101517182D01*
X46696787Y-101517182D01*
X50000000Y-104820395D01*
X53303213Y-101517182D01*
X116696787Y-101517182D01*
X120000000Y-104820395D01*
X123303213Y-101517182D01*
X122811054Y-100914851D01*
X121960067Y-100444937D01*
X121033757Y-100150071D01*
X120067719Y-100041586D01*
X119099079Y-100123649D01*
X118165062Y-100393107D01*
X117301560Y-100839606D01*
X117188946Y-100914851D01*
X116696787Y-101517182D01*
X53303213Y-101517182D01*
X52811054Y-100914851D01*
X51960067Y-100444937D01*
X51033757Y-100150071D01*
X50067719Y-100041586D01*
X49099079Y-100123649D01*
X48165062Y-100393107D01*
X47301560Y-100839606D01*
X47188946Y-100914851D01*
X46696787Y-101517182D01*
X45710000Y-101517182D01*
X45710000Y-95070512D01*
X49559783Y-95070512D01*
X49601213Y-95350130D01*
X49696397Y-95616292D01*
X49763329Y-95741514D01*
X50007298Y-95813097D01*
X50820395Y-95000000D01*
X50007298Y-94186903D01*
X49763329Y-94258486D01*
X49642429Y-94513996D01*
X49573700Y-94788184D01*
X49559783Y-95070512D01*
X45710000Y-95070512D01*
X45710000Y-94007298D01*
X50186903Y-94007298D01*
X51000000Y-94820395D01*
X51014143Y-94806253D01*
X51193748Y-94985858D01*
X51179605Y-95000000D01*
X51193748Y-95014143D01*
X51014143Y-95193748D01*
X51000000Y-95179605D01*
X50186903Y-95992702D01*
X50258486Y-96236671D01*
X50513996Y-96357571D01*
X50788184Y-96426300D01*
X51070512Y-96440217D01*
X51350130Y-96398787D01*
X51616292Y-96303603D01*
X51738309Y-96238384D01*
X51748815Y-96251185D01*
X51845506Y-96330537D01*
X51955820Y-96389502D01*
X52075518Y-96425812D01*
X52200000Y-96438072D01*
X53800000Y-96438072D01*
X53924482Y-96425812D01*
X54044180Y-96389502D01*
X54154494Y-96330537D01*
X54251185Y-96251185D01*
X54330537Y-96154494D01*
X54389502Y-96044180D01*
X54425812Y-95924482D01*
X54438072Y-95800000D01*
X54438072Y-94200000D01*
X54425812Y-94075518D01*
X54389502Y-93955820D01*
X54330537Y-93845506D01*
X54251185Y-93748815D01*
X54154494Y-93669463D01*
X54044180Y-93610498D01*
X53924482Y-93574188D01*
X53800000Y-93561928D01*
X52200000Y-93561928D01*
X52075518Y-93574188D01*
X51955820Y-93610498D01*
X51845506Y-93669463D01*
X51748815Y-93748815D01*
X51738193Y-93761758D01*
X51486004Y-93642429D01*
X51211816Y-93573700D01*
X50929488Y-93559783D01*
X50649870Y-93601213D01*
X50383708Y-93696397D01*
X50258486Y-93763329D01*
X50186903Y-94007298D01*
X45710000Y-94007298D01*
X45710000Y-92700000D01*
X57711928Y-92700000D01*
X57715000Y-93714250D01*
X57873750Y-93873000D01*
X58242629Y-93873000D01*
X58234898Y-93994708D01*
X58234266Y-93995340D01*
X58234562Y-94000000D01*
X58234266Y-94004660D01*
X58234898Y-94005292D01*
X58242629Y-94127000D01*
X57873750Y-94127000D01*
X57715000Y-94285750D01*
X57711928Y-95300000D01*
X57724188Y-95424482D01*
X57760498Y-95544180D01*
X57819463Y-95654494D01*
X57898815Y-95751185D01*
X57995506Y-95830537D01*
X58105820Y-95889502D01*
X58225518Y-95925812D01*
X58350000Y-95938072D01*
X59714250Y-95935000D01*
X59873000Y-95776250D01*
X59873000Y-95593602D01*
X59902626Y-95599619D01*
X60089758Y-95600369D01*
X60127000Y-95593116D01*
X60127000Y-95776250D01*
X60285750Y-95935000D01*
X61650000Y-95938072D01*
X61774482Y-95925812D01*
X61894180Y-95889502D01*
X62004494Y-95830537D01*
X62101185Y-95751185D01*
X62180537Y-95654494D01*
X62239502Y-95544180D01*
X62275812Y-95424482D01*
X62288072Y-95300000D01*
X62287377Y-95070512D01*
X65559783Y-95070512D01*
X65601213Y-95350130D01*
X65696397Y-95616292D01*
X65763329Y-95741514D01*
X66007298Y-95813097D01*
X66820395Y-95000000D01*
X66007298Y-94186903D01*
X65763329Y-94258486D01*
X65642429Y-94513996D01*
X65573700Y-94788184D01*
X65559783Y-95070512D01*
X62287377Y-95070512D01*
X62285000Y-94285750D01*
X62126250Y-94127000D01*
X61757371Y-94127000D01*
X61764974Y-94007298D01*
X66186903Y-94007298D01*
X67000000Y-94820395D01*
X67014143Y-94806253D01*
X67193748Y-94985858D01*
X67179605Y-95000000D01*
X67193748Y-95014143D01*
X67014143Y-95193748D01*
X67000000Y-95179605D01*
X66186903Y-95992702D01*
X66258486Y-96236671D01*
X66513996Y-96357571D01*
X66788184Y-96426300D01*
X67070512Y-96440217D01*
X67350130Y-96398787D01*
X67616292Y-96303603D01*
X67738309Y-96238384D01*
X67748815Y-96251185D01*
X67845506Y-96330537D01*
X67955820Y-96389502D01*
X68075518Y-96425812D01*
X68200000Y-96438072D01*
X69800000Y-96438072D01*
X69924482Y-96425812D01*
X70044180Y-96389502D01*
X70154494Y-96330537D01*
X70251185Y-96251185D01*
X70330537Y-96154494D01*
X70389502Y-96044180D01*
X70425812Y-95924482D01*
X70438072Y-95800000D01*
X70438072Y-94200000D01*
X70425812Y-94075518D01*
X70389502Y-93955820D01*
X70330537Y-93845506D01*
X70251185Y-93748815D01*
X70154494Y-93669463D01*
X70044180Y-93610498D01*
X69924482Y-93574188D01*
X69800000Y-93561928D01*
X68200000Y-93561928D01*
X68075518Y-93574188D01*
X67955820Y-93610498D01*
X67845506Y-93669463D01*
X67748815Y-93748815D01*
X67738193Y-93761758D01*
X67486004Y-93642429D01*
X67211816Y-93573700D01*
X66929488Y-93559783D01*
X66649870Y-93601213D01*
X66383708Y-93696397D01*
X66258486Y-93763329D01*
X66186903Y-94007298D01*
X61764974Y-94007298D01*
X61765102Y-94005292D01*
X61765734Y-94004660D01*
X61765438Y-94000000D01*
X61765734Y-93995340D01*
X61765102Y-93994708D01*
X61757371Y-93873000D01*
X62126250Y-93873000D01*
X62285000Y-93714250D01*
X62288072Y-92700000D01*
X73711928Y-92700000D01*
X73715000Y-93714250D01*
X73873750Y-93873000D01*
X74242629Y-93873000D01*
X74234898Y-93994708D01*
X74234266Y-93995340D01*
X74234562Y-94000000D01*
X74234266Y-94004660D01*
X74234898Y-94005292D01*
X74242629Y-94127000D01*
X73873750Y-94127000D01*
X73715000Y-94285750D01*
X73711928Y-95300000D01*
X73724188Y-95424482D01*
X73760498Y-95544180D01*
X73819463Y-95654494D01*
X73898815Y-95751185D01*
X73995506Y-95830537D01*
X74105820Y-95889502D01*
X74225518Y-95925812D01*
X74350000Y-95938072D01*
X75714250Y-95935000D01*
X75873000Y-95776250D01*
X75873000Y-95593602D01*
X75902626Y-95599619D01*
X76089758Y-95600369D01*
X76127000Y-95593116D01*
X76127000Y-95776250D01*
X76285750Y-95935000D01*
X77650000Y-95938072D01*
X77774482Y-95925812D01*
X77894180Y-95889502D01*
X78004494Y-95830537D01*
X78101185Y-95751185D01*
X78180537Y-95654494D01*
X78239502Y-95544180D01*
X78275812Y-95424482D01*
X78288072Y-95300000D01*
X78287377Y-95070512D01*
X81559783Y-95070512D01*
X81601213Y-95350130D01*
X81696397Y-95616292D01*
X81763329Y-95741514D01*
X82007298Y-95813097D01*
X82820395Y-95000000D01*
X82007298Y-94186903D01*
X81763329Y-94258486D01*
X81642429Y-94513996D01*
X81573700Y-94788184D01*
X81559783Y-95070512D01*
X78287377Y-95070512D01*
X78285000Y-94285750D01*
X78126250Y-94127000D01*
X77757371Y-94127000D01*
X77764974Y-94007298D01*
X82186903Y-94007298D01*
X83000000Y-94820395D01*
X83014143Y-94806253D01*
X83193748Y-94985858D01*
X83179605Y-95000000D01*
X83193748Y-95014143D01*
X83014143Y-95193748D01*
X83000000Y-95179605D01*
X82186903Y-95992702D01*
X82258486Y-96236671D01*
X82513996Y-96357571D01*
X82788184Y-96426300D01*
X83070512Y-96440217D01*
X83350130Y-96398787D01*
X83616292Y-96303603D01*
X83738309Y-96238384D01*
X83748815Y-96251185D01*
X83845506Y-96330537D01*
X83955820Y-96389502D01*
X84075518Y-96425812D01*
X84200000Y-96438072D01*
X85800000Y-96438072D01*
X85924482Y-96425812D01*
X86044180Y-96389502D01*
X86154494Y-96330537D01*
X86251185Y-96251185D01*
X86330537Y-96154494D01*
X86389502Y-96044180D01*
X86425812Y-95924482D01*
X86438072Y-95800000D01*
X86438072Y-94200000D01*
X86425812Y-94075518D01*
X86389502Y-93955820D01*
X86330537Y-93845506D01*
X86251185Y-93748815D01*
X86154494Y-93669463D01*
X86044180Y-93610498D01*
X85924482Y-93574188D01*
X85800000Y-93561928D01*
X84200000Y-93561928D01*
X84075518Y-93574188D01*
X83955820Y-93610498D01*
X83845506Y-93669463D01*
X83748815Y-93748815D01*
X83738193Y-93761758D01*
X83486004Y-93642429D01*
X83211816Y-93573700D01*
X82929488Y-93559783D01*
X82649870Y-93601213D01*
X82383708Y-93696397D01*
X82258486Y-93763329D01*
X82186903Y-94007298D01*
X77764974Y-94007298D01*
X77765102Y-94005292D01*
X77765734Y-94004660D01*
X77765438Y-94000000D01*
X77765734Y-93995340D01*
X77765102Y-93994708D01*
X77757371Y-93873000D01*
X78126250Y-93873000D01*
X78285000Y-93714250D01*
X78288072Y-92700000D01*
X89711928Y-92700000D01*
X89715000Y-93714250D01*
X89873750Y-93873000D01*
X90242629Y-93873000D01*
X90234898Y-93994708D01*
X90234266Y-93995340D01*
X90234562Y-94000000D01*
X90234266Y-94004660D01*
X90234898Y-94005292D01*
X90242629Y-94127000D01*
X89873750Y-94127000D01*
X89715000Y-94285750D01*
X89711928Y-95300000D01*
X89724188Y-95424482D01*
X89760498Y-95544180D01*
X89819463Y-95654494D01*
X89898815Y-95751185D01*
X89995506Y-95830537D01*
X90105820Y-95889502D01*
X90225518Y-95925812D01*
X90350000Y-95938072D01*
X91714250Y-95935000D01*
X91873000Y-95776250D01*
X91873000Y-95593602D01*
X91902626Y-95599619D01*
X92089758Y-95600369D01*
X92127000Y-95593116D01*
X92127000Y-95776250D01*
X92285750Y-95935000D01*
X93650000Y-95938072D01*
X93774482Y-95925812D01*
X93894180Y-95889502D01*
X94004494Y-95830537D01*
X94101185Y-95751185D01*
X94180537Y-95654494D01*
X94239502Y-95544180D01*
X94275812Y-95424482D01*
X94288072Y-95300000D01*
X94287377Y-95070512D01*
X97759783Y-95070512D01*
X97801213Y-95350130D01*
X97896397Y-95616292D01*
X97963329Y-95741514D01*
X98207298Y-95813097D01*
X99020395Y-95000000D01*
X98207298Y-94186903D01*
X97963329Y-94258486D01*
X97842429Y-94513996D01*
X97773700Y-94788184D01*
X97759783Y-95070512D01*
X94287377Y-95070512D01*
X94285000Y-94285750D01*
X94126250Y-94127000D01*
X93757371Y-94127000D01*
X93764974Y-94007298D01*
X98386903Y-94007298D01*
X99200000Y-94820395D01*
X99214143Y-94806253D01*
X99393748Y-94985858D01*
X99379605Y-95000000D01*
X99393748Y-95014143D01*
X99214143Y-95193748D01*
X99200000Y-95179605D01*
X98386903Y-95992702D01*
X98458486Y-96236671D01*
X98713996Y-96357571D01*
X98988184Y-96426300D01*
X99270512Y-96440217D01*
X99550130Y-96398787D01*
X99816292Y-96303603D01*
X99938309Y-96238384D01*
X99948815Y-96251185D01*
X100045506Y-96330537D01*
X100155820Y-96389502D01*
X100275518Y-96425812D01*
X100400000Y-96438072D01*
X102000000Y-96438072D01*
X102124482Y-96425812D01*
X102244180Y-96389502D01*
X102354494Y-96330537D01*
X102451185Y-96251185D01*
X102530537Y-96154494D01*
X102589502Y-96044180D01*
X102625812Y-95924482D01*
X102638072Y-95800000D01*
X102638072Y-94200000D01*
X102625812Y-94075518D01*
X102589502Y-93955820D01*
X102530537Y-93845506D01*
X102451185Y-93748815D01*
X102354494Y-93669463D01*
X102244180Y-93610498D01*
X102124482Y-93574188D01*
X102000000Y-93561928D01*
X100400000Y-93561928D01*
X100275518Y-93574188D01*
X100155820Y-93610498D01*
X100045506Y-93669463D01*
X99948815Y-93748815D01*
X99938193Y-93761758D01*
X99686004Y-93642429D01*
X99411816Y-93573700D01*
X99129488Y-93559783D01*
X98849870Y-93601213D01*
X98583708Y-93696397D01*
X98458486Y-93763329D01*
X98386903Y-94007298D01*
X93764974Y-94007298D01*
X93765102Y-94005292D01*
X93765734Y-94004660D01*
X93765438Y-94000000D01*
X93765734Y-93995340D01*
X93765102Y-93994708D01*
X93757371Y-93873000D01*
X94126250Y-93873000D01*
X94285000Y-93714250D01*
X94288072Y-92700000D01*
X105711928Y-92700000D01*
X105715000Y-93714250D01*
X105873750Y-93873000D01*
X106242629Y-93873000D01*
X106234898Y-93994708D01*
X106234266Y-93995340D01*
X106234562Y-94000000D01*
X106234266Y-94004660D01*
X106234898Y-94005292D01*
X106242629Y-94127000D01*
X105873750Y-94127000D01*
X105715000Y-94285750D01*
X105711928Y-95300000D01*
X105724188Y-95424482D01*
X105760498Y-95544180D01*
X105819463Y-95654494D01*
X105898815Y-95751185D01*
X105995506Y-95830537D01*
X106105820Y-95889502D01*
X106225518Y-95925812D01*
X106350000Y-95938072D01*
X107714250Y-95935000D01*
X107873000Y-95776250D01*
X107873000Y-95593602D01*
X107902626Y-95599619D01*
X108089758Y-95600369D01*
X108127000Y-95593116D01*
X108127000Y-95776250D01*
X108285750Y-95935000D01*
X109650000Y-95938072D01*
X109774482Y-95925812D01*
X109894180Y-95889502D01*
X110004494Y-95830537D01*
X110101185Y-95751185D01*
X110180537Y-95654494D01*
X110239502Y-95544180D01*
X110275812Y-95424482D01*
X110288072Y-95300000D01*
X110285000Y-94285750D01*
X110126250Y-94127000D01*
X109757371Y-94127000D01*
X109765102Y-94005292D01*
X109765734Y-94004660D01*
X109765438Y-94000000D01*
X109765734Y-93995340D01*
X109765102Y-93994708D01*
X109757371Y-93873000D01*
X110126250Y-93873000D01*
X110285000Y-93714250D01*
X110288072Y-92700000D01*
X110275812Y-92575518D01*
X110239502Y-92455820D01*
X110180537Y-92345506D01*
X110101185Y-92248815D01*
X110004494Y-92169463D01*
X109894180Y-92110498D01*
X109774482Y-92074188D01*
X109650000Y-92061928D01*
X108285750Y-92065000D01*
X108127000Y-92223750D01*
X108127000Y-92406398D01*
X108097374Y-92400381D01*
X107910242Y-92399631D01*
X107873000Y-92406884D01*
X107873000Y-92223750D01*
X107714250Y-92065000D01*
X106350000Y-92061928D01*
X106225518Y-92074188D01*
X106105820Y-92110498D01*
X105995506Y-92169463D01*
X105898815Y-92248815D01*
X105819463Y-92345506D01*
X105760498Y-92455820D01*
X105724188Y-92575518D01*
X105711928Y-92700000D01*
X94288072Y-92700000D01*
X94275812Y-92575518D01*
X94239502Y-92455820D01*
X94180537Y-92345506D01*
X94101185Y-92248815D01*
X94004494Y-92169463D01*
X93894180Y-92110498D01*
X93774482Y-92074188D01*
X93650000Y-92061928D01*
X92285750Y-92065000D01*
X92127000Y-92223750D01*
X92127000Y-92406398D01*
X92097374Y-92400381D01*
X91910242Y-92399631D01*
X91873000Y-92406884D01*
X91873000Y-92223750D01*
X91714250Y-92065000D01*
X90350000Y-92061928D01*
X90225518Y-92074188D01*
X90105820Y-92110498D01*
X89995506Y-92169463D01*
X89898815Y-92248815D01*
X89819463Y-92345506D01*
X89760498Y-92455820D01*
X89724188Y-92575518D01*
X89711928Y-92700000D01*
X78288072Y-92700000D01*
X78275812Y-92575518D01*
X78239502Y-92455820D01*
X78180537Y-92345506D01*
X78101185Y-92248815D01*
X78004494Y-92169463D01*
X77894180Y-92110498D01*
X77774482Y-92074188D01*
X77650000Y-92061928D01*
X76285750Y-92065000D01*
X76127000Y-92223750D01*
X76127000Y-92406398D01*
X76097374Y-92400381D01*
X75910242Y-92399631D01*
X75873000Y-92406884D01*
X75873000Y-92223750D01*
X75714250Y-92065000D01*
X74350000Y-92061928D01*
X74225518Y-92074188D01*
X74105820Y-92110498D01*
X73995506Y-92169463D01*
X73898815Y-92248815D01*
X73819463Y-92345506D01*
X73760498Y-92455820D01*
X73724188Y-92575518D01*
X73711928Y-92700000D01*
X62288072Y-92700000D01*
X62275812Y-92575518D01*
X62239502Y-92455820D01*
X62180537Y-92345506D01*
X62101185Y-92248815D01*
X62004494Y-92169463D01*
X61894180Y-92110498D01*
X61774482Y-92074188D01*
X61650000Y-92061928D01*
X60285750Y-92065000D01*
X60127000Y-92223750D01*
X60127000Y-92406398D01*
X60097374Y-92400381D01*
X59910242Y-92399631D01*
X59873000Y-92406884D01*
X59873000Y-92223750D01*
X59714250Y-92065000D01*
X58350000Y-92061928D01*
X58225518Y-92074188D01*
X58105820Y-92110498D01*
X57995506Y-92169463D01*
X57898815Y-92248815D01*
X57819463Y-92345506D01*
X57760498Y-92455820D01*
X57724188Y-92575518D01*
X57711928Y-92700000D01*
X45710000Y-92700000D01*
X45710000Y-88898061D01*
X58365000Y-88898061D01*
X58365000Y-89101939D01*
X58404774Y-89301898D01*
X58482795Y-89490256D01*
X58596063Y-89659774D01*
X58740226Y-89803937D01*
X58909744Y-89917205D01*
X59098102Y-89995226D01*
X59298061Y-90035000D01*
X59501939Y-90035000D01*
X59701898Y-89995226D01*
X59890256Y-89917205D01*
X60050000Y-89810468D01*
X60209744Y-89917205D01*
X60398102Y-89995226D01*
X60598061Y-90035000D01*
X60801939Y-90035000D01*
X61001898Y-89995226D01*
X61190256Y-89917205D01*
X61359774Y-89803937D01*
X61503937Y-89659774D01*
X61617205Y-89490256D01*
X61695226Y-89301898D01*
X61735000Y-89101939D01*
X61735000Y-88898061D01*
X61695226Y-88698102D01*
X61617205Y-88509744D01*
X61503937Y-88340226D01*
X61485000Y-88321289D01*
X61485000Y-86025157D01*
X64925158Y-82585000D01*
X68361447Y-82585000D01*
X68400000Y-82588797D01*
X68438553Y-82585000D01*
X68438561Y-82585000D01*
X68553887Y-82573641D01*
X68701860Y-82528754D01*
X68838233Y-82455862D01*
X68957764Y-82357764D01*
X68982347Y-82327810D01*
X70377096Y-80933061D01*
X71290000Y-80933061D01*
X71290000Y-81136939D01*
X71329774Y-81336898D01*
X71407795Y-81525256D01*
X71521063Y-81694774D01*
X71540000Y-81713711D01*
X71540001Y-85921437D01*
X71536203Y-85960000D01*
X71551359Y-86113886D01*
X71596246Y-86261859D01*
X71622644Y-86311246D01*
X71669139Y-86398233D01*
X71704943Y-86441860D01*
X71742655Y-86487812D01*
X71742659Y-86487816D01*
X71767237Y-86517764D01*
X71797185Y-86542342D01*
X74330000Y-89075158D01*
X74330000Y-89101939D01*
X74369774Y-89301898D01*
X74447795Y-89490256D01*
X74561063Y-89659774D01*
X74705226Y-89803937D01*
X74874744Y-89917205D01*
X75063102Y-89995226D01*
X75263061Y-90035000D01*
X75466939Y-90035000D01*
X75666898Y-89995226D01*
X75855256Y-89917205D01*
X76024774Y-89803937D01*
X76032500Y-89796211D01*
X76040226Y-89803937D01*
X76209744Y-89917205D01*
X76398102Y-89995226D01*
X76598061Y-90035000D01*
X76801939Y-90035000D01*
X77001898Y-89995226D01*
X77190256Y-89917205D01*
X77359774Y-89803937D01*
X77503937Y-89659774D01*
X77617205Y-89490256D01*
X77695226Y-89301898D01*
X77735000Y-89101939D01*
X77735000Y-88898061D01*
X77695226Y-88698102D01*
X77617205Y-88509744D01*
X77503937Y-88340226D01*
X77359774Y-88196063D01*
X77190256Y-88082795D01*
X77001898Y-88004774D01*
X76801939Y-87965000D01*
X76775158Y-87965000D01*
X74385000Y-85574843D01*
X74385000Y-81738711D01*
X74403937Y-81719774D01*
X74517205Y-81550256D01*
X74595226Y-81361898D01*
X74635000Y-81161939D01*
X74635000Y-80958061D01*
X74595226Y-80758102D01*
X74517205Y-80569744D01*
X74403937Y-80400226D01*
X74259774Y-80256063D01*
X74090256Y-80142795D01*
X73901898Y-80064774D01*
X73701939Y-80025000D01*
X73498061Y-80025000D01*
X73298102Y-80064774D01*
X73109744Y-80142795D01*
X72981208Y-80228680D01*
X72815256Y-80117795D01*
X72626898Y-80039774D01*
X72426939Y-80000000D01*
X72223061Y-80000000D01*
X72023102Y-80039774D01*
X71834744Y-80117795D01*
X71665226Y-80231063D01*
X71521063Y-80375226D01*
X71407795Y-80544744D01*
X71329774Y-80733102D01*
X71290000Y-80933061D01*
X70377096Y-80933061D01*
X73402096Y-77908061D01*
X84105000Y-77908061D01*
X84105000Y-78111939D01*
X84144774Y-78311898D01*
X84222795Y-78500256D01*
X84336063Y-78669774D01*
X84480226Y-78813937D01*
X84649744Y-78927205D01*
X84838102Y-79005226D01*
X85038061Y-79045000D01*
X85241939Y-79045000D01*
X85441898Y-79005226D01*
X85630256Y-78927205D01*
X85799774Y-78813937D01*
X85943937Y-78669774D01*
X86057205Y-78500256D01*
X86135226Y-78311898D01*
X86175000Y-78111939D01*
X86175000Y-77908061D01*
X86135226Y-77708102D01*
X86057205Y-77519744D01*
X85943937Y-77350226D01*
X85799774Y-77206063D01*
X85630256Y-77092795D01*
X85441898Y-77014774D01*
X85241939Y-76975000D01*
X85038061Y-76975000D01*
X84838102Y-77014774D01*
X84649744Y-77092795D01*
X84480226Y-77206063D01*
X84336063Y-77350226D01*
X84222795Y-77519744D01*
X84144774Y-77708102D01*
X84105000Y-77908061D01*
X73402096Y-77908061D01*
X75075157Y-76235000D01*
X75101939Y-76235000D01*
X75301898Y-76195226D01*
X75490256Y-76117205D01*
X75659774Y-76003937D01*
X75803937Y-75859774D01*
X75917205Y-75690256D01*
X75995226Y-75501898D01*
X76035000Y-75301939D01*
X76035000Y-75098061D01*
X75995226Y-74898102D01*
X75917205Y-74709744D01*
X75803937Y-74540226D01*
X75659774Y-74396063D01*
X75490256Y-74282795D01*
X75301898Y-74204774D01*
X75101939Y-74165000D01*
X74898061Y-74165000D01*
X74800301Y-74184445D01*
X74703937Y-74040226D01*
X74559774Y-73896063D01*
X74390256Y-73782795D01*
X74201898Y-73704774D01*
X74001939Y-73665000D01*
X73798061Y-73665000D01*
X73598102Y-73704774D01*
X73409744Y-73782795D01*
X73240226Y-73896063D01*
X73096063Y-74040226D01*
X72982795Y-74209744D01*
X72904774Y-74398102D01*
X72865000Y-74598061D01*
X72865000Y-74801939D01*
X72904774Y-75001898D01*
X72982795Y-75190256D01*
X73029575Y-75260267D01*
X67974843Y-80315000D01*
X64138556Y-80315000D01*
X64100000Y-80311203D01*
X64061444Y-80315000D01*
X64061439Y-80315000D01*
X64021026Y-80318980D01*
X63946113Y-80326358D01*
X63798140Y-80371246D01*
X63661767Y-80444138D01*
X63542236Y-80542236D01*
X63517655Y-80572188D01*
X58872190Y-85217653D01*
X58842236Y-85242236D01*
X58744138Y-85361768D01*
X58671246Y-85498141D01*
X58626359Y-85646114D01*
X58615000Y-85761440D01*
X58615000Y-85761447D01*
X58611203Y-85800000D01*
X58615000Y-85838553D01*
X58615001Y-88321288D01*
X58596063Y-88340226D01*
X58482795Y-88509744D01*
X58404774Y-88698102D01*
X58365000Y-88898061D01*
X45710000Y-88898061D01*
X45710000Y-82425527D01*
X50294078Y-82425527D01*
X50347466Y-82654201D01*
X50577374Y-82760095D01*
X50823524Y-82819102D01*
X51076455Y-82828952D01*
X51326449Y-82789270D01*
X51563896Y-82701578D01*
X51652534Y-82654201D01*
X51705922Y-82425527D01*
X51000000Y-81719605D01*
X50294078Y-82425527D01*
X45710000Y-82425527D01*
X45710000Y-81616455D01*
X49711048Y-81616455D01*
X49750730Y-81866449D01*
X49838422Y-82103896D01*
X49885799Y-82192534D01*
X50114473Y-82245922D01*
X50820395Y-81540000D01*
X51179605Y-81540000D01*
X51885527Y-82245922D01*
X52114201Y-82192534D01*
X52220095Y-81962626D01*
X52279102Y-81716476D01*
X52288952Y-81463545D01*
X52249270Y-81213551D01*
X52161578Y-80976104D01*
X52114201Y-80887466D01*
X51885527Y-80834078D01*
X51179605Y-81540000D01*
X50820395Y-81540000D01*
X50114473Y-80834078D01*
X49885799Y-80887466D01*
X49779905Y-81117374D01*
X49720898Y-81363524D01*
X49711048Y-81616455D01*
X45710000Y-81616455D01*
X45710000Y-76333439D01*
X49715000Y-76333439D01*
X49715000Y-76586561D01*
X49764381Y-76834821D01*
X49861247Y-77068676D01*
X50001875Y-77279140D01*
X50180860Y-77458125D01*
X50391324Y-77598753D01*
X50625179Y-77695619D01*
X50798027Y-77730000D01*
X50625179Y-77764381D01*
X50391324Y-77861247D01*
X50180860Y-78001875D01*
X50001875Y-78180860D01*
X49861247Y-78391324D01*
X49764381Y-78625179D01*
X49715000Y-78873439D01*
X49715000Y-79126561D01*
X49764381Y-79374821D01*
X49861247Y-79608676D01*
X50001875Y-79819140D01*
X50180860Y-79998125D01*
X50391324Y-80138753D01*
X50625179Y-80235619D01*
X50800744Y-80270540D01*
X50673551Y-80290730D01*
X50436104Y-80378422D01*
X50347466Y-80425799D01*
X50294078Y-80654473D01*
X51000000Y-81360395D01*
X51705922Y-80654473D01*
X51652534Y-80425799D01*
X51422626Y-80319905D01*
X51208789Y-80268644D01*
X51374821Y-80235619D01*
X51608676Y-80138753D01*
X51819140Y-79998125D01*
X51998125Y-79819140D01*
X52138753Y-79608676D01*
X52235619Y-79374821D01*
X52285000Y-79126561D01*
X52285000Y-78873439D01*
X52235619Y-78625179D01*
X52138753Y-78391324D01*
X51998125Y-78180860D01*
X51819140Y-78001875D01*
X51608676Y-77861247D01*
X51374821Y-77764381D01*
X51201973Y-77730000D01*
X51374821Y-77695619D01*
X51608676Y-77598753D01*
X51819140Y-77458125D01*
X51998125Y-77279140D01*
X52138753Y-77068676D01*
X52235619Y-76834821D01*
X52285000Y-76586561D01*
X52285000Y-76333439D01*
X52235619Y-76085179D01*
X52138753Y-75851324D01*
X51998125Y-75640860D01*
X51819140Y-75461875D01*
X51608676Y-75321247D01*
X51374821Y-75224381D01*
X51126561Y-75175000D01*
X50873439Y-75175000D01*
X50625179Y-75224381D01*
X50391324Y-75321247D01*
X50180860Y-75461875D01*
X50001875Y-75640860D01*
X49861247Y-75851324D01*
X49764381Y-76085179D01*
X49715000Y-76333439D01*
X45710000Y-76333439D01*
X45710000Y-75168514D01*
X55015000Y-75168514D01*
X55015000Y-75431486D01*
X55066304Y-75689405D01*
X55166939Y-75932359D01*
X55313038Y-76151013D01*
X55468433Y-76306408D01*
X55432795Y-76359744D01*
X55354774Y-76548102D01*
X55315000Y-76748061D01*
X55315000Y-76951939D01*
X55354774Y-77151898D01*
X55432795Y-77340256D01*
X55546063Y-77509774D01*
X55690226Y-77653937D01*
X55859744Y-77767205D01*
X56048102Y-77845226D01*
X56248061Y-77885000D01*
X56451939Y-77885000D01*
X56651898Y-77845226D01*
X56840256Y-77767205D01*
X57009774Y-77653937D01*
X57153937Y-77509774D01*
X57267205Y-77340256D01*
X57345226Y-77151898D01*
X57385000Y-76951939D01*
X57385000Y-76748061D01*
X57345226Y-76548102D01*
X57267205Y-76359744D01*
X57231567Y-76306408D01*
X57386962Y-76151013D01*
X57533061Y-75932359D01*
X57575000Y-75831109D01*
X57616939Y-75932359D01*
X57763038Y-76151013D01*
X57918433Y-76306408D01*
X57882795Y-76359744D01*
X57804774Y-76548102D01*
X57765000Y-76748061D01*
X57765000Y-76951939D01*
X57804774Y-77151898D01*
X57882795Y-77340256D01*
X57996063Y-77509774D01*
X58140226Y-77653937D01*
X58309744Y-77767205D01*
X58498102Y-77845226D01*
X58698061Y-77885000D01*
X58901939Y-77885000D01*
X59101898Y-77845226D01*
X59290256Y-77767205D01*
X59459774Y-77653937D01*
X59603937Y-77509774D01*
X59717205Y-77340256D01*
X59795226Y-77151898D01*
X59835000Y-76951939D01*
X59835000Y-76748061D01*
X59795226Y-76548102D01*
X59757930Y-76458061D01*
X67065000Y-76458061D01*
X67065000Y-76661939D01*
X67104774Y-76861898D01*
X67182795Y-77050256D01*
X67296063Y-77219774D01*
X67440226Y-77363937D01*
X67609744Y-77477205D01*
X67798102Y-77555226D01*
X67998061Y-77595000D01*
X68201939Y-77595000D01*
X68401898Y-77555226D01*
X68590256Y-77477205D01*
X68759774Y-77363937D01*
X68903937Y-77219774D01*
X69017205Y-77050256D01*
X69095226Y-76861898D01*
X69135000Y-76661939D01*
X69135000Y-76458061D01*
X69095226Y-76258102D01*
X69017205Y-76069744D01*
X68903937Y-75900226D01*
X68759774Y-75756063D01*
X68590256Y-75642795D01*
X68401898Y-75564774D01*
X68201939Y-75525000D01*
X67998061Y-75525000D01*
X67798102Y-75564774D01*
X67609744Y-75642795D01*
X67440226Y-75756063D01*
X67296063Y-75900226D01*
X67182795Y-76069744D01*
X67104774Y-76258102D01*
X67065000Y-76458061D01*
X59757930Y-76458061D01*
X59717205Y-76359744D01*
X59681567Y-76306408D01*
X59836962Y-76151013D01*
X59983061Y-75932359D01*
X60083696Y-75689405D01*
X60135000Y-75431486D01*
X60135000Y-75168514D01*
X60083696Y-74910595D01*
X59983061Y-74667641D01*
X59836962Y-74448987D01*
X59651013Y-74263038D01*
X59432359Y-74116939D01*
X59189405Y-74016304D01*
X58931486Y-73965000D01*
X58668514Y-73965000D01*
X58410595Y-74016304D01*
X58167641Y-74116939D01*
X57948987Y-74263038D01*
X57763038Y-74448987D01*
X57616939Y-74667641D01*
X57575000Y-74768891D01*
X57533061Y-74667641D01*
X57386962Y-74448987D01*
X57201013Y-74263038D01*
X56982359Y-74116939D01*
X56739405Y-74016304D01*
X56481486Y-73965000D01*
X56218514Y-73965000D01*
X55960595Y-74016304D01*
X55717641Y-74116939D01*
X55498987Y-74263038D01*
X55313038Y-74448987D01*
X55166939Y-74667641D01*
X55066304Y-74910595D01*
X55015000Y-75168514D01*
X45710000Y-75168514D01*
X45710000Y-70088514D01*
X55015000Y-70088514D01*
X55015000Y-70351486D01*
X55066304Y-70609405D01*
X55166939Y-70852359D01*
X55313038Y-71071013D01*
X55498987Y-71256962D01*
X55717641Y-71403061D01*
X55960595Y-71503696D01*
X56218514Y-71555000D01*
X56481486Y-71555000D01*
X56739405Y-71503696D01*
X56982359Y-71403061D01*
X57201013Y-71256962D01*
X57386962Y-71071013D01*
X57533061Y-70852359D01*
X57575000Y-70751109D01*
X57616939Y-70852359D01*
X57763038Y-71071013D01*
X57948987Y-71256962D01*
X58167641Y-71403061D01*
X58410595Y-71503696D01*
X58668514Y-71555000D01*
X58931486Y-71555000D01*
X59189405Y-71503696D01*
X59432359Y-71403061D01*
X59651013Y-71256962D01*
X59836962Y-71071013D01*
X59983061Y-70852359D01*
X60083696Y-70609405D01*
X60135000Y-70351486D01*
X60135000Y-70088514D01*
X60083696Y-69830595D01*
X59983061Y-69587641D01*
X59836962Y-69368987D01*
X59651013Y-69183038D01*
X59432359Y-69036939D01*
X59189405Y-68936304D01*
X58931486Y-68885000D01*
X58668514Y-68885000D01*
X58410595Y-68936304D01*
X58167641Y-69036939D01*
X57948987Y-69183038D01*
X57763038Y-69368987D01*
X57616939Y-69587641D01*
X57575000Y-69688891D01*
X57533061Y-69587641D01*
X57386962Y-69368987D01*
X57201013Y-69183038D01*
X56982359Y-69036939D01*
X56739405Y-68936304D01*
X56481486Y-68885000D01*
X56218514Y-68885000D01*
X55960595Y-68936304D01*
X55717641Y-69036939D01*
X55498987Y-69183038D01*
X55313038Y-69368987D01*
X55166939Y-69587641D01*
X55066304Y-69830595D01*
X55015000Y-70088514D01*
X45710000Y-70088514D01*
X45710000Y-59150000D01*
X48511928Y-59150000D01*
X48511928Y-60850000D01*
X48524188Y-60974482D01*
X48560498Y-61094180D01*
X48619463Y-61204494D01*
X48673222Y-61270000D01*
X48619463Y-61335506D01*
X48560498Y-61445820D01*
X48524188Y-61565518D01*
X48511928Y-61690000D01*
X48511928Y-63390000D01*
X48524188Y-63514482D01*
X48560498Y-63634180D01*
X48619463Y-63744494D01*
X48673222Y-63810000D01*
X48619463Y-63875506D01*
X48560498Y-63985820D01*
X48524188Y-64105518D01*
X48511928Y-64230000D01*
X48511928Y-65930000D01*
X48524188Y-66054482D01*
X48560498Y-66174180D01*
X48619463Y-66284494D01*
X48673222Y-66350000D01*
X48619463Y-66415506D01*
X48560498Y-66525820D01*
X48524188Y-66645518D01*
X48511928Y-66770000D01*
X48511928Y-68470000D01*
X48524188Y-68594482D01*
X48560498Y-68714180D01*
X48619463Y-68824494D01*
X48698815Y-68921185D01*
X48795506Y-69000537D01*
X48905820Y-69059502D01*
X49025518Y-69095812D01*
X49150000Y-69108072D01*
X50850000Y-69108072D01*
X50974482Y-69095812D01*
X51094180Y-69059502D01*
X51204494Y-69000537D01*
X51301185Y-68921185D01*
X51380537Y-68824494D01*
X51439502Y-68714180D01*
X51461513Y-68641620D01*
X51593368Y-68773475D01*
X51836589Y-68935990D01*
X52106842Y-69047932D01*
X52393740Y-69105000D01*
X52686260Y-69105000D01*
X52973158Y-69047932D01*
X53243411Y-68935990D01*
X53486632Y-68773475D01*
X53693475Y-68566632D01*
X53855990Y-68323411D01*
X53967932Y-68053158D01*
X54025000Y-67766260D01*
X54025000Y-67473740D01*
X53967932Y-67186842D01*
X53855990Y-66916589D01*
X53693475Y-66673368D01*
X53486632Y-66466525D01*
X53312240Y-66350000D01*
X53486632Y-66233475D01*
X53693475Y-66026632D01*
X53855990Y-65783411D01*
X53967932Y-65513158D01*
X54025000Y-65226260D01*
X54025000Y-64933740D01*
X53967932Y-64646842D01*
X53855990Y-64376589D01*
X53693475Y-64133368D01*
X53486632Y-63926525D01*
X53312240Y-63810000D01*
X53486632Y-63693475D01*
X53693475Y-63486632D01*
X53801474Y-63325000D01*
X55711622Y-63325000D01*
X55664773Y-63438103D01*
X55624999Y-63638062D01*
X55624999Y-63841940D01*
X55664773Y-64041899D01*
X55742794Y-64230257D01*
X55856062Y-64399775D01*
X56000225Y-64543938D01*
X56169743Y-64657206D01*
X56358101Y-64735227D01*
X56558060Y-64775001D01*
X56761938Y-64775001D01*
X56961897Y-64735227D01*
X57150255Y-64657206D01*
X57319773Y-64543938D01*
X57338710Y-64525001D01*
X66594844Y-64525001D01*
X71247654Y-69177811D01*
X71272237Y-69207765D01*
X71391768Y-69305863D01*
X71528141Y-69378755D01*
X71676114Y-69423643D01*
X71751027Y-69431021D01*
X71791440Y-69435001D01*
X71791445Y-69435001D01*
X71830001Y-69438798D01*
X71868557Y-69435001D01*
X74636717Y-69435001D01*
X74759744Y-69517205D01*
X74948102Y-69595226D01*
X75148061Y-69635000D01*
X75351939Y-69635000D01*
X75551898Y-69595226D01*
X75740256Y-69517205D01*
X75909774Y-69403937D01*
X76053937Y-69259774D01*
X76167205Y-69090256D01*
X76245226Y-68901898D01*
X76285000Y-68701939D01*
X76285000Y-68498061D01*
X76245226Y-68298102D01*
X76167205Y-68109744D01*
X76053937Y-67940226D01*
X75909774Y-67796063D01*
X75740256Y-67682795D01*
X75551898Y-67604774D01*
X75351939Y-67565000D01*
X75148061Y-67565000D01*
X74948102Y-67604774D01*
X74759744Y-67682795D01*
X74590226Y-67796063D01*
X74521288Y-67865001D01*
X72155158Y-67865001D01*
X70088218Y-65798061D01*
X70795000Y-65798061D01*
X70795000Y-66001939D01*
X70834774Y-66201898D01*
X70912795Y-66390256D01*
X71026063Y-66559774D01*
X71170226Y-66703937D01*
X71339744Y-66817205D01*
X71528102Y-66895226D01*
X71728061Y-66935000D01*
X71931939Y-66935000D01*
X72131898Y-66895226D01*
X72320256Y-66817205D01*
X72489774Y-66703937D01*
X72633937Y-66559774D01*
X72747205Y-66390256D01*
X72825226Y-66201898D01*
X72865000Y-66001939D01*
X72865000Y-65798061D01*
X72825226Y-65598102D01*
X72747205Y-65409744D01*
X72633937Y-65240226D01*
X72489774Y-65096063D01*
X72320256Y-64982795D01*
X72131898Y-64904774D01*
X71931939Y-64865000D01*
X71728061Y-64865000D01*
X71528102Y-64904774D01*
X71339744Y-64982795D01*
X71170226Y-65096063D01*
X71026063Y-65240226D01*
X70912795Y-65409744D01*
X70834774Y-65598102D01*
X70795000Y-65798061D01*
X70088218Y-65798061D01*
X67615157Y-63325000D01*
X70121447Y-63325000D01*
X70160000Y-63328797D01*
X70198553Y-63325000D01*
X70198561Y-63325000D01*
X70313887Y-63313641D01*
X70461860Y-63268754D01*
X70598233Y-63195862D01*
X70717764Y-63097764D01*
X70742347Y-63067810D01*
X71475157Y-62335000D01*
X71501939Y-62335000D01*
X71701898Y-62295226D01*
X71890256Y-62217205D01*
X72059774Y-62103937D01*
X72203937Y-61959774D01*
X72317205Y-61790256D01*
X72395226Y-61601898D01*
X72395989Y-61598061D01*
X73195000Y-61598061D01*
X73195000Y-61801939D01*
X73234774Y-62001898D01*
X73312795Y-62190256D01*
X73426063Y-62359774D01*
X73570226Y-62503937D01*
X73739744Y-62617205D01*
X73928102Y-62695226D01*
X74128061Y-62735000D01*
X74331939Y-62735000D01*
X74531898Y-62695226D01*
X74720256Y-62617205D01*
X74889774Y-62503937D01*
X75033937Y-62359774D01*
X75147205Y-62190256D01*
X75225226Y-62001898D01*
X75265000Y-61801939D01*
X75265000Y-61598061D01*
X75225226Y-61398102D01*
X75147205Y-61209744D01*
X75033937Y-61040226D01*
X74889774Y-60896063D01*
X74720256Y-60782795D01*
X74531898Y-60704774D01*
X74331939Y-60665000D01*
X74128061Y-60665000D01*
X73928102Y-60704774D01*
X73739744Y-60782795D01*
X73570226Y-60896063D01*
X73426063Y-61040226D01*
X73312795Y-61209744D01*
X73234774Y-61398102D01*
X73195000Y-61598061D01*
X72395989Y-61598061D01*
X72435000Y-61401939D01*
X72435000Y-61198061D01*
X72395226Y-60998102D01*
X72317205Y-60809744D01*
X72203937Y-60640226D01*
X72059774Y-60496063D01*
X71890256Y-60382795D01*
X71701898Y-60304774D01*
X71501939Y-60265000D01*
X71298061Y-60265000D01*
X71098102Y-60304774D01*
X70909744Y-60382795D01*
X70740226Y-60496063D01*
X70596063Y-60640226D01*
X70482795Y-60809744D01*
X70404774Y-60998102D01*
X70365000Y-61198061D01*
X70365000Y-61224843D01*
X69834843Y-61755000D01*
X53801474Y-61755000D01*
X53693475Y-61593368D01*
X53486632Y-61386525D01*
X53310594Y-61268900D01*
X53540269Y-61097588D01*
X53735178Y-60881355D01*
X53884157Y-60631252D01*
X53981481Y-60356891D01*
X53860814Y-60127000D01*
X52667000Y-60127000D01*
X52667000Y-60147000D01*
X52413000Y-60147000D01*
X52413000Y-60127000D01*
X52393000Y-60127000D01*
X52393000Y-59873000D01*
X52413000Y-59873000D01*
X52413000Y-58679845D01*
X52667000Y-58679845D01*
X52667000Y-59873000D01*
X53860814Y-59873000D01*
X53981481Y-59643109D01*
X53884157Y-59368748D01*
X53735178Y-59118645D01*
X53540269Y-58902412D01*
X53306920Y-58728359D01*
X53044099Y-58603175D01*
X52896890Y-58558524D01*
X52667000Y-58679845D01*
X52413000Y-58679845D01*
X52183110Y-58558524D01*
X52035901Y-58603175D01*
X51773080Y-58728359D01*
X51539731Y-58902412D01*
X51463966Y-58986466D01*
X51439502Y-58905820D01*
X51380537Y-58795506D01*
X51301185Y-58698815D01*
X51204494Y-58619463D01*
X51094180Y-58560498D01*
X50974482Y-58524188D01*
X50850000Y-58511928D01*
X49150000Y-58511928D01*
X49025518Y-58524188D01*
X48905820Y-58560498D01*
X48795506Y-58619463D01*
X48698815Y-58698815D01*
X48619463Y-58795506D01*
X48560498Y-58905820D01*
X48524188Y-59025518D01*
X48511928Y-59150000D01*
X45710000Y-59150000D01*
X45710000Y-56198061D01*
X69265000Y-56198061D01*
X69265000Y-56401939D01*
X69304774Y-56601898D01*
X69382795Y-56790256D01*
X69496063Y-56959774D01*
X69640226Y-57103937D01*
X69809744Y-57217205D01*
X69998102Y-57295226D01*
X70198061Y-57335000D01*
X70401939Y-57335000D01*
X70601898Y-57295226D01*
X70790256Y-57217205D01*
X70959774Y-57103937D01*
X71103937Y-56959774D01*
X71217205Y-56790256D01*
X71295226Y-56601898D01*
X71335000Y-56401939D01*
X71335000Y-56198061D01*
X72545000Y-56198061D01*
X72545000Y-56401939D01*
X72584774Y-56601898D01*
X72662795Y-56790256D01*
X72776063Y-56959774D01*
X72920226Y-57103937D01*
X73089744Y-57217205D01*
X73278102Y-57295226D01*
X73478061Y-57335000D01*
X73504843Y-57335000D01*
X75107653Y-58937810D01*
X75132236Y-58967764D01*
X75251767Y-59065862D01*
X75388140Y-59138754D01*
X75536113Y-59183642D01*
X75611026Y-59191020D01*
X75651439Y-59195000D01*
X75651444Y-59195000D01*
X75690000Y-59198797D01*
X75728556Y-59195000D01*
X81944845Y-59195000D01*
X83508360Y-60758515D01*
X83449744Y-60782795D01*
X83280226Y-60896063D01*
X83136063Y-61040226D01*
X83022795Y-61209744D01*
X82944774Y-61398102D01*
X82905000Y-61598061D01*
X82905000Y-61624842D01*
X80454310Y-64075533D01*
X80424356Y-64100116D01*
X80326258Y-64219648D01*
X80253366Y-64356021D01*
X80208479Y-64503994D01*
X80197120Y-64619320D01*
X80197120Y-64619327D01*
X80193323Y-64657880D01*
X80197120Y-64696433D01*
X80197120Y-64809320D01*
X80197121Y-68121288D01*
X80178183Y-68140226D01*
X80064915Y-68309744D01*
X79986894Y-68498102D01*
X79947120Y-68698061D01*
X79947120Y-68901939D01*
X79980647Y-69070490D01*
X79535000Y-68624843D01*
X79535000Y-68538711D01*
X79553937Y-68519774D01*
X79667205Y-68350256D01*
X79745226Y-68161898D01*
X79785000Y-67961939D01*
X79785000Y-67758061D01*
X79745226Y-67558102D01*
X79667205Y-67369744D01*
X79553937Y-67200226D01*
X79409774Y-67056063D01*
X79240256Y-66942795D01*
X79051898Y-66864774D01*
X78851939Y-66825000D01*
X78648061Y-66825000D01*
X78448102Y-66864774D01*
X78259744Y-66942795D01*
X78090226Y-67056063D01*
X77946063Y-67200226D01*
X77832795Y-67369744D01*
X77754774Y-67558102D01*
X77715000Y-67758061D01*
X77715000Y-67961939D01*
X77754774Y-68161898D01*
X77832795Y-68350256D01*
X77946063Y-68519774D01*
X77965001Y-68538712D01*
X77965001Y-68911438D01*
X77961203Y-68950000D01*
X77976359Y-69103886D01*
X78021246Y-69251859D01*
X78021247Y-69251860D01*
X78094139Y-69388233D01*
X78123199Y-69423642D01*
X78167655Y-69477812D01*
X78167659Y-69477816D01*
X78192237Y-69507764D01*
X78222185Y-69532342D01*
X91865001Y-83175158D01*
X91865000Y-85954842D01*
X86782347Y-80872190D01*
X86757764Y-80842236D01*
X86638233Y-80744138D01*
X86501860Y-80671246D01*
X86353887Y-80626359D01*
X86238561Y-80615000D01*
X86238553Y-80615000D01*
X86200000Y-80611203D01*
X86161447Y-80615000D01*
X79055158Y-80615000D01*
X77825000Y-79384843D01*
X77825000Y-79358061D01*
X77785226Y-79158102D01*
X77707205Y-78969744D01*
X77593937Y-78800226D01*
X77449774Y-78656063D01*
X77280256Y-78542795D01*
X77091898Y-78464774D01*
X76891939Y-78425000D01*
X76688061Y-78425000D01*
X76488102Y-78464774D01*
X76299744Y-78542795D01*
X76130226Y-78656063D01*
X75986063Y-78800226D01*
X75872795Y-78969744D01*
X75794774Y-79158102D01*
X75759306Y-79336411D01*
X75701939Y-79325000D01*
X75498061Y-79325000D01*
X75298102Y-79364774D01*
X75109744Y-79442795D01*
X74940226Y-79556063D01*
X74796063Y-79700226D01*
X74682795Y-79869744D01*
X74604774Y-80058102D01*
X74565000Y-80258061D01*
X74565000Y-80461939D01*
X74604774Y-80661898D01*
X74682795Y-80850256D01*
X74796063Y-81019774D01*
X74940226Y-81163937D01*
X75109744Y-81277205D01*
X75298102Y-81355226D01*
X75498061Y-81395000D01*
X75701939Y-81395000D01*
X75901898Y-81355226D01*
X76090256Y-81277205D01*
X76259774Y-81163937D01*
X76403937Y-81019774D01*
X76517205Y-80850256D01*
X76595226Y-80661898D01*
X76630694Y-80483589D01*
X76688061Y-80495000D01*
X76714843Y-80495000D01*
X78147658Y-81927816D01*
X78172236Y-81957764D01*
X78202184Y-81982342D01*
X78202187Y-81982345D01*
X78229517Y-82004774D01*
X78291767Y-82055862D01*
X78428140Y-82128754D01*
X78541672Y-82163194D01*
X78576112Y-82173641D01*
X78590490Y-82175057D01*
X78691439Y-82185000D01*
X78691446Y-82185000D01*
X78729999Y-82188797D01*
X78768552Y-82185000D01*
X85874843Y-82185000D01*
X90595001Y-86905159D01*
X90595000Y-88321289D01*
X90576063Y-88340226D01*
X90462795Y-88509744D01*
X90384774Y-88698102D01*
X90345000Y-88898061D01*
X90345000Y-89101939D01*
X90384774Y-89301898D01*
X90462795Y-89490256D01*
X90576063Y-89659774D01*
X90720226Y-89803937D01*
X90889744Y-89917205D01*
X91078102Y-89995226D01*
X91278061Y-90035000D01*
X91481939Y-90035000D01*
X91681898Y-89995226D01*
X91870256Y-89917205D01*
X92015000Y-89820490D01*
X92159744Y-89917205D01*
X92348102Y-89995226D01*
X92548061Y-90035000D01*
X92751939Y-90035000D01*
X92951898Y-89995226D01*
X93140256Y-89917205D01*
X93309774Y-89803937D01*
X93453937Y-89659774D01*
X93567205Y-89490256D01*
X93645226Y-89301898D01*
X93685000Y-89101939D01*
X93685000Y-88898061D01*
X93645226Y-88698102D01*
X93567205Y-88509744D01*
X93453937Y-88340226D01*
X93435000Y-88321289D01*
X93435000Y-82898061D01*
X94965000Y-82898061D01*
X94965000Y-83101939D01*
X95004774Y-83301898D01*
X95082795Y-83490256D01*
X95089306Y-83500000D01*
X95082795Y-83509744D01*
X95004774Y-83698102D01*
X94965000Y-83898061D01*
X94965000Y-84101939D01*
X95004774Y-84301898D01*
X95082795Y-84490256D01*
X95196063Y-84659774D01*
X95340226Y-84803937D01*
X95509744Y-84917205D01*
X95698102Y-84995226D01*
X95898061Y-85035000D01*
X96101939Y-85035000D01*
X96301898Y-84995226D01*
X96490256Y-84917205D01*
X96659774Y-84803937D01*
X96678711Y-84785000D01*
X98467723Y-84785000D01*
X98710529Y-85027805D01*
X98735116Y-85057764D01*
X98854647Y-85155862D01*
X98991020Y-85228754D01*
X99138993Y-85273642D01*
X99213906Y-85281020D01*
X99254319Y-85285000D01*
X99254324Y-85285000D01*
X99292880Y-85288797D01*
X99331436Y-85285000D01*
X104134843Y-85285000D01*
X106635001Y-87785158D01*
X106635000Y-88321289D01*
X106616063Y-88340226D01*
X106502795Y-88509744D01*
X106424774Y-88698102D01*
X106385000Y-88898061D01*
X106385000Y-89101939D01*
X106424774Y-89301898D01*
X106502795Y-89490256D01*
X106616063Y-89659774D01*
X106760226Y-89803937D01*
X106929744Y-89917205D01*
X107118102Y-89995226D01*
X107318061Y-90035000D01*
X107521939Y-90035000D01*
X107721898Y-89995226D01*
X107910256Y-89917205D01*
X108040000Y-89830513D01*
X108169744Y-89917205D01*
X108358102Y-89995226D01*
X108558061Y-90035000D01*
X108761939Y-90035000D01*
X108961898Y-89995226D01*
X109150256Y-89917205D01*
X109319774Y-89803937D01*
X109463937Y-89659774D01*
X109577205Y-89490256D01*
X109655226Y-89301898D01*
X109695000Y-89101939D01*
X109695000Y-88898061D01*
X109655226Y-88698102D01*
X109577205Y-88509744D01*
X109463937Y-88340226D01*
X109445000Y-88321289D01*
X109445000Y-87078556D01*
X109448797Y-87040000D01*
X109445000Y-87001444D01*
X109445000Y-87001439D01*
X109441020Y-86961026D01*
X109433642Y-86886113D01*
X109388754Y-86738140D01*
X109362357Y-86688754D01*
X109315862Y-86601767D01*
X109217764Y-86482236D01*
X109187810Y-86457653D01*
X107192350Y-84462193D01*
X107192345Y-84462187D01*
X106884044Y-84153886D01*
X106202345Y-83472188D01*
X106177764Y-83442236D01*
X106058233Y-83344138D01*
X105921860Y-83271246D01*
X105773887Y-83226359D01*
X105658561Y-83215000D01*
X105658553Y-83215000D01*
X105620000Y-83211203D01*
X105581447Y-83215000D01*
X99825157Y-83215000D01*
X99082347Y-82472190D01*
X99057764Y-82442236D01*
X98938233Y-82344138D01*
X98801860Y-82271246D01*
X98653887Y-82226359D01*
X98538561Y-82215000D01*
X98538553Y-82215000D01*
X98500000Y-82211203D01*
X98461447Y-82215000D01*
X96678711Y-82215000D01*
X96659774Y-82196063D01*
X96490256Y-82082795D01*
X96301898Y-82004774D01*
X96101939Y-81965000D01*
X95898061Y-81965000D01*
X95698102Y-82004774D01*
X95509744Y-82082795D01*
X95340226Y-82196063D01*
X95196063Y-82340226D01*
X95082795Y-82509744D01*
X95004774Y-82698102D01*
X94965000Y-82898061D01*
X93435000Y-82898061D01*
X93435000Y-82888556D01*
X93438797Y-82850000D01*
X93435000Y-82811444D01*
X93435000Y-82811439D01*
X93429943Y-82760095D01*
X93423642Y-82696113D01*
X93378754Y-82548140D01*
X93358231Y-82509744D01*
X93305862Y-82411767D01*
X93207764Y-82292236D01*
X93177810Y-82267653D01*
X80711630Y-69801473D01*
X80880181Y-69835000D01*
X81084059Y-69835000D01*
X81284018Y-69795226D01*
X81472376Y-69717205D01*
X81641894Y-69603937D01*
X81786057Y-69459774D01*
X81899325Y-69290256D01*
X81977346Y-69101898D01*
X82017120Y-68901939D01*
X82017120Y-68698061D01*
X81977346Y-68498102D01*
X81899325Y-68309744D01*
X81786057Y-68140226D01*
X81767120Y-68121289D01*
X81767120Y-64983037D01*
X81952096Y-64798061D01*
X83165000Y-64798061D01*
X83165000Y-65001939D01*
X83204774Y-65201898D01*
X83282795Y-65390256D01*
X83396063Y-65559774D01*
X83540226Y-65703937D01*
X83709744Y-65817205D01*
X83898102Y-65895226D01*
X84098061Y-65935000D01*
X84301939Y-65935000D01*
X84501898Y-65895226D01*
X84690256Y-65817205D01*
X84859774Y-65703937D01*
X85003937Y-65559774D01*
X85117205Y-65390256D01*
X85195226Y-65201898D01*
X85235000Y-65001939D01*
X85235000Y-64798061D01*
X85195226Y-64598102D01*
X85117205Y-64409744D01*
X85003937Y-64240226D01*
X84859774Y-64096063D01*
X84690256Y-63982795D01*
X84501898Y-63904774D01*
X84301939Y-63865000D01*
X84098061Y-63865000D01*
X83898102Y-63904774D01*
X83709744Y-63982795D01*
X83540226Y-64096063D01*
X83396063Y-64240226D01*
X83282795Y-64409744D01*
X83204774Y-64598102D01*
X83165000Y-64798061D01*
X81952096Y-64798061D01*
X84015158Y-62735000D01*
X84041939Y-62735000D01*
X84241898Y-62695226D01*
X84430256Y-62617205D01*
X84599774Y-62503937D01*
X84743937Y-62359774D01*
X84857205Y-62190256D01*
X84881485Y-62131640D01*
X85885001Y-63135156D01*
X85885000Y-71021289D01*
X85866063Y-71040226D01*
X85752795Y-71209744D01*
X85674774Y-71398102D01*
X85635000Y-71598061D01*
X85635000Y-71801939D01*
X85674774Y-72001898D01*
X85752795Y-72190256D01*
X85866063Y-72359774D01*
X86010226Y-72503937D01*
X86179744Y-72617205D01*
X86368102Y-72695226D01*
X86568061Y-72735000D01*
X86771939Y-72735000D01*
X86971898Y-72695226D01*
X87160256Y-72617205D01*
X87329774Y-72503937D01*
X87473937Y-72359774D01*
X87583206Y-72196241D01*
X87778061Y-72235000D01*
X87981939Y-72235000D01*
X88181898Y-72195226D01*
X88370256Y-72117205D01*
X88539774Y-72003937D01*
X88683937Y-71859774D01*
X88797205Y-71690256D01*
X88875226Y-71501898D01*
X88915000Y-71301939D01*
X88915000Y-71098061D01*
X88875226Y-70898102D01*
X88797205Y-70709744D01*
X88683937Y-70540226D01*
X88665000Y-70521289D01*
X88665000Y-62978555D01*
X88668797Y-62940000D01*
X88665000Y-62901440D01*
X88665000Y-62901439D01*
X88658599Y-62836449D01*
X88653642Y-62786113D01*
X88608754Y-62638140D01*
X88597564Y-62617205D01*
X88535862Y-62501767D01*
X88437764Y-62382236D01*
X88407817Y-62357659D01*
X82862347Y-56812190D01*
X82837764Y-56782236D01*
X82718233Y-56684138D01*
X82581860Y-56611246D01*
X82433887Y-56566359D01*
X82318561Y-56555000D01*
X82318553Y-56555000D01*
X82280000Y-56551203D01*
X82241447Y-56555000D01*
X80704555Y-56555000D01*
X80735000Y-56401939D01*
X80735000Y-56198061D01*
X80695226Y-55998102D01*
X80617205Y-55809744D01*
X80503937Y-55640226D01*
X80359774Y-55496063D01*
X80190256Y-55382795D01*
X80001898Y-55304774D01*
X79801939Y-55265000D01*
X79598061Y-55265000D01*
X79398102Y-55304774D01*
X79209744Y-55382795D01*
X79040226Y-55496063D01*
X78896063Y-55640226D01*
X78782795Y-55809744D01*
X78704774Y-55998102D01*
X78665000Y-56198061D01*
X78665000Y-56401939D01*
X78695445Y-56555000D01*
X78178711Y-56555000D01*
X78159774Y-56536063D01*
X77990256Y-56422795D01*
X77801898Y-56344774D01*
X77601939Y-56305000D01*
X77398061Y-56305000D01*
X77198102Y-56344774D01*
X77009744Y-56422795D01*
X76840226Y-56536063D01*
X76696063Y-56680226D01*
X76582795Y-56849744D01*
X76504774Y-57038102D01*
X76465000Y-57238061D01*
X76465000Y-57441939D01*
X76501413Y-57625000D01*
X76015157Y-57625000D01*
X74615000Y-56224843D01*
X74615000Y-56198061D01*
X74575226Y-55998102D01*
X74497205Y-55809744D01*
X74383937Y-55640226D01*
X74239774Y-55496063D01*
X74070256Y-55382795D01*
X73881898Y-55304774D01*
X73681939Y-55265000D01*
X73478061Y-55265000D01*
X73278102Y-55304774D01*
X73089744Y-55382795D01*
X72920226Y-55496063D01*
X72776063Y-55640226D01*
X72662795Y-55809744D01*
X72584774Y-55998102D01*
X72545000Y-56198061D01*
X71335000Y-56198061D01*
X71295226Y-55998102D01*
X71217205Y-55809744D01*
X71103937Y-55640226D01*
X70959774Y-55496063D01*
X70790256Y-55382795D01*
X70601898Y-55304774D01*
X70401939Y-55265000D01*
X70198061Y-55265000D01*
X69998102Y-55304774D01*
X69809744Y-55382795D01*
X69640226Y-55496063D01*
X69496063Y-55640226D01*
X69382795Y-55809744D01*
X69304774Y-55998102D01*
X69265000Y-56198061D01*
X45710000Y-56198061D01*
X45710000Y-53482818D01*
X46696787Y-53482818D01*
X47188946Y-54085149D01*
X48039933Y-54555063D01*
X48966243Y-54849929D01*
X49932281Y-54958414D01*
X50900921Y-54876351D01*
X51834938Y-54606893D01*
X52698440Y-54160394D01*
X52811054Y-54085149D01*
X53303213Y-53482818D01*
X50000000Y-50179605D01*
X46696787Y-53482818D01*
X45710000Y-53482818D01*
X45710000Y-52447790D01*
X45839606Y-52698440D01*
X45914851Y-52811054D01*
X46517182Y-53303213D01*
X49820395Y-50000000D01*
X50179605Y-50000000D01*
X53482818Y-53303213D01*
X54085149Y-52811054D01*
X54555063Y-51960067D01*
X54849929Y-51033757D01*
X54958414Y-50067719D01*
X54942248Y-49876890D01*
X55250048Y-49876890D01*
X55250048Y-50123110D01*
X55298083Y-50364598D01*
X55392307Y-50592074D01*
X55529099Y-50796798D01*
X55703202Y-50970901D01*
X55907926Y-51107693D01*
X56135402Y-51201917D01*
X56376890Y-51249952D01*
X56623110Y-51249952D01*
X56864598Y-51201917D01*
X57092074Y-51107693D01*
X57296798Y-50970901D01*
X57470901Y-50796798D01*
X57607693Y-50592074D01*
X57701917Y-50364598D01*
X57749952Y-50123110D01*
X57749952Y-49876890D01*
X57701917Y-49635402D01*
X57607693Y-49407926D01*
X57470901Y-49203202D01*
X57296798Y-49029099D01*
X57092074Y-48892307D01*
X56864598Y-48798083D01*
X56623110Y-48750048D01*
X56376890Y-48750048D01*
X56135402Y-48798083D01*
X55907926Y-48892307D01*
X55703202Y-49029099D01*
X55529099Y-49203202D01*
X55392307Y-49407926D01*
X55298083Y-49635402D01*
X55250048Y-49876890D01*
X54942248Y-49876890D01*
X54876351Y-49099079D01*
X54732370Y-48600000D01*
X65321928Y-48600000D01*
X65321928Y-51600000D01*
X65334188Y-51724482D01*
X65370498Y-51844180D01*
X65429463Y-51954494D01*
X65508815Y-52051185D01*
X65605506Y-52130537D01*
X65715820Y-52189502D01*
X65835518Y-52225812D01*
X65960000Y-52238072D01*
X68960000Y-52238072D01*
X69084482Y-52225812D01*
X69204180Y-52189502D01*
X69314494Y-52130537D01*
X69411185Y-52051185D01*
X69490537Y-51954494D01*
X69549502Y-51844180D01*
X69585812Y-51724482D01*
X69598072Y-51600000D01*
X69598072Y-49889721D01*
X70405000Y-49889721D01*
X70405000Y-50310279D01*
X70487047Y-50722756D01*
X70647988Y-51111302D01*
X70881637Y-51460983D01*
X71179017Y-51758363D01*
X71528698Y-51992012D01*
X71917244Y-52152953D01*
X72329721Y-52235000D01*
X72750279Y-52235000D01*
X73162756Y-52152953D01*
X73551302Y-51992012D01*
X73900983Y-51758363D01*
X74198363Y-51460983D01*
X74432012Y-51111302D01*
X74592953Y-50722756D01*
X74675000Y-50310279D01*
X74675000Y-49889721D01*
X74592953Y-49477244D01*
X74432012Y-49088698D01*
X74198363Y-48739017D01*
X74059346Y-48600000D01*
X75421928Y-48600000D01*
X75421928Y-51600000D01*
X75434188Y-51724482D01*
X75470498Y-51844180D01*
X75529463Y-51954494D01*
X75608815Y-52051185D01*
X75705506Y-52130537D01*
X75815820Y-52189502D01*
X75935518Y-52225812D01*
X76060000Y-52238072D01*
X79060000Y-52238072D01*
X79184482Y-52225812D01*
X79304180Y-52189502D01*
X79414494Y-52130537D01*
X79511185Y-52051185D01*
X79590537Y-51954494D01*
X79649502Y-51844180D01*
X79685812Y-51724482D01*
X79698072Y-51600000D01*
X79698072Y-51591653D01*
X81327952Y-51591653D01*
X81483962Y-51907214D01*
X81858745Y-52098020D01*
X82263551Y-52212044D01*
X82682824Y-52244902D01*
X83100451Y-52195334D01*
X83500383Y-52065243D01*
X83796038Y-51907214D01*
X83952048Y-51591653D01*
X82640000Y-50279605D01*
X81327952Y-51591653D01*
X79698072Y-51591653D01*
X79698072Y-50142824D01*
X80495098Y-50142824D01*
X80544666Y-50560451D01*
X80674757Y-50960383D01*
X80832786Y-51256038D01*
X81148347Y-51412048D01*
X82460395Y-50100000D01*
X82819605Y-50100000D01*
X84131653Y-51412048D01*
X84447214Y-51256038D01*
X84638020Y-50881255D01*
X84752044Y-50476449D01*
X84784902Y-50057176D01*
X84735334Y-49639549D01*
X84605243Y-49239617D01*
X84447214Y-48943962D01*
X84131653Y-48787952D01*
X82819605Y-50100000D01*
X82460395Y-50100000D01*
X81148347Y-48787952D01*
X80832786Y-48943962D01*
X80641980Y-49318745D01*
X80527956Y-49723551D01*
X80495098Y-50142824D01*
X79698072Y-50142824D01*
X79698072Y-48608347D01*
X81327952Y-48608347D01*
X82640000Y-49920395D01*
X83952048Y-48608347D01*
X83947922Y-48600000D01*
X85611928Y-48600000D01*
X85611928Y-51600000D01*
X85624188Y-51724482D01*
X85660498Y-51844180D01*
X85719463Y-51954494D01*
X85798815Y-52051185D01*
X85895506Y-52130537D01*
X86005820Y-52189502D01*
X86125518Y-52225812D01*
X86250000Y-52238072D01*
X88777915Y-52238072D01*
X91305000Y-54765158D01*
X91304999Y-74749197D01*
X91199744Y-74792795D01*
X91030226Y-74906063D01*
X90886063Y-75050226D01*
X90772795Y-75219744D01*
X90694774Y-75408102D01*
X90655000Y-75608061D01*
X90655000Y-75811939D01*
X90694774Y-76011898D01*
X90772795Y-76200256D01*
X90886063Y-76369774D01*
X91030226Y-76513937D01*
X91199744Y-76627205D01*
X91388102Y-76705226D01*
X91588061Y-76745000D01*
X91791939Y-76745000D01*
X91991898Y-76705226D01*
X92180256Y-76627205D01*
X92349774Y-76513937D01*
X92493937Y-76369774D01*
X92607205Y-76200256D01*
X92685226Y-76011898D01*
X92725000Y-75811939D01*
X92725000Y-75773653D01*
X92745861Y-75748234D01*
X92818753Y-75611861D01*
X92863640Y-75463888D01*
X92874999Y-75348562D01*
X92874999Y-75348555D01*
X92878796Y-75310002D01*
X92874999Y-75271449D01*
X92874999Y-75098061D01*
X93965000Y-75098061D01*
X93965000Y-75301939D01*
X94004774Y-75501898D01*
X94082795Y-75690256D01*
X94196063Y-75859774D01*
X94340226Y-76003937D01*
X94509744Y-76117205D01*
X94698102Y-76195226D01*
X94898061Y-76235000D01*
X95101939Y-76235000D01*
X95301898Y-76195226D01*
X95490256Y-76117205D01*
X95659774Y-76003937D01*
X95803937Y-75859774D01*
X95917205Y-75690256D01*
X95995226Y-75501898D01*
X96035000Y-75301939D01*
X96035000Y-75098061D01*
X95995226Y-74898102D01*
X95917205Y-74709744D01*
X95803937Y-74540226D01*
X95708711Y-74445000D01*
X99421928Y-74445000D01*
X99425000Y-75634250D01*
X99583750Y-75793000D01*
X100060094Y-75793000D01*
X100055064Y-75885459D01*
X100089605Y-75920000D01*
X100055064Y-75954541D01*
X100060094Y-76047000D01*
X99583750Y-76047000D01*
X99425000Y-76205750D01*
X99421928Y-77395000D01*
X99434188Y-77519482D01*
X99470498Y-77639180D01*
X99529463Y-77749494D01*
X99608815Y-77846185D01*
X99705506Y-77925537D01*
X99815820Y-77984502D01*
X99935518Y-78020812D01*
X100060000Y-78033072D01*
X102024250Y-78030000D01*
X102183000Y-77871250D01*
X102183000Y-76969906D01*
X102242762Y-76973157D01*
X102244541Y-76974936D01*
X102260000Y-76974095D01*
X102275459Y-76974936D01*
X102277238Y-76973157D01*
X102437000Y-76964467D01*
X102437000Y-77871250D01*
X102595750Y-78030000D01*
X104560000Y-78033072D01*
X104684482Y-78020812D01*
X104804180Y-77984502D01*
X104914494Y-77925537D01*
X105011185Y-77846185D01*
X105090537Y-77749494D01*
X105149502Y-77639180D01*
X105185812Y-77519482D01*
X105198072Y-77395000D01*
X105195000Y-76205750D01*
X105036250Y-76047000D01*
X104559906Y-76047000D01*
X104564936Y-75954541D01*
X104530395Y-75920000D01*
X104564936Y-75885459D01*
X104559906Y-75793000D01*
X105036250Y-75793000D01*
X105195000Y-75634250D01*
X105198072Y-74445000D01*
X105185812Y-74320518D01*
X105149502Y-74200820D01*
X105090537Y-74090506D01*
X105011185Y-73993815D01*
X104914494Y-73914463D01*
X104804180Y-73855498D01*
X104684482Y-73819188D01*
X104560000Y-73806928D01*
X102595750Y-73810000D01*
X102437000Y-73968750D01*
X102437000Y-74875533D01*
X102277238Y-74866843D01*
X102275459Y-74865064D01*
X102260000Y-74865905D01*
X102244541Y-74865064D01*
X102242762Y-74866843D01*
X102183000Y-74870094D01*
X102183000Y-73968750D01*
X102024250Y-73810000D01*
X100060000Y-73806928D01*
X99935518Y-73819188D01*
X99815820Y-73855498D01*
X99705506Y-73914463D01*
X99608815Y-73993815D01*
X99529463Y-74090506D01*
X99470498Y-74200820D01*
X99434188Y-74320518D01*
X99421928Y-74445000D01*
X95708711Y-74445000D01*
X95659774Y-74396063D01*
X95490256Y-74282795D01*
X95301898Y-74204774D01*
X95101939Y-74165000D01*
X94898061Y-74165000D01*
X94698102Y-74204774D01*
X94509744Y-74282795D01*
X94340226Y-74396063D01*
X94196063Y-74540226D01*
X94082795Y-74709744D01*
X94004774Y-74898102D01*
X93965000Y-75098061D01*
X92874999Y-75098061D01*
X92874999Y-74293989D01*
X92909744Y-74317205D01*
X93098102Y-74395226D01*
X93298061Y-74435000D01*
X93501939Y-74435000D01*
X93701898Y-74395226D01*
X93890256Y-74317205D01*
X94059774Y-74203937D01*
X94203937Y-74059774D01*
X94317205Y-73890256D01*
X94395226Y-73701898D01*
X94435000Y-73501939D01*
X94435000Y-73298061D01*
X94395226Y-73098102D01*
X94317205Y-72909744D01*
X94203937Y-72740226D01*
X94185000Y-72721289D01*
X94185000Y-71930759D01*
X94282376Y-71995824D01*
X94488933Y-72081383D01*
X94708212Y-72125000D01*
X94931788Y-72125000D01*
X95151067Y-72081383D01*
X95357624Y-71995824D01*
X95543520Y-71871612D01*
X95701612Y-71713520D01*
X95825824Y-71527624D01*
X95911383Y-71321067D01*
X95955000Y-71101788D01*
X95955000Y-70878212D01*
X95911383Y-70658933D01*
X95825824Y-70452376D01*
X95739077Y-70322551D01*
X95795824Y-70237624D01*
X95875000Y-70046477D01*
X95954176Y-70237624D01*
X96078388Y-70423520D01*
X96236480Y-70581612D01*
X96422376Y-70705824D01*
X96628933Y-70791383D01*
X96848212Y-70835000D01*
X97071788Y-70835000D01*
X97291067Y-70791383D01*
X97497624Y-70705824D01*
X97655000Y-70600668D01*
X97812376Y-70705824D01*
X98018933Y-70791383D01*
X98238212Y-70835000D01*
X98461788Y-70835000D01*
X98681067Y-70791383D01*
X98887624Y-70705824D01*
X99073520Y-70581612D01*
X99231612Y-70423520D01*
X99355824Y-70237624D01*
X99441383Y-70031067D01*
X99485000Y-69811788D01*
X99485000Y-69588212D01*
X99441383Y-69368933D01*
X99355824Y-69162376D01*
X99231612Y-68976480D01*
X99073520Y-68818388D01*
X98887624Y-68694176D01*
X98681067Y-68608617D01*
X98461788Y-68565000D01*
X98238212Y-68565000D01*
X98018933Y-68608617D01*
X97812376Y-68694176D01*
X97655000Y-68799332D01*
X97497624Y-68694176D01*
X97291067Y-68608617D01*
X97071788Y-68565000D01*
X96848212Y-68565000D01*
X96628933Y-68608617D01*
X96422376Y-68694176D01*
X96236480Y-68818388D01*
X96078388Y-68976480D01*
X95954176Y-69162376D01*
X95875000Y-69353523D01*
X95795824Y-69162376D01*
X95671612Y-68976480D01*
X95513520Y-68818388D01*
X95327624Y-68694176D01*
X95121067Y-68608617D01*
X94901788Y-68565000D01*
X94678212Y-68565000D01*
X94458933Y-68608617D01*
X94252376Y-68694176D01*
X94185000Y-68739195D01*
X94185000Y-65198061D01*
X98095000Y-65198061D01*
X98095000Y-65401939D01*
X98134774Y-65601898D01*
X98212795Y-65790256D01*
X98326063Y-65959774D01*
X98470226Y-66103937D01*
X98639744Y-66217205D01*
X98828102Y-66295226D01*
X99028061Y-66335000D01*
X99231939Y-66335000D01*
X99431898Y-66295226D01*
X99620256Y-66217205D01*
X99789774Y-66103937D01*
X99853711Y-66040000D01*
X117961928Y-66040000D01*
X117961928Y-69040000D01*
X117974188Y-69164482D01*
X118010498Y-69284180D01*
X118069463Y-69394494D01*
X118148815Y-69491185D01*
X118245506Y-69570537D01*
X118355820Y-69629502D01*
X118475518Y-69665812D01*
X118600000Y-69678072D01*
X121600000Y-69678072D01*
X121724482Y-69665812D01*
X121844180Y-69629502D01*
X121954494Y-69570537D01*
X122051185Y-69491185D01*
X122130537Y-69394494D01*
X122189502Y-69284180D01*
X122225812Y-69164482D01*
X122238072Y-69040000D01*
X122238072Y-66040000D01*
X122225812Y-65915518D01*
X122189502Y-65795820D01*
X122130537Y-65685506D01*
X122051185Y-65588815D01*
X121954494Y-65509463D01*
X121844180Y-65450498D01*
X121724482Y-65414188D01*
X121600000Y-65401928D01*
X118600000Y-65401928D01*
X118475518Y-65414188D01*
X118355820Y-65450498D01*
X118245506Y-65509463D01*
X118148815Y-65588815D01*
X118069463Y-65685506D01*
X118010498Y-65795820D01*
X117974188Y-65915518D01*
X117961928Y-66040000D01*
X99853711Y-66040000D01*
X99933937Y-65959774D01*
X100047205Y-65790256D01*
X100125226Y-65601898D01*
X100165000Y-65401939D01*
X100165000Y-65198061D01*
X100125226Y-64998102D01*
X100047205Y-64809744D01*
X99933937Y-64640226D01*
X99789774Y-64496063D01*
X99620256Y-64382795D01*
X99431898Y-64304774D01*
X99231939Y-64265000D01*
X99028061Y-64265000D01*
X98828102Y-64304774D01*
X98639744Y-64382795D01*
X98470226Y-64496063D01*
X98326063Y-64640226D01*
X98212795Y-64809744D01*
X98134774Y-64998102D01*
X98095000Y-65198061D01*
X94185000Y-65198061D01*
X94185000Y-63951653D01*
X118787952Y-63951653D01*
X118943962Y-64267214D01*
X119318745Y-64458020D01*
X119723551Y-64572044D01*
X120142824Y-64604902D01*
X120560451Y-64555334D01*
X120960383Y-64425243D01*
X121256038Y-64267214D01*
X121412048Y-63951653D01*
X120100000Y-62639605D01*
X118787952Y-63951653D01*
X94185000Y-63951653D01*
X94185000Y-62502824D01*
X117955098Y-62502824D01*
X118004666Y-62920451D01*
X118134757Y-63320383D01*
X118292786Y-63616038D01*
X118608347Y-63772048D01*
X119920395Y-62460000D01*
X120279605Y-62460000D01*
X121591653Y-63772048D01*
X121907214Y-63616038D01*
X122098020Y-63241255D01*
X122212044Y-62836449D01*
X122244902Y-62417176D01*
X122195334Y-61999549D01*
X122065243Y-61599617D01*
X121907214Y-61303962D01*
X121591653Y-61147952D01*
X120279605Y-62460000D01*
X119920395Y-62460000D01*
X118608347Y-61147952D01*
X118292786Y-61303962D01*
X118101980Y-61678745D01*
X117987956Y-62083551D01*
X117955098Y-62502824D01*
X94185000Y-62502824D01*
X94185000Y-60968347D01*
X118787952Y-60968347D01*
X120100000Y-62280395D01*
X121412048Y-60968347D01*
X121256038Y-60652786D01*
X120881255Y-60461980D01*
X120476449Y-60347956D01*
X120057176Y-60315098D01*
X119639549Y-60364666D01*
X119239617Y-60494757D01*
X118943962Y-60652786D01*
X118787952Y-60968347D01*
X94185000Y-60968347D01*
X94185000Y-53482818D01*
X116696787Y-53482818D01*
X117188946Y-54085149D01*
X118039933Y-54555063D01*
X118966243Y-54849929D01*
X119932281Y-54958414D01*
X120900921Y-54876351D01*
X121834938Y-54606893D01*
X122698440Y-54160394D01*
X122811054Y-54085149D01*
X123303213Y-53482818D01*
X120000000Y-50179605D01*
X116696787Y-53482818D01*
X94185000Y-53482818D01*
X94185000Y-51762361D01*
X94190983Y-51758363D01*
X94488363Y-51460983D01*
X94722012Y-51111302D01*
X94882953Y-50722756D01*
X94965000Y-50310279D01*
X94965000Y-49889721D01*
X94916502Y-49645901D01*
X102415000Y-49645901D01*
X102415000Y-49894099D01*
X102463421Y-50137529D01*
X102558402Y-50366834D01*
X102696294Y-50573203D01*
X102871797Y-50748706D01*
X103078166Y-50886598D01*
X103307471Y-50981579D01*
X103550901Y-51030000D01*
X103799099Y-51030000D01*
X104042529Y-50981579D01*
X104271834Y-50886598D01*
X104478203Y-50748706D01*
X104653706Y-50573203D01*
X104791598Y-50366834D01*
X104886579Y-50137529D01*
X104935000Y-49894099D01*
X104935000Y-49645901D01*
X107265000Y-49645901D01*
X107265000Y-49894099D01*
X107313421Y-50137529D01*
X107408402Y-50366834D01*
X107546294Y-50573203D01*
X107721797Y-50748706D01*
X107928166Y-50886598D01*
X108157471Y-50981579D01*
X108400901Y-51030000D01*
X108649099Y-51030000D01*
X108892529Y-50981579D01*
X109121834Y-50886598D01*
X109328203Y-50748706D01*
X109503706Y-50573203D01*
X109641598Y-50366834D01*
X109736579Y-50137529D01*
X109785000Y-49894099D01*
X109785000Y-49876890D01*
X112750048Y-49876890D01*
X112750048Y-50123110D01*
X112798083Y-50364598D01*
X112892307Y-50592074D01*
X113029099Y-50796798D01*
X113203202Y-50970901D01*
X113407926Y-51107693D01*
X113635402Y-51201917D01*
X113876890Y-51249952D01*
X114123110Y-51249952D01*
X114364598Y-51201917D01*
X114592074Y-51107693D01*
X114796798Y-50970901D01*
X114970901Y-50796798D01*
X115098632Y-50605634D01*
X115123649Y-50900921D01*
X115393107Y-51834938D01*
X115839606Y-52698440D01*
X115914851Y-52811054D01*
X116517182Y-53303213D01*
X119820395Y-50000000D01*
X116517182Y-46696787D01*
X115914851Y-47188946D01*
X115444937Y-48039933D01*
X115150071Y-48966243D01*
X115101510Y-49398672D01*
X114970901Y-49203202D01*
X114796798Y-49029099D01*
X114592074Y-48892307D01*
X114364598Y-48798083D01*
X114123110Y-48750048D01*
X113876890Y-48750048D01*
X113635402Y-48798083D01*
X113407926Y-48892307D01*
X113203202Y-49029099D01*
X113029099Y-49203202D01*
X112892307Y-49407926D01*
X112798083Y-49635402D01*
X112750048Y-49876890D01*
X109785000Y-49876890D01*
X109785000Y-49645901D01*
X109736579Y-49402471D01*
X109641598Y-49173166D01*
X109503706Y-48966797D01*
X109328203Y-48791294D01*
X109121834Y-48653402D01*
X108892529Y-48558421D01*
X108649099Y-48510000D01*
X108400901Y-48510000D01*
X108157471Y-48558421D01*
X107928166Y-48653402D01*
X107721797Y-48791294D01*
X107546294Y-48966797D01*
X107408402Y-49173166D01*
X107313421Y-49402471D01*
X107265000Y-49645901D01*
X104935000Y-49645901D01*
X104886579Y-49402471D01*
X104791598Y-49173166D01*
X104653706Y-48966797D01*
X104478203Y-48791294D01*
X104271834Y-48653402D01*
X104042529Y-48558421D01*
X103799099Y-48510000D01*
X103550901Y-48510000D01*
X103307471Y-48558421D01*
X103078166Y-48653402D01*
X102871797Y-48791294D01*
X102696294Y-48966797D01*
X102558402Y-49173166D01*
X102463421Y-49402471D01*
X102415000Y-49645901D01*
X94916502Y-49645901D01*
X94882953Y-49477244D01*
X94722012Y-49088698D01*
X94488363Y-48739017D01*
X94190983Y-48441637D01*
X93841302Y-48207988D01*
X93452756Y-48047047D01*
X93040279Y-47965000D01*
X92619721Y-47965000D01*
X92207244Y-48047047D01*
X91818698Y-48207988D01*
X91469017Y-48441637D01*
X91171637Y-48739017D01*
X90937988Y-49088698D01*
X90777047Y-49477244D01*
X90695000Y-49889721D01*
X90695000Y-50310279D01*
X90777047Y-50722756D01*
X90937988Y-51111302D01*
X91171637Y-51460983D01*
X91469017Y-51758363D01*
X91818698Y-51992012D01*
X92207244Y-52152953D01*
X92615001Y-52234061D01*
X92615001Y-53854843D01*
X89888072Y-51127915D01*
X89888072Y-48600000D01*
X89875812Y-48475518D01*
X89839502Y-48355820D01*
X89780537Y-48245506D01*
X89701185Y-48148815D01*
X89604494Y-48069463D01*
X89494180Y-48010498D01*
X89374482Y-47974188D01*
X89250000Y-47961928D01*
X86250000Y-47961928D01*
X86125518Y-47974188D01*
X86005820Y-48010498D01*
X85895506Y-48069463D01*
X85798815Y-48148815D01*
X85719463Y-48245506D01*
X85660498Y-48355820D01*
X85624188Y-48475518D01*
X85611928Y-48600000D01*
X83947922Y-48600000D01*
X83796038Y-48292786D01*
X83421255Y-48101980D01*
X83016449Y-47987956D01*
X82597176Y-47955098D01*
X82179549Y-48004666D01*
X81779617Y-48134757D01*
X81483962Y-48292786D01*
X81327952Y-48608347D01*
X79698072Y-48608347D01*
X79698072Y-48600000D01*
X79685812Y-48475518D01*
X79649502Y-48355820D01*
X79590537Y-48245506D01*
X79511185Y-48148815D01*
X79414494Y-48069463D01*
X79304180Y-48010498D01*
X79184482Y-47974188D01*
X79060000Y-47961928D01*
X76060000Y-47961928D01*
X75935518Y-47974188D01*
X75815820Y-48010498D01*
X75705506Y-48069463D01*
X75608815Y-48148815D01*
X75529463Y-48245506D01*
X75470498Y-48355820D01*
X75434188Y-48475518D01*
X75421928Y-48600000D01*
X74059346Y-48600000D01*
X73900983Y-48441637D01*
X73551302Y-48207988D01*
X73162756Y-48047047D01*
X72750279Y-47965000D01*
X72329721Y-47965000D01*
X71917244Y-48047047D01*
X71528698Y-48207988D01*
X71179017Y-48441637D01*
X70881637Y-48739017D01*
X70647988Y-49088698D01*
X70487047Y-49477244D01*
X70405000Y-49889721D01*
X69598072Y-49889721D01*
X69598072Y-48600000D01*
X69585812Y-48475518D01*
X69549502Y-48355820D01*
X69490537Y-48245506D01*
X69411185Y-48148815D01*
X69314494Y-48069463D01*
X69204180Y-48010498D01*
X69084482Y-47974188D01*
X68960000Y-47961928D01*
X65960000Y-47961928D01*
X65835518Y-47974188D01*
X65715820Y-48010498D01*
X65605506Y-48069463D01*
X65508815Y-48148815D01*
X65429463Y-48245506D01*
X65370498Y-48355820D01*
X65334188Y-48475518D01*
X65321928Y-48600000D01*
X54732370Y-48600000D01*
X54606893Y-48165062D01*
X54160394Y-47301560D01*
X54085149Y-47188946D01*
X53482818Y-46696787D01*
X50179605Y-50000000D01*
X49820395Y-50000000D01*
X49806253Y-49985858D01*
X49985858Y-49806253D01*
X50000000Y-49820395D01*
X53303213Y-46517182D01*
X52811054Y-45914851D01*
X52440081Y-45710000D01*
X101838393Y-45710000D01*
X101658025Y-45858025D01*
%TA.AperFunction,Conductor*%
D31*
G36*
X101658025Y-45858025D02*
G01*
X101509942Y-46038465D01*
X101399906Y-46244327D01*
X101332147Y-46467701D01*
X101315000Y-46641794D01*
X101315000Y-47558207D01*
X101332147Y-47732300D01*
X101399906Y-47955674D01*
X101509943Y-48161536D01*
X101658026Y-48341975D01*
X101838465Y-48490058D01*
X102044327Y-48600094D01*
X102267701Y-48667853D01*
X102500000Y-48690733D01*
X102732300Y-48667853D01*
X102955674Y-48600094D01*
X103161536Y-48490058D01*
X103341975Y-48341975D01*
X103490058Y-48161536D01*
X103600094Y-47955674D01*
X103667853Y-47732299D01*
X103685000Y-47558206D01*
X103685000Y-46641793D01*
X103667853Y-46467700D01*
X103600094Y-46244326D01*
X103490058Y-46038464D01*
X103341975Y-45858025D01*
X103161606Y-45710000D01*
X109038393Y-45710000D01*
X108858025Y-45858025D01*
X108709942Y-46038465D01*
X108599906Y-46244327D01*
X108532147Y-46467701D01*
X108515000Y-46641794D01*
X108515000Y-47558207D01*
X108532147Y-47732300D01*
X108599906Y-47955674D01*
X108709943Y-48161536D01*
X108858026Y-48341975D01*
X109038465Y-48490058D01*
X109244327Y-48600094D01*
X109467701Y-48667853D01*
X109700000Y-48690733D01*
X109932300Y-48667853D01*
X110155674Y-48600094D01*
X110361536Y-48490058D01*
X110541975Y-48341975D01*
X110690058Y-48161536D01*
X110800094Y-47955674D01*
X110867853Y-47732299D01*
X110885000Y-47558206D01*
X110885000Y-46641793D01*
X110867853Y-46467700D01*
X110800094Y-46244326D01*
X110690058Y-46038464D01*
X110541975Y-45858025D01*
X110361606Y-45710000D01*
X117552210Y-45710000D01*
X117301560Y-45839606D01*
X117188946Y-45914851D01*
X116696787Y-46517182D01*
X120000000Y-49820395D01*
X120014143Y-49806253D01*
X120193748Y-49985858D01*
X120179605Y-50000000D01*
X123482818Y-53303213D01*
X124085149Y-52811054D01*
X124290000Y-52440081D01*
X124290001Y-102552212D01*
X124160394Y-102301560D01*
X124085149Y-102188946D01*
X123482818Y-101696787D01*
X120179605Y-105000000D01*
X120193748Y-105014143D01*
X120014143Y-105193748D01*
X120000000Y-105179605D01*
X116696787Y-108482818D01*
X117188946Y-109085149D01*
X117559919Y-109290000D01*
X52447790Y-109290000D01*
X52698440Y-109160394D01*
X52811054Y-109085149D01*
X53303213Y-108482818D01*
X50000000Y-105179605D01*
X49985858Y-105193748D01*
X49806253Y-105014143D01*
X49820395Y-105000000D01*
X50179605Y-105000000D01*
X53482818Y-108303213D01*
X54085149Y-107811054D01*
X54555063Y-106960067D01*
X54849929Y-106033757D01*
X54958414Y-105067719D01*
X54935809Y-104800890D01*
X55250048Y-104800890D01*
X55250048Y-105047110D01*
X55298083Y-105288598D01*
X55392307Y-105516074D01*
X55529099Y-105720798D01*
X55703202Y-105894901D01*
X55907926Y-106031693D01*
X56135402Y-106125917D01*
X56376890Y-106173952D01*
X56623110Y-106173952D01*
X56864598Y-106125917D01*
X57092074Y-106031693D01*
X57296798Y-105894901D01*
X57470901Y-105720798D01*
X57607693Y-105516074D01*
X57701917Y-105288598D01*
X57749952Y-105047110D01*
X57749952Y-104800890D01*
X57701917Y-104559402D01*
X57607693Y-104331926D01*
X57470901Y-104127202D01*
X57296798Y-103953099D01*
X57092074Y-103816307D01*
X57052706Y-103800000D01*
X63021928Y-103800000D01*
X63021928Y-106800000D01*
X63034188Y-106924482D01*
X63070498Y-107044180D01*
X63129463Y-107154494D01*
X63208815Y-107251185D01*
X63305506Y-107330537D01*
X63415820Y-107389502D01*
X63535518Y-107425812D01*
X63660000Y-107438072D01*
X66660000Y-107438072D01*
X66784482Y-107425812D01*
X66904180Y-107389502D01*
X67014494Y-107330537D01*
X67111185Y-107251185D01*
X67190537Y-107154494D01*
X67249502Y-107044180D01*
X67285812Y-106924482D01*
X67298072Y-106800000D01*
X67298072Y-105089721D01*
X68105000Y-105089721D01*
X68105000Y-105510279D01*
X68187047Y-105922756D01*
X68347988Y-106311302D01*
X68581637Y-106660983D01*
X68879017Y-106958363D01*
X69228698Y-107192012D01*
X69617244Y-107352953D01*
X70029721Y-107435000D01*
X70450279Y-107435000D01*
X70862756Y-107352953D01*
X71251302Y-107192012D01*
X71600983Y-106958363D01*
X71898363Y-106660983D01*
X72132012Y-106311302D01*
X72292953Y-105922756D01*
X72375000Y-105510279D01*
X72375000Y-105089721D01*
X72292953Y-104677244D01*
X72132012Y-104288698D01*
X71898363Y-103939017D01*
X71759346Y-103800000D01*
X73221928Y-103800000D01*
X73221928Y-106800000D01*
X73234188Y-106924482D01*
X73270498Y-107044180D01*
X73329463Y-107154494D01*
X73408815Y-107251185D01*
X73505506Y-107330537D01*
X73615820Y-107389502D01*
X73735518Y-107425812D01*
X73860000Y-107438072D01*
X76860000Y-107438072D01*
X76984482Y-107425812D01*
X77104180Y-107389502D01*
X77214494Y-107330537D01*
X77311185Y-107251185D01*
X77390537Y-107154494D01*
X77449502Y-107044180D01*
X77485812Y-106924482D01*
X77498072Y-106800000D01*
X77498072Y-105089721D01*
X78305000Y-105089721D01*
X78305000Y-105510279D01*
X78387047Y-105922756D01*
X78547988Y-106311302D01*
X78781637Y-106660983D01*
X79079017Y-106958363D01*
X79428698Y-107192012D01*
X79817244Y-107352953D01*
X80229721Y-107435000D01*
X80650279Y-107435000D01*
X81062756Y-107352953D01*
X81451302Y-107192012D01*
X81800983Y-106958363D01*
X82098363Y-106660983D01*
X82332012Y-106311302D01*
X82492953Y-105922756D01*
X82575000Y-105510279D01*
X82575000Y-105089721D01*
X82492953Y-104677244D01*
X82332012Y-104288698D01*
X82098363Y-103939017D01*
X81959346Y-103800000D01*
X83421928Y-103800000D01*
X83421928Y-106800000D01*
X83434188Y-106924482D01*
X83470498Y-107044180D01*
X83529463Y-107154494D01*
X83608815Y-107251185D01*
X83705506Y-107330537D01*
X83815820Y-107389502D01*
X83935518Y-107425812D01*
X84060000Y-107438072D01*
X87060000Y-107438072D01*
X87184482Y-107425812D01*
X87304180Y-107389502D01*
X87414494Y-107330537D01*
X87511185Y-107251185D01*
X87590537Y-107154494D01*
X87649502Y-107044180D01*
X87685812Y-106924482D01*
X87698072Y-106800000D01*
X87698072Y-105089721D01*
X88505000Y-105089721D01*
X88505000Y-105510279D01*
X88587047Y-105922756D01*
X88747988Y-106311302D01*
X88981637Y-106660983D01*
X89279017Y-106958363D01*
X89628698Y-107192012D01*
X90017244Y-107352953D01*
X90429721Y-107435000D01*
X90850279Y-107435000D01*
X91262756Y-107352953D01*
X91651302Y-107192012D01*
X92000983Y-106958363D01*
X92298363Y-106660983D01*
X92532012Y-106311302D01*
X92692953Y-105922756D01*
X92775000Y-105510279D01*
X92775000Y-105089721D01*
X92692953Y-104677244D01*
X92532012Y-104288698D01*
X92298363Y-103939017D01*
X92159346Y-103800000D01*
X93621928Y-103800000D01*
X93621928Y-106800000D01*
X93634188Y-106924482D01*
X93670498Y-107044180D01*
X93729463Y-107154494D01*
X93808815Y-107251185D01*
X93905506Y-107330537D01*
X94015820Y-107389502D01*
X94135518Y-107425812D01*
X94260000Y-107438072D01*
X97260000Y-107438072D01*
X97384482Y-107425812D01*
X97504180Y-107389502D01*
X97614494Y-107330537D01*
X97711185Y-107251185D01*
X97790537Y-107154494D01*
X97849502Y-107044180D01*
X97885812Y-106924482D01*
X97898072Y-106800000D01*
X97898072Y-105089721D01*
X98705000Y-105089721D01*
X98705000Y-105510279D01*
X98787047Y-105922756D01*
X98947988Y-106311302D01*
X99181637Y-106660983D01*
X99479017Y-106958363D01*
X99828698Y-107192012D01*
X100217244Y-107352953D01*
X100629721Y-107435000D01*
X101050279Y-107435000D01*
X101462756Y-107352953D01*
X101851302Y-107192012D01*
X102200983Y-106958363D01*
X102498363Y-106660983D01*
X102732012Y-106311302D01*
X102892953Y-105922756D01*
X102975000Y-105510279D01*
X102975000Y-105089721D01*
X102917548Y-104800890D01*
X112750048Y-104800890D01*
X112750048Y-105047110D01*
X112798083Y-105288598D01*
X112892307Y-105516074D01*
X113029099Y-105720798D01*
X113203202Y-105894901D01*
X113407926Y-106031693D01*
X113635402Y-106125917D01*
X113876890Y-106173952D01*
X114123110Y-106173952D01*
X114364598Y-106125917D01*
X114592074Y-106031693D01*
X114796798Y-105894901D01*
X114970901Y-105720798D01*
X115092918Y-105538186D01*
X115123649Y-105900921D01*
X115393107Y-106834938D01*
X115839606Y-107698440D01*
X115914851Y-107811054D01*
X116517182Y-108303213D01*
X119820395Y-105000000D01*
X116517182Y-101696787D01*
X115914851Y-102188946D01*
X115444937Y-103039933D01*
X115150071Y-103966243D01*
X115108725Y-104334418D01*
X115107693Y-104331926D01*
X114970901Y-104127202D01*
X114796798Y-103953099D01*
X114592074Y-103816307D01*
X114364598Y-103722083D01*
X114123110Y-103674048D01*
X113876890Y-103674048D01*
X113635402Y-103722083D01*
X113407926Y-103816307D01*
X113203202Y-103953099D01*
X113029099Y-104127202D01*
X112892307Y-104331926D01*
X112798083Y-104559402D01*
X112750048Y-104800890D01*
X102917548Y-104800890D01*
X102892953Y-104677244D01*
X102732012Y-104288698D01*
X102498363Y-103939017D01*
X102200983Y-103641637D01*
X101851302Y-103407988D01*
X101462756Y-103247047D01*
X101050279Y-103165000D01*
X100629721Y-103165000D01*
X100217244Y-103247047D01*
X99828698Y-103407988D01*
X99479017Y-103641637D01*
X99181637Y-103939017D01*
X98947988Y-104288698D01*
X98787047Y-104677244D01*
X98705000Y-105089721D01*
X97898072Y-105089721D01*
X97898072Y-103800000D01*
X97885812Y-103675518D01*
X97849502Y-103555820D01*
X97790537Y-103445506D01*
X97711185Y-103348815D01*
X97614494Y-103269463D01*
X97504180Y-103210498D01*
X97384482Y-103174188D01*
X97260000Y-103161928D01*
X94260000Y-103161928D01*
X94135518Y-103174188D01*
X94015820Y-103210498D01*
X93905506Y-103269463D01*
X93808815Y-103348815D01*
X93729463Y-103445506D01*
X93670498Y-103555820D01*
X93634188Y-103675518D01*
X93621928Y-103800000D01*
X92159346Y-103800000D01*
X92000983Y-103641637D01*
X91651302Y-103407988D01*
X91262756Y-103247047D01*
X90850279Y-103165000D01*
X90429721Y-103165000D01*
X90017244Y-103247047D01*
X89628698Y-103407988D01*
X89279017Y-103641637D01*
X88981637Y-103939017D01*
X88747988Y-104288698D01*
X88587047Y-104677244D01*
X88505000Y-105089721D01*
X87698072Y-105089721D01*
X87698072Y-103800000D01*
X87685812Y-103675518D01*
X87649502Y-103555820D01*
X87590537Y-103445506D01*
X87511185Y-103348815D01*
X87414494Y-103269463D01*
X87304180Y-103210498D01*
X87184482Y-103174188D01*
X87060000Y-103161928D01*
X84060000Y-103161928D01*
X83935518Y-103174188D01*
X83815820Y-103210498D01*
X83705506Y-103269463D01*
X83608815Y-103348815D01*
X83529463Y-103445506D01*
X83470498Y-103555820D01*
X83434188Y-103675518D01*
X83421928Y-103800000D01*
X81959346Y-103800000D01*
X81800983Y-103641637D01*
X81451302Y-103407988D01*
X81062756Y-103247047D01*
X80650279Y-103165000D01*
X80229721Y-103165000D01*
X79817244Y-103247047D01*
X79428698Y-103407988D01*
X79079017Y-103641637D01*
X78781637Y-103939017D01*
X78547988Y-104288698D01*
X78387047Y-104677244D01*
X78305000Y-105089721D01*
X77498072Y-105089721D01*
X77498072Y-103800000D01*
X77485812Y-103675518D01*
X77449502Y-103555820D01*
X77390537Y-103445506D01*
X77311185Y-103348815D01*
X77214494Y-103269463D01*
X77104180Y-103210498D01*
X76984482Y-103174188D01*
X76860000Y-103161928D01*
X73860000Y-103161928D01*
X73735518Y-103174188D01*
X73615820Y-103210498D01*
X73505506Y-103269463D01*
X73408815Y-103348815D01*
X73329463Y-103445506D01*
X73270498Y-103555820D01*
X73234188Y-103675518D01*
X73221928Y-103800000D01*
X71759346Y-103800000D01*
X71600983Y-103641637D01*
X71251302Y-103407988D01*
X70862756Y-103247047D01*
X70450279Y-103165000D01*
X70029721Y-103165000D01*
X69617244Y-103247047D01*
X69228698Y-103407988D01*
X68879017Y-103641637D01*
X68581637Y-103939017D01*
X68347988Y-104288698D01*
X68187047Y-104677244D01*
X68105000Y-105089721D01*
X67298072Y-105089721D01*
X67298072Y-103800000D01*
X67285812Y-103675518D01*
X67249502Y-103555820D01*
X67190537Y-103445506D01*
X67111185Y-103348815D01*
X67014494Y-103269463D01*
X66904180Y-103210498D01*
X66784482Y-103174188D01*
X66660000Y-103161928D01*
X63660000Y-103161928D01*
X63535518Y-103174188D01*
X63415820Y-103210498D01*
X63305506Y-103269463D01*
X63208815Y-103348815D01*
X63129463Y-103445506D01*
X63070498Y-103555820D01*
X63034188Y-103675518D01*
X63021928Y-103800000D01*
X57052706Y-103800000D01*
X56864598Y-103722083D01*
X56623110Y-103674048D01*
X56376890Y-103674048D01*
X56135402Y-103722083D01*
X55907926Y-103816307D01*
X55703202Y-103953099D01*
X55529099Y-104127202D01*
X55392307Y-104331926D01*
X55298083Y-104559402D01*
X55250048Y-104800890D01*
X54935809Y-104800890D01*
X54876351Y-104099079D01*
X54606893Y-103165062D01*
X54160394Y-102301560D01*
X54085149Y-102188946D01*
X53482818Y-101696787D01*
X50179605Y-105000000D01*
X49820395Y-105000000D01*
X46517182Y-101696787D01*
X45914851Y-102188946D01*
X45710000Y-102559919D01*
X45710000Y-101517182D01*
X46696787Y-101517182D01*
X50000000Y-104820395D01*
X53303213Y-101517182D01*
X116696787Y-101517182D01*
X120000000Y-104820395D01*
X123303213Y-101517182D01*
X122811054Y-100914851D01*
X121960067Y-100444937D01*
X121033757Y-100150071D01*
X120067719Y-100041586D01*
X119099079Y-100123649D01*
X118165062Y-100393107D01*
X117301560Y-100839606D01*
X117188946Y-100914851D01*
X116696787Y-101517182D01*
X53303213Y-101517182D01*
X52811054Y-100914851D01*
X51960067Y-100444937D01*
X51033757Y-100150071D01*
X50067719Y-100041586D01*
X49099079Y-100123649D01*
X48165062Y-100393107D01*
X47301560Y-100839606D01*
X47188946Y-100914851D01*
X46696787Y-101517182D01*
X45710000Y-101517182D01*
X45710000Y-95070512D01*
X49559783Y-95070512D01*
X49601213Y-95350130D01*
X49696397Y-95616292D01*
X49763329Y-95741514D01*
X50007298Y-95813097D01*
X50820395Y-95000000D01*
X50007298Y-94186903D01*
X49763329Y-94258486D01*
X49642429Y-94513996D01*
X49573700Y-94788184D01*
X49559783Y-95070512D01*
X45710000Y-95070512D01*
X45710000Y-94007298D01*
X50186903Y-94007298D01*
X51000000Y-94820395D01*
X51014143Y-94806253D01*
X51193748Y-94985858D01*
X51179605Y-95000000D01*
X51193748Y-95014143D01*
X51014143Y-95193748D01*
X51000000Y-95179605D01*
X50186903Y-95992702D01*
X50258486Y-96236671D01*
X50513996Y-96357571D01*
X50788184Y-96426300D01*
X51070512Y-96440217D01*
X51350130Y-96398787D01*
X51616292Y-96303603D01*
X51738309Y-96238384D01*
X51748815Y-96251185D01*
X51845506Y-96330537D01*
X51955820Y-96389502D01*
X52075518Y-96425812D01*
X52200000Y-96438072D01*
X53800000Y-96438072D01*
X53924482Y-96425812D01*
X54044180Y-96389502D01*
X54154494Y-96330537D01*
X54251185Y-96251185D01*
X54330537Y-96154494D01*
X54389502Y-96044180D01*
X54425812Y-95924482D01*
X54438072Y-95800000D01*
X54438072Y-94200000D01*
X54425812Y-94075518D01*
X54389502Y-93955820D01*
X54330537Y-93845506D01*
X54251185Y-93748815D01*
X54154494Y-93669463D01*
X54044180Y-93610498D01*
X53924482Y-93574188D01*
X53800000Y-93561928D01*
X52200000Y-93561928D01*
X52075518Y-93574188D01*
X51955820Y-93610498D01*
X51845506Y-93669463D01*
X51748815Y-93748815D01*
X51738193Y-93761758D01*
X51486004Y-93642429D01*
X51211816Y-93573700D01*
X50929488Y-93559783D01*
X50649870Y-93601213D01*
X50383708Y-93696397D01*
X50258486Y-93763329D01*
X50186903Y-94007298D01*
X45710000Y-94007298D01*
X45710000Y-92700000D01*
X57711928Y-92700000D01*
X57715000Y-93714250D01*
X57873750Y-93873000D01*
X58242629Y-93873000D01*
X58234898Y-93994708D01*
X58234266Y-93995340D01*
X58234562Y-94000000D01*
X58234266Y-94004660D01*
X58234898Y-94005292D01*
X58242629Y-94127000D01*
X57873750Y-94127000D01*
X57715000Y-94285750D01*
X57711928Y-95300000D01*
X57724188Y-95424482D01*
X57760498Y-95544180D01*
X57819463Y-95654494D01*
X57898815Y-95751185D01*
X57995506Y-95830537D01*
X58105820Y-95889502D01*
X58225518Y-95925812D01*
X58350000Y-95938072D01*
X59714250Y-95935000D01*
X59873000Y-95776250D01*
X59873000Y-95593602D01*
X59902626Y-95599619D01*
X60089758Y-95600369D01*
X60127000Y-95593116D01*
X60127000Y-95776250D01*
X60285750Y-95935000D01*
X61650000Y-95938072D01*
X61774482Y-95925812D01*
X61894180Y-95889502D01*
X62004494Y-95830537D01*
X62101185Y-95751185D01*
X62180537Y-95654494D01*
X62239502Y-95544180D01*
X62275812Y-95424482D01*
X62288072Y-95300000D01*
X62287377Y-95070512D01*
X65559783Y-95070512D01*
X65601213Y-95350130D01*
X65696397Y-95616292D01*
X65763329Y-95741514D01*
X66007298Y-95813097D01*
X66820395Y-95000000D01*
X66007298Y-94186903D01*
X65763329Y-94258486D01*
X65642429Y-94513996D01*
X65573700Y-94788184D01*
X65559783Y-95070512D01*
X62287377Y-95070512D01*
X62285000Y-94285750D01*
X62126250Y-94127000D01*
X61757371Y-94127000D01*
X61764974Y-94007298D01*
X66186903Y-94007298D01*
X67000000Y-94820395D01*
X67014143Y-94806253D01*
X67193748Y-94985858D01*
X67179605Y-95000000D01*
X67193748Y-95014143D01*
X67014143Y-95193748D01*
X67000000Y-95179605D01*
X66186903Y-95992702D01*
X66258486Y-96236671D01*
X66513996Y-96357571D01*
X66788184Y-96426300D01*
X67070512Y-96440217D01*
X67350130Y-96398787D01*
X67616292Y-96303603D01*
X67738309Y-96238384D01*
X67748815Y-96251185D01*
X67845506Y-96330537D01*
X67955820Y-96389502D01*
X68075518Y-96425812D01*
X68200000Y-96438072D01*
X69800000Y-96438072D01*
X69924482Y-96425812D01*
X70044180Y-96389502D01*
X70154494Y-96330537D01*
X70251185Y-96251185D01*
X70330537Y-96154494D01*
X70389502Y-96044180D01*
X70425812Y-95924482D01*
X70438072Y-95800000D01*
X70438072Y-94200000D01*
X70425812Y-94075518D01*
X70389502Y-93955820D01*
X70330537Y-93845506D01*
X70251185Y-93748815D01*
X70154494Y-93669463D01*
X70044180Y-93610498D01*
X69924482Y-93574188D01*
X69800000Y-93561928D01*
X68200000Y-93561928D01*
X68075518Y-93574188D01*
X67955820Y-93610498D01*
X67845506Y-93669463D01*
X67748815Y-93748815D01*
X67738193Y-93761758D01*
X67486004Y-93642429D01*
X67211816Y-93573700D01*
X66929488Y-93559783D01*
X66649870Y-93601213D01*
X66383708Y-93696397D01*
X66258486Y-93763329D01*
X66186903Y-94007298D01*
X61764974Y-94007298D01*
X61765102Y-94005292D01*
X61765734Y-94004660D01*
X61765438Y-94000000D01*
X61765734Y-93995340D01*
X61765102Y-93994708D01*
X61757371Y-93873000D01*
X62126250Y-93873000D01*
X62285000Y-93714250D01*
X62288072Y-92700000D01*
X73711928Y-92700000D01*
X73715000Y-93714250D01*
X73873750Y-93873000D01*
X74242629Y-93873000D01*
X74234898Y-93994708D01*
X74234266Y-93995340D01*
X74234562Y-94000000D01*
X74234266Y-94004660D01*
X74234898Y-94005292D01*
X74242629Y-94127000D01*
X73873750Y-94127000D01*
X73715000Y-94285750D01*
X73711928Y-95300000D01*
X73724188Y-95424482D01*
X73760498Y-95544180D01*
X73819463Y-95654494D01*
X73898815Y-95751185D01*
X73995506Y-95830537D01*
X74105820Y-95889502D01*
X74225518Y-95925812D01*
X74350000Y-95938072D01*
X75714250Y-95935000D01*
X75873000Y-95776250D01*
X75873000Y-95593602D01*
X75902626Y-95599619D01*
X76089758Y-95600369D01*
X76127000Y-95593116D01*
X76127000Y-95776250D01*
X76285750Y-95935000D01*
X77650000Y-95938072D01*
X77774482Y-95925812D01*
X77894180Y-95889502D01*
X78004494Y-95830537D01*
X78101185Y-95751185D01*
X78180537Y-95654494D01*
X78239502Y-95544180D01*
X78275812Y-95424482D01*
X78288072Y-95300000D01*
X78287377Y-95070512D01*
X81559783Y-95070512D01*
X81601213Y-95350130D01*
X81696397Y-95616292D01*
X81763329Y-95741514D01*
X82007298Y-95813097D01*
X82820395Y-95000000D01*
X82007298Y-94186903D01*
X81763329Y-94258486D01*
X81642429Y-94513996D01*
X81573700Y-94788184D01*
X81559783Y-95070512D01*
X78287377Y-95070512D01*
X78285000Y-94285750D01*
X78126250Y-94127000D01*
X77757371Y-94127000D01*
X77764974Y-94007298D01*
X82186903Y-94007298D01*
X83000000Y-94820395D01*
X83014143Y-94806253D01*
X83193748Y-94985858D01*
X83179605Y-95000000D01*
X83193748Y-95014143D01*
X83014143Y-95193748D01*
X83000000Y-95179605D01*
X82186903Y-95992702D01*
X82258486Y-96236671D01*
X82513996Y-96357571D01*
X82788184Y-96426300D01*
X83070512Y-96440217D01*
X83350130Y-96398787D01*
X83616292Y-96303603D01*
X83738309Y-96238384D01*
X83748815Y-96251185D01*
X83845506Y-96330537D01*
X83955820Y-96389502D01*
X84075518Y-96425812D01*
X84200000Y-96438072D01*
X85800000Y-96438072D01*
X85924482Y-96425812D01*
X86044180Y-96389502D01*
X86154494Y-96330537D01*
X86251185Y-96251185D01*
X86330537Y-96154494D01*
X86389502Y-96044180D01*
X86425812Y-95924482D01*
X86438072Y-95800000D01*
X86438072Y-94200000D01*
X86425812Y-94075518D01*
X86389502Y-93955820D01*
X86330537Y-93845506D01*
X86251185Y-93748815D01*
X86154494Y-93669463D01*
X86044180Y-93610498D01*
X85924482Y-93574188D01*
X85800000Y-93561928D01*
X84200000Y-93561928D01*
X84075518Y-93574188D01*
X83955820Y-93610498D01*
X83845506Y-93669463D01*
X83748815Y-93748815D01*
X83738193Y-93761758D01*
X83486004Y-93642429D01*
X83211816Y-93573700D01*
X82929488Y-93559783D01*
X82649870Y-93601213D01*
X82383708Y-93696397D01*
X82258486Y-93763329D01*
X82186903Y-94007298D01*
X77764974Y-94007298D01*
X77765102Y-94005292D01*
X77765734Y-94004660D01*
X77765438Y-94000000D01*
X77765734Y-93995340D01*
X77765102Y-93994708D01*
X77757371Y-93873000D01*
X78126250Y-93873000D01*
X78285000Y-93714250D01*
X78288072Y-92700000D01*
X89711928Y-92700000D01*
X89715000Y-93714250D01*
X89873750Y-93873000D01*
X90242629Y-93873000D01*
X90234898Y-93994708D01*
X90234266Y-93995340D01*
X90234562Y-94000000D01*
X90234266Y-94004660D01*
X90234898Y-94005292D01*
X90242629Y-94127000D01*
X89873750Y-94127000D01*
X89715000Y-94285750D01*
X89711928Y-95300000D01*
X89724188Y-95424482D01*
X89760498Y-95544180D01*
X89819463Y-95654494D01*
X89898815Y-95751185D01*
X89995506Y-95830537D01*
X90105820Y-95889502D01*
X90225518Y-95925812D01*
X90350000Y-95938072D01*
X91714250Y-95935000D01*
X91873000Y-95776250D01*
X91873000Y-95593602D01*
X91902626Y-95599619D01*
X92089758Y-95600369D01*
X92127000Y-95593116D01*
X92127000Y-95776250D01*
X92285750Y-95935000D01*
X93650000Y-95938072D01*
X93774482Y-95925812D01*
X93894180Y-95889502D01*
X94004494Y-95830537D01*
X94101185Y-95751185D01*
X94180537Y-95654494D01*
X94239502Y-95544180D01*
X94275812Y-95424482D01*
X94288072Y-95300000D01*
X94287377Y-95070512D01*
X97759783Y-95070512D01*
X97801213Y-95350130D01*
X97896397Y-95616292D01*
X97963329Y-95741514D01*
X98207298Y-95813097D01*
X99020395Y-95000000D01*
X98207298Y-94186903D01*
X97963329Y-94258486D01*
X97842429Y-94513996D01*
X97773700Y-94788184D01*
X97759783Y-95070512D01*
X94287377Y-95070512D01*
X94285000Y-94285750D01*
X94126250Y-94127000D01*
X93757371Y-94127000D01*
X93764974Y-94007298D01*
X98386903Y-94007298D01*
X99200000Y-94820395D01*
X99214143Y-94806253D01*
X99393748Y-94985858D01*
X99379605Y-95000000D01*
X99393748Y-95014143D01*
X99214143Y-95193748D01*
X99200000Y-95179605D01*
X98386903Y-95992702D01*
X98458486Y-96236671D01*
X98713996Y-96357571D01*
X98988184Y-96426300D01*
X99270512Y-96440217D01*
X99550130Y-96398787D01*
X99816292Y-96303603D01*
X99938309Y-96238384D01*
X99948815Y-96251185D01*
X100045506Y-96330537D01*
X100155820Y-96389502D01*
X100275518Y-96425812D01*
X100400000Y-96438072D01*
X102000000Y-96438072D01*
X102124482Y-96425812D01*
X102244180Y-96389502D01*
X102354494Y-96330537D01*
X102451185Y-96251185D01*
X102530537Y-96154494D01*
X102589502Y-96044180D01*
X102625812Y-95924482D01*
X102638072Y-95800000D01*
X102638072Y-94200000D01*
X102625812Y-94075518D01*
X102589502Y-93955820D01*
X102530537Y-93845506D01*
X102451185Y-93748815D01*
X102354494Y-93669463D01*
X102244180Y-93610498D01*
X102124482Y-93574188D01*
X102000000Y-93561928D01*
X100400000Y-93561928D01*
X100275518Y-93574188D01*
X100155820Y-93610498D01*
X100045506Y-93669463D01*
X99948815Y-93748815D01*
X99938193Y-93761758D01*
X99686004Y-93642429D01*
X99411816Y-93573700D01*
X99129488Y-93559783D01*
X98849870Y-93601213D01*
X98583708Y-93696397D01*
X98458486Y-93763329D01*
X98386903Y-94007298D01*
X93764974Y-94007298D01*
X93765102Y-94005292D01*
X93765734Y-94004660D01*
X93765438Y-94000000D01*
X93765734Y-93995340D01*
X93765102Y-93994708D01*
X93757371Y-93873000D01*
X94126250Y-93873000D01*
X94285000Y-93714250D01*
X94288072Y-92700000D01*
X105711928Y-92700000D01*
X105715000Y-93714250D01*
X105873750Y-93873000D01*
X106242629Y-93873000D01*
X106234898Y-93994708D01*
X106234266Y-93995340D01*
X106234562Y-94000000D01*
X106234266Y-94004660D01*
X106234898Y-94005292D01*
X106242629Y-94127000D01*
X105873750Y-94127000D01*
X105715000Y-94285750D01*
X105711928Y-95300000D01*
X105724188Y-95424482D01*
X105760498Y-95544180D01*
X105819463Y-95654494D01*
X105898815Y-95751185D01*
X105995506Y-95830537D01*
X106105820Y-95889502D01*
X106225518Y-95925812D01*
X106350000Y-95938072D01*
X107714250Y-95935000D01*
X107873000Y-95776250D01*
X107873000Y-95593602D01*
X107902626Y-95599619D01*
X108089758Y-95600369D01*
X108127000Y-95593116D01*
X108127000Y-95776250D01*
X108285750Y-95935000D01*
X109650000Y-95938072D01*
X109774482Y-95925812D01*
X109894180Y-95889502D01*
X110004494Y-95830537D01*
X110101185Y-95751185D01*
X110180537Y-95654494D01*
X110239502Y-95544180D01*
X110275812Y-95424482D01*
X110288072Y-95300000D01*
X110285000Y-94285750D01*
X110126250Y-94127000D01*
X109757371Y-94127000D01*
X109765102Y-94005292D01*
X109765734Y-94004660D01*
X109765438Y-94000000D01*
X109765734Y-93995340D01*
X109765102Y-93994708D01*
X109757371Y-93873000D01*
X110126250Y-93873000D01*
X110285000Y-93714250D01*
X110288072Y-92700000D01*
X110275812Y-92575518D01*
X110239502Y-92455820D01*
X110180537Y-92345506D01*
X110101185Y-92248815D01*
X110004494Y-92169463D01*
X109894180Y-92110498D01*
X109774482Y-92074188D01*
X109650000Y-92061928D01*
X108285750Y-92065000D01*
X108127000Y-92223750D01*
X108127000Y-92406398D01*
X108097374Y-92400381D01*
X107910242Y-92399631D01*
X107873000Y-92406884D01*
X107873000Y-92223750D01*
X107714250Y-92065000D01*
X106350000Y-92061928D01*
X106225518Y-92074188D01*
X106105820Y-92110498D01*
X105995506Y-92169463D01*
X105898815Y-92248815D01*
X105819463Y-92345506D01*
X105760498Y-92455820D01*
X105724188Y-92575518D01*
X105711928Y-92700000D01*
X94288072Y-92700000D01*
X94275812Y-92575518D01*
X94239502Y-92455820D01*
X94180537Y-92345506D01*
X94101185Y-92248815D01*
X94004494Y-92169463D01*
X93894180Y-92110498D01*
X93774482Y-92074188D01*
X93650000Y-92061928D01*
X92285750Y-92065000D01*
X92127000Y-92223750D01*
X92127000Y-92406398D01*
X92097374Y-92400381D01*
X91910242Y-92399631D01*
X91873000Y-92406884D01*
X91873000Y-92223750D01*
X91714250Y-92065000D01*
X90350000Y-92061928D01*
X90225518Y-92074188D01*
X90105820Y-92110498D01*
X89995506Y-92169463D01*
X89898815Y-92248815D01*
X89819463Y-92345506D01*
X89760498Y-92455820D01*
X89724188Y-92575518D01*
X89711928Y-92700000D01*
X78288072Y-92700000D01*
X78275812Y-92575518D01*
X78239502Y-92455820D01*
X78180537Y-92345506D01*
X78101185Y-92248815D01*
X78004494Y-92169463D01*
X77894180Y-92110498D01*
X77774482Y-92074188D01*
X77650000Y-92061928D01*
X76285750Y-92065000D01*
X76127000Y-92223750D01*
X76127000Y-92406398D01*
X76097374Y-92400381D01*
X75910242Y-92399631D01*
X75873000Y-92406884D01*
X75873000Y-92223750D01*
X75714250Y-92065000D01*
X74350000Y-92061928D01*
X74225518Y-92074188D01*
X74105820Y-92110498D01*
X73995506Y-92169463D01*
X73898815Y-92248815D01*
X73819463Y-92345506D01*
X73760498Y-92455820D01*
X73724188Y-92575518D01*
X73711928Y-92700000D01*
X62288072Y-92700000D01*
X62275812Y-92575518D01*
X62239502Y-92455820D01*
X62180537Y-92345506D01*
X62101185Y-92248815D01*
X62004494Y-92169463D01*
X61894180Y-92110498D01*
X61774482Y-92074188D01*
X61650000Y-92061928D01*
X60285750Y-92065000D01*
X60127000Y-92223750D01*
X60127000Y-92406398D01*
X60097374Y-92400381D01*
X59910242Y-92399631D01*
X59873000Y-92406884D01*
X59873000Y-92223750D01*
X59714250Y-92065000D01*
X58350000Y-92061928D01*
X58225518Y-92074188D01*
X58105820Y-92110498D01*
X57995506Y-92169463D01*
X57898815Y-92248815D01*
X57819463Y-92345506D01*
X57760498Y-92455820D01*
X57724188Y-92575518D01*
X57711928Y-92700000D01*
X45710000Y-92700000D01*
X45710000Y-88898061D01*
X58365000Y-88898061D01*
X58365000Y-89101939D01*
X58404774Y-89301898D01*
X58482795Y-89490256D01*
X58596063Y-89659774D01*
X58740226Y-89803937D01*
X58909744Y-89917205D01*
X59098102Y-89995226D01*
X59298061Y-90035000D01*
X59501939Y-90035000D01*
X59701898Y-89995226D01*
X59890256Y-89917205D01*
X60050000Y-89810468D01*
X60209744Y-89917205D01*
X60398102Y-89995226D01*
X60598061Y-90035000D01*
X60801939Y-90035000D01*
X61001898Y-89995226D01*
X61190256Y-89917205D01*
X61359774Y-89803937D01*
X61503937Y-89659774D01*
X61617205Y-89490256D01*
X61695226Y-89301898D01*
X61735000Y-89101939D01*
X61735000Y-88898061D01*
X61695226Y-88698102D01*
X61617205Y-88509744D01*
X61503937Y-88340226D01*
X61485000Y-88321289D01*
X61485000Y-86025157D01*
X64925158Y-82585000D01*
X68361447Y-82585000D01*
X68400000Y-82588797D01*
X68438553Y-82585000D01*
X68438561Y-82585000D01*
X68553887Y-82573641D01*
X68701860Y-82528754D01*
X68838233Y-82455862D01*
X68957764Y-82357764D01*
X68982347Y-82327810D01*
X70377096Y-80933061D01*
X71290000Y-80933061D01*
X71290000Y-81136939D01*
X71329774Y-81336898D01*
X71407795Y-81525256D01*
X71521063Y-81694774D01*
X71540000Y-81713711D01*
X71540001Y-85921437D01*
X71536203Y-85960000D01*
X71551359Y-86113886D01*
X71596246Y-86261859D01*
X71622644Y-86311246D01*
X71669139Y-86398233D01*
X71704943Y-86441860D01*
X71742655Y-86487812D01*
X71742659Y-86487816D01*
X71767237Y-86517764D01*
X71797185Y-86542342D01*
X74330000Y-89075158D01*
X74330000Y-89101939D01*
X74369774Y-89301898D01*
X74447795Y-89490256D01*
X74561063Y-89659774D01*
X74705226Y-89803937D01*
X74874744Y-89917205D01*
X75063102Y-89995226D01*
X75263061Y-90035000D01*
X75466939Y-90035000D01*
X75666898Y-89995226D01*
X75855256Y-89917205D01*
X76024774Y-89803937D01*
X76032500Y-89796211D01*
X76040226Y-89803937D01*
X76209744Y-89917205D01*
X76398102Y-89995226D01*
X76598061Y-90035000D01*
X76801939Y-90035000D01*
X77001898Y-89995226D01*
X77190256Y-89917205D01*
X77359774Y-89803937D01*
X77503937Y-89659774D01*
X77617205Y-89490256D01*
X77695226Y-89301898D01*
X77735000Y-89101939D01*
X77735000Y-88898061D01*
X77695226Y-88698102D01*
X77617205Y-88509744D01*
X77503937Y-88340226D01*
X77359774Y-88196063D01*
X77190256Y-88082795D01*
X77001898Y-88004774D01*
X76801939Y-87965000D01*
X76775158Y-87965000D01*
X74385000Y-85574843D01*
X74385000Y-81738711D01*
X74403937Y-81719774D01*
X74517205Y-81550256D01*
X74595226Y-81361898D01*
X74635000Y-81161939D01*
X74635000Y-80958061D01*
X74595226Y-80758102D01*
X74517205Y-80569744D01*
X74403937Y-80400226D01*
X74259774Y-80256063D01*
X74090256Y-80142795D01*
X73901898Y-80064774D01*
X73701939Y-80025000D01*
X73498061Y-80025000D01*
X73298102Y-80064774D01*
X73109744Y-80142795D01*
X72981208Y-80228680D01*
X72815256Y-80117795D01*
X72626898Y-80039774D01*
X72426939Y-80000000D01*
X72223061Y-80000000D01*
X72023102Y-80039774D01*
X71834744Y-80117795D01*
X71665226Y-80231063D01*
X71521063Y-80375226D01*
X71407795Y-80544744D01*
X71329774Y-80733102D01*
X71290000Y-80933061D01*
X70377096Y-80933061D01*
X73402096Y-77908061D01*
X84105000Y-77908061D01*
X84105000Y-78111939D01*
X84144774Y-78311898D01*
X84222795Y-78500256D01*
X84336063Y-78669774D01*
X84480226Y-78813937D01*
X84649744Y-78927205D01*
X84838102Y-79005226D01*
X85038061Y-79045000D01*
X85241939Y-79045000D01*
X85441898Y-79005226D01*
X85630256Y-78927205D01*
X85799774Y-78813937D01*
X85943937Y-78669774D01*
X86057205Y-78500256D01*
X86135226Y-78311898D01*
X86175000Y-78111939D01*
X86175000Y-77908061D01*
X86135226Y-77708102D01*
X86057205Y-77519744D01*
X85943937Y-77350226D01*
X85799774Y-77206063D01*
X85630256Y-77092795D01*
X85441898Y-77014774D01*
X85241939Y-76975000D01*
X85038061Y-76975000D01*
X84838102Y-77014774D01*
X84649744Y-77092795D01*
X84480226Y-77206063D01*
X84336063Y-77350226D01*
X84222795Y-77519744D01*
X84144774Y-77708102D01*
X84105000Y-77908061D01*
X73402096Y-77908061D01*
X75075157Y-76235000D01*
X75101939Y-76235000D01*
X75301898Y-76195226D01*
X75490256Y-76117205D01*
X75659774Y-76003937D01*
X75803937Y-75859774D01*
X75917205Y-75690256D01*
X75995226Y-75501898D01*
X76035000Y-75301939D01*
X76035000Y-75098061D01*
X75995226Y-74898102D01*
X75917205Y-74709744D01*
X75803937Y-74540226D01*
X75659774Y-74396063D01*
X75490256Y-74282795D01*
X75301898Y-74204774D01*
X75101939Y-74165000D01*
X74898061Y-74165000D01*
X74800301Y-74184445D01*
X74703937Y-74040226D01*
X74559774Y-73896063D01*
X74390256Y-73782795D01*
X74201898Y-73704774D01*
X74001939Y-73665000D01*
X73798061Y-73665000D01*
X73598102Y-73704774D01*
X73409744Y-73782795D01*
X73240226Y-73896063D01*
X73096063Y-74040226D01*
X72982795Y-74209744D01*
X72904774Y-74398102D01*
X72865000Y-74598061D01*
X72865000Y-74801939D01*
X72904774Y-75001898D01*
X72982795Y-75190256D01*
X73029575Y-75260267D01*
X67974843Y-80315000D01*
X64138556Y-80315000D01*
X64100000Y-80311203D01*
X64061444Y-80315000D01*
X64061439Y-80315000D01*
X64021026Y-80318980D01*
X63946113Y-80326358D01*
X63798140Y-80371246D01*
X63661767Y-80444138D01*
X63542236Y-80542236D01*
X63517655Y-80572188D01*
X58872190Y-85217653D01*
X58842236Y-85242236D01*
X58744138Y-85361768D01*
X58671246Y-85498141D01*
X58626359Y-85646114D01*
X58615000Y-85761440D01*
X58615000Y-85761447D01*
X58611203Y-85800000D01*
X58615000Y-85838553D01*
X58615001Y-88321288D01*
X58596063Y-88340226D01*
X58482795Y-88509744D01*
X58404774Y-88698102D01*
X58365000Y-88898061D01*
X45710000Y-88898061D01*
X45710000Y-82425527D01*
X50294078Y-82425527D01*
X50347466Y-82654201D01*
X50577374Y-82760095D01*
X50823524Y-82819102D01*
X51076455Y-82828952D01*
X51326449Y-82789270D01*
X51563896Y-82701578D01*
X51652534Y-82654201D01*
X51705922Y-82425527D01*
X51000000Y-81719605D01*
X50294078Y-82425527D01*
X45710000Y-82425527D01*
X45710000Y-81616455D01*
X49711048Y-81616455D01*
X49750730Y-81866449D01*
X49838422Y-82103896D01*
X49885799Y-82192534D01*
X50114473Y-82245922D01*
X50820395Y-81540000D01*
X51179605Y-81540000D01*
X51885527Y-82245922D01*
X52114201Y-82192534D01*
X52220095Y-81962626D01*
X52279102Y-81716476D01*
X52288952Y-81463545D01*
X52249270Y-81213551D01*
X52161578Y-80976104D01*
X52114201Y-80887466D01*
X51885527Y-80834078D01*
X51179605Y-81540000D01*
X50820395Y-81540000D01*
X50114473Y-80834078D01*
X49885799Y-80887466D01*
X49779905Y-81117374D01*
X49720898Y-81363524D01*
X49711048Y-81616455D01*
X45710000Y-81616455D01*
X45710000Y-76333439D01*
X49715000Y-76333439D01*
X49715000Y-76586561D01*
X49764381Y-76834821D01*
X49861247Y-77068676D01*
X50001875Y-77279140D01*
X50180860Y-77458125D01*
X50391324Y-77598753D01*
X50625179Y-77695619D01*
X50798027Y-77730000D01*
X50625179Y-77764381D01*
X50391324Y-77861247D01*
X50180860Y-78001875D01*
X50001875Y-78180860D01*
X49861247Y-78391324D01*
X49764381Y-78625179D01*
X49715000Y-78873439D01*
X49715000Y-79126561D01*
X49764381Y-79374821D01*
X49861247Y-79608676D01*
X50001875Y-79819140D01*
X50180860Y-79998125D01*
X50391324Y-80138753D01*
X50625179Y-80235619D01*
X50800744Y-80270540D01*
X50673551Y-80290730D01*
X50436104Y-80378422D01*
X50347466Y-80425799D01*
X50294078Y-80654473D01*
X51000000Y-81360395D01*
X51705922Y-80654473D01*
X51652534Y-80425799D01*
X51422626Y-80319905D01*
X51208789Y-80268644D01*
X51374821Y-80235619D01*
X51608676Y-80138753D01*
X51819140Y-79998125D01*
X51998125Y-79819140D01*
X52138753Y-79608676D01*
X52235619Y-79374821D01*
X52285000Y-79126561D01*
X52285000Y-78873439D01*
X52235619Y-78625179D01*
X52138753Y-78391324D01*
X51998125Y-78180860D01*
X51819140Y-78001875D01*
X51608676Y-77861247D01*
X51374821Y-77764381D01*
X51201973Y-77730000D01*
X51374821Y-77695619D01*
X51608676Y-77598753D01*
X51819140Y-77458125D01*
X51998125Y-77279140D01*
X52138753Y-77068676D01*
X52235619Y-76834821D01*
X52285000Y-76586561D01*
X52285000Y-76333439D01*
X52235619Y-76085179D01*
X52138753Y-75851324D01*
X51998125Y-75640860D01*
X51819140Y-75461875D01*
X51608676Y-75321247D01*
X51374821Y-75224381D01*
X51126561Y-75175000D01*
X50873439Y-75175000D01*
X50625179Y-75224381D01*
X50391324Y-75321247D01*
X50180860Y-75461875D01*
X50001875Y-75640860D01*
X49861247Y-75851324D01*
X49764381Y-76085179D01*
X49715000Y-76333439D01*
X45710000Y-76333439D01*
X45710000Y-75168514D01*
X55015000Y-75168514D01*
X55015000Y-75431486D01*
X55066304Y-75689405D01*
X55166939Y-75932359D01*
X55313038Y-76151013D01*
X55468433Y-76306408D01*
X55432795Y-76359744D01*
X55354774Y-76548102D01*
X55315000Y-76748061D01*
X55315000Y-76951939D01*
X55354774Y-77151898D01*
X55432795Y-77340256D01*
X55546063Y-77509774D01*
X55690226Y-77653937D01*
X55859744Y-77767205D01*
X56048102Y-77845226D01*
X56248061Y-77885000D01*
X56451939Y-77885000D01*
X56651898Y-77845226D01*
X56840256Y-77767205D01*
X57009774Y-77653937D01*
X57153937Y-77509774D01*
X57267205Y-77340256D01*
X57345226Y-77151898D01*
X57385000Y-76951939D01*
X57385000Y-76748061D01*
X57345226Y-76548102D01*
X57267205Y-76359744D01*
X57231567Y-76306408D01*
X57386962Y-76151013D01*
X57533061Y-75932359D01*
X57575000Y-75831109D01*
X57616939Y-75932359D01*
X57763038Y-76151013D01*
X57918433Y-76306408D01*
X57882795Y-76359744D01*
X57804774Y-76548102D01*
X57765000Y-76748061D01*
X57765000Y-76951939D01*
X57804774Y-77151898D01*
X57882795Y-77340256D01*
X57996063Y-77509774D01*
X58140226Y-77653937D01*
X58309744Y-77767205D01*
X58498102Y-77845226D01*
X58698061Y-77885000D01*
X58901939Y-77885000D01*
X59101898Y-77845226D01*
X59290256Y-77767205D01*
X59459774Y-77653937D01*
X59603937Y-77509774D01*
X59717205Y-77340256D01*
X59795226Y-77151898D01*
X59835000Y-76951939D01*
X59835000Y-76748061D01*
X59795226Y-76548102D01*
X59757930Y-76458061D01*
X67065000Y-76458061D01*
X67065000Y-76661939D01*
X67104774Y-76861898D01*
X67182795Y-77050256D01*
X67296063Y-77219774D01*
X67440226Y-77363937D01*
X67609744Y-77477205D01*
X67798102Y-77555226D01*
X67998061Y-77595000D01*
X68201939Y-77595000D01*
X68401898Y-77555226D01*
X68590256Y-77477205D01*
X68759774Y-77363937D01*
X68903937Y-77219774D01*
X69017205Y-77050256D01*
X69095226Y-76861898D01*
X69135000Y-76661939D01*
X69135000Y-76458061D01*
X69095226Y-76258102D01*
X69017205Y-76069744D01*
X68903937Y-75900226D01*
X68759774Y-75756063D01*
X68590256Y-75642795D01*
X68401898Y-75564774D01*
X68201939Y-75525000D01*
X67998061Y-75525000D01*
X67798102Y-75564774D01*
X67609744Y-75642795D01*
X67440226Y-75756063D01*
X67296063Y-75900226D01*
X67182795Y-76069744D01*
X67104774Y-76258102D01*
X67065000Y-76458061D01*
X59757930Y-76458061D01*
X59717205Y-76359744D01*
X59681567Y-76306408D01*
X59836962Y-76151013D01*
X59983061Y-75932359D01*
X60083696Y-75689405D01*
X60135000Y-75431486D01*
X60135000Y-75168514D01*
X60083696Y-74910595D01*
X59983061Y-74667641D01*
X59836962Y-74448987D01*
X59651013Y-74263038D01*
X59432359Y-74116939D01*
X59189405Y-74016304D01*
X58931486Y-73965000D01*
X58668514Y-73965000D01*
X58410595Y-74016304D01*
X58167641Y-74116939D01*
X57948987Y-74263038D01*
X57763038Y-74448987D01*
X57616939Y-74667641D01*
X57575000Y-74768891D01*
X57533061Y-74667641D01*
X57386962Y-74448987D01*
X57201013Y-74263038D01*
X56982359Y-74116939D01*
X56739405Y-74016304D01*
X56481486Y-73965000D01*
X56218514Y-73965000D01*
X55960595Y-74016304D01*
X55717641Y-74116939D01*
X55498987Y-74263038D01*
X55313038Y-74448987D01*
X55166939Y-74667641D01*
X55066304Y-74910595D01*
X55015000Y-75168514D01*
X45710000Y-75168514D01*
X45710000Y-70088514D01*
X55015000Y-70088514D01*
X55015000Y-70351486D01*
X55066304Y-70609405D01*
X55166939Y-70852359D01*
X55313038Y-71071013D01*
X55498987Y-71256962D01*
X55717641Y-71403061D01*
X55960595Y-71503696D01*
X56218514Y-71555000D01*
X56481486Y-71555000D01*
X56739405Y-71503696D01*
X56982359Y-71403061D01*
X57201013Y-71256962D01*
X57386962Y-71071013D01*
X57533061Y-70852359D01*
X57575000Y-70751109D01*
X57616939Y-70852359D01*
X57763038Y-71071013D01*
X57948987Y-71256962D01*
X58167641Y-71403061D01*
X58410595Y-71503696D01*
X58668514Y-71555000D01*
X58931486Y-71555000D01*
X59189405Y-71503696D01*
X59432359Y-71403061D01*
X59651013Y-71256962D01*
X59836962Y-71071013D01*
X59983061Y-70852359D01*
X60083696Y-70609405D01*
X60135000Y-70351486D01*
X60135000Y-70088514D01*
X60083696Y-69830595D01*
X59983061Y-69587641D01*
X59836962Y-69368987D01*
X59651013Y-69183038D01*
X59432359Y-69036939D01*
X59189405Y-68936304D01*
X58931486Y-68885000D01*
X58668514Y-68885000D01*
X58410595Y-68936304D01*
X58167641Y-69036939D01*
X57948987Y-69183038D01*
X57763038Y-69368987D01*
X57616939Y-69587641D01*
X57575000Y-69688891D01*
X57533061Y-69587641D01*
X57386962Y-69368987D01*
X57201013Y-69183038D01*
X56982359Y-69036939D01*
X56739405Y-68936304D01*
X56481486Y-68885000D01*
X56218514Y-68885000D01*
X55960595Y-68936304D01*
X55717641Y-69036939D01*
X55498987Y-69183038D01*
X55313038Y-69368987D01*
X55166939Y-69587641D01*
X55066304Y-69830595D01*
X55015000Y-70088514D01*
X45710000Y-70088514D01*
X45710000Y-59150000D01*
X48511928Y-59150000D01*
X48511928Y-60850000D01*
X48524188Y-60974482D01*
X48560498Y-61094180D01*
X48619463Y-61204494D01*
X48673222Y-61270000D01*
X48619463Y-61335506D01*
X48560498Y-61445820D01*
X48524188Y-61565518D01*
X48511928Y-61690000D01*
X48511928Y-63390000D01*
X48524188Y-63514482D01*
X48560498Y-63634180D01*
X48619463Y-63744494D01*
X48673222Y-63810000D01*
X48619463Y-63875506D01*
X48560498Y-63985820D01*
X48524188Y-64105518D01*
X48511928Y-64230000D01*
X48511928Y-65930000D01*
X48524188Y-66054482D01*
X48560498Y-66174180D01*
X48619463Y-66284494D01*
X48673222Y-66350000D01*
X48619463Y-66415506D01*
X48560498Y-66525820D01*
X48524188Y-66645518D01*
X48511928Y-66770000D01*
X48511928Y-68470000D01*
X48524188Y-68594482D01*
X48560498Y-68714180D01*
X48619463Y-68824494D01*
X48698815Y-68921185D01*
X48795506Y-69000537D01*
X48905820Y-69059502D01*
X49025518Y-69095812D01*
X49150000Y-69108072D01*
X50850000Y-69108072D01*
X50974482Y-69095812D01*
X51094180Y-69059502D01*
X51204494Y-69000537D01*
X51301185Y-68921185D01*
X51380537Y-68824494D01*
X51439502Y-68714180D01*
X51461513Y-68641620D01*
X51593368Y-68773475D01*
X51836589Y-68935990D01*
X52106842Y-69047932D01*
X52393740Y-69105000D01*
X52686260Y-69105000D01*
X52973158Y-69047932D01*
X53243411Y-68935990D01*
X53486632Y-68773475D01*
X53693475Y-68566632D01*
X53855990Y-68323411D01*
X53967932Y-68053158D01*
X54025000Y-67766260D01*
X54025000Y-67473740D01*
X53967932Y-67186842D01*
X53855990Y-66916589D01*
X53693475Y-66673368D01*
X53486632Y-66466525D01*
X53312240Y-66350000D01*
X53486632Y-66233475D01*
X53693475Y-66026632D01*
X53855990Y-65783411D01*
X53967932Y-65513158D01*
X54025000Y-65226260D01*
X54025000Y-64933740D01*
X53967932Y-64646842D01*
X53855990Y-64376589D01*
X53693475Y-64133368D01*
X53486632Y-63926525D01*
X53312240Y-63810000D01*
X53486632Y-63693475D01*
X53693475Y-63486632D01*
X53801474Y-63325000D01*
X55711622Y-63325000D01*
X55664773Y-63438103D01*
X55624999Y-63638062D01*
X55624999Y-63841940D01*
X55664773Y-64041899D01*
X55742794Y-64230257D01*
X55856062Y-64399775D01*
X56000225Y-64543938D01*
X56169743Y-64657206D01*
X56358101Y-64735227D01*
X56558060Y-64775001D01*
X56761938Y-64775001D01*
X56961897Y-64735227D01*
X57150255Y-64657206D01*
X57319773Y-64543938D01*
X57338710Y-64525001D01*
X66594844Y-64525001D01*
X71247654Y-69177811D01*
X71272237Y-69207765D01*
X71391768Y-69305863D01*
X71528141Y-69378755D01*
X71676114Y-69423643D01*
X71751027Y-69431021D01*
X71791440Y-69435001D01*
X71791445Y-69435001D01*
X71830001Y-69438798D01*
X71868557Y-69435001D01*
X74636717Y-69435001D01*
X74759744Y-69517205D01*
X74948102Y-69595226D01*
X75148061Y-69635000D01*
X75351939Y-69635000D01*
X75551898Y-69595226D01*
X75740256Y-69517205D01*
X75909774Y-69403937D01*
X76053937Y-69259774D01*
X76167205Y-69090256D01*
X76245226Y-68901898D01*
X76285000Y-68701939D01*
X76285000Y-68498061D01*
X76245226Y-68298102D01*
X76167205Y-68109744D01*
X76053937Y-67940226D01*
X75909774Y-67796063D01*
X75740256Y-67682795D01*
X75551898Y-67604774D01*
X75351939Y-67565000D01*
X75148061Y-67565000D01*
X74948102Y-67604774D01*
X74759744Y-67682795D01*
X74590226Y-67796063D01*
X74521288Y-67865001D01*
X72155158Y-67865001D01*
X70088218Y-65798061D01*
X70795000Y-65798061D01*
X70795000Y-66001939D01*
X70834774Y-66201898D01*
X70912795Y-66390256D01*
X71026063Y-66559774D01*
X71170226Y-66703937D01*
X71339744Y-66817205D01*
X71528102Y-66895226D01*
X71728061Y-66935000D01*
X71931939Y-66935000D01*
X72131898Y-66895226D01*
X72320256Y-66817205D01*
X72489774Y-66703937D01*
X72633937Y-66559774D01*
X72747205Y-66390256D01*
X72825226Y-66201898D01*
X72865000Y-66001939D01*
X72865000Y-65798061D01*
X72825226Y-65598102D01*
X72747205Y-65409744D01*
X72633937Y-65240226D01*
X72489774Y-65096063D01*
X72320256Y-64982795D01*
X72131898Y-64904774D01*
X71931939Y-64865000D01*
X71728061Y-64865000D01*
X71528102Y-64904774D01*
X71339744Y-64982795D01*
X71170226Y-65096063D01*
X71026063Y-65240226D01*
X70912795Y-65409744D01*
X70834774Y-65598102D01*
X70795000Y-65798061D01*
X70088218Y-65798061D01*
X67615157Y-63325000D01*
X70121447Y-63325000D01*
X70160000Y-63328797D01*
X70198553Y-63325000D01*
X70198561Y-63325000D01*
X70313887Y-63313641D01*
X70461860Y-63268754D01*
X70598233Y-63195862D01*
X70717764Y-63097764D01*
X70742347Y-63067810D01*
X71475157Y-62335000D01*
X71501939Y-62335000D01*
X71701898Y-62295226D01*
X71890256Y-62217205D01*
X72059774Y-62103937D01*
X72203937Y-61959774D01*
X72317205Y-61790256D01*
X72395226Y-61601898D01*
X72395989Y-61598061D01*
X73195000Y-61598061D01*
X73195000Y-61801939D01*
X73234774Y-62001898D01*
X73312795Y-62190256D01*
X73426063Y-62359774D01*
X73570226Y-62503937D01*
X73739744Y-62617205D01*
X73928102Y-62695226D01*
X74128061Y-62735000D01*
X74331939Y-62735000D01*
X74531898Y-62695226D01*
X74720256Y-62617205D01*
X74889774Y-62503937D01*
X75033937Y-62359774D01*
X75147205Y-62190256D01*
X75225226Y-62001898D01*
X75265000Y-61801939D01*
X75265000Y-61598061D01*
X75225226Y-61398102D01*
X75147205Y-61209744D01*
X75033937Y-61040226D01*
X74889774Y-60896063D01*
X74720256Y-60782795D01*
X74531898Y-60704774D01*
X74331939Y-60665000D01*
X74128061Y-60665000D01*
X73928102Y-60704774D01*
X73739744Y-60782795D01*
X73570226Y-60896063D01*
X73426063Y-61040226D01*
X73312795Y-61209744D01*
X73234774Y-61398102D01*
X73195000Y-61598061D01*
X72395989Y-61598061D01*
X72435000Y-61401939D01*
X72435000Y-61198061D01*
X72395226Y-60998102D01*
X72317205Y-60809744D01*
X72203937Y-60640226D01*
X72059774Y-60496063D01*
X71890256Y-60382795D01*
X71701898Y-60304774D01*
X71501939Y-60265000D01*
X71298061Y-60265000D01*
X71098102Y-60304774D01*
X70909744Y-60382795D01*
X70740226Y-60496063D01*
X70596063Y-60640226D01*
X70482795Y-60809744D01*
X70404774Y-60998102D01*
X70365000Y-61198061D01*
X70365000Y-61224843D01*
X69834843Y-61755000D01*
X53801474Y-61755000D01*
X53693475Y-61593368D01*
X53486632Y-61386525D01*
X53310594Y-61268900D01*
X53540269Y-61097588D01*
X53735178Y-60881355D01*
X53884157Y-60631252D01*
X53981481Y-60356891D01*
X53860814Y-60127000D01*
X52667000Y-60127000D01*
X52667000Y-60147000D01*
X52413000Y-60147000D01*
X52413000Y-60127000D01*
X52393000Y-60127000D01*
X52393000Y-59873000D01*
X52413000Y-59873000D01*
X52413000Y-58679845D01*
X52667000Y-58679845D01*
X52667000Y-59873000D01*
X53860814Y-59873000D01*
X53981481Y-59643109D01*
X53884157Y-59368748D01*
X53735178Y-59118645D01*
X53540269Y-58902412D01*
X53306920Y-58728359D01*
X53044099Y-58603175D01*
X52896890Y-58558524D01*
X52667000Y-58679845D01*
X52413000Y-58679845D01*
X52183110Y-58558524D01*
X52035901Y-58603175D01*
X51773080Y-58728359D01*
X51539731Y-58902412D01*
X51463966Y-58986466D01*
X51439502Y-58905820D01*
X51380537Y-58795506D01*
X51301185Y-58698815D01*
X51204494Y-58619463D01*
X51094180Y-58560498D01*
X50974482Y-58524188D01*
X50850000Y-58511928D01*
X49150000Y-58511928D01*
X49025518Y-58524188D01*
X48905820Y-58560498D01*
X48795506Y-58619463D01*
X48698815Y-58698815D01*
X48619463Y-58795506D01*
X48560498Y-58905820D01*
X48524188Y-59025518D01*
X48511928Y-59150000D01*
X45710000Y-59150000D01*
X45710000Y-56198061D01*
X69265000Y-56198061D01*
X69265000Y-56401939D01*
X69304774Y-56601898D01*
X69382795Y-56790256D01*
X69496063Y-56959774D01*
X69640226Y-57103937D01*
X69809744Y-57217205D01*
X69998102Y-57295226D01*
X70198061Y-57335000D01*
X70401939Y-57335000D01*
X70601898Y-57295226D01*
X70790256Y-57217205D01*
X70959774Y-57103937D01*
X71103937Y-56959774D01*
X71217205Y-56790256D01*
X71295226Y-56601898D01*
X71335000Y-56401939D01*
X71335000Y-56198061D01*
X72545000Y-56198061D01*
X72545000Y-56401939D01*
X72584774Y-56601898D01*
X72662795Y-56790256D01*
X72776063Y-56959774D01*
X72920226Y-57103937D01*
X73089744Y-57217205D01*
X73278102Y-57295226D01*
X73478061Y-57335000D01*
X73504843Y-57335000D01*
X75107653Y-58937810D01*
X75132236Y-58967764D01*
X75251767Y-59065862D01*
X75388140Y-59138754D01*
X75536113Y-59183642D01*
X75611026Y-59191020D01*
X75651439Y-59195000D01*
X75651444Y-59195000D01*
X75690000Y-59198797D01*
X75728556Y-59195000D01*
X81944845Y-59195000D01*
X83508360Y-60758515D01*
X83449744Y-60782795D01*
X83280226Y-60896063D01*
X83136063Y-61040226D01*
X83022795Y-61209744D01*
X82944774Y-61398102D01*
X82905000Y-61598061D01*
X82905000Y-61624842D01*
X80454310Y-64075533D01*
X80424356Y-64100116D01*
X80326258Y-64219648D01*
X80253366Y-64356021D01*
X80208479Y-64503994D01*
X80197120Y-64619320D01*
X80197120Y-64619327D01*
X80193323Y-64657880D01*
X80197120Y-64696433D01*
X80197120Y-64809320D01*
X80197121Y-68121288D01*
X80178183Y-68140226D01*
X80064915Y-68309744D01*
X79986894Y-68498102D01*
X79947120Y-68698061D01*
X79947120Y-68901939D01*
X79980647Y-69070490D01*
X79535000Y-68624843D01*
X79535000Y-68538711D01*
X79553937Y-68519774D01*
X79667205Y-68350256D01*
X79745226Y-68161898D01*
X79785000Y-67961939D01*
X79785000Y-67758061D01*
X79745226Y-67558102D01*
X79667205Y-67369744D01*
X79553937Y-67200226D01*
X79409774Y-67056063D01*
X79240256Y-66942795D01*
X79051898Y-66864774D01*
X78851939Y-66825000D01*
X78648061Y-66825000D01*
X78448102Y-66864774D01*
X78259744Y-66942795D01*
X78090226Y-67056063D01*
X77946063Y-67200226D01*
X77832795Y-67369744D01*
X77754774Y-67558102D01*
X77715000Y-67758061D01*
X77715000Y-67961939D01*
X77754774Y-68161898D01*
X77832795Y-68350256D01*
X77946063Y-68519774D01*
X77965001Y-68538712D01*
X77965001Y-68911438D01*
X77961203Y-68950000D01*
X77976359Y-69103886D01*
X78021246Y-69251859D01*
X78021247Y-69251860D01*
X78094139Y-69388233D01*
X78123199Y-69423642D01*
X78167655Y-69477812D01*
X78167659Y-69477816D01*
X78192237Y-69507764D01*
X78222185Y-69532342D01*
X91865001Y-83175158D01*
X91865000Y-85954842D01*
X86782347Y-80872190D01*
X86757764Y-80842236D01*
X86638233Y-80744138D01*
X86501860Y-80671246D01*
X86353887Y-80626359D01*
X86238561Y-80615000D01*
X86238553Y-80615000D01*
X86200000Y-80611203D01*
X86161447Y-80615000D01*
X79055158Y-80615000D01*
X77825000Y-79384843D01*
X77825000Y-79358061D01*
X77785226Y-79158102D01*
X77707205Y-78969744D01*
X77593937Y-78800226D01*
X77449774Y-78656063D01*
X77280256Y-78542795D01*
X77091898Y-78464774D01*
X76891939Y-78425000D01*
X76688061Y-78425000D01*
X76488102Y-78464774D01*
X76299744Y-78542795D01*
X76130226Y-78656063D01*
X75986063Y-78800226D01*
X75872795Y-78969744D01*
X75794774Y-79158102D01*
X75759306Y-79336411D01*
X75701939Y-79325000D01*
X75498061Y-79325000D01*
X75298102Y-79364774D01*
X75109744Y-79442795D01*
X74940226Y-79556063D01*
X74796063Y-79700226D01*
X74682795Y-79869744D01*
X74604774Y-80058102D01*
X74565000Y-80258061D01*
X74565000Y-80461939D01*
X74604774Y-80661898D01*
X74682795Y-80850256D01*
X74796063Y-81019774D01*
X74940226Y-81163937D01*
X75109744Y-81277205D01*
X75298102Y-81355226D01*
X75498061Y-81395000D01*
X75701939Y-81395000D01*
X75901898Y-81355226D01*
X76090256Y-81277205D01*
X76259774Y-81163937D01*
X76403937Y-81019774D01*
X76517205Y-80850256D01*
X76595226Y-80661898D01*
X76630694Y-80483589D01*
X76688061Y-80495000D01*
X76714843Y-80495000D01*
X78147658Y-81927816D01*
X78172236Y-81957764D01*
X78202184Y-81982342D01*
X78202187Y-81982345D01*
X78229517Y-82004774D01*
X78291767Y-82055862D01*
X78428140Y-82128754D01*
X78541672Y-82163194D01*
X78576112Y-82173641D01*
X78590490Y-82175057D01*
X78691439Y-82185000D01*
X78691446Y-82185000D01*
X78729999Y-82188797D01*
X78768552Y-82185000D01*
X85874843Y-82185000D01*
X90595001Y-86905159D01*
X90595000Y-88321289D01*
X90576063Y-88340226D01*
X90462795Y-88509744D01*
X90384774Y-88698102D01*
X90345000Y-88898061D01*
X90345000Y-89101939D01*
X90384774Y-89301898D01*
X90462795Y-89490256D01*
X90576063Y-89659774D01*
X90720226Y-89803937D01*
X90889744Y-89917205D01*
X91078102Y-89995226D01*
X91278061Y-90035000D01*
X91481939Y-90035000D01*
X91681898Y-89995226D01*
X91870256Y-89917205D01*
X92015000Y-89820490D01*
X92159744Y-89917205D01*
X92348102Y-89995226D01*
X92548061Y-90035000D01*
X92751939Y-90035000D01*
X92951898Y-89995226D01*
X93140256Y-89917205D01*
X93309774Y-89803937D01*
X93453937Y-89659774D01*
X93567205Y-89490256D01*
X93645226Y-89301898D01*
X93685000Y-89101939D01*
X93685000Y-88898061D01*
X93645226Y-88698102D01*
X93567205Y-88509744D01*
X93453937Y-88340226D01*
X93435000Y-88321289D01*
X93435000Y-82898061D01*
X94965000Y-82898061D01*
X94965000Y-83101939D01*
X95004774Y-83301898D01*
X95082795Y-83490256D01*
X95089306Y-83500000D01*
X95082795Y-83509744D01*
X95004774Y-83698102D01*
X94965000Y-83898061D01*
X94965000Y-84101939D01*
X95004774Y-84301898D01*
X95082795Y-84490256D01*
X95196063Y-84659774D01*
X95340226Y-84803937D01*
X95509744Y-84917205D01*
X95698102Y-84995226D01*
X95898061Y-85035000D01*
X96101939Y-85035000D01*
X96301898Y-84995226D01*
X96490256Y-84917205D01*
X96659774Y-84803937D01*
X96678711Y-84785000D01*
X98467723Y-84785000D01*
X98710529Y-85027805D01*
X98735116Y-85057764D01*
X98854647Y-85155862D01*
X98991020Y-85228754D01*
X99138993Y-85273642D01*
X99213906Y-85281020D01*
X99254319Y-85285000D01*
X99254324Y-85285000D01*
X99292880Y-85288797D01*
X99331436Y-85285000D01*
X104134843Y-85285000D01*
X106635001Y-87785158D01*
X106635000Y-88321289D01*
X106616063Y-88340226D01*
X106502795Y-88509744D01*
X106424774Y-88698102D01*
X106385000Y-88898061D01*
X106385000Y-89101939D01*
X106424774Y-89301898D01*
X106502795Y-89490256D01*
X106616063Y-89659774D01*
X106760226Y-89803937D01*
X106929744Y-89917205D01*
X107118102Y-89995226D01*
X107318061Y-90035000D01*
X107521939Y-90035000D01*
X107721898Y-89995226D01*
X107910256Y-89917205D01*
X108040000Y-89830513D01*
X108169744Y-89917205D01*
X108358102Y-89995226D01*
X108558061Y-90035000D01*
X108761939Y-90035000D01*
X108961898Y-89995226D01*
X109150256Y-89917205D01*
X109319774Y-89803937D01*
X109463937Y-89659774D01*
X109577205Y-89490256D01*
X109655226Y-89301898D01*
X109695000Y-89101939D01*
X109695000Y-88898061D01*
X109655226Y-88698102D01*
X109577205Y-88509744D01*
X109463937Y-88340226D01*
X109445000Y-88321289D01*
X109445000Y-87078556D01*
X109448797Y-87040000D01*
X109445000Y-87001444D01*
X109445000Y-87001439D01*
X109441020Y-86961026D01*
X109433642Y-86886113D01*
X109388754Y-86738140D01*
X109362357Y-86688754D01*
X109315862Y-86601767D01*
X109217764Y-86482236D01*
X109187810Y-86457653D01*
X107192350Y-84462193D01*
X107192345Y-84462187D01*
X106884044Y-84153886D01*
X106202345Y-83472188D01*
X106177764Y-83442236D01*
X106058233Y-83344138D01*
X105921860Y-83271246D01*
X105773887Y-83226359D01*
X105658561Y-83215000D01*
X105658553Y-83215000D01*
X105620000Y-83211203D01*
X105581447Y-83215000D01*
X99825157Y-83215000D01*
X99082347Y-82472190D01*
X99057764Y-82442236D01*
X98938233Y-82344138D01*
X98801860Y-82271246D01*
X98653887Y-82226359D01*
X98538561Y-82215000D01*
X98538553Y-82215000D01*
X98500000Y-82211203D01*
X98461447Y-82215000D01*
X96678711Y-82215000D01*
X96659774Y-82196063D01*
X96490256Y-82082795D01*
X96301898Y-82004774D01*
X96101939Y-81965000D01*
X95898061Y-81965000D01*
X95698102Y-82004774D01*
X95509744Y-82082795D01*
X95340226Y-82196063D01*
X95196063Y-82340226D01*
X95082795Y-82509744D01*
X95004774Y-82698102D01*
X94965000Y-82898061D01*
X93435000Y-82898061D01*
X93435000Y-82888556D01*
X93438797Y-82850000D01*
X93435000Y-82811444D01*
X93435000Y-82811439D01*
X93429943Y-82760095D01*
X93423642Y-82696113D01*
X93378754Y-82548140D01*
X93358231Y-82509744D01*
X93305862Y-82411767D01*
X93207764Y-82292236D01*
X93177810Y-82267653D01*
X80711630Y-69801473D01*
X80880181Y-69835000D01*
X81084059Y-69835000D01*
X81284018Y-69795226D01*
X81472376Y-69717205D01*
X81641894Y-69603937D01*
X81786057Y-69459774D01*
X81899325Y-69290256D01*
X81977346Y-69101898D01*
X82017120Y-68901939D01*
X82017120Y-68698061D01*
X81977346Y-68498102D01*
X81899325Y-68309744D01*
X81786057Y-68140226D01*
X81767120Y-68121289D01*
X81767120Y-64983037D01*
X81952096Y-64798061D01*
X83165000Y-64798061D01*
X83165000Y-65001939D01*
X83204774Y-65201898D01*
X83282795Y-65390256D01*
X83396063Y-65559774D01*
X83540226Y-65703937D01*
X83709744Y-65817205D01*
X83898102Y-65895226D01*
X84098061Y-65935000D01*
X84301939Y-65935000D01*
X84501898Y-65895226D01*
X84690256Y-65817205D01*
X84859774Y-65703937D01*
X85003937Y-65559774D01*
X85117205Y-65390256D01*
X85195226Y-65201898D01*
X85235000Y-65001939D01*
X85235000Y-64798061D01*
X85195226Y-64598102D01*
X85117205Y-64409744D01*
X85003937Y-64240226D01*
X84859774Y-64096063D01*
X84690256Y-63982795D01*
X84501898Y-63904774D01*
X84301939Y-63865000D01*
X84098061Y-63865000D01*
X83898102Y-63904774D01*
X83709744Y-63982795D01*
X83540226Y-64096063D01*
X83396063Y-64240226D01*
X83282795Y-64409744D01*
X83204774Y-64598102D01*
X83165000Y-64798061D01*
X81952096Y-64798061D01*
X84015158Y-62735000D01*
X84041939Y-62735000D01*
X84241898Y-62695226D01*
X84430256Y-62617205D01*
X84599774Y-62503937D01*
X84743937Y-62359774D01*
X84857205Y-62190256D01*
X84881485Y-62131640D01*
X85885001Y-63135156D01*
X85885000Y-71021289D01*
X85866063Y-71040226D01*
X85752795Y-71209744D01*
X85674774Y-71398102D01*
X85635000Y-71598061D01*
X85635000Y-71801939D01*
X85674774Y-72001898D01*
X85752795Y-72190256D01*
X85866063Y-72359774D01*
X86010226Y-72503937D01*
X86179744Y-72617205D01*
X86368102Y-72695226D01*
X86568061Y-72735000D01*
X86771939Y-72735000D01*
X86971898Y-72695226D01*
X87160256Y-72617205D01*
X87329774Y-72503937D01*
X87473937Y-72359774D01*
X87583206Y-72196241D01*
X87778061Y-72235000D01*
X87981939Y-72235000D01*
X88181898Y-72195226D01*
X88370256Y-72117205D01*
X88539774Y-72003937D01*
X88683937Y-71859774D01*
X88797205Y-71690256D01*
X88875226Y-71501898D01*
X88915000Y-71301939D01*
X88915000Y-71098061D01*
X88875226Y-70898102D01*
X88797205Y-70709744D01*
X88683937Y-70540226D01*
X88665000Y-70521289D01*
X88665000Y-62978555D01*
X88668797Y-62940000D01*
X88665000Y-62901440D01*
X88665000Y-62901439D01*
X88658599Y-62836449D01*
X88653642Y-62786113D01*
X88608754Y-62638140D01*
X88597564Y-62617205D01*
X88535862Y-62501767D01*
X88437764Y-62382236D01*
X88407817Y-62357659D01*
X82862347Y-56812190D01*
X82837764Y-56782236D01*
X82718233Y-56684138D01*
X82581860Y-56611246D01*
X82433887Y-56566359D01*
X82318561Y-56555000D01*
X82318553Y-56555000D01*
X82280000Y-56551203D01*
X82241447Y-56555000D01*
X80704555Y-56555000D01*
X80735000Y-56401939D01*
X80735000Y-56198061D01*
X80695226Y-55998102D01*
X80617205Y-55809744D01*
X80503937Y-55640226D01*
X80359774Y-55496063D01*
X80190256Y-55382795D01*
X80001898Y-55304774D01*
X79801939Y-55265000D01*
X79598061Y-55265000D01*
X79398102Y-55304774D01*
X79209744Y-55382795D01*
X79040226Y-55496063D01*
X78896063Y-55640226D01*
X78782795Y-55809744D01*
X78704774Y-55998102D01*
X78665000Y-56198061D01*
X78665000Y-56401939D01*
X78695445Y-56555000D01*
X78178711Y-56555000D01*
X78159774Y-56536063D01*
X77990256Y-56422795D01*
X77801898Y-56344774D01*
X77601939Y-56305000D01*
X77398061Y-56305000D01*
X77198102Y-56344774D01*
X77009744Y-56422795D01*
X76840226Y-56536063D01*
X76696063Y-56680226D01*
X76582795Y-56849744D01*
X76504774Y-57038102D01*
X76465000Y-57238061D01*
X76465000Y-57441939D01*
X76501413Y-57625000D01*
X76015157Y-57625000D01*
X74615000Y-56224843D01*
X74615000Y-56198061D01*
X74575226Y-55998102D01*
X74497205Y-55809744D01*
X74383937Y-55640226D01*
X74239774Y-55496063D01*
X74070256Y-55382795D01*
X73881898Y-55304774D01*
X73681939Y-55265000D01*
X73478061Y-55265000D01*
X73278102Y-55304774D01*
X73089744Y-55382795D01*
X72920226Y-55496063D01*
X72776063Y-55640226D01*
X72662795Y-55809744D01*
X72584774Y-55998102D01*
X72545000Y-56198061D01*
X71335000Y-56198061D01*
X71295226Y-55998102D01*
X71217205Y-55809744D01*
X71103937Y-55640226D01*
X70959774Y-55496063D01*
X70790256Y-55382795D01*
X70601898Y-55304774D01*
X70401939Y-55265000D01*
X70198061Y-55265000D01*
X69998102Y-55304774D01*
X69809744Y-55382795D01*
X69640226Y-55496063D01*
X69496063Y-55640226D01*
X69382795Y-55809744D01*
X69304774Y-55998102D01*
X69265000Y-56198061D01*
X45710000Y-56198061D01*
X45710000Y-53482818D01*
X46696787Y-53482818D01*
X47188946Y-54085149D01*
X48039933Y-54555063D01*
X48966243Y-54849929D01*
X49932281Y-54958414D01*
X50900921Y-54876351D01*
X51834938Y-54606893D01*
X52698440Y-54160394D01*
X52811054Y-54085149D01*
X53303213Y-53482818D01*
X50000000Y-50179605D01*
X46696787Y-53482818D01*
X45710000Y-53482818D01*
X45710000Y-52447790D01*
X45839606Y-52698440D01*
X45914851Y-52811054D01*
X46517182Y-53303213D01*
X49820395Y-50000000D01*
X50179605Y-50000000D01*
X53482818Y-53303213D01*
X54085149Y-52811054D01*
X54555063Y-51960067D01*
X54849929Y-51033757D01*
X54958414Y-50067719D01*
X54942248Y-49876890D01*
X55250048Y-49876890D01*
X55250048Y-50123110D01*
X55298083Y-50364598D01*
X55392307Y-50592074D01*
X55529099Y-50796798D01*
X55703202Y-50970901D01*
X55907926Y-51107693D01*
X56135402Y-51201917D01*
X56376890Y-51249952D01*
X56623110Y-51249952D01*
X56864598Y-51201917D01*
X57092074Y-51107693D01*
X57296798Y-50970901D01*
X57470901Y-50796798D01*
X57607693Y-50592074D01*
X57701917Y-50364598D01*
X57749952Y-50123110D01*
X57749952Y-49876890D01*
X57701917Y-49635402D01*
X57607693Y-49407926D01*
X57470901Y-49203202D01*
X57296798Y-49029099D01*
X57092074Y-48892307D01*
X56864598Y-48798083D01*
X56623110Y-48750048D01*
X56376890Y-48750048D01*
X56135402Y-48798083D01*
X55907926Y-48892307D01*
X55703202Y-49029099D01*
X55529099Y-49203202D01*
X55392307Y-49407926D01*
X55298083Y-49635402D01*
X55250048Y-49876890D01*
X54942248Y-49876890D01*
X54876351Y-49099079D01*
X54732370Y-48600000D01*
X65321928Y-48600000D01*
X65321928Y-51600000D01*
X65334188Y-51724482D01*
X65370498Y-51844180D01*
X65429463Y-51954494D01*
X65508815Y-52051185D01*
X65605506Y-52130537D01*
X65715820Y-52189502D01*
X65835518Y-52225812D01*
X65960000Y-52238072D01*
X68960000Y-52238072D01*
X69084482Y-52225812D01*
X69204180Y-52189502D01*
X69314494Y-52130537D01*
X69411185Y-52051185D01*
X69490537Y-51954494D01*
X69549502Y-51844180D01*
X69585812Y-51724482D01*
X69598072Y-51600000D01*
X69598072Y-49889721D01*
X70405000Y-49889721D01*
X70405000Y-50310279D01*
X70487047Y-50722756D01*
X70647988Y-51111302D01*
X70881637Y-51460983D01*
X71179017Y-51758363D01*
X71528698Y-51992012D01*
X71917244Y-52152953D01*
X72329721Y-52235000D01*
X72750279Y-52235000D01*
X73162756Y-52152953D01*
X73551302Y-51992012D01*
X73900983Y-51758363D01*
X74198363Y-51460983D01*
X74432012Y-51111302D01*
X74592953Y-50722756D01*
X74675000Y-50310279D01*
X74675000Y-49889721D01*
X74592953Y-49477244D01*
X74432012Y-49088698D01*
X74198363Y-48739017D01*
X74059346Y-48600000D01*
X75421928Y-48600000D01*
X75421928Y-51600000D01*
X75434188Y-51724482D01*
X75470498Y-51844180D01*
X75529463Y-51954494D01*
X75608815Y-52051185D01*
X75705506Y-52130537D01*
X75815820Y-52189502D01*
X75935518Y-52225812D01*
X76060000Y-52238072D01*
X79060000Y-52238072D01*
X79184482Y-52225812D01*
X79304180Y-52189502D01*
X79414494Y-52130537D01*
X79511185Y-52051185D01*
X79590537Y-51954494D01*
X79649502Y-51844180D01*
X79685812Y-51724482D01*
X79698072Y-51600000D01*
X79698072Y-51591653D01*
X81327952Y-51591653D01*
X81483962Y-51907214D01*
X81858745Y-52098020D01*
X82263551Y-52212044D01*
X82682824Y-52244902D01*
X83100451Y-52195334D01*
X83500383Y-52065243D01*
X83796038Y-51907214D01*
X83952048Y-51591653D01*
X82640000Y-50279605D01*
X81327952Y-51591653D01*
X79698072Y-51591653D01*
X79698072Y-50142824D01*
X80495098Y-50142824D01*
X80544666Y-50560451D01*
X80674757Y-50960383D01*
X80832786Y-51256038D01*
X81148347Y-51412048D01*
X82460395Y-50100000D01*
X82819605Y-50100000D01*
X84131653Y-51412048D01*
X84447214Y-51256038D01*
X84638020Y-50881255D01*
X84752044Y-50476449D01*
X84784902Y-50057176D01*
X84735334Y-49639549D01*
X84605243Y-49239617D01*
X84447214Y-48943962D01*
X84131653Y-48787952D01*
X82819605Y-50100000D01*
X82460395Y-50100000D01*
X81148347Y-48787952D01*
X80832786Y-48943962D01*
X80641980Y-49318745D01*
X80527956Y-49723551D01*
X80495098Y-50142824D01*
X79698072Y-50142824D01*
X79698072Y-48608347D01*
X81327952Y-48608347D01*
X82640000Y-49920395D01*
X83952048Y-48608347D01*
X83947922Y-48600000D01*
X85611928Y-48600000D01*
X85611928Y-51600000D01*
X85624188Y-51724482D01*
X85660498Y-51844180D01*
X85719463Y-51954494D01*
X85798815Y-52051185D01*
X85895506Y-52130537D01*
X86005820Y-52189502D01*
X86125518Y-52225812D01*
X86250000Y-52238072D01*
X88777915Y-52238072D01*
X91305000Y-54765158D01*
X91304999Y-74749197D01*
X91199744Y-74792795D01*
X91030226Y-74906063D01*
X90886063Y-75050226D01*
X90772795Y-75219744D01*
X90694774Y-75408102D01*
X90655000Y-75608061D01*
X90655000Y-75811939D01*
X90694774Y-76011898D01*
X90772795Y-76200256D01*
X90886063Y-76369774D01*
X91030226Y-76513937D01*
X91199744Y-76627205D01*
X91388102Y-76705226D01*
X91588061Y-76745000D01*
X91791939Y-76745000D01*
X91991898Y-76705226D01*
X92180256Y-76627205D01*
X92349774Y-76513937D01*
X92493937Y-76369774D01*
X92607205Y-76200256D01*
X92685226Y-76011898D01*
X92725000Y-75811939D01*
X92725000Y-75773653D01*
X92745861Y-75748234D01*
X92818753Y-75611861D01*
X92863640Y-75463888D01*
X92874999Y-75348562D01*
X92874999Y-75348555D01*
X92878796Y-75310002D01*
X92874999Y-75271449D01*
X92874999Y-75098061D01*
X93965000Y-75098061D01*
X93965000Y-75301939D01*
X94004774Y-75501898D01*
X94082795Y-75690256D01*
X94196063Y-75859774D01*
X94340226Y-76003937D01*
X94509744Y-76117205D01*
X94698102Y-76195226D01*
X94898061Y-76235000D01*
X95101939Y-76235000D01*
X95301898Y-76195226D01*
X95490256Y-76117205D01*
X95659774Y-76003937D01*
X95803937Y-75859774D01*
X95917205Y-75690256D01*
X95995226Y-75501898D01*
X96035000Y-75301939D01*
X96035000Y-75098061D01*
X95995226Y-74898102D01*
X95917205Y-74709744D01*
X95803937Y-74540226D01*
X95708711Y-74445000D01*
X99421928Y-74445000D01*
X99425000Y-75634250D01*
X99583750Y-75793000D01*
X100060094Y-75793000D01*
X100055064Y-75885459D01*
X100089605Y-75920000D01*
X100055064Y-75954541D01*
X100060094Y-76047000D01*
X99583750Y-76047000D01*
X99425000Y-76205750D01*
X99421928Y-77395000D01*
X99434188Y-77519482D01*
X99470498Y-77639180D01*
X99529463Y-77749494D01*
X99608815Y-77846185D01*
X99705506Y-77925537D01*
X99815820Y-77984502D01*
X99935518Y-78020812D01*
X100060000Y-78033072D01*
X102024250Y-78030000D01*
X102183000Y-77871250D01*
X102183000Y-76969906D01*
X102242762Y-76973157D01*
X102244541Y-76974936D01*
X102260000Y-76974095D01*
X102275459Y-76974936D01*
X102277238Y-76973157D01*
X102437000Y-76964467D01*
X102437000Y-77871250D01*
X102595750Y-78030000D01*
X104560000Y-78033072D01*
X104684482Y-78020812D01*
X104804180Y-77984502D01*
X104914494Y-77925537D01*
X105011185Y-77846185D01*
X105090537Y-77749494D01*
X105149502Y-77639180D01*
X105185812Y-77519482D01*
X105198072Y-77395000D01*
X105195000Y-76205750D01*
X105036250Y-76047000D01*
X104559906Y-76047000D01*
X104564936Y-75954541D01*
X104530395Y-75920000D01*
X104564936Y-75885459D01*
X104559906Y-75793000D01*
X105036250Y-75793000D01*
X105195000Y-75634250D01*
X105198072Y-74445000D01*
X105185812Y-74320518D01*
X105149502Y-74200820D01*
X105090537Y-74090506D01*
X105011185Y-73993815D01*
X104914494Y-73914463D01*
X104804180Y-73855498D01*
X104684482Y-73819188D01*
X104560000Y-73806928D01*
X102595750Y-73810000D01*
X102437000Y-73968750D01*
X102437000Y-74875533D01*
X102277238Y-74866843D01*
X102275459Y-74865064D01*
X102260000Y-74865905D01*
X102244541Y-74865064D01*
X102242762Y-74866843D01*
X102183000Y-74870094D01*
X102183000Y-73968750D01*
X102024250Y-73810000D01*
X100060000Y-73806928D01*
X99935518Y-73819188D01*
X99815820Y-73855498D01*
X99705506Y-73914463D01*
X99608815Y-73993815D01*
X99529463Y-74090506D01*
X99470498Y-74200820D01*
X99434188Y-74320518D01*
X99421928Y-74445000D01*
X95708711Y-74445000D01*
X95659774Y-74396063D01*
X95490256Y-74282795D01*
X95301898Y-74204774D01*
X95101939Y-74165000D01*
X94898061Y-74165000D01*
X94698102Y-74204774D01*
X94509744Y-74282795D01*
X94340226Y-74396063D01*
X94196063Y-74540226D01*
X94082795Y-74709744D01*
X94004774Y-74898102D01*
X93965000Y-75098061D01*
X92874999Y-75098061D01*
X92874999Y-74293989D01*
X92909744Y-74317205D01*
X93098102Y-74395226D01*
X93298061Y-74435000D01*
X93501939Y-74435000D01*
X93701898Y-74395226D01*
X93890256Y-74317205D01*
X94059774Y-74203937D01*
X94203937Y-74059774D01*
X94317205Y-73890256D01*
X94395226Y-73701898D01*
X94435000Y-73501939D01*
X94435000Y-73298061D01*
X94395226Y-73098102D01*
X94317205Y-72909744D01*
X94203937Y-72740226D01*
X94185000Y-72721289D01*
X94185000Y-71930759D01*
X94282376Y-71995824D01*
X94488933Y-72081383D01*
X94708212Y-72125000D01*
X94931788Y-72125000D01*
X95151067Y-72081383D01*
X95357624Y-71995824D01*
X95543520Y-71871612D01*
X95701612Y-71713520D01*
X95825824Y-71527624D01*
X95911383Y-71321067D01*
X95955000Y-71101788D01*
X95955000Y-70878212D01*
X95911383Y-70658933D01*
X95825824Y-70452376D01*
X95739077Y-70322551D01*
X95795824Y-70237624D01*
X95875000Y-70046477D01*
X95954176Y-70237624D01*
X96078388Y-70423520D01*
X96236480Y-70581612D01*
X96422376Y-70705824D01*
X96628933Y-70791383D01*
X96848212Y-70835000D01*
X97071788Y-70835000D01*
X97291067Y-70791383D01*
X97497624Y-70705824D01*
X97655000Y-70600668D01*
X97812376Y-70705824D01*
X98018933Y-70791383D01*
X98238212Y-70835000D01*
X98461788Y-70835000D01*
X98681067Y-70791383D01*
X98887624Y-70705824D01*
X99073520Y-70581612D01*
X99231612Y-70423520D01*
X99355824Y-70237624D01*
X99441383Y-70031067D01*
X99485000Y-69811788D01*
X99485000Y-69588212D01*
X99441383Y-69368933D01*
X99355824Y-69162376D01*
X99231612Y-68976480D01*
X99073520Y-68818388D01*
X98887624Y-68694176D01*
X98681067Y-68608617D01*
X98461788Y-68565000D01*
X98238212Y-68565000D01*
X98018933Y-68608617D01*
X97812376Y-68694176D01*
X97655000Y-68799332D01*
X97497624Y-68694176D01*
X97291067Y-68608617D01*
X97071788Y-68565000D01*
X96848212Y-68565000D01*
X96628933Y-68608617D01*
X96422376Y-68694176D01*
X96236480Y-68818388D01*
X96078388Y-68976480D01*
X95954176Y-69162376D01*
X95875000Y-69353523D01*
X95795824Y-69162376D01*
X95671612Y-68976480D01*
X95513520Y-68818388D01*
X95327624Y-68694176D01*
X95121067Y-68608617D01*
X94901788Y-68565000D01*
X94678212Y-68565000D01*
X94458933Y-68608617D01*
X94252376Y-68694176D01*
X94185000Y-68739195D01*
X94185000Y-65198061D01*
X98095000Y-65198061D01*
X98095000Y-65401939D01*
X98134774Y-65601898D01*
X98212795Y-65790256D01*
X98326063Y-65959774D01*
X98470226Y-66103937D01*
X98639744Y-66217205D01*
X98828102Y-66295226D01*
X99028061Y-66335000D01*
X99231939Y-66335000D01*
X99431898Y-66295226D01*
X99620256Y-66217205D01*
X99789774Y-66103937D01*
X99853711Y-66040000D01*
X117961928Y-66040000D01*
X117961928Y-69040000D01*
X117974188Y-69164482D01*
X118010498Y-69284180D01*
X118069463Y-69394494D01*
X118148815Y-69491185D01*
X118245506Y-69570537D01*
X118355820Y-69629502D01*
X118475518Y-69665812D01*
X118600000Y-69678072D01*
X121600000Y-69678072D01*
X121724482Y-69665812D01*
X121844180Y-69629502D01*
X121954494Y-69570537D01*
X122051185Y-69491185D01*
X122130537Y-69394494D01*
X122189502Y-69284180D01*
X122225812Y-69164482D01*
X122238072Y-69040000D01*
X122238072Y-66040000D01*
X122225812Y-65915518D01*
X122189502Y-65795820D01*
X122130537Y-65685506D01*
X122051185Y-65588815D01*
X121954494Y-65509463D01*
X121844180Y-65450498D01*
X121724482Y-65414188D01*
X121600000Y-65401928D01*
X118600000Y-65401928D01*
X118475518Y-65414188D01*
X118355820Y-65450498D01*
X118245506Y-65509463D01*
X118148815Y-65588815D01*
X118069463Y-65685506D01*
X118010498Y-65795820D01*
X117974188Y-65915518D01*
X117961928Y-66040000D01*
X99853711Y-66040000D01*
X99933937Y-65959774D01*
X100047205Y-65790256D01*
X100125226Y-65601898D01*
X100165000Y-65401939D01*
X100165000Y-65198061D01*
X100125226Y-64998102D01*
X100047205Y-64809744D01*
X99933937Y-64640226D01*
X99789774Y-64496063D01*
X99620256Y-64382795D01*
X99431898Y-64304774D01*
X99231939Y-64265000D01*
X99028061Y-64265000D01*
X98828102Y-64304774D01*
X98639744Y-64382795D01*
X98470226Y-64496063D01*
X98326063Y-64640226D01*
X98212795Y-64809744D01*
X98134774Y-64998102D01*
X98095000Y-65198061D01*
X94185000Y-65198061D01*
X94185000Y-63951653D01*
X118787952Y-63951653D01*
X118943962Y-64267214D01*
X119318745Y-64458020D01*
X119723551Y-64572044D01*
X120142824Y-64604902D01*
X120560451Y-64555334D01*
X120960383Y-64425243D01*
X121256038Y-64267214D01*
X121412048Y-63951653D01*
X120100000Y-62639605D01*
X118787952Y-63951653D01*
X94185000Y-63951653D01*
X94185000Y-62502824D01*
X117955098Y-62502824D01*
X118004666Y-62920451D01*
X118134757Y-63320383D01*
X118292786Y-63616038D01*
X118608347Y-63772048D01*
X119920395Y-62460000D01*
X120279605Y-62460000D01*
X121591653Y-63772048D01*
X121907214Y-63616038D01*
X122098020Y-63241255D01*
X122212044Y-62836449D01*
X122244902Y-62417176D01*
X122195334Y-61999549D01*
X122065243Y-61599617D01*
X121907214Y-61303962D01*
X121591653Y-61147952D01*
X120279605Y-62460000D01*
X119920395Y-62460000D01*
X118608347Y-61147952D01*
X118292786Y-61303962D01*
X118101980Y-61678745D01*
X117987956Y-62083551D01*
X117955098Y-62502824D01*
X94185000Y-62502824D01*
X94185000Y-60968347D01*
X118787952Y-60968347D01*
X120100000Y-62280395D01*
X121412048Y-60968347D01*
X121256038Y-60652786D01*
X120881255Y-60461980D01*
X120476449Y-60347956D01*
X120057176Y-60315098D01*
X119639549Y-60364666D01*
X119239617Y-60494757D01*
X118943962Y-60652786D01*
X118787952Y-60968347D01*
X94185000Y-60968347D01*
X94185000Y-53482818D01*
X116696787Y-53482818D01*
X117188946Y-54085149D01*
X118039933Y-54555063D01*
X118966243Y-54849929D01*
X119932281Y-54958414D01*
X120900921Y-54876351D01*
X121834938Y-54606893D01*
X122698440Y-54160394D01*
X122811054Y-54085149D01*
X123303213Y-53482818D01*
X120000000Y-50179605D01*
X116696787Y-53482818D01*
X94185000Y-53482818D01*
X94185000Y-51762361D01*
X94190983Y-51758363D01*
X94488363Y-51460983D01*
X94722012Y-51111302D01*
X94882953Y-50722756D01*
X94965000Y-50310279D01*
X94965000Y-49889721D01*
X94916502Y-49645901D01*
X102415000Y-49645901D01*
X102415000Y-49894099D01*
X102463421Y-50137529D01*
X102558402Y-50366834D01*
X102696294Y-50573203D01*
X102871797Y-50748706D01*
X103078166Y-50886598D01*
X103307471Y-50981579D01*
X103550901Y-51030000D01*
X103799099Y-51030000D01*
X104042529Y-50981579D01*
X104271834Y-50886598D01*
X104478203Y-50748706D01*
X104653706Y-50573203D01*
X104791598Y-50366834D01*
X104886579Y-50137529D01*
X104935000Y-49894099D01*
X104935000Y-49645901D01*
X107265000Y-49645901D01*
X107265000Y-49894099D01*
X107313421Y-50137529D01*
X107408402Y-50366834D01*
X107546294Y-50573203D01*
X107721797Y-50748706D01*
X107928166Y-50886598D01*
X108157471Y-50981579D01*
X108400901Y-51030000D01*
X108649099Y-51030000D01*
X108892529Y-50981579D01*
X109121834Y-50886598D01*
X109328203Y-50748706D01*
X109503706Y-50573203D01*
X109641598Y-50366834D01*
X109736579Y-50137529D01*
X109785000Y-49894099D01*
X109785000Y-49876890D01*
X112750048Y-49876890D01*
X112750048Y-50123110D01*
X112798083Y-50364598D01*
X112892307Y-50592074D01*
X113029099Y-50796798D01*
X113203202Y-50970901D01*
X113407926Y-51107693D01*
X113635402Y-51201917D01*
X113876890Y-51249952D01*
X114123110Y-51249952D01*
X114364598Y-51201917D01*
X114592074Y-51107693D01*
X114796798Y-50970901D01*
X114970901Y-50796798D01*
X115098632Y-50605634D01*
X115123649Y-50900921D01*
X115393107Y-51834938D01*
X115839606Y-52698440D01*
X115914851Y-52811054D01*
X116517182Y-53303213D01*
X119820395Y-50000000D01*
X116517182Y-46696787D01*
X115914851Y-47188946D01*
X115444937Y-48039933D01*
X115150071Y-48966243D01*
X115101510Y-49398672D01*
X114970901Y-49203202D01*
X114796798Y-49029099D01*
X114592074Y-48892307D01*
X114364598Y-48798083D01*
X114123110Y-48750048D01*
X113876890Y-48750048D01*
X113635402Y-48798083D01*
X113407926Y-48892307D01*
X113203202Y-49029099D01*
X113029099Y-49203202D01*
X112892307Y-49407926D01*
X112798083Y-49635402D01*
X112750048Y-49876890D01*
X109785000Y-49876890D01*
X109785000Y-49645901D01*
X109736579Y-49402471D01*
X109641598Y-49173166D01*
X109503706Y-48966797D01*
X109328203Y-48791294D01*
X109121834Y-48653402D01*
X108892529Y-48558421D01*
X108649099Y-48510000D01*
X108400901Y-48510000D01*
X108157471Y-48558421D01*
X107928166Y-48653402D01*
X107721797Y-48791294D01*
X107546294Y-48966797D01*
X107408402Y-49173166D01*
X107313421Y-49402471D01*
X107265000Y-49645901D01*
X104935000Y-49645901D01*
X104886579Y-49402471D01*
X104791598Y-49173166D01*
X104653706Y-48966797D01*
X104478203Y-48791294D01*
X104271834Y-48653402D01*
X104042529Y-48558421D01*
X103799099Y-48510000D01*
X103550901Y-48510000D01*
X103307471Y-48558421D01*
X103078166Y-48653402D01*
X102871797Y-48791294D01*
X102696294Y-48966797D01*
X102558402Y-49173166D01*
X102463421Y-49402471D01*
X102415000Y-49645901D01*
X94916502Y-49645901D01*
X94882953Y-49477244D01*
X94722012Y-49088698D01*
X94488363Y-48739017D01*
X94190983Y-48441637D01*
X93841302Y-48207988D01*
X93452756Y-48047047D01*
X93040279Y-47965000D01*
X92619721Y-47965000D01*
X92207244Y-48047047D01*
X91818698Y-48207988D01*
X91469017Y-48441637D01*
X91171637Y-48739017D01*
X90937988Y-49088698D01*
X90777047Y-49477244D01*
X90695000Y-49889721D01*
X90695000Y-50310279D01*
X90777047Y-50722756D01*
X90937988Y-51111302D01*
X91171637Y-51460983D01*
X91469017Y-51758363D01*
X91818698Y-51992012D01*
X92207244Y-52152953D01*
X92615001Y-52234061D01*
X92615001Y-53854843D01*
X89888072Y-51127915D01*
X89888072Y-48600000D01*
X89875812Y-48475518D01*
X89839502Y-48355820D01*
X89780537Y-48245506D01*
X89701185Y-48148815D01*
X89604494Y-48069463D01*
X89494180Y-48010498D01*
X89374482Y-47974188D01*
X89250000Y-47961928D01*
X86250000Y-47961928D01*
X86125518Y-47974188D01*
X86005820Y-48010498D01*
X85895506Y-48069463D01*
X85798815Y-48148815D01*
X85719463Y-48245506D01*
X85660498Y-48355820D01*
X85624188Y-48475518D01*
X85611928Y-48600000D01*
X83947922Y-48600000D01*
X83796038Y-48292786D01*
X83421255Y-48101980D01*
X83016449Y-47987956D01*
X82597176Y-47955098D01*
X82179549Y-48004666D01*
X81779617Y-48134757D01*
X81483962Y-48292786D01*
X81327952Y-48608347D01*
X79698072Y-48608347D01*
X79698072Y-48600000D01*
X79685812Y-48475518D01*
X79649502Y-48355820D01*
X79590537Y-48245506D01*
X79511185Y-48148815D01*
X79414494Y-48069463D01*
X79304180Y-48010498D01*
X79184482Y-47974188D01*
X79060000Y-47961928D01*
X76060000Y-47961928D01*
X75935518Y-47974188D01*
X75815820Y-48010498D01*
X75705506Y-48069463D01*
X75608815Y-48148815D01*
X75529463Y-48245506D01*
X75470498Y-48355820D01*
X75434188Y-48475518D01*
X75421928Y-48600000D01*
X74059346Y-48600000D01*
X73900983Y-48441637D01*
X73551302Y-48207988D01*
X73162756Y-48047047D01*
X72750279Y-47965000D01*
X72329721Y-47965000D01*
X71917244Y-48047047D01*
X71528698Y-48207988D01*
X71179017Y-48441637D01*
X70881637Y-48739017D01*
X70647988Y-49088698D01*
X70487047Y-49477244D01*
X70405000Y-49889721D01*
X69598072Y-49889721D01*
X69598072Y-48600000D01*
X69585812Y-48475518D01*
X69549502Y-48355820D01*
X69490537Y-48245506D01*
X69411185Y-48148815D01*
X69314494Y-48069463D01*
X69204180Y-48010498D01*
X69084482Y-47974188D01*
X68960000Y-47961928D01*
X65960000Y-47961928D01*
X65835518Y-47974188D01*
X65715820Y-48010498D01*
X65605506Y-48069463D01*
X65508815Y-48148815D01*
X65429463Y-48245506D01*
X65370498Y-48355820D01*
X65334188Y-48475518D01*
X65321928Y-48600000D01*
X54732370Y-48600000D01*
X54606893Y-48165062D01*
X54160394Y-47301560D01*
X54085149Y-47188946D01*
X53482818Y-46696787D01*
X50179605Y-50000000D01*
X49820395Y-50000000D01*
X49806253Y-49985858D01*
X49985858Y-49806253D01*
X50000000Y-49820395D01*
X53303213Y-46517182D01*
X52811054Y-45914851D01*
X52440081Y-45710000D01*
X101838393Y-45710000D01*
X101658025Y-45858025D01*
G37*
%TD.AperFunction*%
D30*
X76127000Y-94730890D02*
X76014143Y-94843748D01*
X76000000Y-94829605D01*
X75985858Y-94843748D01*
X75873000Y-94730890D01*
X75873000Y-94343395D01*
X76000000Y-94470395D01*
X76127000Y-94343395D01*
X76127000Y-94730890D01*
%TA.AperFunction,Conductor*%
D31*
G36*
X76127000Y-94730890D02*
G01*
X76014143Y-94843748D01*
X76000000Y-94829605D01*
X75985858Y-94843748D01*
X75873000Y-94730890D01*
X75873000Y-94343395D01*
X76000000Y-94470395D01*
X76127000Y-94343395D01*
X76127000Y-94730890D01*
G37*
%TD.AperFunction*%
D30*
X76127000Y-93269110D02*
X76127000Y-93656605D01*
X76000000Y-93529605D01*
X75873000Y-93656605D01*
X75873000Y-93269110D01*
X75985858Y-93156253D01*
X76000000Y-93170395D01*
X76014143Y-93156253D01*
X76127000Y-93269110D01*
%TA.AperFunction,Conductor*%
D31*
G36*
X76127000Y-93269110D02*
G01*
X76127000Y-93656605D01*
X76000000Y-93529605D01*
X75873000Y-93656605D01*
X75873000Y-93269110D01*
X75985858Y-93156253D01*
X76000000Y-93170395D01*
X76014143Y-93156253D01*
X76127000Y-93269110D01*
G37*
%TD.AperFunction*%
D30*
X60127000Y-94730890D02*
X60014143Y-94843748D01*
X60000000Y-94829605D01*
X59985858Y-94843748D01*
X59873000Y-94730890D01*
X59873000Y-94343395D01*
X60000000Y-94470395D01*
X60127000Y-94343395D01*
X60127000Y-94730890D01*
%TA.AperFunction,Conductor*%
D31*
G36*
X60127000Y-94730890D02*
G01*
X60014143Y-94843748D01*
X60000000Y-94829605D01*
X59985858Y-94843748D01*
X59873000Y-94730890D01*
X59873000Y-94343395D01*
X60000000Y-94470395D01*
X60127000Y-94343395D01*
X60127000Y-94730890D01*
G37*
%TD.AperFunction*%
D30*
X60127000Y-93269110D02*
X60127000Y-93656605D01*
X60000000Y-93529605D01*
X59873000Y-93656605D01*
X59873000Y-93269110D01*
X59985858Y-93156253D01*
X60000000Y-93170395D01*
X60014143Y-93156253D01*
X60127000Y-93269110D01*
%TA.AperFunction,Conductor*%
D31*
G36*
X60127000Y-93269110D02*
G01*
X60127000Y-93656605D01*
X60000000Y-93529605D01*
X59873000Y-93656605D01*
X59873000Y-93269110D01*
X59985858Y-93156253D01*
X60000000Y-93170395D01*
X60014143Y-93156253D01*
X60127000Y-93269110D01*
G37*
%TD.AperFunction*%
D30*
X108127000Y-94730890D02*
X108014143Y-94843748D01*
X108000000Y-94829605D01*
X107985858Y-94843748D01*
X107873000Y-94730890D01*
X107873000Y-94343395D01*
X108000000Y-94470395D01*
X108127000Y-94343395D01*
X108127000Y-94730890D01*
%TA.AperFunction,Conductor*%
D31*
G36*
X108127000Y-94730890D02*
G01*
X108014143Y-94843748D01*
X108000000Y-94829605D01*
X107985858Y-94843748D01*
X107873000Y-94730890D01*
X107873000Y-94343395D01*
X108000000Y-94470395D01*
X108127000Y-94343395D01*
X108127000Y-94730890D01*
G37*
%TD.AperFunction*%
D30*
X108127000Y-93269110D02*
X108127000Y-93656605D01*
X108000000Y-93529605D01*
X107873000Y-93656605D01*
X107873000Y-93269110D01*
X107985858Y-93156253D01*
X108000000Y-93170395D01*
X108014143Y-93156253D01*
X108127000Y-93269110D01*
%TA.AperFunction,Conductor*%
D31*
G36*
X108127000Y-93269110D02*
G01*
X108127000Y-93656605D01*
X108000000Y-93529605D01*
X107873000Y-93656605D01*
X107873000Y-93269110D01*
X107985858Y-93156253D01*
X108000000Y-93170395D01*
X108014143Y-93156253D01*
X108127000Y-93269110D01*
G37*
%TD.AperFunction*%
D30*
X92127000Y-94730890D02*
X92014143Y-94843748D01*
X92000000Y-94829605D01*
X91985858Y-94843748D01*
X91873000Y-94730890D01*
X91873000Y-94343395D01*
X92000000Y-94470395D01*
X92127000Y-94343395D01*
X92127000Y-94730890D01*
%TA.AperFunction,Conductor*%
D31*
G36*
X92127000Y-94730890D02*
G01*
X92014143Y-94843748D01*
X92000000Y-94829605D01*
X91985858Y-94843748D01*
X91873000Y-94730890D01*
X91873000Y-94343395D01*
X92000000Y-94470395D01*
X92127000Y-94343395D01*
X92127000Y-94730890D01*
G37*
%TD.AperFunction*%
D30*
X92127000Y-93269110D02*
X92127000Y-93656605D01*
X92000000Y-93529605D01*
X91873000Y-93656605D01*
X91873000Y-93269110D01*
X91985858Y-93156253D01*
X92000000Y-93170395D01*
X92014143Y-93156253D01*
X92127000Y-93269110D01*
%TA.AperFunction,Conductor*%
D31*
G36*
X92127000Y-93269110D02*
G01*
X92127000Y-93656605D01*
X92000000Y-93529605D01*
X91873000Y-93656605D01*
X91873000Y-93269110D01*
X91985858Y-93156253D01*
X92000000Y-93170395D01*
X92014143Y-93156253D01*
X92127000Y-93269110D01*
G37*
%TD.AperFunction*%
D30*
X102437000Y-75793000D02*
X102460094Y-75793000D01*
X102455064Y-75885459D01*
X102489605Y-75920000D01*
X102455064Y-75954541D01*
X102460094Y-76047000D01*
X102437000Y-76047000D01*
X102437000Y-76075533D01*
X102277238Y-76066843D01*
X102275459Y-76065064D01*
X102260000Y-76065905D01*
X102244541Y-76065064D01*
X102242762Y-76066843D01*
X102183000Y-76070094D01*
X102183000Y-76047000D01*
X102059906Y-76047000D01*
X102064936Y-75954541D01*
X102030395Y-75920000D01*
X102064936Y-75885459D01*
X102059906Y-75793000D01*
X102183000Y-75793000D01*
X102183000Y-75769906D01*
X102242762Y-75773157D01*
X102244541Y-75774936D01*
X102260000Y-75774095D01*
X102275459Y-75774936D01*
X102277238Y-75773157D01*
X102437000Y-75764467D01*
X102437000Y-75793000D01*
%TA.AperFunction,Conductor*%
D31*
G36*
X102437000Y-75793000D02*
G01*
X102460094Y-75793000D01*
X102455064Y-75885459D01*
X102489605Y-75920000D01*
X102455064Y-75954541D01*
X102460094Y-76047000D01*
X102437000Y-76047000D01*
X102437000Y-76075533D01*
X102277238Y-76066843D01*
X102275459Y-76065064D01*
X102260000Y-76065905D01*
X102244541Y-76065064D01*
X102242762Y-76066843D01*
X102183000Y-76070094D01*
X102183000Y-76047000D01*
X102059906Y-76047000D01*
X102064936Y-75954541D01*
X102030395Y-75920000D01*
X102064936Y-75885459D01*
X102059906Y-75793000D01*
X102183000Y-75793000D01*
X102183000Y-75769906D01*
X102242762Y-75773157D01*
X102244541Y-75774936D01*
X102260000Y-75774095D01*
X102275459Y-75774936D01*
X102277238Y-75773157D01*
X102437000Y-75764467D01*
X102437000Y-75793000D01*
G37*
%TD.AperFunction*%
%TD*%
M02*
