M48
; DRILL file {KiCad (7.0.0)} date Sun May 21 11:33:26 2023
; FORMAT={3:3/ absolute / metric / suppress leading zeros}
; #@! TF.CreationDate,2023-05-21T11:33:26-07:00
; #@! TF.GenerationSoftware,Kicad,Pcbnew,(7.0.0)
; #@! TF.FileFunction,MixedPlating,1,4
FMAT,2
METRIC,TZ
; #@! TA.AperFunction,Plated,PTH,ComponentDrill
T1C0.200
; #@! TA.AperFunction,Plated,PTH,ComponentDrill
T2C0.330
; #@! TA.AperFunction,Plated,PTH,ViaDrill
T3C0.400
; #@! TA.AperFunction,Plated,PTH,ComponentDrill
T4C0.500
; #@! TA.AperFunction,Plated,PTH,ComponentDrill
T5C0.700
; #@! TA.AperFunction,Plated,PTH,ComponentDrill
T6C0.750
; #@! TA.AperFunction,Plated,PTH,ComponentDrill
T7C0.800
; #@! TA.AperFunction,Plated,PTH,ComponentDrill
T8C1.000
; #@! TA.AperFunction,Plated,PTH,ComponentDrill
T9C1.200
; #@! TA.AperFunction,Plated,PTH,ComponentDrill
T10C1.800
; #@! TA.AperFunction,Plated,PTH,ComponentDrill
T11C3.200
%
G90
G05
T1
X136735Y-96095
X136735Y-98005
X138035Y-96095
X138035Y-98005
X139335Y-96095
X139335Y-98005
T2
X153500Y-94650
X153500Y-95950
X154800Y-94650
X154800Y-95950
X156100Y-94650
X156100Y-95950
X166100Y-94650
X166100Y-95950
X167400Y-94650
X167400Y-95950
X168700Y-94650
X168700Y-95950
X178700Y-94650
X178700Y-95950
X180000Y-94650
X180000Y-95950
X181300Y-94650
X181300Y-95950
X191300Y-94650
X191300Y-95950
X192600Y-94650
X192600Y-95950
X193900Y-94650
X193900Y-95950
T3
X125800Y-97900
X126010Y-83238
X126010Y-85238
X130500Y-101500
X130500Y-103300
X130600Y-72400
X130950Y-108000
X131400Y-96700
X131500Y-61500
X131650Y-70950
X131710Y-83038
X132100Y-78450
X132935Y-102850
X133210Y-83025
X134490Y-95300
X134490Y-100605
X134710Y-83038
X135900Y-66750
X137050Y-89100
X137065Y-84962
X137700Y-63250
X139250Y-78600
X141235Y-96050
X141235Y-98050
X141450Y-64500
X141500Y-100400
X144150Y-67000
X144500Y-75300
X144700Y-81000
X145600Y-58400
X146850Y-75650
X147500Y-83600
X148400Y-63950
X148900Y-103400
X149950Y-73000
X150200Y-63250
X150600Y-93600
X151200Y-68700
X151600Y-85800
X152170Y-78430
X152850Y-90400
X154050Y-64750
X154200Y-90400
X154600Y-73900
X154700Y-76100
X155400Y-103750
X155500Y-90400
X156700Y-81900
X156700Y-90400
X157400Y-65474
X158100Y-86100
X158300Y-77300
X158300Y-79100
X158300Y-80900
X159100Y-68900
X159100Y-71600
X159650Y-63250
X160800Y-103000
X161500Y-67860
X162000Y-62900
X162100Y-75840
X162800Y-66600
X163050Y-67860
X163100Y-82500
X163300Y-80000
X163400Y-92600
X163500Y-58850
X164200Y-63700
X165500Y-76150
X165555Y-90400
X165700Y-70440
X165730Y-63700
X165950Y-73650
X166100Y-83900
X166150Y-72400
X166600Y-71300
X166855Y-90400
X167100Y-78550
X167500Y-103800
X168100Y-86000
X168105Y-90400
X168200Y-66200
X168200Y-77826
X169355Y-90400
X169850Y-76700
X169950Y-71350
X171250Y-71500
X171250Y-83900
X171600Y-76750
X172100Y-75050
X172900Y-103300
X173150Y-70650
X173250Y-75800
X174000Y-65500
X175950Y-67200
X176300Y-92600
X176375Y-82475
X176475Y-80925
X177200Y-78700
X178100Y-90400
X178600Y-78700
X178950Y-69100
X179150Y-72700
X179300Y-103850
X179350Y-90400
X180052Y-78934
X180250Y-83550
X180350Y-85300
X180500Y-62500
X180650Y-90400
X181000Y-79250
X181800Y-80200
X181850Y-82650
X181900Y-90400
X182800Y-84500
X184000Y-84500
X185050Y-85800
X185400Y-102400
X186550Y-68300
X188500Y-62400
X188900Y-92600
X189450Y-88500
X190700Y-90400
X192250Y-103400
X194500Y-90400
X195950Y-107200
T5
X128070Y-68675
X128070Y-73525
T6
X151900Y-59100
X153900Y-59100
X155900Y-59100
X157900Y-59100
T7
X148900Y-98100
X148900Y-100100
X161500Y-98100
X161500Y-100100
X174100Y-98100
X174100Y-100100
X186600Y-98100
X186600Y-100100
T8
X133330Y-57500
X135870Y-57500
X138410Y-57500
X140950Y-57500
X169190Y-57350
X169190Y-59890
X171730Y-57350
X171730Y-59890
X174270Y-57350
X174270Y-59890
X176810Y-57350
X176810Y-59890
X179350Y-57350
X179350Y-59890
X181890Y-57350
X181890Y-59890
X184430Y-57350
X184430Y-59890
X188355Y-74480
X188355Y-77020
X188355Y-79560
X188355Y-82100
X190895Y-74480
X190895Y-77020
X190895Y-79560
X190895Y-82100
X193400Y-66100
X193435Y-74480
X193435Y-77020
X193435Y-79560
X193435Y-82100
X195940Y-66100
X195975Y-74480
X195975Y-77020
X195975Y-79560
X195975Y-82100
T9
X152500Y-110000
X157500Y-110000
X162500Y-110000
X167500Y-110000
X172500Y-110000
X177500Y-110000
X182500Y-110000
X187500Y-110000
T10
X137000Y-111500
X142000Y-111500
T11
X126500Y-59000
X126500Y-112000
X194500Y-59000
X194500Y-112000
T4
G00X125000Y-67500
M15
G01X125800Y-67500
M16
G05
G00X125000Y-74700
M15
G01X125800Y-74700
M16
G05
T0
M30
