%TF.GenerationSoftware,KiCad,Pcbnew,(7.0.0)*%
%TF.CreationDate,2023-05-21T11:33:29-07:00*%
%TF.ProjectId,smart_motor_controller,736d6172-745f-46d6-9f74-6f725f636f6e,0.1.1*%
%TF.SameCoordinates,Original*%
%TF.FileFunction,Soldermask,Top*%
%TF.FilePolarity,Negative*%
%FSLAX46Y46*%
G04 Gerber Fmt 4.6, Leading zero omitted, Abs format (unit mm)*
G04 Created by KiCad (PCBNEW (7.0.0)) date 2023-05-21 11:33:29*
%MOMM*%
%LPD*%
G01*
G04 APERTURE LIST*
G04 Aperture macros list*
%AMRoundRect*
0 Rectangle with rounded corners*
0 $1 Rounding radius*
0 $2 $3 $4 $5 $6 $7 $8 $9 X,Y pos of 4 corners*
0 Add a 4 corners polygon primitive as box body*
4,1,4,$2,$3,$4,$5,$6,$7,$8,$9,$2,$3,0*
0 Add four circle primitives for the rounded corners*
1,1,$1+$1,$2,$3*
1,1,$1+$1,$4,$5*
1,1,$1+$1,$6,$7*
1,1,$1+$1,$8,$9*
0 Add four rect primitives between the rounded corners*
20,1,$1+$1,$2,$3,$4,$5,0*
20,1,$1+$1,$4,$5,$6,$7,0*
20,1,$1+$1,$6,$7,$8,$9,0*
20,1,$1+$1,$8,$9,$2,$3,0*%
G04 Aperture macros list end*
%ADD10R,1.200000X0.900000*%
%ADD11R,0.900000X1.200000*%
%ADD12RoundRect,0.218750X-0.218750X-0.256250X0.218750X-0.256250X0.218750X0.256250X-0.218750X0.256250X0*%
%ADD13RoundRect,0.200000X-0.200000X-0.275000X0.200000X-0.275000X0.200000X0.275000X-0.200000X0.275000X0*%
%ADD14R,1.060000X0.650000*%
%ADD15R,3.000000X3.000000*%
%ADD16C,3.000000*%
%ADD17R,1.250000X0.400000*%
%ADD18O,1.900000X1.100000*%
%ADD19C,1.250000*%
%ADD20C,2.000000*%
%ADD21RoundRect,0.225000X0.250000X-0.225000X0.250000X0.225000X-0.250000X0.225000X-0.250000X-0.225000X0*%
%ADD22RoundRect,0.249999X0.325001X0.650001X-0.325001X0.650001X-0.325001X-0.650001X0.325001X-0.650001X0*%
%ADD23RoundRect,0.225000X0.225000X0.250000X-0.225000X0.250000X-0.225000X-0.250000X0.225000X-0.250000X0*%
%ADD24RoundRect,0.225000X-0.225000X-0.250000X0.225000X-0.250000X0.225000X0.250000X-0.225000X0.250000X0*%
%ADD25RoundRect,0.225000X-0.250000X0.225000X-0.250000X-0.225000X0.250000X-0.225000X0.250000X0.225000X0*%
%ADD26R,1.600000X1.600000*%
%ADD27C,1.600000*%
%ADD28R,2.800000X2.800000*%
%ADD29C,2.800000*%
%ADD30R,2.500000X1.900000*%
%ADD31RoundRect,0.200000X0.200000X0.275000X-0.200000X0.275000X-0.200000X-0.275000X0.200000X-0.275000X0*%
%ADD32RoundRect,0.200000X-0.275000X0.200000X-0.275000X-0.200000X0.275000X-0.200000X0.275000X0.200000X0*%
%ADD33C,1.500000*%
%ADD34R,2.000000X0.900000*%
%ADD35R,0.900000X2.000000*%
%ADD36RoundRect,0.150000X0.150000X-0.650000X0.150000X0.650000X-0.150000X0.650000X-0.150000X-0.650000X0*%
%ADD37R,3.100000X2.410000*%
%ADD38R,1.700000X1.700000*%
%ADD39O,1.700000X1.700000*%
%ADD40R,1.200000X1.400000*%
%ADD41RoundRect,0.075000X-0.700000X-0.075000X0.700000X-0.075000X0.700000X0.075000X-0.700000X0.075000X0*%
%ADD42RoundRect,0.075000X-0.075000X-0.700000X0.075000X-0.700000X0.075000X0.700000X-0.075000X0.700000X0*%
%ADD43R,3.100000X2.400000*%
%ADD44RoundRect,0.070000X-0.250000X1.100000X-0.250000X-1.100000X0.250000X-1.100000X0.250000X1.100000X0*%
%ADD45C,0.770000*%
%ADD46C,5.600000*%
%ADD47RoundRect,0.250000X0.350000X0.625000X-0.350000X0.625000X-0.350000X-0.625000X0.350000X-0.625000X0*%
%ADD48O,1.200000X1.750000*%
G04 APERTURE END LIST*
D10*
%TO.C,D1*%
X127809999Y-95387499D03*
X127809999Y-92087499D03*
%TD*%
D11*
%TO.C,D2*%
X138949999Y-104799999D03*
X142249999Y-104799999D03*
%TD*%
D12*
%TO.C,D3*%
X148212500Y-70500000D03*
X149787500Y-70500000D03*
%TD*%
D13*
%TO.C,R7*%
X148155000Y-68730000D03*
X149805000Y-68730000D03*
%TD*%
D14*
%TO.C,U3*%
X133149999Y-69949999D03*
X133149999Y-70899999D03*
X133149999Y-71849999D03*
X135349999Y-71849999D03*
X135349999Y-70899999D03*
X135349999Y-69949999D03*
%TD*%
D15*
%TO.C,J9*%
X136999999Y-111499999D03*
D16*
X142000000Y-111500000D03*
%TD*%
D17*
%TO.C,J10*%
X128069999Y-69799999D03*
X128069999Y-70449999D03*
X128069999Y-71099999D03*
X128069999Y-71749999D03*
X128069999Y-72399999D03*
D18*
X125399999Y-67499999D03*
D19*
X128070000Y-68675000D03*
X128070000Y-73525000D03*
D18*
X125399999Y-74699999D03*
%TD*%
D20*
%TO.C,TP2*%
X132800000Y-65300000D03*
%TD*%
D21*
%TO.C,C201*%
X134400000Y-93875000D03*
X134400000Y-92325000D03*
%TD*%
D22*
%TO.C,C202*%
X137310000Y-102850000D03*
X134360000Y-102850000D03*
%TD*%
D23*
%TO.C,C203*%
X138610000Y-91650000D03*
X137060000Y-91650000D03*
%TD*%
D21*
%TO.C,C204*%
X138635000Y-89912500D03*
X138635000Y-88362500D03*
%TD*%
D24*
%TO.C,C205*%
X139935000Y-101837500D03*
X141485000Y-101837500D03*
%TD*%
D23*
%TO.C,C206*%
X128885000Y-85237500D03*
X127335000Y-85237500D03*
%TD*%
%TO.C,C207*%
X128885000Y-83250000D03*
X127335000Y-83250000D03*
%TD*%
D25*
%TO.C,C301*%
X148900000Y-93650000D03*
X148900000Y-95200000D03*
%TD*%
D26*
%TO.C,C302*%
X148899999Y-98099999D03*
D27*
X148900000Y-100100000D03*
%TD*%
D23*
%TO.C,C303*%
X163375000Y-95000000D03*
X161825000Y-95000000D03*
%TD*%
D26*
%TO.C,C304*%
X161499999Y-98099999D03*
D27*
X161500000Y-100100000D03*
%TD*%
D23*
%TO.C,C305*%
X175975000Y-95000000D03*
X174425000Y-95000000D03*
%TD*%
D26*
%TO.C,C306*%
X174099999Y-98099999D03*
D27*
X174100000Y-100100000D03*
%TD*%
D23*
%TO.C,C307*%
X188575000Y-95000000D03*
X187025000Y-95000000D03*
%TD*%
D26*
%TO.C,C308*%
X186599999Y-98099999D03*
D27*
X186600000Y-100100000D03*
%TD*%
D28*
%TO.C,J301*%
X152499999Y-109999999D03*
D29*
X157500000Y-110000000D03*
%TD*%
D28*
%TO.C,J302*%
X172499999Y-109999999D03*
D29*
X177500000Y-110000000D03*
%TD*%
D28*
%TO.C,J303*%
X162499999Y-109999999D03*
D29*
X167500000Y-110000000D03*
%TD*%
D28*
%TO.C,J304*%
X182499999Y-109999999D03*
D29*
X187500000Y-110000000D03*
%TD*%
D30*
%TO.C,L201*%
X133209999Y-89299999D03*
X133209999Y-85199999D03*
%TD*%
D13*
%TO.C,R201*%
X138485000Y-82937500D03*
X140135000Y-82937500D03*
%TD*%
D31*
%TO.C,R202*%
X138715000Y-86537500D03*
X137065000Y-86537500D03*
%TD*%
%TO.C,R203*%
X140115000Y-84737500D03*
X138465000Y-84737500D03*
%TD*%
D32*
%TO.C,R301*%
X155400000Y-100725000D03*
X155400000Y-102375000D03*
%TD*%
%TO.C,R302*%
X180650000Y-100625000D03*
X180650000Y-102275000D03*
%TD*%
%TO.C,R303*%
X168000000Y-100725000D03*
X168000000Y-102375000D03*
%TD*%
%TO.C,R304*%
X193300000Y-100375000D03*
X193300000Y-102025000D03*
%TD*%
D10*
%TO.C,D201*%
X131399999Y-92049999D03*
X131399999Y-95349999D03*
%TD*%
D23*
%TO.C,C101*%
X150575000Y-83600000D03*
X149025000Y-83600000D03*
%TD*%
D32*
%TO.C,R101*%
X144150000Y-68575000D03*
X144150000Y-70225000D03*
%TD*%
D33*
%TO.C,3.3V201*%
X134750000Y-78450000D03*
%TD*%
%TO.C,TP1*%
X147800000Y-107350000D03*
%TD*%
D34*
%TO.C,SW102*%
X141449999Y-70249999D03*
X141449999Y-66149999D03*
%TD*%
D35*
%TO.C,SW103*%
X146449999Y-80999999D03*
X150549999Y-80999999D03*
%TD*%
D36*
%TO.C,U201*%
X136130000Y-99700000D03*
X137400000Y-99700000D03*
X138670000Y-99700000D03*
X139940000Y-99700000D03*
X139940000Y-94400000D03*
X138670000Y-94400000D03*
X137400000Y-94400000D03*
X136130000Y-94400000D03*
D37*
X138034999Y-97049999D03*
%TD*%
D11*
%TO.C,D301*%
X189849999Y-66099999D03*
X186549999Y-66099999D03*
%TD*%
D38*
%TO.C,J309*%
X195939999Y-66099999D03*
D39*
X193399999Y-66099999D03*
%TD*%
D38*
%TO.C,J310*%
X195974999Y-82099999D03*
X195974999Y-79559999D03*
X195974999Y-77019999D03*
X195974999Y-74479999D03*
D39*
X193434999Y-82099999D03*
X193434999Y-79559999D03*
X193434999Y-77019999D03*
X193434999Y-74479999D03*
X190894999Y-82099999D03*
X188354999Y-82099999D03*
X190894999Y-79559999D03*
X188354999Y-79559999D03*
X190894999Y-77019999D03*
X188354999Y-77019999D03*
X190894999Y-74479999D03*
X188354999Y-74479999D03*
%TD*%
D38*
%TO.C,J104*%
X140949999Y-57499999D03*
D39*
X138409999Y-57499999D03*
X135869999Y-57499999D03*
X133329999Y-57499999D03*
%TD*%
D23*
%TO.C,C3*%
X165730000Y-64800000D03*
X164180000Y-64800000D03*
%TD*%
%TO.C,C4*%
X163050000Y-69160000D03*
X161500000Y-69160000D03*
%TD*%
%TO.C,C5*%
X166075000Y-82500000D03*
X164525000Y-82500000D03*
%TD*%
D25*
%TO.C,C16*%
X177500000Y-71125000D03*
X177500000Y-72675000D03*
%TD*%
D24*
%TO.C,C17*%
X156125000Y-68900000D03*
X157675000Y-68900000D03*
%TD*%
D25*
%TO.C,C6*%
X175100000Y-80925000D03*
X175100000Y-82475000D03*
%TD*%
D23*
%TO.C,C8*%
X165750000Y-66600000D03*
X164200000Y-66600000D03*
%TD*%
%TO.C,C13*%
X161275000Y-79100000D03*
X159725000Y-79100000D03*
%TD*%
%TO.C,C14*%
X161275000Y-77300000D03*
X159725000Y-77300000D03*
%TD*%
%TO.C,C15*%
X172775000Y-82600000D03*
X171225000Y-82600000D03*
%TD*%
D40*
%TO.C,HSE1*%
X156049999Y-71599999D03*
X156049999Y-73799999D03*
X157749999Y-73799999D03*
X157749999Y-71599999D03*
%TD*%
D12*
%TO.C,L2*%
X159712500Y-80900000D03*
X161287500Y-80900000D03*
%TD*%
D23*
%TO.C,C18*%
X157675000Y-76100000D03*
X156125000Y-76100000D03*
%TD*%
D31*
%TO.C,R6*%
X161525000Y-73900000D03*
X159875000Y-73900000D03*
%TD*%
D24*
%TO.C,C7*%
X175975000Y-69100000D03*
X177525000Y-69100000D03*
%TD*%
D41*
%TO.C,U2*%
X163825000Y-70750000D03*
X163825000Y-71250000D03*
X163825000Y-71750000D03*
X163825000Y-72250000D03*
X163825000Y-72750000D03*
X163825000Y-73250000D03*
X163825000Y-73750000D03*
X163825000Y-74250000D03*
X163825000Y-74750000D03*
X163825000Y-75250000D03*
X163825000Y-75750000D03*
X163825000Y-76250000D03*
X163825000Y-76750000D03*
X163825000Y-77250000D03*
X163825000Y-77750000D03*
X163825000Y-78250000D03*
D42*
X165750000Y-80175000D03*
X166250000Y-80175000D03*
X166750000Y-80175000D03*
X167250000Y-80175000D03*
X167750000Y-80175000D03*
X168250000Y-80175000D03*
X168750000Y-80175000D03*
X169250000Y-80175000D03*
X169750000Y-80175000D03*
X170250000Y-80175000D03*
X170750000Y-80175000D03*
X171250000Y-80175000D03*
X171750000Y-80175000D03*
X172250000Y-80175000D03*
X172750000Y-80175000D03*
X173250000Y-80175000D03*
D41*
X175175000Y-78250000D03*
X175175000Y-77750000D03*
X175175000Y-77250000D03*
X175175000Y-76750000D03*
X175175000Y-76250000D03*
X175175000Y-75750000D03*
X175175000Y-75250000D03*
X175175000Y-74750000D03*
X175175000Y-74250000D03*
X175175000Y-73750000D03*
X175175000Y-73250000D03*
X175175000Y-72750000D03*
X175175000Y-72250000D03*
X175175000Y-71750000D03*
X175175000Y-71250000D03*
X175175000Y-70750000D03*
D42*
X173250000Y-68825000D03*
X172750000Y-68825000D03*
X172250000Y-68825000D03*
X171750000Y-68825000D03*
X171250000Y-68825000D03*
X170750000Y-68825000D03*
X170250000Y-68825000D03*
X169750000Y-68825000D03*
X169250000Y-68825000D03*
X168750000Y-68825000D03*
X168250000Y-68825000D03*
X167750000Y-68825000D03*
X167250000Y-68825000D03*
X166750000Y-68825000D03*
X166250000Y-68825000D03*
X165750000Y-68825000D03*
%TD*%
D43*
%TO.C,U301*%
X154799999Y-95299999D03*
D44*
X156705000Y-92425000D03*
X155435000Y-92425000D03*
X154165000Y-92425000D03*
X152895000Y-92425000D03*
X152895000Y-98175000D03*
X154165000Y-98175000D03*
X155435000Y-98175000D03*
X156705000Y-98175000D03*
D45*
X156100000Y-94650000D03*
X154800000Y-94650000D03*
X153500000Y-94650000D03*
X156100000Y-95950000D03*
X154800000Y-95950000D03*
X153500000Y-95950000D03*
%TD*%
D43*
%TO.C,U302*%
X179999999Y-95299999D03*
D44*
X181905000Y-92425000D03*
X180635000Y-92425000D03*
X179365000Y-92425000D03*
X178095000Y-92425000D03*
X178095000Y-98175000D03*
X179365000Y-98175000D03*
X180635000Y-98175000D03*
X181905000Y-98175000D03*
D45*
X181300000Y-94650000D03*
X180000000Y-94650000D03*
X178700000Y-94650000D03*
X181300000Y-95950000D03*
X180000000Y-95950000D03*
X178700000Y-95950000D03*
%TD*%
D43*
%TO.C,U303*%
X167399999Y-95299999D03*
D44*
X169305000Y-92425000D03*
X168035000Y-92425000D03*
X166765000Y-92425000D03*
X165495000Y-92425000D03*
X165495000Y-98175000D03*
X166765000Y-98175000D03*
X168035000Y-98175000D03*
X169305000Y-98175000D03*
D45*
X168700000Y-94650000D03*
X167400000Y-94650000D03*
X166100000Y-94650000D03*
X168700000Y-95950000D03*
X167400000Y-95950000D03*
X166100000Y-95950000D03*
%TD*%
D43*
%TO.C,U304*%
X192599999Y-95299999D03*
D44*
X194505000Y-92425000D03*
X193235000Y-92425000D03*
X191965000Y-92425000D03*
X190695000Y-92425000D03*
X190695000Y-98175000D03*
X191965000Y-98175000D03*
X193235000Y-98175000D03*
X194505000Y-98175000D03*
D45*
X193900000Y-94650000D03*
X192600000Y-94650000D03*
X191300000Y-94650000D03*
X193900000Y-95950000D03*
X192600000Y-95950000D03*
X191300000Y-95950000D03*
%TD*%
D13*
%TO.C,R15*%
X151525000Y-63250000D03*
X153175000Y-63250000D03*
%TD*%
D31*
%TO.C,R14*%
X158325000Y-63250000D03*
X156675000Y-63250000D03*
%TD*%
D12*
%TO.C,D101*%
X127327500Y-101550000D03*
X128902500Y-101550000D03*
%TD*%
D46*
%TO.C,H203*%
X194500000Y-112000000D03*
%TD*%
%TO.C,H204*%
X126500000Y-112000000D03*
%TD*%
%TO.C,H202*%
X194500000Y-59000000D03*
%TD*%
D13*
%TO.C,R102*%
X127275000Y-103300000D03*
X128925000Y-103300000D03*
%TD*%
D38*
%TO.C,J101*%
X184429999Y-57349999D03*
D39*
X184429999Y-59889999D03*
X181889999Y-57349999D03*
X181889999Y-59889999D03*
X179349999Y-57349999D03*
X179349999Y-59889999D03*
X176809999Y-57349999D03*
X176809999Y-59889999D03*
X174269999Y-57349999D03*
X174269999Y-59889999D03*
X171729999Y-57349999D03*
X171729999Y-59889999D03*
X169189999Y-57349999D03*
X169189999Y-59889999D03*
%TD*%
D31*
%TO.C,R104*%
X143225000Y-75350000D03*
X141575000Y-75350000D03*
%TD*%
D46*
%TO.C,H201*%
X126500000Y-59000000D03*
%TD*%
D13*
%TO.C,R103*%
X141575000Y-73790000D03*
X143225000Y-73790000D03*
%TD*%
D47*
%TO.C,J102*%
X157900000Y-59100000D03*
D48*
X155899999Y-59099999D03*
X153899999Y-59099999D03*
X151899999Y-59099999D03*
%TD*%
M02*
