%TF.GenerationSoftware,KiCad,Pcbnew,(5.1.8)-1*%
%TF.CreationDate,2022-03-24T23:03:00-07:00*%
%TF.ProjectId,smart_motor_controller,736d6172-745f-46d6-9f74-6f725f636f6e,0.1.1*%
%TF.SameCoordinates,Original*%
%TF.FileFunction,Legend,Top*%
%TF.FilePolarity,Positive*%
%FSLAX46Y46*%
G04 Gerber Fmt 4.6, Leading zero omitted, Abs format (unit mm)*
G04 Created by KiCad (PCBNEW (5.1.8)-1) date 2022-03-24 23:03:00*
%MOMM*%
%LPD*%
G01*
G04 APERTURE LIST*
%ADD10C,0.300000*%
%ADD11C,0.150000*%
%ADD12C,0.250000*%
%ADD13C,0.120000*%
G04 APERTURE END LIST*
D10*
X182950000Y-92500000D02*
G75*
G03*
X182950000Y-92500000I-150000J0D01*
G01*
X147900000Y-85500000D02*
G75*
G03*
X147900000Y-85500000I-150000J0D01*
G01*
D11*
X154042857Y-94395238D02*
X154042857Y-95004761D01*
X153738095Y-94700000D02*
X154347619Y-94700000D01*
D10*
X138050000Y-111100000D02*
G75*
G03*
X138050000Y-111100000I-150000J0D01*
G01*
X138050000Y-98700000D02*
G75*
G03*
X138050000Y-98700000I-150000J0D01*
G01*
D11*
X150942857Y-93045238D02*
X150942857Y-93654761D01*
X150638095Y-93350000D02*
X151247619Y-93350000D01*
X149592857Y-81595238D02*
X149592857Y-82204761D01*
X149288095Y-81900000D02*
X149897619Y-81900000D01*
X158747619Y-67128571D02*
X157938095Y-67128571D01*
X157842857Y-67176190D01*
X157795238Y-67223809D01*
X157747619Y-67319047D01*
X157747619Y-67509523D01*
X157795238Y-67604761D01*
X157842857Y-67652380D01*
X157938095Y-67700000D01*
X158747619Y-67700000D01*
X157795238Y-68128571D02*
X157747619Y-68271428D01*
X157747619Y-68509523D01*
X157795238Y-68604761D01*
X157842857Y-68652380D01*
X157938095Y-68700000D01*
X158033333Y-68700000D01*
X158128571Y-68652380D01*
X158176190Y-68604761D01*
X158223809Y-68509523D01*
X158271428Y-68319047D01*
X158319047Y-68223809D01*
X158366666Y-68176190D01*
X158461904Y-68128571D01*
X158557142Y-68128571D01*
X158652380Y-68176190D01*
X158700000Y-68223809D01*
X158747619Y-68319047D01*
X158747619Y-68557142D01*
X158700000Y-68700000D01*
X158033333Y-69080952D02*
X158033333Y-69557142D01*
X157747619Y-68985714D02*
X158747619Y-69319047D01*
X157747619Y-69652380D01*
X157747619Y-70557142D02*
X158223809Y-70223809D01*
X157747619Y-69985714D02*
X158747619Y-69985714D01*
X158747619Y-70366666D01*
X158700000Y-70461904D01*
X158652380Y-70509523D01*
X158557142Y-70557142D01*
X158414285Y-70557142D01*
X158319047Y-70509523D01*
X158271428Y-70461904D01*
X158223809Y-70366666D01*
X158223809Y-69985714D01*
X158747619Y-70842857D02*
X158747619Y-71414285D01*
X157747619Y-71128571D02*
X158747619Y-71128571D01*
X184902857Y-65204761D02*
X184855238Y-65157142D01*
X184807619Y-65014285D01*
X184807619Y-64919047D01*
X184855238Y-64776190D01*
X184950476Y-64680952D01*
X185045714Y-64633333D01*
X185236190Y-64585714D01*
X185379047Y-64585714D01*
X185569523Y-64633333D01*
X185664761Y-64680952D01*
X185760000Y-64776190D01*
X185807619Y-64919047D01*
X185807619Y-65014285D01*
X185760000Y-65157142D01*
X185712380Y-65204761D01*
X184807619Y-66109523D02*
X184807619Y-65633333D01*
X185807619Y-65633333D01*
X184807619Y-66442857D02*
X185807619Y-66442857D01*
X184807619Y-67014285D02*
X185379047Y-66585714D01*
X185807619Y-67014285D02*
X185236190Y-66442857D01*
X182267619Y-64576190D02*
X183267619Y-64576190D01*
X183267619Y-65242857D02*
X183267619Y-65433333D01*
X183220000Y-65528571D01*
X183124761Y-65623809D01*
X182934285Y-65671428D01*
X182600952Y-65671428D01*
X182410476Y-65623809D01*
X182315238Y-65528571D01*
X182267619Y-65433333D01*
X182267619Y-65242857D01*
X182315238Y-65147619D01*
X182410476Y-65052380D01*
X182600952Y-65004761D01*
X182934285Y-65004761D01*
X183124761Y-65052380D01*
X183220000Y-65147619D01*
X183267619Y-65242857D01*
X179727619Y-64557142D02*
X180727619Y-64557142D01*
X179727619Y-65128571D01*
X180727619Y-65128571D01*
X179727619Y-66176190D02*
X180203809Y-65842857D01*
X179727619Y-65604761D02*
X180727619Y-65604761D01*
X180727619Y-65985714D01*
X180680000Y-66080952D01*
X180632380Y-66128571D01*
X180537142Y-66176190D01*
X180394285Y-66176190D01*
X180299047Y-66128571D01*
X180251428Y-66080952D01*
X180203809Y-65985714D01*
X180203809Y-65604761D01*
X179775238Y-66557142D02*
X179727619Y-66700000D01*
X179727619Y-66938095D01*
X179775238Y-67033333D01*
X179822857Y-67080952D01*
X179918095Y-67128571D01*
X180013333Y-67128571D01*
X180108571Y-67080952D01*
X180156190Y-67033333D01*
X180203809Y-66938095D01*
X180251428Y-66747619D01*
X180299047Y-66652380D01*
X180346666Y-66604761D01*
X180441904Y-66557142D01*
X180537142Y-66557142D01*
X180632380Y-66604761D01*
X180680000Y-66652380D01*
X180727619Y-66747619D01*
X180727619Y-66985714D01*
X180680000Y-67128571D01*
X180727619Y-67414285D02*
X180727619Y-67985714D01*
X179727619Y-67700000D02*
X180727619Y-67700000D01*
X160147619Y-67123809D02*
X161147619Y-67123809D01*
X161052380Y-67552380D02*
X161100000Y-67600000D01*
X161147619Y-67695238D01*
X161147619Y-67933333D01*
X161100000Y-68028571D01*
X161052380Y-68076190D01*
X160957142Y-68123809D01*
X160861904Y-68123809D01*
X160719047Y-68076190D01*
X160147619Y-67504761D01*
X160147619Y-68123809D01*
X160242857Y-69123809D02*
X160195238Y-69076190D01*
X160147619Y-68933333D01*
X160147619Y-68838095D01*
X160195238Y-68695238D01*
X160290476Y-68600000D01*
X160385714Y-68552380D01*
X160576190Y-68504761D01*
X160719047Y-68504761D01*
X160909523Y-68552380D01*
X161004761Y-68600000D01*
X161100000Y-68695238D01*
X161147619Y-68838095D01*
X161147619Y-68933333D01*
X161100000Y-69076190D01*
X161052380Y-69123809D01*
X143471428Y-108728571D02*
X143614285Y-108776190D01*
X143661904Y-108823809D01*
X143709523Y-108919047D01*
X143709523Y-109061904D01*
X143661904Y-109157142D01*
X143614285Y-109204761D01*
X143519047Y-109252380D01*
X143138095Y-109252380D01*
X143138095Y-108252380D01*
X143471428Y-108252380D01*
X143566666Y-108300000D01*
X143614285Y-108347619D01*
X143661904Y-108442857D01*
X143661904Y-108538095D01*
X143614285Y-108633333D01*
X143566666Y-108680952D01*
X143471428Y-108728571D01*
X143138095Y-108728571D01*
X143261904Y-106066666D02*
X143738095Y-106066666D01*
X143166666Y-106352380D02*
X143500000Y-105352380D01*
X143833333Y-106352380D01*
X142214285Y-110752380D02*
X142547619Y-111752380D01*
X142880952Y-110752380D01*
X143214285Y-111228571D02*
X143547619Y-111228571D01*
X143690476Y-111752380D02*
X143214285Y-111752380D01*
X143214285Y-110752380D01*
X143690476Y-110752380D01*
X141638095Y-113200000D02*
X141542857Y-113152380D01*
X141400000Y-113152380D01*
X141257142Y-113200000D01*
X141161904Y-113295238D01*
X141114285Y-113390476D01*
X141066666Y-113580952D01*
X141066666Y-113723809D01*
X141114285Y-113914285D01*
X141161904Y-114009523D01*
X141257142Y-114104761D01*
X141400000Y-114152380D01*
X141495238Y-114152380D01*
X141638095Y-114104761D01*
X141685714Y-114057142D01*
X141685714Y-113723809D01*
X141495238Y-113723809D01*
X142114285Y-114152380D02*
X142114285Y-113152380D01*
X142685714Y-114152380D01*
X142685714Y-113152380D01*
X143161904Y-114152380D02*
X143161904Y-113152380D01*
X143400000Y-113152380D01*
X143542857Y-113200000D01*
X143638095Y-113295238D01*
X143685714Y-113390476D01*
X143733333Y-113580952D01*
X143733333Y-113723809D01*
X143685714Y-113914285D01*
X143638095Y-114009523D01*
X143542857Y-114104761D01*
X143400000Y-114152380D01*
X143161904Y-114152380D01*
X153947619Y-102966666D02*
X153947619Y-103585714D01*
X153566666Y-103252380D01*
X153566666Y-103395238D01*
X153519047Y-103490476D01*
X153471428Y-103538095D01*
X153376190Y-103585714D01*
X153138095Y-103585714D01*
X153042857Y-103538095D01*
X152995238Y-103490476D01*
X152947619Y-103395238D01*
X152947619Y-103109523D01*
X152995238Y-103014285D01*
X153042857Y-102966666D01*
X151452380Y-103014285D02*
X151500000Y-103061904D01*
X151547619Y-103157142D01*
X151547619Y-103395238D01*
X151500000Y-103490476D01*
X151452380Y-103538095D01*
X151357142Y-103585714D01*
X151261904Y-103585714D01*
X151119047Y-103538095D01*
X150547619Y-102966666D01*
X150547619Y-103585714D01*
X147947619Y-103585714D02*
X147947619Y-103014285D01*
X147947619Y-103300000D02*
X148947619Y-103300000D01*
X148804761Y-103204761D01*
X148709523Y-103109523D01*
X148661904Y-103014285D01*
X146147619Y-103252380D02*
X146147619Y-103347619D01*
X146100000Y-103442857D01*
X146052380Y-103490476D01*
X145957142Y-103538095D01*
X145766666Y-103585714D01*
X145528571Y-103585714D01*
X145338095Y-103538095D01*
X145242857Y-103490476D01*
X145195238Y-103442857D01*
X145147619Y-103347619D01*
X145147619Y-103252380D01*
X145195238Y-103157142D01*
X145242857Y-103109523D01*
X145338095Y-103061904D01*
X145528571Y-103014285D01*
X145766666Y-103014285D01*
X145957142Y-103061904D01*
X146052380Y-103109523D01*
X146100000Y-103157142D01*
X146147619Y-103252380D01*
X173557142Y-88392857D02*
X173557142Y-87750000D01*
X173600000Y-87621428D01*
X173685714Y-87535714D01*
X173814285Y-87492857D01*
X173900000Y-87492857D01*
X172700000Y-87492857D02*
X173128571Y-87492857D01*
X173128571Y-88392857D01*
X171885714Y-87578571D02*
X171928571Y-87535714D01*
X172057142Y-87492857D01*
X172142857Y-87492857D01*
X172271428Y-87535714D01*
X172357142Y-87621428D01*
X172400000Y-87707142D01*
X172442857Y-87878571D01*
X172442857Y-88007142D01*
X172400000Y-88178571D01*
X172357142Y-88264285D01*
X172271428Y-88350000D01*
X172142857Y-88392857D01*
X172057142Y-88392857D01*
X171928571Y-88350000D01*
X171885714Y-88307142D01*
X171242857Y-88392857D02*
X171242857Y-87750000D01*
X171285714Y-87621428D01*
X171371428Y-87535714D01*
X171500000Y-87492857D01*
X171585714Y-87492857D01*
X170385714Y-87492857D02*
X170814285Y-87492857D01*
X170814285Y-88392857D01*
X169571428Y-87578571D02*
X169614285Y-87535714D01*
X169742857Y-87492857D01*
X169828571Y-87492857D01*
X169957142Y-87535714D01*
X170042857Y-87621428D01*
X170085714Y-87707142D01*
X170128571Y-87878571D01*
X170128571Y-88007142D01*
X170085714Y-88178571D01*
X170042857Y-88264285D01*
X169957142Y-88350000D01*
X169828571Y-88392857D01*
X169742857Y-88392857D01*
X169614285Y-88350000D01*
X169571428Y-88307142D01*
X168928571Y-88392857D02*
X168928571Y-87750000D01*
X168971428Y-87621428D01*
X169057142Y-87535714D01*
X169185714Y-87492857D01*
X169271428Y-87492857D01*
X168071428Y-87492857D02*
X168500000Y-87492857D01*
X168500000Y-88392857D01*
X167257142Y-87578571D02*
X167300000Y-87535714D01*
X167428571Y-87492857D01*
X167514285Y-87492857D01*
X167642857Y-87535714D01*
X167728571Y-87621428D01*
X167771428Y-87707142D01*
X167814285Y-87878571D01*
X167814285Y-88007142D01*
X167771428Y-88178571D01*
X167728571Y-88264285D01*
X167642857Y-88350000D01*
X167514285Y-88392857D01*
X167428571Y-88392857D01*
X167300000Y-88350000D01*
X167257142Y-88307142D01*
X166614285Y-88392857D02*
X166614285Y-87750000D01*
X166657142Y-87621428D01*
X166742857Y-87535714D01*
X166871428Y-87492857D01*
X166957142Y-87492857D01*
X165757142Y-87492857D02*
X166185714Y-87492857D01*
X166185714Y-88392857D01*
X164942857Y-87578571D02*
X164985714Y-87535714D01*
X165114285Y-87492857D01*
X165200000Y-87492857D01*
X165328571Y-87535714D01*
X165414285Y-87621428D01*
X165457142Y-87707142D01*
X165500000Y-87878571D01*
X165500000Y-88007142D01*
X165457142Y-88178571D01*
X165414285Y-88264285D01*
X165328571Y-88350000D01*
X165200000Y-88392857D01*
X165114285Y-88392857D01*
X164985714Y-88350000D01*
X164942857Y-88307142D01*
X164226071Y-100635714D02*
X164397500Y-100692857D01*
X164683214Y-100692857D01*
X164797500Y-100635714D01*
X164854642Y-100578571D01*
X164911785Y-100464285D01*
X164911785Y-100350000D01*
X164854642Y-100235714D01*
X164797500Y-100178571D01*
X164683214Y-100121428D01*
X164454642Y-100064285D01*
X164340357Y-100007142D01*
X164283214Y-99950000D01*
X164226071Y-99835714D01*
X164226071Y-99721428D01*
X164283214Y-99607142D01*
X164340357Y-99550000D01*
X164454642Y-99492857D01*
X164740357Y-99492857D01*
X164911785Y-99550000D01*
X165426071Y-100692857D02*
X165426071Y-99892857D01*
X165426071Y-100007142D02*
X165483214Y-99950000D01*
X165597500Y-99892857D01*
X165768928Y-99892857D01*
X165883214Y-99950000D01*
X165940357Y-100064285D01*
X165940357Y-100692857D01*
X165940357Y-100064285D02*
X165997500Y-99950000D01*
X166111785Y-99892857D01*
X166283214Y-99892857D01*
X166397500Y-99950000D01*
X166454642Y-100064285D01*
X166454642Y-100692857D01*
X167540357Y-100692857D02*
X167540357Y-100064285D01*
X167483214Y-99950000D01*
X167368928Y-99892857D01*
X167140357Y-99892857D01*
X167026071Y-99950000D01*
X167540357Y-100635714D02*
X167426071Y-100692857D01*
X167140357Y-100692857D01*
X167026071Y-100635714D01*
X166968928Y-100521428D01*
X166968928Y-100407142D01*
X167026071Y-100292857D01*
X167140357Y-100235714D01*
X167426071Y-100235714D01*
X167540357Y-100178571D01*
X168111785Y-100692857D02*
X168111785Y-99892857D01*
X168111785Y-100121428D02*
X168168928Y-100007142D01*
X168226071Y-99950000D01*
X168340357Y-99892857D01*
X168454642Y-99892857D01*
X168683214Y-99892857D02*
X169140357Y-99892857D01*
X168854642Y-99492857D02*
X168854642Y-100521428D01*
X168911785Y-100635714D01*
X169026071Y-100692857D01*
X169140357Y-100692857D01*
X170454642Y-100692857D02*
X170454642Y-99492857D01*
X170854642Y-100350000D01*
X171254642Y-99492857D01*
X171254642Y-100692857D01*
X171997500Y-100692857D02*
X171883214Y-100635714D01*
X171826071Y-100578571D01*
X171768928Y-100464285D01*
X171768928Y-100121428D01*
X171826071Y-100007142D01*
X171883214Y-99950000D01*
X171997500Y-99892857D01*
X172168928Y-99892857D01*
X172283214Y-99950000D01*
X172340357Y-100007142D01*
X172397500Y-100121428D01*
X172397500Y-100464285D01*
X172340357Y-100578571D01*
X172283214Y-100635714D01*
X172168928Y-100692857D01*
X171997500Y-100692857D01*
X172740357Y-99892857D02*
X173197500Y-99892857D01*
X172911785Y-99492857D02*
X172911785Y-100521428D01*
X172968928Y-100635714D01*
X173083214Y-100692857D01*
X173197500Y-100692857D01*
X173768928Y-100692857D02*
X173654642Y-100635714D01*
X173597500Y-100578571D01*
X173540357Y-100464285D01*
X173540357Y-100121428D01*
X173597500Y-100007142D01*
X173654642Y-99950000D01*
X173768928Y-99892857D01*
X173940357Y-99892857D01*
X174054642Y-99950000D01*
X174111785Y-100007142D01*
X174168928Y-100121428D01*
X174168928Y-100464285D01*
X174111785Y-100578571D01*
X174054642Y-100635714D01*
X173940357Y-100692857D01*
X173768928Y-100692857D01*
X174683214Y-100692857D02*
X174683214Y-99892857D01*
X174683214Y-100121428D02*
X174740357Y-100007142D01*
X174797500Y-99950000D01*
X174911785Y-99892857D01*
X175026071Y-99892857D01*
X164968928Y-102528571D02*
X164911785Y-102585714D01*
X164740357Y-102642857D01*
X164626071Y-102642857D01*
X164454642Y-102585714D01*
X164340357Y-102471428D01*
X164283214Y-102357142D01*
X164226071Y-102128571D01*
X164226071Y-101957142D01*
X164283214Y-101728571D01*
X164340357Y-101614285D01*
X164454642Y-101500000D01*
X164626071Y-101442857D01*
X164740357Y-101442857D01*
X164911785Y-101500000D01*
X164968928Y-101557142D01*
X165654642Y-102642857D02*
X165540357Y-102585714D01*
X165483214Y-102528571D01*
X165426071Y-102414285D01*
X165426071Y-102071428D01*
X165483214Y-101957142D01*
X165540357Y-101900000D01*
X165654642Y-101842857D01*
X165826071Y-101842857D01*
X165940357Y-101900000D01*
X165997500Y-101957142D01*
X166054642Y-102071428D01*
X166054642Y-102414285D01*
X165997500Y-102528571D01*
X165940357Y-102585714D01*
X165826071Y-102642857D01*
X165654642Y-102642857D01*
X166568928Y-101842857D02*
X166568928Y-102642857D01*
X166568928Y-101957142D02*
X166626071Y-101900000D01*
X166740357Y-101842857D01*
X166911785Y-101842857D01*
X167026071Y-101900000D01*
X167083214Y-102014285D01*
X167083214Y-102642857D01*
X167483214Y-101842857D02*
X167940357Y-101842857D01*
X167654642Y-101442857D02*
X167654642Y-102471428D01*
X167711785Y-102585714D01*
X167826071Y-102642857D01*
X167940357Y-102642857D01*
X168340357Y-102642857D02*
X168340357Y-101842857D01*
X168340357Y-102071428D02*
X168397500Y-101957142D01*
X168454642Y-101900000D01*
X168568928Y-101842857D01*
X168683214Y-101842857D01*
X169254642Y-102642857D02*
X169140357Y-102585714D01*
X169083214Y-102528571D01*
X169026071Y-102414285D01*
X169026071Y-102071428D01*
X169083214Y-101957142D01*
X169140357Y-101900000D01*
X169254642Y-101842857D01*
X169426071Y-101842857D01*
X169540357Y-101900000D01*
X169597500Y-101957142D01*
X169654642Y-102071428D01*
X169654642Y-102414285D01*
X169597500Y-102528571D01*
X169540357Y-102585714D01*
X169426071Y-102642857D01*
X169254642Y-102642857D01*
X170340357Y-102642857D02*
X170226071Y-102585714D01*
X170168928Y-102471428D01*
X170168928Y-101442857D01*
X170968928Y-102642857D02*
X170854642Y-102585714D01*
X170797500Y-102471428D01*
X170797500Y-101442857D01*
X171883214Y-102585714D02*
X171768928Y-102642857D01*
X171540357Y-102642857D01*
X171426071Y-102585714D01*
X171368928Y-102471428D01*
X171368928Y-102014285D01*
X171426071Y-101900000D01*
X171540357Y-101842857D01*
X171768928Y-101842857D01*
X171883214Y-101900000D01*
X171940357Y-102014285D01*
X171940357Y-102128571D01*
X171368928Y-102242857D01*
X172454642Y-102642857D02*
X172454642Y-101842857D01*
X172454642Y-102071428D02*
X172511785Y-101957142D01*
X172568928Y-101900000D01*
X172683214Y-101842857D01*
X172797500Y-101842857D01*
X164111785Y-103392857D02*
X164511785Y-104592857D01*
X164911785Y-103392857D01*
X165540357Y-103392857D02*
X165654642Y-103392857D01*
X165768928Y-103450000D01*
X165826071Y-103507142D01*
X165883214Y-103621428D01*
X165940357Y-103850000D01*
X165940357Y-104135714D01*
X165883214Y-104364285D01*
X165826071Y-104478571D01*
X165768928Y-104535714D01*
X165654642Y-104592857D01*
X165540357Y-104592857D01*
X165426071Y-104535714D01*
X165368928Y-104478571D01*
X165311785Y-104364285D01*
X165254642Y-104135714D01*
X165254642Y-103850000D01*
X165311785Y-103621428D01*
X165368928Y-103507142D01*
X165426071Y-103450000D01*
X165540357Y-103392857D01*
X166454642Y-104478571D02*
X166511785Y-104535714D01*
X166454642Y-104592857D01*
X166397500Y-104535714D01*
X166454642Y-104478571D01*
X166454642Y-104592857D01*
X166968928Y-103507142D02*
X167026071Y-103450000D01*
X167140357Y-103392857D01*
X167426071Y-103392857D01*
X167540357Y-103450000D01*
X167597500Y-103507142D01*
X167654642Y-103621428D01*
X167654642Y-103735714D01*
X167597500Y-103907142D01*
X166911785Y-104592857D01*
X167654642Y-104592857D01*
D12*
X164142857Y-71998809D02*
X164676190Y-73598809D01*
X165209523Y-71998809D01*
X165666666Y-73522619D02*
X165819047Y-73598809D01*
X166123809Y-73598809D01*
X166276190Y-73522619D01*
X166352380Y-73370238D01*
X166352380Y-73294047D01*
X166276190Y-73141666D01*
X166123809Y-73065476D01*
X165895238Y-73065476D01*
X165742857Y-72989285D01*
X165666666Y-72836904D01*
X165666666Y-72760714D01*
X165742857Y-72608333D01*
X165895238Y-72532142D01*
X166123809Y-72532142D01*
X166276190Y-72608333D01*
X167952380Y-73598809D02*
X167419047Y-72836904D01*
X167038095Y-73598809D02*
X167038095Y-71998809D01*
X167647619Y-71998809D01*
X167800000Y-72075000D01*
X167876190Y-72151190D01*
X167952380Y-72303571D01*
X167952380Y-72532142D01*
X167876190Y-72684523D01*
X167800000Y-72760714D01*
X167647619Y-72836904D01*
X167038095Y-72836904D01*
X169247619Y-73522619D02*
X169095238Y-73598809D01*
X168790476Y-73598809D01*
X168638095Y-73522619D01*
X168561904Y-73370238D01*
X168561904Y-72760714D01*
X168638095Y-72608333D01*
X168790476Y-72532142D01*
X169095238Y-72532142D01*
X169247619Y-72608333D01*
X169323809Y-72760714D01*
X169323809Y-72913095D01*
X168561904Y-73065476D01*
X170695238Y-73598809D02*
X170695238Y-72760714D01*
X170619047Y-72608333D01*
X170466666Y-72532142D01*
X170161904Y-72532142D01*
X170009523Y-72608333D01*
X170695238Y-73522619D02*
X170542857Y-73598809D01*
X170161904Y-73598809D01*
X170009523Y-73522619D01*
X169933333Y-73370238D01*
X169933333Y-73217857D01*
X170009523Y-73065476D01*
X170161904Y-72989285D01*
X170542857Y-72989285D01*
X170695238Y-72913095D01*
X171685714Y-73598809D02*
X171533333Y-73522619D01*
X171457142Y-73370238D01*
X171457142Y-71998809D01*
X172295238Y-73598809D02*
X172295238Y-72532142D01*
X172295238Y-71998809D02*
X172219047Y-72075000D01*
X172295238Y-72151190D01*
X172371428Y-72075000D01*
X172295238Y-71998809D01*
X172295238Y-72151190D01*
X172828571Y-72532142D02*
X173438095Y-72532142D01*
X173057142Y-71998809D02*
X173057142Y-73370238D01*
X173133333Y-73522619D01*
X173285714Y-73598809D01*
X173438095Y-73598809D01*
X173819047Y-72532142D02*
X174200000Y-73598809D01*
X174580952Y-72532142D02*
X174200000Y-73598809D01*
X174047619Y-73979761D01*
X173971428Y-74055952D01*
X173819047Y-74132142D01*
X165552380Y-76248809D02*
X165019047Y-75486904D01*
X164638095Y-76248809D02*
X164638095Y-74648809D01*
X165247619Y-74648809D01*
X165400000Y-74725000D01*
X165476190Y-74801190D01*
X165552380Y-74953571D01*
X165552380Y-75182142D01*
X165476190Y-75334523D01*
X165400000Y-75410714D01*
X165247619Y-75486904D01*
X164638095Y-75486904D01*
X166466666Y-76248809D02*
X166314285Y-76172619D01*
X166238095Y-76096428D01*
X166161904Y-75944047D01*
X166161904Y-75486904D01*
X166238095Y-75334523D01*
X166314285Y-75258333D01*
X166466666Y-75182142D01*
X166695238Y-75182142D01*
X166847619Y-75258333D01*
X166923809Y-75334523D01*
X167000000Y-75486904D01*
X167000000Y-75944047D01*
X166923809Y-76096428D01*
X166847619Y-76172619D01*
X166695238Y-76248809D01*
X166466666Y-76248809D01*
X167685714Y-76248809D02*
X167685714Y-74648809D01*
X167685714Y-75258333D02*
X167838095Y-75182142D01*
X168142857Y-75182142D01*
X168295238Y-75258333D01*
X168371428Y-75334523D01*
X168447619Y-75486904D01*
X168447619Y-75944047D01*
X168371428Y-76096428D01*
X168295238Y-76172619D01*
X168142857Y-76248809D01*
X167838095Y-76248809D01*
X167685714Y-76172619D01*
X169361904Y-76248809D02*
X169209523Y-76172619D01*
X169133333Y-76096428D01*
X169057142Y-75944047D01*
X169057142Y-75486904D01*
X169133333Y-75334523D01*
X169209523Y-75258333D01*
X169361904Y-75182142D01*
X169590476Y-75182142D01*
X169742857Y-75258333D01*
X169819047Y-75334523D01*
X169895238Y-75486904D01*
X169895238Y-75944047D01*
X169819047Y-76096428D01*
X169742857Y-76172619D01*
X169590476Y-76248809D01*
X169361904Y-76248809D01*
X170352380Y-75182142D02*
X170961904Y-75182142D01*
X170580952Y-74648809D02*
X170580952Y-76020238D01*
X170657142Y-76172619D01*
X170809523Y-76248809D01*
X170961904Y-76248809D01*
X171495238Y-76248809D02*
X171495238Y-75182142D01*
X171495238Y-74648809D02*
X171419047Y-74725000D01*
X171495238Y-74801190D01*
X171571428Y-74725000D01*
X171495238Y-74648809D01*
X171495238Y-74801190D01*
X172942857Y-76172619D02*
X172790476Y-76248809D01*
X172485714Y-76248809D01*
X172333333Y-76172619D01*
X172257142Y-76096428D01*
X172180952Y-75944047D01*
X172180952Y-75486904D01*
X172257142Y-75334523D01*
X172333333Y-75258333D01*
X172485714Y-75182142D01*
X172790476Y-75182142D01*
X172942857Y-75258333D01*
X173552380Y-76172619D02*
X173704761Y-76248809D01*
X174009523Y-76248809D01*
X174161904Y-76172619D01*
X174238095Y-76020238D01*
X174238095Y-75944047D01*
X174161904Y-75791666D01*
X174009523Y-75715476D01*
X173780952Y-75715476D01*
X173628571Y-75639285D01*
X173552380Y-75486904D01*
X173552380Y-75410714D01*
X173628571Y-75258333D01*
X173780952Y-75182142D01*
X174009523Y-75182142D01*
X174161904Y-75258333D01*
D11*
X176457142Y-103404761D02*
X176457142Y-102795238D01*
X176761904Y-103100000D02*
X176152380Y-103100000D01*
X157342857Y-108545238D02*
X157342857Y-109154761D01*
X157038095Y-108850000D02*
X157647619Y-108850000D01*
X147092857Y-79545238D02*
X147092857Y-80154761D01*
X146788095Y-79850000D02*
X147397619Y-79850000D01*
X182971428Y-104742857D02*
X182923809Y-104885714D01*
X182876190Y-104933333D01*
X182780952Y-104980952D01*
X182638095Y-104980952D01*
X182542857Y-104933333D01*
X182495238Y-104885714D01*
X182447619Y-104790476D01*
X182447619Y-104409523D01*
X183447619Y-104409523D01*
X183447619Y-104742857D01*
X183400000Y-104838095D01*
X183352380Y-104885714D01*
X183257142Y-104933333D01*
X183161904Y-104933333D01*
X183066666Y-104885714D01*
X183019047Y-104838095D01*
X182971428Y-104742857D01*
X182971428Y-104409523D01*
X183447619Y-105600000D02*
X183447619Y-105790476D01*
X183400000Y-105885714D01*
X183304761Y-105980952D01*
X183114285Y-106028571D01*
X182780952Y-106028571D01*
X182590476Y-105980952D01*
X182495238Y-105885714D01*
X182447619Y-105790476D01*
X182447619Y-105600000D01*
X182495238Y-105504761D01*
X182590476Y-105409523D01*
X182780952Y-105361904D01*
X183114285Y-105361904D01*
X183304761Y-105409523D01*
X183400000Y-105504761D01*
X183447619Y-105600000D01*
X183447619Y-106647619D02*
X183447619Y-106838095D01*
X183400000Y-106933333D01*
X183304761Y-107028571D01*
X183114285Y-107076190D01*
X182780952Y-107076190D01*
X182590476Y-107028571D01*
X182495238Y-106933333D01*
X182447619Y-106838095D01*
X182447619Y-106647619D01*
X182495238Y-106552380D01*
X182590476Y-106457142D01*
X182780952Y-106409523D01*
X183114285Y-106409523D01*
X183304761Y-106457142D01*
X183400000Y-106552380D01*
X183447619Y-106647619D01*
X183447619Y-107361904D02*
X183447619Y-107933333D01*
X182447619Y-107647619D02*
X183447619Y-107647619D01*
X146090476Y-71552380D02*
X146090476Y-70552380D01*
X146471428Y-70552380D01*
X146566666Y-70600000D01*
X146614285Y-70647619D01*
X146661904Y-70742857D01*
X146661904Y-70885714D01*
X146614285Y-70980952D01*
X146566666Y-71028571D01*
X146471428Y-71076190D01*
X146090476Y-71076190D01*
X147280952Y-70552380D02*
X147471428Y-70552380D01*
X147566666Y-70600000D01*
X147661904Y-70695238D01*
X147709523Y-70885714D01*
X147709523Y-71219047D01*
X147661904Y-71409523D01*
X147566666Y-71504761D01*
X147471428Y-71552380D01*
X147280952Y-71552380D01*
X147185714Y-71504761D01*
X147090476Y-71409523D01*
X147042857Y-71219047D01*
X147042857Y-70885714D01*
X147090476Y-70695238D01*
X147185714Y-70600000D01*
X147280952Y-70552380D01*
X148042857Y-70552380D02*
X148280952Y-71552380D01*
X148471428Y-70838095D01*
X148661904Y-71552380D01*
X148900000Y-70552380D01*
X149280952Y-71028571D02*
X149614285Y-71028571D01*
X149757142Y-71552380D02*
X149280952Y-71552380D01*
X149280952Y-70552380D01*
X149757142Y-70552380D01*
X150757142Y-71552380D02*
X150423809Y-71076190D01*
X150185714Y-71552380D02*
X150185714Y-70552380D01*
X150566666Y-70552380D01*
X150661904Y-70600000D01*
X150709523Y-70647619D01*
X150757142Y-70742857D01*
X150757142Y-70885714D01*
X150709523Y-70980952D01*
X150661904Y-71028571D01*
X150566666Y-71076190D01*
X150185714Y-71076190D01*
X185447619Y-87123809D02*
X186447619Y-87123809D01*
X186352380Y-87552380D02*
X186400000Y-87600000D01*
X186447619Y-87695238D01*
X186447619Y-87933333D01*
X186400000Y-88028571D01*
X186352380Y-88076190D01*
X186257142Y-88123809D01*
X186161904Y-88123809D01*
X186019047Y-88076190D01*
X185447619Y-87504761D01*
X185447619Y-88123809D01*
X185542857Y-89123809D02*
X185495238Y-89076190D01*
X185447619Y-88933333D01*
X185447619Y-88838095D01*
X185495238Y-88695238D01*
X185590476Y-88600000D01*
X185685714Y-88552380D01*
X185876190Y-88504761D01*
X186019047Y-88504761D01*
X186209523Y-88552380D01*
X186304761Y-88600000D01*
X186400000Y-88695238D01*
X186447619Y-88838095D01*
X186447619Y-88933333D01*
X186400000Y-89076190D01*
X186352380Y-89123809D01*
D10*
X189550000Y-76400000D02*
G75*
G03*
X189550000Y-76400000I-150000J0D01*
G01*
X138050000Y-73850000D02*
G75*
G03*
X138050000Y-73850000I-150000J0D01*
G01*
X138050000Y-86300000D02*
G75*
G03*
X138050000Y-86300000I-150000J0D01*
G01*
X176750000Y-91900000D02*
G75*
G03*
X176750000Y-91900000I-150000J0D01*
G01*
D11*
X189947619Y-111623809D02*
X189947619Y-112242857D01*
X189566666Y-111909523D01*
X189566666Y-112052380D01*
X189519047Y-112147619D01*
X189471428Y-112195238D01*
X189376190Y-112242857D01*
X189138095Y-112242857D01*
X189042857Y-112195238D01*
X188995238Y-112147619D01*
X188947619Y-112052380D01*
X188947619Y-111766666D01*
X188995238Y-111671428D01*
X189042857Y-111623809D01*
X189042857Y-112671428D02*
X188995238Y-112719047D01*
X188947619Y-112671428D01*
X188995238Y-112623809D01*
X189042857Y-112671428D01*
X188947619Y-112671428D01*
X189947619Y-113052380D02*
X189947619Y-113671428D01*
X189566666Y-113338095D01*
X189566666Y-113480952D01*
X189519047Y-113576190D01*
X189471428Y-113623809D01*
X189376190Y-113671428D01*
X189138095Y-113671428D01*
X189042857Y-113623809D01*
X188995238Y-113576190D01*
X188947619Y-113480952D01*
X188947619Y-113195238D01*
X188995238Y-113100000D01*
X189042857Y-113052380D01*
X189947619Y-113957142D02*
X188947619Y-114290476D01*
X189947619Y-114623809D01*
X138247619Y-61776190D02*
X137247619Y-62109523D01*
X138247619Y-62442857D01*
X137247619Y-62776190D02*
X137914285Y-62776190D01*
X138247619Y-62776190D02*
X138200000Y-62728571D01*
X138152380Y-62776190D01*
X138200000Y-62823809D01*
X138247619Y-62776190D01*
X138152380Y-62776190D01*
X137914285Y-63252380D02*
X137247619Y-63252380D01*
X137819047Y-63252380D02*
X137866666Y-63300000D01*
X137914285Y-63395238D01*
X137914285Y-63538095D01*
X137866666Y-63633333D01*
X137771428Y-63680952D01*
X137247619Y-63680952D01*
X184609523Y-81252380D02*
X184133333Y-81252380D01*
X184085714Y-81728571D01*
X184133333Y-81680952D01*
X184228571Y-81633333D01*
X184466666Y-81633333D01*
X184561904Y-81680952D01*
X184609523Y-81728571D01*
X184657142Y-81823809D01*
X184657142Y-82061904D01*
X184609523Y-82157142D01*
X184561904Y-82204761D01*
X184466666Y-82252380D01*
X184228571Y-82252380D01*
X184133333Y-82204761D01*
X184085714Y-82157142D01*
X184942857Y-81252380D02*
X185276190Y-82252380D01*
X185609523Y-81252380D01*
X163864285Y-110052380D02*
X164197619Y-111052380D01*
X164530952Y-110052380D01*
X164864285Y-110528571D02*
X165197619Y-110528571D01*
X165340476Y-111052380D02*
X164864285Y-111052380D01*
X164864285Y-110052380D01*
X165340476Y-110052380D01*
X156147619Y-67252380D02*
X156147619Y-67871428D01*
X155766666Y-67538095D01*
X155766666Y-67680952D01*
X155719047Y-67776190D01*
X155671428Y-67823809D01*
X155576190Y-67871428D01*
X155338095Y-67871428D01*
X155242857Y-67823809D01*
X155195238Y-67776190D01*
X155147619Y-67680952D01*
X155147619Y-67395238D01*
X155195238Y-67300000D01*
X155242857Y-67252380D01*
X155242857Y-68300000D02*
X155195238Y-68347619D01*
X155147619Y-68300000D01*
X155195238Y-68252380D01*
X155242857Y-68300000D01*
X155147619Y-68300000D01*
X156147619Y-68680952D02*
X156147619Y-69300000D01*
X155766666Y-68966666D01*
X155766666Y-69109523D01*
X155719047Y-69204761D01*
X155671428Y-69252380D01*
X155576190Y-69300000D01*
X155338095Y-69300000D01*
X155242857Y-69252380D01*
X155195238Y-69204761D01*
X155147619Y-69109523D01*
X155147619Y-68823809D01*
X155195238Y-68728571D01*
X155242857Y-68680952D01*
X188300000Y-65138095D02*
X188347619Y-65042857D01*
X188347619Y-64900000D01*
X188300000Y-64757142D01*
X188204761Y-64661904D01*
X188109523Y-64614285D01*
X187919047Y-64566666D01*
X187776190Y-64566666D01*
X187585714Y-64614285D01*
X187490476Y-64661904D01*
X187395238Y-64757142D01*
X187347619Y-64900000D01*
X187347619Y-64995238D01*
X187395238Y-65138095D01*
X187442857Y-65185714D01*
X187776190Y-65185714D01*
X187776190Y-64995238D01*
X187347619Y-65614285D02*
X188347619Y-65614285D01*
X187347619Y-66185714D01*
X188347619Y-66185714D01*
X187347619Y-66661904D02*
X188347619Y-66661904D01*
X188347619Y-66900000D01*
X188300000Y-67042857D01*
X188204761Y-67138095D01*
X188109523Y-67185714D01*
X187919047Y-67233333D01*
X187776190Y-67233333D01*
X187585714Y-67185714D01*
X187490476Y-67138095D01*
X187395238Y-67042857D01*
X187347619Y-66900000D01*
X187347619Y-66661904D01*
X122947619Y-105290476D02*
X123947619Y-105290476D01*
X123233333Y-105623809D01*
X123947619Y-105957142D01*
X122947619Y-105957142D01*
X123947619Y-106338095D02*
X123947619Y-106957142D01*
X123566666Y-106623809D01*
X123566666Y-106766666D01*
X123519047Y-106861904D01*
X123471428Y-106909523D01*
X123376190Y-106957142D01*
X123138095Y-106957142D01*
X123042857Y-106909523D01*
X122995238Y-106861904D01*
X122947619Y-106766666D01*
X122947619Y-106480952D01*
X122995238Y-106385714D01*
X123042857Y-106338095D01*
X122947619Y-95290476D02*
X123947619Y-95290476D01*
X123233333Y-95623809D01*
X123947619Y-95957142D01*
X122947619Y-95957142D01*
X123852380Y-96385714D02*
X123900000Y-96433333D01*
X123947619Y-96528571D01*
X123947619Y-96766666D01*
X123900000Y-96861904D01*
X123852380Y-96909523D01*
X123757142Y-96957142D01*
X123661904Y-96957142D01*
X123519047Y-96909523D01*
X122947619Y-96338095D01*
X122947619Y-96957142D01*
X122947619Y-85290476D02*
X123947619Y-85290476D01*
X123233333Y-85623809D01*
X123947619Y-85957142D01*
X122947619Y-85957142D01*
X122947619Y-86957142D02*
X122947619Y-86385714D01*
X122947619Y-86671428D02*
X123947619Y-86671428D01*
X123804761Y-86576190D01*
X123709523Y-86480952D01*
X123661904Y-86385714D01*
X122947619Y-75290476D02*
X123947619Y-75290476D01*
X123233333Y-75623809D01*
X123947619Y-75957142D01*
X122947619Y-75957142D01*
X123947619Y-76623809D02*
X123947619Y-76719047D01*
X123900000Y-76814285D01*
X123852380Y-76861904D01*
X123757142Y-76909523D01*
X123566666Y-76957142D01*
X123328571Y-76957142D01*
X123138095Y-76909523D01*
X123042857Y-76861904D01*
X122995238Y-76814285D01*
X122947619Y-76719047D01*
X122947619Y-76623809D01*
X122995238Y-76528571D01*
X123042857Y-76480952D01*
X123138095Y-76433333D01*
X123328571Y-76385714D01*
X123566666Y-76385714D01*
X123757142Y-76433333D01*
X123852380Y-76480952D01*
X123900000Y-76528571D01*
X123947619Y-76623809D01*
X185542857Y-102457142D02*
X185495238Y-102409523D01*
X185447619Y-102266666D01*
X185447619Y-102171428D01*
X185495238Y-102028571D01*
X185590476Y-101933333D01*
X185685714Y-101885714D01*
X185876190Y-101838095D01*
X186019047Y-101838095D01*
X186209523Y-101885714D01*
X186304761Y-101933333D01*
X186400000Y-102028571D01*
X186447619Y-102171428D01*
X186447619Y-102266666D01*
X186400000Y-102409523D01*
X186352380Y-102457142D01*
X185733333Y-102838095D02*
X185733333Y-103314285D01*
X185447619Y-102742857D02*
X186447619Y-103076190D01*
X185447619Y-103409523D01*
X185447619Y-103742857D02*
X186447619Y-103742857D01*
X185447619Y-104314285D01*
X186447619Y-104314285D01*
X190387619Y-68908095D02*
X189578095Y-68908095D01*
X189482857Y-68955714D01*
X189435238Y-69003333D01*
X189387619Y-69098571D01*
X189387619Y-69289047D01*
X189435238Y-69384285D01*
X189482857Y-69431904D01*
X189578095Y-69479523D01*
X190387619Y-69479523D01*
X189435238Y-69908095D02*
X189387619Y-70050952D01*
X189387619Y-70289047D01*
X189435238Y-70384285D01*
X189482857Y-70431904D01*
X189578095Y-70479523D01*
X189673333Y-70479523D01*
X189768571Y-70431904D01*
X189816190Y-70384285D01*
X189863809Y-70289047D01*
X189911428Y-70098571D01*
X189959047Y-70003333D01*
X190006666Y-69955714D01*
X190101904Y-69908095D01*
X190197142Y-69908095D01*
X190292380Y-69955714D01*
X190340000Y-70003333D01*
X190387619Y-70098571D01*
X190387619Y-70336666D01*
X190340000Y-70479523D01*
X189911428Y-71241428D02*
X189863809Y-71384285D01*
X189816190Y-71431904D01*
X189720952Y-71479523D01*
X189578095Y-71479523D01*
X189482857Y-71431904D01*
X189435238Y-71384285D01*
X189387619Y-71289047D01*
X189387619Y-70908095D01*
X190387619Y-70908095D01*
X190387619Y-71241428D01*
X190340000Y-71336666D01*
X190292380Y-71384285D01*
X190197142Y-71431904D01*
X190101904Y-71431904D01*
X190006666Y-71384285D01*
X189959047Y-71336666D01*
X189911428Y-71241428D01*
X189911428Y-70908095D01*
D13*
%TO.C,U201*%
X148360000Y-89700000D02*
X148360000Y-86250000D01*
X148360000Y-89700000D02*
X148360000Y-91650000D01*
X143240000Y-89700000D02*
X143240000Y-87750000D01*
X143240000Y-89700000D02*
X143240000Y-91650000D01*
D11*
%TO.C,U304*%
X135975000Y-110475000D02*
X135975000Y-110425000D01*
X131825000Y-110475000D02*
X131825000Y-110330000D01*
X131825000Y-105325000D02*
X131825000Y-105470000D01*
X135975000Y-105325000D02*
X135975000Y-105470000D01*
X135975000Y-110475000D02*
X131825000Y-110475000D01*
X135975000Y-105325000D02*
X131825000Y-105325000D01*
X135975000Y-110425000D02*
X137375000Y-110425000D01*
%TO.C,U303*%
X135975000Y-85675000D02*
X135975000Y-85625000D01*
X131825000Y-85675000D02*
X131825000Y-85530000D01*
X131825000Y-80525000D02*
X131825000Y-80670000D01*
X135975000Y-80525000D02*
X135975000Y-80670000D01*
X135975000Y-85675000D02*
X131825000Y-85675000D01*
X135975000Y-80525000D02*
X131825000Y-80525000D01*
X135975000Y-85625000D02*
X137375000Y-85625000D01*
%TO.C,U302*%
X135975000Y-98075000D02*
X135975000Y-98025000D01*
X131825000Y-98075000D02*
X131825000Y-97930000D01*
X131825000Y-92925000D02*
X131825000Y-93070000D01*
X135975000Y-92925000D02*
X135975000Y-93070000D01*
X135975000Y-98075000D02*
X131825000Y-98075000D01*
X135975000Y-92925000D02*
X131825000Y-92925000D01*
X135975000Y-98025000D02*
X137375000Y-98025000D01*
%TO.C,U301*%
X135975000Y-73275000D02*
X135975000Y-73225000D01*
X131825000Y-73275000D02*
X131825000Y-73130000D01*
X131825000Y-68125000D02*
X131825000Y-68270000D01*
X135975000Y-68125000D02*
X135975000Y-68270000D01*
X135975000Y-73275000D02*
X131825000Y-73275000D01*
X135975000Y-68125000D02*
X131825000Y-68125000D01*
X135975000Y-73225000D02*
X137375000Y-73225000D01*
D13*
%TO.C,J104*%
X189230000Y-61270000D02*
X189230000Y-62600000D01*
X187900000Y-61270000D02*
X189230000Y-61270000D01*
X186630000Y-61270000D02*
X186630000Y-63930000D01*
X186630000Y-63930000D02*
X178950000Y-63930000D01*
X186630000Y-61270000D02*
X178950000Y-61270000D01*
X178950000Y-61270000D02*
X178950000Y-63930000D01*
%TO.C,J101*%
X154370000Y-61270000D02*
X154370000Y-66470000D01*
X167130000Y-61270000D02*
X154370000Y-61270000D01*
X169730000Y-66470000D02*
X154370000Y-66470000D01*
X167130000Y-61270000D02*
X167130000Y-63870000D01*
X167130000Y-63870000D02*
X169730000Y-63870000D01*
X169730000Y-63870000D02*
X169730000Y-66470000D01*
X168400000Y-61270000D02*
X169730000Y-61270000D01*
X169730000Y-61270000D02*
X169730000Y-62600000D01*
%TO.C,J304*%
X122700000Y-98100000D02*
X122700000Y-108100000D01*
X122700000Y-108100000D02*
X112400000Y-108100000D01*
X112400000Y-108100000D02*
X112400000Y-98100000D01*
X112400000Y-98100000D02*
X122700000Y-98100000D01*
X122700000Y-108100000D02*
X122700000Y-108700000D01*
X122700000Y-108700000D02*
X112400000Y-108700000D01*
X112400000Y-108700000D02*
X112400000Y-108100000D01*
X112700000Y-98100000D02*
X112700000Y-108100000D01*
%TO.C,J303*%
X122700000Y-78100000D02*
X122700000Y-88100000D01*
X122700000Y-88100000D02*
X112400000Y-88100000D01*
X112400000Y-88100000D02*
X112400000Y-78100000D01*
X112400000Y-78100000D02*
X122700000Y-78100000D01*
X122700000Y-88100000D02*
X122700000Y-88700000D01*
X122700000Y-88700000D02*
X112400000Y-88700000D01*
X112400000Y-88700000D02*
X112400000Y-88100000D01*
X112700000Y-78100000D02*
X112700000Y-88100000D01*
%TO.C,J302*%
X122700000Y-88100000D02*
X122700000Y-98100000D01*
X122700000Y-98100000D02*
X112400000Y-98100000D01*
X112400000Y-98100000D02*
X112400000Y-88100000D01*
X112400000Y-88100000D02*
X122700000Y-88100000D01*
X122700000Y-98100000D02*
X122700000Y-98700000D01*
X122700000Y-98700000D02*
X112400000Y-98700000D01*
X112400000Y-98700000D02*
X112400000Y-98100000D01*
X112700000Y-88100000D02*
X112700000Y-98100000D01*
%TO.C,J301*%
X122700000Y-68100000D02*
X122700000Y-78100000D01*
X122700000Y-78100000D02*
X112400000Y-78100000D01*
X112400000Y-78100000D02*
X112400000Y-68100000D01*
X112400000Y-68100000D02*
X122700000Y-68100000D01*
X122700000Y-78100000D02*
X122700000Y-78700000D01*
X122700000Y-78700000D02*
X112400000Y-78700000D01*
X112400000Y-78700000D02*
X112400000Y-78100000D01*
X112700000Y-68100000D02*
X112700000Y-78100000D01*
%TO.C,J9*%
X153400000Y-70400000D02*
X143400000Y-70400000D01*
X143400000Y-70400000D02*
X143400000Y-60100000D01*
X143400000Y-60100000D02*
X153400000Y-60100000D01*
X153400000Y-60100000D02*
X153400000Y-70400000D01*
X143400000Y-70400000D02*
X142800000Y-70400000D01*
X142800000Y-70400000D02*
X142800000Y-60100000D01*
X142800000Y-60100000D02*
X143400000Y-60100000D01*
X153400000Y-60400000D02*
X143400000Y-60400000D01*
%TO.C,J309*%
X162070000Y-114430000D02*
X162070000Y-113100000D01*
X163400000Y-114430000D02*
X162070000Y-114430000D01*
X164670000Y-114430000D02*
X164670000Y-111770000D01*
X164670000Y-111770000D02*
X167270000Y-111770000D01*
X164670000Y-114430000D02*
X167270000Y-114430000D01*
X167270000Y-114430000D02*
X167270000Y-111770000D01*
%TO.C,D301*%
X159400000Y-108850000D02*
X159400000Y-112750000D01*
X157400000Y-108850000D02*
X157400000Y-112750000D01*
X159400000Y-108850000D02*
X157400000Y-108850000D01*
%TO.C,SW103*%
X182300000Y-73000000D02*
X182300000Y-79000000D01*
X179300000Y-79000000D02*
X179300000Y-73000000D01*
X179300000Y-73000000D02*
X182300000Y-73000000D01*
X179300000Y-79000000D02*
X182300000Y-79000000D01*
%TO.C,SW102*%
X179100000Y-109000000D02*
X179100000Y-103000000D01*
X182100000Y-103000000D02*
X182100000Y-109000000D01*
X182100000Y-109000000D02*
X179100000Y-109000000D01*
X182100000Y-103000000D02*
X179100000Y-103000000D01*
%TO.C,3.3V201*%
X188350000Y-113100000D02*
G75*
G03*
X188350000Y-113100000I-950000J0D01*
G01*
%TO.C,R101*%
X178580000Y-104553641D02*
X178580000Y-104246359D01*
X177820000Y-104553641D02*
X177820000Y-104246359D01*
%TO.C,C101*%
X178240000Y-74372164D02*
X178240000Y-74587836D01*
X178960000Y-74372164D02*
X178960000Y-74587836D01*
%TO.C,Q101*%
X146430000Y-78755000D02*
X145330000Y-78755000D01*
X146430000Y-79025000D02*
X146430000Y-78755000D01*
X147930000Y-79025000D02*
X146430000Y-79025000D01*
X146430000Y-72395000D02*
X143600000Y-72395000D01*
X146430000Y-72125000D02*
X146430000Y-72395000D01*
X147930000Y-72125000D02*
X146430000Y-72125000D01*
%TO.C,D201*%
X148900000Y-93350000D02*
X148900000Y-89450000D01*
X150900000Y-93350000D02*
X150900000Y-89450000D01*
X148900000Y-93350000D02*
X150900000Y-93350000D01*
%TO.C,TP2*%
X186200000Y-79100000D02*
G75*
G03*
X186200000Y-79100000I-1200000J0D01*
G01*
%TO.C,J10*%
X191100000Y-78800000D02*
X191100000Y-68800000D01*
X197230000Y-68800000D02*
X197230000Y-78800000D01*
X191100000Y-78800000D02*
X197230000Y-78800000D01*
X197230000Y-68800000D02*
X191100000Y-68800000D01*
%TO.C,U3*%
X186200000Y-76510000D02*
X188650000Y-76510000D01*
X188000000Y-73290000D02*
X186200000Y-73290000D01*
%TO.C,U2*%
X174510000Y-92300000D02*
X175850000Y-92300000D01*
X174510000Y-93250000D02*
X174510000Y-92300000D01*
X173560000Y-93250000D02*
X174510000Y-93250000D01*
X164290000Y-93250000D02*
X164290000Y-92300000D01*
X165240000Y-93250000D02*
X164290000Y-93250000D01*
X174510000Y-83030000D02*
X174510000Y-83980000D01*
X173560000Y-83030000D02*
X174510000Y-83030000D01*
X164290000Y-83030000D02*
X164290000Y-83980000D01*
X165240000Y-83030000D02*
X164290000Y-83030000D01*
%TO.C,R15*%
X177780000Y-98546359D02*
X177780000Y-98853641D01*
X177020000Y-98546359D02*
X177020000Y-98853641D01*
%TO.C,R14*%
X177020000Y-101053641D02*
X177020000Y-100746359D01*
X177780000Y-101053641D02*
X177780000Y-100746359D01*
%TO.C,R7*%
X173397500Y-104857258D02*
X173397500Y-104382742D01*
X174442500Y-104857258D02*
X174442500Y-104382742D01*
%TO.C,R6*%
X177256359Y-88760000D02*
X177563641Y-88760000D01*
X177256359Y-89520000D02*
X177563641Y-89520000D01*
%TO.C,HSE1*%
X179050000Y-91940000D02*
X182350000Y-91940000D01*
X182350000Y-91940000D02*
X182350000Y-87940000D01*
%TO.C,D3*%
X174955000Y-103800000D02*
X174955000Y-106085000D01*
X174955000Y-106085000D02*
X176425000Y-106085000D01*
X176425000Y-106085000D02*
X176425000Y-103800000D01*
%TO.C,D2*%
X147050000Y-81900000D02*
X143150000Y-81900000D01*
X147050000Y-79900000D02*
X143150000Y-79900000D01*
X147050000Y-81900000D02*
X147050000Y-79900000D01*
%TO.C,D1*%
X149650000Y-79900000D02*
X153550000Y-79900000D01*
X149650000Y-81900000D02*
X153550000Y-81900000D01*
X149650000Y-79900000D02*
X149650000Y-81900000D01*
%TO.C,C18*%
X180592164Y-86780000D02*
X180807836Y-86780000D01*
X180592164Y-87500000D02*
X180807836Y-87500000D01*
%TO.C,C17*%
X180707836Y-93300000D02*
X180492164Y-93300000D01*
X180707836Y-92580000D02*
X180492164Y-92580000D01*
%TO.C,C16*%
X161080000Y-92334420D02*
X161080000Y-92615580D01*
X162100000Y-92334420D02*
X162100000Y-92615580D01*
%TO.C,C15*%
X164940580Y-79830000D02*
X164659420Y-79830000D01*
X164940580Y-80850000D02*
X164659420Y-80850000D01*
%TO.C,C14*%
X177672164Y-85930000D02*
X177887836Y-85930000D01*
X177672164Y-85210000D02*
X177887836Y-85210000D01*
%TO.C,C13*%
X177672164Y-84930000D02*
X177887836Y-84930000D01*
X177672164Y-84210000D02*
X177887836Y-84210000D01*
%TO.C,C8*%
X173552164Y-96060000D02*
X173767836Y-96060000D01*
X173552164Y-95340000D02*
X173767836Y-95340000D01*
%TO.C,C7*%
X163592164Y-94460000D02*
X163807836Y-94460000D01*
X163592164Y-93740000D02*
X163807836Y-93740000D01*
%TO.C,C6*%
X163030000Y-82492164D02*
X163030000Y-82707836D01*
X163750000Y-82492164D02*
X163750000Y-82707836D01*
%TO.C,C5*%
X172832164Y-81120000D02*
X173047836Y-81120000D01*
X172832164Y-80400000D02*
X173047836Y-80400000D01*
%TO.C,C4*%
X175942164Y-93460000D02*
X176157836Y-93460000D01*
X175942164Y-92740000D02*
X176157836Y-92740000D01*
%TO.C,C3*%
X173804420Y-97660000D02*
X174085580Y-97660000D01*
X173804420Y-96640000D02*
X174085580Y-96640000D01*
%TO.C,C201*%
X149560000Y-86492164D02*
X149560000Y-86707836D01*
X148840000Y-86492164D02*
X148840000Y-86707836D01*
%TO.C,C202*%
X147288748Y-84810000D02*
X148711252Y-84810000D01*
X147288748Y-82990000D02*
X148711252Y-82990000D01*
%TO.C,C203*%
X145859420Y-96410000D02*
X146140580Y-96410000D01*
X145859420Y-95390000D02*
X146140580Y-95390000D01*
%TO.C,C204*%
X144840000Y-97592164D02*
X144840000Y-97807836D01*
X145560000Y-97592164D02*
X145560000Y-97807836D01*
%TO.C,C205*%
X143265580Y-85010000D02*
X142984420Y-85010000D01*
X143265580Y-83990000D02*
X142984420Y-83990000D01*
%TO.C,C206*%
X153510000Y-92611252D02*
X153510000Y-91188748D01*
X151690000Y-92611252D02*
X151690000Y-91188748D01*
%TO.C,C207*%
X154290000Y-92611252D02*
X154290000Y-91188748D01*
X156110000Y-92611252D02*
X156110000Y-91188748D01*
%TO.C,C301*%
X130390000Y-66209420D02*
X130390000Y-66490580D01*
X131410000Y-66209420D02*
X131410000Y-66490580D01*
%TO.C,C302*%
X128954775Y-68825000D02*
X128954775Y-68325000D01*
X129204775Y-68575000D02*
X128704775Y-68575000D01*
X123799000Y-67384000D02*
X123799000Y-66816000D01*
X123839000Y-67618000D02*
X123839000Y-66582000D01*
X123879000Y-67777000D02*
X123879000Y-66423000D01*
X123919000Y-67905000D02*
X123919000Y-66295000D01*
X123959000Y-68015000D02*
X123959000Y-66185000D01*
X123999000Y-68111000D02*
X123999000Y-66089000D01*
X124039000Y-68198000D02*
X124039000Y-66002000D01*
X124079000Y-68278000D02*
X124079000Y-65922000D01*
X124119000Y-68351000D02*
X124119000Y-65849000D01*
X124159000Y-68419000D02*
X124159000Y-65781000D01*
X124199000Y-68483000D02*
X124199000Y-65717000D01*
X124239000Y-68543000D02*
X124239000Y-65657000D01*
X124279000Y-68600000D02*
X124279000Y-65600000D01*
X124319000Y-68654000D02*
X124319000Y-65546000D01*
X124359000Y-68705000D02*
X124359000Y-65495000D01*
X124399000Y-66060000D02*
X124399000Y-65447000D01*
X124399000Y-68753000D02*
X124399000Y-68140000D01*
X124439000Y-66060000D02*
X124439000Y-65401000D01*
X124439000Y-68799000D02*
X124439000Y-68140000D01*
X124479000Y-66060000D02*
X124479000Y-65357000D01*
X124479000Y-68843000D02*
X124479000Y-68140000D01*
X124519000Y-66060000D02*
X124519000Y-65315000D01*
X124519000Y-68885000D02*
X124519000Y-68140000D01*
X124559000Y-66060000D02*
X124559000Y-65274000D01*
X124559000Y-68926000D02*
X124559000Y-68140000D01*
X124599000Y-66060000D02*
X124599000Y-65236000D01*
X124599000Y-68964000D02*
X124599000Y-68140000D01*
X124639000Y-66060000D02*
X124639000Y-65199000D01*
X124639000Y-69001000D02*
X124639000Y-68140000D01*
X124679000Y-66060000D02*
X124679000Y-65163000D01*
X124679000Y-69037000D02*
X124679000Y-68140000D01*
X124719000Y-66060000D02*
X124719000Y-65129000D01*
X124719000Y-69071000D02*
X124719000Y-68140000D01*
X124759000Y-66060000D02*
X124759000Y-65096000D01*
X124759000Y-69104000D02*
X124759000Y-68140000D01*
X124799000Y-66060000D02*
X124799000Y-65065000D01*
X124799000Y-69135000D02*
X124799000Y-68140000D01*
X124839000Y-66060000D02*
X124839000Y-65035000D01*
X124839000Y-69165000D02*
X124839000Y-68140000D01*
X124879000Y-66060000D02*
X124879000Y-65005000D01*
X124879000Y-69195000D02*
X124879000Y-68140000D01*
X124919000Y-66060000D02*
X124919000Y-64978000D01*
X124919000Y-69222000D02*
X124919000Y-68140000D01*
X124959000Y-66060000D02*
X124959000Y-64951000D01*
X124959000Y-69249000D02*
X124959000Y-68140000D01*
X124999000Y-66060000D02*
X124999000Y-64925000D01*
X124999000Y-69275000D02*
X124999000Y-68140000D01*
X125039000Y-66060000D02*
X125039000Y-64900000D01*
X125039000Y-69300000D02*
X125039000Y-68140000D01*
X125079000Y-66060000D02*
X125079000Y-64876000D01*
X125079000Y-69324000D02*
X125079000Y-68140000D01*
X125119000Y-66060000D02*
X125119000Y-64853000D01*
X125119000Y-69347000D02*
X125119000Y-68140000D01*
X125159000Y-66060000D02*
X125159000Y-64832000D01*
X125159000Y-69368000D02*
X125159000Y-68140000D01*
X125199000Y-66060000D02*
X125199000Y-64810000D01*
X125199000Y-69390000D02*
X125199000Y-68140000D01*
X125239000Y-66060000D02*
X125239000Y-64790000D01*
X125239000Y-69410000D02*
X125239000Y-68140000D01*
X125279000Y-66060000D02*
X125279000Y-64771000D01*
X125279000Y-69429000D02*
X125279000Y-68140000D01*
X125319000Y-66060000D02*
X125319000Y-64752000D01*
X125319000Y-69448000D02*
X125319000Y-68140000D01*
X125359000Y-66060000D02*
X125359000Y-64735000D01*
X125359000Y-69465000D02*
X125359000Y-68140000D01*
X125399000Y-66060000D02*
X125399000Y-64718000D01*
X125399000Y-69482000D02*
X125399000Y-68140000D01*
X125439000Y-66060000D02*
X125439000Y-64702000D01*
X125439000Y-69498000D02*
X125439000Y-68140000D01*
X125479000Y-66060000D02*
X125479000Y-64686000D01*
X125479000Y-69514000D02*
X125479000Y-68140000D01*
X125519000Y-66060000D02*
X125519000Y-64672000D01*
X125519000Y-69528000D02*
X125519000Y-68140000D01*
X125559000Y-66060000D02*
X125559000Y-64658000D01*
X125559000Y-69542000D02*
X125559000Y-68140000D01*
X125599000Y-66060000D02*
X125599000Y-64645000D01*
X125599000Y-69555000D02*
X125599000Y-68140000D01*
X125639000Y-66060000D02*
X125639000Y-64632000D01*
X125639000Y-69568000D02*
X125639000Y-68140000D01*
X125679000Y-66060000D02*
X125679000Y-64620000D01*
X125679000Y-69580000D02*
X125679000Y-68140000D01*
X125720000Y-66060000D02*
X125720000Y-64609000D01*
X125720000Y-69591000D02*
X125720000Y-68140000D01*
X125760000Y-66060000D02*
X125760000Y-64599000D01*
X125760000Y-69601000D02*
X125760000Y-68140000D01*
X125800000Y-66060000D02*
X125800000Y-64589000D01*
X125800000Y-69611000D02*
X125800000Y-68140000D01*
X125840000Y-66060000D02*
X125840000Y-64580000D01*
X125840000Y-69620000D02*
X125840000Y-68140000D01*
X125880000Y-66060000D02*
X125880000Y-64572000D01*
X125880000Y-69628000D02*
X125880000Y-68140000D01*
X125920000Y-66060000D02*
X125920000Y-64564000D01*
X125920000Y-69636000D02*
X125920000Y-68140000D01*
X125960000Y-66060000D02*
X125960000Y-64557000D01*
X125960000Y-69643000D02*
X125960000Y-68140000D01*
X126000000Y-66060000D02*
X126000000Y-64550000D01*
X126000000Y-69650000D02*
X126000000Y-68140000D01*
X126040000Y-66060000D02*
X126040000Y-64544000D01*
X126040000Y-69656000D02*
X126040000Y-68140000D01*
X126080000Y-66060000D02*
X126080000Y-64539000D01*
X126080000Y-69661000D02*
X126080000Y-68140000D01*
X126120000Y-66060000D02*
X126120000Y-64535000D01*
X126120000Y-69665000D02*
X126120000Y-68140000D01*
X126160000Y-66060000D02*
X126160000Y-64531000D01*
X126160000Y-69669000D02*
X126160000Y-68140000D01*
X126200000Y-66060000D02*
X126200000Y-64527000D01*
X126200000Y-69673000D02*
X126200000Y-68140000D01*
X126240000Y-66060000D02*
X126240000Y-64524000D01*
X126240000Y-69676000D02*
X126240000Y-68140000D01*
X126280000Y-66060000D02*
X126280000Y-64522000D01*
X126280000Y-69678000D02*
X126280000Y-68140000D01*
X126320000Y-66060000D02*
X126320000Y-64521000D01*
X126320000Y-69679000D02*
X126320000Y-68140000D01*
X126360000Y-69680000D02*
X126360000Y-68140000D01*
X126360000Y-66060000D02*
X126360000Y-64520000D01*
X126400000Y-69680000D02*
X126400000Y-68140000D01*
X126400000Y-66060000D02*
X126400000Y-64520000D01*
X129020000Y-67100000D02*
G75*
G03*
X129020000Y-67100000I-2620000J0D01*
G01*
%TO.C,C303*%
X131410000Y-78609420D02*
X131410000Y-78890580D01*
X130390000Y-78609420D02*
X130390000Y-78890580D01*
%TO.C,C304*%
X129020000Y-79500000D02*
G75*
G03*
X129020000Y-79500000I-2620000J0D01*
G01*
X126400000Y-78460000D02*
X126400000Y-76920000D01*
X126400000Y-82080000D02*
X126400000Y-80540000D01*
X126360000Y-78460000D02*
X126360000Y-76920000D01*
X126360000Y-82080000D02*
X126360000Y-80540000D01*
X126320000Y-82079000D02*
X126320000Y-80540000D01*
X126320000Y-78460000D02*
X126320000Y-76921000D01*
X126280000Y-82078000D02*
X126280000Y-80540000D01*
X126280000Y-78460000D02*
X126280000Y-76922000D01*
X126240000Y-82076000D02*
X126240000Y-80540000D01*
X126240000Y-78460000D02*
X126240000Y-76924000D01*
X126200000Y-82073000D02*
X126200000Y-80540000D01*
X126200000Y-78460000D02*
X126200000Y-76927000D01*
X126160000Y-82069000D02*
X126160000Y-80540000D01*
X126160000Y-78460000D02*
X126160000Y-76931000D01*
X126120000Y-82065000D02*
X126120000Y-80540000D01*
X126120000Y-78460000D02*
X126120000Y-76935000D01*
X126080000Y-82061000D02*
X126080000Y-80540000D01*
X126080000Y-78460000D02*
X126080000Y-76939000D01*
X126040000Y-82056000D02*
X126040000Y-80540000D01*
X126040000Y-78460000D02*
X126040000Y-76944000D01*
X126000000Y-82050000D02*
X126000000Y-80540000D01*
X126000000Y-78460000D02*
X126000000Y-76950000D01*
X125960000Y-82043000D02*
X125960000Y-80540000D01*
X125960000Y-78460000D02*
X125960000Y-76957000D01*
X125920000Y-82036000D02*
X125920000Y-80540000D01*
X125920000Y-78460000D02*
X125920000Y-76964000D01*
X125880000Y-82028000D02*
X125880000Y-80540000D01*
X125880000Y-78460000D02*
X125880000Y-76972000D01*
X125840000Y-82020000D02*
X125840000Y-80540000D01*
X125840000Y-78460000D02*
X125840000Y-76980000D01*
X125800000Y-82011000D02*
X125800000Y-80540000D01*
X125800000Y-78460000D02*
X125800000Y-76989000D01*
X125760000Y-82001000D02*
X125760000Y-80540000D01*
X125760000Y-78460000D02*
X125760000Y-76999000D01*
X125720000Y-81991000D02*
X125720000Y-80540000D01*
X125720000Y-78460000D02*
X125720000Y-77009000D01*
X125679000Y-81980000D02*
X125679000Y-80540000D01*
X125679000Y-78460000D02*
X125679000Y-77020000D01*
X125639000Y-81968000D02*
X125639000Y-80540000D01*
X125639000Y-78460000D02*
X125639000Y-77032000D01*
X125599000Y-81955000D02*
X125599000Y-80540000D01*
X125599000Y-78460000D02*
X125599000Y-77045000D01*
X125559000Y-81942000D02*
X125559000Y-80540000D01*
X125559000Y-78460000D02*
X125559000Y-77058000D01*
X125519000Y-81928000D02*
X125519000Y-80540000D01*
X125519000Y-78460000D02*
X125519000Y-77072000D01*
X125479000Y-81914000D02*
X125479000Y-80540000D01*
X125479000Y-78460000D02*
X125479000Y-77086000D01*
X125439000Y-81898000D02*
X125439000Y-80540000D01*
X125439000Y-78460000D02*
X125439000Y-77102000D01*
X125399000Y-81882000D02*
X125399000Y-80540000D01*
X125399000Y-78460000D02*
X125399000Y-77118000D01*
X125359000Y-81865000D02*
X125359000Y-80540000D01*
X125359000Y-78460000D02*
X125359000Y-77135000D01*
X125319000Y-81848000D02*
X125319000Y-80540000D01*
X125319000Y-78460000D02*
X125319000Y-77152000D01*
X125279000Y-81829000D02*
X125279000Y-80540000D01*
X125279000Y-78460000D02*
X125279000Y-77171000D01*
X125239000Y-81810000D02*
X125239000Y-80540000D01*
X125239000Y-78460000D02*
X125239000Y-77190000D01*
X125199000Y-81790000D02*
X125199000Y-80540000D01*
X125199000Y-78460000D02*
X125199000Y-77210000D01*
X125159000Y-81768000D02*
X125159000Y-80540000D01*
X125159000Y-78460000D02*
X125159000Y-77232000D01*
X125119000Y-81747000D02*
X125119000Y-80540000D01*
X125119000Y-78460000D02*
X125119000Y-77253000D01*
X125079000Y-81724000D02*
X125079000Y-80540000D01*
X125079000Y-78460000D02*
X125079000Y-77276000D01*
X125039000Y-81700000D02*
X125039000Y-80540000D01*
X125039000Y-78460000D02*
X125039000Y-77300000D01*
X124999000Y-81675000D02*
X124999000Y-80540000D01*
X124999000Y-78460000D02*
X124999000Y-77325000D01*
X124959000Y-81649000D02*
X124959000Y-80540000D01*
X124959000Y-78460000D02*
X124959000Y-77351000D01*
X124919000Y-81622000D02*
X124919000Y-80540000D01*
X124919000Y-78460000D02*
X124919000Y-77378000D01*
X124879000Y-81595000D02*
X124879000Y-80540000D01*
X124879000Y-78460000D02*
X124879000Y-77405000D01*
X124839000Y-81565000D02*
X124839000Y-80540000D01*
X124839000Y-78460000D02*
X124839000Y-77435000D01*
X124799000Y-81535000D02*
X124799000Y-80540000D01*
X124799000Y-78460000D02*
X124799000Y-77465000D01*
X124759000Y-81504000D02*
X124759000Y-80540000D01*
X124759000Y-78460000D02*
X124759000Y-77496000D01*
X124719000Y-81471000D02*
X124719000Y-80540000D01*
X124719000Y-78460000D02*
X124719000Y-77529000D01*
X124679000Y-81437000D02*
X124679000Y-80540000D01*
X124679000Y-78460000D02*
X124679000Y-77563000D01*
X124639000Y-81401000D02*
X124639000Y-80540000D01*
X124639000Y-78460000D02*
X124639000Y-77599000D01*
X124599000Y-81364000D02*
X124599000Y-80540000D01*
X124599000Y-78460000D02*
X124599000Y-77636000D01*
X124559000Y-81326000D02*
X124559000Y-80540000D01*
X124559000Y-78460000D02*
X124559000Y-77674000D01*
X124519000Y-81285000D02*
X124519000Y-80540000D01*
X124519000Y-78460000D02*
X124519000Y-77715000D01*
X124479000Y-81243000D02*
X124479000Y-80540000D01*
X124479000Y-78460000D02*
X124479000Y-77757000D01*
X124439000Y-81199000D02*
X124439000Y-80540000D01*
X124439000Y-78460000D02*
X124439000Y-77801000D01*
X124399000Y-81153000D02*
X124399000Y-80540000D01*
X124399000Y-78460000D02*
X124399000Y-77847000D01*
X124359000Y-81105000D02*
X124359000Y-77895000D01*
X124319000Y-81054000D02*
X124319000Y-77946000D01*
X124279000Y-81000000D02*
X124279000Y-78000000D01*
X124239000Y-80943000D02*
X124239000Y-78057000D01*
X124199000Y-80883000D02*
X124199000Y-78117000D01*
X124159000Y-80819000D02*
X124159000Y-78181000D01*
X124119000Y-80751000D02*
X124119000Y-78249000D01*
X124079000Y-80678000D02*
X124079000Y-78322000D01*
X124039000Y-80598000D02*
X124039000Y-78402000D01*
X123999000Y-80511000D02*
X123999000Y-78489000D01*
X123959000Y-80415000D02*
X123959000Y-78585000D01*
X123919000Y-80305000D02*
X123919000Y-78695000D01*
X123879000Y-80177000D02*
X123879000Y-78823000D01*
X123839000Y-80018000D02*
X123839000Y-78982000D01*
X123799000Y-79784000D02*
X123799000Y-79216000D01*
X129204775Y-80975000D02*
X128704775Y-80975000D01*
X128954775Y-81225000D02*
X128954775Y-80725000D01*
%TO.C,C305*%
X130390000Y-91009420D02*
X130390000Y-91290580D01*
X131410000Y-91009420D02*
X131410000Y-91290580D01*
%TO.C,C306*%
X129020000Y-91900000D02*
G75*
G03*
X129020000Y-91900000I-2620000J0D01*
G01*
X126400000Y-90860000D02*
X126400000Y-89320000D01*
X126400000Y-94480000D02*
X126400000Y-92940000D01*
X126360000Y-90860000D02*
X126360000Y-89320000D01*
X126360000Y-94480000D02*
X126360000Y-92940000D01*
X126320000Y-94479000D02*
X126320000Y-92940000D01*
X126320000Y-90860000D02*
X126320000Y-89321000D01*
X126280000Y-94478000D02*
X126280000Y-92940000D01*
X126280000Y-90860000D02*
X126280000Y-89322000D01*
X126240000Y-94476000D02*
X126240000Y-92940000D01*
X126240000Y-90860000D02*
X126240000Y-89324000D01*
X126200000Y-94473000D02*
X126200000Y-92940000D01*
X126200000Y-90860000D02*
X126200000Y-89327000D01*
X126160000Y-94469000D02*
X126160000Y-92940000D01*
X126160000Y-90860000D02*
X126160000Y-89331000D01*
X126120000Y-94465000D02*
X126120000Y-92940000D01*
X126120000Y-90860000D02*
X126120000Y-89335000D01*
X126080000Y-94461000D02*
X126080000Y-92940000D01*
X126080000Y-90860000D02*
X126080000Y-89339000D01*
X126040000Y-94456000D02*
X126040000Y-92940000D01*
X126040000Y-90860000D02*
X126040000Y-89344000D01*
X126000000Y-94450000D02*
X126000000Y-92940000D01*
X126000000Y-90860000D02*
X126000000Y-89350000D01*
X125960000Y-94443000D02*
X125960000Y-92940000D01*
X125960000Y-90860000D02*
X125960000Y-89357000D01*
X125920000Y-94436000D02*
X125920000Y-92940000D01*
X125920000Y-90860000D02*
X125920000Y-89364000D01*
X125880000Y-94428000D02*
X125880000Y-92940000D01*
X125880000Y-90860000D02*
X125880000Y-89372000D01*
X125840000Y-94420000D02*
X125840000Y-92940000D01*
X125840000Y-90860000D02*
X125840000Y-89380000D01*
X125800000Y-94411000D02*
X125800000Y-92940000D01*
X125800000Y-90860000D02*
X125800000Y-89389000D01*
X125760000Y-94401000D02*
X125760000Y-92940000D01*
X125760000Y-90860000D02*
X125760000Y-89399000D01*
X125720000Y-94391000D02*
X125720000Y-92940000D01*
X125720000Y-90860000D02*
X125720000Y-89409000D01*
X125679000Y-94380000D02*
X125679000Y-92940000D01*
X125679000Y-90860000D02*
X125679000Y-89420000D01*
X125639000Y-94368000D02*
X125639000Y-92940000D01*
X125639000Y-90860000D02*
X125639000Y-89432000D01*
X125599000Y-94355000D02*
X125599000Y-92940000D01*
X125599000Y-90860000D02*
X125599000Y-89445000D01*
X125559000Y-94342000D02*
X125559000Y-92940000D01*
X125559000Y-90860000D02*
X125559000Y-89458000D01*
X125519000Y-94328000D02*
X125519000Y-92940000D01*
X125519000Y-90860000D02*
X125519000Y-89472000D01*
X125479000Y-94314000D02*
X125479000Y-92940000D01*
X125479000Y-90860000D02*
X125479000Y-89486000D01*
X125439000Y-94298000D02*
X125439000Y-92940000D01*
X125439000Y-90860000D02*
X125439000Y-89502000D01*
X125399000Y-94282000D02*
X125399000Y-92940000D01*
X125399000Y-90860000D02*
X125399000Y-89518000D01*
X125359000Y-94265000D02*
X125359000Y-92940000D01*
X125359000Y-90860000D02*
X125359000Y-89535000D01*
X125319000Y-94248000D02*
X125319000Y-92940000D01*
X125319000Y-90860000D02*
X125319000Y-89552000D01*
X125279000Y-94229000D02*
X125279000Y-92940000D01*
X125279000Y-90860000D02*
X125279000Y-89571000D01*
X125239000Y-94210000D02*
X125239000Y-92940000D01*
X125239000Y-90860000D02*
X125239000Y-89590000D01*
X125199000Y-94190000D02*
X125199000Y-92940000D01*
X125199000Y-90860000D02*
X125199000Y-89610000D01*
X125159000Y-94168000D02*
X125159000Y-92940000D01*
X125159000Y-90860000D02*
X125159000Y-89632000D01*
X125119000Y-94147000D02*
X125119000Y-92940000D01*
X125119000Y-90860000D02*
X125119000Y-89653000D01*
X125079000Y-94124000D02*
X125079000Y-92940000D01*
X125079000Y-90860000D02*
X125079000Y-89676000D01*
X125039000Y-94100000D02*
X125039000Y-92940000D01*
X125039000Y-90860000D02*
X125039000Y-89700000D01*
X124999000Y-94075000D02*
X124999000Y-92940000D01*
X124999000Y-90860000D02*
X124999000Y-89725000D01*
X124959000Y-94049000D02*
X124959000Y-92940000D01*
X124959000Y-90860000D02*
X124959000Y-89751000D01*
X124919000Y-94022000D02*
X124919000Y-92940000D01*
X124919000Y-90860000D02*
X124919000Y-89778000D01*
X124879000Y-93995000D02*
X124879000Y-92940000D01*
X124879000Y-90860000D02*
X124879000Y-89805000D01*
X124839000Y-93965000D02*
X124839000Y-92940000D01*
X124839000Y-90860000D02*
X124839000Y-89835000D01*
X124799000Y-93935000D02*
X124799000Y-92940000D01*
X124799000Y-90860000D02*
X124799000Y-89865000D01*
X124759000Y-93904000D02*
X124759000Y-92940000D01*
X124759000Y-90860000D02*
X124759000Y-89896000D01*
X124719000Y-93871000D02*
X124719000Y-92940000D01*
X124719000Y-90860000D02*
X124719000Y-89929000D01*
X124679000Y-93837000D02*
X124679000Y-92940000D01*
X124679000Y-90860000D02*
X124679000Y-89963000D01*
X124639000Y-93801000D02*
X124639000Y-92940000D01*
X124639000Y-90860000D02*
X124639000Y-89999000D01*
X124599000Y-93764000D02*
X124599000Y-92940000D01*
X124599000Y-90860000D02*
X124599000Y-90036000D01*
X124559000Y-93726000D02*
X124559000Y-92940000D01*
X124559000Y-90860000D02*
X124559000Y-90074000D01*
X124519000Y-93685000D02*
X124519000Y-92940000D01*
X124519000Y-90860000D02*
X124519000Y-90115000D01*
X124479000Y-93643000D02*
X124479000Y-92940000D01*
X124479000Y-90860000D02*
X124479000Y-90157000D01*
X124439000Y-93599000D02*
X124439000Y-92940000D01*
X124439000Y-90860000D02*
X124439000Y-90201000D01*
X124399000Y-93553000D02*
X124399000Y-92940000D01*
X124399000Y-90860000D02*
X124399000Y-90247000D01*
X124359000Y-93505000D02*
X124359000Y-90295000D01*
X124319000Y-93454000D02*
X124319000Y-90346000D01*
X124279000Y-93400000D02*
X124279000Y-90400000D01*
X124239000Y-93343000D02*
X124239000Y-90457000D01*
X124199000Y-93283000D02*
X124199000Y-90517000D01*
X124159000Y-93219000D02*
X124159000Y-90581000D01*
X124119000Y-93151000D02*
X124119000Y-90649000D01*
X124079000Y-93078000D02*
X124079000Y-90722000D01*
X124039000Y-92998000D02*
X124039000Y-90802000D01*
X123999000Y-92911000D02*
X123999000Y-90889000D01*
X123959000Y-92815000D02*
X123959000Y-90985000D01*
X123919000Y-92705000D02*
X123919000Y-91095000D01*
X123879000Y-92577000D02*
X123879000Y-91223000D01*
X123839000Y-92418000D02*
X123839000Y-91382000D01*
X123799000Y-92184000D02*
X123799000Y-91616000D01*
X129204775Y-93375000D02*
X128704775Y-93375000D01*
X128954775Y-93625000D02*
X128954775Y-93125000D01*
%TO.C,C307*%
X131410000Y-103409420D02*
X131410000Y-103690580D01*
X130390000Y-103409420D02*
X130390000Y-103690580D01*
%TO.C,C308*%
X128954775Y-106025000D02*
X128954775Y-105525000D01*
X129204775Y-105775000D02*
X128704775Y-105775000D01*
X123799000Y-104584000D02*
X123799000Y-104016000D01*
X123839000Y-104818000D02*
X123839000Y-103782000D01*
X123879000Y-104977000D02*
X123879000Y-103623000D01*
X123919000Y-105105000D02*
X123919000Y-103495000D01*
X123959000Y-105215000D02*
X123959000Y-103385000D01*
X123999000Y-105311000D02*
X123999000Y-103289000D01*
X124039000Y-105398000D02*
X124039000Y-103202000D01*
X124079000Y-105478000D02*
X124079000Y-103122000D01*
X124119000Y-105551000D02*
X124119000Y-103049000D01*
X124159000Y-105619000D02*
X124159000Y-102981000D01*
X124199000Y-105683000D02*
X124199000Y-102917000D01*
X124239000Y-105743000D02*
X124239000Y-102857000D01*
X124279000Y-105800000D02*
X124279000Y-102800000D01*
X124319000Y-105854000D02*
X124319000Y-102746000D01*
X124359000Y-105905000D02*
X124359000Y-102695000D01*
X124399000Y-103260000D02*
X124399000Y-102647000D01*
X124399000Y-105953000D02*
X124399000Y-105340000D01*
X124439000Y-103260000D02*
X124439000Y-102601000D01*
X124439000Y-105999000D02*
X124439000Y-105340000D01*
X124479000Y-103260000D02*
X124479000Y-102557000D01*
X124479000Y-106043000D02*
X124479000Y-105340000D01*
X124519000Y-103260000D02*
X124519000Y-102515000D01*
X124519000Y-106085000D02*
X124519000Y-105340000D01*
X124559000Y-103260000D02*
X124559000Y-102474000D01*
X124559000Y-106126000D02*
X124559000Y-105340000D01*
X124599000Y-103260000D02*
X124599000Y-102436000D01*
X124599000Y-106164000D02*
X124599000Y-105340000D01*
X124639000Y-103260000D02*
X124639000Y-102399000D01*
X124639000Y-106201000D02*
X124639000Y-105340000D01*
X124679000Y-103260000D02*
X124679000Y-102363000D01*
X124679000Y-106237000D02*
X124679000Y-105340000D01*
X124719000Y-103260000D02*
X124719000Y-102329000D01*
X124719000Y-106271000D02*
X124719000Y-105340000D01*
X124759000Y-103260000D02*
X124759000Y-102296000D01*
X124759000Y-106304000D02*
X124759000Y-105340000D01*
X124799000Y-103260000D02*
X124799000Y-102265000D01*
X124799000Y-106335000D02*
X124799000Y-105340000D01*
X124839000Y-103260000D02*
X124839000Y-102235000D01*
X124839000Y-106365000D02*
X124839000Y-105340000D01*
X124879000Y-103260000D02*
X124879000Y-102205000D01*
X124879000Y-106395000D02*
X124879000Y-105340000D01*
X124919000Y-103260000D02*
X124919000Y-102178000D01*
X124919000Y-106422000D02*
X124919000Y-105340000D01*
X124959000Y-103260000D02*
X124959000Y-102151000D01*
X124959000Y-106449000D02*
X124959000Y-105340000D01*
X124999000Y-103260000D02*
X124999000Y-102125000D01*
X124999000Y-106475000D02*
X124999000Y-105340000D01*
X125039000Y-103260000D02*
X125039000Y-102100000D01*
X125039000Y-106500000D02*
X125039000Y-105340000D01*
X125079000Y-103260000D02*
X125079000Y-102076000D01*
X125079000Y-106524000D02*
X125079000Y-105340000D01*
X125119000Y-103260000D02*
X125119000Y-102053000D01*
X125119000Y-106547000D02*
X125119000Y-105340000D01*
X125159000Y-103260000D02*
X125159000Y-102032000D01*
X125159000Y-106568000D02*
X125159000Y-105340000D01*
X125199000Y-103260000D02*
X125199000Y-102010000D01*
X125199000Y-106590000D02*
X125199000Y-105340000D01*
X125239000Y-103260000D02*
X125239000Y-101990000D01*
X125239000Y-106610000D02*
X125239000Y-105340000D01*
X125279000Y-103260000D02*
X125279000Y-101971000D01*
X125279000Y-106629000D02*
X125279000Y-105340000D01*
X125319000Y-103260000D02*
X125319000Y-101952000D01*
X125319000Y-106648000D02*
X125319000Y-105340000D01*
X125359000Y-103260000D02*
X125359000Y-101935000D01*
X125359000Y-106665000D02*
X125359000Y-105340000D01*
X125399000Y-103260000D02*
X125399000Y-101918000D01*
X125399000Y-106682000D02*
X125399000Y-105340000D01*
X125439000Y-103260000D02*
X125439000Y-101902000D01*
X125439000Y-106698000D02*
X125439000Y-105340000D01*
X125479000Y-103260000D02*
X125479000Y-101886000D01*
X125479000Y-106714000D02*
X125479000Y-105340000D01*
X125519000Y-103260000D02*
X125519000Y-101872000D01*
X125519000Y-106728000D02*
X125519000Y-105340000D01*
X125559000Y-103260000D02*
X125559000Y-101858000D01*
X125559000Y-106742000D02*
X125559000Y-105340000D01*
X125599000Y-103260000D02*
X125599000Y-101845000D01*
X125599000Y-106755000D02*
X125599000Y-105340000D01*
X125639000Y-103260000D02*
X125639000Y-101832000D01*
X125639000Y-106768000D02*
X125639000Y-105340000D01*
X125679000Y-103260000D02*
X125679000Y-101820000D01*
X125679000Y-106780000D02*
X125679000Y-105340000D01*
X125720000Y-103260000D02*
X125720000Y-101809000D01*
X125720000Y-106791000D02*
X125720000Y-105340000D01*
X125760000Y-103260000D02*
X125760000Y-101799000D01*
X125760000Y-106801000D02*
X125760000Y-105340000D01*
X125800000Y-103260000D02*
X125800000Y-101789000D01*
X125800000Y-106811000D02*
X125800000Y-105340000D01*
X125840000Y-103260000D02*
X125840000Y-101780000D01*
X125840000Y-106820000D02*
X125840000Y-105340000D01*
X125880000Y-103260000D02*
X125880000Y-101772000D01*
X125880000Y-106828000D02*
X125880000Y-105340000D01*
X125920000Y-103260000D02*
X125920000Y-101764000D01*
X125920000Y-106836000D02*
X125920000Y-105340000D01*
X125960000Y-103260000D02*
X125960000Y-101757000D01*
X125960000Y-106843000D02*
X125960000Y-105340000D01*
X126000000Y-103260000D02*
X126000000Y-101750000D01*
X126000000Y-106850000D02*
X126000000Y-105340000D01*
X126040000Y-103260000D02*
X126040000Y-101744000D01*
X126040000Y-106856000D02*
X126040000Y-105340000D01*
X126080000Y-103260000D02*
X126080000Y-101739000D01*
X126080000Y-106861000D02*
X126080000Y-105340000D01*
X126120000Y-103260000D02*
X126120000Y-101735000D01*
X126120000Y-106865000D02*
X126120000Y-105340000D01*
X126160000Y-103260000D02*
X126160000Y-101731000D01*
X126160000Y-106869000D02*
X126160000Y-105340000D01*
X126200000Y-103260000D02*
X126200000Y-101727000D01*
X126200000Y-106873000D02*
X126200000Y-105340000D01*
X126240000Y-103260000D02*
X126240000Y-101724000D01*
X126240000Y-106876000D02*
X126240000Y-105340000D01*
X126280000Y-103260000D02*
X126280000Y-101722000D01*
X126280000Y-106878000D02*
X126280000Y-105340000D01*
X126320000Y-103260000D02*
X126320000Y-101721000D01*
X126320000Y-106879000D02*
X126320000Y-105340000D01*
X126360000Y-106880000D02*
X126360000Y-105340000D01*
X126360000Y-103260000D02*
X126360000Y-101720000D01*
X126400000Y-106880000D02*
X126400000Y-105340000D01*
X126400000Y-103260000D02*
X126400000Y-101720000D01*
X129020000Y-104300000D02*
G75*
G03*
X129020000Y-104300000I-2620000J0D01*
G01*
%TO.C,L201*%
X154000000Y-100200000D02*
X154000000Y-99050000D01*
X154000000Y-94800000D02*
X154000000Y-95950000D01*
X148400000Y-100200000D02*
X148400000Y-99050000D01*
X148400000Y-94800000D02*
X148400000Y-95950000D01*
X148400000Y-100200000D02*
X154000000Y-100200000D01*
X148400000Y-94800000D02*
X154000000Y-94800000D01*
%TO.C,R201*%
X143420000Y-96653641D02*
X143420000Y-96346359D01*
X144180000Y-96653641D02*
X144180000Y-96346359D01*
%TO.C,R202*%
X145762742Y-98977500D02*
X146237258Y-98977500D01*
X145762742Y-100022500D02*
X146237258Y-100022500D01*
%TO.C,R203*%
X143553641Y-94320000D02*
X143246359Y-94320000D01*
X143553641Y-95080000D02*
X143246359Y-95080000D01*
%TO.C,R301*%
X128237258Y-71822500D02*
X127762742Y-71822500D01*
X128237258Y-70777500D02*
X127762742Y-70777500D01*
%TO.C,R302*%
X128237258Y-95577500D02*
X127762742Y-95577500D01*
X128237258Y-96622500D02*
X127762742Y-96622500D01*
%TO.C,R303*%
X128237258Y-83177500D02*
X127762742Y-83177500D01*
X128237258Y-84222500D02*
X127762742Y-84222500D01*
%TO.C,R304*%
X128237258Y-107977500D02*
X127762742Y-107977500D01*
X128237258Y-109022500D02*
X127762742Y-109022500D01*
%TO.C,J102*%
X193340000Y-94660000D02*
X189090000Y-94660000D01*
X189090000Y-94660000D02*
X189090000Y-93640000D01*
X189090000Y-93640000D02*
X190690000Y-93640000D01*
X190690000Y-93640000D02*
X190690000Y-92360000D01*
X190690000Y-92360000D02*
X187800000Y-92360000D01*
X193340000Y-82540000D02*
X189090000Y-82540000D01*
X189090000Y-82540000D02*
X189090000Y-83560000D01*
X189090000Y-83560000D02*
X190690000Y-83560000D01*
X190690000Y-83560000D02*
X190690000Y-84840000D01*
X196910000Y-92940000D02*
X196910000Y-84260000D01*
%TO.C,J103*%
X193340000Y-107160000D02*
X189090000Y-107160000D01*
X189090000Y-107160000D02*
X189090000Y-106140000D01*
X189090000Y-106140000D02*
X190690000Y-106140000D01*
X190690000Y-106140000D02*
X190690000Y-104860000D01*
X190690000Y-104860000D02*
X187800000Y-104860000D01*
X193340000Y-99040000D02*
X189090000Y-99040000D01*
X189090000Y-99040000D02*
X189090000Y-100060000D01*
X189090000Y-100060000D02*
X190690000Y-100060000D01*
X190690000Y-100060000D02*
X190690000Y-101340000D01*
X196910000Y-105440000D02*
X196910000Y-100760000D01*
%TO.C,TP1*%
X140800000Y-63050000D02*
G75*
G03*
X140800000Y-63050000I-950000J0D01*
G01*
%TO.C,J310*%
X154850000Y-114930000D02*
X154850000Y-104530000D01*
X147170000Y-114930000D02*
X154850000Y-114930000D01*
X144570000Y-104530000D02*
X154850000Y-104530000D01*
X147170000Y-114930000D02*
X147170000Y-112330000D01*
X147170000Y-112330000D02*
X144570000Y-112330000D01*
X144570000Y-112330000D02*
X144570000Y-104530000D01*
X145900000Y-114930000D02*
X144570000Y-114930000D01*
X144570000Y-114930000D02*
X144570000Y-113600000D01*
%TD*%
M02*
