%TF.GenerationSoftware,KiCad,Pcbnew,(5.1.8)-1*%
%TF.CreationDate,2021-03-21T22:52:41-07:00*%
%TF.ProjectId,smart_motor_controller,736d6172-745f-46d6-9f74-6f725f636f6e,rev?*%
%TF.SameCoordinates,Original*%
%TF.FileFunction,Soldermask,Bot*%
%TF.FilePolarity,Negative*%
%FSLAX46Y46*%
G04 Gerber Fmt 4.6, Leading zero omitted, Abs format (unit mm)*
G04 Created by KiCad (PCBNEW (5.1.8)-1) date 2021-03-21 22:52:41*
%MOMM*%
%LPD*%
G01*
G04 APERTURE LIST*
%ADD10O,1.400000X1.400000*%
%ADD11C,1.400000*%
%ADD12O,1.700000X1.700000*%
%ADD13R,1.700000X1.700000*%
%ADD14C,1.250000*%
%ADD15O,1.100000X1.900000*%
%ADD16C,1.300000*%
%ADD17C,3.000000*%
%ADD18R,3.000000X3.000000*%
%ADD19C,0.770000*%
%ADD20C,0.900000*%
%ADD21C,8.600000*%
%ADD22C,1.600000*%
%ADD23R,1.600000X1.600000*%
G04 APERTURE END LIST*
D10*
%TO.C,R3*%
X58800000Y-70220000D03*
D11*
X58800000Y-75300000D03*
%TD*%
D10*
%TO.C,R2*%
X56350000Y-70220000D03*
D11*
X56350000Y-75300000D03*
%TD*%
D12*
%TO.C,J5*%
X52540000Y-67620000D03*
D13*
X50000000Y-67620000D03*
%TD*%
D14*
%TO.C,J10*%
X103675000Y-49770000D03*
X108525000Y-49770000D03*
D15*
X109700000Y-47100000D03*
X102500000Y-47100000D03*
%TD*%
D16*
%TO.C,SW1*%
X51000000Y-81540000D03*
X51000000Y-79000000D03*
X51000000Y-76460000D03*
%TD*%
D17*
%TO.C,J14*%
X100840000Y-105300000D03*
D18*
X95760000Y-105300000D03*
%TD*%
D17*
%TO.C,J13*%
X90640000Y-105300000D03*
D18*
X85560000Y-105300000D03*
%TD*%
D17*
%TO.C,J12*%
X80440000Y-105300000D03*
D18*
X75360000Y-105300000D03*
%TD*%
D17*
%TO.C,J11*%
X70240000Y-105300000D03*
D18*
X65160000Y-105300000D03*
%TD*%
D17*
%TO.C,J8*%
X92830000Y-50100000D03*
D18*
X87750000Y-50100000D03*
%TD*%
D17*
%TO.C,J2*%
X82640000Y-50100000D03*
D18*
X77560000Y-50100000D03*
%TD*%
D17*
%TO.C,J1*%
X72540000Y-50100000D03*
D18*
X67460000Y-50100000D03*
%TD*%
D17*
%TO.C,J9*%
X120100000Y-62460000D03*
D18*
X120100000Y-67540000D03*
%TD*%
D19*
%TO.C,U7*%
X106700000Y-94650000D03*
X106700000Y-93350000D03*
X109300000Y-94650000D03*
X108000000Y-94650000D03*
X108000000Y-93350000D03*
X109300000Y-93350000D03*
%TD*%
%TO.C,U6*%
X90700000Y-94650000D03*
X90700000Y-93350000D03*
X93300000Y-94650000D03*
X92000000Y-94650000D03*
X92000000Y-93350000D03*
X93300000Y-93350000D03*
%TD*%
%TO.C,U5*%
X74700000Y-94650000D03*
X74700000Y-93350000D03*
X77300000Y-94650000D03*
X76000000Y-94650000D03*
X76000000Y-93350000D03*
X77300000Y-93350000D03*
%TD*%
%TO.C,U4*%
X58700000Y-94650000D03*
X58700000Y-93350000D03*
X61300000Y-94650000D03*
X60000000Y-94650000D03*
X60000000Y-93350000D03*
X61300000Y-93350000D03*
%TD*%
D12*
%TO.C,J7*%
X52540000Y-65080000D03*
D13*
X50000000Y-65080000D03*
%TD*%
D12*
%TO.C,J6*%
X52540000Y-62540000D03*
D13*
X50000000Y-62540000D03*
%TD*%
D12*
%TO.C,J3*%
X52540000Y-60000000D03*
D13*
X50000000Y-60000000D03*
%TD*%
D20*
%TO.C,H4*%
X122280419Y-102719581D03*
X120000000Y-101775000D03*
X117719581Y-102719581D03*
X116775000Y-105000000D03*
X117719581Y-107280419D03*
X120000000Y-108225000D03*
X122280419Y-107280419D03*
X123225000Y-105000000D03*
D21*
X120000000Y-105000000D03*
%TD*%
D20*
%TO.C,H3*%
X52280419Y-47719581D03*
X50000000Y-46775000D03*
X47719581Y-47719581D03*
X46775000Y-50000000D03*
X47719581Y-52280419D03*
X50000000Y-53225000D03*
X52280419Y-52280419D03*
X53225000Y-50000000D03*
D21*
X50000000Y-50000000D03*
%TD*%
D20*
%TO.C,H2*%
X122280419Y-47719581D03*
X120000000Y-46775000D03*
X117719581Y-47719581D03*
X116775000Y-50000000D03*
X117719581Y-52280419D03*
X120000000Y-53225000D03*
X122280419Y-52280419D03*
X123225000Y-50000000D03*
D21*
X120000000Y-50000000D03*
%TD*%
D20*
%TO.C,H1*%
X52280419Y-102719581D03*
X50000000Y-101775000D03*
X47719581Y-102719581D03*
X46775000Y-105000000D03*
X47719581Y-107280419D03*
X50000000Y-108225000D03*
X52280419Y-107280419D03*
X53225000Y-105000000D03*
D21*
X50000000Y-105000000D03*
%TD*%
D22*
%TO.C,C23*%
X67000000Y-95000000D03*
D23*
X69000000Y-95000000D03*
%TD*%
D22*
%TO.C,C21*%
X51000000Y-95000000D03*
D23*
X53000000Y-95000000D03*
%TD*%
D22*
%TO.C,C19*%
X99200000Y-95000000D03*
D23*
X101200000Y-95000000D03*
%TD*%
D22*
%TO.C,C11*%
X83000000Y-95000000D03*
D23*
X85000000Y-95000000D03*
%TD*%
M02*
