%TF.GenerationSoftware,KiCad,Pcbnew,(7.0.0)*%
%TF.CreationDate,2023-05-21T11:33:29-07:00*%
%TF.ProjectId,smart_motor_controller,736d6172-745f-46d6-9f74-6f725f636f6e,0.1.1*%
%TF.SameCoordinates,Original*%
%TF.FileFunction,Legend,Bot*%
%TF.FilePolarity,Positive*%
%FSLAX46Y46*%
G04 Gerber Fmt 4.6, Leading zero omitted, Abs format (unit mm)*
G04 Created by KiCad (PCBNEW (7.0.0)) date 2023-05-21 11:33:29*
%MOMM*%
%LPD*%
G01*
G04 APERTURE LIST*
%ADD10C,0.120000*%
%ADD11C,0.150000*%
%ADD12C,0.250000*%
%ADD13C,0.110000*%
G04 APERTURE END LIST*
D10*
X170300000Y-105000000D02*
X170300000Y-115400000D01*
X150000000Y-105000000D02*
X190000000Y-105000000D01*
X150000000Y-105000000D02*
X150000000Y-115400000D01*
X160300000Y-105000000D02*
X160300000Y-115400000D01*
X180300000Y-105000000D02*
X180300000Y-115400000D01*
X190000000Y-105000000D02*
X190000000Y-115400000D01*
D11*
X168500000Y-64650000D02*
X185750000Y-64650000D01*
X179882619Y-65759523D02*
X179882619Y-65140476D01*
X179882619Y-65140476D02*
X179501666Y-65473809D01*
X179501666Y-65473809D02*
X179501666Y-65330952D01*
X179501666Y-65330952D02*
X179454047Y-65235714D01*
X179454047Y-65235714D02*
X179406428Y-65188095D01*
X179406428Y-65188095D02*
X179311190Y-65140476D01*
X179311190Y-65140476D02*
X179073095Y-65140476D01*
X179073095Y-65140476D02*
X178977857Y-65188095D01*
X178977857Y-65188095D02*
X178930238Y-65235714D01*
X178930238Y-65235714D02*
X178882619Y-65330952D01*
X178882619Y-65330952D02*
X178882619Y-65616666D01*
X178882619Y-65616666D02*
X178930238Y-65711904D01*
X178930238Y-65711904D02*
X178977857Y-65759523D01*
X179787380Y-64159523D02*
X179835000Y-64111904D01*
X179835000Y-64111904D02*
X179882619Y-64016666D01*
X179882619Y-64016666D02*
X179882619Y-63778571D01*
X179882619Y-63778571D02*
X179835000Y-63683333D01*
X179835000Y-63683333D02*
X179787380Y-63635714D01*
X179787380Y-63635714D02*
X179692142Y-63588095D01*
X179692142Y-63588095D02*
X179596904Y-63588095D01*
X179596904Y-63588095D02*
X179454047Y-63635714D01*
X179454047Y-63635714D02*
X178882619Y-64207142D01*
X178882619Y-64207142D02*
X178882619Y-63588095D01*
X182214285Y-113117380D02*
X182785713Y-113117380D01*
X182499999Y-113117380D02*
X182499999Y-112117380D01*
X182499999Y-112117380D02*
X182595237Y-112260238D01*
X182595237Y-112260238D02*
X182690475Y-112355476D01*
X182690475Y-112355476D02*
X182785713Y-112403095D01*
D12*
X148580001Y-86087809D02*
X148046667Y-87687809D01*
X148046667Y-87687809D02*
X147513334Y-86087809D01*
X147056191Y-87611619D02*
X146903810Y-87687809D01*
X146903810Y-87687809D02*
X146599048Y-87687809D01*
X146599048Y-87687809D02*
X146446667Y-87611619D01*
X146446667Y-87611619D02*
X146370476Y-87459238D01*
X146370476Y-87459238D02*
X146370476Y-87383047D01*
X146370476Y-87383047D02*
X146446667Y-87230666D01*
X146446667Y-87230666D02*
X146599048Y-87154476D01*
X146599048Y-87154476D02*
X146827619Y-87154476D01*
X146827619Y-87154476D02*
X146980000Y-87078285D01*
X146980000Y-87078285D02*
X147056191Y-86925904D01*
X147056191Y-86925904D02*
X147056191Y-86849714D01*
X147056191Y-86849714D02*
X146980000Y-86697333D01*
X146980000Y-86697333D02*
X146827619Y-86621142D01*
X146827619Y-86621142D02*
X146599048Y-86621142D01*
X146599048Y-86621142D02*
X146446667Y-86697333D01*
X144770476Y-87687809D02*
X145303810Y-86925904D01*
X145684762Y-87687809D02*
X145684762Y-86087809D01*
X145684762Y-86087809D02*
X145075238Y-86087809D01*
X145075238Y-86087809D02*
X144922857Y-86164000D01*
X144922857Y-86164000D02*
X144846667Y-86240190D01*
X144846667Y-86240190D02*
X144770476Y-86392571D01*
X144770476Y-86392571D02*
X144770476Y-86621142D01*
X144770476Y-86621142D02*
X144846667Y-86773523D01*
X144846667Y-86773523D02*
X144922857Y-86849714D01*
X144922857Y-86849714D02*
X145075238Y-86925904D01*
X145075238Y-86925904D02*
X145684762Y-86925904D01*
X143475238Y-87611619D02*
X143627619Y-87687809D01*
X143627619Y-87687809D02*
X143932381Y-87687809D01*
X143932381Y-87687809D02*
X144084762Y-87611619D01*
X144084762Y-87611619D02*
X144160953Y-87459238D01*
X144160953Y-87459238D02*
X144160953Y-86849714D01*
X144160953Y-86849714D02*
X144084762Y-86697333D01*
X144084762Y-86697333D02*
X143932381Y-86621142D01*
X143932381Y-86621142D02*
X143627619Y-86621142D01*
X143627619Y-86621142D02*
X143475238Y-86697333D01*
X143475238Y-86697333D02*
X143399048Y-86849714D01*
X143399048Y-86849714D02*
X143399048Y-87002095D01*
X143399048Y-87002095D02*
X144160953Y-87154476D01*
X142027619Y-87687809D02*
X142027619Y-86849714D01*
X142027619Y-86849714D02*
X142103809Y-86697333D01*
X142103809Y-86697333D02*
X142256190Y-86621142D01*
X142256190Y-86621142D02*
X142560952Y-86621142D01*
X142560952Y-86621142D02*
X142713333Y-86697333D01*
X142027619Y-87611619D02*
X142180000Y-87687809D01*
X142180000Y-87687809D02*
X142560952Y-87687809D01*
X142560952Y-87687809D02*
X142713333Y-87611619D01*
X142713333Y-87611619D02*
X142789524Y-87459238D01*
X142789524Y-87459238D02*
X142789524Y-87306857D01*
X142789524Y-87306857D02*
X142713333Y-87154476D01*
X142713333Y-87154476D02*
X142560952Y-87078285D01*
X142560952Y-87078285D02*
X142180000Y-87078285D01*
X142180000Y-87078285D02*
X142027619Y-87002095D01*
X141037143Y-87687809D02*
X141189524Y-87611619D01*
X141189524Y-87611619D02*
X141265714Y-87459238D01*
X141265714Y-87459238D02*
X141265714Y-86087809D01*
X140427619Y-87687809D02*
X140427619Y-86621142D01*
X140427619Y-86087809D02*
X140503810Y-86164000D01*
X140503810Y-86164000D02*
X140427619Y-86240190D01*
X140427619Y-86240190D02*
X140351429Y-86164000D01*
X140351429Y-86164000D02*
X140427619Y-86087809D01*
X140427619Y-86087809D02*
X140427619Y-86240190D01*
X139894286Y-86621142D02*
X139284762Y-86621142D01*
X139665714Y-86087809D02*
X139665714Y-87459238D01*
X139665714Y-87459238D02*
X139589524Y-87611619D01*
X139589524Y-87611619D02*
X139437143Y-87687809D01*
X139437143Y-87687809D02*
X139284762Y-87687809D01*
X138903809Y-86621142D02*
X138522857Y-87687809D01*
X138141904Y-86621142D02*
X138522857Y-87687809D01*
X138522857Y-87687809D02*
X138675238Y-88068761D01*
X138675238Y-88068761D02*
X138751428Y-88144952D01*
X138751428Y-88144952D02*
X138903809Y-88221142D01*
X135658094Y-87687809D02*
X136191428Y-86925904D01*
X136572380Y-87687809D02*
X136572380Y-86087809D01*
X136572380Y-86087809D02*
X135962856Y-86087809D01*
X135962856Y-86087809D02*
X135810475Y-86164000D01*
X135810475Y-86164000D02*
X135734285Y-86240190D01*
X135734285Y-86240190D02*
X135658094Y-86392571D01*
X135658094Y-86392571D02*
X135658094Y-86621142D01*
X135658094Y-86621142D02*
X135734285Y-86773523D01*
X135734285Y-86773523D02*
X135810475Y-86849714D01*
X135810475Y-86849714D02*
X135962856Y-86925904D01*
X135962856Y-86925904D02*
X136572380Y-86925904D01*
X134743809Y-87687809D02*
X134896190Y-87611619D01*
X134896190Y-87611619D02*
X134972380Y-87535428D01*
X134972380Y-87535428D02*
X135048571Y-87383047D01*
X135048571Y-87383047D02*
X135048571Y-86925904D01*
X135048571Y-86925904D02*
X134972380Y-86773523D01*
X134972380Y-86773523D02*
X134896190Y-86697333D01*
X134896190Y-86697333D02*
X134743809Y-86621142D01*
X134743809Y-86621142D02*
X134515237Y-86621142D01*
X134515237Y-86621142D02*
X134362856Y-86697333D01*
X134362856Y-86697333D02*
X134286666Y-86773523D01*
X134286666Y-86773523D02*
X134210475Y-86925904D01*
X134210475Y-86925904D02*
X134210475Y-87383047D01*
X134210475Y-87383047D02*
X134286666Y-87535428D01*
X134286666Y-87535428D02*
X134362856Y-87611619D01*
X134362856Y-87611619D02*
X134515237Y-87687809D01*
X134515237Y-87687809D02*
X134743809Y-87687809D01*
X133524761Y-87687809D02*
X133524761Y-86087809D01*
X133524761Y-86697333D02*
X133372380Y-86621142D01*
X133372380Y-86621142D02*
X133067618Y-86621142D01*
X133067618Y-86621142D02*
X132915237Y-86697333D01*
X132915237Y-86697333D02*
X132839047Y-86773523D01*
X132839047Y-86773523D02*
X132762856Y-86925904D01*
X132762856Y-86925904D02*
X132762856Y-87383047D01*
X132762856Y-87383047D02*
X132839047Y-87535428D01*
X132839047Y-87535428D02*
X132915237Y-87611619D01*
X132915237Y-87611619D02*
X133067618Y-87687809D01*
X133067618Y-87687809D02*
X133372380Y-87687809D01*
X133372380Y-87687809D02*
X133524761Y-87611619D01*
X131848571Y-87687809D02*
X132000952Y-87611619D01*
X132000952Y-87611619D02*
X132077142Y-87535428D01*
X132077142Y-87535428D02*
X132153333Y-87383047D01*
X132153333Y-87383047D02*
X132153333Y-86925904D01*
X132153333Y-86925904D02*
X132077142Y-86773523D01*
X132077142Y-86773523D02*
X132000952Y-86697333D01*
X132000952Y-86697333D02*
X131848571Y-86621142D01*
X131848571Y-86621142D02*
X131619999Y-86621142D01*
X131619999Y-86621142D02*
X131467618Y-86697333D01*
X131467618Y-86697333D02*
X131391428Y-86773523D01*
X131391428Y-86773523D02*
X131315237Y-86925904D01*
X131315237Y-86925904D02*
X131315237Y-87383047D01*
X131315237Y-87383047D02*
X131391428Y-87535428D01*
X131391428Y-87535428D02*
X131467618Y-87611619D01*
X131467618Y-87611619D02*
X131619999Y-87687809D01*
X131619999Y-87687809D02*
X131848571Y-87687809D01*
X130858095Y-86621142D02*
X130248571Y-86621142D01*
X130629523Y-86087809D02*
X130629523Y-87459238D01*
X130629523Y-87459238D02*
X130553333Y-87611619D01*
X130553333Y-87611619D02*
X130400952Y-87687809D01*
X130400952Y-87687809D02*
X130248571Y-87687809D01*
X129715237Y-87687809D02*
X129715237Y-86621142D01*
X129715237Y-86087809D02*
X129791428Y-86164000D01*
X129791428Y-86164000D02*
X129715237Y-86240190D01*
X129715237Y-86240190D02*
X129639047Y-86164000D01*
X129639047Y-86164000D02*
X129715237Y-86087809D01*
X129715237Y-86087809D02*
X129715237Y-86240190D01*
X128267618Y-87611619D02*
X128419999Y-87687809D01*
X128419999Y-87687809D02*
X128724761Y-87687809D01*
X128724761Y-87687809D02*
X128877142Y-87611619D01*
X128877142Y-87611619D02*
X128953332Y-87535428D01*
X128953332Y-87535428D02*
X129029523Y-87383047D01*
X129029523Y-87383047D02*
X129029523Y-86925904D01*
X129029523Y-86925904D02*
X128953332Y-86773523D01*
X128953332Y-86773523D02*
X128877142Y-86697333D01*
X128877142Y-86697333D02*
X128724761Y-86621142D01*
X128724761Y-86621142D02*
X128419999Y-86621142D01*
X128419999Y-86621142D02*
X128267618Y-86697333D01*
X127658094Y-87611619D02*
X127505713Y-87687809D01*
X127505713Y-87687809D02*
X127200951Y-87687809D01*
X127200951Y-87687809D02*
X127048570Y-87611619D01*
X127048570Y-87611619D02*
X126972379Y-87459238D01*
X126972379Y-87459238D02*
X126972379Y-87383047D01*
X126972379Y-87383047D02*
X127048570Y-87230666D01*
X127048570Y-87230666D02*
X127200951Y-87154476D01*
X127200951Y-87154476D02*
X127429522Y-87154476D01*
X127429522Y-87154476D02*
X127581903Y-87078285D01*
X127581903Y-87078285D02*
X127658094Y-86925904D01*
X127658094Y-86925904D02*
X127658094Y-86849714D01*
X127658094Y-86849714D02*
X127581903Y-86697333D01*
X127581903Y-86697333D02*
X127429522Y-86621142D01*
X127429522Y-86621142D02*
X127200951Y-86621142D01*
X127200951Y-86621142D02*
X127048570Y-86697333D01*
D11*
X193832619Y-69485713D02*
X192832619Y-69152380D01*
X192832619Y-69152380D02*
X193832619Y-68819047D01*
X193356428Y-68485713D02*
X193356428Y-68152380D01*
X192832619Y-68009523D02*
X192832619Y-68485713D01*
X192832619Y-68485713D02*
X193832619Y-68485713D01*
X193832619Y-68485713D02*
X193832619Y-68009523D01*
X194032619Y-85785713D02*
X193032619Y-85452380D01*
X193032619Y-85452380D02*
X194032619Y-85119047D01*
X193556428Y-84785713D02*
X193556428Y-84452380D01*
X193032619Y-84309523D02*
X193032619Y-84785713D01*
X193032619Y-84785713D02*
X194032619Y-84785713D01*
X194032619Y-84785713D02*
X194032619Y-84309523D01*
X184982619Y-67949999D02*
X184982619Y-67330952D01*
X184982619Y-67330952D02*
X184601666Y-67664285D01*
X184601666Y-67664285D02*
X184601666Y-67521428D01*
X184601666Y-67521428D02*
X184554047Y-67426190D01*
X184554047Y-67426190D02*
X184506428Y-67378571D01*
X184506428Y-67378571D02*
X184411190Y-67330952D01*
X184411190Y-67330952D02*
X184173095Y-67330952D01*
X184173095Y-67330952D02*
X184077857Y-67378571D01*
X184077857Y-67378571D02*
X184030238Y-67426190D01*
X184030238Y-67426190D02*
X183982619Y-67521428D01*
X183982619Y-67521428D02*
X183982619Y-67807142D01*
X183982619Y-67807142D02*
X184030238Y-67902380D01*
X184030238Y-67902380D02*
X184077857Y-67949999D01*
X184077857Y-66902380D02*
X184030238Y-66854761D01*
X184030238Y-66854761D02*
X183982619Y-66902380D01*
X183982619Y-66902380D02*
X184030238Y-66949999D01*
X184030238Y-66949999D02*
X184077857Y-66902380D01*
X184077857Y-66902380D02*
X183982619Y-66902380D01*
X184982619Y-66521428D02*
X184982619Y-65902381D01*
X184982619Y-65902381D02*
X184601666Y-66235714D01*
X184601666Y-66235714D02*
X184601666Y-66092857D01*
X184601666Y-66092857D02*
X184554047Y-65997619D01*
X184554047Y-65997619D02*
X184506428Y-65950000D01*
X184506428Y-65950000D02*
X184411190Y-65902381D01*
X184411190Y-65902381D02*
X184173095Y-65902381D01*
X184173095Y-65902381D02*
X184077857Y-65950000D01*
X184077857Y-65950000D02*
X184030238Y-65997619D01*
X184030238Y-65997619D02*
X183982619Y-66092857D01*
X183982619Y-66092857D02*
X183982619Y-66378571D01*
X183982619Y-66378571D02*
X184030238Y-66473809D01*
X184030238Y-66473809D02*
X184077857Y-66521428D01*
X184982619Y-65616666D02*
X183982619Y-65283333D01*
X183982619Y-65283333D02*
X184982619Y-64950000D01*
X184935000Y-63492857D02*
X184982619Y-63588095D01*
X184982619Y-63588095D02*
X184982619Y-63730952D01*
X184982619Y-63730952D02*
X184935000Y-63873809D01*
X184935000Y-63873809D02*
X184839761Y-63969047D01*
X184839761Y-63969047D02*
X184744523Y-64016666D01*
X184744523Y-64016666D02*
X184554047Y-64064285D01*
X184554047Y-64064285D02*
X184411190Y-64064285D01*
X184411190Y-64064285D02*
X184220714Y-64016666D01*
X184220714Y-64016666D02*
X184125476Y-63969047D01*
X184125476Y-63969047D02*
X184030238Y-63873809D01*
X184030238Y-63873809D02*
X183982619Y-63730952D01*
X183982619Y-63730952D02*
X183982619Y-63635714D01*
X183982619Y-63635714D02*
X184030238Y-63492857D01*
X184030238Y-63492857D02*
X184077857Y-63445238D01*
X184077857Y-63445238D02*
X184411190Y-63445238D01*
X184411190Y-63445238D02*
X184411190Y-63635714D01*
X183982619Y-63016666D02*
X184982619Y-63016666D01*
X184982619Y-63016666D02*
X183982619Y-62445238D01*
X183982619Y-62445238D02*
X184982619Y-62445238D01*
X183982619Y-61969047D02*
X184982619Y-61969047D01*
X184982619Y-61969047D02*
X184982619Y-61730952D01*
X184982619Y-61730952D02*
X184935000Y-61588095D01*
X184935000Y-61588095D02*
X184839761Y-61492857D01*
X184839761Y-61492857D02*
X184744523Y-61445238D01*
X184744523Y-61445238D02*
X184554047Y-61397619D01*
X184554047Y-61397619D02*
X184411190Y-61397619D01*
X184411190Y-61397619D02*
X184220714Y-61445238D01*
X184220714Y-61445238D02*
X184125476Y-61492857D01*
X184125476Y-61492857D02*
X184030238Y-61588095D01*
X184030238Y-61588095D02*
X183982619Y-61730952D01*
X183982619Y-61730952D02*
X183982619Y-61969047D01*
X141455000Y-61561904D02*
X141502619Y-61657142D01*
X141502619Y-61657142D02*
X141502619Y-61799999D01*
X141502619Y-61799999D02*
X141455000Y-61942856D01*
X141455000Y-61942856D02*
X141359761Y-62038094D01*
X141359761Y-62038094D02*
X141264523Y-62085713D01*
X141264523Y-62085713D02*
X141074047Y-62133332D01*
X141074047Y-62133332D02*
X140931190Y-62133332D01*
X140931190Y-62133332D02*
X140740714Y-62085713D01*
X140740714Y-62085713D02*
X140645476Y-62038094D01*
X140645476Y-62038094D02*
X140550238Y-61942856D01*
X140550238Y-61942856D02*
X140502619Y-61799999D01*
X140502619Y-61799999D02*
X140502619Y-61704761D01*
X140502619Y-61704761D02*
X140550238Y-61561904D01*
X140550238Y-61561904D02*
X140597857Y-61514285D01*
X140597857Y-61514285D02*
X140931190Y-61514285D01*
X140931190Y-61514285D02*
X140931190Y-61704761D01*
X140502619Y-61085713D02*
X141502619Y-61085713D01*
X141502619Y-61085713D02*
X140502619Y-60514285D01*
X140502619Y-60514285D02*
X141502619Y-60514285D01*
X140502619Y-60038094D02*
X141502619Y-60038094D01*
X141502619Y-60038094D02*
X141502619Y-59799999D01*
X141502619Y-59799999D02*
X141455000Y-59657142D01*
X141455000Y-59657142D02*
X141359761Y-59561904D01*
X141359761Y-59561904D02*
X141264523Y-59514285D01*
X141264523Y-59514285D02*
X141074047Y-59466666D01*
X141074047Y-59466666D02*
X140931190Y-59466666D01*
X140931190Y-59466666D02*
X140740714Y-59514285D01*
X140740714Y-59514285D02*
X140645476Y-59561904D01*
X140645476Y-59561904D02*
X140550238Y-59657142D01*
X140550238Y-59657142D02*
X140502619Y-59799999D01*
X140502619Y-59799999D02*
X140502619Y-60038094D01*
X177407619Y-65188095D02*
X177407619Y-65664285D01*
X177407619Y-65664285D02*
X176931428Y-65711904D01*
X176931428Y-65711904D02*
X176979047Y-65664285D01*
X176979047Y-65664285D02*
X177026666Y-65569047D01*
X177026666Y-65569047D02*
X177026666Y-65330952D01*
X177026666Y-65330952D02*
X176979047Y-65235714D01*
X176979047Y-65235714D02*
X176931428Y-65188095D01*
X176931428Y-65188095D02*
X176836190Y-65140476D01*
X176836190Y-65140476D02*
X176598095Y-65140476D01*
X176598095Y-65140476D02*
X176502857Y-65188095D01*
X176502857Y-65188095D02*
X176455238Y-65235714D01*
X176455238Y-65235714D02*
X176407619Y-65330952D01*
X176407619Y-65330952D02*
X176407619Y-65569047D01*
X176407619Y-65569047D02*
X176455238Y-65664285D01*
X176455238Y-65664285D02*
X176502857Y-65711904D01*
X177074285Y-63683333D02*
X176407619Y-63683333D01*
X177455238Y-63921428D02*
X176740952Y-64159523D01*
X176740952Y-64159523D02*
X176740952Y-63540476D01*
X152014285Y-113117380D02*
X152585713Y-113117380D01*
X152299999Y-113117380D02*
X152299999Y-112117380D01*
X152299999Y-112117380D02*
X152395237Y-112260238D01*
X152395237Y-112260238D02*
X152490475Y-112355476D01*
X152490475Y-112355476D02*
X152585713Y-112403095D01*
X175188095Y-96551428D02*
X175950000Y-96551428D01*
X175569047Y-96932380D02*
X175569047Y-96170476D01*
X172164285Y-113117380D02*
X172735713Y-113117380D01*
X172449999Y-113117380D02*
X172449999Y-112117380D01*
X172449999Y-112117380D02*
X172545237Y-112260238D01*
X172545237Y-112260238D02*
X172640475Y-112355476D01*
X172640475Y-112355476D02*
X172735713Y-112403095D01*
X165759523Y-107317380D02*
X165759523Y-106317380D01*
X165759523Y-106317380D02*
X165426190Y-107031666D01*
X165426190Y-107031666D02*
X165092857Y-106317380D01*
X165092857Y-106317380D02*
X165092857Y-107317380D01*
X164092857Y-107317380D02*
X164664285Y-107317380D01*
X164378571Y-107317380D02*
X164378571Y-106317380D01*
X164378571Y-106317380D02*
X164473809Y-106460238D01*
X164473809Y-106460238D02*
X164569047Y-106555476D01*
X164569047Y-106555476D02*
X164664285Y-106603095D01*
X185859523Y-107317380D02*
X185859523Y-106317380D01*
X185859523Y-106317380D02*
X185526190Y-107031666D01*
X185526190Y-107031666D02*
X185192857Y-106317380D01*
X185192857Y-106317380D02*
X185192857Y-107317380D01*
X184288095Y-106650714D02*
X184288095Y-107317380D01*
X184526190Y-106269761D02*
X184764285Y-106984047D01*
X184764285Y-106984047D02*
X184145238Y-106984047D01*
X138057857Y-61295238D02*
X138010238Y-61342857D01*
X138010238Y-61342857D02*
X137962619Y-61485714D01*
X137962619Y-61485714D02*
X137962619Y-61580952D01*
X137962619Y-61580952D02*
X138010238Y-61723809D01*
X138010238Y-61723809D02*
X138105476Y-61819047D01*
X138105476Y-61819047D02*
X138200714Y-61866666D01*
X138200714Y-61866666D02*
X138391190Y-61914285D01*
X138391190Y-61914285D02*
X138534047Y-61914285D01*
X138534047Y-61914285D02*
X138724523Y-61866666D01*
X138724523Y-61866666D02*
X138819761Y-61819047D01*
X138819761Y-61819047D02*
X138915000Y-61723809D01*
X138915000Y-61723809D02*
X138962619Y-61580952D01*
X138962619Y-61580952D02*
X138962619Y-61485714D01*
X138962619Y-61485714D02*
X138915000Y-61342857D01*
X138915000Y-61342857D02*
X138867380Y-61295238D01*
X137962619Y-60390476D02*
X137962619Y-60866666D01*
X137962619Y-60866666D02*
X138962619Y-60866666D01*
X137962619Y-60057142D02*
X138962619Y-60057142D01*
X137962619Y-59485714D02*
X138534047Y-59914285D01*
X138962619Y-59485714D02*
X138391190Y-60057142D01*
X142309523Y-108567380D02*
X142309523Y-107567380D01*
X142309523Y-107567380D02*
X141928571Y-107567380D01*
X141928571Y-107567380D02*
X141833333Y-107615000D01*
X141833333Y-107615000D02*
X141785714Y-107662619D01*
X141785714Y-107662619D02*
X141738095Y-107757857D01*
X141738095Y-107757857D02*
X141738095Y-107900714D01*
X141738095Y-107900714D02*
X141785714Y-107995952D01*
X141785714Y-107995952D02*
X141833333Y-108043571D01*
X141833333Y-108043571D02*
X141928571Y-108091190D01*
X141928571Y-108091190D02*
X142309523Y-108091190D01*
X141119047Y-107567380D02*
X140928571Y-107567380D01*
X140928571Y-107567380D02*
X140833333Y-107615000D01*
X140833333Y-107615000D02*
X140738095Y-107710238D01*
X140738095Y-107710238D02*
X140690476Y-107900714D01*
X140690476Y-107900714D02*
X140690476Y-108234047D01*
X140690476Y-108234047D02*
X140738095Y-108424523D01*
X140738095Y-108424523D02*
X140833333Y-108519761D01*
X140833333Y-108519761D02*
X140928571Y-108567380D01*
X140928571Y-108567380D02*
X141119047Y-108567380D01*
X141119047Y-108567380D02*
X141214285Y-108519761D01*
X141214285Y-108519761D02*
X141309523Y-108424523D01*
X141309523Y-108424523D02*
X141357142Y-108234047D01*
X141357142Y-108234047D02*
X141357142Y-107900714D01*
X141357142Y-107900714D02*
X141309523Y-107710238D01*
X141309523Y-107710238D02*
X141214285Y-107615000D01*
X141214285Y-107615000D02*
X141119047Y-107567380D01*
X140357142Y-107567380D02*
X140119047Y-108567380D01*
X140119047Y-108567380D02*
X139928571Y-107853095D01*
X139928571Y-107853095D02*
X139738095Y-108567380D01*
X139738095Y-108567380D02*
X139500000Y-107567380D01*
X139119047Y-108043571D02*
X138785714Y-108043571D01*
X138642857Y-108567380D02*
X139119047Y-108567380D01*
X139119047Y-108567380D02*
X139119047Y-107567380D01*
X139119047Y-107567380D02*
X138642857Y-107567380D01*
X137642857Y-108567380D02*
X137976190Y-108091190D01*
X138214285Y-108567380D02*
X138214285Y-107567380D01*
X138214285Y-107567380D02*
X137833333Y-107567380D01*
X137833333Y-107567380D02*
X137738095Y-107615000D01*
X137738095Y-107615000D02*
X137690476Y-107662619D01*
X137690476Y-107662619D02*
X137642857Y-107757857D01*
X137642857Y-107757857D02*
X137642857Y-107900714D01*
X137642857Y-107900714D02*
X137690476Y-107995952D01*
X137690476Y-107995952D02*
X137738095Y-108043571D01*
X137738095Y-108043571D02*
X137833333Y-108091190D01*
X137833333Y-108091190D02*
X138214285Y-108091190D01*
X174682619Y-65759523D02*
X174682619Y-65092857D01*
X174682619Y-65092857D02*
X173682619Y-65521428D01*
X174682619Y-63683333D02*
X174682619Y-63873809D01*
X174682619Y-63873809D02*
X174635000Y-63969047D01*
X174635000Y-63969047D02*
X174587380Y-64016666D01*
X174587380Y-64016666D02*
X174444523Y-64111904D01*
X174444523Y-64111904D02*
X174254047Y-64159523D01*
X174254047Y-64159523D02*
X173873095Y-64159523D01*
X173873095Y-64159523D02*
X173777857Y-64111904D01*
X173777857Y-64111904D02*
X173730238Y-64064285D01*
X173730238Y-64064285D02*
X173682619Y-63969047D01*
X173682619Y-63969047D02*
X173682619Y-63778571D01*
X173682619Y-63778571D02*
X173730238Y-63683333D01*
X173730238Y-63683333D02*
X173777857Y-63635714D01*
X173777857Y-63635714D02*
X173873095Y-63588095D01*
X173873095Y-63588095D02*
X174111190Y-63588095D01*
X174111190Y-63588095D02*
X174206428Y-63635714D01*
X174206428Y-63635714D02*
X174254047Y-63683333D01*
X174254047Y-63683333D02*
X174301666Y-63778571D01*
X174301666Y-63778571D02*
X174301666Y-63969047D01*
X174301666Y-63969047D02*
X174254047Y-64064285D01*
X174254047Y-64064285D02*
X174206428Y-64111904D01*
X174206428Y-64111904D02*
X174111190Y-64159523D01*
X162588095Y-96551428D02*
X163350000Y-96551428D01*
X162969047Y-96932380D02*
X162969047Y-96170476D01*
X188193333Y-84738094D02*
X188193333Y-84261904D01*
X187907619Y-84833332D02*
X188907619Y-84499999D01*
X188907619Y-84499999D02*
X187907619Y-84166666D01*
X155465238Y-63009523D02*
X155417619Y-62866666D01*
X155417619Y-62866666D02*
X155417619Y-62628571D01*
X155417619Y-62628571D02*
X155465238Y-62533333D01*
X155465238Y-62533333D02*
X155512857Y-62485714D01*
X155512857Y-62485714D02*
X155608095Y-62438095D01*
X155608095Y-62438095D02*
X155703333Y-62438095D01*
X155703333Y-62438095D02*
X155798571Y-62485714D01*
X155798571Y-62485714D02*
X155846190Y-62533333D01*
X155846190Y-62533333D02*
X155893809Y-62628571D01*
X155893809Y-62628571D02*
X155941428Y-62819047D01*
X155941428Y-62819047D02*
X155989047Y-62914285D01*
X155989047Y-62914285D02*
X156036666Y-62961904D01*
X156036666Y-62961904D02*
X156131904Y-63009523D01*
X156131904Y-63009523D02*
X156227142Y-63009523D01*
X156227142Y-63009523D02*
X156322380Y-62961904D01*
X156322380Y-62961904D02*
X156370000Y-62914285D01*
X156370000Y-62914285D02*
X156417619Y-62819047D01*
X156417619Y-62819047D02*
X156417619Y-62580952D01*
X156417619Y-62580952D02*
X156370000Y-62438095D01*
X155512857Y-61438095D02*
X155465238Y-61485714D01*
X155465238Y-61485714D02*
X155417619Y-61628571D01*
X155417619Y-61628571D02*
X155417619Y-61723809D01*
X155417619Y-61723809D02*
X155465238Y-61866666D01*
X155465238Y-61866666D02*
X155560476Y-61961904D01*
X155560476Y-61961904D02*
X155655714Y-62009523D01*
X155655714Y-62009523D02*
X155846190Y-62057142D01*
X155846190Y-62057142D02*
X155989047Y-62057142D01*
X155989047Y-62057142D02*
X156179523Y-62009523D01*
X156179523Y-62009523D02*
X156274761Y-61961904D01*
X156274761Y-61961904D02*
X156370000Y-61866666D01*
X156370000Y-61866666D02*
X156417619Y-61723809D01*
X156417619Y-61723809D02*
X156417619Y-61628571D01*
X156417619Y-61628571D02*
X156370000Y-61485714D01*
X156370000Y-61485714D02*
X156322380Y-61438095D01*
X155417619Y-60533333D02*
X155417619Y-61009523D01*
X155417619Y-61009523D02*
X156417619Y-61009523D01*
X158470000Y-62638095D02*
X158517619Y-62733333D01*
X158517619Y-62733333D02*
X158517619Y-62876190D01*
X158517619Y-62876190D02*
X158470000Y-63019047D01*
X158470000Y-63019047D02*
X158374761Y-63114285D01*
X158374761Y-63114285D02*
X158279523Y-63161904D01*
X158279523Y-63161904D02*
X158089047Y-63209523D01*
X158089047Y-63209523D02*
X157946190Y-63209523D01*
X157946190Y-63209523D02*
X157755714Y-63161904D01*
X157755714Y-63161904D02*
X157660476Y-63114285D01*
X157660476Y-63114285D02*
X157565238Y-63019047D01*
X157565238Y-63019047D02*
X157517619Y-62876190D01*
X157517619Y-62876190D02*
X157517619Y-62780952D01*
X157517619Y-62780952D02*
X157565238Y-62638095D01*
X157565238Y-62638095D02*
X157612857Y-62590476D01*
X157612857Y-62590476D02*
X157946190Y-62590476D01*
X157946190Y-62590476D02*
X157946190Y-62780952D01*
X157517619Y-62161904D02*
X158517619Y-62161904D01*
X158517619Y-62161904D02*
X157517619Y-61590476D01*
X157517619Y-61590476D02*
X158517619Y-61590476D01*
X157517619Y-61114285D02*
X158517619Y-61114285D01*
X158517619Y-61114285D02*
X158517619Y-60876190D01*
X158517619Y-60876190D02*
X158470000Y-60733333D01*
X158470000Y-60733333D02*
X158374761Y-60638095D01*
X158374761Y-60638095D02*
X158279523Y-60590476D01*
X158279523Y-60590476D02*
X158089047Y-60542857D01*
X158089047Y-60542857D02*
X157946190Y-60542857D01*
X157946190Y-60542857D02*
X157755714Y-60590476D01*
X157755714Y-60590476D02*
X157660476Y-60638095D01*
X157660476Y-60638095D02*
X157565238Y-60733333D01*
X157565238Y-60733333D02*
X157517619Y-60876190D01*
X157517619Y-60876190D02*
X157517619Y-61114285D01*
X155811904Y-57432380D02*
X155811904Y-56432380D01*
X155383333Y-56527619D02*
X155335714Y-56480000D01*
X155335714Y-56480000D02*
X155240476Y-56432380D01*
X155240476Y-56432380D02*
X155002381Y-56432380D01*
X155002381Y-56432380D02*
X154907143Y-56480000D01*
X154907143Y-56480000D02*
X154859524Y-56527619D01*
X154859524Y-56527619D02*
X154811905Y-56622857D01*
X154811905Y-56622857D02*
X154811905Y-56718095D01*
X154811905Y-56718095D02*
X154859524Y-56860952D01*
X154859524Y-56860952D02*
X155430952Y-57432380D01*
X155430952Y-57432380D02*
X154811905Y-57432380D01*
X153811905Y-57337142D02*
X153859524Y-57384761D01*
X153859524Y-57384761D02*
X154002381Y-57432380D01*
X154002381Y-57432380D02*
X154097619Y-57432380D01*
X154097619Y-57432380D02*
X154240476Y-57384761D01*
X154240476Y-57384761D02*
X154335714Y-57289523D01*
X154335714Y-57289523D02*
X154383333Y-57194285D01*
X154383333Y-57194285D02*
X154430952Y-57003809D01*
X154430952Y-57003809D02*
X154430952Y-56860952D01*
X154430952Y-56860952D02*
X154383333Y-56670476D01*
X154383333Y-56670476D02*
X154335714Y-56575238D01*
X154335714Y-56575238D02*
X154240476Y-56480000D01*
X154240476Y-56480000D02*
X154097619Y-56432380D01*
X154097619Y-56432380D02*
X154002381Y-56432380D01*
X154002381Y-56432380D02*
X153859524Y-56480000D01*
X153859524Y-56480000D02*
X153811905Y-56527619D01*
X185885713Y-76462619D02*
X185838094Y-76415000D01*
X185838094Y-76415000D02*
X185742856Y-76367380D01*
X185742856Y-76367380D02*
X185504761Y-76367380D01*
X185504761Y-76367380D02*
X185409523Y-76415000D01*
X185409523Y-76415000D02*
X185361904Y-76462619D01*
X185361904Y-76462619D02*
X185314285Y-76557857D01*
X185314285Y-76557857D02*
X185314285Y-76653095D01*
X185314285Y-76653095D02*
X185361904Y-76795952D01*
X185361904Y-76795952D02*
X185933332Y-77367380D01*
X185933332Y-77367380D02*
X185314285Y-77367380D01*
X152417619Y-63507142D02*
X152417619Y-62888095D01*
X152417619Y-62888095D02*
X152036666Y-63221428D01*
X152036666Y-63221428D02*
X152036666Y-63078571D01*
X152036666Y-63078571D02*
X151989047Y-62983333D01*
X151989047Y-62983333D02*
X151941428Y-62935714D01*
X151941428Y-62935714D02*
X151846190Y-62888095D01*
X151846190Y-62888095D02*
X151608095Y-62888095D01*
X151608095Y-62888095D02*
X151512857Y-62935714D01*
X151512857Y-62935714D02*
X151465238Y-62983333D01*
X151465238Y-62983333D02*
X151417619Y-63078571D01*
X151417619Y-63078571D02*
X151417619Y-63364285D01*
X151417619Y-63364285D02*
X151465238Y-63459523D01*
X151465238Y-63459523D02*
X151512857Y-63507142D01*
X151512857Y-62459523D02*
X151465238Y-62411904D01*
X151465238Y-62411904D02*
X151417619Y-62459523D01*
X151417619Y-62459523D02*
X151465238Y-62507142D01*
X151465238Y-62507142D02*
X151512857Y-62459523D01*
X151512857Y-62459523D02*
X151417619Y-62459523D01*
X152417619Y-62078571D02*
X152417619Y-61459524D01*
X152417619Y-61459524D02*
X152036666Y-61792857D01*
X152036666Y-61792857D02*
X152036666Y-61650000D01*
X152036666Y-61650000D02*
X151989047Y-61554762D01*
X151989047Y-61554762D02*
X151941428Y-61507143D01*
X151941428Y-61507143D02*
X151846190Y-61459524D01*
X151846190Y-61459524D02*
X151608095Y-61459524D01*
X151608095Y-61459524D02*
X151512857Y-61507143D01*
X151512857Y-61507143D02*
X151465238Y-61554762D01*
X151465238Y-61554762D02*
X151417619Y-61650000D01*
X151417619Y-61650000D02*
X151417619Y-61935714D01*
X151417619Y-61935714D02*
X151465238Y-62030952D01*
X151465238Y-62030952D02*
X151512857Y-62078571D01*
X152417619Y-61173809D02*
X151417619Y-60840476D01*
X151417619Y-60840476D02*
X152417619Y-60507143D01*
D13*
X148033333Y-111747666D02*
X148166666Y-111747666D01*
X148166666Y-111747666D02*
X148233333Y-111781000D01*
X148233333Y-111781000D02*
X148266666Y-111814333D01*
X148266666Y-111814333D02*
X148333333Y-111914333D01*
X148333333Y-111914333D02*
X148366666Y-112047666D01*
X148366666Y-112047666D02*
X148366666Y-112314333D01*
X148366666Y-112314333D02*
X148333333Y-112381000D01*
X148333333Y-112381000D02*
X148300000Y-112414333D01*
X148300000Y-112414333D02*
X148233333Y-112447666D01*
X148233333Y-112447666D02*
X148100000Y-112447666D01*
X148100000Y-112447666D02*
X148033333Y-112414333D01*
X148033333Y-112414333D02*
X148000000Y-112381000D01*
X148000000Y-112381000D02*
X147966666Y-112314333D01*
X147966666Y-112314333D02*
X147966666Y-112147666D01*
X147966666Y-112147666D02*
X148000000Y-112081000D01*
X148000000Y-112081000D02*
X148033333Y-112047666D01*
X148033333Y-112047666D02*
X148100000Y-112014333D01*
X148100000Y-112014333D02*
X148233333Y-112014333D01*
X148233333Y-112014333D02*
X148300000Y-112047666D01*
X148300000Y-112047666D02*
X148333333Y-112081000D01*
X148333333Y-112081000D02*
X148366666Y-112147666D01*
X147666666Y-112381000D02*
X147633333Y-112414333D01*
X147633333Y-112414333D02*
X147666666Y-112447666D01*
X147666666Y-112447666D02*
X147699999Y-112414333D01*
X147699999Y-112414333D02*
X147666666Y-112381000D01*
X147666666Y-112381000D02*
X147666666Y-112447666D01*
X147000000Y-111747666D02*
X147333333Y-111747666D01*
X147333333Y-111747666D02*
X147366666Y-112081000D01*
X147366666Y-112081000D02*
X147333333Y-112047666D01*
X147333333Y-112047666D02*
X147266666Y-112014333D01*
X147266666Y-112014333D02*
X147100000Y-112014333D01*
X147100000Y-112014333D02*
X147033333Y-112047666D01*
X147033333Y-112047666D02*
X147000000Y-112081000D01*
X147000000Y-112081000D02*
X146966666Y-112147666D01*
X146966666Y-112147666D02*
X146966666Y-112314333D01*
X146966666Y-112314333D02*
X147000000Y-112381000D01*
X147000000Y-112381000D02*
X147033333Y-112414333D01*
X147033333Y-112414333D02*
X147100000Y-112447666D01*
X147100000Y-112447666D02*
X147266666Y-112447666D01*
X147266666Y-112447666D02*
X147333333Y-112414333D01*
X147333333Y-112414333D02*
X147366666Y-112381000D01*
X146666666Y-112181000D02*
X146133333Y-112181000D01*
X145833332Y-111814333D02*
X145799999Y-111781000D01*
X145799999Y-111781000D02*
X145733332Y-111747666D01*
X145733332Y-111747666D02*
X145566666Y-111747666D01*
X145566666Y-111747666D02*
X145499999Y-111781000D01*
X145499999Y-111781000D02*
X145466666Y-111814333D01*
X145466666Y-111814333D02*
X145433332Y-111881000D01*
X145433332Y-111881000D02*
X145433332Y-111947666D01*
X145433332Y-111947666D02*
X145466666Y-112047666D01*
X145466666Y-112047666D02*
X145866666Y-112447666D01*
X145866666Y-112447666D02*
X145433332Y-112447666D01*
X145033332Y-112047666D02*
X145099999Y-112014333D01*
X145099999Y-112014333D02*
X145133332Y-111981000D01*
X145133332Y-111981000D02*
X145166665Y-111914333D01*
X145166665Y-111914333D02*
X145166665Y-111881000D01*
X145166665Y-111881000D02*
X145133332Y-111814333D01*
X145133332Y-111814333D02*
X145099999Y-111781000D01*
X145099999Y-111781000D02*
X145033332Y-111747666D01*
X145033332Y-111747666D02*
X144899999Y-111747666D01*
X144899999Y-111747666D02*
X144833332Y-111781000D01*
X144833332Y-111781000D02*
X144799999Y-111814333D01*
X144799999Y-111814333D02*
X144766665Y-111881000D01*
X144766665Y-111881000D02*
X144766665Y-111914333D01*
X144766665Y-111914333D02*
X144799999Y-111981000D01*
X144799999Y-111981000D02*
X144833332Y-112014333D01*
X144833332Y-112014333D02*
X144899999Y-112047666D01*
X144899999Y-112047666D02*
X145033332Y-112047666D01*
X145033332Y-112047666D02*
X145099999Y-112081000D01*
X145099999Y-112081000D02*
X145133332Y-112114333D01*
X145133332Y-112114333D02*
X145166665Y-112181000D01*
X145166665Y-112181000D02*
X145166665Y-112314333D01*
X145166665Y-112314333D02*
X145133332Y-112381000D01*
X145133332Y-112381000D02*
X145099999Y-112414333D01*
X145099999Y-112414333D02*
X145033332Y-112447666D01*
X145033332Y-112447666D02*
X144899999Y-112447666D01*
X144899999Y-112447666D02*
X144833332Y-112414333D01*
X144833332Y-112414333D02*
X144799999Y-112381000D01*
X144799999Y-112381000D02*
X144766665Y-112314333D01*
X144766665Y-112314333D02*
X144766665Y-112181000D01*
X144766665Y-112181000D02*
X144799999Y-112114333D01*
X144799999Y-112114333D02*
X144833332Y-112081000D01*
X144833332Y-112081000D02*
X144899999Y-112047666D01*
X144566665Y-111747666D02*
X144333332Y-112447666D01*
X144333332Y-112447666D02*
X144099998Y-111747666D01*
D11*
X177785713Y-112112619D02*
X177738094Y-112065000D01*
X177738094Y-112065000D02*
X177642856Y-112017380D01*
X177642856Y-112017380D02*
X177404761Y-112017380D01*
X177404761Y-112017380D02*
X177309523Y-112065000D01*
X177309523Y-112065000D02*
X177261904Y-112112619D01*
X177261904Y-112112619D02*
X177214285Y-112207857D01*
X177214285Y-112207857D02*
X177214285Y-112303095D01*
X177214285Y-112303095D02*
X177261904Y-112445952D01*
X177261904Y-112445952D02*
X177833332Y-113017380D01*
X177833332Y-113017380D02*
X177214285Y-113017380D01*
X185933332Y-73967380D02*
X185314285Y-73967380D01*
X185314285Y-73967380D02*
X185647618Y-74348333D01*
X185647618Y-74348333D02*
X185504761Y-74348333D01*
X185504761Y-74348333D02*
X185409523Y-74395952D01*
X185409523Y-74395952D02*
X185361904Y-74443571D01*
X185361904Y-74443571D02*
X185314285Y-74538809D01*
X185314285Y-74538809D02*
X185314285Y-74776904D01*
X185314285Y-74776904D02*
X185361904Y-74872142D01*
X185361904Y-74872142D02*
X185409523Y-74919761D01*
X185409523Y-74919761D02*
X185504761Y-74967380D01*
X185504761Y-74967380D02*
X185790475Y-74967380D01*
X185790475Y-74967380D02*
X185885713Y-74919761D01*
X185885713Y-74919761D02*
X185933332Y-74872142D01*
X135432619Y-60523808D02*
X136432619Y-60523808D01*
X136432619Y-59857142D02*
X136432619Y-59666666D01*
X136432619Y-59666666D02*
X136385000Y-59571428D01*
X136385000Y-59571428D02*
X136289761Y-59476190D01*
X136289761Y-59476190D02*
X136099285Y-59428571D01*
X136099285Y-59428571D02*
X135765952Y-59428571D01*
X135765952Y-59428571D02*
X135575476Y-59476190D01*
X135575476Y-59476190D02*
X135480238Y-59571428D01*
X135480238Y-59571428D02*
X135432619Y-59666666D01*
X135432619Y-59666666D02*
X135432619Y-59857142D01*
X135432619Y-59857142D02*
X135480238Y-59952380D01*
X135480238Y-59952380D02*
X135575476Y-60047618D01*
X135575476Y-60047618D02*
X135765952Y-60095237D01*
X135765952Y-60095237D02*
X136099285Y-60095237D01*
X136099285Y-60095237D02*
X136289761Y-60047618D01*
X136289761Y-60047618D02*
X136385000Y-59952380D01*
X136385000Y-59952380D02*
X136432619Y-59857142D01*
X153465238Y-63059523D02*
X153417619Y-62916666D01*
X153417619Y-62916666D02*
X153417619Y-62678571D01*
X153417619Y-62678571D02*
X153465238Y-62583333D01*
X153465238Y-62583333D02*
X153512857Y-62535714D01*
X153512857Y-62535714D02*
X153608095Y-62488095D01*
X153608095Y-62488095D02*
X153703333Y-62488095D01*
X153703333Y-62488095D02*
X153798571Y-62535714D01*
X153798571Y-62535714D02*
X153846190Y-62583333D01*
X153846190Y-62583333D02*
X153893809Y-62678571D01*
X153893809Y-62678571D02*
X153941428Y-62869047D01*
X153941428Y-62869047D02*
X153989047Y-62964285D01*
X153989047Y-62964285D02*
X154036666Y-63011904D01*
X154036666Y-63011904D02*
X154131904Y-63059523D01*
X154131904Y-63059523D02*
X154227142Y-63059523D01*
X154227142Y-63059523D02*
X154322380Y-63011904D01*
X154322380Y-63011904D02*
X154370000Y-62964285D01*
X154370000Y-62964285D02*
X154417619Y-62869047D01*
X154417619Y-62869047D02*
X154417619Y-62630952D01*
X154417619Y-62630952D02*
X154370000Y-62488095D01*
X153417619Y-62059523D02*
X154417619Y-62059523D01*
X154417619Y-62059523D02*
X154417619Y-61821428D01*
X154417619Y-61821428D02*
X154370000Y-61678571D01*
X154370000Y-61678571D02*
X154274761Y-61583333D01*
X154274761Y-61583333D02*
X154179523Y-61535714D01*
X154179523Y-61535714D02*
X153989047Y-61488095D01*
X153989047Y-61488095D02*
X153846190Y-61488095D01*
X153846190Y-61488095D02*
X153655714Y-61535714D01*
X153655714Y-61535714D02*
X153560476Y-61583333D01*
X153560476Y-61583333D02*
X153465238Y-61678571D01*
X153465238Y-61678571D02*
X153417619Y-61821428D01*
X153417619Y-61821428D02*
X153417619Y-62059523D01*
X153703333Y-61107142D02*
X153703333Y-60630952D01*
X153417619Y-61202380D02*
X154417619Y-60869047D01*
X154417619Y-60869047D02*
X153417619Y-60535714D01*
X191056428Y-84528571D02*
X191008809Y-84385714D01*
X191008809Y-84385714D02*
X190961190Y-84338095D01*
X190961190Y-84338095D02*
X190865952Y-84290476D01*
X190865952Y-84290476D02*
X190723095Y-84290476D01*
X190723095Y-84290476D02*
X190627857Y-84338095D01*
X190627857Y-84338095D02*
X190580238Y-84385714D01*
X190580238Y-84385714D02*
X190532619Y-84480952D01*
X190532619Y-84480952D02*
X190532619Y-84861904D01*
X190532619Y-84861904D02*
X191532619Y-84861904D01*
X191532619Y-84861904D02*
X191532619Y-84528571D01*
X191532619Y-84528571D02*
X191485000Y-84433333D01*
X191485000Y-84433333D02*
X191437380Y-84385714D01*
X191437380Y-84385714D02*
X191342142Y-84338095D01*
X191342142Y-84338095D02*
X191246904Y-84338095D01*
X191246904Y-84338095D02*
X191151666Y-84385714D01*
X191151666Y-84385714D02*
X191104047Y-84433333D01*
X191104047Y-84433333D02*
X191056428Y-84528571D01*
X191056428Y-84528571D02*
X191056428Y-84861904D01*
X169732619Y-67949999D02*
X169732619Y-67330952D01*
X169732619Y-67330952D02*
X169351666Y-67664285D01*
X169351666Y-67664285D02*
X169351666Y-67521428D01*
X169351666Y-67521428D02*
X169304047Y-67426190D01*
X169304047Y-67426190D02*
X169256428Y-67378571D01*
X169256428Y-67378571D02*
X169161190Y-67330952D01*
X169161190Y-67330952D02*
X168923095Y-67330952D01*
X168923095Y-67330952D02*
X168827857Y-67378571D01*
X168827857Y-67378571D02*
X168780238Y-67426190D01*
X168780238Y-67426190D02*
X168732619Y-67521428D01*
X168732619Y-67521428D02*
X168732619Y-67807142D01*
X168732619Y-67807142D02*
X168780238Y-67902380D01*
X168780238Y-67902380D02*
X168827857Y-67949999D01*
X168827857Y-66902380D02*
X168780238Y-66854761D01*
X168780238Y-66854761D02*
X168732619Y-66902380D01*
X168732619Y-66902380D02*
X168780238Y-66949999D01*
X168780238Y-66949999D02*
X168827857Y-66902380D01*
X168827857Y-66902380D02*
X168732619Y-66902380D01*
X169732619Y-66521428D02*
X169732619Y-65902381D01*
X169732619Y-65902381D02*
X169351666Y-66235714D01*
X169351666Y-66235714D02*
X169351666Y-66092857D01*
X169351666Y-66092857D02*
X169304047Y-65997619D01*
X169304047Y-65997619D02*
X169256428Y-65950000D01*
X169256428Y-65950000D02*
X169161190Y-65902381D01*
X169161190Y-65902381D02*
X168923095Y-65902381D01*
X168923095Y-65902381D02*
X168827857Y-65950000D01*
X168827857Y-65950000D02*
X168780238Y-65997619D01*
X168780238Y-65997619D02*
X168732619Y-66092857D01*
X168732619Y-66092857D02*
X168732619Y-66378571D01*
X168732619Y-66378571D02*
X168780238Y-66473809D01*
X168780238Y-66473809D02*
X168827857Y-66521428D01*
X169732619Y-65616666D02*
X168732619Y-65283333D01*
X168732619Y-65283333D02*
X169732619Y-64950000D01*
X169685000Y-63492857D02*
X169732619Y-63588095D01*
X169732619Y-63588095D02*
X169732619Y-63730952D01*
X169732619Y-63730952D02*
X169685000Y-63873809D01*
X169685000Y-63873809D02*
X169589761Y-63969047D01*
X169589761Y-63969047D02*
X169494523Y-64016666D01*
X169494523Y-64016666D02*
X169304047Y-64064285D01*
X169304047Y-64064285D02*
X169161190Y-64064285D01*
X169161190Y-64064285D02*
X168970714Y-64016666D01*
X168970714Y-64016666D02*
X168875476Y-63969047D01*
X168875476Y-63969047D02*
X168780238Y-63873809D01*
X168780238Y-63873809D02*
X168732619Y-63730952D01*
X168732619Y-63730952D02*
X168732619Y-63635714D01*
X168732619Y-63635714D02*
X168780238Y-63492857D01*
X168780238Y-63492857D02*
X168827857Y-63445238D01*
X168827857Y-63445238D02*
X169161190Y-63445238D01*
X169161190Y-63445238D02*
X169161190Y-63635714D01*
X168732619Y-63016666D02*
X169732619Y-63016666D01*
X169732619Y-63016666D02*
X168732619Y-62445238D01*
X168732619Y-62445238D02*
X169732619Y-62445238D01*
X168732619Y-61969047D02*
X169732619Y-61969047D01*
X169732619Y-61969047D02*
X169732619Y-61730952D01*
X169732619Y-61730952D02*
X169685000Y-61588095D01*
X169685000Y-61588095D02*
X169589761Y-61492857D01*
X169589761Y-61492857D02*
X169494523Y-61445238D01*
X169494523Y-61445238D02*
X169304047Y-61397619D01*
X169304047Y-61397619D02*
X169161190Y-61397619D01*
X169161190Y-61397619D02*
X168970714Y-61445238D01*
X168970714Y-61445238D02*
X168875476Y-61492857D01*
X168875476Y-61492857D02*
X168780238Y-61588095D01*
X168780238Y-61588095D02*
X168732619Y-61730952D01*
X168732619Y-61730952D02*
X168732619Y-61969047D01*
X155759523Y-107267380D02*
X155759523Y-106267380D01*
X155759523Y-106267380D02*
X155426190Y-106981666D01*
X155426190Y-106981666D02*
X155092857Y-106267380D01*
X155092857Y-106267380D02*
X155092857Y-107267380D01*
X154426190Y-106267380D02*
X154330952Y-106267380D01*
X154330952Y-106267380D02*
X154235714Y-106315000D01*
X154235714Y-106315000D02*
X154188095Y-106362619D01*
X154188095Y-106362619D02*
X154140476Y-106457857D01*
X154140476Y-106457857D02*
X154092857Y-106648333D01*
X154092857Y-106648333D02*
X154092857Y-106886428D01*
X154092857Y-106886428D02*
X154140476Y-107076904D01*
X154140476Y-107076904D02*
X154188095Y-107172142D01*
X154188095Y-107172142D02*
X154235714Y-107219761D01*
X154235714Y-107219761D02*
X154330952Y-107267380D01*
X154330952Y-107267380D02*
X154426190Y-107267380D01*
X154426190Y-107267380D02*
X154521428Y-107219761D01*
X154521428Y-107219761D02*
X154569047Y-107172142D01*
X154569047Y-107172142D02*
X154616666Y-107076904D01*
X154616666Y-107076904D02*
X154664285Y-106886428D01*
X154664285Y-106886428D02*
X154664285Y-106648333D01*
X154664285Y-106648333D02*
X154616666Y-106457857D01*
X154616666Y-106457857D02*
X154569047Y-106362619D01*
X154569047Y-106362619D02*
X154521428Y-106315000D01*
X154521428Y-106315000D02*
X154426190Y-106267380D01*
X172132619Y-65759523D02*
X172132619Y-65092857D01*
X172132619Y-65092857D02*
X171132619Y-65521428D01*
X172132619Y-63683333D02*
X172132619Y-63873809D01*
X172132619Y-63873809D02*
X172085000Y-63969047D01*
X172085000Y-63969047D02*
X172037380Y-64016666D01*
X172037380Y-64016666D02*
X171894523Y-64111904D01*
X171894523Y-64111904D02*
X171704047Y-64159523D01*
X171704047Y-64159523D02*
X171323095Y-64159523D01*
X171323095Y-64159523D02*
X171227857Y-64111904D01*
X171227857Y-64111904D02*
X171180238Y-64064285D01*
X171180238Y-64064285D02*
X171132619Y-63969047D01*
X171132619Y-63969047D02*
X171132619Y-63778571D01*
X171132619Y-63778571D02*
X171180238Y-63683333D01*
X171180238Y-63683333D02*
X171227857Y-63635714D01*
X171227857Y-63635714D02*
X171323095Y-63588095D01*
X171323095Y-63588095D02*
X171561190Y-63588095D01*
X171561190Y-63588095D02*
X171656428Y-63635714D01*
X171656428Y-63635714D02*
X171704047Y-63683333D01*
X171704047Y-63683333D02*
X171751666Y-63778571D01*
X171751666Y-63778571D02*
X171751666Y-63969047D01*
X171751666Y-63969047D02*
X171704047Y-64064285D01*
X171704047Y-64064285D02*
X171656428Y-64111904D01*
X171656428Y-64111904D02*
X171561190Y-64159523D01*
X146704761Y-110382380D02*
X146371428Y-111382380D01*
X146371428Y-111382380D02*
X146038095Y-110382380D01*
X145704761Y-111382380D02*
X145704761Y-110382380D01*
X145704761Y-110382380D02*
X145466666Y-110382380D01*
X145466666Y-110382380D02*
X145323809Y-110430000D01*
X145323809Y-110430000D02*
X145228571Y-110525238D01*
X145228571Y-110525238D02*
X145180952Y-110620476D01*
X145180952Y-110620476D02*
X145133333Y-110810952D01*
X145133333Y-110810952D02*
X145133333Y-110953809D01*
X145133333Y-110953809D02*
X145180952Y-111144285D01*
X145180952Y-111144285D02*
X145228571Y-111239523D01*
X145228571Y-111239523D02*
X145323809Y-111334761D01*
X145323809Y-111334761D02*
X145466666Y-111382380D01*
X145466666Y-111382380D02*
X145704761Y-111382380D01*
X144133333Y-111287142D02*
X144180952Y-111334761D01*
X144180952Y-111334761D02*
X144323809Y-111382380D01*
X144323809Y-111382380D02*
X144419047Y-111382380D01*
X144419047Y-111382380D02*
X144561904Y-111334761D01*
X144561904Y-111334761D02*
X144657142Y-111239523D01*
X144657142Y-111239523D02*
X144704761Y-111144285D01*
X144704761Y-111144285D02*
X144752380Y-110953809D01*
X144752380Y-110953809D02*
X144752380Y-110810952D01*
X144752380Y-110810952D02*
X144704761Y-110620476D01*
X144704761Y-110620476D02*
X144657142Y-110525238D01*
X144657142Y-110525238D02*
X144561904Y-110430000D01*
X144561904Y-110430000D02*
X144419047Y-110382380D01*
X144419047Y-110382380D02*
X144323809Y-110382380D01*
X144323809Y-110382380D02*
X144180952Y-110430000D01*
X144180952Y-110430000D02*
X144133333Y-110477619D01*
X157735713Y-112112619D02*
X157688094Y-112065000D01*
X157688094Y-112065000D02*
X157592856Y-112017380D01*
X157592856Y-112017380D02*
X157354761Y-112017380D01*
X157354761Y-112017380D02*
X157259523Y-112065000D01*
X157259523Y-112065000D02*
X157211904Y-112112619D01*
X157211904Y-112112619D02*
X157164285Y-112207857D01*
X157164285Y-112207857D02*
X157164285Y-112303095D01*
X157164285Y-112303095D02*
X157211904Y-112445952D01*
X157211904Y-112445952D02*
X157783332Y-113017380D01*
X157783332Y-113017380D02*
X157164285Y-113017380D01*
X185722618Y-81767380D02*
X185627380Y-81767380D01*
X185627380Y-81767380D02*
X185532142Y-81815000D01*
X185532142Y-81815000D02*
X185484523Y-81862619D01*
X185484523Y-81862619D02*
X185436904Y-81957857D01*
X185436904Y-81957857D02*
X185389285Y-82148333D01*
X185389285Y-82148333D02*
X185389285Y-82386428D01*
X185389285Y-82386428D02*
X185436904Y-82576904D01*
X185436904Y-82576904D02*
X185484523Y-82672142D01*
X185484523Y-82672142D02*
X185532142Y-82719761D01*
X185532142Y-82719761D02*
X185627380Y-82767380D01*
X185627380Y-82767380D02*
X185722618Y-82767380D01*
X185722618Y-82767380D02*
X185817856Y-82719761D01*
X185817856Y-82719761D02*
X185865475Y-82672142D01*
X185865475Y-82672142D02*
X185913094Y-82576904D01*
X185913094Y-82576904D02*
X185960713Y-82386428D01*
X185960713Y-82386428D02*
X185960713Y-82148333D01*
X185960713Y-82148333D02*
X185913094Y-81957857D01*
X185913094Y-81957857D02*
X185865475Y-81862619D01*
X185865475Y-81862619D02*
X185817856Y-81815000D01*
X185817856Y-81815000D02*
X185722618Y-81767380D01*
X196385000Y-86361904D02*
X196432619Y-86457142D01*
X196432619Y-86457142D02*
X196432619Y-86599999D01*
X196432619Y-86599999D02*
X196385000Y-86742856D01*
X196385000Y-86742856D02*
X196289761Y-86838094D01*
X196289761Y-86838094D02*
X196194523Y-86885713D01*
X196194523Y-86885713D02*
X196004047Y-86933332D01*
X196004047Y-86933332D02*
X195861190Y-86933332D01*
X195861190Y-86933332D02*
X195670714Y-86885713D01*
X195670714Y-86885713D02*
X195575476Y-86838094D01*
X195575476Y-86838094D02*
X195480238Y-86742856D01*
X195480238Y-86742856D02*
X195432619Y-86599999D01*
X195432619Y-86599999D02*
X195432619Y-86504761D01*
X195432619Y-86504761D02*
X195480238Y-86361904D01*
X195480238Y-86361904D02*
X195527857Y-86314285D01*
X195527857Y-86314285D02*
X195861190Y-86314285D01*
X195861190Y-86314285D02*
X195861190Y-86504761D01*
X195432619Y-85885713D02*
X196432619Y-85885713D01*
X196432619Y-85885713D02*
X195432619Y-85314285D01*
X195432619Y-85314285D02*
X196432619Y-85314285D01*
X195432619Y-84838094D02*
X196432619Y-84838094D01*
X196432619Y-84838094D02*
X196432619Y-84599999D01*
X196432619Y-84599999D02*
X196385000Y-84457142D01*
X196385000Y-84457142D02*
X196289761Y-84361904D01*
X196289761Y-84361904D02*
X196194523Y-84314285D01*
X196194523Y-84314285D02*
X196004047Y-84266666D01*
X196004047Y-84266666D02*
X195861190Y-84266666D01*
X195861190Y-84266666D02*
X195670714Y-84314285D01*
X195670714Y-84314285D02*
X195575476Y-84361904D01*
X195575476Y-84361904D02*
X195480238Y-84457142D01*
X195480238Y-84457142D02*
X195432619Y-84599999D01*
X195432619Y-84599999D02*
X195432619Y-84838094D01*
X187675595Y-96617823D02*
X188437500Y-96617823D01*
X188056547Y-96998775D02*
X188056547Y-96236871D01*
X181382619Y-65140476D02*
X181382619Y-65711904D01*
X181382619Y-65426190D02*
X182382619Y-65426190D01*
X182382619Y-65426190D02*
X182239761Y-65521428D01*
X182239761Y-65521428D02*
X182144523Y-65616666D01*
X182144523Y-65616666D02*
X182096904Y-65711904D01*
X182382619Y-63921428D02*
X182382619Y-63826190D01*
X182382619Y-63826190D02*
X182335000Y-63730952D01*
X182335000Y-63730952D02*
X182287380Y-63683333D01*
X182287380Y-63683333D02*
X182192142Y-63635714D01*
X182192142Y-63635714D02*
X182001666Y-63588095D01*
X182001666Y-63588095D02*
X181763571Y-63588095D01*
X181763571Y-63588095D02*
X181573095Y-63635714D01*
X181573095Y-63635714D02*
X181477857Y-63683333D01*
X181477857Y-63683333D02*
X181430238Y-63730952D01*
X181430238Y-63730952D02*
X181382619Y-63826190D01*
X181382619Y-63826190D02*
X181382619Y-63921428D01*
X181382619Y-63921428D02*
X181430238Y-64016666D01*
X181430238Y-64016666D02*
X181477857Y-64064285D01*
X181477857Y-64064285D02*
X181573095Y-64111904D01*
X181573095Y-64111904D02*
X181763571Y-64159523D01*
X181763571Y-64159523D02*
X182001666Y-64159523D01*
X182001666Y-64159523D02*
X182192142Y-64111904D01*
X182192142Y-64111904D02*
X182287380Y-64064285D01*
X182287380Y-64064285D02*
X182335000Y-64016666D01*
X182335000Y-64016666D02*
X182382619Y-63921428D01*
X196385000Y-70061904D02*
X196432619Y-70157142D01*
X196432619Y-70157142D02*
X196432619Y-70299999D01*
X196432619Y-70299999D02*
X196385000Y-70442856D01*
X196385000Y-70442856D02*
X196289761Y-70538094D01*
X196289761Y-70538094D02*
X196194523Y-70585713D01*
X196194523Y-70585713D02*
X196004047Y-70633332D01*
X196004047Y-70633332D02*
X195861190Y-70633332D01*
X195861190Y-70633332D02*
X195670714Y-70585713D01*
X195670714Y-70585713D02*
X195575476Y-70538094D01*
X195575476Y-70538094D02*
X195480238Y-70442856D01*
X195480238Y-70442856D02*
X195432619Y-70299999D01*
X195432619Y-70299999D02*
X195432619Y-70204761D01*
X195432619Y-70204761D02*
X195480238Y-70061904D01*
X195480238Y-70061904D02*
X195527857Y-70014285D01*
X195527857Y-70014285D02*
X195861190Y-70014285D01*
X195861190Y-70014285D02*
X195861190Y-70204761D01*
X195432619Y-69585713D02*
X196432619Y-69585713D01*
X196432619Y-69585713D02*
X195432619Y-69014285D01*
X195432619Y-69014285D02*
X196432619Y-69014285D01*
X195432619Y-68538094D02*
X196432619Y-68538094D01*
X196432619Y-68538094D02*
X196432619Y-68299999D01*
X196432619Y-68299999D02*
X196385000Y-68157142D01*
X196385000Y-68157142D02*
X196289761Y-68061904D01*
X196289761Y-68061904D02*
X196194523Y-68014285D01*
X196194523Y-68014285D02*
X196004047Y-67966666D01*
X196004047Y-67966666D02*
X195861190Y-67966666D01*
X195861190Y-67966666D02*
X195670714Y-68014285D01*
X195670714Y-68014285D02*
X195575476Y-68061904D01*
X195575476Y-68061904D02*
X195480238Y-68157142D01*
X195480238Y-68157142D02*
X195432619Y-68299999D01*
X195432619Y-68299999D02*
X195432619Y-68538094D01*
X185389285Y-79967380D02*
X185960713Y-79967380D01*
X185674999Y-79967380D02*
X185674999Y-78967380D01*
X185674999Y-78967380D02*
X185770237Y-79110238D01*
X185770237Y-79110238D02*
X185865475Y-79205476D01*
X185865475Y-79205476D02*
X185960713Y-79253095D01*
X167785713Y-112112619D02*
X167738094Y-112065000D01*
X167738094Y-112065000D02*
X167642856Y-112017380D01*
X167642856Y-112017380D02*
X167404761Y-112017380D01*
X167404761Y-112017380D02*
X167309523Y-112065000D01*
X167309523Y-112065000D02*
X167261904Y-112112619D01*
X167261904Y-112112619D02*
X167214285Y-112207857D01*
X167214285Y-112207857D02*
X167214285Y-112303095D01*
X167214285Y-112303095D02*
X167261904Y-112445952D01*
X167261904Y-112445952D02*
X167833332Y-113017380D01*
X167833332Y-113017380D02*
X167214285Y-113017380D01*
X148264285Y-89968857D02*
X148264285Y-88768857D01*
X147578571Y-89968857D02*
X148092857Y-89283142D01*
X147578571Y-88768857D02*
X148264285Y-89454571D01*
X147064285Y-89968857D02*
X147064285Y-89168857D01*
X147064285Y-88768857D02*
X147121428Y-88826000D01*
X147121428Y-88826000D02*
X147064285Y-88883142D01*
X147064285Y-88883142D02*
X147007142Y-88826000D01*
X147007142Y-88826000D02*
X147064285Y-88768857D01*
X147064285Y-88768857D02*
X147064285Y-88883142D01*
X146492856Y-89168857D02*
X146492856Y-89968857D01*
X146492856Y-89283142D02*
X146435713Y-89226000D01*
X146435713Y-89226000D02*
X146321428Y-89168857D01*
X146321428Y-89168857D02*
X146149999Y-89168857D01*
X146149999Y-89168857D02*
X146035713Y-89226000D01*
X146035713Y-89226000D02*
X145978571Y-89340285D01*
X145978571Y-89340285D02*
X145978571Y-89968857D01*
X145407142Y-89968857D02*
X145407142Y-89168857D01*
X145407142Y-88768857D02*
X145464285Y-88826000D01*
X145464285Y-88826000D02*
X145407142Y-88883142D01*
X145407142Y-88883142D02*
X145349999Y-88826000D01*
X145349999Y-88826000D02*
X145407142Y-88768857D01*
X145407142Y-88768857D02*
X145407142Y-88883142D01*
X144892856Y-89911714D02*
X144778570Y-89968857D01*
X144778570Y-89968857D02*
X144549999Y-89968857D01*
X144549999Y-89968857D02*
X144435713Y-89911714D01*
X144435713Y-89911714D02*
X144378570Y-89797428D01*
X144378570Y-89797428D02*
X144378570Y-89740285D01*
X144378570Y-89740285D02*
X144435713Y-89626000D01*
X144435713Y-89626000D02*
X144549999Y-89568857D01*
X144549999Y-89568857D02*
X144721428Y-89568857D01*
X144721428Y-89568857D02*
X144835713Y-89511714D01*
X144835713Y-89511714D02*
X144892856Y-89397428D01*
X144892856Y-89397428D02*
X144892856Y-89340285D01*
X144892856Y-89340285D02*
X144835713Y-89226000D01*
X144835713Y-89226000D02*
X144721428Y-89168857D01*
X144721428Y-89168857D02*
X144549999Y-89168857D01*
X144549999Y-89168857D02*
X144435713Y-89226000D01*
X143864284Y-89968857D02*
X143864284Y-89168857D01*
X143864284Y-88768857D02*
X143921427Y-88826000D01*
X143921427Y-88826000D02*
X143864284Y-88883142D01*
X143864284Y-88883142D02*
X143807141Y-88826000D01*
X143807141Y-88826000D02*
X143864284Y-88768857D01*
X143864284Y-88768857D02*
X143864284Y-88883142D01*
X142572855Y-89968857D02*
X142572855Y-88768857D01*
X142572855Y-88768857D02*
X142172855Y-89626000D01*
X142172855Y-89626000D02*
X141772855Y-88768857D01*
X141772855Y-88768857D02*
X141772855Y-89968857D01*
X141029998Y-89968857D02*
X141144283Y-89911714D01*
X141144283Y-89911714D02*
X141201426Y-89854571D01*
X141201426Y-89854571D02*
X141258569Y-89740285D01*
X141258569Y-89740285D02*
X141258569Y-89397428D01*
X141258569Y-89397428D02*
X141201426Y-89283142D01*
X141201426Y-89283142D02*
X141144283Y-89226000D01*
X141144283Y-89226000D02*
X141029998Y-89168857D01*
X141029998Y-89168857D02*
X140858569Y-89168857D01*
X140858569Y-89168857D02*
X140744283Y-89226000D01*
X140744283Y-89226000D02*
X140687141Y-89283142D01*
X140687141Y-89283142D02*
X140629998Y-89397428D01*
X140629998Y-89397428D02*
X140629998Y-89740285D01*
X140629998Y-89740285D02*
X140687141Y-89854571D01*
X140687141Y-89854571D02*
X140744283Y-89911714D01*
X140744283Y-89911714D02*
X140858569Y-89968857D01*
X140858569Y-89968857D02*
X141029998Y-89968857D01*
X140287141Y-89168857D02*
X139829998Y-89168857D01*
X140115712Y-88768857D02*
X140115712Y-89797428D01*
X140115712Y-89797428D02*
X140058569Y-89911714D01*
X140058569Y-89911714D02*
X139944284Y-89968857D01*
X139944284Y-89968857D02*
X139829998Y-89968857D01*
X139258570Y-89968857D02*
X139372855Y-89911714D01*
X139372855Y-89911714D02*
X139429998Y-89854571D01*
X139429998Y-89854571D02*
X139487141Y-89740285D01*
X139487141Y-89740285D02*
X139487141Y-89397428D01*
X139487141Y-89397428D02*
X139429998Y-89283142D01*
X139429998Y-89283142D02*
X139372855Y-89226000D01*
X139372855Y-89226000D02*
X139258570Y-89168857D01*
X139258570Y-89168857D02*
X139087141Y-89168857D01*
X139087141Y-89168857D02*
X138972855Y-89226000D01*
X138972855Y-89226000D02*
X138915713Y-89283142D01*
X138915713Y-89283142D02*
X138858570Y-89397428D01*
X138858570Y-89397428D02*
X138858570Y-89740285D01*
X138858570Y-89740285D02*
X138915713Y-89854571D01*
X138915713Y-89854571D02*
X138972855Y-89911714D01*
X138972855Y-89911714D02*
X139087141Y-89968857D01*
X139087141Y-89968857D02*
X139258570Y-89968857D01*
X138344284Y-89968857D02*
X138344284Y-89168857D01*
X138344284Y-89397428D02*
X138287141Y-89283142D01*
X138287141Y-89283142D02*
X138229999Y-89226000D01*
X138229999Y-89226000D02*
X138115713Y-89168857D01*
X138115713Y-89168857D02*
X138001427Y-89168857D01*
X147578571Y-91798571D02*
X147635714Y-91855714D01*
X147635714Y-91855714D02*
X147807142Y-91912857D01*
X147807142Y-91912857D02*
X147921428Y-91912857D01*
X147921428Y-91912857D02*
X148092857Y-91855714D01*
X148092857Y-91855714D02*
X148207142Y-91741428D01*
X148207142Y-91741428D02*
X148264285Y-91627142D01*
X148264285Y-91627142D02*
X148321428Y-91398571D01*
X148321428Y-91398571D02*
X148321428Y-91227142D01*
X148321428Y-91227142D02*
X148264285Y-90998571D01*
X148264285Y-90998571D02*
X148207142Y-90884285D01*
X148207142Y-90884285D02*
X148092857Y-90770000D01*
X148092857Y-90770000D02*
X147921428Y-90712857D01*
X147921428Y-90712857D02*
X147807142Y-90712857D01*
X147807142Y-90712857D02*
X147635714Y-90770000D01*
X147635714Y-90770000D02*
X147578571Y-90827142D01*
X146892857Y-91912857D02*
X147007142Y-91855714D01*
X147007142Y-91855714D02*
X147064285Y-91798571D01*
X147064285Y-91798571D02*
X147121428Y-91684285D01*
X147121428Y-91684285D02*
X147121428Y-91341428D01*
X147121428Y-91341428D02*
X147064285Y-91227142D01*
X147064285Y-91227142D02*
X147007142Y-91170000D01*
X147007142Y-91170000D02*
X146892857Y-91112857D01*
X146892857Y-91112857D02*
X146721428Y-91112857D01*
X146721428Y-91112857D02*
X146607142Y-91170000D01*
X146607142Y-91170000D02*
X146550000Y-91227142D01*
X146550000Y-91227142D02*
X146492857Y-91341428D01*
X146492857Y-91341428D02*
X146492857Y-91684285D01*
X146492857Y-91684285D02*
X146550000Y-91798571D01*
X146550000Y-91798571D02*
X146607142Y-91855714D01*
X146607142Y-91855714D02*
X146721428Y-91912857D01*
X146721428Y-91912857D02*
X146892857Y-91912857D01*
X145978571Y-91112857D02*
X145978571Y-91912857D01*
X145978571Y-91227142D02*
X145921428Y-91170000D01*
X145921428Y-91170000D02*
X145807143Y-91112857D01*
X145807143Y-91112857D02*
X145635714Y-91112857D01*
X145635714Y-91112857D02*
X145521428Y-91170000D01*
X145521428Y-91170000D02*
X145464286Y-91284285D01*
X145464286Y-91284285D02*
X145464286Y-91912857D01*
X145064286Y-91112857D02*
X144607143Y-91112857D01*
X144892857Y-90712857D02*
X144892857Y-91741428D01*
X144892857Y-91741428D02*
X144835714Y-91855714D01*
X144835714Y-91855714D02*
X144721429Y-91912857D01*
X144721429Y-91912857D02*
X144607143Y-91912857D01*
X144207143Y-91912857D02*
X144207143Y-91112857D01*
X144207143Y-91341428D02*
X144150000Y-91227142D01*
X144150000Y-91227142D02*
X144092858Y-91170000D01*
X144092858Y-91170000D02*
X143978572Y-91112857D01*
X143978572Y-91112857D02*
X143864286Y-91112857D01*
X143292858Y-91912857D02*
X143407143Y-91855714D01*
X143407143Y-91855714D02*
X143464286Y-91798571D01*
X143464286Y-91798571D02*
X143521429Y-91684285D01*
X143521429Y-91684285D02*
X143521429Y-91341428D01*
X143521429Y-91341428D02*
X143464286Y-91227142D01*
X143464286Y-91227142D02*
X143407143Y-91170000D01*
X143407143Y-91170000D02*
X143292858Y-91112857D01*
X143292858Y-91112857D02*
X143121429Y-91112857D01*
X143121429Y-91112857D02*
X143007143Y-91170000D01*
X143007143Y-91170000D02*
X142950001Y-91227142D01*
X142950001Y-91227142D02*
X142892858Y-91341428D01*
X142892858Y-91341428D02*
X142892858Y-91684285D01*
X142892858Y-91684285D02*
X142950001Y-91798571D01*
X142950001Y-91798571D02*
X143007143Y-91855714D01*
X143007143Y-91855714D02*
X143121429Y-91912857D01*
X143121429Y-91912857D02*
X143292858Y-91912857D01*
X142207144Y-91912857D02*
X142321429Y-91855714D01*
X142321429Y-91855714D02*
X142378572Y-91741428D01*
X142378572Y-91741428D02*
X142378572Y-90712857D01*
X141578573Y-91912857D02*
X141692858Y-91855714D01*
X141692858Y-91855714D02*
X141750001Y-91741428D01*
X141750001Y-91741428D02*
X141750001Y-90712857D01*
X140664287Y-91855714D02*
X140778573Y-91912857D01*
X140778573Y-91912857D02*
X141007145Y-91912857D01*
X141007145Y-91912857D02*
X141121430Y-91855714D01*
X141121430Y-91855714D02*
X141178573Y-91741428D01*
X141178573Y-91741428D02*
X141178573Y-91284285D01*
X141178573Y-91284285D02*
X141121430Y-91170000D01*
X141121430Y-91170000D02*
X141007145Y-91112857D01*
X141007145Y-91112857D02*
X140778573Y-91112857D01*
X140778573Y-91112857D02*
X140664287Y-91170000D01*
X140664287Y-91170000D02*
X140607145Y-91284285D01*
X140607145Y-91284285D02*
X140607145Y-91398571D01*
X140607145Y-91398571D02*
X141178573Y-91512857D01*
X140092859Y-91912857D02*
X140092859Y-91112857D01*
X140092859Y-91341428D02*
X140035716Y-91227142D01*
X140035716Y-91227142D02*
X139978574Y-91170000D01*
X139978574Y-91170000D02*
X139864288Y-91112857D01*
X139864288Y-91112857D02*
X139750002Y-91112857D01*
X138801431Y-90712857D02*
X138401431Y-91912857D01*
X138401431Y-91912857D02*
X138001431Y-90712857D01*
X137372860Y-90712857D02*
X137258574Y-90712857D01*
X137258574Y-90712857D02*
X137144288Y-90770000D01*
X137144288Y-90770000D02*
X137087146Y-90827142D01*
X137087146Y-90827142D02*
X137030003Y-90941428D01*
X137030003Y-90941428D02*
X136972860Y-91170000D01*
X136972860Y-91170000D02*
X136972860Y-91455714D01*
X136972860Y-91455714D02*
X137030003Y-91684285D01*
X137030003Y-91684285D02*
X137087146Y-91798571D01*
X137087146Y-91798571D02*
X137144288Y-91855714D01*
X137144288Y-91855714D02*
X137258574Y-91912857D01*
X137258574Y-91912857D02*
X137372860Y-91912857D01*
X137372860Y-91912857D02*
X137487146Y-91855714D01*
X137487146Y-91855714D02*
X137544288Y-91798571D01*
X137544288Y-91798571D02*
X137601431Y-91684285D01*
X137601431Y-91684285D02*
X137658574Y-91455714D01*
X137658574Y-91455714D02*
X137658574Y-91170000D01*
X137658574Y-91170000D02*
X137601431Y-90941428D01*
X137601431Y-90941428D02*
X137544288Y-90827142D01*
X137544288Y-90827142D02*
X137487146Y-90770000D01*
X137487146Y-90770000D02*
X137372860Y-90712857D01*
X136458574Y-91798571D02*
X136401431Y-91855714D01*
X136401431Y-91855714D02*
X136458574Y-91912857D01*
X136458574Y-91912857D02*
X136515717Y-91855714D01*
X136515717Y-91855714D02*
X136458574Y-91798571D01*
X136458574Y-91798571D02*
X136458574Y-91912857D01*
X136001431Y-90712857D02*
X135258574Y-90712857D01*
X135258574Y-90712857D02*
X135658574Y-91170000D01*
X135658574Y-91170000D02*
X135487145Y-91170000D01*
X135487145Y-91170000D02*
X135372860Y-91227142D01*
X135372860Y-91227142D02*
X135315717Y-91284285D01*
X135315717Y-91284285D02*
X135258574Y-91398571D01*
X135258574Y-91398571D02*
X135258574Y-91684285D01*
X135258574Y-91684285D02*
X135315717Y-91798571D01*
X135315717Y-91798571D02*
X135372860Y-91855714D01*
X135372860Y-91855714D02*
X135487145Y-91912857D01*
X135487145Y-91912857D02*
X135830002Y-91912857D01*
X135830002Y-91912857D02*
X135944288Y-91855714D01*
X135944288Y-91855714D02*
X136001431Y-91798571D01*
X162164285Y-113117380D02*
X162735713Y-113117380D01*
X162449999Y-113117380D02*
X162449999Y-112117380D01*
X162449999Y-112117380D02*
X162545237Y-112260238D01*
X162545237Y-112260238D02*
X162640475Y-112355476D01*
X162640475Y-112355476D02*
X162735713Y-112403095D01*
X175709523Y-107317380D02*
X175709523Y-106317380D01*
X175709523Y-106317380D02*
X175376190Y-107031666D01*
X175376190Y-107031666D02*
X175042857Y-106317380D01*
X175042857Y-106317380D02*
X175042857Y-107317380D01*
X174661904Y-106317380D02*
X174042857Y-106317380D01*
X174042857Y-106317380D02*
X174376190Y-106698333D01*
X174376190Y-106698333D02*
X174233333Y-106698333D01*
X174233333Y-106698333D02*
X174138095Y-106745952D01*
X174138095Y-106745952D02*
X174090476Y-106793571D01*
X174090476Y-106793571D02*
X174042857Y-106888809D01*
X174042857Y-106888809D02*
X174042857Y-107126904D01*
X174042857Y-107126904D02*
X174090476Y-107222142D01*
X174090476Y-107222142D02*
X174138095Y-107269761D01*
X174138095Y-107269761D02*
X174233333Y-107317380D01*
X174233333Y-107317380D02*
X174519047Y-107317380D01*
X174519047Y-107317380D02*
X174614285Y-107269761D01*
X174614285Y-107269761D02*
X174661904Y-107222142D01*
X187835713Y-112112619D02*
X187788094Y-112065000D01*
X187788094Y-112065000D02*
X187692856Y-112017380D01*
X187692856Y-112017380D02*
X187454761Y-112017380D01*
X187454761Y-112017380D02*
X187359523Y-112065000D01*
X187359523Y-112065000D02*
X187311904Y-112112619D01*
X187311904Y-112112619D02*
X187264285Y-112207857D01*
X187264285Y-112207857D02*
X187264285Y-112303095D01*
X187264285Y-112303095D02*
X187311904Y-112445952D01*
X187311904Y-112445952D02*
X187883332Y-113017380D01*
X187883332Y-113017380D02*
X187264285Y-113017380D01*
X132882619Y-62842856D02*
X133882619Y-62842856D01*
X133882619Y-62842856D02*
X132882619Y-62271428D01*
X132882619Y-62271428D02*
X133882619Y-62271428D01*
X132882619Y-61223809D02*
X133358809Y-61557142D01*
X132882619Y-61795237D02*
X133882619Y-61795237D01*
X133882619Y-61795237D02*
X133882619Y-61414285D01*
X133882619Y-61414285D02*
X133835000Y-61319047D01*
X133835000Y-61319047D02*
X133787380Y-61271428D01*
X133787380Y-61271428D02*
X133692142Y-61223809D01*
X133692142Y-61223809D02*
X133549285Y-61223809D01*
X133549285Y-61223809D02*
X133454047Y-61271428D01*
X133454047Y-61271428D02*
X133406428Y-61319047D01*
X133406428Y-61319047D02*
X133358809Y-61414285D01*
X133358809Y-61414285D02*
X133358809Y-61795237D01*
X132930238Y-60842856D02*
X132882619Y-60699999D01*
X132882619Y-60699999D02*
X132882619Y-60461904D01*
X132882619Y-60461904D02*
X132930238Y-60366666D01*
X132930238Y-60366666D02*
X132977857Y-60319047D01*
X132977857Y-60319047D02*
X133073095Y-60271428D01*
X133073095Y-60271428D02*
X133168333Y-60271428D01*
X133168333Y-60271428D02*
X133263571Y-60319047D01*
X133263571Y-60319047D02*
X133311190Y-60366666D01*
X133311190Y-60366666D02*
X133358809Y-60461904D01*
X133358809Y-60461904D02*
X133406428Y-60652380D01*
X133406428Y-60652380D02*
X133454047Y-60747618D01*
X133454047Y-60747618D02*
X133501666Y-60795237D01*
X133501666Y-60795237D02*
X133596904Y-60842856D01*
X133596904Y-60842856D02*
X133692142Y-60842856D01*
X133692142Y-60842856D02*
X133787380Y-60795237D01*
X133787380Y-60795237D02*
X133835000Y-60747618D01*
X133835000Y-60747618D02*
X133882619Y-60652380D01*
X133882619Y-60652380D02*
X133882619Y-60414285D01*
X133882619Y-60414285D02*
X133835000Y-60271428D01*
X133882619Y-59985713D02*
X133882619Y-59414285D01*
X132882619Y-59699999D02*
X133882619Y-59699999D01*
X149988095Y-96551428D02*
X150750000Y-96551428D01*
X150369047Y-96932380D02*
X150369047Y-96170476D01*
%TO.C,J9*%
X133678571Y-111479642D02*
X134821429Y-111479642D01*
%TD*%
M02*
