M48
; DRILL file {KiCad (5.1.8)-1} date 03/21/21 22:52:10
; FORMAT={3:3/ absolute / metric / suppress leading zeros}
; #@! TF.CreationDate,2021-03-21T22:52:10-07:00
; #@! TF.GenerationSoftware,Kicad,Pcbnew,(5.1.8)-1
FMAT,2
METRIC,TZ
T1C0.300
T2C0.330
T3C0.400
T4C0.500
T5C0.600
T6C0.700
T7C0.800
T8C1.000
T9C1.500
T10C4.300
%
G90
G05
T1
X100510Y-75320
X100510Y-76520
X101610Y-75320
X101610Y-76520
X102910Y-75320
X102910Y-76520
X104110Y-75320
X104110Y-76520
T2
X58700Y-93350
X58700Y-94650
X60000Y-93350
X60000Y-94650
X61300Y-93350
X61300Y-94650
X90700Y-93350
X90700Y-94650
X92000Y-93350
X92000Y-94650
X93300Y-93350
X93300Y-94650
X106700Y-93350
X106700Y-94650
X108000Y-93350
X108000Y-94650
X109300Y-93350
X109300Y-94650
X74700Y-93350
X74700Y-94650
X76000Y-93350
X76000Y-94650
X77300Y-93350
X77300Y-94650
T3
X56000Y-89000
X56350Y-76850
X56660Y-63740
X58800Y-76850
X59400Y-89000
X60700Y-89000
X61900Y-89000
X64400Y-71360
X65200Y-72960
X68100Y-74560
X68100Y-75560
X68100Y-76560
X68300Y-67160
X68900Y-69060
X70300Y-56300
X70600Y-73300
X70830Y-65890
X71400Y-61300
X71400Y-62960
X71830Y-65900
X72200Y-89000
X72300Y-64460
X72325Y-81035
X73580Y-56300
X73600Y-81060
X73900Y-74700
X74200Y-67900
X74230Y-61700
X74600Y-80360
X75000Y-75200
X75250Y-68600
X75365Y-89000
X75600Y-80360
X76700Y-89000
X76790Y-79460
X77500Y-57340
X77900Y-89000
X78750Y-67860
X79700Y-56300
X80982Y-68800
X82280Y-59530
X83200Y-64900
X83940Y-61700
X84200Y-64900
X84900Y-79760
X85140Y-77010
X85140Y-78010
X85800Y-65560
X86670Y-71700
X87880Y-71200
X88000Y-89000
X91380Y-89000
X91690Y-75710
X92650Y-89000
X93400Y-73400
X93900Y-89000
X95000Y-75200
X96000Y-83000
X96000Y-84000
X96650Y-73850
X98360Y-80780
X98500Y-77100
X99030Y-60300
X99130Y-62800
X99130Y-64100
X99130Y-65300
X101700Y-80300
X104200Y-89000
X106460Y-74080
X107200Y-52600
X107420Y-89000
X108660Y-89000
X109900Y-89000
T5
X116775Y-105000
X117720Y-102720
X117720Y-107280
X120000Y-101775
X120000Y-108225
X122280Y-102720
X122280Y-107280
X123225Y-105000
X46775Y-105000
X47720Y-102720
X47720Y-107280
X50000Y-101775
X50000Y-108225
X52280Y-102720
X52280Y-107280
X53225Y-105000
X51000Y-76460
X51000Y-79000
X51000Y-81540
X116775Y-50000
X117720Y-47720
X117720Y-52280
X120000Y-46775
X120000Y-53225
X122280Y-47720
X122280Y-52280
X123225Y-50000
X46775Y-50000
X47720Y-47720
X47720Y-52280
X50000Y-46775
X50000Y-53225
X52280Y-47720
X52280Y-52280
X53225Y-50000
T6
X103675Y-49770
X108525Y-49770
X56350Y-70220
X56350Y-75300
X58800Y-70220
X58800Y-75300
T7
X56000Y-93500
X60650Y-98950
X72000Y-93500
X76650Y-98950
X88000Y-93500
X92650Y-98900
X94790Y-69700
X94820Y-70990
X96960Y-69700
X98350Y-69700
X104200Y-93500
X104800Y-51800
X107800Y-81300
X108600Y-99000
X117000Y-61250
X117000Y-63500
X67000Y-95000
X69000Y-95000
X51000Y-95000
X53000Y-95000
X83000Y-95000
X85000Y-95000
X99200Y-95000
X101200Y-95000
T8
X50000Y-67620
X52540Y-67620
X50000Y-65080
X52540Y-65080
X50000Y-60000
X52540Y-60000
X50000Y-62540
X52540Y-62540
T9
X67460Y-50100
X72540Y-50100
X65160Y-105300
X70240Y-105300
X87750Y-50100
X92830Y-50100
X77560Y-50100
X82640Y-50100
X95760Y-105300
X100840Y-105300
X75360Y-105300
X80440Y-105300
X120100Y-62460
X120100Y-67540
X85560Y-105300
X90640Y-105300
T10
X120000Y-105000
X50000Y-105000
X120000Y-50000
X50000Y-50000
T4
G00X102500Y-46700
M15
G01X102500Y-47500
M16
G05
G00X109700Y-46700
M15
G01X109700Y-47500
M16
G05
T0
M30
