%TF.GenerationSoftware,KiCad,Pcbnew,(5.1.8)-1*%
%TF.CreationDate,2022-03-24T23:03:00-07:00*%
%TF.ProjectId,smart_motor_controller,736d6172-745f-46d6-9f74-6f725f636f6e,0.1.1*%
%TF.SameCoordinates,Original*%
%TF.FileFunction,Copper,L4,Bot*%
%TF.FilePolarity,Positive*%
%FSLAX46Y46*%
G04 Gerber Fmt 4.6, Leading zero omitted, Abs format (unit mm)*
G04 Created by KiCad (PCBNEW (5.1.8)-1) date 2022-03-24 23:03:00*
%MOMM*%
%LPD*%
G01*
G04 APERTURE LIST*
%TA.AperFunction,SMDPad,CuDef*%
%ADD10R,3.100000X2.410000*%
%TD*%
%TA.AperFunction,ComponentPad*%
%ADD11C,0.500000*%
%TD*%
%TA.AperFunction,ComponentPad*%
%ADD12C,0.630000*%
%TD*%
%TA.AperFunction,SMDPad,CuDef*%
%ADD13R,2.600000X3.300000*%
%TD*%
%TA.AperFunction,ComponentPad*%
%ADD14O,1.700000X1.700000*%
%TD*%
%TA.AperFunction,ComponentPad*%
%ADD15R,1.700000X1.700000*%
%TD*%
%TA.AperFunction,ComponentPad*%
%ADD16C,2.800000*%
%TD*%
%TA.AperFunction,ComponentPad*%
%ADD17R,2.800000X2.800000*%
%TD*%
%TA.AperFunction,ComponentPad*%
%ADD18C,5.400000*%
%TD*%
%TA.AperFunction,ComponentPad*%
%ADD19C,1.250000*%
%TD*%
%TA.AperFunction,ComponentPad*%
%ADD20O,1.900000X1.100000*%
%TD*%
%TA.AperFunction,ComponentPad*%
%ADD21R,1.600000X1.600000*%
%TD*%
%TA.AperFunction,ComponentPad*%
%ADD22C,1.600000*%
%TD*%
%TA.AperFunction,ViaPad*%
%ADD23C,0.800000*%
%TD*%
%TA.AperFunction,ViaPad*%
%ADD24C,1.000000*%
%TD*%
%TA.AperFunction,Conductor*%
%ADD25C,0.400000*%
%TD*%
%TA.AperFunction,Conductor*%
%ADD26C,0.300000*%
%TD*%
%TA.AperFunction,Conductor*%
%ADD27C,0.254000*%
%TD*%
%TA.AperFunction,Conductor*%
%ADD28C,0.100000*%
%TD*%
G04 APERTURE END LIST*
D10*
%TO.P,U201,9*%
%TO.N,GND*%
X145800000Y-89700000D03*
D11*
X144500000Y-90655000D03*
X144500000Y-88745000D03*
X145800000Y-90655000D03*
X145800000Y-88745000D03*
X147100000Y-90655000D03*
X147100000Y-88745000D03*
%TD*%
D12*
%TO.P,U304,9*%
%TO.N,GND*%
X133250000Y-106600000D03*
X134550000Y-106600000D03*
X133250000Y-109200000D03*
X133250000Y-107900000D03*
X134550000Y-107900000D03*
X134550000Y-109200000D03*
D13*
X133900000Y-107900000D03*
%TD*%
D12*
%TO.P,U303,9*%
%TO.N,GND*%
X133250000Y-81800000D03*
X134550000Y-81800000D03*
X133250000Y-84400000D03*
X133250000Y-83100000D03*
X134550000Y-83100000D03*
X134550000Y-84400000D03*
D13*
X133900000Y-83100000D03*
%TD*%
D12*
%TO.P,U302,9*%
%TO.N,GND*%
X133250000Y-94200000D03*
X134550000Y-94200000D03*
X133250000Y-96800000D03*
X133250000Y-95500000D03*
X134550000Y-95500000D03*
X134550000Y-96800000D03*
D13*
X133900000Y-95500000D03*
%TD*%
D12*
%TO.P,U301,9*%
%TO.N,GND*%
X133250000Y-69400000D03*
X134550000Y-69400000D03*
X133250000Y-72000000D03*
X133250000Y-70700000D03*
X134550000Y-70700000D03*
X134550000Y-72000000D03*
D13*
X133900000Y-70700000D03*
%TD*%
D14*
%TO.P,J104,4*%
%TO.N,NRST*%
X180280000Y-62600000D03*
%TO.P,J104,3*%
%TO.N,SWDIO*%
X182820000Y-62600000D03*
%TO.P,J104,2*%
%TO.N,SWCLK*%
X185360000Y-62600000D03*
D15*
%TO.P,J104,1*%
%TO.N,GND*%
X187900000Y-62600000D03*
%TD*%
D14*
%TO.P,J101,12*%
%TO.N,+3V3*%
X155700000Y-65140000D03*
%TO.P,J101,11*%
%TO.N,GND*%
X155700000Y-62600000D03*
%TO.P,J101,10*%
%TO.N,USART3_RX*%
X158240000Y-65140000D03*
%TO.P,J101,9*%
%TO.N,USART3_TX*%
X158240000Y-62600000D03*
%TO.P,J101,8*%
%TO.N,I2C2_SCL*%
X160780000Y-65140000D03*
%TO.P,J101,7*%
%TO.N,I2C2_SDA*%
X160780000Y-62600000D03*
%TO.P,J101,6*%
%TO.N,GPIO3*%
X163320000Y-65140000D03*
%TO.P,J101,5*%
%TO.N,GPIO2*%
X163320000Y-62600000D03*
%TO.P,J101,4*%
%TO.N,GPIO1*%
X165860000Y-65140000D03*
%TO.P,J101,3*%
%TO.N,GPIO0*%
X165860000Y-62600000D03*
%TO.P,J101,2*%
%TO.N,+3V3*%
X168400000Y-65140000D03*
D15*
%TO.P,J101,1*%
%TO.N,GND*%
X168400000Y-62600000D03*
%TD*%
D16*
%TO.P,J304,2*%
%TO.N,Net-(J304-Pad2)*%
X117700000Y-105600000D03*
D17*
%TO.P,J304,1*%
%TO.N,Net-(J304-Pad1)*%
X117700000Y-100600000D03*
%TD*%
D16*
%TO.P,J303,2*%
%TO.N,Net-(J303-Pad2)*%
X117700000Y-85600000D03*
D17*
%TO.P,J303,1*%
%TO.N,Net-(J303-Pad1)*%
X117700000Y-80600000D03*
%TD*%
D16*
%TO.P,J302,2*%
%TO.N,Net-(J302-Pad2)*%
X117700000Y-95600000D03*
D17*
%TO.P,J302,1*%
%TO.N,Net-(J302-Pad1)*%
X117700000Y-90600000D03*
%TD*%
D16*
%TO.P,J301,2*%
%TO.N,Net-(J301-Pad2)*%
X117700000Y-75600000D03*
D17*
%TO.P,J301,1*%
%TO.N,Net-(J301-Pad1)*%
X117700000Y-70600000D03*
%TD*%
D16*
%TO.P,J9,2*%
%TO.N,+12V*%
X145900000Y-65400000D03*
D17*
%TO.P,J9,1*%
%TO.N,GND*%
X150900000Y-65400000D03*
%TD*%
D14*
%TO.P,J309,2*%
%TO.N,V_ENCODER*%
X165940000Y-113100000D03*
D15*
%TO.P,J309,1*%
%TO.N,GND*%
X163400000Y-113100000D03*
%TD*%
D18*
%TO.P,H6,1*%
%TO.N,GND*%
X115900000Y-112600000D03*
%TD*%
%TO.P,H5,1*%
%TO.N,GND*%
X173900000Y-112600000D03*
%TD*%
%TO.P,H4,1*%
%TO.N,GND*%
X193900000Y-63600000D03*
%TD*%
%TO.P,H3,1*%
%TO.N,GND*%
X115900000Y-63600000D03*
%TD*%
%TO.P,H2,1*%
%TO.N,GND*%
X173900000Y-63600000D03*
%TD*%
%TO.P,H1,1*%
%TO.N,GND*%
X193900000Y-112600000D03*
%TD*%
D19*
%TO.P,J10,6*%
%TO.N,Net-(J10-Pad6)*%
X192430000Y-71375000D03*
X192430000Y-76225000D03*
D20*
X195100000Y-77400000D03*
X195100000Y-70200000D03*
%TD*%
D21*
%TO.P,C302,1*%
%TO.N,VMOTORS*%
X127400000Y-67100000D03*
D22*
%TO.P,C302,2*%
%TO.N,GND*%
X125400000Y-67100000D03*
%TD*%
%TO.P,C304,2*%
%TO.N,GND*%
X125400000Y-79500000D03*
D21*
%TO.P,C304,1*%
%TO.N,VMOTORS*%
X127400000Y-79500000D03*
%TD*%
D22*
%TO.P,C306,2*%
%TO.N,GND*%
X125400000Y-91900000D03*
D21*
%TO.P,C306,1*%
%TO.N,VMOTORS*%
X127400000Y-91900000D03*
%TD*%
%TO.P,C308,1*%
%TO.N,VMOTORS*%
X127400000Y-104300000D03*
D22*
%TO.P,C308,2*%
%TO.N,GND*%
X125400000Y-104300000D03*
%TD*%
D15*
%TO.P,J310,1*%
%TO.N,GND*%
X145900000Y-113600000D03*
D14*
%TO.P,J310,2*%
%TO.N,V_ENCODER*%
X145900000Y-111060000D03*
D15*
%TO.P,J310,1*%
%TO.N,GND*%
X148440000Y-113600000D03*
D14*
%TO.P,J310,2*%
%TO.N,V_ENCODER*%
X148440000Y-111060000D03*
D15*
%TO.P,J310,1*%
%TO.N,GND*%
X150980000Y-113600000D03*
D14*
%TO.P,J310,2*%
%TO.N,V_ENCODER*%
X150980000Y-111060000D03*
D15*
%TO.P,J310,1*%
%TO.N,GND*%
X153520000Y-113600000D03*
D14*
%TO.P,J310,2*%
%TO.N,V_ENCODER*%
X153520000Y-111060000D03*
%TO.P,J310,3*%
%TO.N,ENCODER_0_B*%
X145900000Y-108520000D03*
%TO.P,J310,4*%
%TO.N,ENCODER_0_A*%
X145900000Y-105980000D03*
%TO.P,J310,5*%
%TO.N,ENCODER_1_B*%
X148440000Y-108520000D03*
%TO.P,J310,6*%
%TO.N,ENCODER_1_A*%
X148440000Y-105980000D03*
%TO.P,J310,7*%
%TO.N,ENCODER_2_B*%
X150980000Y-108520000D03*
%TO.P,J310,8*%
%TO.N,ENCODER_2_A*%
X150980000Y-105980000D03*
%TO.P,J310,9*%
%TO.N,ENCODER_3_B*%
X153520000Y-108520000D03*
%TO.P,J310,10*%
%TO.N,ENCODER_3_A*%
X153520000Y-105980000D03*
%TD*%
D23*
%TO.N,GND*%
X134600000Y-67100000D03*
X179300000Y-84540000D03*
X176800000Y-86800000D03*
X173400000Y-79740000D03*
X162260000Y-83090000D03*
X189600000Y-74900000D03*
X162500000Y-80340000D03*
X161600000Y-94540000D03*
X164200000Y-95200000D03*
X182200000Y-87140000D03*
X183000000Y-88740000D03*
X178500000Y-91040000D03*
X179100000Y-92940000D03*
X176570000Y-94210000D03*
X176000000Y-97140000D03*
X175100000Y-95640000D03*
X179300000Y-85540000D03*
X173930000Y-102320000D03*
X173200000Y-92200000D03*
X189900000Y-72500000D03*
X125800000Y-83700000D03*
X125800000Y-96100000D03*
X125800000Y-108500000D03*
D24*
X146400000Y-94500000D03*
D23*
X150400000Y-88000000D03*
D24*
X146800000Y-97700000D03*
D23*
X142800000Y-95700000D03*
X138700000Y-97400000D03*
X138700000Y-109800000D03*
X138700000Y-85000000D03*
X138700000Y-72600000D03*
D24*
X130900000Y-64200000D03*
X130900000Y-76600000D03*
X130900000Y-89000000D03*
X130900000Y-101400000D03*
X150900000Y-62600000D03*
X150900000Y-68100000D03*
D23*
X155900000Y-113600000D03*
X143400000Y-113600000D03*
X160900000Y-113100000D03*
X178200000Y-105900000D03*
X180800000Y-79500000D03*
X178600000Y-75900000D03*
D24*
X142350000Y-85900000D03*
X146800000Y-75500000D03*
D23*
X167600000Y-101000000D03*
X163400000Y-68300000D03*
X138800000Y-78100000D03*
X186800000Y-91600000D03*
X176500000Y-79200000D03*
X172700000Y-73800000D03*
X156600000Y-105600000D03*
X159700000Y-106200000D03*
X155100000Y-75700000D03*
X150900000Y-83900000D03*
X142600000Y-88700000D03*
X142600000Y-90700000D03*
X155200000Y-89000000D03*
X152600000Y-89000000D03*
X138900000Y-90450000D03*
X125800000Y-71300000D03*
X138400000Y-66500000D03*
%TO.N,+3V3*%
X173170000Y-98400000D03*
X163200000Y-95200000D03*
X162260000Y-82090000D03*
X179300000Y-83540000D03*
X172400000Y-79740000D03*
X175570000Y-94200000D03*
X155400000Y-96300000D03*
X155400000Y-97500000D03*
X155400000Y-98700000D03*
D24*
X158400000Y-111100000D03*
X187400000Y-110600000D03*
D23*
X180600000Y-109700000D03*
X177400000Y-97100000D03*
X178400000Y-101400000D03*
X186800000Y-85600000D03*
X136800000Y-67100000D03*
X136800000Y-79700000D03*
X136800000Y-104500000D03*
X136800000Y-92100000D03*
%TO.N,+5V*%
X178600000Y-71100000D03*
X154900000Y-80900000D03*
%TO.N,LED*%
X167625010Y-95700000D03*
X175700000Y-102500000D03*
%TO.N,NRST*%
X173600000Y-88900000D03*
X177200000Y-82100000D03*
X180280000Y-72380000D03*
X180280000Y-64980000D03*
%TO.N,SWCLK*%
X165650000Y-92350000D03*
X177000000Y-75300000D03*
%TO.N,SWDIO*%
X167600000Y-87500000D03*
X176000000Y-75300000D03*
%TO.N,M2_OUT2*%
X157800000Y-86500000D03*
X138700000Y-83750000D03*
%TO.N,USB_D+*%
X166600000Y-85700000D03*
X184600000Y-73950000D03*
%TO.N,USB_D-*%
X165600000Y-86500000D03*
X184600000Y-75850000D03*
%TO.N,CAN2_TX*%
X171010000Y-86740000D03*
X185350000Y-102700000D03*
%TO.N,CAN2_RX*%
X171000000Y-85650000D03*
X186700000Y-102100000D03*
%TO.N,M2_OUT1*%
X156590038Y-84800000D03*
X138700000Y-82500000D03*
%TO.N,M1_OUT2*%
X157800000Y-88200000D03*
X138700000Y-96150000D03*
%TO.N,M1_OUT1*%
X156590038Y-87390038D03*
X138700000Y-94850000D03*
%TO.N,M0_OUT2*%
X138700000Y-71400000D03*
X155300000Y-71400000D03*
%TO.N,M0_OUT1*%
X138700000Y-70100000D03*
X155300000Y-70100000D03*
%TO.N,Net-(C201-Pad2)*%
X149900000Y-94100000D03*
X149200000Y-88100000D03*
%TO.N,USART3_RX*%
X167150000Y-90300000D03*
X158400000Y-80900000D03*
%TO.N,USART3_TX*%
X166200000Y-90900000D03*
X157500000Y-80100000D03*
%TO.N,ENCODER_1_B*%
X169400000Y-84300000D03*
%TO.N,ENCODER_1_A*%
X170400000Y-84300000D03*
%TO.N,ENCODER_3_B*%
X171000000Y-91300000D03*
X169900000Y-99500000D03*
%TO.N,ENCODER_3_A*%
X170000000Y-92100000D03*
X168600000Y-97800000D03*
%TD*%
D25*
%TO.N,+5V*%
X164700000Y-71100000D02*
X154900000Y-80900000D01*
X178600000Y-71100000D02*
X164700000Y-71100000D01*
D26*
%TO.N,LED*%
X174769999Y-101569999D02*
X175700000Y-102500000D01*
X170120019Y-101569999D02*
X174769999Y-101569999D01*
X167625010Y-99074990D02*
X170120019Y-101569999D01*
X167625010Y-95700000D02*
X167625010Y-99074990D01*
%TO.N,NRST*%
X173600000Y-88900000D02*
X175200000Y-87300000D01*
X175200000Y-84100000D02*
X177200000Y-82100000D01*
X175200000Y-87300000D02*
X175200000Y-84100000D01*
X180280000Y-64980000D02*
X180280000Y-72380000D01*
%TO.N,SWCLK*%
X176765685Y-76100000D02*
X173921360Y-76100000D01*
X177000000Y-75865685D02*
X176765685Y-76100000D01*
X177000000Y-75300000D02*
X177000000Y-75865685D01*
X173921360Y-76100000D02*
X168450010Y-81571350D01*
X166210002Y-92350000D02*
X165650000Y-92350000D01*
X168450010Y-90109992D02*
X166210002Y-92350000D01*
X168450010Y-81571350D02*
X168450010Y-90109992D01*
%TO.N,SWDIO*%
X167600000Y-87500000D02*
X167950000Y-87150000D01*
X167950000Y-87150000D02*
X167950000Y-81364240D01*
X174014240Y-75300000D02*
X176000000Y-75300000D01*
X167950000Y-81364240D02*
X174014240Y-75300000D01*
%TO.N,M2_OUT2*%
X153639997Y-83049999D02*
X157089998Y-86500000D01*
X139400001Y-83049999D02*
X153639997Y-83049999D01*
X138700000Y-83750000D02*
X139400001Y-83049999D01*
X157089998Y-86500000D02*
X157800000Y-86500000D01*
%TO.N,USB_D+*%
X173950000Y-73950000D02*
X167200000Y-80700000D01*
X184600000Y-73950000D02*
X173950000Y-73950000D01*
X166600000Y-81300000D02*
X167200000Y-80700000D01*
X166600000Y-85700000D02*
X166600000Y-81300000D01*
%TO.N,USB_D-*%
X183200010Y-74450010D02*
X184600000Y-75850000D01*
X174157110Y-74450010D02*
X183200010Y-74450010D01*
X167400000Y-81207120D02*
X174157110Y-74450010D01*
X166910002Y-86500000D02*
X167400000Y-86010002D01*
X167400000Y-86010002D02*
X167400000Y-81207120D01*
X165600000Y-86500000D02*
X166910002Y-86500000D01*
%TO.N,CAN2_TX*%
X185350000Y-101457120D02*
X185350000Y-102700000D01*
X182892890Y-99000010D02*
X185350000Y-101457120D01*
X176042888Y-99000010D02*
X182892890Y-99000010D01*
X171949989Y-94907111D02*
X176042888Y-99000010D01*
X171949989Y-87679989D02*
X171949989Y-94907111D01*
X171010000Y-86740000D02*
X171949989Y-87679989D01*
%TO.N,CAN2_RX*%
X171000000Y-85650000D02*
X171000000Y-85900000D01*
X172449999Y-94700001D02*
X172449999Y-87099999D01*
X176249998Y-98500000D02*
X172449999Y-94700001D01*
X172449999Y-87099999D02*
X171000000Y-85650000D01*
X186700000Y-102100000D02*
X183100000Y-98500000D01*
X183100000Y-98500000D02*
X176249998Y-98500000D01*
%TO.N,M2_OUT1*%
X138700000Y-82500000D02*
X154200000Y-82500000D01*
X154290038Y-82500000D02*
X154200000Y-82500000D01*
X156590038Y-84800000D02*
X154290038Y-82500000D01*
%TO.N,M1_OUT2*%
X156249999Y-88149999D02*
X157749999Y-88149999D01*
X153600010Y-85500010D02*
X156249999Y-88149999D01*
X144649990Y-85500010D02*
X153600010Y-85500010D01*
X157749999Y-88149999D02*
X157800000Y-88200000D01*
X140975000Y-89175000D02*
X144649990Y-85500010D01*
X140975000Y-93875000D02*
X140975000Y-89175000D01*
X138700000Y-96150000D02*
X140975000Y-93875000D01*
%TO.N,M1_OUT1*%
X156590038Y-87390038D02*
X154200000Y-85000000D01*
X154200000Y-85000000D02*
X141991998Y-85000000D01*
X138700000Y-94850000D02*
X140400000Y-93150000D01*
X140400000Y-86600000D02*
X140395999Y-86595999D01*
X140400000Y-93150000D02*
X140400000Y-86600000D01*
X141991998Y-85000000D02*
X140395999Y-86595999D01*
%TO.N,M0_OUT2*%
X155300000Y-71400000D02*
X138700000Y-71400000D01*
%TO.N,M0_OUT1*%
X155300000Y-70100000D02*
X138700000Y-70100000D01*
%TO.N,Net-(C201-Pad2)*%
X149200000Y-93400000D02*
X149900000Y-94100000D01*
X149200000Y-88100000D02*
X149200000Y-93400000D01*
%TO.N,USART3_RX*%
X158240000Y-65140000D02*
X158240000Y-65260000D01*
X167150000Y-90300000D02*
X159179282Y-82329282D01*
X158400000Y-81550000D02*
X159179282Y-82329282D01*
X158400000Y-80900000D02*
X158400000Y-81550000D01*
%TO.N,USART3_TX*%
X166200000Y-90265685D02*
X166200000Y-90900000D01*
X157500000Y-81565684D02*
X157617158Y-81682842D01*
X157500000Y-80100000D02*
X157500000Y-81565684D01*
X157617158Y-81682842D02*
X166200000Y-90265685D01*
%TO.N,ENCODER_1_B*%
X147239999Y-107319999D02*
X148440000Y-108520000D01*
X147239999Y-105403999D02*
X147239999Y-107319999D01*
X149643998Y-103000000D02*
X147239999Y-105403999D01*
X160100000Y-103000000D02*
X149643998Y-103000000D01*
X164950001Y-98149999D02*
X160100000Y-103000000D01*
X164950001Y-95150001D02*
X164950001Y-98149999D01*
X169400000Y-90700002D02*
X164950001Y-95150001D01*
X169400000Y-84300000D02*
X169400000Y-90700002D01*
%TO.N,ENCODER_1_A*%
X148440000Y-105980000D02*
X149640001Y-107180001D01*
X156627119Y-107180001D02*
X157553560Y-106253560D01*
X149640001Y-107180001D02*
X156627119Y-107180001D01*
X157553560Y-106253560D02*
X157152129Y-106654991D01*
X165450011Y-95549989D02*
X165450011Y-98357109D01*
X169900010Y-91099990D02*
X165450011Y-95549989D01*
X165450011Y-98357109D02*
X157553560Y-106253560D01*
X169900010Y-85365675D02*
X169900010Y-91099990D01*
X170400000Y-84865685D02*
X169900010Y-85365675D01*
X170400000Y-84300000D02*
X170400000Y-84865685D01*
%TO.N,ENCODER_3_B*%
X169900000Y-99500000D02*
X171000000Y-98400000D01*
X171000000Y-91300000D02*
X171000000Y-98400000D01*
%TO.N,ENCODER_3_A*%
X170000000Y-92100000D02*
X170000000Y-96100000D01*
X170000000Y-96400000D02*
X170000000Y-96100000D01*
X168600000Y-97800000D02*
X170000000Y-96400000D01*
%TD*%
D27*
%TO.N,GND*%
X194853893Y-60807670D02*
X195290498Y-60939489D01*
X195693185Y-61153600D01*
X196046612Y-61441848D01*
X196337327Y-61793261D01*
X196554242Y-62194439D01*
X196689106Y-62630113D01*
X196740001Y-63114353D01*
X196740000Y-113067721D01*
X196692330Y-113553894D01*
X196560512Y-113990497D01*
X196346399Y-114393186D01*
X196058150Y-114746613D01*
X195706739Y-115037327D01*
X195305564Y-115254240D01*
X194869886Y-115389106D01*
X194385664Y-115440000D01*
X115432279Y-115440000D01*
X114946106Y-115392330D01*
X114509503Y-115260512D01*
X114106814Y-115046399D01*
X113753387Y-114758150D01*
X113462673Y-114406739D01*
X113245760Y-114005564D01*
X113110894Y-113569886D01*
X113060000Y-113085664D01*
X113060000Y-112953740D01*
X164455000Y-112953740D01*
X164455000Y-113246260D01*
X164512068Y-113533158D01*
X164624010Y-113803411D01*
X164786525Y-114046632D01*
X164993368Y-114253475D01*
X165236589Y-114415990D01*
X165506842Y-114527932D01*
X165793740Y-114585000D01*
X166086260Y-114585000D01*
X166373158Y-114527932D01*
X166643411Y-114415990D01*
X166886632Y-114253475D01*
X167093475Y-114046632D01*
X167255990Y-113803411D01*
X167367932Y-113533158D01*
X167425000Y-113246260D01*
X167425000Y-112953740D01*
X167367932Y-112666842D01*
X167255990Y-112396589D01*
X167093475Y-112153368D01*
X166886632Y-111946525D01*
X166643411Y-111784010D01*
X166373158Y-111672068D01*
X166086260Y-111615000D01*
X165793740Y-111615000D01*
X165506842Y-111672068D01*
X165236589Y-111784010D01*
X164993368Y-111946525D01*
X164786525Y-112153368D01*
X164624010Y-112396589D01*
X164512068Y-112666842D01*
X164455000Y-112953740D01*
X113060000Y-112953740D01*
X113060000Y-105399570D01*
X115665000Y-105399570D01*
X115665000Y-105800430D01*
X115743204Y-106193587D01*
X115896607Y-106563934D01*
X116119313Y-106897237D01*
X116402763Y-107180687D01*
X116736066Y-107403393D01*
X117106413Y-107556796D01*
X117499570Y-107635000D01*
X117900430Y-107635000D01*
X118293587Y-107556796D01*
X118663934Y-107403393D01*
X118997237Y-107180687D01*
X119280687Y-106897237D01*
X119503393Y-106563934D01*
X119656796Y-106193587D01*
X119735000Y-105800430D01*
X119735000Y-105399570D01*
X119656796Y-105006413D01*
X119503393Y-104636066D01*
X119280687Y-104302763D01*
X118997237Y-104019313D01*
X118663934Y-103796607D01*
X118293587Y-103643204D01*
X117900430Y-103565000D01*
X117499570Y-103565000D01*
X117106413Y-103643204D01*
X116736066Y-103796607D01*
X116402763Y-104019313D01*
X116119313Y-104302763D01*
X115896607Y-104636066D01*
X115743204Y-105006413D01*
X115665000Y-105399570D01*
X113060000Y-105399570D01*
X113060000Y-103500000D01*
X125961928Y-103500000D01*
X125961928Y-105100000D01*
X125974188Y-105224482D01*
X126010498Y-105344180D01*
X126069463Y-105454494D01*
X126148815Y-105551185D01*
X126245506Y-105630537D01*
X126355820Y-105689502D01*
X126475518Y-105725812D01*
X126600000Y-105738072D01*
X128200000Y-105738072D01*
X128324482Y-105725812D01*
X128444180Y-105689502D01*
X128554494Y-105630537D01*
X128651185Y-105551185D01*
X128730537Y-105454494D01*
X128789502Y-105344180D01*
X128825812Y-105224482D01*
X128838072Y-105100000D01*
X128838072Y-104398061D01*
X135765000Y-104398061D01*
X135765000Y-104601939D01*
X135804774Y-104801898D01*
X135882795Y-104990256D01*
X135996063Y-105159774D01*
X136140226Y-105303937D01*
X136309744Y-105417205D01*
X136498102Y-105495226D01*
X136698061Y-105535000D01*
X136901939Y-105535000D01*
X137101898Y-105495226D01*
X137290256Y-105417205D01*
X137459774Y-105303937D01*
X137603937Y-105159774D01*
X137717205Y-104990256D01*
X137795226Y-104801898D01*
X137835000Y-104601939D01*
X137835000Y-104398061D01*
X137795226Y-104198102D01*
X137717205Y-104009744D01*
X137603937Y-103840226D01*
X137459774Y-103696063D01*
X137290256Y-103582795D01*
X137101898Y-103504774D01*
X136901939Y-103465000D01*
X136698061Y-103465000D01*
X136498102Y-103504774D01*
X136309744Y-103582795D01*
X136140226Y-103696063D01*
X135996063Y-103840226D01*
X135882795Y-104009744D01*
X135804774Y-104198102D01*
X135765000Y-104398061D01*
X128838072Y-104398061D01*
X128838072Y-103500000D01*
X128825812Y-103375518D01*
X128789502Y-103255820D01*
X128730537Y-103145506D01*
X128651185Y-103048815D01*
X128554494Y-102969463D01*
X128444180Y-102910498D01*
X128324482Y-102874188D01*
X128200000Y-102861928D01*
X126600000Y-102861928D01*
X126475518Y-102874188D01*
X126355820Y-102910498D01*
X126245506Y-102969463D01*
X126148815Y-103048815D01*
X126069463Y-103145506D01*
X126010498Y-103255820D01*
X125974188Y-103375518D01*
X125961928Y-103500000D01*
X113060000Y-103500000D01*
X113060000Y-99200000D01*
X115661928Y-99200000D01*
X115661928Y-102000000D01*
X115674188Y-102124482D01*
X115710498Y-102244180D01*
X115769463Y-102354494D01*
X115848815Y-102451185D01*
X115945506Y-102530537D01*
X116055820Y-102589502D01*
X116175518Y-102625812D01*
X116300000Y-102638072D01*
X119100000Y-102638072D01*
X119224482Y-102625812D01*
X119344180Y-102589502D01*
X119454494Y-102530537D01*
X119551185Y-102451185D01*
X119630537Y-102354494D01*
X119689502Y-102244180D01*
X119725812Y-102124482D01*
X119738072Y-102000000D01*
X119738072Y-99200000D01*
X119725812Y-99075518D01*
X119689502Y-98955820D01*
X119630537Y-98845506D01*
X119551185Y-98748815D01*
X119454494Y-98669463D01*
X119344180Y-98610498D01*
X119224482Y-98574188D01*
X119100000Y-98561928D01*
X116300000Y-98561928D01*
X116175518Y-98574188D01*
X116055820Y-98610498D01*
X115945506Y-98669463D01*
X115848815Y-98748815D01*
X115769463Y-98845506D01*
X115710498Y-98955820D01*
X115674188Y-99075518D01*
X115661928Y-99200000D01*
X113060000Y-99200000D01*
X113060000Y-95399570D01*
X115665000Y-95399570D01*
X115665000Y-95800430D01*
X115743204Y-96193587D01*
X115896607Y-96563934D01*
X116119313Y-96897237D01*
X116402763Y-97180687D01*
X116736066Y-97403393D01*
X117106413Y-97556796D01*
X117499570Y-97635000D01*
X117900430Y-97635000D01*
X118293587Y-97556796D01*
X118663934Y-97403393D01*
X118997237Y-97180687D01*
X119280687Y-96897237D01*
X119503393Y-96563934D01*
X119656796Y-96193587D01*
X119735000Y-95800430D01*
X119735000Y-95399570D01*
X119656796Y-95006413D01*
X119503393Y-94636066D01*
X119280687Y-94302763D01*
X118997237Y-94019313D01*
X118663934Y-93796607D01*
X118293587Y-93643204D01*
X117900430Y-93565000D01*
X117499570Y-93565000D01*
X117106413Y-93643204D01*
X116736066Y-93796607D01*
X116402763Y-94019313D01*
X116119313Y-94302763D01*
X115896607Y-94636066D01*
X115743204Y-95006413D01*
X115665000Y-95399570D01*
X113060000Y-95399570D01*
X113060000Y-89200000D01*
X115661928Y-89200000D01*
X115661928Y-92000000D01*
X115674188Y-92124482D01*
X115710498Y-92244180D01*
X115769463Y-92354494D01*
X115848815Y-92451185D01*
X115945506Y-92530537D01*
X116055820Y-92589502D01*
X116175518Y-92625812D01*
X116300000Y-92638072D01*
X119100000Y-92638072D01*
X119224482Y-92625812D01*
X119344180Y-92589502D01*
X119454494Y-92530537D01*
X119551185Y-92451185D01*
X119630537Y-92354494D01*
X119689502Y-92244180D01*
X119725812Y-92124482D01*
X119738072Y-92000000D01*
X119738072Y-91100000D01*
X125961928Y-91100000D01*
X125961928Y-92700000D01*
X125974188Y-92824482D01*
X126010498Y-92944180D01*
X126069463Y-93054494D01*
X126148815Y-93151185D01*
X126245506Y-93230537D01*
X126355820Y-93289502D01*
X126475518Y-93325812D01*
X126600000Y-93338072D01*
X128200000Y-93338072D01*
X128324482Y-93325812D01*
X128444180Y-93289502D01*
X128554494Y-93230537D01*
X128651185Y-93151185D01*
X128730537Y-93054494D01*
X128789502Y-92944180D01*
X128825812Y-92824482D01*
X128838072Y-92700000D01*
X128838072Y-91998061D01*
X135765000Y-91998061D01*
X135765000Y-92201939D01*
X135804774Y-92401898D01*
X135882795Y-92590256D01*
X135996063Y-92759774D01*
X136140226Y-92903937D01*
X136309744Y-93017205D01*
X136498102Y-93095226D01*
X136698061Y-93135000D01*
X136901939Y-93135000D01*
X137101898Y-93095226D01*
X137290256Y-93017205D01*
X137459774Y-92903937D01*
X137603937Y-92759774D01*
X137717205Y-92590256D01*
X137795226Y-92401898D01*
X137835000Y-92201939D01*
X137835000Y-91998061D01*
X137795226Y-91798102D01*
X137717205Y-91609744D01*
X137603937Y-91440226D01*
X137459774Y-91296063D01*
X137290256Y-91182795D01*
X137101898Y-91104774D01*
X136901939Y-91065000D01*
X136698061Y-91065000D01*
X136498102Y-91104774D01*
X136309744Y-91182795D01*
X136140226Y-91296063D01*
X135996063Y-91440226D01*
X135882795Y-91609744D01*
X135804774Y-91798102D01*
X135765000Y-91998061D01*
X128838072Y-91998061D01*
X128838072Y-91100000D01*
X128825812Y-90975518D01*
X128789502Y-90855820D01*
X128730537Y-90745506D01*
X128651185Y-90648815D01*
X128554494Y-90569463D01*
X128444180Y-90510498D01*
X128324482Y-90474188D01*
X128200000Y-90461928D01*
X126600000Y-90461928D01*
X126475518Y-90474188D01*
X126355820Y-90510498D01*
X126245506Y-90569463D01*
X126148815Y-90648815D01*
X126069463Y-90745506D01*
X126010498Y-90855820D01*
X125974188Y-90975518D01*
X125961928Y-91100000D01*
X119738072Y-91100000D01*
X119738072Y-89200000D01*
X119725812Y-89075518D01*
X119689502Y-88955820D01*
X119630537Y-88845506D01*
X119551185Y-88748815D01*
X119454494Y-88669463D01*
X119344180Y-88610498D01*
X119224482Y-88574188D01*
X119100000Y-88561928D01*
X116300000Y-88561928D01*
X116175518Y-88574188D01*
X116055820Y-88610498D01*
X115945506Y-88669463D01*
X115848815Y-88748815D01*
X115769463Y-88845506D01*
X115710498Y-88955820D01*
X115674188Y-89075518D01*
X115661928Y-89200000D01*
X113060000Y-89200000D01*
X113060000Y-85399570D01*
X115665000Y-85399570D01*
X115665000Y-85800430D01*
X115743204Y-86193587D01*
X115896607Y-86563934D01*
X116119313Y-86897237D01*
X116402763Y-87180687D01*
X116736066Y-87403393D01*
X117106413Y-87556796D01*
X117499570Y-87635000D01*
X117900430Y-87635000D01*
X118293587Y-87556796D01*
X118663934Y-87403393D01*
X118997237Y-87180687D01*
X119280687Y-86897237D01*
X119503393Y-86563934D01*
X119656796Y-86193587D01*
X119735000Y-85800430D01*
X119735000Y-85399570D01*
X119656796Y-85006413D01*
X119503393Y-84636066D01*
X119280687Y-84302763D01*
X118997237Y-84019313D01*
X118663934Y-83796607D01*
X118293587Y-83643204D01*
X117900430Y-83565000D01*
X117499570Y-83565000D01*
X117106413Y-83643204D01*
X116736066Y-83796607D01*
X116402763Y-84019313D01*
X116119313Y-84302763D01*
X115896607Y-84636066D01*
X115743204Y-85006413D01*
X115665000Y-85399570D01*
X113060000Y-85399570D01*
X113060000Y-79200000D01*
X115661928Y-79200000D01*
X115661928Y-82000000D01*
X115674188Y-82124482D01*
X115710498Y-82244180D01*
X115769463Y-82354494D01*
X115848815Y-82451185D01*
X115945506Y-82530537D01*
X116055820Y-82589502D01*
X116175518Y-82625812D01*
X116300000Y-82638072D01*
X119100000Y-82638072D01*
X119224482Y-82625812D01*
X119344180Y-82589502D01*
X119454494Y-82530537D01*
X119551185Y-82451185D01*
X119594782Y-82398061D01*
X137665000Y-82398061D01*
X137665000Y-82601939D01*
X137704774Y-82801898D01*
X137782795Y-82990256D01*
X137872828Y-83125000D01*
X137782795Y-83259744D01*
X137704774Y-83448102D01*
X137665000Y-83648061D01*
X137665000Y-83851939D01*
X137704774Y-84051898D01*
X137782795Y-84240256D01*
X137896063Y-84409774D01*
X138040226Y-84553937D01*
X138209744Y-84667205D01*
X138398102Y-84745226D01*
X138598061Y-84785000D01*
X138801939Y-84785000D01*
X139001898Y-84745226D01*
X139190256Y-84667205D01*
X139359774Y-84553937D01*
X139503937Y-84409774D01*
X139617205Y-84240256D01*
X139695226Y-84051898D01*
X139735000Y-83851939D01*
X139735000Y-83834999D01*
X153314840Y-83834999D01*
X153694841Y-84215000D01*
X142030550Y-84215000D01*
X141991997Y-84211203D01*
X141953444Y-84215000D01*
X141953437Y-84215000D01*
X141852488Y-84224943D01*
X141838110Y-84226359D01*
X141803670Y-84236806D01*
X141690138Y-84271246D01*
X141553765Y-84344138D01*
X141493557Y-84393550D01*
X141464185Y-84417655D01*
X141464182Y-84417658D01*
X141434234Y-84442236D01*
X141409656Y-84472184D01*
X139868187Y-86013654D01*
X139838235Y-86038235D01*
X139813655Y-86068186D01*
X139813654Y-86068187D01*
X139803774Y-86080226D01*
X139740138Y-86157767D01*
X139667245Y-86294140D01*
X139622358Y-86442113D01*
X139607202Y-86595999D01*
X139615001Y-86675186D01*
X139615000Y-92824842D01*
X138624843Y-93815000D01*
X138598061Y-93815000D01*
X138398102Y-93854774D01*
X138209744Y-93932795D01*
X138040226Y-94046063D01*
X137896063Y-94190226D01*
X137782795Y-94359744D01*
X137704774Y-94548102D01*
X137665000Y-94748061D01*
X137665000Y-94951939D01*
X137704774Y-95151898D01*
X137782795Y-95340256D01*
X137889532Y-95500000D01*
X137782795Y-95659744D01*
X137704774Y-95848102D01*
X137665000Y-96048061D01*
X137665000Y-96251939D01*
X137704774Y-96451898D01*
X137782795Y-96640256D01*
X137896063Y-96809774D01*
X138040226Y-96953937D01*
X138209744Y-97067205D01*
X138398102Y-97145226D01*
X138598061Y-97185000D01*
X138801939Y-97185000D01*
X139001898Y-97145226D01*
X139190256Y-97067205D01*
X139359774Y-96953937D01*
X139503937Y-96809774D01*
X139617205Y-96640256D01*
X139695226Y-96451898D01*
X139735000Y-96251939D01*
X139735000Y-96225157D01*
X139762096Y-96198061D01*
X154365000Y-96198061D01*
X154365000Y-96401939D01*
X154404774Y-96601898D01*
X154482795Y-96790256D01*
X154556123Y-96900000D01*
X154482795Y-97009744D01*
X154404774Y-97198102D01*
X154365000Y-97398061D01*
X154365000Y-97601939D01*
X154404774Y-97801898D01*
X154482795Y-97990256D01*
X154556123Y-98100000D01*
X154482795Y-98209744D01*
X154404774Y-98398102D01*
X154365000Y-98598061D01*
X154365000Y-98801939D01*
X154404774Y-99001898D01*
X154482795Y-99190256D01*
X154596063Y-99359774D01*
X154740226Y-99503937D01*
X154909744Y-99617205D01*
X155098102Y-99695226D01*
X155298061Y-99735000D01*
X155501939Y-99735000D01*
X155701898Y-99695226D01*
X155890256Y-99617205D01*
X156059774Y-99503937D01*
X156203937Y-99359774D01*
X156317205Y-99190256D01*
X156395226Y-99001898D01*
X156435000Y-98801939D01*
X156435000Y-98598061D01*
X156395226Y-98398102D01*
X156317205Y-98209744D01*
X156243877Y-98100000D01*
X156317205Y-97990256D01*
X156395226Y-97801898D01*
X156435000Y-97601939D01*
X156435000Y-97398061D01*
X156395226Y-97198102D01*
X156317205Y-97009744D01*
X156243877Y-96900000D01*
X156317205Y-96790256D01*
X156395226Y-96601898D01*
X156435000Y-96401939D01*
X156435000Y-96198061D01*
X156395226Y-95998102D01*
X156317205Y-95809744D01*
X156203937Y-95640226D01*
X156059774Y-95496063D01*
X155890256Y-95382795D01*
X155701898Y-95304774D01*
X155501939Y-95265000D01*
X155298061Y-95265000D01*
X155098102Y-95304774D01*
X154909744Y-95382795D01*
X154740226Y-95496063D01*
X154596063Y-95640226D01*
X154482795Y-95809744D01*
X154404774Y-95998102D01*
X154365000Y-96198061D01*
X139762096Y-96198061D01*
X141502811Y-94457346D01*
X141532764Y-94432764D01*
X141630862Y-94313233D01*
X141703754Y-94176860D01*
X141721514Y-94118314D01*
X141748642Y-94028887D01*
X141757514Y-93938798D01*
X141760000Y-93913561D01*
X141760000Y-93913556D01*
X141763797Y-93875000D01*
X141760000Y-93836444D01*
X141760000Y-89500157D01*
X143262096Y-87998061D01*
X148165000Y-87998061D01*
X148165000Y-88201939D01*
X148204774Y-88401898D01*
X148282795Y-88590256D01*
X148396063Y-88759774D01*
X148415000Y-88778711D01*
X148415001Y-93361437D01*
X148411203Y-93400000D01*
X148426359Y-93553886D01*
X148471246Y-93701859D01*
X148505177Y-93765340D01*
X148544139Y-93838233D01*
X148577394Y-93878754D01*
X148617655Y-93927812D01*
X148617659Y-93927816D01*
X148642237Y-93957764D01*
X148672185Y-93982342D01*
X148865000Y-94175157D01*
X148865000Y-94201939D01*
X148904774Y-94401898D01*
X148982795Y-94590256D01*
X149096063Y-94759774D01*
X149240226Y-94903937D01*
X149409744Y-95017205D01*
X149598102Y-95095226D01*
X149798061Y-95135000D01*
X150001939Y-95135000D01*
X150201898Y-95095226D01*
X150390256Y-95017205D01*
X150559774Y-94903937D01*
X150703937Y-94759774D01*
X150817205Y-94590256D01*
X150895226Y-94401898D01*
X150935000Y-94201939D01*
X150935000Y-93998061D01*
X150895226Y-93798102D01*
X150817205Y-93609744D01*
X150703937Y-93440226D01*
X150559774Y-93296063D01*
X150390256Y-93182795D01*
X150201898Y-93104774D01*
X150001939Y-93065000D01*
X149985000Y-93065000D01*
X149985000Y-88778711D01*
X150003937Y-88759774D01*
X150117205Y-88590256D01*
X150195226Y-88401898D01*
X150235000Y-88201939D01*
X150235000Y-87998061D01*
X150195226Y-87798102D01*
X150117205Y-87609744D01*
X150003937Y-87440226D01*
X149859774Y-87296063D01*
X149690256Y-87182795D01*
X149501898Y-87104774D01*
X149301939Y-87065000D01*
X149098061Y-87065000D01*
X148898102Y-87104774D01*
X148709744Y-87182795D01*
X148540226Y-87296063D01*
X148396063Y-87440226D01*
X148282795Y-87609744D01*
X148204774Y-87798102D01*
X148165000Y-87998061D01*
X143262096Y-87998061D01*
X144975147Y-86285010D01*
X153274853Y-86285010D01*
X155667657Y-88677815D01*
X155692235Y-88707763D01*
X155722183Y-88732341D01*
X155722186Y-88732344D01*
X155727577Y-88736768D01*
X155811766Y-88805861D01*
X155948139Y-88878753D01*
X156061671Y-88913193D01*
X156096111Y-88923640D01*
X156110489Y-88925056D01*
X156211438Y-88934999D01*
X156211445Y-88934999D01*
X156249998Y-88938796D01*
X156288551Y-88934999D01*
X157071288Y-88934999D01*
X157140226Y-89003937D01*
X157309744Y-89117205D01*
X157498102Y-89195226D01*
X157698061Y-89235000D01*
X157901939Y-89235000D01*
X158101898Y-89195226D01*
X158290256Y-89117205D01*
X158459774Y-89003937D01*
X158603937Y-88859774D01*
X158717205Y-88690256D01*
X158795226Y-88501898D01*
X158835000Y-88301939D01*
X158835000Y-88098061D01*
X158795226Y-87898102D01*
X158717205Y-87709744D01*
X158603937Y-87540226D01*
X158459774Y-87396063D01*
X158390836Y-87350000D01*
X158459774Y-87303937D01*
X158603937Y-87159774D01*
X158717205Y-86990256D01*
X158795226Y-86801898D01*
X158835000Y-86601939D01*
X158835000Y-86398061D01*
X158795226Y-86198102D01*
X158717205Y-86009744D01*
X158603937Y-85840226D01*
X158459774Y-85696063D01*
X158290256Y-85582795D01*
X158101898Y-85504774D01*
X157901939Y-85465000D01*
X157698061Y-85465000D01*
X157498102Y-85504774D01*
X157309744Y-85582795D01*
X157293683Y-85593527D01*
X157276952Y-85576797D01*
X157393975Y-85459774D01*
X157507243Y-85290256D01*
X157585264Y-85101898D01*
X157625038Y-84901939D01*
X157625038Y-84698061D01*
X157585264Y-84498102D01*
X157507243Y-84309744D01*
X157393975Y-84140226D01*
X157249812Y-83996063D01*
X157080294Y-83882795D01*
X156891936Y-83804774D01*
X156691977Y-83765000D01*
X156665196Y-83765000D01*
X154872385Y-81972190D01*
X154847802Y-81942236D01*
X154838985Y-81935000D01*
X155001939Y-81935000D01*
X155201898Y-81895226D01*
X155390256Y-81817205D01*
X155559774Y-81703937D01*
X155703937Y-81559774D01*
X155817205Y-81390256D01*
X155895226Y-81201898D01*
X155924093Y-81056774D01*
X156526505Y-80454362D01*
X156582795Y-80590256D01*
X156696063Y-80759774D01*
X156715000Y-80778711D01*
X156715001Y-81527122D01*
X156711203Y-81565684D01*
X156726359Y-81719570D01*
X156771246Y-81867543D01*
X156800356Y-81922004D01*
X156844139Y-82003917D01*
X156884690Y-82053328D01*
X156917655Y-82093496D01*
X156917659Y-82093500D01*
X156942237Y-82123448D01*
X156972185Y-82148026D01*
X157034813Y-82210654D01*
X165268474Y-90444317D01*
X165204774Y-90598102D01*
X165165000Y-90798061D01*
X165165000Y-91001939D01*
X165204774Y-91201898D01*
X165279814Y-91383060D01*
X165159744Y-91432795D01*
X164990226Y-91546063D01*
X164846063Y-91690226D01*
X164732795Y-91859744D01*
X164654774Y-92048102D01*
X164615000Y-92248061D01*
X164615000Y-92451939D01*
X164654774Y-92651898D01*
X164732795Y-92840256D01*
X164846063Y-93009774D01*
X164990226Y-93153937D01*
X165159744Y-93267205D01*
X165348102Y-93345226D01*
X165548061Y-93385000D01*
X165604845Y-93385000D01*
X164422191Y-94567654D01*
X164392237Y-94592237D01*
X164294139Y-94711769D01*
X164221247Y-94848142D01*
X164199529Y-94919736D01*
X164195226Y-94898102D01*
X164117205Y-94709744D01*
X164003937Y-94540226D01*
X163859774Y-94396063D01*
X163690256Y-94282795D01*
X163501898Y-94204774D01*
X163301939Y-94165000D01*
X163098061Y-94165000D01*
X162898102Y-94204774D01*
X162709744Y-94282795D01*
X162540226Y-94396063D01*
X162396063Y-94540226D01*
X162282795Y-94709744D01*
X162204774Y-94898102D01*
X162165000Y-95098061D01*
X162165000Y-95301939D01*
X162204774Y-95501898D01*
X162282795Y-95690256D01*
X162396063Y-95859774D01*
X162540226Y-96003937D01*
X162709744Y-96117205D01*
X162898102Y-96195226D01*
X163098061Y-96235000D01*
X163301939Y-96235000D01*
X163501898Y-96195226D01*
X163690256Y-96117205D01*
X163859774Y-96003937D01*
X164003937Y-95859774D01*
X164117205Y-95690256D01*
X164165001Y-95574867D01*
X164165002Y-97824840D01*
X159774843Y-102215000D01*
X149682553Y-102215000D01*
X149643998Y-102211203D01*
X149605442Y-102215000D01*
X149605437Y-102215000D01*
X149565024Y-102218980D01*
X149490111Y-102226358D01*
X149342138Y-102271246D01*
X149205765Y-102344138D01*
X149145557Y-102393550D01*
X149116185Y-102417655D01*
X149116182Y-102417658D01*
X149086234Y-102442236D01*
X149061656Y-102472184D01*
X146763118Y-104770723D01*
X146603411Y-104664010D01*
X146333158Y-104552068D01*
X146046260Y-104495000D01*
X145753740Y-104495000D01*
X145466842Y-104552068D01*
X145196589Y-104664010D01*
X144953368Y-104826525D01*
X144746525Y-105033368D01*
X144584010Y-105276589D01*
X144472068Y-105546842D01*
X144415000Y-105833740D01*
X144415000Y-106126260D01*
X144472068Y-106413158D01*
X144584010Y-106683411D01*
X144746525Y-106926632D01*
X144953368Y-107133475D01*
X145127760Y-107250000D01*
X144953368Y-107366525D01*
X144746525Y-107573368D01*
X144584010Y-107816589D01*
X144472068Y-108086842D01*
X144415000Y-108373740D01*
X144415000Y-108666260D01*
X144472068Y-108953158D01*
X144584010Y-109223411D01*
X144746525Y-109466632D01*
X144953368Y-109673475D01*
X145127760Y-109790000D01*
X144953368Y-109906525D01*
X144746525Y-110113368D01*
X144584010Y-110356589D01*
X144472068Y-110626842D01*
X144415000Y-110913740D01*
X144415000Y-111206260D01*
X144472068Y-111493158D01*
X144584010Y-111763411D01*
X144746525Y-112006632D01*
X144953368Y-112213475D01*
X145196589Y-112375990D01*
X145466842Y-112487932D01*
X145753740Y-112545000D01*
X146046260Y-112545000D01*
X146333158Y-112487932D01*
X146603411Y-112375990D01*
X146846632Y-112213475D01*
X147053475Y-112006632D01*
X147170000Y-111832240D01*
X147286525Y-112006632D01*
X147493368Y-112213475D01*
X147736589Y-112375990D01*
X148006842Y-112487932D01*
X148293740Y-112545000D01*
X148586260Y-112545000D01*
X148873158Y-112487932D01*
X149143411Y-112375990D01*
X149386632Y-112213475D01*
X149593475Y-112006632D01*
X149710000Y-111832240D01*
X149826525Y-112006632D01*
X150033368Y-112213475D01*
X150276589Y-112375990D01*
X150546842Y-112487932D01*
X150833740Y-112545000D01*
X151126260Y-112545000D01*
X151413158Y-112487932D01*
X151683411Y-112375990D01*
X151926632Y-112213475D01*
X152133475Y-112006632D01*
X152250000Y-111832240D01*
X152366525Y-112006632D01*
X152573368Y-112213475D01*
X152816589Y-112375990D01*
X153086842Y-112487932D01*
X153373740Y-112545000D01*
X153666260Y-112545000D01*
X153953158Y-112487932D01*
X154223411Y-112375990D01*
X154466632Y-112213475D01*
X154673475Y-112006632D01*
X154835990Y-111763411D01*
X154947932Y-111493158D01*
X155005000Y-111206260D01*
X155005000Y-110988212D01*
X157265000Y-110988212D01*
X157265000Y-111211788D01*
X157308617Y-111431067D01*
X157394176Y-111637624D01*
X157518388Y-111823520D01*
X157676480Y-111981612D01*
X157862376Y-112105824D01*
X158068933Y-112191383D01*
X158288212Y-112235000D01*
X158511788Y-112235000D01*
X158731067Y-112191383D01*
X158937624Y-112105824D01*
X159123520Y-111981612D01*
X159281612Y-111823520D01*
X159405824Y-111637624D01*
X159491383Y-111431067D01*
X159535000Y-111211788D01*
X159535000Y-110988212D01*
X159491383Y-110768933D01*
X159405824Y-110562376D01*
X159281612Y-110376480D01*
X159123520Y-110218388D01*
X158937624Y-110094176D01*
X158731067Y-110008617D01*
X158511788Y-109965000D01*
X158288212Y-109965000D01*
X158068933Y-110008617D01*
X157862376Y-110094176D01*
X157676480Y-110218388D01*
X157518388Y-110376480D01*
X157394176Y-110562376D01*
X157308617Y-110768933D01*
X157265000Y-110988212D01*
X155005000Y-110988212D01*
X155005000Y-110913740D01*
X154947932Y-110626842D01*
X154835990Y-110356589D01*
X154673475Y-110113368D01*
X154466632Y-109906525D01*
X154292240Y-109790000D01*
X154466632Y-109673475D01*
X154542046Y-109598061D01*
X179565000Y-109598061D01*
X179565000Y-109801939D01*
X179604774Y-110001898D01*
X179682795Y-110190256D01*
X179796063Y-110359774D01*
X179940226Y-110503937D01*
X180109744Y-110617205D01*
X180298102Y-110695226D01*
X180498061Y-110735000D01*
X180701939Y-110735000D01*
X180901898Y-110695226D01*
X181090256Y-110617205D01*
X181259774Y-110503937D01*
X181275499Y-110488212D01*
X186265000Y-110488212D01*
X186265000Y-110711788D01*
X186308617Y-110931067D01*
X186394176Y-111137624D01*
X186518388Y-111323520D01*
X186676480Y-111481612D01*
X186862376Y-111605824D01*
X187068933Y-111691383D01*
X187288212Y-111735000D01*
X187511788Y-111735000D01*
X187731067Y-111691383D01*
X187937624Y-111605824D01*
X188123520Y-111481612D01*
X188281612Y-111323520D01*
X188405824Y-111137624D01*
X188491383Y-110931067D01*
X188535000Y-110711788D01*
X188535000Y-110488212D01*
X188491383Y-110268933D01*
X188405824Y-110062376D01*
X188281612Y-109876480D01*
X188123520Y-109718388D01*
X187937624Y-109594176D01*
X187731067Y-109508617D01*
X187511788Y-109465000D01*
X187288212Y-109465000D01*
X187068933Y-109508617D01*
X186862376Y-109594176D01*
X186676480Y-109718388D01*
X186518388Y-109876480D01*
X186394176Y-110062376D01*
X186308617Y-110268933D01*
X186265000Y-110488212D01*
X181275499Y-110488212D01*
X181403937Y-110359774D01*
X181517205Y-110190256D01*
X181595226Y-110001898D01*
X181635000Y-109801939D01*
X181635000Y-109598061D01*
X181595226Y-109398102D01*
X181517205Y-109209744D01*
X181403937Y-109040226D01*
X181259774Y-108896063D01*
X181090256Y-108782795D01*
X180901898Y-108704774D01*
X180701939Y-108665000D01*
X180498061Y-108665000D01*
X180298102Y-108704774D01*
X180109744Y-108782795D01*
X179940226Y-108896063D01*
X179796063Y-109040226D01*
X179682795Y-109209744D01*
X179604774Y-109398102D01*
X179565000Y-109598061D01*
X154542046Y-109598061D01*
X154673475Y-109466632D01*
X154835990Y-109223411D01*
X154947932Y-108953158D01*
X155005000Y-108666260D01*
X155005000Y-108373740D01*
X154947932Y-108086842D01*
X154897464Y-107965001D01*
X156588566Y-107965001D01*
X156627119Y-107968798D01*
X156665672Y-107965001D01*
X156665680Y-107965001D01*
X156781006Y-107953642D01*
X156928979Y-107908755D01*
X157065352Y-107835863D01*
X157184883Y-107737765D01*
X157209466Y-107707811D01*
X158135905Y-106781373D01*
X158135910Y-106781367D01*
X165977827Y-98939451D01*
X166007775Y-98914873D01*
X166037419Y-98878753D01*
X166069037Y-98840226D01*
X166105873Y-98795342D01*
X166178765Y-98658969D01*
X166185503Y-98636758D01*
X166223652Y-98510997D01*
X166228697Y-98459774D01*
X166235011Y-98395670D01*
X166235011Y-98395663D01*
X166238808Y-98357110D01*
X166235011Y-98318557D01*
X166235011Y-95875146D01*
X166609356Y-95500801D01*
X166590010Y-95598061D01*
X166590010Y-95801939D01*
X166629784Y-96001898D01*
X166707805Y-96190256D01*
X166821073Y-96359774D01*
X166840010Y-96378711D01*
X166840011Y-99036427D01*
X166836213Y-99074990D01*
X166851369Y-99228876D01*
X166896256Y-99376849D01*
X166896257Y-99376850D01*
X166969149Y-99513223D01*
X167005712Y-99557774D01*
X167042665Y-99602802D01*
X167042669Y-99602806D01*
X167067247Y-99632754D01*
X167097195Y-99657332D01*
X169537672Y-102097809D01*
X169562255Y-102127763D01*
X169681786Y-102225861D01*
X169818159Y-102298753D01*
X169966132Y-102343641D01*
X170041045Y-102351019D01*
X170081458Y-102354999D01*
X170081463Y-102354999D01*
X170120019Y-102358796D01*
X170158575Y-102354999D01*
X174444842Y-102354999D01*
X174665000Y-102575157D01*
X174665000Y-102601939D01*
X174704774Y-102801898D01*
X174782795Y-102990256D01*
X174896063Y-103159774D01*
X175040226Y-103303937D01*
X175209744Y-103417205D01*
X175398102Y-103495226D01*
X175598061Y-103535000D01*
X175801939Y-103535000D01*
X176001898Y-103495226D01*
X176190256Y-103417205D01*
X176359774Y-103303937D01*
X176503937Y-103159774D01*
X176617205Y-102990256D01*
X176695226Y-102801898D01*
X176735000Y-102601939D01*
X176735000Y-102398061D01*
X176695226Y-102198102D01*
X176617205Y-102009744D01*
X176503937Y-101840226D01*
X176359774Y-101696063D01*
X176190256Y-101582795D01*
X176001898Y-101504774D01*
X175801939Y-101465000D01*
X175775157Y-101465000D01*
X175608218Y-101298061D01*
X177365000Y-101298061D01*
X177365000Y-101501939D01*
X177404774Y-101701898D01*
X177482795Y-101890256D01*
X177596063Y-102059774D01*
X177740226Y-102203937D01*
X177909744Y-102317205D01*
X178098102Y-102395226D01*
X178298061Y-102435000D01*
X178501939Y-102435000D01*
X178701898Y-102395226D01*
X178890256Y-102317205D01*
X179059774Y-102203937D01*
X179203937Y-102059774D01*
X179317205Y-101890256D01*
X179395226Y-101701898D01*
X179435000Y-101501939D01*
X179435000Y-101298061D01*
X179395226Y-101098102D01*
X179317205Y-100909744D01*
X179203937Y-100740226D01*
X179059774Y-100596063D01*
X178890256Y-100482795D01*
X178701898Y-100404774D01*
X178501939Y-100365000D01*
X178298061Y-100365000D01*
X178098102Y-100404774D01*
X177909744Y-100482795D01*
X177740226Y-100596063D01*
X177596063Y-100740226D01*
X177482795Y-100909744D01*
X177404774Y-101098102D01*
X177365000Y-101298061D01*
X175608218Y-101298061D01*
X175352344Y-101042187D01*
X175327763Y-101012235D01*
X175208232Y-100914137D01*
X175071859Y-100841245D01*
X174923886Y-100796358D01*
X174808560Y-100784999D01*
X174808552Y-100784999D01*
X174769999Y-100781202D01*
X174731446Y-100784999D01*
X170445176Y-100784999D01*
X170163117Y-100502940D01*
X170201898Y-100495226D01*
X170390256Y-100417205D01*
X170559774Y-100303937D01*
X170703937Y-100159774D01*
X170817205Y-99990256D01*
X170895226Y-99801898D01*
X170935000Y-99601939D01*
X170935000Y-99575157D01*
X171527815Y-98982342D01*
X171557764Y-98957764D01*
X171585770Y-98923640D01*
X171617545Y-98884922D01*
X171655862Y-98838233D01*
X171728754Y-98701860D01*
X171729879Y-98698150D01*
X171773642Y-98553887D01*
X171782396Y-98465000D01*
X171785000Y-98438561D01*
X171785000Y-98438556D01*
X171788797Y-98400000D01*
X171785000Y-98361445D01*
X171785000Y-95852279D01*
X173304122Y-97371402D01*
X173271939Y-97365000D01*
X173068061Y-97365000D01*
X172868102Y-97404774D01*
X172679744Y-97482795D01*
X172510226Y-97596063D01*
X172366063Y-97740226D01*
X172252795Y-97909744D01*
X172174774Y-98098102D01*
X172135000Y-98298061D01*
X172135000Y-98501939D01*
X172174774Y-98701898D01*
X172252795Y-98890256D01*
X172366063Y-99059774D01*
X172510226Y-99203937D01*
X172679744Y-99317205D01*
X172868102Y-99395226D01*
X173068061Y-99435000D01*
X173271939Y-99435000D01*
X173471898Y-99395226D01*
X173660256Y-99317205D01*
X173829774Y-99203937D01*
X173973937Y-99059774D01*
X174087205Y-98890256D01*
X174165226Y-98701898D01*
X174205000Y-98501939D01*
X174205000Y-98298061D01*
X174198598Y-98265878D01*
X175460546Y-99527826D01*
X175485124Y-99557774D01*
X175515072Y-99582352D01*
X175515075Y-99582355D01*
X175538938Y-99601939D01*
X175604655Y-99655872D01*
X175741028Y-99728764D01*
X175854560Y-99763204D01*
X175889000Y-99773651D01*
X175903378Y-99775067D01*
X176004327Y-99785010D01*
X176004334Y-99785010D01*
X176042887Y-99788807D01*
X176081440Y-99785010D01*
X182567733Y-99785010D01*
X184565000Y-101782278D01*
X184565000Y-102021289D01*
X184546063Y-102040226D01*
X184432795Y-102209744D01*
X184354774Y-102398102D01*
X184315000Y-102598061D01*
X184315000Y-102801939D01*
X184354774Y-103001898D01*
X184432795Y-103190256D01*
X184546063Y-103359774D01*
X184690226Y-103503937D01*
X184859744Y-103617205D01*
X185048102Y-103695226D01*
X185248061Y-103735000D01*
X185451939Y-103735000D01*
X185651898Y-103695226D01*
X185840256Y-103617205D01*
X186009774Y-103503937D01*
X186153937Y-103359774D01*
X186267205Y-103190256D01*
X186319973Y-103062864D01*
X186398102Y-103095226D01*
X186598061Y-103135000D01*
X186801939Y-103135000D01*
X187001898Y-103095226D01*
X187190256Y-103017205D01*
X187359774Y-102903937D01*
X187503937Y-102759774D01*
X187617205Y-102590256D01*
X187695226Y-102401898D01*
X187735000Y-102201939D01*
X187735000Y-101998061D01*
X187695226Y-101798102D01*
X187617205Y-101609744D01*
X187503937Y-101440226D01*
X187359774Y-101296063D01*
X187190256Y-101182795D01*
X187001898Y-101104774D01*
X186801939Y-101065000D01*
X186775157Y-101065000D01*
X183682347Y-97972190D01*
X183657764Y-97942236D01*
X183538233Y-97844138D01*
X183401860Y-97771246D01*
X183253887Y-97726359D01*
X183138561Y-97715000D01*
X183138553Y-97715000D01*
X183100000Y-97711203D01*
X183061447Y-97715000D01*
X178233854Y-97715000D01*
X178317205Y-97590256D01*
X178395226Y-97401898D01*
X178435000Y-97201939D01*
X178435000Y-96998061D01*
X178395226Y-96798102D01*
X178317205Y-96609744D01*
X178203937Y-96440226D01*
X178059774Y-96296063D01*
X177890256Y-96182795D01*
X177701898Y-96104774D01*
X177501939Y-96065000D01*
X177298061Y-96065000D01*
X177098102Y-96104774D01*
X176909744Y-96182795D01*
X176740226Y-96296063D01*
X176596063Y-96440226D01*
X176482795Y-96609744D01*
X176404774Y-96798102D01*
X176365000Y-96998061D01*
X176365000Y-97201939D01*
X176404774Y-97401898D01*
X176482795Y-97590256D01*
X176548003Y-97687847D01*
X173234999Y-94374844D01*
X173234999Y-94098061D01*
X174535000Y-94098061D01*
X174535000Y-94301939D01*
X174574774Y-94501898D01*
X174652795Y-94690256D01*
X174766063Y-94859774D01*
X174910226Y-95003937D01*
X175079744Y-95117205D01*
X175268102Y-95195226D01*
X175468061Y-95235000D01*
X175671939Y-95235000D01*
X175871898Y-95195226D01*
X176060256Y-95117205D01*
X176229774Y-95003937D01*
X176373937Y-94859774D01*
X176487205Y-94690256D01*
X176565226Y-94501898D01*
X176605000Y-94301939D01*
X176605000Y-94098061D01*
X176565226Y-93898102D01*
X176487205Y-93709744D01*
X176373937Y-93540226D01*
X176229774Y-93396063D01*
X176060256Y-93282795D01*
X175871898Y-93204774D01*
X175671939Y-93165000D01*
X175468061Y-93165000D01*
X175268102Y-93204774D01*
X175079744Y-93282795D01*
X174910226Y-93396063D01*
X174766063Y-93540226D01*
X174652795Y-93709744D01*
X174574774Y-93898102D01*
X174535000Y-94098061D01*
X173234999Y-94098061D01*
X173234999Y-89869088D01*
X173298102Y-89895226D01*
X173498061Y-89935000D01*
X173701939Y-89935000D01*
X173901898Y-89895226D01*
X174090256Y-89817205D01*
X174259774Y-89703937D01*
X174403937Y-89559774D01*
X174517205Y-89390256D01*
X174595226Y-89201898D01*
X174635000Y-89001939D01*
X174635000Y-88975157D01*
X175727811Y-87882346D01*
X175757764Y-87857764D01*
X175855862Y-87738233D01*
X175928754Y-87601860D01*
X175946841Y-87542236D01*
X175973642Y-87453887D01*
X175984256Y-87346114D01*
X175985000Y-87338561D01*
X175985000Y-87338556D01*
X175988797Y-87300000D01*
X175985000Y-87261444D01*
X175985000Y-85498061D01*
X185765000Y-85498061D01*
X185765000Y-85701939D01*
X185804774Y-85901898D01*
X185882795Y-86090256D01*
X185996063Y-86259774D01*
X186140226Y-86403937D01*
X186309744Y-86517205D01*
X186498102Y-86595226D01*
X186698061Y-86635000D01*
X186901939Y-86635000D01*
X187101898Y-86595226D01*
X187290256Y-86517205D01*
X187459774Y-86403937D01*
X187603937Y-86259774D01*
X187717205Y-86090256D01*
X187795226Y-85901898D01*
X187835000Y-85701939D01*
X187835000Y-85498061D01*
X187795226Y-85298102D01*
X187717205Y-85109744D01*
X187603937Y-84940226D01*
X187459774Y-84796063D01*
X187290256Y-84682795D01*
X187101898Y-84604774D01*
X186901939Y-84565000D01*
X186698061Y-84565000D01*
X186498102Y-84604774D01*
X186309744Y-84682795D01*
X186140226Y-84796063D01*
X185996063Y-84940226D01*
X185882795Y-85109744D01*
X185804774Y-85298102D01*
X185765000Y-85498061D01*
X175985000Y-85498061D01*
X175985000Y-84425157D01*
X176972096Y-83438061D01*
X178265000Y-83438061D01*
X178265000Y-83641939D01*
X178304774Y-83841898D01*
X178382795Y-84030256D01*
X178496063Y-84199774D01*
X178640226Y-84343937D01*
X178809744Y-84457205D01*
X178998102Y-84535226D01*
X179198061Y-84575000D01*
X179401939Y-84575000D01*
X179601898Y-84535226D01*
X179790256Y-84457205D01*
X179959774Y-84343937D01*
X180103937Y-84199774D01*
X180217205Y-84030256D01*
X180295226Y-83841898D01*
X180335000Y-83641939D01*
X180335000Y-83438061D01*
X180295226Y-83238102D01*
X180217205Y-83049744D01*
X180103937Y-82880226D01*
X179959774Y-82736063D01*
X179790256Y-82622795D01*
X179601898Y-82544774D01*
X179401939Y-82505000D01*
X179198061Y-82505000D01*
X178998102Y-82544774D01*
X178809744Y-82622795D01*
X178640226Y-82736063D01*
X178496063Y-82880226D01*
X178382795Y-83049744D01*
X178304774Y-83238102D01*
X178265000Y-83438061D01*
X176972096Y-83438061D01*
X177275158Y-83135000D01*
X177301939Y-83135000D01*
X177501898Y-83095226D01*
X177690256Y-83017205D01*
X177859774Y-82903937D01*
X178003937Y-82759774D01*
X178117205Y-82590256D01*
X178195226Y-82401898D01*
X178235000Y-82201939D01*
X178235000Y-81998061D01*
X178195226Y-81798102D01*
X178117205Y-81609744D01*
X178003937Y-81440226D01*
X177859774Y-81296063D01*
X177690256Y-81182795D01*
X177501898Y-81104774D01*
X177301939Y-81065000D01*
X177098061Y-81065000D01*
X176898102Y-81104774D01*
X176709744Y-81182795D01*
X176540226Y-81296063D01*
X176396063Y-81440226D01*
X176282795Y-81609744D01*
X176204774Y-81798102D01*
X176165000Y-81998061D01*
X176165000Y-82024842D01*
X174672185Y-83517658D01*
X174642237Y-83542236D01*
X174617659Y-83572184D01*
X174617655Y-83572188D01*
X174613040Y-83577812D01*
X174544139Y-83661767D01*
X174520571Y-83705861D01*
X174471246Y-83798141D01*
X174426359Y-83946114D01*
X174411203Y-84100000D01*
X174415001Y-84138563D01*
X174415000Y-86974843D01*
X173524843Y-87865000D01*
X173498061Y-87865000D01*
X173298102Y-87904774D01*
X173234999Y-87930912D01*
X173234999Y-87138551D01*
X173238796Y-87099998D01*
X173234999Y-87061445D01*
X173234999Y-87061438D01*
X173223640Y-86946112D01*
X173178753Y-86798139D01*
X173105861Y-86661766D01*
X173051252Y-86595226D01*
X173032344Y-86572186D01*
X173032341Y-86572183D01*
X173007763Y-86542235D01*
X172977815Y-86517657D01*
X172035000Y-85574843D01*
X172035000Y-85548061D01*
X171995226Y-85348102D01*
X171917205Y-85159744D01*
X171803937Y-84990226D01*
X171659774Y-84846063D01*
X171490256Y-84732795D01*
X171362864Y-84680027D01*
X171395226Y-84601898D01*
X171435000Y-84401939D01*
X171435000Y-84198061D01*
X171395226Y-83998102D01*
X171317205Y-83809744D01*
X171203937Y-83640226D01*
X171059774Y-83496063D01*
X170890256Y-83382795D01*
X170701898Y-83304774D01*
X170501939Y-83265000D01*
X170298061Y-83265000D01*
X170098102Y-83304774D01*
X169909744Y-83382795D01*
X169900000Y-83389306D01*
X169890256Y-83382795D01*
X169701898Y-83304774D01*
X169501939Y-83265000D01*
X169298061Y-83265000D01*
X169235010Y-83277542D01*
X169235010Y-81896507D01*
X171365000Y-79766517D01*
X171365000Y-79841939D01*
X171404774Y-80041898D01*
X171482795Y-80230256D01*
X171596063Y-80399774D01*
X171740226Y-80543937D01*
X171909744Y-80657205D01*
X172098102Y-80735226D01*
X172298061Y-80775000D01*
X172501939Y-80775000D01*
X172701898Y-80735226D01*
X172890256Y-80657205D01*
X173059774Y-80543937D01*
X173203937Y-80399774D01*
X173317205Y-80230256D01*
X173395226Y-80041898D01*
X173435000Y-79841939D01*
X173435000Y-79638061D01*
X173395226Y-79438102D01*
X173317205Y-79249744D01*
X173203937Y-79080226D01*
X173059774Y-78936063D01*
X172890256Y-78822795D01*
X172701898Y-78744774D01*
X172501939Y-78705000D01*
X172426518Y-78705000D01*
X174246518Y-76885000D01*
X176727132Y-76885000D01*
X176765685Y-76888797D01*
X176804238Y-76885000D01*
X176804246Y-76885000D01*
X176919572Y-76873641D01*
X177067545Y-76828754D01*
X177203918Y-76755862D01*
X177323449Y-76657764D01*
X177348032Y-76627810D01*
X177527810Y-76448032D01*
X177557764Y-76423449D01*
X177655862Y-76303918D01*
X177728754Y-76167545D01*
X177773641Y-76019572D01*
X177776864Y-75986847D01*
X177803937Y-75959774D01*
X177917205Y-75790256D01*
X177995226Y-75601898D01*
X178035000Y-75401939D01*
X178035000Y-75235010D01*
X182874853Y-75235010D01*
X183565000Y-75925157D01*
X183565000Y-75951939D01*
X183604774Y-76151898D01*
X183682795Y-76340256D01*
X183796063Y-76509774D01*
X183940226Y-76653937D01*
X184109744Y-76767205D01*
X184298102Y-76845226D01*
X184498061Y-76885000D01*
X184701939Y-76885000D01*
X184901898Y-76845226D01*
X185090256Y-76767205D01*
X185259774Y-76653937D01*
X185403937Y-76509774D01*
X185517205Y-76340256D01*
X185595226Y-76151898D01*
X185605369Y-76100901D01*
X191170000Y-76100901D01*
X191170000Y-76349099D01*
X191218421Y-76592529D01*
X191313402Y-76821834D01*
X191451294Y-77028203D01*
X191626797Y-77203706D01*
X191833166Y-77341598D01*
X192062471Y-77436579D01*
X192305901Y-77485000D01*
X192554099Y-77485000D01*
X192797529Y-77436579D01*
X192885838Y-77400000D01*
X193509267Y-77400000D01*
X193532147Y-77632300D01*
X193599906Y-77855674D01*
X193709942Y-78061536D01*
X193858025Y-78241975D01*
X194038464Y-78390058D01*
X194244326Y-78500094D01*
X194467700Y-78567853D01*
X194641793Y-78585000D01*
X195558207Y-78585000D01*
X195732300Y-78567853D01*
X195955674Y-78500094D01*
X196161536Y-78390058D01*
X196341975Y-78241975D01*
X196490058Y-78061536D01*
X196600094Y-77855674D01*
X196667853Y-77632300D01*
X196690733Y-77400000D01*
X196667853Y-77167700D01*
X196600094Y-76944326D01*
X196490058Y-76738464D01*
X196341975Y-76558025D01*
X196161536Y-76409942D01*
X195955674Y-76299906D01*
X195732300Y-76232147D01*
X195558207Y-76215000D01*
X194641793Y-76215000D01*
X194467700Y-76232147D01*
X194244326Y-76299906D01*
X194038464Y-76409942D01*
X193858025Y-76558025D01*
X193709942Y-76738464D01*
X193599906Y-76944326D01*
X193532147Y-77167700D01*
X193509267Y-77400000D01*
X192885838Y-77400000D01*
X193026834Y-77341598D01*
X193233203Y-77203706D01*
X193408706Y-77028203D01*
X193546598Y-76821834D01*
X193641579Y-76592529D01*
X193690000Y-76349099D01*
X193690000Y-76100901D01*
X193641579Y-75857471D01*
X193546598Y-75628166D01*
X193408706Y-75421797D01*
X193233203Y-75246294D01*
X193026834Y-75108402D01*
X192797529Y-75013421D01*
X192554099Y-74965000D01*
X192305901Y-74965000D01*
X192062471Y-75013421D01*
X191833166Y-75108402D01*
X191626797Y-75246294D01*
X191451294Y-75421797D01*
X191313402Y-75628166D01*
X191218421Y-75857471D01*
X191170000Y-76100901D01*
X185605369Y-76100901D01*
X185635000Y-75951939D01*
X185635000Y-75748061D01*
X185595226Y-75548102D01*
X185517205Y-75359744D01*
X185403937Y-75190226D01*
X185259774Y-75046063D01*
X185090256Y-74932795D01*
X185011082Y-74900000D01*
X185090256Y-74867205D01*
X185259774Y-74753937D01*
X185403937Y-74609774D01*
X185517205Y-74440256D01*
X185595226Y-74251898D01*
X185635000Y-74051939D01*
X185635000Y-73848061D01*
X185595226Y-73648102D01*
X185517205Y-73459744D01*
X185403937Y-73290226D01*
X185259774Y-73146063D01*
X185090256Y-73032795D01*
X184901898Y-72954774D01*
X184701939Y-72915000D01*
X184498061Y-72915000D01*
X184298102Y-72954774D01*
X184109744Y-73032795D01*
X183940226Y-73146063D01*
X183921289Y-73165000D01*
X180958711Y-73165000D01*
X181083937Y-73039774D01*
X181197205Y-72870256D01*
X181275226Y-72681898D01*
X181315000Y-72481939D01*
X181315000Y-72278061D01*
X181275226Y-72078102D01*
X181197205Y-71889744D01*
X181083937Y-71720226D01*
X181065000Y-71701289D01*
X181065000Y-71250901D01*
X191170000Y-71250901D01*
X191170000Y-71499099D01*
X191218421Y-71742529D01*
X191313402Y-71971834D01*
X191451294Y-72178203D01*
X191626797Y-72353706D01*
X191833166Y-72491598D01*
X192062471Y-72586579D01*
X192305901Y-72635000D01*
X192554099Y-72635000D01*
X192797529Y-72586579D01*
X193026834Y-72491598D01*
X193233203Y-72353706D01*
X193408706Y-72178203D01*
X193546598Y-71971834D01*
X193641579Y-71742529D01*
X193690000Y-71499099D01*
X193690000Y-71250901D01*
X193641579Y-71007471D01*
X193546598Y-70778166D01*
X193408706Y-70571797D01*
X193233203Y-70396294D01*
X193026834Y-70258402D01*
X192885839Y-70200000D01*
X193509267Y-70200000D01*
X193532147Y-70432300D01*
X193599906Y-70655674D01*
X193709942Y-70861536D01*
X193858025Y-71041975D01*
X194038464Y-71190058D01*
X194244326Y-71300094D01*
X194467700Y-71367853D01*
X194641793Y-71385000D01*
X195558207Y-71385000D01*
X195732300Y-71367853D01*
X195955674Y-71300094D01*
X196161536Y-71190058D01*
X196341975Y-71041975D01*
X196490058Y-70861536D01*
X196600094Y-70655674D01*
X196667853Y-70432300D01*
X196690733Y-70200000D01*
X196667853Y-69967700D01*
X196600094Y-69744326D01*
X196490058Y-69538464D01*
X196341975Y-69358025D01*
X196161536Y-69209942D01*
X195955674Y-69099906D01*
X195732300Y-69032147D01*
X195558207Y-69015000D01*
X194641793Y-69015000D01*
X194467700Y-69032147D01*
X194244326Y-69099906D01*
X194038464Y-69209942D01*
X193858025Y-69358025D01*
X193709942Y-69538464D01*
X193599906Y-69744326D01*
X193532147Y-69967700D01*
X193509267Y-70200000D01*
X192885839Y-70200000D01*
X192797529Y-70163421D01*
X192554099Y-70115000D01*
X192305901Y-70115000D01*
X192062471Y-70163421D01*
X191833166Y-70258402D01*
X191626797Y-70396294D01*
X191451294Y-70571797D01*
X191313402Y-70778166D01*
X191218421Y-71007471D01*
X191170000Y-71250901D01*
X181065000Y-71250901D01*
X181065000Y-65658711D01*
X181083937Y-65639774D01*
X181197205Y-65470256D01*
X181275226Y-65281898D01*
X181315000Y-65081939D01*
X181315000Y-64878061D01*
X181275226Y-64678102D01*
X181197205Y-64489744D01*
X181083937Y-64320226D01*
X180939774Y-64176063D01*
X180770256Y-64062795D01*
X180694871Y-64031569D01*
X180713158Y-64027932D01*
X180983411Y-63915990D01*
X181226632Y-63753475D01*
X181433475Y-63546632D01*
X181550000Y-63372240D01*
X181666525Y-63546632D01*
X181873368Y-63753475D01*
X182116589Y-63915990D01*
X182386842Y-64027932D01*
X182673740Y-64085000D01*
X182966260Y-64085000D01*
X183253158Y-64027932D01*
X183523411Y-63915990D01*
X183766632Y-63753475D01*
X183973475Y-63546632D01*
X184090000Y-63372240D01*
X184206525Y-63546632D01*
X184413368Y-63753475D01*
X184656589Y-63915990D01*
X184926842Y-64027932D01*
X185213740Y-64085000D01*
X185506260Y-64085000D01*
X185793158Y-64027932D01*
X186063411Y-63915990D01*
X186306632Y-63753475D01*
X186513475Y-63546632D01*
X186675990Y-63303411D01*
X186787932Y-63033158D01*
X186845000Y-62746260D01*
X186845000Y-62453740D01*
X186787932Y-62166842D01*
X186675990Y-61896589D01*
X186513475Y-61653368D01*
X186306632Y-61446525D01*
X186063411Y-61284010D01*
X185793158Y-61172068D01*
X185506260Y-61115000D01*
X185213740Y-61115000D01*
X184926842Y-61172068D01*
X184656589Y-61284010D01*
X184413368Y-61446525D01*
X184206525Y-61653368D01*
X184090000Y-61827760D01*
X183973475Y-61653368D01*
X183766632Y-61446525D01*
X183523411Y-61284010D01*
X183253158Y-61172068D01*
X182966260Y-61115000D01*
X182673740Y-61115000D01*
X182386842Y-61172068D01*
X182116589Y-61284010D01*
X181873368Y-61446525D01*
X181666525Y-61653368D01*
X181550000Y-61827760D01*
X181433475Y-61653368D01*
X181226632Y-61446525D01*
X180983411Y-61284010D01*
X180713158Y-61172068D01*
X180426260Y-61115000D01*
X180133740Y-61115000D01*
X179846842Y-61172068D01*
X179576589Y-61284010D01*
X179333368Y-61446525D01*
X179126525Y-61653368D01*
X178964010Y-61896589D01*
X178852068Y-62166842D01*
X178795000Y-62453740D01*
X178795000Y-62746260D01*
X178852068Y-63033158D01*
X178964010Y-63303411D01*
X179126525Y-63546632D01*
X179333368Y-63753475D01*
X179576589Y-63915990D01*
X179846842Y-64027932D01*
X179865129Y-64031569D01*
X179789744Y-64062795D01*
X179620226Y-64176063D01*
X179476063Y-64320226D01*
X179362795Y-64489744D01*
X179284774Y-64678102D01*
X179245000Y-64878061D01*
X179245000Y-65081939D01*
X179284774Y-65281898D01*
X179362795Y-65470256D01*
X179476063Y-65639774D01*
X179495000Y-65658711D01*
X179495001Y-70576513D01*
X179403937Y-70440226D01*
X179259774Y-70296063D01*
X179090256Y-70182795D01*
X178901898Y-70104774D01*
X178701939Y-70065000D01*
X178498061Y-70065000D01*
X178298102Y-70104774D01*
X178109744Y-70182795D01*
X177986715Y-70265000D01*
X164741018Y-70265000D01*
X164700000Y-70260960D01*
X164658981Y-70265000D01*
X164536311Y-70277082D01*
X164378913Y-70324828D01*
X164233854Y-70402364D01*
X164106709Y-70506709D01*
X164080563Y-70538568D01*
X154743226Y-79875907D01*
X154598102Y-79904774D01*
X154409744Y-79982795D01*
X154240226Y-80096063D01*
X154096063Y-80240226D01*
X153982795Y-80409744D01*
X153904774Y-80598102D01*
X153865000Y-80798061D01*
X153865000Y-81001939D01*
X153904774Y-81201898D01*
X153982795Y-81390256D01*
X154096063Y-81559774D01*
X154240226Y-81703937D01*
X154256102Y-81714545D01*
X154251485Y-81715000D01*
X139378711Y-81715000D01*
X139359774Y-81696063D01*
X139190256Y-81582795D01*
X139001898Y-81504774D01*
X138801939Y-81465000D01*
X138598061Y-81465000D01*
X138398102Y-81504774D01*
X138209744Y-81582795D01*
X138040226Y-81696063D01*
X137896063Y-81840226D01*
X137782795Y-82009744D01*
X137704774Y-82198102D01*
X137665000Y-82398061D01*
X119594782Y-82398061D01*
X119630537Y-82354494D01*
X119689502Y-82244180D01*
X119725812Y-82124482D01*
X119738072Y-82000000D01*
X119738072Y-79200000D01*
X119725812Y-79075518D01*
X119689502Y-78955820D01*
X119630537Y-78845506D01*
X119551185Y-78748815D01*
X119491704Y-78700000D01*
X125961928Y-78700000D01*
X125961928Y-80300000D01*
X125974188Y-80424482D01*
X126010498Y-80544180D01*
X126069463Y-80654494D01*
X126148815Y-80751185D01*
X126245506Y-80830537D01*
X126355820Y-80889502D01*
X126475518Y-80925812D01*
X126600000Y-80938072D01*
X128200000Y-80938072D01*
X128324482Y-80925812D01*
X128444180Y-80889502D01*
X128554494Y-80830537D01*
X128651185Y-80751185D01*
X128730537Y-80654494D01*
X128789502Y-80544180D01*
X128825812Y-80424482D01*
X128838072Y-80300000D01*
X128838072Y-79598061D01*
X135765000Y-79598061D01*
X135765000Y-79801939D01*
X135804774Y-80001898D01*
X135882795Y-80190256D01*
X135996063Y-80359774D01*
X136140226Y-80503937D01*
X136309744Y-80617205D01*
X136498102Y-80695226D01*
X136698061Y-80735000D01*
X136901939Y-80735000D01*
X137101898Y-80695226D01*
X137290256Y-80617205D01*
X137459774Y-80503937D01*
X137603937Y-80359774D01*
X137717205Y-80190256D01*
X137795226Y-80001898D01*
X137835000Y-79801939D01*
X137835000Y-79598061D01*
X137795226Y-79398102D01*
X137717205Y-79209744D01*
X137603937Y-79040226D01*
X137459774Y-78896063D01*
X137290256Y-78782795D01*
X137101898Y-78704774D01*
X136901939Y-78665000D01*
X136698061Y-78665000D01*
X136498102Y-78704774D01*
X136309744Y-78782795D01*
X136140226Y-78896063D01*
X135996063Y-79040226D01*
X135882795Y-79209744D01*
X135804774Y-79398102D01*
X135765000Y-79598061D01*
X128838072Y-79598061D01*
X128838072Y-78700000D01*
X128825812Y-78575518D01*
X128789502Y-78455820D01*
X128730537Y-78345506D01*
X128651185Y-78248815D01*
X128554494Y-78169463D01*
X128444180Y-78110498D01*
X128324482Y-78074188D01*
X128200000Y-78061928D01*
X126600000Y-78061928D01*
X126475518Y-78074188D01*
X126355820Y-78110498D01*
X126245506Y-78169463D01*
X126148815Y-78248815D01*
X126069463Y-78345506D01*
X126010498Y-78455820D01*
X125974188Y-78575518D01*
X125961928Y-78700000D01*
X119491704Y-78700000D01*
X119454494Y-78669463D01*
X119344180Y-78610498D01*
X119224482Y-78574188D01*
X119100000Y-78561928D01*
X116300000Y-78561928D01*
X116175518Y-78574188D01*
X116055820Y-78610498D01*
X115945506Y-78669463D01*
X115848815Y-78748815D01*
X115769463Y-78845506D01*
X115710498Y-78955820D01*
X115674188Y-79075518D01*
X115661928Y-79200000D01*
X113060000Y-79200000D01*
X113060000Y-75399570D01*
X115665000Y-75399570D01*
X115665000Y-75800430D01*
X115743204Y-76193587D01*
X115896607Y-76563934D01*
X116119313Y-76897237D01*
X116402763Y-77180687D01*
X116736066Y-77403393D01*
X117106413Y-77556796D01*
X117499570Y-77635000D01*
X117900430Y-77635000D01*
X118293587Y-77556796D01*
X118663934Y-77403393D01*
X118997237Y-77180687D01*
X119280687Y-76897237D01*
X119503393Y-76563934D01*
X119656796Y-76193587D01*
X119735000Y-75800430D01*
X119735000Y-75399570D01*
X119656796Y-75006413D01*
X119503393Y-74636066D01*
X119280687Y-74302763D01*
X118997237Y-74019313D01*
X118663934Y-73796607D01*
X118293587Y-73643204D01*
X117900430Y-73565000D01*
X117499570Y-73565000D01*
X117106413Y-73643204D01*
X116736066Y-73796607D01*
X116402763Y-74019313D01*
X116119313Y-74302763D01*
X115896607Y-74636066D01*
X115743204Y-75006413D01*
X115665000Y-75399570D01*
X113060000Y-75399570D01*
X113060000Y-69200000D01*
X115661928Y-69200000D01*
X115661928Y-72000000D01*
X115674188Y-72124482D01*
X115710498Y-72244180D01*
X115769463Y-72354494D01*
X115848815Y-72451185D01*
X115945506Y-72530537D01*
X116055820Y-72589502D01*
X116175518Y-72625812D01*
X116300000Y-72638072D01*
X119100000Y-72638072D01*
X119224482Y-72625812D01*
X119344180Y-72589502D01*
X119454494Y-72530537D01*
X119551185Y-72451185D01*
X119630537Y-72354494D01*
X119689502Y-72244180D01*
X119725812Y-72124482D01*
X119738072Y-72000000D01*
X119738072Y-69998061D01*
X137665000Y-69998061D01*
X137665000Y-70201939D01*
X137704774Y-70401898D01*
X137782795Y-70590256D01*
X137889532Y-70750000D01*
X137782795Y-70909744D01*
X137704774Y-71098102D01*
X137665000Y-71298061D01*
X137665000Y-71501939D01*
X137704774Y-71701898D01*
X137782795Y-71890256D01*
X137896063Y-72059774D01*
X138040226Y-72203937D01*
X138209744Y-72317205D01*
X138398102Y-72395226D01*
X138598061Y-72435000D01*
X138801939Y-72435000D01*
X139001898Y-72395226D01*
X139190256Y-72317205D01*
X139359774Y-72203937D01*
X139378711Y-72185000D01*
X154621289Y-72185000D01*
X154640226Y-72203937D01*
X154809744Y-72317205D01*
X154998102Y-72395226D01*
X155198061Y-72435000D01*
X155401939Y-72435000D01*
X155601898Y-72395226D01*
X155790256Y-72317205D01*
X155959774Y-72203937D01*
X156103937Y-72059774D01*
X156217205Y-71890256D01*
X156295226Y-71701898D01*
X156335000Y-71501939D01*
X156335000Y-71298061D01*
X156295226Y-71098102D01*
X156217205Y-70909744D01*
X156110468Y-70750000D01*
X156217205Y-70590256D01*
X156295226Y-70401898D01*
X156335000Y-70201939D01*
X156335000Y-69998061D01*
X156295226Y-69798102D01*
X156217205Y-69609744D01*
X156103937Y-69440226D01*
X155959774Y-69296063D01*
X155790256Y-69182795D01*
X155601898Y-69104774D01*
X155401939Y-69065000D01*
X155198061Y-69065000D01*
X154998102Y-69104774D01*
X154809744Y-69182795D01*
X154640226Y-69296063D01*
X154621289Y-69315000D01*
X139378711Y-69315000D01*
X139359774Y-69296063D01*
X139190256Y-69182795D01*
X139001898Y-69104774D01*
X138801939Y-69065000D01*
X138598061Y-69065000D01*
X138398102Y-69104774D01*
X138209744Y-69182795D01*
X138040226Y-69296063D01*
X137896063Y-69440226D01*
X137782795Y-69609744D01*
X137704774Y-69798102D01*
X137665000Y-69998061D01*
X119738072Y-69998061D01*
X119738072Y-69200000D01*
X119725812Y-69075518D01*
X119689502Y-68955820D01*
X119630537Y-68845506D01*
X119551185Y-68748815D01*
X119454494Y-68669463D01*
X119344180Y-68610498D01*
X119224482Y-68574188D01*
X119100000Y-68561928D01*
X116300000Y-68561928D01*
X116175518Y-68574188D01*
X116055820Y-68610498D01*
X115945506Y-68669463D01*
X115848815Y-68748815D01*
X115769463Y-68845506D01*
X115710498Y-68955820D01*
X115674188Y-69075518D01*
X115661928Y-69200000D01*
X113060000Y-69200000D01*
X113060000Y-66300000D01*
X125961928Y-66300000D01*
X125961928Y-67900000D01*
X125974188Y-68024482D01*
X126010498Y-68144180D01*
X126069463Y-68254494D01*
X126148815Y-68351185D01*
X126245506Y-68430537D01*
X126355820Y-68489502D01*
X126475518Y-68525812D01*
X126600000Y-68538072D01*
X128200000Y-68538072D01*
X128324482Y-68525812D01*
X128444180Y-68489502D01*
X128554494Y-68430537D01*
X128651185Y-68351185D01*
X128730537Y-68254494D01*
X128789502Y-68144180D01*
X128825812Y-68024482D01*
X128838072Y-67900000D01*
X128838072Y-66998061D01*
X135765000Y-66998061D01*
X135765000Y-67201939D01*
X135804774Y-67401898D01*
X135882795Y-67590256D01*
X135996063Y-67759774D01*
X136140226Y-67903937D01*
X136309744Y-68017205D01*
X136498102Y-68095226D01*
X136698061Y-68135000D01*
X136901939Y-68135000D01*
X137101898Y-68095226D01*
X137290256Y-68017205D01*
X137459774Y-67903937D01*
X137603937Y-67759774D01*
X137717205Y-67590256D01*
X137795226Y-67401898D01*
X137835000Y-67201939D01*
X137835000Y-66998061D01*
X137795226Y-66798102D01*
X137717205Y-66609744D01*
X137603937Y-66440226D01*
X137459774Y-66296063D01*
X137290256Y-66182795D01*
X137101898Y-66104774D01*
X136901939Y-66065000D01*
X136698061Y-66065000D01*
X136498102Y-66104774D01*
X136309744Y-66182795D01*
X136140226Y-66296063D01*
X135996063Y-66440226D01*
X135882795Y-66609744D01*
X135804774Y-66798102D01*
X135765000Y-66998061D01*
X128838072Y-66998061D01*
X128838072Y-66300000D01*
X128825812Y-66175518D01*
X128789502Y-66055820D01*
X128730537Y-65945506D01*
X128651185Y-65848815D01*
X128554494Y-65769463D01*
X128444180Y-65710498D01*
X128324482Y-65674188D01*
X128200000Y-65661928D01*
X126600000Y-65661928D01*
X126475518Y-65674188D01*
X126355820Y-65710498D01*
X126245506Y-65769463D01*
X126148815Y-65848815D01*
X126069463Y-65945506D01*
X126010498Y-66055820D01*
X125974188Y-66175518D01*
X125961928Y-66300000D01*
X113060000Y-66300000D01*
X113060000Y-65199570D01*
X143865000Y-65199570D01*
X143865000Y-65600430D01*
X143943204Y-65993587D01*
X144096607Y-66363934D01*
X144319313Y-66697237D01*
X144602763Y-66980687D01*
X144936066Y-67203393D01*
X145306413Y-67356796D01*
X145699570Y-67435000D01*
X146100430Y-67435000D01*
X146493587Y-67356796D01*
X146863934Y-67203393D01*
X147197237Y-66980687D01*
X147480687Y-66697237D01*
X147703393Y-66363934D01*
X147856796Y-65993587D01*
X147935000Y-65600430D01*
X147935000Y-65199570D01*
X147894058Y-64993740D01*
X154215000Y-64993740D01*
X154215000Y-65286260D01*
X154272068Y-65573158D01*
X154384010Y-65843411D01*
X154546525Y-66086632D01*
X154753368Y-66293475D01*
X154996589Y-66455990D01*
X155266842Y-66567932D01*
X155553740Y-66625000D01*
X155846260Y-66625000D01*
X156133158Y-66567932D01*
X156403411Y-66455990D01*
X156646632Y-66293475D01*
X156853475Y-66086632D01*
X156970000Y-65912240D01*
X157086525Y-66086632D01*
X157293368Y-66293475D01*
X157536589Y-66455990D01*
X157806842Y-66567932D01*
X158093740Y-66625000D01*
X158386260Y-66625000D01*
X158673158Y-66567932D01*
X158943411Y-66455990D01*
X159186632Y-66293475D01*
X159393475Y-66086632D01*
X159510000Y-65912240D01*
X159626525Y-66086632D01*
X159833368Y-66293475D01*
X160076589Y-66455990D01*
X160346842Y-66567932D01*
X160633740Y-66625000D01*
X160926260Y-66625000D01*
X161213158Y-66567932D01*
X161483411Y-66455990D01*
X161726632Y-66293475D01*
X161933475Y-66086632D01*
X162050000Y-65912240D01*
X162166525Y-66086632D01*
X162373368Y-66293475D01*
X162616589Y-66455990D01*
X162886842Y-66567932D01*
X163173740Y-66625000D01*
X163466260Y-66625000D01*
X163753158Y-66567932D01*
X164023411Y-66455990D01*
X164266632Y-66293475D01*
X164473475Y-66086632D01*
X164590000Y-65912240D01*
X164706525Y-66086632D01*
X164913368Y-66293475D01*
X165156589Y-66455990D01*
X165426842Y-66567932D01*
X165713740Y-66625000D01*
X166006260Y-66625000D01*
X166293158Y-66567932D01*
X166563411Y-66455990D01*
X166806632Y-66293475D01*
X167013475Y-66086632D01*
X167130000Y-65912240D01*
X167246525Y-66086632D01*
X167453368Y-66293475D01*
X167696589Y-66455990D01*
X167966842Y-66567932D01*
X168253740Y-66625000D01*
X168546260Y-66625000D01*
X168833158Y-66567932D01*
X169103411Y-66455990D01*
X169346632Y-66293475D01*
X169553475Y-66086632D01*
X169715990Y-65843411D01*
X169827932Y-65573158D01*
X169885000Y-65286260D01*
X169885000Y-64993740D01*
X169827932Y-64706842D01*
X169715990Y-64436589D01*
X169553475Y-64193368D01*
X169346632Y-63986525D01*
X169103411Y-63824010D01*
X168833158Y-63712068D01*
X168546260Y-63655000D01*
X168253740Y-63655000D01*
X167966842Y-63712068D01*
X167696589Y-63824010D01*
X167453368Y-63986525D01*
X167246525Y-64193368D01*
X167130000Y-64367760D01*
X167013475Y-64193368D01*
X166806632Y-63986525D01*
X166632240Y-63870000D01*
X166806632Y-63753475D01*
X167013475Y-63546632D01*
X167175990Y-63303411D01*
X167287932Y-63033158D01*
X167345000Y-62746260D01*
X167345000Y-62453740D01*
X167287932Y-62166842D01*
X167175990Y-61896589D01*
X167013475Y-61653368D01*
X166806632Y-61446525D01*
X166563411Y-61284010D01*
X166293158Y-61172068D01*
X166006260Y-61115000D01*
X165713740Y-61115000D01*
X165426842Y-61172068D01*
X165156589Y-61284010D01*
X164913368Y-61446525D01*
X164706525Y-61653368D01*
X164590000Y-61827760D01*
X164473475Y-61653368D01*
X164266632Y-61446525D01*
X164023411Y-61284010D01*
X163753158Y-61172068D01*
X163466260Y-61115000D01*
X163173740Y-61115000D01*
X162886842Y-61172068D01*
X162616589Y-61284010D01*
X162373368Y-61446525D01*
X162166525Y-61653368D01*
X162050000Y-61827760D01*
X161933475Y-61653368D01*
X161726632Y-61446525D01*
X161483411Y-61284010D01*
X161213158Y-61172068D01*
X160926260Y-61115000D01*
X160633740Y-61115000D01*
X160346842Y-61172068D01*
X160076589Y-61284010D01*
X159833368Y-61446525D01*
X159626525Y-61653368D01*
X159510000Y-61827760D01*
X159393475Y-61653368D01*
X159186632Y-61446525D01*
X158943411Y-61284010D01*
X158673158Y-61172068D01*
X158386260Y-61115000D01*
X158093740Y-61115000D01*
X157806842Y-61172068D01*
X157536589Y-61284010D01*
X157293368Y-61446525D01*
X157086525Y-61653368D01*
X156924010Y-61896589D01*
X156812068Y-62166842D01*
X156755000Y-62453740D01*
X156755000Y-62746260D01*
X156812068Y-63033158D01*
X156924010Y-63303411D01*
X157086525Y-63546632D01*
X157293368Y-63753475D01*
X157467760Y-63870000D01*
X157293368Y-63986525D01*
X157086525Y-64193368D01*
X156970000Y-64367760D01*
X156853475Y-64193368D01*
X156646632Y-63986525D01*
X156403411Y-63824010D01*
X156133158Y-63712068D01*
X155846260Y-63655000D01*
X155553740Y-63655000D01*
X155266842Y-63712068D01*
X154996589Y-63824010D01*
X154753368Y-63986525D01*
X154546525Y-64193368D01*
X154384010Y-64436589D01*
X154272068Y-64706842D01*
X154215000Y-64993740D01*
X147894058Y-64993740D01*
X147856796Y-64806413D01*
X147703393Y-64436066D01*
X147480687Y-64102763D01*
X147197237Y-63819313D01*
X146863934Y-63596607D01*
X146493587Y-63443204D01*
X146100430Y-63365000D01*
X145699570Y-63365000D01*
X145306413Y-63443204D01*
X144936066Y-63596607D01*
X144602763Y-63819313D01*
X144319313Y-64102763D01*
X144096607Y-64436066D01*
X143943204Y-64806413D01*
X143865000Y-65199570D01*
X113060000Y-65199570D01*
X113060000Y-63132279D01*
X113107670Y-62646107D01*
X113239489Y-62209502D01*
X113453600Y-61806815D01*
X113741848Y-61453388D01*
X114093261Y-61162673D01*
X114494439Y-60945758D01*
X114930113Y-60810894D01*
X115414344Y-60760000D01*
X194367721Y-60760000D01*
X194853893Y-60807670D01*
%TA.AperFunction,Conductor*%
D28*
G36*
X194853893Y-60807670D02*
G01*
X195290498Y-60939489D01*
X195693185Y-61153600D01*
X196046612Y-61441848D01*
X196337327Y-61793261D01*
X196554242Y-62194439D01*
X196689106Y-62630113D01*
X196740001Y-63114353D01*
X196740000Y-113067721D01*
X196692330Y-113553894D01*
X196560512Y-113990497D01*
X196346399Y-114393186D01*
X196058150Y-114746613D01*
X195706739Y-115037327D01*
X195305564Y-115254240D01*
X194869886Y-115389106D01*
X194385664Y-115440000D01*
X115432279Y-115440000D01*
X114946106Y-115392330D01*
X114509503Y-115260512D01*
X114106814Y-115046399D01*
X113753387Y-114758150D01*
X113462673Y-114406739D01*
X113245760Y-114005564D01*
X113110894Y-113569886D01*
X113060000Y-113085664D01*
X113060000Y-112953740D01*
X164455000Y-112953740D01*
X164455000Y-113246260D01*
X164512068Y-113533158D01*
X164624010Y-113803411D01*
X164786525Y-114046632D01*
X164993368Y-114253475D01*
X165236589Y-114415990D01*
X165506842Y-114527932D01*
X165793740Y-114585000D01*
X166086260Y-114585000D01*
X166373158Y-114527932D01*
X166643411Y-114415990D01*
X166886632Y-114253475D01*
X167093475Y-114046632D01*
X167255990Y-113803411D01*
X167367932Y-113533158D01*
X167425000Y-113246260D01*
X167425000Y-112953740D01*
X167367932Y-112666842D01*
X167255990Y-112396589D01*
X167093475Y-112153368D01*
X166886632Y-111946525D01*
X166643411Y-111784010D01*
X166373158Y-111672068D01*
X166086260Y-111615000D01*
X165793740Y-111615000D01*
X165506842Y-111672068D01*
X165236589Y-111784010D01*
X164993368Y-111946525D01*
X164786525Y-112153368D01*
X164624010Y-112396589D01*
X164512068Y-112666842D01*
X164455000Y-112953740D01*
X113060000Y-112953740D01*
X113060000Y-105399570D01*
X115665000Y-105399570D01*
X115665000Y-105800430D01*
X115743204Y-106193587D01*
X115896607Y-106563934D01*
X116119313Y-106897237D01*
X116402763Y-107180687D01*
X116736066Y-107403393D01*
X117106413Y-107556796D01*
X117499570Y-107635000D01*
X117900430Y-107635000D01*
X118293587Y-107556796D01*
X118663934Y-107403393D01*
X118997237Y-107180687D01*
X119280687Y-106897237D01*
X119503393Y-106563934D01*
X119656796Y-106193587D01*
X119735000Y-105800430D01*
X119735000Y-105399570D01*
X119656796Y-105006413D01*
X119503393Y-104636066D01*
X119280687Y-104302763D01*
X118997237Y-104019313D01*
X118663934Y-103796607D01*
X118293587Y-103643204D01*
X117900430Y-103565000D01*
X117499570Y-103565000D01*
X117106413Y-103643204D01*
X116736066Y-103796607D01*
X116402763Y-104019313D01*
X116119313Y-104302763D01*
X115896607Y-104636066D01*
X115743204Y-105006413D01*
X115665000Y-105399570D01*
X113060000Y-105399570D01*
X113060000Y-103500000D01*
X125961928Y-103500000D01*
X125961928Y-105100000D01*
X125974188Y-105224482D01*
X126010498Y-105344180D01*
X126069463Y-105454494D01*
X126148815Y-105551185D01*
X126245506Y-105630537D01*
X126355820Y-105689502D01*
X126475518Y-105725812D01*
X126600000Y-105738072D01*
X128200000Y-105738072D01*
X128324482Y-105725812D01*
X128444180Y-105689502D01*
X128554494Y-105630537D01*
X128651185Y-105551185D01*
X128730537Y-105454494D01*
X128789502Y-105344180D01*
X128825812Y-105224482D01*
X128838072Y-105100000D01*
X128838072Y-104398061D01*
X135765000Y-104398061D01*
X135765000Y-104601939D01*
X135804774Y-104801898D01*
X135882795Y-104990256D01*
X135996063Y-105159774D01*
X136140226Y-105303937D01*
X136309744Y-105417205D01*
X136498102Y-105495226D01*
X136698061Y-105535000D01*
X136901939Y-105535000D01*
X137101898Y-105495226D01*
X137290256Y-105417205D01*
X137459774Y-105303937D01*
X137603937Y-105159774D01*
X137717205Y-104990256D01*
X137795226Y-104801898D01*
X137835000Y-104601939D01*
X137835000Y-104398061D01*
X137795226Y-104198102D01*
X137717205Y-104009744D01*
X137603937Y-103840226D01*
X137459774Y-103696063D01*
X137290256Y-103582795D01*
X137101898Y-103504774D01*
X136901939Y-103465000D01*
X136698061Y-103465000D01*
X136498102Y-103504774D01*
X136309744Y-103582795D01*
X136140226Y-103696063D01*
X135996063Y-103840226D01*
X135882795Y-104009744D01*
X135804774Y-104198102D01*
X135765000Y-104398061D01*
X128838072Y-104398061D01*
X128838072Y-103500000D01*
X128825812Y-103375518D01*
X128789502Y-103255820D01*
X128730537Y-103145506D01*
X128651185Y-103048815D01*
X128554494Y-102969463D01*
X128444180Y-102910498D01*
X128324482Y-102874188D01*
X128200000Y-102861928D01*
X126600000Y-102861928D01*
X126475518Y-102874188D01*
X126355820Y-102910498D01*
X126245506Y-102969463D01*
X126148815Y-103048815D01*
X126069463Y-103145506D01*
X126010498Y-103255820D01*
X125974188Y-103375518D01*
X125961928Y-103500000D01*
X113060000Y-103500000D01*
X113060000Y-99200000D01*
X115661928Y-99200000D01*
X115661928Y-102000000D01*
X115674188Y-102124482D01*
X115710498Y-102244180D01*
X115769463Y-102354494D01*
X115848815Y-102451185D01*
X115945506Y-102530537D01*
X116055820Y-102589502D01*
X116175518Y-102625812D01*
X116300000Y-102638072D01*
X119100000Y-102638072D01*
X119224482Y-102625812D01*
X119344180Y-102589502D01*
X119454494Y-102530537D01*
X119551185Y-102451185D01*
X119630537Y-102354494D01*
X119689502Y-102244180D01*
X119725812Y-102124482D01*
X119738072Y-102000000D01*
X119738072Y-99200000D01*
X119725812Y-99075518D01*
X119689502Y-98955820D01*
X119630537Y-98845506D01*
X119551185Y-98748815D01*
X119454494Y-98669463D01*
X119344180Y-98610498D01*
X119224482Y-98574188D01*
X119100000Y-98561928D01*
X116300000Y-98561928D01*
X116175518Y-98574188D01*
X116055820Y-98610498D01*
X115945506Y-98669463D01*
X115848815Y-98748815D01*
X115769463Y-98845506D01*
X115710498Y-98955820D01*
X115674188Y-99075518D01*
X115661928Y-99200000D01*
X113060000Y-99200000D01*
X113060000Y-95399570D01*
X115665000Y-95399570D01*
X115665000Y-95800430D01*
X115743204Y-96193587D01*
X115896607Y-96563934D01*
X116119313Y-96897237D01*
X116402763Y-97180687D01*
X116736066Y-97403393D01*
X117106413Y-97556796D01*
X117499570Y-97635000D01*
X117900430Y-97635000D01*
X118293587Y-97556796D01*
X118663934Y-97403393D01*
X118997237Y-97180687D01*
X119280687Y-96897237D01*
X119503393Y-96563934D01*
X119656796Y-96193587D01*
X119735000Y-95800430D01*
X119735000Y-95399570D01*
X119656796Y-95006413D01*
X119503393Y-94636066D01*
X119280687Y-94302763D01*
X118997237Y-94019313D01*
X118663934Y-93796607D01*
X118293587Y-93643204D01*
X117900430Y-93565000D01*
X117499570Y-93565000D01*
X117106413Y-93643204D01*
X116736066Y-93796607D01*
X116402763Y-94019313D01*
X116119313Y-94302763D01*
X115896607Y-94636066D01*
X115743204Y-95006413D01*
X115665000Y-95399570D01*
X113060000Y-95399570D01*
X113060000Y-89200000D01*
X115661928Y-89200000D01*
X115661928Y-92000000D01*
X115674188Y-92124482D01*
X115710498Y-92244180D01*
X115769463Y-92354494D01*
X115848815Y-92451185D01*
X115945506Y-92530537D01*
X116055820Y-92589502D01*
X116175518Y-92625812D01*
X116300000Y-92638072D01*
X119100000Y-92638072D01*
X119224482Y-92625812D01*
X119344180Y-92589502D01*
X119454494Y-92530537D01*
X119551185Y-92451185D01*
X119630537Y-92354494D01*
X119689502Y-92244180D01*
X119725812Y-92124482D01*
X119738072Y-92000000D01*
X119738072Y-91100000D01*
X125961928Y-91100000D01*
X125961928Y-92700000D01*
X125974188Y-92824482D01*
X126010498Y-92944180D01*
X126069463Y-93054494D01*
X126148815Y-93151185D01*
X126245506Y-93230537D01*
X126355820Y-93289502D01*
X126475518Y-93325812D01*
X126600000Y-93338072D01*
X128200000Y-93338072D01*
X128324482Y-93325812D01*
X128444180Y-93289502D01*
X128554494Y-93230537D01*
X128651185Y-93151185D01*
X128730537Y-93054494D01*
X128789502Y-92944180D01*
X128825812Y-92824482D01*
X128838072Y-92700000D01*
X128838072Y-91998061D01*
X135765000Y-91998061D01*
X135765000Y-92201939D01*
X135804774Y-92401898D01*
X135882795Y-92590256D01*
X135996063Y-92759774D01*
X136140226Y-92903937D01*
X136309744Y-93017205D01*
X136498102Y-93095226D01*
X136698061Y-93135000D01*
X136901939Y-93135000D01*
X137101898Y-93095226D01*
X137290256Y-93017205D01*
X137459774Y-92903937D01*
X137603937Y-92759774D01*
X137717205Y-92590256D01*
X137795226Y-92401898D01*
X137835000Y-92201939D01*
X137835000Y-91998061D01*
X137795226Y-91798102D01*
X137717205Y-91609744D01*
X137603937Y-91440226D01*
X137459774Y-91296063D01*
X137290256Y-91182795D01*
X137101898Y-91104774D01*
X136901939Y-91065000D01*
X136698061Y-91065000D01*
X136498102Y-91104774D01*
X136309744Y-91182795D01*
X136140226Y-91296063D01*
X135996063Y-91440226D01*
X135882795Y-91609744D01*
X135804774Y-91798102D01*
X135765000Y-91998061D01*
X128838072Y-91998061D01*
X128838072Y-91100000D01*
X128825812Y-90975518D01*
X128789502Y-90855820D01*
X128730537Y-90745506D01*
X128651185Y-90648815D01*
X128554494Y-90569463D01*
X128444180Y-90510498D01*
X128324482Y-90474188D01*
X128200000Y-90461928D01*
X126600000Y-90461928D01*
X126475518Y-90474188D01*
X126355820Y-90510498D01*
X126245506Y-90569463D01*
X126148815Y-90648815D01*
X126069463Y-90745506D01*
X126010498Y-90855820D01*
X125974188Y-90975518D01*
X125961928Y-91100000D01*
X119738072Y-91100000D01*
X119738072Y-89200000D01*
X119725812Y-89075518D01*
X119689502Y-88955820D01*
X119630537Y-88845506D01*
X119551185Y-88748815D01*
X119454494Y-88669463D01*
X119344180Y-88610498D01*
X119224482Y-88574188D01*
X119100000Y-88561928D01*
X116300000Y-88561928D01*
X116175518Y-88574188D01*
X116055820Y-88610498D01*
X115945506Y-88669463D01*
X115848815Y-88748815D01*
X115769463Y-88845506D01*
X115710498Y-88955820D01*
X115674188Y-89075518D01*
X115661928Y-89200000D01*
X113060000Y-89200000D01*
X113060000Y-85399570D01*
X115665000Y-85399570D01*
X115665000Y-85800430D01*
X115743204Y-86193587D01*
X115896607Y-86563934D01*
X116119313Y-86897237D01*
X116402763Y-87180687D01*
X116736066Y-87403393D01*
X117106413Y-87556796D01*
X117499570Y-87635000D01*
X117900430Y-87635000D01*
X118293587Y-87556796D01*
X118663934Y-87403393D01*
X118997237Y-87180687D01*
X119280687Y-86897237D01*
X119503393Y-86563934D01*
X119656796Y-86193587D01*
X119735000Y-85800430D01*
X119735000Y-85399570D01*
X119656796Y-85006413D01*
X119503393Y-84636066D01*
X119280687Y-84302763D01*
X118997237Y-84019313D01*
X118663934Y-83796607D01*
X118293587Y-83643204D01*
X117900430Y-83565000D01*
X117499570Y-83565000D01*
X117106413Y-83643204D01*
X116736066Y-83796607D01*
X116402763Y-84019313D01*
X116119313Y-84302763D01*
X115896607Y-84636066D01*
X115743204Y-85006413D01*
X115665000Y-85399570D01*
X113060000Y-85399570D01*
X113060000Y-79200000D01*
X115661928Y-79200000D01*
X115661928Y-82000000D01*
X115674188Y-82124482D01*
X115710498Y-82244180D01*
X115769463Y-82354494D01*
X115848815Y-82451185D01*
X115945506Y-82530537D01*
X116055820Y-82589502D01*
X116175518Y-82625812D01*
X116300000Y-82638072D01*
X119100000Y-82638072D01*
X119224482Y-82625812D01*
X119344180Y-82589502D01*
X119454494Y-82530537D01*
X119551185Y-82451185D01*
X119594782Y-82398061D01*
X137665000Y-82398061D01*
X137665000Y-82601939D01*
X137704774Y-82801898D01*
X137782795Y-82990256D01*
X137872828Y-83125000D01*
X137782795Y-83259744D01*
X137704774Y-83448102D01*
X137665000Y-83648061D01*
X137665000Y-83851939D01*
X137704774Y-84051898D01*
X137782795Y-84240256D01*
X137896063Y-84409774D01*
X138040226Y-84553937D01*
X138209744Y-84667205D01*
X138398102Y-84745226D01*
X138598061Y-84785000D01*
X138801939Y-84785000D01*
X139001898Y-84745226D01*
X139190256Y-84667205D01*
X139359774Y-84553937D01*
X139503937Y-84409774D01*
X139617205Y-84240256D01*
X139695226Y-84051898D01*
X139735000Y-83851939D01*
X139735000Y-83834999D01*
X153314840Y-83834999D01*
X153694841Y-84215000D01*
X142030550Y-84215000D01*
X141991997Y-84211203D01*
X141953444Y-84215000D01*
X141953437Y-84215000D01*
X141852488Y-84224943D01*
X141838110Y-84226359D01*
X141803670Y-84236806D01*
X141690138Y-84271246D01*
X141553765Y-84344138D01*
X141493557Y-84393550D01*
X141464185Y-84417655D01*
X141464182Y-84417658D01*
X141434234Y-84442236D01*
X141409656Y-84472184D01*
X139868187Y-86013654D01*
X139838235Y-86038235D01*
X139813655Y-86068186D01*
X139813654Y-86068187D01*
X139803774Y-86080226D01*
X139740138Y-86157767D01*
X139667245Y-86294140D01*
X139622358Y-86442113D01*
X139607202Y-86595999D01*
X139615001Y-86675186D01*
X139615000Y-92824842D01*
X138624843Y-93815000D01*
X138598061Y-93815000D01*
X138398102Y-93854774D01*
X138209744Y-93932795D01*
X138040226Y-94046063D01*
X137896063Y-94190226D01*
X137782795Y-94359744D01*
X137704774Y-94548102D01*
X137665000Y-94748061D01*
X137665000Y-94951939D01*
X137704774Y-95151898D01*
X137782795Y-95340256D01*
X137889532Y-95500000D01*
X137782795Y-95659744D01*
X137704774Y-95848102D01*
X137665000Y-96048061D01*
X137665000Y-96251939D01*
X137704774Y-96451898D01*
X137782795Y-96640256D01*
X137896063Y-96809774D01*
X138040226Y-96953937D01*
X138209744Y-97067205D01*
X138398102Y-97145226D01*
X138598061Y-97185000D01*
X138801939Y-97185000D01*
X139001898Y-97145226D01*
X139190256Y-97067205D01*
X139359774Y-96953937D01*
X139503937Y-96809774D01*
X139617205Y-96640256D01*
X139695226Y-96451898D01*
X139735000Y-96251939D01*
X139735000Y-96225157D01*
X139762096Y-96198061D01*
X154365000Y-96198061D01*
X154365000Y-96401939D01*
X154404774Y-96601898D01*
X154482795Y-96790256D01*
X154556123Y-96900000D01*
X154482795Y-97009744D01*
X154404774Y-97198102D01*
X154365000Y-97398061D01*
X154365000Y-97601939D01*
X154404774Y-97801898D01*
X154482795Y-97990256D01*
X154556123Y-98100000D01*
X154482795Y-98209744D01*
X154404774Y-98398102D01*
X154365000Y-98598061D01*
X154365000Y-98801939D01*
X154404774Y-99001898D01*
X154482795Y-99190256D01*
X154596063Y-99359774D01*
X154740226Y-99503937D01*
X154909744Y-99617205D01*
X155098102Y-99695226D01*
X155298061Y-99735000D01*
X155501939Y-99735000D01*
X155701898Y-99695226D01*
X155890256Y-99617205D01*
X156059774Y-99503937D01*
X156203937Y-99359774D01*
X156317205Y-99190256D01*
X156395226Y-99001898D01*
X156435000Y-98801939D01*
X156435000Y-98598061D01*
X156395226Y-98398102D01*
X156317205Y-98209744D01*
X156243877Y-98100000D01*
X156317205Y-97990256D01*
X156395226Y-97801898D01*
X156435000Y-97601939D01*
X156435000Y-97398061D01*
X156395226Y-97198102D01*
X156317205Y-97009744D01*
X156243877Y-96900000D01*
X156317205Y-96790256D01*
X156395226Y-96601898D01*
X156435000Y-96401939D01*
X156435000Y-96198061D01*
X156395226Y-95998102D01*
X156317205Y-95809744D01*
X156203937Y-95640226D01*
X156059774Y-95496063D01*
X155890256Y-95382795D01*
X155701898Y-95304774D01*
X155501939Y-95265000D01*
X155298061Y-95265000D01*
X155098102Y-95304774D01*
X154909744Y-95382795D01*
X154740226Y-95496063D01*
X154596063Y-95640226D01*
X154482795Y-95809744D01*
X154404774Y-95998102D01*
X154365000Y-96198061D01*
X139762096Y-96198061D01*
X141502811Y-94457346D01*
X141532764Y-94432764D01*
X141630862Y-94313233D01*
X141703754Y-94176860D01*
X141721514Y-94118314D01*
X141748642Y-94028887D01*
X141757514Y-93938798D01*
X141760000Y-93913561D01*
X141760000Y-93913556D01*
X141763797Y-93875000D01*
X141760000Y-93836444D01*
X141760000Y-89500157D01*
X143262096Y-87998061D01*
X148165000Y-87998061D01*
X148165000Y-88201939D01*
X148204774Y-88401898D01*
X148282795Y-88590256D01*
X148396063Y-88759774D01*
X148415000Y-88778711D01*
X148415001Y-93361437D01*
X148411203Y-93400000D01*
X148426359Y-93553886D01*
X148471246Y-93701859D01*
X148505177Y-93765340D01*
X148544139Y-93838233D01*
X148577394Y-93878754D01*
X148617655Y-93927812D01*
X148617659Y-93927816D01*
X148642237Y-93957764D01*
X148672185Y-93982342D01*
X148865000Y-94175157D01*
X148865000Y-94201939D01*
X148904774Y-94401898D01*
X148982795Y-94590256D01*
X149096063Y-94759774D01*
X149240226Y-94903937D01*
X149409744Y-95017205D01*
X149598102Y-95095226D01*
X149798061Y-95135000D01*
X150001939Y-95135000D01*
X150201898Y-95095226D01*
X150390256Y-95017205D01*
X150559774Y-94903937D01*
X150703937Y-94759774D01*
X150817205Y-94590256D01*
X150895226Y-94401898D01*
X150935000Y-94201939D01*
X150935000Y-93998061D01*
X150895226Y-93798102D01*
X150817205Y-93609744D01*
X150703937Y-93440226D01*
X150559774Y-93296063D01*
X150390256Y-93182795D01*
X150201898Y-93104774D01*
X150001939Y-93065000D01*
X149985000Y-93065000D01*
X149985000Y-88778711D01*
X150003937Y-88759774D01*
X150117205Y-88590256D01*
X150195226Y-88401898D01*
X150235000Y-88201939D01*
X150235000Y-87998061D01*
X150195226Y-87798102D01*
X150117205Y-87609744D01*
X150003937Y-87440226D01*
X149859774Y-87296063D01*
X149690256Y-87182795D01*
X149501898Y-87104774D01*
X149301939Y-87065000D01*
X149098061Y-87065000D01*
X148898102Y-87104774D01*
X148709744Y-87182795D01*
X148540226Y-87296063D01*
X148396063Y-87440226D01*
X148282795Y-87609744D01*
X148204774Y-87798102D01*
X148165000Y-87998061D01*
X143262096Y-87998061D01*
X144975147Y-86285010D01*
X153274853Y-86285010D01*
X155667657Y-88677815D01*
X155692235Y-88707763D01*
X155722183Y-88732341D01*
X155722186Y-88732344D01*
X155727577Y-88736768D01*
X155811766Y-88805861D01*
X155948139Y-88878753D01*
X156061671Y-88913193D01*
X156096111Y-88923640D01*
X156110489Y-88925056D01*
X156211438Y-88934999D01*
X156211445Y-88934999D01*
X156249998Y-88938796D01*
X156288551Y-88934999D01*
X157071288Y-88934999D01*
X157140226Y-89003937D01*
X157309744Y-89117205D01*
X157498102Y-89195226D01*
X157698061Y-89235000D01*
X157901939Y-89235000D01*
X158101898Y-89195226D01*
X158290256Y-89117205D01*
X158459774Y-89003937D01*
X158603937Y-88859774D01*
X158717205Y-88690256D01*
X158795226Y-88501898D01*
X158835000Y-88301939D01*
X158835000Y-88098061D01*
X158795226Y-87898102D01*
X158717205Y-87709744D01*
X158603937Y-87540226D01*
X158459774Y-87396063D01*
X158390836Y-87350000D01*
X158459774Y-87303937D01*
X158603937Y-87159774D01*
X158717205Y-86990256D01*
X158795226Y-86801898D01*
X158835000Y-86601939D01*
X158835000Y-86398061D01*
X158795226Y-86198102D01*
X158717205Y-86009744D01*
X158603937Y-85840226D01*
X158459774Y-85696063D01*
X158290256Y-85582795D01*
X158101898Y-85504774D01*
X157901939Y-85465000D01*
X157698061Y-85465000D01*
X157498102Y-85504774D01*
X157309744Y-85582795D01*
X157293683Y-85593527D01*
X157276952Y-85576797D01*
X157393975Y-85459774D01*
X157507243Y-85290256D01*
X157585264Y-85101898D01*
X157625038Y-84901939D01*
X157625038Y-84698061D01*
X157585264Y-84498102D01*
X157507243Y-84309744D01*
X157393975Y-84140226D01*
X157249812Y-83996063D01*
X157080294Y-83882795D01*
X156891936Y-83804774D01*
X156691977Y-83765000D01*
X156665196Y-83765000D01*
X154872385Y-81972190D01*
X154847802Y-81942236D01*
X154838985Y-81935000D01*
X155001939Y-81935000D01*
X155201898Y-81895226D01*
X155390256Y-81817205D01*
X155559774Y-81703937D01*
X155703937Y-81559774D01*
X155817205Y-81390256D01*
X155895226Y-81201898D01*
X155924093Y-81056774D01*
X156526505Y-80454362D01*
X156582795Y-80590256D01*
X156696063Y-80759774D01*
X156715000Y-80778711D01*
X156715001Y-81527122D01*
X156711203Y-81565684D01*
X156726359Y-81719570D01*
X156771246Y-81867543D01*
X156800356Y-81922004D01*
X156844139Y-82003917D01*
X156884690Y-82053328D01*
X156917655Y-82093496D01*
X156917659Y-82093500D01*
X156942237Y-82123448D01*
X156972185Y-82148026D01*
X157034813Y-82210654D01*
X165268474Y-90444317D01*
X165204774Y-90598102D01*
X165165000Y-90798061D01*
X165165000Y-91001939D01*
X165204774Y-91201898D01*
X165279814Y-91383060D01*
X165159744Y-91432795D01*
X164990226Y-91546063D01*
X164846063Y-91690226D01*
X164732795Y-91859744D01*
X164654774Y-92048102D01*
X164615000Y-92248061D01*
X164615000Y-92451939D01*
X164654774Y-92651898D01*
X164732795Y-92840256D01*
X164846063Y-93009774D01*
X164990226Y-93153937D01*
X165159744Y-93267205D01*
X165348102Y-93345226D01*
X165548061Y-93385000D01*
X165604845Y-93385000D01*
X164422191Y-94567654D01*
X164392237Y-94592237D01*
X164294139Y-94711769D01*
X164221247Y-94848142D01*
X164199529Y-94919736D01*
X164195226Y-94898102D01*
X164117205Y-94709744D01*
X164003937Y-94540226D01*
X163859774Y-94396063D01*
X163690256Y-94282795D01*
X163501898Y-94204774D01*
X163301939Y-94165000D01*
X163098061Y-94165000D01*
X162898102Y-94204774D01*
X162709744Y-94282795D01*
X162540226Y-94396063D01*
X162396063Y-94540226D01*
X162282795Y-94709744D01*
X162204774Y-94898102D01*
X162165000Y-95098061D01*
X162165000Y-95301939D01*
X162204774Y-95501898D01*
X162282795Y-95690256D01*
X162396063Y-95859774D01*
X162540226Y-96003937D01*
X162709744Y-96117205D01*
X162898102Y-96195226D01*
X163098061Y-96235000D01*
X163301939Y-96235000D01*
X163501898Y-96195226D01*
X163690256Y-96117205D01*
X163859774Y-96003937D01*
X164003937Y-95859774D01*
X164117205Y-95690256D01*
X164165001Y-95574867D01*
X164165002Y-97824840D01*
X159774843Y-102215000D01*
X149682553Y-102215000D01*
X149643998Y-102211203D01*
X149605442Y-102215000D01*
X149605437Y-102215000D01*
X149565024Y-102218980D01*
X149490111Y-102226358D01*
X149342138Y-102271246D01*
X149205765Y-102344138D01*
X149145557Y-102393550D01*
X149116185Y-102417655D01*
X149116182Y-102417658D01*
X149086234Y-102442236D01*
X149061656Y-102472184D01*
X146763118Y-104770723D01*
X146603411Y-104664010D01*
X146333158Y-104552068D01*
X146046260Y-104495000D01*
X145753740Y-104495000D01*
X145466842Y-104552068D01*
X145196589Y-104664010D01*
X144953368Y-104826525D01*
X144746525Y-105033368D01*
X144584010Y-105276589D01*
X144472068Y-105546842D01*
X144415000Y-105833740D01*
X144415000Y-106126260D01*
X144472068Y-106413158D01*
X144584010Y-106683411D01*
X144746525Y-106926632D01*
X144953368Y-107133475D01*
X145127760Y-107250000D01*
X144953368Y-107366525D01*
X144746525Y-107573368D01*
X144584010Y-107816589D01*
X144472068Y-108086842D01*
X144415000Y-108373740D01*
X144415000Y-108666260D01*
X144472068Y-108953158D01*
X144584010Y-109223411D01*
X144746525Y-109466632D01*
X144953368Y-109673475D01*
X145127760Y-109790000D01*
X144953368Y-109906525D01*
X144746525Y-110113368D01*
X144584010Y-110356589D01*
X144472068Y-110626842D01*
X144415000Y-110913740D01*
X144415000Y-111206260D01*
X144472068Y-111493158D01*
X144584010Y-111763411D01*
X144746525Y-112006632D01*
X144953368Y-112213475D01*
X145196589Y-112375990D01*
X145466842Y-112487932D01*
X145753740Y-112545000D01*
X146046260Y-112545000D01*
X146333158Y-112487932D01*
X146603411Y-112375990D01*
X146846632Y-112213475D01*
X147053475Y-112006632D01*
X147170000Y-111832240D01*
X147286525Y-112006632D01*
X147493368Y-112213475D01*
X147736589Y-112375990D01*
X148006842Y-112487932D01*
X148293740Y-112545000D01*
X148586260Y-112545000D01*
X148873158Y-112487932D01*
X149143411Y-112375990D01*
X149386632Y-112213475D01*
X149593475Y-112006632D01*
X149710000Y-111832240D01*
X149826525Y-112006632D01*
X150033368Y-112213475D01*
X150276589Y-112375990D01*
X150546842Y-112487932D01*
X150833740Y-112545000D01*
X151126260Y-112545000D01*
X151413158Y-112487932D01*
X151683411Y-112375990D01*
X151926632Y-112213475D01*
X152133475Y-112006632D01*
X152250000Y-111832240D01*
X152366525Y-112006632D01*
X152573368Y-112213475D01*
X152816589Y-112375990D01*
X153086842Y-112487932D01*
X153373740Y-112545000D01*
X153666260Y-112545000D01*
X153953158Y-112487932D01*
X154223411Y-112375990D01*
X154466632Y-112213475D01*
X154673475Y-112006632D01*
X154835990Y-111763411D01*
X154947932Y-111493158D01*
X155005000Y-111206260D01*
X155005000Y-110988212D01*
X157265000Y-110988212D01*
X157265000Y-111211788D01*
X157308617Y-111431067D01*
X157394176Y-111637624D01*
X157518388Y-111823520D01*
X157676480Y-111981612D01*
X157862376Y-112105824D01*
X158068933Y-112191383D01*
X158288212Y-112235000D01*
X158511788Y-112235000D01*
X158731067Y-112191383D01*
X158937624Y-112105824D01*
X159123520Y-111981612D01*
X159281612Y-111823520D01*
X159405824Y-111637624D01*
X159491383Y-111431067D01*
X159535000Y-111211788D01*
X159535000Y-110988212D01*
X159491383Y-110768933D01*
X159405824Y-110562376D01*
X159281612Y-110376480D01*
X159123520Y-110218388D01*
X158937624Y-110094176D01*
X158731067Y-110008617D01*
X158511788Y-109965000D01*
X158288212Y-109965000D01*
X158068933Y-110008617D01*
X157862376Y-110094176D01*
X157676480Y-110218388D01*
X157518388Y-110376480D01*
X157394176Y-110562376D01*
X157308617Y-110768933D01*
X157265000Y-110988212D01*
X155005000Y-110988212D01*
X155005000Y-110913740D01*
X154947932Y-110626842D01*
X154835990Y-110356589D01*
X154673475Y-110113368D01*
X154466632Y-109906525D01*
X154292240Y-109790000D01*
X154466632Y-109673475D01*
X154542046Y-109598061D01*
X179565000Y-109598061D01*
X179565000Y-109801939D01*
X179604774Y-110001898D01*
X179682795Y-110190256D01*
X179796063Y-110359774D01*
X179940226Y-110503937D01*
X180109744Y-110617205D01*
X180298102Y-110695226D01*
X180498061Y-110735000D01*
X180701939Y-110735000D01*
X180901898Y-110695226D01*
X181090256Y-110617205D01*
X181259774Y-110503937D01*
X181275499Y-110488212D01*
X186265000Y-110488212D01*
X186265000Y-110711788D01*
X186308617Y-110931067D01*
X186394176Y-111137624D01*
X186518388Y-111323520D01*
X186676480Y-111481612D01*
X186862376Y-111605824D01*
X187068933Y-111691383D01*
X187288212Y-111735000D01*
X187511788Y-111735000D01*
X187731067Y-111691383D01*
X187937624Y-111605824D01*
X188123520Y-111481612D01*
X188281612Y-111323520D01*
X188405824Y-111137624D01*
X188491383Y-110931067D01*
X188535000Y-110711788D01*
X188535000Y-110488212D01*
X188491383Y-110268933D01*
X188405824Y-110062376D01*
X188281612Y-109876480D01*
X188123520Y-109718388D01*
X187937624Y-109594176D01*
X187731067Y-109508617D01*
X187511788Y-109465000D01*
X187288212Y-109465000D01*
X187068933Y-109508617D01*
X186862376Y-109594176D01*
X186676480Y-109718388D01*
X186518388Y-109876480D01*
X186394176Y-110062376D01*
X186308617Y-110268933D01*
X186265000Y-110488212D01*
X181275499Y-110488212D01*
X181403937Y-110359774D01*
X181517205Y-110190256D01*
X181595226Y-110001898D01*
X181635000Y-109801939D01*
X181635000Y-109598061D01*
X181595226Y-109398102D01*
X181517205Y-109209744D01*
X181403937Y-109040226D01*
X181259774Y-108896063D01*
X181090256Y-108782795D01*
X180901898Y-108704774D01*
X180701939Y-108665000D01*
X180498061Y-108665000D01*
X180298102Y-108704774D01*
X180109744Y-108782795D01*
X179940226Y-108896063D01*
X179796063Y-109040226D01*
X179682795Y-109209744D01*
X179604774Y-109398102D01*
X179565000Y-109598061D01*
X154542046Y-109598061D01*
X154673475Y-109466632D01*
X154835990Y-109223411D01*
X154947932Y-108953158D01*
X155005000Y-108666260D01*
X155005000Y-108373740D01*
X154947932Y-108086842D01*
X154897464Y-107965001D01*
X156588566Y-107965001D01*
X156627119Y-107968798D01*
X156665672Y-107965001D01*
X156665680Y-107965001D01*
X156781006Y-107953642D01*
X156928979Y-107908755D01*
X157065352Y-107835863D01*
X157184883Y-107737765D01*
X157209466Y-107707811D01*
X158135905Y-106781373D01*
X158135910Y-106781367D01*
X165977827Y-98939451D01*
X166007775Y-98914873D01*
X166037419Y-98878753D01*
X166069037Y-98840226D01*
X166105873Y-98795342D01*
X166178765Y-98658969D01*
X166185503Y-98636758D01*
X166223652Y-98510997D01*
X166228697Y-98459774D01*
X166235011Y-98395670D01*
X166235011Y-98395663D01*
X166238808Y-98357110D01*
X166235011Y-98318557D01*
X166235011Y-95875146D01*
X166609356Y-95500801D01*
X166590010Y-95598061D01*
X166590010Y-95801939D01*
X166629784Y-96001898D01*
X166707805Y-96190256D01*
X166821073Y-96359774D01*
X166840010Y-96378711D01*
X166840011Y-99036427D01*
X166836213Y-99074990D01*
X166851369Y-99228876D01*
X166896256Y-99376849D01*
X166896257Y-99376850D01*
X166969149Y-99513223D01*
X167005712Y-99557774D01*
X167042665Y-99602802D01*
X167042669Y-99602806D01*
X167067247Y-99632754D01*
X167097195Y-99657332D01*
X169537672Y-102097809D01*
X169562255Y-102127763D01*
X169681786Y-102225861D01*
X169818159Y-102298753D01*
X169966132Y-102343641D01*
X170041045Y-102351019D01*
X170081458Y-102354999D01*
X170081463Y-102354999D01*
X170120019Y-102358796D01*
X170158575Y-102354999D01*
X174444842Y-102354999D01*
X174665000Y-102575157D01*
X174665000Y-102601939D01*
X174704774Y-102801898D01*
X174782795Y-102990256D01*
X174896063Y-103159774D01*
X175040226Y-103303937D01*
X175209744Y-103417205D01*
X175398102Y-103495226D01*
X175598061Y-103535000D01*
X175801939Y-103535000D01*
X176001898Y-103495226D01*
X176190256Y-103417205D01*
X176359774Y-103303937D01*
X176503937Y-103159774D01*
X176617205Y-102990256D01*
X176695226Y-102801898D01*
X176735000Y-102601939D01*
X176735000Y-102398061D01*
X176695226Y-102198102D01*
X176617205Y-102009744D01*
X176503937Y-101840226D01*
X176359774Y-101696063D01*
X176190256Y-101582795D01*
X176001898Y-101504774D01*
X175801939Y-101465000D01*
X175775157Y-101465000D01*
X175608218Y-101298061D01*
X177365000Y-101298061D01*
X177365000Y-101501939D01*
X177404774Y-101701898D01*
X177482795Y-101890256D01*
X177596063Y-102059774D01*
X177740226Y-102203937D01*
X177909744Y-102317205D01*
X178098102Y-102395226D01*
X178298061Y-102435000D01*
X178501939Y-102435000D01*
X178701898Y-102395226D01*
X178890256Y-102317205D01*
X179059774Y-102203937D01*
X179203937Y-102059774D01*
X179317205Y-101890256D01*
X179395226Y-101701898D01*
X179435000Y-101501939D01*
X179435000Y-101298061D01*
X179395226Y-101098102D01*
X179317205Y-100909744D01*
X179203937Y-100740226D01*
X179059774Y-100596063D01*
X178890256Y-100482795D01*
X178701898Y-100404774D01*
X178501939Y-100365000D01*
X178298061Y-100365000D01*
X178098102Y-100404774D01*
X177909744Y-100482795D01*
X177740226Y-100596063D01*
X177596063Y-100740226D01*
X177482795Y-100909744D01*
X177404774Y-101098102D01*
X177365000Y-101298061D01*
X175608218Y-101298061D01*
X175352344Y-101042187D01*
X175327763Y-101012235D01*
X175208232Y-100914137D01*
X175071859Y-100841245D01*
X174923886Y-100796358D01*
X174808560Y-100784999D01*
X174808552Y-100784999D01*
X174769999Y-100781202D01*
X174731446Y-100784999D01*
X170445176Y-100784999D01*
X170163117Y-100502940D01*
X170201898Y-100495226D01*
X170390256Y-100417205D01*
X170559774Y-100303937D01*
X170703937Y-100159774D01*
X170817205Y-99990256D01*
X170895226Y-99801898D01*
X170935000Y-99601939D01*
X170935000Y-99575157D01*
X171527815Y-98982342D01*
X171557764Y-98957764D01*
X171585770Y-98923640D01*
X171617545Y-98884922D01*
X171655862Y-98838233D01*
X171728754Y-98701860D01*
X171729879Y-98698150D01*
X171773642Y-98553887D01*
X171782396Y-98465000D01*
X171785000Y-98438561D01*
X171785000Y-98438556D01*
X171788797Y-98400000D01*
X171785000Y-98361445D01*
X171785000Y-95852279D01*
X173304122Y-97371402D01*
X173271939Y-97365000D01*
X173068061Y-97365000D01*
X172868102Y-97404774D01*
X172679744Y-97482795D01*
X172510226Y-97596063D01*
X172366063Y-97740226D01*
X172252795Y-97909744D01*
X172174774Y-98098102D01*
X172135000Y-98298061D01*
X172135000Y-98501939D01*
X172174774Y-98701898D01*
X172252795Y-98890256D01*
X172366063Y-99059774D01*
X172510226Y-99203937D01*
X172679744Y-99317205D01*
X172868102Y-99395226D01*
X173068061Y-99435000D01*
X173271939Y-99435000D01*
X173471898Y-99395226D01*
X173660256Y-99317205D01*
X173829774Y-99203937D01*
X173973937Y-99059774D01*
X174087205Y-98890256D01*
X174165226Y-98701898D01*
X174205000Y-98501939D01*
X174205000Y-98298061D01*
X174198598Y-98265878D01*
X175460546Y-99527826D01*
X175485124Y-99557774D01*
X175515072Y-99582352D01*
X175515075Y-99582355D01*
X175538938Y-99601939D01*
X175604655Y-99655872D01*
X175741028Y-99728764D01*
X175854560Y-99763204D01*
X175889000Y-99773651D01*
X175903378Y-99775067D01*
X176004327Y-99785010D01*
X176004334Y-99785010D01*
X176042887Y-99788807D01*
X176081440Y-99785010D01*
X182567733Y-99785010D01*
X184565000Y-101782278D01*
X184565000Y-102021289D01*
X184546063Y-102040226D01*
X184432795Y-102209744D01*
X184354774Y-102398102D01*
X184315000Y-102598061D01*
X184315000Y-102801939D01*
X184354774Y-103001898D01*
X184432795Y-103190256D01*
X184546063Y-103359774D01*
X184690226Y-103503937D01*
X184859744Y-103617205D01*
X185048102Y-103695226D01*
X185248061Y-103735000D01*
X185451939Y-103735000D01*
X185651898Y-103695226D01*
X185840256Y-103617205D01*
X186009774Y-103503937D01*
X186153937Y-103359774D01*
X186267205Y-103190256D01*
X186319973Y-103062864D01*
X186398102Y-103095226D01*
X186598061Y-103135000D01*
X186801939Y-103135000D01*
X187001898Y-103095226D01*
X187190256Y-103017205D01*
X187359774Y-102903937D01*
X187503937Y-102759774D01*
X187617205Y-102590256D01*
X187695226Y-102401898D01*
X187735000Y-102201939D01*
X187735000Y-101998061D01*
X187695226Y-101798102D01*
X187617205Y-101609744D01*
X187503937Y-101440226D01*
X187359774Y-101296063D01*
X187190256Y-101182795D01*
X187001898Y-101104774D01*
X186801939Y-101065000D01*
X186775157Y-101065000D01*
X183682347Y-97972190D01*
X183657764Y-97942236D01*
X183538233Y-97844138D01*
X183401860Y-97771246D01*
X183253887Y-97726359D01*
X183138561Y-97715000D01*
X183138553Y-97715000D01*
X183100000Y-97711203D01*
X183061447Y-97715000D01*
X178233854Y-97715000D01*
X178317205Y-97590256D01*
X178395226Y-97401898D01*
X178435000Y-97201939D01*
X178435000Y-96998061D01*
X178395226Y-96798102D01*
X178317205Y-96609744D01*
X178203937Y-96440226D01*
X178059774Y-96296063D01*
X177890256Y-96182795D01*
X177701898Y-96104774D01*
X177501939Y-96065000D01*
X177298061Y-96065000D01*
X177098102Y-96104774D01*
X176909744Y-96182795D01*
X176740226Y-96296063D01*
X176596063Y-96440226D01*
X176482795Y-96609744D01*
X176404774Y-96798102D01*
X176365000Y-96998061D01*
X176365000Y-97201939D01*
X176404774Y-97401898D01*
X176482795Y-97590256D01*
X176548003Y-97687847D01*
X173234999Y-94374844D01*
X173234999Y-94098061D01*
X174535000Y-94098061D01*
X174535000Y-94301939D01*
X174574774Y-94501898D01*
X174652795Y-94690256D01*
X174766063Y-94859774D01*
X174910226Y-95003937D01*
X175079744Y-95117205D01*
X175268102Y-95195226D01*
X175468061Y-95235000D01*
X175671939Y-95235000D01*
X175871898Y-95195226D01*
X176060256Y-95117205D01*
X176229774Y-95003937D01*
X176373937Y-94859774D01*
X176487205Y-94690256D01*
X176565226Y-94501898D01*
X176605000Y-94301939D01*
X176605000Y-94098061D01*
X176565226Y-93898102D01*
X176487205Y-93709744D01*
X176373937Y-93540226D01*
X176229774Y-93396063D01*
X176060256Y-93282795D01*
X175871898Y-93204774D01*
X175671939Y-93165000D01*
X175468061Y-93165000D01*
X175268102Y-93204774D01*
X175079744Y-93282795D01*
X174910226Y-93396063D01*
X174766063Y-93540226D01*
X174652795Y-93709744D01*
X174574774Y-93898102D01*
X174535000Y-94098061D01*
X173234999Y-94098061D01*
X173234999Y-89869088D01*
X173298102Y-89895226D01*
X173498061Y-89935000D01*
X173701939Y-89935000D01*
X173901898Y-89895226D01*
X174090256Y-89817205D01*
X174259774Y-89703937D01*
X174403937Y-89559774D01*
X174517205Y-89390256D01*
X174595226Y-89201898D01*
X174635000Y-89001939D01*
X174635000Y-88975157D01*
X175727811Y-87882346D01*
X175757764Y-87857764D01*
X175855862Y-87738233D01*
X175928754Y-87601860D01*
X175946841Y-87542236D01*
X175973642Y-87453887D01*
X175984256Y-87346114D01*
X175985000Y-87338561D01*
X175985000Y-87338556D01*
X175988797Y-87300000D01*
X175985000Y-87261444D01*
X175985000Y-85498061D01*
X185765000Y-85498061D01*
X185765000Y-85701939D01*
X185804774Y-85901898D01*
X185882795Y-86090256D01*
X185996063Y-86259774D01*
X186140226Y-86403937D01*
X186309744Y-86517205D01*
X186498102Y-86595226D01*
X186698061Y-86635000D01*
X186901939Y-86635000D01*
X187101898Y-86595226D01*
X187290256Y-86517205D01*
X187459774Y-86403937D01*
X187603937Y-86259774D01*
X187717205Y-86090256D01*
X187795226Y-85901898D01*
X187835000Y-85701939D01*
X187835000Y-85498061D01*
X187795226Y-85298102D01*
X187717205Y-85109744D01*
X187603937Y-84940226D01*
X187459774Y-84796063D01*
X187290256Y-84682795D01*
X187101898Y-84604774D01*
X186901939Y-84565000D01*
X186698061Y-84565000D01*
X186498102Y-84604774D01*
X186309744Y-84682795D01*
X186140226Y-84796063D01*
X185996063Y-84940226D01*
X185882795Y-85109744D01*
X185804774Y-85298102D01*
X185765000Y-85498061D01*
X175985000Y-85498061D01*
X175985000Y-84425157D01*
X176972096Y-83438061D01*
X178265000Y-83438061D01*
X178265000Y-83641939D01*
X178304774Y-83841898D01*
X178382795Y-84030256D01*
X178496063Y-84199774D01*
X178640226Y-84343937D01*
X178809744Y-84457205D01*
X178998102Y-84535226D01*
X179198061Y-84575000D01*
X179401939Y-84575000D01*
X179601898Y-84535226D01*
X179790256Y-84457205D01*
X179959774Y-84343937D01*
X180103937Y-84199774D01*
X180217205Y-84030256D01*
X180295226Y-83841898D01*
X180335000Y-83641939D01*
X180335000Y-83438061D01*
X180295226Y-83238102D01*
X180217205Y-83049744D01*
X180103937Y-82880226D01*
X179959774Y-82736063D01*
X179790256Y-82622795D01*
X179601898Y-82544774D01*
X179401939Y-82505000D01*
X179198061Y-82505000D01*
X178998102Y-82544774D01*
X178809744Y-82622795D01*
X178640226Y-82736063D01*
X178496063Y-82880226D01*
X178382795Y-83049744D01*
X178304774Y-83238102D01*
X178265000Y-83438061D01*
X176972096Y-83438061D01*
X177275158Y-83135000D01*
X177301939Y-83135000D01*
X177501898Y-83095226D01*
X177690256Y-83017205D01*
X177859774Y-82903937D01*
X178003937Y-82759774D01*
X178117205Y-82590256D01*
X178195226Y-82401898D01*
X178235000Y-82201939D01*
X178235000Y-81998061D01*
X178195226Y-81798102D01*
X178117205Y-81609744D01*
X178003937Y-81440226D01*
X177859774Y-81296063D01*
X177690256Y-81182795D01*
X177501898Y-81104774D01*
X177301939Y-81065000D01*
X177098061Y-81065000D01*
X176898102Y-81104774D01*
X176709744Y-81182795D01*
X176540226Y-81296063D01*
X176396063Y-81440226D01*
X176282795Y-81609744D01*
X176204774Y-81798102D01*
X176165000Y-81998061D01*
X176165000Y-82024842D01*
X174672185Y-83517658D01*
X174642237Y-83542236D01*
X174617659Y-83572184D01*
X174617655Y-83572188D01*
X174613040Y-83577812D01*
X174544139Y-83661767D01*
X174520571Y-83705861D01*
X174471246Y-83798141D01*
X174426359Y-83946114D01*
X174411203Y-84100000D01*
X174415001Y-84138563D01*
X174415000Y-86974843D01*
X173524843Y-87865000D01*
X173498061Y-87865000D01*
X173298102Y-87904774D01*
X173234999Y-87930912D01*
X173234999Y-87138551D01*
X173238796Y-87099998D01*
X173234999Y-87061445D01*
X173234999Y-87061438D01*
X173223640Y-86946112D01*
X173178753Y-86798139D01*
X173105861Y-86661766D01*
X173051252Y-86595226D01*
X173032344Y-86572186D01*
X173032341Y-86572183D01*
X173007763Y-86542235D01*
X172977815Y-86517657D01*
X172035000Y-85574843D01*
X172035000Y-85548061D01*
X171995226Y-85348102D01*
X171917205Y-85159744D01*
X171803937Y-84990226D01*
X171659774Y-84846063D01*
X171490256Y-84732795D01*
X171362864Y-84680027D01*
X171395226Y-84601898D01*
X171435000Y-84401939D01*
X171435000Y-84198061D01*
X171395226Y-83998102D01*
X171317205Y-83809744D01*
X171203937Y-83640226D01*
X171059774Y-83496063D01*
X170890256Y-83382795D01*
X170701898Y-83304774D01*
X170501939Y-83265000D01*
X170298061Y-83265000D01*
X170098102Y-83304774D01*
X169909744Y-83382795D01*
X169900000Y-83389306D01*
X169890256Y-83382795D01*
X169701898Y-83304774D01*
X169501939Y-83265000D01*
X169298061Y-83265000D01*
X169235010Y-83277542D01*
X169235010Y-81896507D01*
X171365000Y-79766517D01*
X171365000Y-79841939D01*
X171404774Y-80041898D01*
X171482795Y-80230256D01*
X171596063Y-80399774D01*
X171740226Y-80543937D01*
X171909744Y-80657205D01*
X172098102Y-80735226D01*
X172298061Y-80775000D01*
X172501939Y-80775000D01*
X172701898Y-80735226D01*
X172890256Y-80657205D01*
X173059774Y-80543937D01*
X173203937Y-80399774D01*
X173317205Y-80230256D01*
X173395226Y-80041898D01*
X173435000Y-79841939D01*
X173435000Y-79638061D01*
X173395226Y-79438102D01*
X173317205Y-79249744D01*
X173203937Y-79080226D01*
X173059774Y-78936063D01*
X172890256Y-78822795D01*
X172701898Y-78744774D01*
X172501939Y-78705000D01*
X172426518Y-78705000D01*
X174246518Y-76885000D01*
X176727132Y-76885000D01*
X176765685Y-76888797D01*
X176804238Y-76885000D01*
X176804246Y-76885000D01*
X176919572Y-76873641D01*
X177067545Y-76828754D01*
X177203918Y-76755862D01*
X177323449Y-76657764D01*
X177348032Y-76627810D01*
X177527810Y-76448032D01*
X177557764Y-76423449D01*
X177655862Y-76303918D01*
X177728754Y-76167545D01*
X177773641Y-76019572D01*
X177776864Y-75986847D01*
X177803937Y-75959774D01*
X177917205Y-75790256D01*
X177995226Y-75601898D01*
X178035000Y-75401939D01*
X178035000Y-75235010D01*
X182874853Y-75235010D01*
X183565000Y-75925157D01*
X183565000Y-75951939D01*
X183604774Y-76151898D01*
X183682795Y-76340256D01*
X183796063Y-76509774D01*
X183940226Y-76653937D01*
X184109744Y-76767205D01*
X184298102Y-76845226D01*
X184498061Y-76885000D01*
X184701939Y-76885000D01*
X184901898Y-76845226D01*
X185090256Y-76767205D01*
X185259774Y-76653937D01*
X185403937Y-76509774D01*
X185517205Y-76340256D01*
X185595226Y-76151898D01*
X185605369Y-76100901D01*
X191170000Y-76100901D01*
X191170000Y-76349099D01*
X191218421Y-76592529D01*
X191313402Y-76821834D01*
X191451294Y-77028203D01*
X191626797Y-77203706D01*
X191833166Y-77341598D01*
X192062471Y-77436579D01*
X192305901Y-77485000D01*
X192554099Y-77485000D01*
X192797529Y-77436579D01*
X192885838Y-77400000D01*
X193509267Y-77400000D01*
X193532147Y-77632300D01*
X193599906Y-77855674D01*
X193709942Y-78061536D01*
X193858025Y-78241975D01*
X194038464Y-78390058D01*
X194244326Y-78500094D01*
X194467700Y-78567853D01*
X194641793Y-78585000D01*
X195558207Y-78585000D01*
X195732300Y-78567853D01*
X195955674Y-78500094D01*
X196161536Y-78390058D01*
X196341975Y-78241975D01*
X196490058Y-78061536D01*
X196600094Y-77855674D01*
X196667853Y-77632300D01*
X196690733Y-77400000D01*
X196667853Y-77167700D01*
X196600094Y-76944326D01*
X196490058Y-76738464D01*
X196341975Y-76558025D01*
X196161536Y-76409942D01*
X195955674Y-76299906D01*
X195732300Y-76232147D01*
X195558207Y-76215000D01*
X194641793Y-76215000D01*
X194467700Y-76232147D01*
X194244326Y-76299906D01*
X194038464Y-76409942D01*
X193858025Y-76558025D01*
X193709942Y-76738464D01*
X193599906Y-76944326D01*
X193532147Y-77167700D01*
X193509267Y-77400000D01*
X192885838Y-77400000D01*
X193026834Y-77341598D01*
X193233203Y-77203706D01*
X193408706Y-77028203D01*
X193546598Y-76821834D01*
X193641579Y-76592529D01*
X193690000Y-76349099D01*
X193690000Y-76100901D01*
X193641579Y-75857471D01*
X193546598Y-75628166D01*
X193408706Y-75421797D01*
X193233203Y-75246294D01*
X193026834Y-75108402D01*
X192797529Y-75013421D01*
X192554099Y-74965000D01*
X192305901Y-74965000D01*
X192062471Y-75013421D01*
X191833166Y-75108402D01*
X191626797Y-75246294D01*
X191451294Y-75421797D01*
X191313402Y-75628166D01*
X191218421Y-75857471D01*
X191170000Y-76100901D01*
X185605369Y-76100901D01*
X185635000Y-75951939D01*
X185635000Y-75748061D01*
X185595226Y-75548102D01*
X185517205Y-75359744D01*
X185403937Y-75190226D01*
X185259774Y-75046063D01*
X185090256Y-74932795D01*
X185011082Y-74900000D01*
X185090256Y-74867205D01*
X185259774Y-74753937D01*
X185403937Y-74609774D01*
X185517205Y-74440256D01*
X185595226Y-74251898D01*
X185635000Y-74051939D01*
X185635000Y-73848061D01*
X185595226Y-73648102D01*
X185517205Y-73459744D01*
X185403937Y-73290226D01*
X185259774Y-73146063D01*
X185090256Y-73032795D01*
X184901898Y-72954774D01*
X184701939Y-72915000D01*
X184498061Y-72915000D01*
X184298102Y-72954774D01*
X184109744Y-73032795D01*
X183940226Y-73146063D01*
X183921289Y-73165000D01*
X180958711Y-73165000D01*
X181083937Y-73039774D01*
X181197205Y-72870256D01*
X181275226Y-72681898D01*
X181315000Y-72481939D01*
X181315000Y-72278061D01*
X181275226Y-72078102D01*
X181197205Y-71889744D01*
X181083937Y-71720226D01*
X181065000Y-71701289D01*
X181065000Y-71250901D01*
X191170000Y-71250901D01*
X191170000Y-71499099D01*
X191218421Y-71742529D01*
X191313402Y-71971834D01*
X191451294Y-72178203D01*
X191626797Y-72353706D01*
X191833166Y-72491598D01*
X192062471Y-72586579D01*
X192305901Y-72635000D01*
X192554099Y-72635000D01*
X192797529Y-72586579D01*
X193026834Y-72491598D01*
X193233203Y-72353706D01*
X193408706Y-72178203D01*
X193546598Y-71971834D01*
X193641579Y-71742529D01*
X193690000Y-71499099D01*
X193690000Y-71250901D01*
X193641579Y-71007471D01*
X193546598Y-70778166D01*
X193408706Y-70571797D01*
X193233203Y-70396294D01*
X193026834Y-70258402D01*
X192885839Y-70200000D01*
X193509267Y-70200000D01*
X193532147Y-70432300D01*
X193599906Y-70655674D01*
X193709942Y-70861536D01*
X193858025Y-71041975D01*
X194038464Y-71190058D01*
X194244326Y-71300094D01*
X194467700Y-71367853D01*
X194641793Y-71385000D01*
X195558207Y-71385000D01*
X195732300Y-71367853D01*
X195955674Y-71300094D01*
X196161536Y-71190058D01*
X196341975Y-71041975D01*
X196490058Y-70861536D01*
X196600094Y-70655674D01*
X196667853Y-70432300D01*
X196690733Y-70200000D01*
X196667853Y-69967700D01*
X196600094Y-69744326D01*
X196490058Y-69538464D01*
X196341975Y-69358025D01*
X196161536Y-69209942D01*
X195955674Y-69099906D01*
X195732300Y-69032147D01*
X195558207Y-69015000D01*
X194641793Y-69015000D01*
X194467700Y-69032147D01*
X194244326Y-69099906D01*
X194038464Y-69209942D01*
X193858025Y-69358025D01*
X193709942Y-69538464D01*
X193599906Y-69744326D01*
X193532147Y-69967700D01*
X193509267Y-70200000D01*
X192885839Y-70200000D01*
X192797529Y-70163421D01*
X192554099Y-70115000D01*
X192305901Y-70115000D01*
X192062471Y-70163421D01*
X191833166Y-70258402D01*
X191626797Y-70396294D01*
X191451294Y-70571797D01*
X191313402Y-70778166D01*
X191218421Y-71007471D01*
X191170000Y-71250901D01*
X181065000Y-71250901D01*
X181065000Y-65658711D01*
X181083937Y-65639774D01*
X181197205Y-65470256D01*
X181275226Y-65281898D01*
X181315000Y-65081939D01*
X181315000Y-64878061D01*
X181275226Y-64678102D01*
X181197205Y-64489744D01*
X181083937Y-64320226D01*
X180939774Y-64176063D01*
X180770256Y-64062795D01*
X180694871Y-64031569D01*
X180713158Y-64027932D01*
X180983411Y-63915990D01*
X181226632Y-63753475D01*
X181433475Y-63546632D01*
X181550000Y-63372240D01*
X181666525Y-63546632D01*
X181873368Y-63753475D01*
X182116589Y-63915990D01*
X182386842Y-64027932D01*
X182673740Y-64085000D01*
X182966260Y-64085000D01*
X183253158Y-64027932D01*
X183523411Y-63915990D01*
X183766632Y-63753475D01*
X183973475Y-63546632D01*
X184090000Y-63372240D01*
X184206525Y-63546632D01*
X184413368Y-63753475D01*
X184656589Y-63915990D01*
X184926842Y-64027932D01*
X185213740Y-64085000D01*
X185506260Y-64085000D01*
X185793158Y-64027932D01*
X186063411Y-63915990D01*
X186306632Y-63753475D01*
X186513475Y-63546632D01*
X186675990Y-63303411D01*
X186787932Y-63033158D01*
X186845000Y-62746260D01*
X186845000Y-62453740D01*
X186787932Y-62166842D01*
X186675990Y-61896589D01*
X186513475Y-61653368D01*
X186306632Y-61446525D01*
X186063411Y-61284010D01*
X185793158Y-61172068D01*
X185506260Y-61115000D01*
X185213740Y-61115000D01*
X184926842Y-61172068D01*
X184656589Y-61284010D01*
X184413368Y-61446525D01*
X184206525Y-61653368D01*
X184090000Y-61827760D01*
X183973475Y-61653368D01*
X183766632Y-61446525D01*
X183523411Y-61284010D01*
X183253158Y-61172068D01*
X182966260Y-61115000D01*
X182673740Y-61115000D01*
X182386842Y-61172068D01*
X182116589Y-61284010D01*
X181873368Y-61446525D01*
X181666525Y-61653368D01*
X181550000Y-61827760D01*
X181433475Y-61653368D01*
X181226632Y-61446525D01*
X180983411Y-61284010D01*
X180713158Y-61172068D01*
X180426260Y-61115000D01*
X180133740Y-61115000D01*
X179846842Y-61172068D01*
X179576589Y-61284010D01*
X179333368Y-61446525D01*
X179126525Y-61653368D01*
X178964010Y-61896589D01*
X178852068Y-62166842D01*
X178795000Y-62453740D01*
X178795000Y-62746260D01*
X178852068Y-63033158D01*
X178964010Y-63303411D01*
X179126525Y-63546632D01*
X179333368Y-63753475D01*
X179576589Y-63915990D01*
X179846842Y-64027932D01*
X179865129Y-64031569D01*
X179789744Y-64062795D01*
X179620226Y-64176063D01*
X179476063Y-64320226D01*
X179362795Y-64489744D01*
X179284774Y-64678102D01*
X179245000Y-64878061D01*
X179245000Y-65081939D01*
X179284774Y-65281898D01*
X179362795Y-65470256D01*
X179476063Y-65639774D01*
X179495000Y-65658711D01*
X179495001Y-70576513D01*
X179403937Y-70440226D01*
X179259774Y-70296063D01*
X179090256Y-70182795D01*
X178901898Y-70104774D01*
X178701939Y-70065000D01*
X178498061Y-70065000D01*
X178298102Y-70104774D01*
X178109744Y-70182795D01*
X177986715Y-70265000D01*
X164741018Y-70265000D01*
X164700000Y-70260960D01*
X164658981Y-70265000D01*
X164536311Y-70277082D01*
X164378913Y-70324828D01*
X164233854Y-70402364D01*
X164106709Y-70506709D01*
X164080563Y-70538568D01*
X154743226Y-79875907D01*
X154598102Y-79904774D01*
X154409744Y-79982795D01*
X154240226Y-80096063D01*
X154096063Y-80240226D01*
X153982795Y-80409744D01*
X153904774Y-80598102D01*
X153865000Y-80798061D01*
X153865000Y-81001939D01*
X153904774Y-81201898D01*
X153982795Y-81390256D01*
X154096063Y-81559774D01*
X154240226Y-81703937D01*
X154256102Y-81714545D01*
X154251485Y-81715000D01*
X139378711Y-81715000D01*
X139359774Y-81696063D01*
X139190256Y-81582795D01*
X139001898Y-81504774D01*
X138801939Y-81465000D01*
X138598061Y-81465000D01*
X138398102Y-81504774D01*
X138209744Y-81582795D01*
X138040226Y-81696063D01*
X137896063Y-81840226D01*
X137782795Y-82009744D01*
X137704774Y-82198102D01*
X137665000Y-82398061D01*
X119594782Y-82398061D01*
X119630537Y-82354494D01*
X119689502Y-82244180D01*
X119725812Y-82124482D01*
X119738072Y-82000000D01*
X119738072Y-79200000D01*
X119725812Y-79075518D01*
X119689502Y-78955820D01*
X119630537Y-78845506D01*
X119551185Y-78748815D01*
X119491704Y-78700000D01*
X125961928Y-78700000D01*
X125961928Y-80300000D01*
X125974188Y-80424482D01*
X126010498Y-80544180D01*
X126069463Y-80654494D01*
X126148815Y-80751185D01*
X126245506Y-80830537D01*
X126355820Y-80889502D01*
X126475518Y-80925812D01*
X126600000Y-80938072D01*
X128200000Y-80938072D01*
X128324482Y-80925812D01*
X128444180Y-80889502D01*
X128554494Y-80830537D01*
X128651185Y-80751185D01*
X128730537Y-80654494D01*
X128789502Y-80544180D01*
X128825812Y-80424482D01*
X128838072Y-80300000D01*
X128838072Y-79598061D01*
X135765000Y-79598061D01*
X135765000Y-79801939D01*
X135804774Y-80001898D01*
X135882795Y-80190256D01*
X135996063Y-80359774D01*
X136140226Y-80503937D01*
X136309744Y-80617205D01*
X136498102Y-80695226D01*
X136698061Y-80735000D01*
X136901939Y-80735000D01*
X137101898Y-80695226D01*
X137290256Y-80617205D01*
X137459774Y-80503937D01*
X137603937Y-80359774D01*
X137717205Y-80190256D01*
X137795226Y-80001898D01*
X137835000Y-79801939D01*
X137835000Y-79598061D01*
X137795226Y-79398102D01*
X137717205Y-79209744D01*
X137603937Y-79040226D01*
X137459774Y-78896063D01*
X137290256Y-78782795D01*
X137101898Y-78704774D01*
X136901939Y-78665000D01*
X136698061Y-78665000D01*
X136498102Y-78704774D01*
X136309744Y-78782795D01*
X136140226Y-78896063D01*
X135996063Y-79040226D01*
X135882795Y-79209744D01*
X135804774Y-79398102D01*
X135765000Y-79598061D01*
X128838072Y-79598061D01*
X128838072Y-78700000D01*
X128825812Y-78575518D01*
X128789502Y-78455820D01*
X128730537Y-78345506D01*
X128651185Y-78248815D01*
X128554494Y-78169463D01*
X128444180Y-78110498D01*
X128324482Y-78074188D01*
X128200000Y-78061928D01*
X126600000Y-78061928D01*
X126475518Y-78074188D01*
X126355820Y-78110498D01*
X126245506Y-78169463D01*
X126148815Y-78248815D01*
X126069463Y-78345506D01*
X126010498Y-78455820D01*
X125974188Y-78575518D01*
X125961928Y-78700000D01*
X119491704Y-78700000D01*
X119454494Y-78669463D01*
X119344180Y-78610498D01*
X119224482Y-78574188D01*
X119100000Y-78561928D01*
X116300000Y-78561928D01*
X116175518Y-78574188D01*
X116055820Y-78610498D01*
X115945506Y-78669463D01*
X115848815Y-78748815D01*
X115769463Y-78845506D01*
X115710498Y-78955820D01*
X115674188Y-79075518D01*
X115661928Y-79200000D01*
X113060000Y-79200000D01*
X113060000Y-75399570D01*
X115665000Y-75399570D01*
X115665000Y-75800430D01*
X115743204Y-76193587D01*
X115896607Y-76563934D01*
X116119313Y-76897237D01*
X116402763Y-77180687D01*
X116736066Y-77403393D01*
X117106413Y-77556796D01*
X117499570Y-77635000D01*
X117900430Y-77635000D01*
X118293587Y-77556796D01*
X118663934Y-77403393D01*
X118997237Y-77180687D01*
X119280687Y-76897237D01*
X119503393Y-76563934D01*
X119656796Y-76193587D01*
X119735000Y-75800430D01*
X119735000Y-75399570D01*
X119656796Y-75006413D01*
X119503393Y-74636066D01*
X119280687Y-74302763D01*
X118997237Y-74019313D01*
X118663934Y-73796607D01*
X118293587Y-73643204D01*
X117900430Y-73565000D01*
X117499570Y-73565000D01*
X117106413Y-73643204D01*
X116736066Y-73796607D01*
X116402763Y-74019313D01*
X116119313Y-74302763D01*
X115896607Y-74636066D01*
X115743204Y-75006413D01*
X115665000Y-75399570D01*
X113060000Y-75399570D01*
X113060000Y-69200000D01*
X115661928Y-69200000D01*
X115661928Y-72000000D01*
X115674188Y-72124482D01*
X115710498Y-72244180D01*
X115769463Y-72354494D01*
X115848815Y-72451185D01*
X115945506Y-72530537D01*
X116055820Y-72589502D01*
X116175518Y-72625812D01*
X116300000Y-72638072D01*
X119100000Y-72638072D01*
X119224482Y-72625812D01*
X119344180Y-72589502D01*
X119454494Y-72530537D01*
X119551185Y-72451185D01*
X119630537Y-72354494D01*
X119689502Y-72244180D01*
X119725812Y-72124482D01*
X119738072Y-72000000D01*
X119738072Y-69998061D01*
X137665000Y-69998061D01*
X137665000Y-70201939D01*
X137704774Y-70401898D01*
X137782795Y-70590256D01*
X137889532Y-70750000D01*
X137782795Y-70909744D01*
X137704774Y-71098102D01*
X137665000Y-71298061D01*
X137665000Y-71501939D01*
X137704774Y-71701898D01*
X137782795Y-71890256D01*
X137896063Y-72059774D01*
X138040226Y-72203937D01*
X138209744Y-72317205D01*
X138398102Y-72395226D01*
X138598061Y-72435000D01*
X138801939Y-72435000D01*
X139001898Y-72395226D01*
X139190256Y-72317205D01*
X139359774Y-72203937D01*
X139378711Y-72185000D01*
X154621289Y-72185000D01*
X154640226Y-72203937D01*
X154809744Y-72317205D01*
X154998102Y-72395226D01*
X155198061Y-72435000D01*
X155401939Y-72435000D01*
X155601898Y-72395226D01*
X155790256Y-72317205D01*
X155959774Y-72203937D01*
X156103937Y-72059774D01*
X156217205Y-71890256D01*
X156295226Y-71701898D01*
X156335000Y-71501939D01*
X156335000Y-71298061D01*
X156295226Y-71098102D01*
X156217205Y-70909744D01*
X156110468Y-70750000D01*
X156217205Y-70590256D01*
X156295226Y-70401898D01*
X156335000Y-70201939D01*
X156335000Y-69998061D01*
X156295226Y-69798102D01*
X156217205Y-69609744D01*
X156103937Y-69440226D01*
X155959774Y-69296063D01*
X155790256Y-69182795D01*
X155601898Y-69104774D01*
X155401939Y-69065000D01*
X155198061Y-69065000D01*
X154998102Y-69104774D01*
X154809744Y-69182795D01*
X154640226Y-69296063D01*
X154621289Y-69315000D01*
X139378711Y-69315000D01*
X139359774Y-69296063D01*
X139190256Y-69182795D01*
X139001898Y-69104774D01*
X138801939Y-69065000D01*
X138598061Y-69065000D01*
X138398102Y-69104774D01*
X138209744Y-69182795D01*
X138040226Y-69296063D01*
X137896063Y-69440226D01*
X137782795Y-69609744D01*
X137704774Y-69798102D01*
X137665000Y-69998061D01*
X119738072Y-69998061D01*
X119738072Y-69200000D01*
X119725812Y-69075518D01*
X119689502Y-68955820D01*
X119630537Y-68845506D01*
X119551185Y-68748815D01*
X119454494Y-68669463D01*
X119344180Y-68610498D01*
X119224482Y-68574188D01*
X119100000Y-68561928D01*
X116300000Y-68561928D01*
X116175518Y-68574188D01*
X116055820Y-68610498D01*
X115945506Y-68669463D01*
X115848815Y-68748815D01*
X115769463Y-68845506D01*
X115710498Y-68955820D01*
X115674188Y-69075518D01*
X115661928Y-69200000D01*
X113060000Y-69200000D01*
X113060000Y-66300000D01*
X125961928Y-66300000D01*
X125961928Y-67900000D01*
X125974188Y-68024482D01*
X126010498Y-68144180D01*
X126069463Y-68254494D01*
X126148815Y-68351185D01*
X126245506Y-68430537D01*
X126355820Y-68489502D01*
X126475518Y-68525812D01*
X126600000Y-68538072D01*
X128200000Y-68538072D01*
X128324482Y-68525812D01*
X128444180Y-68489502D01*
X128554494Y-68430537D01*
X128651185Y-68351185D01*
X128730537Y-68254494D01*
X128789502Y-68144180D01*
X128825812Y-68024482D01*
X128838072Y-67900000D01*
X128838072Y-66998061D01*
X135765000Y-66998061D01*
X135765000Y-67201939D01*
X135804774Y-67401898D01*
X135882795Y-67590256D01*
X135996063Y-67759774D01*
X136140226Y-67903937D01*
X136309744Y-68017205D01*
X136498102Y-68095226D01*
X136698061Y-68135000D01*
X136901939Y-68135000D01*
X137101898Y-68095226D01*
X137290256Y-68017205D01*
X137459774Y-67903937D01*
X137603937Y-67759774D01*
X137717205Y-67590256D01*
X137795226Y-67401898D01*
X137835000Y-67201939D01*
X137835000Y-66998061D01*
X137795226Y-66798102D01*
X137717205Y-66609744D01*
X137603937Y-66440226D01*
X137459774Y-66296063D01*
X137290256Y-66182795D01*
X137101898Y-66104774D01*
X136901939Y-66065000D01*
X136698061Y-66065000D01*
X136498102Y-66104774D01*
X136309744Y-66182795D01*
X136140226Y-66296063D01*
X135996063Y-66440226D01*
X135882795Y-66609744D01*
X135804774Y-66798102D01*
X135765000Y-66998061D01*
X128838072Y-66998061D01*
X128838072Y-66300000D01*
X128825812Y-66175518D01*
X128789502Y-66055820D01*
X128730537Y-65945506D01*
X128651185Y-65848815D01*
X128554494Y-65769463D01*
X128444180Y-65710498D01*
X128324482Y-65674188D01*
X128200000Y-65661928D01*
X126600000Y-65661928D01*
X126475518Y-65674188D01*
X126355820Y-65710498D01*
X126245506Y-65769463D01*
X126148815Y-65848815D01*
X126069463Y-65945506D01*
X126010498Y-66055820D01*
X125974188Y-66175518D01*
X125961928Y-66300000D01*
X113060000Y-66300000D01*
X113060000Y-65199570D01*
X143865000Y-65199570D01*
X143865000Y-65600430D01*
X143943204Y-65993587D01*
X144096607Y-66363934D01*
X144319313Y-66697237D01*
X144602763Y-66980687D01*
X144936066Y-67203393D01*
X145306413Y-67356796D01*
X145699570Y-67435000D01*
X146100430Y-67435000D01*
X146493587Y-67356796D01*
X146863934Y-67203393D01*
X147197237Y-66980687D01*
X147480687Y-66697237D01*
X147703393Y-66363934D01*
X147856796Y-65993587D01*
X147935000Y-65600430D01*
X147935000Y-65199570D01*
X147894058Y-64993740D01*
X154215000Y-64993740D01*
X154215000Y-65286260D01*
X154272068Y-65573158D01*
X154384010Y-65843411D01*
X154546525Y-66086632D01*
X154753368Y-66293475D01*
X154996589Y-66455990D01*
X155266842Y-66567932D01*
X155553740Y-66625000D01*
X155846260Y-66625000D01*
X156133158Y-66567932D01*
X156403411Y-66455990D01*
X156646632Y-66293475D01*
X156853475Y-66086632D01*
X156970000Y-65912240D01*
X157086525Y-66086632D01*
X157293368Y-66293475D01*
X157536589Y-66455990D01*
X157806842Y-66567932D01*
X158093740Y-66625000D01*
X158386260Y-66625000D01*
X158673158Y-66567932D01*
X158943411Y-66455990D01*
X159186632Y-66293475D01*
X159393475Y-66086632D01*
X159510000Y-65912240D01*
X159626525Y-66086632D01*
X159833368Y-66293475D01*
X160076589Y-66455990D01*
X160346842Y-66567932D01*
X160633740Y-66625000D01*
X160926260Y-66625000D01*
X161213158Y-66567932D01*
X161483411Y-66455990D01*
X161726632Y-66293475D01*
X161933475Y-66086632D01*
X162050000Y-65912240D01*
X162166525Y-66086632D01*
X162373368Y-66293475D01*
X162616589Y-66455990D01*
X162886842Y-66567932D01*
X163173740Y-66625000D01*
X163466260Y-66625000D01*
X163753158Y-66567932D01*
X164023411Y-66455990D01*
X164266632Y-66293475D01*
X164473475Y-66086632D01*
X164590000Y-65912240D01*
X164706525Y-66086632D01*
X164913368Y-66293475D01*
X165156589Y-66455990D01*
X165426842Y-66567932D01*
X165713740Y-66625000D01*
X166006260Y-66625000D01*
X166293158Y-66567932D01*
X166563411Y-66455990D01*
X166806632Y-66293475D01*
X167013475Y-66086632D01*
X167130000Y-65912240D01*
X167246525Y-66086632D01*
X167453368Y-66293475D01*
X167696589Y-66455990D01*
X167966842Y-66567932D01*
X168253740Y-66625000D01*
X168546260Y-66625000D01*
X168833158Y-66567932D01*
X169103411Y-66455990D01*
X169346632Y-66293475D01*
X169553475Y-66086632D01*
X169715990Y-65843411D01*
X169827932Y-65573158D01*
X169885000Y-65286260D01*
X169885000Y-64993740D01*
X169827932Y-64706842D01*
X169715990Y-64436589D01*
X169553475Y-64193368D01*
X169346632Y-63986525D01*
X169103411Y-63824010D01*
X168833158Y-63712068D01*
X168546260Y-63655000D01*
X168253740Y-63655000D01*
X167966842Y-63712068D01*
X167696589Y-63824010D01*
X167453368Y-63986525D01*
X167246525Y-64193368D01*
X167130000Y-64367760D01*
X167013475Y-64193368D01*
X166806632Y-63986525D01*
X166632240Y-63870000D01*
X166806632Y-63753475D01*
X167013475Y-63546632D01*
X167175990Y-63303411D01*
X167287932Y-63033158D01*
X167345000Y-62746260D01*
X167345000Y-62453740D01*
X167287932Y-62166842D01*
X167175990Y-61896589D01*
X167013475Y-61653368D01*
X166806632Y-61446525D01*
X166563411Y-61284010D01*
X166293158Y-61172068D01*
X166006260Y-61115000D01*
X165713740Y-61115000D01*
X165426842Y-61172068D01*
X165156589Y-61284010D01*
X164913368Y-61446525D01*
X164706525Y-61653368D01*
X164590000Y-61827760D01*
X164473475Y-61653368D01*
X164266632Y-61446525D01*
X164023411Y-61284010D01*
X163753158Y-61172068D01*
X163466260Y-61115000D01*
X163173740Y-61115000D01*
X162886842Y-61172068D01*
X162616589Y-61284010D01*
X162373368Y-61446525D01*
X162166525Y-61653368D01*
X162050000Y-61827760D01*
X161933475Y-61653368D01*
X161726632Y-61446525D01*
X161483411Y-61284010D01*
X161213158Y-61172068D01*
X160926260Y-61115000D01*
X160633740Y-61115000D01*
X160346842Y-61172068D01*
X160076589Y-61284010D01*
X159833368Y-61446525D01*
X159626525Y-61653368D01*
X159510000Y-61827760D01*
X159393475Y-61653368D01*
X159186632Y-61446525D01*
X158943411Y-61284010D01*
X158673158Y-61172068D01*
X158386260Y-61115000D01*
X158093740Y-61115000D01*
X157806842Y-61172068D01*
X157536589Y-61284010D01*
X157293368Y-61446525D01*
X157086525Y-61653368D01*
X156924010Y-61896589D01*
X156812068Y-62166842D01*
X156755000Y-62453740D01*
X156755000Y-62746260D01*
X156812068Y-63033158D01*
X156924010Y-63303411D01*
X157086525Y-63546632D01*
X157293368Y-63753475D01*
X157467760Y-63870000D01*
X157293368Y-63986525D01*
X157086525Y-64193368D01*
X156970000Y-64367760D01*
X156853475Y-64193368D01*
X156646632Y-63986525D01*
X156403411Y-63824010D01*
X156133158Y-63712068D01*
X155846260Y-63655000D01*
X155553740Y-63655000D01*
X155266842Y-63712068D01*
X154996589Y-63824010D01*
X154753368Y-63986525D01*
X154546525Y-64193368D01*
X154384010Y-64436589D01*
X154272068Y-64706842D01*
X154215000Y-64993740D01*
X147894058Y-64993740D01*
X147856796Y-64806413D01*
X147703393Y-64436066D01*
X147480687Y-64102763D01*
X147197237Y-63819313D01*
X146863934Y-63596607D01*
X146493587Y-63443204D01*
X146100430Y-63365000D01*
X145699570Y-63365000D01*
X145306413Y-63443204D01*
X144936066Y-63596607D01*
X144602763Y-63819313D01*
X144319313Y-64102763D01*
X144096607Y-64436066D01*
X143943204Y-64806413D01*
X143865000Y-65199570D01*
X113060000Y-65199570D01*
X113060000Y-63132279D01*
X113107670Y-62646107D01*
X113239489Y-62209502D01*
X113453600Y-61806815D01*
X113741848Y-61453388D01*
X114093261Y-61162673D01*
X114494439Y-60945758D01*
X114930113Y-60810894D01*
X115414344Y-60760000D01*
X194367721Y-60760000D01*
X194853893Y-60807670D01*
G37*
%TD.AperFunction*%
D27*
X157025753Y-105671210D02*
X157025747Y-105671215D01*
X156301962Y-106395001D01*
X154951544Y-106395001D01*
X155005000Y-106126260D01*
X155005000Y-105833740D01*
X154947932Y-105546842D01*
X154835990Y-105276589D01*
X154673475Y-105033368D01*
X154466632Y-104826525D01*
X154223411Y-104664010D01*
X153953158Y-104552068D01*
X153666260Y-104495000D01*
X153373740Y-104495000D01*
X153086842Y-104552068D01*
X152816589Y-104664010D01*
X152573368Y-104826525D01*
X152366525Y-105033368D01*
X152250000Y-105207760D01*
X152133475Y-105033368D01*
X151926632Y-104826525D01*
X151683411Y-104664010D01*
X151413158Y-104552068D01*
X151126260Y-104495000D01*
X150833740Y-104495000D01*
X150546842Y-104552068D01*
X150276589Y-104664010D01*
X150033368Y-104826525D01*
X149826525Y-105033368D01*
X149710000Y-105207760D01*
X149593475Y-105033368D01*
X149386632Y-104826525D01*
X149143411Y-104664010D01*
X149105747Y-104648409D01*
X149969156Y-103785000D01*
X158911963Y-103785000D01*
X157025753Y-105671210D01*
%TA.AperFunction,Conductor*%
D28*
G36*
X157025753Y-105671210D02*
G01*
X157025747Y-105671215D01*
X156301962Y-106395001D01*
X154951544Y-106395001D01*
X155005000Y-106126260D01*
X155005000Y-105833740D01*
X154947932Y-105546842D01*
X154835990Y-105276589D01*
X154673475Y-105033368D01*
X154466632Y-104826525D01*
X154223411Y-104664010D01*
X153953158Y-104552068D01*
X153666260Y-104495000D01*
X153373740Y-104495000D01*
X153086842Y-104552068D01*
X152816589Y-104664010D01*
X152573368Y-104826525D01*
X152366525Y-105033368D01*
X152250000Y-105207760D01*
X152133475Y-105033368D01*
X151926632Y-104826525D01*
X151683411Y-104664010D01*
X151413158Y-104552068D01*
X151126260Y-104495000D01*
X150833740Y-104495000D01*
X150546842Y-104552068D01*
X150276589Y-104664010D01*
X150033368Y-104826525D01*
X149826525Y-105033368D01*
X149710000Y-105207760D01*
X149593475Y-105033368D01*
X149386632Y-104826525D01*
X149143411Y-104664010D01*
X149105747Y-104648409D01*
X149969156Y-103785000D01*
X158911963Y-103785000D01*
X157025753Y-105671210D01*
G37*
%TD.AperFunction*%
D27*
X141185000Y-87854843D02*
X141185000Y-86917155D01*
X142317156Y-85785000D01*
X143254843Y-85785000D01*
X141185000Y-87854843D01*
%TA.AperFunction,Conductor*%
D28*
G36*
X141185000Y-87854843D02*
G01*
X141185000Y-86917155D01*
X142317156Y-85785000D01*
X143254843Y-85785000D01*
X141185000Y-87854843D01*
G37*
%TD.AperFunction*%
D27*
X179495001Y-71701288D02*
X179476063Y-71720226D01*
X179362795Y-71889744D01*
X179284774Y-72078102D01*
X179245000Y-72278061D01*
X179245000Y-72481939D01*
X179284774Y-72681898D01*
X179362795Y-72870256D01*
X179476063Y-73039774D01*
X179601289Y-73165000D01*
X173988556Y-73165000D01*
X173950000Y-73161203D01*
X173911444Y-73165000D01*
X173911439Y-73165000D01*
X173872879Y-73168798D01*
X173796113Y-73176358D01*
X173648140Y-73221246D01*
X173511767Y-73294138D01*
X173392236Y-73392236D01*
X173367653Y-73422190D01*
X166672193Y-80117650D01*
X166672187Y-80117655D01*
X166072185Y-80717658D01*
X166042237Y-80742236D01*
X166017659Y-80772184D01*
X166017655Y-80772188D01*
X166013799Y-80776887D01*
X165944139Y-80861767D01*
X165921599Y-80903937D01*
X165871246Y-80998141D01*
X165826359Y-81146114D01*
X165811203Y-81300000D01*
X165815001Y-81338563D01*
X165815000Y-85021289D01*
X165796063Y-85040226D01*
X165682795Y-85209744D01*
X165604774Y-85398102D01*
X165591467Y-85465000D01*
X165498061Y-85465000D01*
X165298102Y-85504774D01*
X165109744Y-85582795D01*
X164940226Y-85696063D01*
X164796063Y-85840226D01*
X164682795Y-86009744D01*
X164604774Y-86198102D01*
X164565000Y-86398061D01*
X164565000Y-86601939D01*
X164565721Y-86605563D01*
X159948219Y-81988061D01*
X161225000Y-81988061D01*
X161225000Y-82191939D01*
X161264774Y-82391898D01*
X161342795Y-82580256D01*
X161456063Y-82749774D01*
X161600226Y-82893937D01*
X161769744Y-83007205D01*
X161958102Y-83085226D01*
X162158061Y-83125000D01*
X162361939Y-83125000D01*
X162561898Y-83085226D01*
X162750256Y-83007205D01*
X162919774Y-82893937D01*
X163063937Y-82749774D01*
X163177205Y-82580256D01*
X163255226Y-82391898D01*
X163295000Y-82191939D01*
X163295000Y-81988061D01*
X163255226Y-81788102D01*
X163177205Y-81599744D01*
X163063937Y-81430226D01*
X162919774Y-81286063D01*
X162750256Y-81172795D01*
X162561898Y-81094774D01*
X162361939Y-81055000D01*
X162158061Y-81055000D01*
X161958102Y-81094774D01*
X161769744Y-81172795D01*
X161600226Y-81286063D01*
X161456063Y-81430226D01*
X161342795Y-81599744D01*
X161264774Y-81788102D01*
X161225000Y-81988061D01*
X159948219Y-81988061D01*
X159761632Y-81801475D01*
X159761627Y-81801469D01*
X159326932Y-81366774D01*
X159395226Y-81201898D01*
X159435000Y-81001939D01*
X159435000Y-80798061D01*
X159395226Y-80598102D01*
X159317205Y-80409744D01*
X159203937Y-80240226D01*
X159059774Y-80096063D01*
X158890256Y-79982795D01*
X158701898Y-79904774D01*
X158508804Y-79866366D01*
X158495226Y-79798102D01*
X158417205Y-79609744D01*
X158303937Y-79440226D01*
X158159774Y-79296063D01*
X157990256Y-79182795D01*
X157854362Y-79126505D01*
X165045869Y-71935000D01*
X177986715Y-71935000D01*
X178109744Y-72017205D01*
X178298102Y-72095226D01*
X178498061Y-72135000D01*
X178701939Y-72135000D01*
X178901898Y-72095226D01*
X179090256Y-72017205D01*
X179259774Y-71903937D01*
X179403937Y-71759774D01*
X179495001Y-71623487D01*
X179495001Y-71701288D01*
%TA.AperFunction,Conductor*%
D28*
G36*
X179495001Y-71701288D02*
G01*
X179476063Y-71720226D01*
X179362795Y-71889744D01*
X179284774Y-72078102D01*
X179245000Y-72278061D01*
X179245000Y-72481939D01*
X179284774Y-72681898D01*
X179362795Y-72870256D01*
X179476063Y-73039774D01*
X179601289Y-73165000D01*
X173988556Y-73165000D01*
X173950000Y-73161203D01*
X173911444Y-73165000D01*
X173911439Y-73165000D01*
X173872879Y-73168798D01*
X173796113Y-73176358D01*
X173648140Y-73221246D01*
X173511767Y-73294138D01*
X173392236Y-73392236D01*
X173367653Y-73422190D01*
X166672193Y-80117650D01*
X166672187Y-80117655D01*
X166072185Y-80717658D01*
X166042237Y-80742236D01*
X166017659Y-80772184D01*
X166017655Y-80772188D01*
X166013799Y-80776887D01*
X165944139Y-80861767D01*
X165921599Y-80903937D01*
X165871246Y-80998141D01*
X165826359Y-81146114D01*
X165811203Y-81300000D01*
X165815001Y-81338563D01*
X165815000Y-85021289D01*
X165796063Y-85040226D01*
X165682795Y-85209744D01*
X165604774Y-85398102D01*
X165591467Y-85465000D01*
X165498061Y-85465000D01*
X165298102Y-85504774D01*
X165109744Y-85582795D01*
X164940226Y-85696063D01*
X164796063Y-85840226D01*
X164682795Y-86009744D01*
X164604774Y-86198102D01*
X164565000Y-86398061D01*
X164565000Y-86601939D01*
X164565721Y-86605563D01*
X159948219Y-81988061D01*
X161225000Y-81988061D01*
X161225000Y-82191939D01*
X161264774Y-82391898D01*
X161342795Y-82580256D01*
X161456063Y-82749774D01*
X161600226Y-82893937D01*
X161769744Y-83007205D01*
X161958102Y-83085226D01*
X162158061Y-83125000D01*
X162361939Y-83125000D01*
X162561898Y-83085226D01*
X162750256Y-83007205D01*
X162919774Y-82893937D01*
X163063937Y-82749774D01*
X163177205Y-82580256D01*
X163255226Y-82391898D01*
X163295000Y-82191939D01*
X163295000Y-81988061D01*
X163255226Y-81788102D01*
X163177205Y-81599744D01*
X163063937Y-81430226D01*
X162919774Y-81286063D01*
X162750256Y-81172795D01*
X162561898Y-81094774D01*
X162361939Y-81055000D01*
X162158061Y-81055000D01*
X161958102Y-81094774D01*
X161769744Y-81172795D01*
X161600226Y-81286063D01*
X161456063Y-81430226D01*
X161342795Y-81599744D01*
X161264774Y-81788102D01*
X161225000Y-81988061D01*
X159948219Y-81988061D01*
X159761632Y-81801475D01*
X159761627Y-81801469D01*
X159326932Y-81366774D01*
X159395226Y-81201898D01*
X159435000Y-81001939D01*
X159435000Y-80798061D01*
X159395226Y-80598102D01*
X159317205Y-80409744D01*
X159203937Y-80240226D01*
X159059774Y-80096063D01*
X158890256Y-79982795D01*
X158701898Y-79904774D01*
X158508804Y-79866366D01*
X158495226Y-79798102D01*
X158417205Y-79609744D01*
X158303937Y-79440226D01*
X158159774Y-79296063D01*
X157990256Y-79182795D01*
X157854362Y-79126505D01*
X165045869Y-71935000D01*
X177986715Y-71935000D01*
X178109744Y-72017205D01*
X178298102Y-72095226D01*
X178498061Y-72135000D01*
X178701939Y-72135000D01*
X178901898Y-72095226D01*
X179090256Y-72017205D01*
X179259774Y-71903937D01*
X179403937Y-71759774D01*
X179495001Y-71623487D01*
X179495001Y-71701288D01*
G37*
%TD.AperFunction*%
%TD*%
M02*
