%TF.GenerationSoftware,KiCad,Pcbnew,(7.0.0)*%
%TF.CreationDate,2023-05-21T11:33:29-07:00*%
%TF.ProjectId,smart_motor_controller,736d6172-745f-46d6-9f74-6f725f636f6e,0.1.1*%
%TF.SameCoordinates,Original*%
%TF.FileFunction,Copper,L4,Bot*%
%TF.FilePolarity,Positive*%
%FSLAX46Y46*%
G04 Gerber Fmt 4.6, Leading zero omitted, Abs format (unit mm)*
G04 Created by KiCad (PCBNEW (7.0.0)) date 2023-05-21 11:33:29*
%MOMM*%
%LPD*%
G01*
G04 APERTURE LIST*
G04 Aperture macros list*
%AMRoundRect*
0 Rectangle with rounded corners*
0 $1 Rounding radius*
0 $2 $3 $4 $5 $6 $7 $8 $9 X,Y pos of 4 corners*
0 Add a 4 corners polygon primitive as box body*
4,1,4,$2,$3,$4,$5,$6,$7,$8,$9,$2,$3,0*
0 Add four circle primitives for the rounded corners*
1,1,$1+$1,$2,$3*
1,1,$1+$1,$4,$5*
1,1,$1+$1,$6,$7*
1,1,$1+$1,$8,$9*
0 Add four rect primitives between the rounded corners*
20,1,$1+$1,$2,$3,$4,$5,0*
20,1,$1+$1,$4,$5,$6,$7,0*
20,1,$1+$1,$6,$7,$8,$9,0*
20,1,$1+$1,$8,$9,$2,$3,0*%
G04 Aperture macros list end*
%TA.AperFunction,ComponentPad*%
%ADD10R,3.000000X3.000000*%
%TD*%
%TA.AperFunction,ComponentPad*%
%ADD11C,3.000000*%
%TD*%
%TA.AperFunction,ComponentPad*%
%ADD12O,1.900000X1.100000*%
%TD*%
%TA.AperFunction,ComponentPad*%
%ADD13C,1.250000*%
%TD*%
%TA.AperFunction,ComponentPad*%
%ADD14R,1.600000X1.600000*%
%TD*%
%TA.AperFunction,ComponentPad*%
%ADD15C,1.600000*%
%TD*%
%TA.AperFunction,ComponentPad*%
%ADD16R,2.800000X2.800000*%
%TD*%
%TA.AperFunction,ComponentPad*%
%ADD17C,2.800000*%
%TD*%
%TA.AperFunction,ComponentPad*%
%ADD18C,0.500000*%
%TD*%
%TA.AperFunction,SMDPad,CuDef*%
%ADD19R,3.100000X2.410000*%
%TD*%
%TA.AperFunction,ComponentPad*%
%ADD20R,1.700000X1.700000*%
%TD*%
%TA.AperFunction,ComponentPad*%
%ADD21O,1.700000X1.700000*%
%TD*%
%TA.AperFunction,ComponentPad*%
%ADD22C,0.630000*%
%TD*%
%TA.AperFunction,SMDPad,CuDef*%
%ADD23R,3.300000X2.600000*%
%TD*%
%TA.AperFunction,ComponentPad*%
%ADD24C,5.600000*%
%TD*%
%TA.AperFunction,ComponentPad*%
%ADD25RoundRect,0.250000X0.350000X0.625000X-0.350000X0.625000X-0.350000X-0.625000X0.350000X-0.625000X0*%
%TD*%
%TA.AperFunction,ComponentPad*%
%ADD26O,1.200000X1.750000*%
%TD*%
%TA.AperFunction,ViaPad*%
%ADD27C,0.800000*%
%TD*%
%TA.AperFunction,Conductor*%
%ADD28C,0.300000*%
%TD*%
%TA.AperFunction,Conductor*%
%ADD29C,0.500000*%
%TD*%
%TA.AperFunction,Conductor*%
%ADD30C,0.250000*%
%TD*%
%TA.AperFunction,Conductor*%
%ADD31C,0.400000*%
%TD*%
G04 APERTURE END LIST*
D10*
%TO.P,J9,1,Pin_1*%
%TO.N,GND*%
X136999999Y-111499999D03*
D11*
%TO.P,J9,2,Pin_2*%
%TO.N,VMOTORS*%
X142000000Y-111500000D03*
%TD*%
D12*
%TO.P,J10,6,Shield*%
%TO.N,GND*%
X125399999Y-67499999D03*
D13*
X128070000Y-68675000D03*
X128070000Y-73525000D03*
D12*
X125399999Y-74699999D03*
%TD*%
D14*
%TO.P,C302,1*%
%TO.N,VMOTORS*%
X148899999Y-98099999D03*
D15*
%TO.P,C302,2*%
%TO.N,GND*%
X148900000Y-100100000D03*
%TD*%
D14*
%TO.P,C304,1*%
%TO.N,VMOTORS*%
X161499999Y-98099999D03*
D15*
%TO.P,C304,2*%
%TO.N,GND*%
X161500000Y-100100000D03*
%TD*%
D14*
%TO.P,C306,1*%
%TO.N,VMOTORS*%
X174099999Y-98099999D03*
D15*
%TO.P,C306,2*%
%TO.N,GND*%
X174100000Y-100100000D03*
%TD*%
D14*
%TO.P,C308,1*%
%TO.N,VMOTORS*%
X186599999Y-98099999D03*
D15*
%TO.P,C308,2*%
%TO.N,GND*%
X186600000Y-100100000D03*
%TD*%
D16*
%TO.P,J301,1,Pin_1*%
%TO.N,Net-(J301-Pin_1)*%
X152499999Y-109999999D03*
D17*
%TO.P,J301,2,Pin_2*%
%TO.N,Net-(J301-Pin_2)*%
X157500000Y-110000000D03*
%TD*%
D16*
%TO.P,J302,1,Pin_1*%
%TO.N,Net-(J302-Pin_1)*%
X172499999Y-109999999D03*
D17*
%TO.P,J302,2,Pin_2*%
%TO.N,Net-(J302-Pin_2)*%
X177500000Y-110000000D03*
%TD*%
D16*
%TO.P,J303,1,Pin_1*%
%TO.N,Net-(J303-Pin_1)*%
X162499999Y-109999999D03*
D17*
%TO.P,J303,2,Pin_2*%
%TO.N,Net-(J303-Pin_2)*%
X167500000Y-110000000D03*
%TD*%
D16*
%TO.P,J304,1,Pin_1*%
%TO.N,Net-(J304-Pin_1)*%
X182499999Y-109999999D03*
D17*
%TO.P,J304,2,Pin_2*%
%TO.N,Net-(J304-Pin_2)*%
X187500000Y-110000000D03*
%TD*%
D18*
%TO.P,U201,9,PowerPAD*%
%TO.N,GND*%
X136735000Y-98005000D03*
X138035000Y-98005000D03*
X139335000Y-98005000D03*
D19*
X138034999Y-97049999D03*
D18*
X136735000Y-96095000D03*
X138035000Y-96095000D03*
X139335000Y-96095000D03*
%TD*%
D20*
%TO.P,J309,1,Pin_1*%
%TO.N,GND*%
X195939999Y-66099999D03*
D21*
%TO.P,J309,2,Pin_2*%
%TO.N,V_ENCODER*%
X193399999Y-66099999D03*
%TD*%
D20*
%TO.P,J310,1,GND*%
%TO.N,GND*%
X195974999Y-82099999D03*
X195974999Y-79559999D03*
X195974999Y-77019999D03*
X195974999Y-74479999D03*
D21*
%TO.P,J310,2,Power*%
%TO.N,V_ENCODER*%
X193434999Y-82099999D03*
X193434999Y-79559999D03*
X193434999Y-77019999D03*
X193434999Y-74479999D03*
%TO.P,J310,3,Pin_3*%
%TO.N,ENCODER_0_B*%
X190894999Y-82099999D03*
%TO.P,J310,4,Pin_4*%
%TO.N,ENCODER_0_A*%
X188354999Y-82099999D03*
%TO.P,J310,5,Pin_5*%
%TO.N,ENCODER_1_B*%
X190894999Y-79559999D03*
%TO.P,J310,6,Pin_6*%
%TO.N,ENCODER_1_A*%
X188354999Y-79559999D03*
%TO.P,J310,7,Pin_7*%
%TO.N,ENCODER_2_B*%
X190894999Y-77019999D03*
%TO.P,J310,8,Pin_8*%
%TO.N,ENCODER_2_A*%
X188354999Y-77019999D03*
%TO.P,J310,9,Pin_9*%
%TO.N,ENCODER_3_B*%
X190894999Y-74479999D03*
%TO.P,J310,10,Pin_10*%
%TO.N,ENCODER_3_A*%
X188354999Y-74479999D03*
%TD*%
D20*
%TO.P,J104,1,Pin_1*%
%TO.N,GND*%
X140949999Y-57499999D03*
D21*
%TO.P,J104,2,Pin_2*%
%TO.N,SWCLK*%
X138409999Y-57499999D03*
%TO.P,J104,3,Pin_3*%
%TO.N,SWDIO*%
X135869999Y-57499999D03*
%TO.P,J104,4,Pin_4*%
%TO.N,NRST*%
X133329999Y-57499999D03*
%TD*%
D22*
%TO.P,U301,9,GND*%
%TO.N,GND*%
X156100000Y-94650000D03*
X154800000Y-94650000D03*
X153500000Y-94650000D03*
D23*
X154799999Y-95299999D03*
D22*
X156100000Y-95950000D03*
X154800000Y-95950000D03*
X153500000Y-95950000D03*
%TD*%
%TO.P,U302,9,GND*%
%TO.N,GND*%
X181300000Y-94650000D03*
X180000000Y-94650000D03*
X178700000Y-94650000D03*
D23*
X179999999Y-95299999D03*
D22*
X181300000Y-95950000D03*
X180000000Y-95950000D03*
X178700000Y-95950000D03*
%TD*%
%TO.P,U303,9,GND*%
%TO.N,GND*%
X168700000Y-94650000D03*
X167400000Y-94650000D03*
X166100000Y-94650000D03*
D23*
X167399999Y-95299999D03*
D22*
X168700000Y-95950000D03*
X167400000Y-95950000D03*
X166100000Y-95950000D03*
%TD*%
%TO.P,U304,9,GND*%
%TO.N,GND*%
X193900000Y-94650000D03*
X192600000Y-94650000D03*
X191300000Y-94650000D03*
D23*
X192599999Y-95299999D03*
D22*
X193900000Y-95950000D03*
X192600000Y-95950000D03*
X191300000Y-95950000D03*
%TD*%
D24*
%TO.P,H203,1,1*%
%TO.N,GND*%
X194500000Y-112000000D03*
%TD*%
%TO.P,H204,1,1*%
%TO.N,GND*%
X126500000Y-112000000D03*
%TD*%
%TO.P,H202,1,1*%
%TO.N,GND*%
X194500000Y-59000000D03*
%TD*%
D20*
%TO.P,J101,1,Pin_1*%
%TO.N,GND*%
X184429999Y-57349999D03*
D21*
%TO.P,J101,2,Pin_2*%
%TO.N,+3V3*%
X184429999Y-59889999D03*
%TO.P,J101,3,Pin_3*%
%TO.N,CAN2_TX*%
X181889999Y-57349999D03*
%TO.P,J101,4,Pin_4*%
%TO.N,CAN2_RX*%
X181889999Y-59889999D03*
%TO.P,J101,5,Pin_5*%
%TO.N,USART3_TX*%
X179349999Y-57349999D03*
%TO.P,J101,6,Pin_6*%
%TO.N,USART3_RX*%
X179349999Y-59889999D03*
%TO.P,J101,7,Pin_7*%
%TO.N,GPIO2*%
X176809999Y-57349999D03*
%TO.P,J101,8,Pin_8*%
%TO.N,GPIO3*%
X176809999Y-59889999D03*
%TO.P,J101,9,Pin_9*%
%TO.N,GPIO0*%
X174269999Y-57349999D03*
%TO.P,J101,10,Pin_10*%
%TO.N,GPIO1*%
X174269999Y-59889999D03*
%TO.P,J101,11,Pin_11*%
%TO.N,I2C1_SDA*%
X171729999Y-57349999D03*
%TO.P,J101,12,Pin_12*%
%TO.N,I2C1_SCL*%
X171729999Y-59889999D03*
%TO.P,J101,13,Pin_13*%
%TO.N,GND*%
X169189999Y-57349999D03*
%TO.P,J101,14,Pin_14*%
%TO.N,+3V3*%
X169189999Y-59889999D03*
%TD*%
D24*
%TO.P,H201,1,1*%
%TO.N,GND*%
X126500000Y-59000000D03*
%TD*%
D25*
%TO.P,J102,1,Pin_1*%
%TO.N,GND*%
X157900000Y-59100000D03*
D26*
%TO.P,J102,2,Pin_2*%
%TO.N,I2C2_SCL*%
X155899999Y-59099999D03*
%TO.P,J102,3,Pin_3*%
%TO.N,I2C2_SDA*%
X153899999Y-59099999D03*
%TO.P,J102,4,Pin_4*%
%TO.N,+3V3*%
X151899999Y-59099999D03*
%TD*%
D27*
%TO.N,GND*%
X150600000Y-93600000D03*
X167500000Y-103800000D03*
X179300000Y-103850000D03*
X192250000Y-103400000D03*
X181900000Y-90400000D03*
X194500000Y-90400000D03*
X169355113Y-90400000D03*
X156700000Y-90400000D03*
X144150000Y-67000000D03*
X144700000Y-81000000D03*
X147500000Y-83600000D03*
X164200000Y-63700000D03*
X161500000Y-67860000D03*
X159100000Y-68900000D03*
X159100000Y-71600000D03*
X154700000Y-76100000D03*
X158300000Y-79100000D03*
X176375000Y-82475000D03*
X154600000Y-73900000D03*
X178950000Y-69100000D03*
X179150000Y-72700000D03*
X171250000Y-83900000D03*
X163100000Y-82500000D03*
X162100000Y-75840000D03*
X162800000Y-66600000D03*
X158300000Y-77300000D03*
X165700000Y-70440000D03*
X195950000Y-107200000D03*
X145600000Y-58400000D03*
X172900000Y-103300000D03*
X149950000Y-73000000D03*
X148400000Y-63950000D03*
X160800000Y-103000000D03*
X139250000Y-78600000D03*
X168100000Y-86000000D03*
X135900000Y-66750000D03*
X155400000Y-103750000D03*
X163400000Y-92600000D03*
X132935000Y-102850000D03*
X131400000Y-96700000D03*
X189450000Y-88500000D03*
X176300000Y-92600000D03*
X181800000Y-80200000D03*
X131500000Y-61500000D03*
X137065000Y-84962500D03*
X130600000Y-72400000D03*
X180350000Y-85300000D03*
X163500000Y-58850000D03*
X158100000Y-86100000D03*
X141235000Y-98050000D03*
X141500000Y-100400000D03*
X131650000Y-70950000D03*
X148900000Y-103400000D03*
X125800000Y-97900000D03*
X185050000Y-85800000D03*
X180500000Y-62500000D03*
X188500000Y-62400000D03*
X137050000Y-89100000D03*
X141235000Y-96050000D03*
X130950000Y-108000000D03*
X151600000Y-85800000D03*
X130500000Y-103300000D03*
X185400000Y-102400000D03*
X151200000Y-68700000D03*
X188900000Y-92600000D03*
X137700000Y-63250000D03*
X126010000Y-85237500D03*
X126010000Y-83237500D03*
%TO.N,+3V3*%
X134710000Y-83037500D03*
X141450000Y-64500000D03*
X175950000Y-67200000D03*
X176475000Y-80925000D03*
X158300000Y-80900000D03*
X163050000Y-67860000D03*
X165730000Y-63700000D03*
X166100000Y-83900000D03*
X190700000Y-90400000D03*
X186550000Y-68300000D03*
X165555113Y-90400000D03*
X159650000Y-63250000D03*
X152850000Y-90400000D03*
X178100000Y-90400000D03*
X130500000Y-101500000D03*
X150200000Y-63250000D03*
X132100000Y-78450000D03*
X131710000Y-83037500D03*
X133210000Y-83025000D03*
%TO.N,LED*%
X152169670Y-78430330D03*
X163300000Y-80000000D03*
%TO.N,Net-(U201-BOOT)*%
X134490000Y-95300000D03*
X134490000Y-100605417D03*
%TO.N,NRST*%
X165500000Y-76150000D03*
X156700000Y-81900000D03*
%TO.N,SWCLK*%
X174000000Y-65500000D03*
%TO.N,SWDIO*%
X166600000Y-71300000D03*
%TO.N,BOOT0*%
X168200000Y-66200000D03*
X162000000Y-62900000D03*
%TO.N,M2_OUT2*%
X168105113Y-90400000D03*
X181000000Y-79250000D03*
%TO.N,USB_D+*%
X144500000Y-75300000D03*
X166150000Y-72400000D03*
%TO.N,USB_D-*%
X146850000Y-75650000D03*
X165950000Y-73650000D03*
%TO.N,CAN2_TX*%
X171600000Y-76750000D03*
%TO.N,CAN2_RX*%
X169850000Y-76700000D03*
%TO.N,M2_OUT1*%
X166855113Y-90400000D03*
X180051789Y-78933930D03*
%TO.N,M1_OUT2*%
X180650000Y-90400000D03*
X184000000Y-84500000D03*
%TO.N,M1_OUT1*%
X179350000Y-90400000D03*
X182800000Y-84500000D03*
%TO.N,M0_OUT2*%
X155500000Y-90400000D03*
X178600000Y-78700000D03*
%TO.N,M0_OUT1*%
X154200000Y-90400000D03*
X177200000Y-78700000D03*
%TO.N,I2C2_SCL*%
X167100000Y-78550000D03*
X157400000Y-65474500D03*
%TO.N,I2C2_SDA*%
X168200000Y-77825500D03*
X154050000Y-64750000D03*
%TO.N,ENCODER_2_B*%
X169950000Y-71350000D03*
%TO.N,ENCODER_2_A*%
X171250000Y-71500000D03*
%TO.N,ENCODER_0_B*%
X181850000Y-82650000D03*
%TO.N,ENCODER_0_A*%
X180250000Y-83550000D03*
%TO.N,ENCODER_1_B*%
X173250000Y-75800000D03*
%TO.N,ENCODER_1_A*%
X172100000Y-75050000D03*
%TO.N,ENCODER_3_B*%
X173150000Y-70650000D03*
%TD*%
D28*
%TO.N,LED*%
X152169670Y-78430330D02*
X156389339Y-82650000D01*
X156389339Y-82650000D02*
X160650000Y-82650000D01*
X160650000Y-82650000D02*
X163300000Y-80000000D01*
D29*
%TO.N,Net-(U201-BOOT)*%
X134490000Y-95300000D02*
X134490000Y-100605417D01*
D28*
%TO.N,NRST*%
X163300000Y-78400000D02*
X159800000Y-81900000D01*
X159800000Y-81900000D02*
X156700000Y-81900000D01*
X165500000Y-76150000D02*
X163300000Y-78350000D01*
X163300000Y-78350000D02*
X163300000Y-78400000D01*
%TO.N,SWCLK*%
X141550000Y-62050000D02*
X138410000Y-58910000D01*
X170550000Y-62050000D02*
X141550000Y-62050000D01*
X138410000Y-58910000D02*
X138410000Y-57500000D01*
X174000000Y-65500000D02*
X170550000Y-62050000D01*
D30*
%TO.N,SWDIO*%
X158925000Y-66475000D02*
X163750000Y-71300000D01*
X141353248Y-62525000D02*
X144225000Y-62525000D01*
X148175000Y-66475000D02*
X158925000Y-66475000D01*
X136250000Y-59250000D02*
X138078248Y-59250000D01*
X135870000Y-57500000D02*
X135870000Y-58870000D01*
X135870000Y-58870000D02*
X136250000Y-59250000D01*
X144225000Y-62525000D02*
X148175000Y-66475000D01*
X138078248Y-59250000D02*
X141353248Y-62525000D01*
X163750000Y-71300000D02*
X166600000Y-71300000D01*
D28*
%TO.N,I2C1_SCL*%
X171800000Y-60290000D02*
X171800000Y-60410000D01*
D31*
%TO.N,BOOT0*%
X162000000Y-62900000D02*
X167400000Y-62900000D01*
X167400000Y-62900000D02*
X168200000Y-63700000D01*
X168200000Y-63700000D02*
X168200000Y-66200000D01*
D28*
%TO.N,M2_OUT2*%
X172900000Y-85600000D02*
X168105113Y-90394887D01*
X168105113Y-90394887D02*
X168105113Y-90400000D01*
X181000000Y-79250000D02*
X178500000Y-81750000D01*
X178500000Y-81750000D02*
X178500000Y-83307106D01*
X178500000Y-83307106D02*
X176207106Y-85600000D01*
X176207106Y-85600000D02*
X172900000Y-85600000D01*
%TO.N,USB_D+*%
X147350000Y-74150000D02*
X147350000Y-74550000D01*
X158789338Y-75750000D02*
X157389339Y-77150000D01*
X146777830Y-74850000D02*
X144950000Y-74850000D01*
X147950000Y-74550000D02*
X147950000Y-74150000D01*
X166150000Y-72400000D02*
X164250000Y-72400000D01*
X164250000Y-72400000D02*
X160900000Y-75750000D01*
X147050000Y-74850000D02*
X146777830Y-74850000D01*
X160900000Y-75750000D02*
X158789338Y-75750000D01*
X144950000Y-74850000D02*
X144500000Y-75300000D01*
X150357106Y-74850000D02*
X148250000Y-74850000D01*
X157389339Y-77150000D02*
X152657106Y-77150000D01*
X152657106Y-77150000D02*
X150357106Y-74850000D01*
X147050000Y-74850000D02*
G75*
G03*
X147350000Y-74550000I0J300000D01*
G01*
X147950000Y-74150000D02*
G75*
G03*
X147650000Y-73850000I-300000J0D01*
G01*
X147650000Y-73850000D02*
G75*
G03*
X147350000Y-74150000I0J-300000D01*
G01*
X147950000Y-74550000D02*
G75*
G03*
X148250000Y-74850000I300000J0D01*
G01*
%TO.N,USB_D-*%
X161400000Y-78200000D02*
X165950000Y-73650000D01*
X150450000Y-75650000D02*
X153000000Y-78200000D01*
X146850000Y-75650000D02*
X150450000Y-75650000D01*
X153000000Y-78200000D02*
X161400000Y-78200000D01*
%TO.N,CAN2_TX*%
X171600000Y-76750000D02*
X169650000Y-74800000D01*
X169150000Y-69057106D02*
X169607106Y-68600000D01*
X169607106Y-68600000D02*
X177957106Y-68600000D01*
X183200000Y-58660000D02*
X181890000Y-57350000D01*
X169150000Y-72700000D02*
X169150000Y-69057106D01*
X169650000Y-74800000D02*
X169650000Y-73200000D01*
X177957106Y-68600000D02*
X183200000Y-63357106D01*
X183200000Y-63357106D02*
X183200000Y-58660000D01*
X169650000Y-73200000D02*
X169150000Y-72700000D01*
%TO.N,CAN2_RX*%
X169850000Y-76700000D02*
X169850000Y-75707106D01*
X169150000Y-73407106D02*
X168650000Y-72907106D01*
X169150000Y-75007106D02*
X169150000Y-73407106D01*
X169400000Y-68100000D02*
X177750000Y-68100000D01*
X168650000Y-72907106D02*
X168650000Y-68849999D01*
X181890000Y-63960000D02*
X181890000Y-59890000D01*
X177750000Y-68100000D02*
X181890000Y-63960000D01*
X168650000Y-68849999D02*
X169400000Y-68100000D01*
X169850000Y-75707106D02*
X169150000Y-75007106D01*
%TO.N,M2_OUT1*%
X178000000Y-83100000D02*
X176000000Y-85100000D01*
X176000000Y-85100000D02*
X172150000Y-85100000D01*
X178000000Y-80985719D02*
X178000000Y-83100000D01*
X172150000Y-85100000D02*
X166855113Y-90394887D01*
X166855113Y-90394887D02*
X166855113Y-90400000D01*
X180051789Y-78933930D02*
X178000000Y-80985719D01*
%TO.N,M1_OUT2*%
X180650000Y-88950000D02*
X180650000Y-90400000D01*
X184000000Y-85600000D02*
X180650000Y-88950000D01*
X184000000Y-84500000D02*
X184000000Y-85600000D01*
%TO.N,M1_OUT1*%
X182800000Y-84500000D02*
X182800000Y-85400000D01*
X179350000Y-88850000D02*
X179350000Y-90400000D01*
X182800000Y-85400000D02*
X179350000Y-88850000D01*
%TO.N,M0_OUT2*%
X175050000Y-79700000D02*
X171640000Y-83110000D01*
X160350000Y-85550000D02*
X155500000Y-90400000D01*
X171640000Y-83110000D02*
X169297106Y-83110000D01*
X166857106Y-85550000D02*
X160350000Y-85550000D01*
X177600000Y-79700000D02*
X175050000Y-79700000D01*
X169297106Y-83110000D02*
X166857106Y-85550000D01*
X178600000Y-78700000D02*
X177600000Y-79700000D01*
%TO.N,M0_OUT1*%
X169090000Y-82610000D02*
X166650000Y-85050000D01*
X154200000Y-88300000D02*
X154200000Y-90400000D01*
X157450000Y-85050000D02*
X154200000Y-88300000D01*
X171390000Y-82610000D02*
X169090000Y-82610000D01*
X166650000Y-85050000D02*
X157450000Y-85050000D01*
X175300000Y-78700000D02*
X171390000Y-82610000D01*
X177200000Y-78700000D02*
X175300000Y-78700000D01*
D30*
%TO.N,I2C2_SCL*%
X157400000Y-65474500D02*
X163724500Y-65474500D01*
X167650000Y-76600000D02*
X167100000Y-77150000D01*
X163724500Y-65474500D02*
X167650000Y-69400000D01*
X167100000Y-77150000D02*
X167100000Y-78550000D01*
X167650000Y-69400000D02*
X167650000Y-76600000D01*
%TO.N,I2C2_SDA*%
X154050000Y-64750000D02*
X153950000Y-64750000D01*
X163636396Y-64750000D02*
X154050000Y-64750000D01*
X168175000Y-69288604D02*
X163636396Y-64750000D01*
X168175000Y-77800500D02*
X168175000Y-69288604D01*
X168200000Y-77825500D02*
X168175000Y-77800500D01*
D28*
%TO.N,ENCODER_2_B*%
X179257106Y-74550000D02*
X183067106Y-78360000D01*
X169950000Y-71350000D02*
X173150000Y-74550000D01*
X189555000Y-78360000D02*
X190895000Y-77020000D01*
X173150000Y-74550000D02*
X179257106Y-74550000D01*
X183067106Y-78360000D02*
X189555000Y-78360000D01*
%TO.N,ENCODER_2_A*%
X171250000Y-71500000D02*
X173800000Y-74050000D01*
X182434214Y-77020000D02*
X188355000Y-77020000D01*
X179464213Y-74050000D02*
X182434214Y-77020000D01*
X173800000Y-74050000D02*
X179464213Y-74050000D01*
%TO.N,ENCODER_0_B*%
X182500000Y-83300000D02*
X189695000Y-83300000D01*
X189695000Y-83300000D02*
X190895000Y-82100000D01*
X181850000Y-82650000D02*
X182500000Y-83300000D01*
%TO.N,ENCODER_0_A*%
X188155000Y-81900000D02*
X188355000Y-82100000D01*
X180250000Y-82650000D02*
X181000000Y-81900000D01*
X181000000Y-81900000D02*
X188155000Y-81900000D01*
X180250000Y-83550000D02*
X180250000Y-82650000D01*
%TO.N,ENCODER_1_B*%
X179060661Y-75800000D02*
X184020661Y-80760000D01*
X189695000Y-80760000D02*
X190895000Y-79560000D01*
X173250000Y-75800000D02*
X179060661Y-75800000D01*
X184020661Y-80760000D02*
X189695000Y-80760000D01*
%TO.N,ENCODER_1_A*%
X179050000Y-75050000D02*
X183560000Y-79560000D01*
X172100000Y-75050000D02*
X179050000Y-75050000D01*
X183560000Y-79560000D02*
X188355000Y-79560000D01*
%TO.N,ENCODER_3_B*%
X184420000Y-75820000D02*
X189555000Y-75820000D01*
X189555000Y-75820000D02*
X190895000Y-74480000D01*
X179250000Y-70650000D02*
X184420000Y-75820000D01*
X173150000Y-70650000D02*
X179250000Y-70650000D01*
%TD*%
%TA.AperFunction,Conductor*%
%TO.N,GND*%
G36*
X159013253Y-85722233D02*
G01*
X159057986Y-85760439D01*
X159080499Y-85814789D01*
X159075883Y-85873436D01*
X159045145Y-85923595D01*
X155514145Y-89454595D01*
X155473268Y-89481909D01*
X155425050Y-89491500D01*
X155404513Y-89491500D01*
X155398060Y-89492871D01*
X155398056Y-89492872D01*
X155224168Y-89529833D01*
X155224161Y-89529835D01*
X155217712Y-89531206D01*
X155211682Y-89533890D01*
X155211681Y-89533891D01*
X155049277Y-89606197D01*
X155049271Y-89606200D01*
X155046185Y-89607573D01*
X155046182Y-89607575D01*
X155043248Y-89608882D01*
X155043041Y-89608417D01*
X154984504Y-89624105D01*
X154921502Y-89607226D01*
X154875382Y-89561106D01*
X154858500Y-89498105D01*
X154858500Y-88624950D01*
X154868091Y-88576732D01*
X154895405Y-88535855D01*
X157685855Y-85745405D01*
X157726732Y-85718091D01*
X157774950Y-85708500D01*
X158956050Y-85708500D01*
X159013253Y-85722233D01*
G37*
%TD.AperFunction*%
%TA.AperFunction,Conductor*%
G36*
X181944660Y-79633634D02*
G01*
X181993254Y-79663852D01*
X183355807Y-81026405D01*
X183386545Y-81076564D01*
X183391161Y-81135211D01*
X183368648Y-81189561D01*
X183323915Y-81227767D01*
X183266712Y-81241500D01*
X181082056Y-81241500D01*
X181070200Y-81240941D01*
X181070196Y-81240940D01*
X181062463Y-81239212D01*
X181054548Y-81239460D01*
X181054541Y-81239460D01*
X180991631Y-81241438D01*
X180987673Y-81241500D01*
X180958568Y-81241500D01*
X180954652Y-81241994D01*
X180954643Y-81241995D01*
X180954157Y-81242057D01*
X180942345Y-81242986D01*
X180904092Y-81244188D01*
X180904084Y-81244189D01*
X180896169Y-81244438D01*
X180888558Y-81246648D01*
X180888551Y-81246650D01*
X180875570Y-81250421D01*
X180856224Y-81254428D01*
X180842799Y-81256124D01*
X180842795Y-81256124D01*
X180834936Y-81257118D01*
X180827573Y-81260032D01*
X180827565Y-81260035D01*
X180791972Y-81274127D01*
X180780750Y-81277969D01*
X180744011Y-81288643D01*
X180744006Y-81288644D01*
X180736400Y-81290855D01*
X180729578Y-81294889D01*
X180729572Y-81294892D01*
X180717938Y-81301772D01*
X180700192Y-81310466D01*
X180687617Y-81315445D01*
X180687611Y-81315447D01*
X180680244Y-81318365D01*
X180673836Y-81323020D01*
X180673826Y-81323026D01*
X180642860Y-81345524D01*
X180632945Y-81352037D01*
X180600018Y-81371511D01*
X180600015Y-81371513D01*
X180593193Y-81375548D01*
X180587591Y-81381149D01*
X180587588Y-81381152D01*
X180582597Y-81386143D01*
X180578026Y-81390714D01*
X180563003Y-81403545D01*
X180552051Y-81411502D01*
X180552045Y-81411506D01*
X180545643Y-81416159D01*
X180540601Y-81422252D01*
X180540594Y-81422260D01*
X180516192Y-81451757D01*
X180508204Y-81460535D01*
X179842390Y-82126348D01*
X179833616Y-82134332D01*
X179833605Y-82134340D01*
X179826920Y-82138584D01*
X179821503Y-82144352D01*
X179821495Y-82144359D01*
X179778393Y-82190258D01*
X179775645Y-82193094D01*
X179755073Y-82213667D01*
X179752647Y-82216793D01*
X179752625Y-82216819D01*
X179752325Y-82217206D01*
X179744649Y-82226191D01*
X179718454Y-82254088D01*
X179718451Y-82254091D01*
X179713028Y-82259867D01*
X179709212Y-82266806D01*
X179709205Y-82266817D01*
X179702689Y-82278669D01*
X179691844Y-82295179D01*
X179683556Y-82305864D01*
X179683550Y-82305872D01*
X179678696Y-82312132D01*
X179675549Y-82319402D01*
X179675547Y-82319407D01*
X179660351Y-82354523D01*
X179655131Y-82365178D01*
X179636697Y-82398710D01*
X179636693Y-82398718D01*
X179632876Y-82405663D01*
X179630905Y-82413336D01*
X179630902Y-82413346D01*
X179627541Y-82426438D01*
X179621140Y-82445134D01*
X179615767Y-82457550D01*
X179615765Y-82457554D01*
X179612620Y-82464824D01*
X179611381Y-82472641D01*
X179611380Y-82472648D01*
X179605393Y-82510452D01*
X179602986Y-82522073D01*
X179593471Y-82559130D01*
X179593469Y-82559140D01*
X179591500Y-82566812D01*
X179591500Y-82574741D01*
X179591500Y-82588259D01*
X179589949Y-82607968D01*
X179586594Y-82629152D01*
X179587339Y-82637043D01*
X179587340Y-82637043D01*
X179590941Y-82675138D01*
X179591500Y-82686996D01*
X179591500Y-82875241D01*
X179583131Y-82920395D01*
X179559136Y-82959550D01*
X179510960Y-83013056D01*
X179507661Y-83018769D01*
X179507658Y-83018774D01*
X179421014Y-83168846D01*
X179415473Y-83178444D01*
X179405819Y-83208158D01*
X179404333Y-83212730D01*
X179364815Y-83270878D01*
X179300292Y-83298799D01*
X179230852Y-83287801D01*
X179178115Y-83241307D01*
X179158500Y-83173793D01*
X179158500Y-82074950D01*
X179168091Y-82026732D01*
X179195405Y-81985855D01*
X180985855Y-80195405D01*
X181026732Y-80168091D01*
X181074950Y-80158500D01*
X181088884Y-80158500D01*
X181095487Y-80158500D01*
X181282288Y-80118794D01*
X181456752Y-80041118D01*
X181611253Y-79928866D01*
X181739040Y-79786944D01*
X181795043Y-79689943D01*
X181834156Y-79648182D01*
X181887712Y-79628025D01*
X181944660Y-79633634D01*
G37*
%TD.AperFunction*%
%TA.AperFunction,Conductor*%
G36*
X161725742Y-78852500D02*
G01*
X161763088Y-78909353D01*
X161765439Y-78977334D01*
X161732108Y-79036631D01*
X159564145Y-81204595D01*
X159523268Y-81231909D01*
X159475050Y-81241500D01*
X159316216Y-81241500D01*
X159261972Y-81229226D01*
X159218296Y-81194795D01*
X159193698Y-81144915D01*
X159192999Y-81091598D01*
X159193542Y-81089928D01*
X159213504Y-80900000D01*
X159193542Y-80710072D01*
X159146766Y-80566111D01*
X159136569Y-80534728D01*
X159136568Y-80534726D01*
X159134527Y-80528444D01*
X159039040Y-80363056D01*
X158911253Y-80221134D01*
X158905911Y-80217253D01*
X158905908Y-80217250D01*
X158823155Y-80157127D01*
X158756752Y-80108882D01*
X158582288Y-80031206D01*
X158575835Y-80029834D01*
X158575831Y-80029833D01*
X158401943Y-79992872D01*
X158401940Y-79992871D01*
X158395487Y-79991500D01*
X158204513Y-79991500D01*
X158198060Y-79992871D01*
X158198056Y-79992872D01*
X158024168Y-80029833D01*
X158024161Y-80029835D01*
X158017712Y-80031206D01*
X158011682Y-80033890D01*
X158011681Y-80033891D01*
X157849278Y-80106197D01*
X157849275Y-80106198D01*
X157843248Y-80108882D01*
X157837907Y-80112762D01*
X157837906Y-80112763D01*
X157694091Y-80217250D01*
X157694083Y-80217256D01*
X157688747Y-80221134D01*
X157684330Y-80226039D01*
X157684325Y-80226044D01*
X157565379Y-80358148D01*
X157560960Y-80363056D01*
X157557661Y-80368769D01*
X157557658Y-80368774D01*
X157496731Y-80474303D01*
X157465473Y-80528444D01*
X157463434Y-80534718D01*
X157463430Y-80534728D01*
X157408497Y-80703794D01*
X157408495Y-80703801D01*
X157406458Y-80710072D01*
X157405768Y-80716633D01*
X157405768Y-80716635D01*
X157393853Y-80829999D01*
X157386496Y-80900000D01*
X157387186Y-80906565D01*
X157399678Y-81025420D01*
X157392466Y-81082510D01*
X157360621Y-81130440D01*
X157310787Y-81159212D01*
X157253356Y-81162826D01*
X157200308Y-81140527D01*
X157173713Y-81121205D01*
X157156752Y-81108882D01*
X156982288Y-81031206D01*
X156975835Y-81029834D01*
X156975831Y-81029833D01*
X156801943Y-80992872D01*
X156801940Y-80992871D01*
X156795487Y-80991500D01*
X156604513Y-80991500D01*
X156598060Y-80992871D01*
X156598056Y-80992872D01*
X156424168Y-81029833D01*
X156424161Y-81029835D01*
X156417712Y-81031206D01*
X156411682Y-81033890D01*
X156411681Y-81033891D01*
X156249278Y-81106197D01*
X156249275Y-81106198D01*
X156243248Y-81108882D01*
X156237907Y-81112762D01*
X156237906Y-81112763D01*
X156094086Y-81217254D01*
X156094080Y-81217259D01*
X156088747Y-81221134D01*
X156084336Y-81226032D01*
X156084329Y-81226039D01*
X156084239Y-81226140D01*
X156084167Y-81226185D01*
X156079420Y-81230460D01*
X156078704Y-81229665D01*
X156027442Y-81262318D01*
X155960124Y-81264077D01*
X155901515Y-81230916D01*
X153744195Y-79073595D01*
X153713457Y-79023436D01*
X153708841Y-78964789D01*
X153731354Y-78910439D01*
X153776087Y-78872233D01*
X153833290Y-78858500D01*
X161317944Y-78858500D01*
X161329800Y-78859059D01*
X161329803Y-78859059D01*
X161337537Y-78860788D01*
X161408369Y-78858561D01*
X161412327Y-78858500D01*
X161437476Y-78858500D01*
X161441432Y-78858500D01*
X161445831Y-78857943D01*
X161457664Y-78857012D01*
X161503831Y-78855562D01*
X161524416Y-78849581D01*
X161543784Y-78845570D01*
X161565064Y-78842882D01*
X161591585Y-78832381D01*
X161596628Y-78830385D01*
X161664285Y-78823345D01*
X161725742Y-78852500D01*
G37*
%TD.AperFunction*%
%TA.AperFunction,Conductor*%
G36*
X165087220Y-73075381D02*
G01*
X165133340Y-73121501D01*
X165150220Y-73184501D01*
X165133338Y-73247501D01*
X165118778Y-73272718D01*
X165118774Y-73272724D01*
X165115473Y-73278444D01*
X165113434Y-73284718D01*
X165113430Y-73284728D01*
X165058498Y-73453792D01*
X165058497Y-73453796D01*
X165056458Y-73460072D01*
X165055768Y-73466633D01*
X165055768Y-73466635D01*
X165043244Y-73585786D01*
X165031660Y-73626859D01*
X165007029Y-73661709D01*
X161164145Y-77504595D01*
X161123268Y-77531909D01*
X161075050Y-77541500D01*
X158233288Y-77541500D01*
X158176085Y-77527767D01*
X158131352Y-77489561D01*
X158108839Y-77435211D01*
X158113455Y-77376564D01*
X158144193Y-77326405D01*
X159025193Y-76445405D01*
X159066070Y-76418091D01*
X159114288Y-76408500D01*
X160817944Y-76408500D01*
X160829800Y-76409059D01*
X160829803Y-76409059D01*
X160837537Y-76410788D01*
X160908369Y-76408561D01*
X160912327Y-76408500D01*
X160937476Y-76408500D01*
X160941432Y-76408500D01*
X160945831Y-76407943D01*
X160957664Y-76407012D01*
X161003831Y-76405562D01*
X161024416Y-76399581D01*
X161043784Y-76395570D01*
X161065064Y-76392882D01*
X161108019Y-76375874D01*
X161119231Y-76372035D01*
X161163600Y-76359145D01*
X161182055Y-76348229D01*
X161199813Y-76339530D01*
X161219756Y-76331635D01*
X161257148Y-76304466D01*
X161267040Y-76297969D01*
X161306807Y-76274453D01*
X161321977Y-76259281D01*
X161337005Y-76246447D01*
X161354357Y-76233841D01*
X161383813Y-76198233D01*
X161391782Y-76189476D01*
X164485854Y-73095404D01*
X164526731Y-73068091D01*
X164574949Y-73058500D01*
X165024220Y-73058500D01*
X165087220Y-73075381D01*
G37*
%TD.AperFunction*%
%TA.AperFunction,Conductor*%
G36*
X163458124Y-66117591D02*
G01*
X163499001Y-66144905D01*
X166979595Y-69625499D01*
X167006909Y-69666376D01*
X167016500Y-69714594D01*
X167016500Y-70304136D01*
X167004226Y-70358380D01*
X166969794Y-70402056D01*
X166919914Y-70426655D01*
X166864303Y-70427383D01*
X166701943Y-70392872D01*
X166701940Y-70392871D01*
X166695487Y-70391500D01*
X166504513Y-70391500D01*
X166498060Y-70392871D01*
X166498056Y-70392872D01*
X166324168Y-70429833D01*
X166324161Y-70429835D01*
X166317712Y-70431206D01*
X166311682Y-70433890D01*
X166311681Y-70433891D01*
X166149278Y-70506197D01*
X166149275Y-70506198D01*
X166143248Y-70508882D01*
X166137907Y-70512762D01*
X166137906Y-70512763D01*
X165994086Y-70617254D01*
X165994080Y-70617259D01*
X165988747Y-70621134D01*
X165984333Y-70626035D01*
X165979420Y-70630460D01*
X165978724Y-70629687D01*
X165943047Y-70655608D01*
X165891800Y-70666500D01*
X164064595Y-70666500D01*
X164016377Y-70656909D01*
X163975500Y-70629595D01*
X161205905Y-67860000D01*
X162136496Y-67860000D01*
X162156458Y-68049928D01*
X162158495Y-68056200D01*
X162158497Y-68056205D01*
X162213430Y-68225271D01*
X162213433Y-68225278D01*
X162215473Y-68231556D01*
X162310960Y-68396944D01*
X162438747Y-68538866D01*
X162593248Y-68651118D01*
X162767712Y-68728794D01*
X162954513Y-68768500D01*
X163138884Y-68768500D01*
X163145487Y-68768500D01*
X163332288Y-68728794D01*
X163506752Y-68651118D01*
X163661253Y-68538866D01*
X163789040Y-68396944D01*
X163884527Y-68231556D01*
X163943542Y-68049928D01*
X163963504Y-67860000D01*
X163943542Y-67670072D01*
X163911517Y-67571511D01*
X163886569Y-67494728D01*
X163886568Y-67494726D01*
X163884527Y-67488444D01*
X163789040Y-67323056D01*
X163661253Y-67181134D01*
X163655911Y-67177253D01*
X163655908Y-67177250D01*
X163563416Y-67110051D01*
X163506752Y-67068882D01*
X163332288Y-66991206D01*
X163325835Y-66989834D01*
X163325831Y-66989833D01*
X163151943Y-66952872D01*
X163151940Y-66952871D01*
X163145487Y-66951500D01*
X162954513Y-66951500D01*
X162948060Y-66952871D01*
X162948056Y-66952872D01*
X162774168Y-66989833D01*
X162774161Y-66989835D01*
X162767712Y-66991206D01*
X162761682Y-66993890D01*
X162761681Y-66993891D01*
X162599278Y-67066197D01*
X162599275Y-67066198D01*
X162593248Y-67068882D01*
X162587907Y-67072762D01*
X162587906Y-67072763D01*
X162444091Y-67177250D01*
X162444083Y-67177256D01*
X162438747Y-67181134D01*
X162434330Y-67186039D01*
X162434325Y-67186044D01*
X162315379Y-67318148D01*
X162310960Y-67323056D01*
X162307661Y-67328769D01*
X162307658Y-67328774D01*
X162232761Y-67458500D01*
X162215473Y-67488444D01*
X162213434Y-67494718D01*
X162213430Y-67494728D01*
X162158497Y-67663794D01*
X162158495Y-67663801D01*
X162156458Y-67670072D01*
X162136496Y-67860000D01*
X161205905Y-67860000D01*
X159669000Y-66323095D01*
X159638262Y-66272936D01*
X159633646Y-66214289D01*
X159656159Y-66159939D01*
X159700892Y-66121733D01*
X159758095Y-66108000D01*
X163409906Y-66108000D01*
X163458124Y-66117591D01*
G37*
%TD.AperFunction*%
%TA.AperFunction,Conductor*%
G36*
X180679970Y-60549457D02*
G01*
X180725481Y-60591354D01*
X180814278Y-60727268D01*
X180817806Y-60731100D01*
X180963227Y-60889069D01*
X180963231Y-60889073D01*
X180966760Y-60892906D01*
X181144424Y-61031189D01*
X181149005Y-61033668D01*
X181165469Y-61042578D01*
X181213741Y-61088895D01*
X181231500Y-61153392D01*
X181231500Y-63635050D01*
X181221909Y-63683268D01*
X181194595Y-63724145D01*
X177514145Y-67404595D01*
X177473268Y-67431909D01*
X177425050Y-67441500D01*
X176978059Y-67441500D01*
X176911289Y-67422354D01*
X176864811Y-67370735D01*
X176852749Y-67302330D01*
X176862814Y-67206565D01*
X176863504Y-67200000D01*
X176843542Y-67010072D01*
X176784527Y-66828444D01*
X176689040Y-66663056D01*
X176561253Y-66521134D01*
X176555911Y-66517253D01*
X176555908Y-66517250D01*
X176478057Y-66460688D01*
X176406752Y-66408882D01*
X176232288Y-66331206D01*
X176225835Y-66329834D01*
X176225831Y-66329833D01*
X176051943Y-66292872D01*
X176051940Y-66292871D01*
X176045487Y-66291500D01*
X175854513Y-66291500D01*
X175848060Y-66292871D01*
X175848056Y-66292872D01*
X175674168Y-66329833D01*
X175674161Y-66329835D01*
X175667712Y-66331206D01*
X175661682Y-66333890D01*
X175661681Y-66333891D01*
X175499278Y-66406197D01*
X175499275Y-66406198D01*
X175493248Y-66408882D01*
X175487907Y-66412762D01*
X175487906Y-66412763D01*
X175344091Y-66517250D01*
X175344083Y-66517256D01*
X175338747Y-66521134D01*
X175334330Y-66526039D01*
X175334325Y-66526044D01*
X175215379Y-66658148D01*
X175210960Y-66663056D01*
X175207661Y-66668769D01*
X175207658Y-66668774D01*
X175118777Y-66822721D01*
X175115473Y-66828444D01*
X175113434Y-66834718D01*
X175113430Y-66834728D01*
X175058497Y-67003794D01*
X175058495Y-67003801D01*
X175056458Y-67010072D01*
X175055768Y-67016633D01*
X175055768Y-67016635D01*
X175048118Y-67089422D01*
X175036496Y-67200000D01*
X175037186Y-67206565D01*
X175047251Y-67302330D01*
X175035189Y-67370735D01*
X174988711Y-67422354D01*
X174921941Y-67441500D01*
X169482056Y-67441500D01*
X169470200Y-67440941D01*
X169470196Y-67440940D01*
X169462463Y-67439212D01*
X169454548Y-67439460D01*
X169454541Y-67439460D01*
X169391631Y-67441438D01*
X169387673Y-67441500D01*
X169358568Y-67441500D01*
X169354652Y-67441994D01*
X169354643Y-67441995D01*
X169354157Y-67442057D01*
X169342345Y-67442986D01*
X169304092Y-67444188D01*
X169304084Y-67444189D01*
X169296169Y-67444438D01*
X169288558Y-67446648D01*
X169288551Y-67446650D01*
X169275570Y-67450421D01*
X169256224Y-67454428D01*
X169242799Y-67456124D01*
X169242795Y-67456124D01*
X169234936Y-67457118D01*
X169227573Y-67460032D01*
X169227565Y-67460035D01*
X169191972Y-67474127D01*
X169180750Y-67477969D01*
X169144011Y-67488643D01*
X169144006Y-67488644D01*
X169136400Y-67490855D01*
X169129583Y-67494886D01*
X169129570Y-67494892D01*
X169117933Y-67501774D01*
X169100194Y-67510465D01*
X169087617Y-67515445D01*
X169087612Y-67515447D01*
X169080244Y-67518365D01*
X169073833Y-67523022D01*
X169073829Y-67523025D01*
X169042872Y-67545517D01*
X169032952Y-67552033D01*
X169000017Y-67571511D01*
X168993193Y-67575547D01*
X168987590Y-67581149D01*
X168987587Y-67581152D01*
X168978021Y-67590718D01*
X168962999Y-67603548D01*
X168952052Y-67611502D01*
X168952050Y-67611503D01*
X168945643Y-67616159D01*
X168940597Y-67622257D01*
X168940593Y-67622262D01*
X168916192Y-67651757D01*
X168908205Y-67660533D01*
X168264613Y-68304125D01*
X168208131Y-68336736D01*
X168142909Y-68336736D01*
X168086425Y-68304124D01*
X164140042Y-64357741D01*
X164132508Y-64349463D01*
X164128396Y-64342982D01*
X164078744Y-64296356D01*
X164075902Y-64293601D01*
X164058970Y-64276669D01*
X164056166Y-64273865D01*
X164052971Y-64271386D01*
X164043950Y-64263682D01*
X164017493Y-64238838D01*
X164011717Y-64233414D01*
X164004773Y-64229596D01*
X164004767Y-64229592D01*
X163993962Y-64223652D01*
X163977443Y-64212801D01*
X163961437Y-64200386D01*
X163954162Y-64197238D01*
X163954159Y-64197236D01*
X163920862Y-64182828D01*
X163910200Y-64177605D01*
X163878403Y-64160124D01*
X163878401Y-64160123D01*
X163871456Y-64156305D01*
X163863779Y-64154334D01*
X163863777Y-64154333D01*
X163851834Y-64151267D01*
X163833130Y-64144863D01*
X163821816Y-64139967D01*
X163821814Y-64139966D01*
X163814541Y-64136819D01*
X163806715Y-64135579D01*
X163806714Y-64135579D01*
X163770871Y-64129902D01*
X163759255Y-64127496D01*
X163716426Y-64116500D01*
X163708497Y-64116500D01*
X163696172Y-64116500D01*
X163676461Y-64114949D01*
X163664281Y-64113019D01*
X163664274Y-64113018D01*
X163656453Y-64111780D01*
X163648569Y-64112525D01*
X163648561Y-64112525D01*
X163612435Y-64115941D01*
X163600577Y-64116500D01*
X160375307Y-64116500D01*
X160319283Y-64103360D01*
X160274944Y-64066680D01*
X160251539Y-64014110D01*
X160253948Y-63956616D01*
X160281671Y-63906190D01*
X160338682Y-63842872D01*
X160389040Y-63786944D01*
X160484527Y-63621556D01*
X160543542Y-63439928D01*
X160563504Y-63250000D01*
X160543542Y-63060072D01*
X160484527Y-62878444D01*
X160485703Y-62878061D01*
X160476518Y-62824619D01*
X160496456Y-62765878D01*
X160542007Y-62723770D01*
X160602130Y-62708500D01*
X160966686Y-62708500D01*
X161033456Y-62727646D01*
X161079934Y-62779265D01*
X161091996Y-62847670D01*
X161086496Y-62900000D01*
X161087186Y-62906565D01*
X161097379Y-63003551D01*
X161106458Y-63089928D01*
X161108495Y-63096200D01*
X161108497Y-63096205D01*
X161163430Y-63265271D01*
X161163433Y-63265278D01*
X161165473Y-63271556D01*
X161260960Y-63436944D01*
X161388747Y-63578866D01*
X161394089Y-63582747D01*
X161394091Y-63582749D01*
X161437298Y-63614141D01*
X161543248Y-63691118D01*
X161717712Y-63768794D01*
X161904513Y-63808500D01*
X162088884Y-63808500D01*
X162095487Y-63808500D01*
X162282288Y-63768794D01*
X162456752Y-63691118D01*
X162537344Y-63632563D01*
X162572469Y-63614667D01*
X162611405Y-63608500D01*
X164693428Y-63608500D01*
X164752581Y-63623249D01*
X164797887Y-63664042D01*
X164818737Y-63721329D01*
X164836458Y-63889928D01*
X164838495Y-63896200D01*
X164838497Y-63896205D01*
X164893430Y-64065271D01*
X164893433Y-64065278D01*
X164895473Y-64071556D01*
X164944403Y-64156305D01*
X164980469Y-64218774D01*
X164990960Y-64236944D01*
X165118747Y-64378866D01*
X165273248Y-64491118D01*
X165447712Y-64568794D01*
X165634513Y-64608500D01*
X165818884Y-64608500D01*
X165825487Y-64608500D01*
X166012288Y-64568794D01*
X166186752Y-64491118D01*
X166341253Y-64378866D01*
X166469040Y-64236944D01*
X166564527Y-64071556D01*
X166623542Y-63889928D01*
X166641262Y-63721329D01*
X166662113Y-63664042D01*
X166707419Y-63623249D01*
X166766572Y-63608500D01*
X167054340Y-63608500D01*
X167102558Y-63618091D01*
X167143435Y-63645405D01*
X167454595Y-63956565D01*
X167481909Y-63997442D01*
X167491500Y-64045660D01*
X167491500Y-65581256D01*
X167485333Y-65620192D01*
X167467436Y-65655317D01*
X167465377Y-65658149D01*
X167460960Y-65663056D01*
X167457662Y-65668767D01*
X167457657Y-65668775D01*
X167396978Y-65773875D01*
X167365473Y-65828444D01*
X167363434Y-65834718D01*
X167363430Y-65834728D01*
X167308497Y-66003794D01*
X167308495Y-66003801D01*
X167306458Y-66010072D01*
X167305768Y-66016633D01*
X167305768Y-66016635D01*
X167289233Y-66173955D01*
X167286496Y-66200000D01*
X167306458Y-66389928D01*
X167308495Y-66396200D01*
X167308497Y-66396205D01*
X167363430Y-66565271D01*
X167363433Y-66565278D01*
X167365473Y-66571556D01*
X167460960Y-66736944D01*
X167588747Y-66878866D01*
X167743248Y-66991118D01*
X167917712Y-67068794D01*
X168104513Y-67108500D01*
X168288884Y-67108500D01*
X168295487Y-67108500D01*
X168482288Y-67068794D01*
X168656752Y-66991118D01*
X168811253Y-66878866D01*
X168939040Y-66736944D01*
X169034527Y-66571556D01*
X169093542Y-66389928D01*
X169113504Y-66200000D01*
X169093542Y-66010072D01*
X169068297Y-65932379D01*
X169036569Y-65834728D01*
X169036568Y-65834726D01*
X169034527Y-65828444D01*
X168939040Y-65663056D01*
X168934621Y-65658148D01*
X168932564Y-65655317D01*
X168914667Y-65620192D01*
X168908500Y-65581256D01*
X168908500Y-63725223D01*
X168908730Y-63717616D01*
X168908834Y-63715894D01*
X168912402Y-63656908D01*
X168901435Y-63597064D01*
X168900293Y-63589555D01*
X168898048Y-63571068D01*
X168892965Y-63529199D01*
X168889348Y-63519662D01*
X168883227Y-63497705D01*
X168881389Y-63487671D01*
X168856413Y-63432177D01*
X168853524Y-63425203D01*
X168831954Y-63368325D01*
X168826157Y-63359926D01*
X168814958Y-63340069D01*
X168813901Y-63337720D01*
X168810775Y-63330774D01*
X168773267Y-63282899D01*
X168768756Y-63276768D01*
X168738545Y-63233000D01*
X168738544Y-63232999D01*
X168734215Y-63226727D01*
X168688682Y-63186388D01*
X168683141Y-63181171D01*
X168425565Y-62923595D01*
X168394827Y-62873436D01*
X168390211Y-62814789D01*
X168412724Y-62760439D01*
X168457457Y-62722233D01*
X168514660Y-62708500D01*
X170225050Y-62708500D01*
X170273268Y-62718091D01*
X170314145Y-62745405D01*
X173057029Y-65488289D01*
X173081660Y-65523139D01*
X173093244Y-65564213D01*
X173102535Y-65652606D01*
X173106458Y-65689928D01*
X173108497Y-65696205D01*
X173108498Y-65696207D01*
X173163430Y-65865271D01*
X173163433Y-65865278D01*
X173165473Y-65871556D01*
X173168777Y-65877278D01*
X173249234Y-66016635D01*
X173260960Y-66036944D01*
X173388747Y-66178866D01*
X173543248Y-66291118D01*
X173717712Y-66368794D01*
X173904513Y-66408500D01*
X174088884Y-66408500D01*
X174095487Y-66408500D01*
X174282288Y-66368794D01*
X174456752Y-66291118D01*
X174611253Y-66178866D01*
X174739040Y-66036944D01*
X174834527Y-65871556D01*
X174893542Y-65689928D01*
X174913504Y-65500000D01*
X174893542Y-65310072D01*
X174834527Y-65128444D01*
X174739040Y-64963056D01*
X174611253Y-64821134D01*
X174605911Y-64817253D01*
X174605908Y-64817250D01*
X174502826Y-64742357D01*
X174456752Y-64708882D01*
X174282288Y-64631206D01*
X174275835Y-64629834D01*
X174275831Y-64629833D01*
X174101943Y-64592872D01*
X174101940Y-64592871D01*
X174095487Y-64591500D01*
X174088884Y-64591500D01*
X174074950Y-64591500D01*
X174026732Y-64581909D01*
X173985855Y-64554595D01*
X171073654Y-61642394D01*
X171065663Y-61633613D01*
X171061416Y-61626920D01*
X171009741Y-61578394D01*
X171006899Y-61575639D01*
X170989140Y-61557880D01*
X170986333Y-61555073D01*
X170982826Y-61552352D01*
X170973804Y-61544647D01*
X170945912Y-61518455D01*
X170940133Y-61513028D01*
X170921337Y-61502694D01*
X170904816Y-61491841D01*
X170894130Y-61483552D01*
X170894123Y-61483548D01*
X170887868Y-61478696D01*
X170880602Y-61475551D01*
X170880596Y-61475548D01*
X170845463Y-61460344D01*
X170834807Y-61455124D01*
X170801279Y-61436692D01*
X170801276Y-61436691D01*
X170794337Y-61432876D01*
X170786663Y-61430905D01*
X170786659Y-61430904D01*
X170773565Y-61427542D01*
X170754868Y-61421141D01*
X170742451Y-61415768D01*
X170742449Y-61415767D01*
X170735176Y-61412620D01*
X170689552Y-61405394D01*
X170677929Y-61402987D01*
X170640867Y-61393471D01*
X170640862Y-61393470D01*
X170633188Y-61391500D01*
X170625259Y-61391500D01*
X170611741Y-61391500D01*
X170592031Y-61389949D01*
X170578677Y-61387834D01*
X170570848Y-61386594D01*
X170524859Y-61390941D01*
X170513004Y-61391500D01*
X169755226Y-61391500D01*
X169688064Y-61372108D01*
X169641575Y-61319901D01*
X169630069Y-61250948D01*
X169657088Y-61186475D01*
X169714315Y-61146327D01*
X169718977Y-61144726D01*
X169737574Y-61138342D01*
X169935576Y-61031189D01*
X170113240Y-60892906D01*
X170265722Y-60727268D01*
X170354518Y-60591354D01*
X170400030Y-60549457D01*
X170460000Y-60534271D01*
X170519970Y-60549457D01*
X170565481Y-60591354D01*
X170654278Y-60727268D01*
X170657806Y-60731100D01*
X170803227Y-60889069D01*
X170803231Y-60889073D01*
X170806760Y-60892906D01*
X170984424Y-61031189D01*
X171182426Y-61138342D01*
X171187355Y-61140034D01*
X171187357Y-61140035D01*
X171226265Y-61153392D01*
X171395365Y-61211444D01*
X171617431Y-61248500D01*
X171837358Y-61248500D01*
X171842569Y-61248500D01*
X172064635Y-61211444D01*
X172277574Y-61138342D01*
X172475576Y-61031189D01*
X172653240Y-60892906D01*
X172805722Y-60727268D01*
X172894518Y-60591354D01*
X172940030Y-60549457D01*
X173000000Y-60534271D01*
X173059970Y-60549457D01*
X173105481Y-60591354D01*
X173194278Y-60727268D01*
X173197806Y-60731100D01*
X173343227Y-60889069D01*
X173343231Y-60889073D01*
X173346760Y-60892906D01*
X173524424Y-61031189D01*
X173722426Y-61138342D01*
X173727355Y-61140034D01*
X173727357Y-61140035D01*
X173766265Y-61153392D01*
X173935365Y-61211444D01*
X174157431Y-61248500D01*
X174377358Y-61248500D01*
X174382569Y-61248500D01*
X174604635Y-61211444D01*
X174817574Y-61138342D01*
X175015576Y-61031189D01*
X175193240Y-60892906D01*
X175345722Y-60727268D01*
X175434518Y-60591354D01*
X175480030Y-60549457D01*
X175540000Y-60534271D01*
X175599970Y-60549457D01*
X175645481Y-60591354D01*
X175734278Y-60727268D01*
X175737806Y-60731100D01*
X175883227Y-60889069D01*
X175883231Y-60889073D01*
X175886760Y-60892906D01*
X176064424Y-61031189D01*
X176262426Y-61138342D01*
X176267355Y-61140034D01*
X176267357Y-61140035D01*
X176306265Y-61153392D01*
X176475365Y-61211444D01*
X176697431Y-61248500D01*
X176917358Y-61248500D01*
X176922569Y-61248500D01*
X177144635Y-61211444D01*
X177357574Y-61138342D01*
X177555576Y-61031189D01*
X177733240Y-60892906D01*
X177885722Y-60727268D01*
X177974518Y-60591354D01*
X178020030Y-60549457D01*
X178080000Y-60534271D01*
X178139970Y-60549457D01*
X178185481Y-60591354D01*
X178274278Y-60727268D01*
X178277806Y-60731100D01*
X178423227Y-60889069D01*
X178423231Y-60889073D01*
X178426760Y-60892906D01*
X178604424Y-61031189D01*
X178802426Y-61138342D01*
X178807355Y-61140034D01*
X178807357Y-61140035D01*
X178846265Y-61153392D01*
X179015365Y-61211444D01*
X179237431Y-61248500D01*
X179457358Y-61248500D01*
X179462569Y-61248500D01*
X179684635Y-61211444D01*
X179897574Y-61138342D01*
X180095576Y-61031189D01*
X180273240Y-60892906D01*
X180425722Y-60727268D01*
X180514518Y-60591354D01*
X180560030Y-60549457D01*
X180620000Y-60534271D01*
X180679970Y-60549457D01*
G37*
%TD.AperFunction*%
%TA.AperFunction,Conductor*%
G36*
X149307993Y-62723770D02*
G01*
X149353544Y-62765878D01*
X149373482Y-62824619D01*
X149364296Y-62878061D01*
X149365473Y-62878444D01*
X149308497Y-63053794D01*
X149308495Y-63053801D01*
X149306458Y-63060072D01*
X149305768Y-63066633D01*
X149305768Y-63066635D01*
X149298118Y-63139421D01*
X149286496Y-63250000D01*
X149287186Y-63256565D01*
X149305663Y-63432369D01*
X149306458Y-63439928D01*
X149308495Y-63446200D01*
X149308497Y-63446205D01*
X149363430Y-63615271D01*
X149363433Y-63615278D01*
X149365473Y-63621556D01*
X149460960Y-63786944D01*
X149588747Y-63928866D01*
X149743248Y-64041118D01*
X149917712Y-64118794D01*
X150104513Y-64158500D01*
X150288884Y-64158500D01*
X150295487Y-64158500D01*
X150482288Y-64118794D01*
X150656752Y-64041118D01*
X150811253Y-63928866D01*
X150939040Y-63786944D01*
X151034527Y-63621556D01*
X151093542Y-63439928D01*
X151113504Y-63250000D01*
X151093542Y-63060072D01*
X151034527Y-62878444D01*
X151035703Y-62878061D01*
X151026518Y-62824619D01*
X151046456Y-62765878D01*
X151092007Y-62723770D01*
X151152130Y-62708500D01*
X158697870Y-62708500D01*
X158757993Y-62723770D01*
X158803544Y-62765878D01*
X158823482Y-62824619D01*
X158814296Y-62878061D01*
X158815473Y-62878444D01*
X158758497Y-63053794D01*
X158758495Y-63053801D01*
X158756458Y-63060072D01*
X158755768Y-63066633D01*
X158755768Y-63066635D01*
X158748118Y-63139421D01*
X158736496Y-63250000D01*
X158737186Y-63256565D01*
X158755663Y-63432369D01*
X158756458Y-63439928D01*
X158758495Y-63446200D01*
X158758497Y-63446205D01*
X158813430Y-63615271D01*
X158813433Y-63615278D01*
X158815473Y-63621556D01*
X158910960Y-63786944D01*
X158915378Y-63791850D01*
X158915379Y-63791852D01*
X159018329Y-63906190D01*
X159046052Y-63956616D01*
X159048461Y-64014110D01*
X159025056Y-64066680D01*
X158980717Y-64103360D01*
X158924693Y-64116500D01*
X154758200Y-64116500D01*
X154706953Y-64105608D01*
X154671275Y-64079687D01*
X154670580Y-64080460D01*
X154665667Y-64076037D01*
X154661253Y-64071134D01*
X154653183Y-64065271D01*
X154609608Y-64033612D01*
X154506752Y-63958882D01*
X154332288Y-63881206D01*
X154325835Y-63879834D01*
X154325831Y-63879833D01*
X154151943Y-63842872D01*
X154151940Y-63842871D01*
X154145487Y-63841500D01*
X153954513Y-63841500D01*
X153948060Y-63842871D01*
X153948056Y-63842872D01*
X153774168Y-63879833D01*
X153774161Y-63879835D01*
X153767712Y-63881206D01*
X153761682Y-63883890D01*
X153761681Y-63883891D01*
X153599278Y-63956197D01*
X153599275Y-63956198D01*
X153593248Y-63958882D01*
X153587907Y-63962762D01*
X153587906Y-63962763D01*
X153444091Y-64067250D01*
X153444087Y-64067254D01*
X153438747Y-64071134D01*
X153434330Y-64076039D01*
X153434325Y-64076044D01*
X153360082Y-64158500D01*
X153310960Y-64213056D01*
X153307661Y-64218769D01*
X153307658Y-64218774D01*
X153227426Y-64357741D01*
X153215473Y-64378444D01*
X153213434Y-64384718D01*
X153213430Y-64384728D01*
X153158497Y-64553794D01*
X153158495Y-64553801D01*
X153156458Y-64560072D01*
X153155768Y-64566633D01*
X153155768Y-64566635D01*
X153148699Y-64633891D01*
X153136496Y-64750000D01*
X153137186Y-64756565D01*
X153147002Y-64849964D01*
X153156458Y-64939928D01*
X153158495Y-64946200D01*
X153158497Y-64946205D01*
X153213430Y-65115271D01*
X153213433Y-65115278D01*
X153215473Y-65121556D01*
X153310960Y-65286944D01*
X153438747Y-65428866D01*
X153593248Y-65541118D01*
X153683400Y-65581256D01*
X153726382Y-65600393D01*
X153778598Y-65643590D01*
X153800884Y-65707588D01*
X153786795Y-65773875D01*
X153740404Y-65823276D01*
X153675133Y-65841500D01*
X148489594Y-65841500D01*
X148441376Y-65831909D01*
X148400499Y-65804595D01*
X145519500Y-62923595D01*
X145488762Y-62873436D01*
X145484146Y-62814789D01*
X145506659Y-62760439D01*
X145551392Y-62722233D01*
X145608595Y-62708500D01*
X149247870Y-62708500D01*
X149307993Y-62723770D01*
G37*
%TD.AperFunction*%
%TA.AperFunction,Conductor*%
G36*
X194503093Y-55525651D02*
G01*
X194834384Y-55541927D01*
X194846678Y-55543138D01*
X195171724Y-55591354D01*
X195183834Y-55593763D01*
X195502594Y-55673608D01*
X195514407Y-55677191D01*
X195823811Y-55787897D01*
X195835224Y-55792625D01*
X195983750Y-55862872D01*
X196132273Y-55933119D01*
X196143178Y-55938948D01*
X196230856Y-55991500D01*
X196414644Y-56101658D01*
X196425022Y-56107878D01*
X196435303Y-56114748D01*
X196699233Y-56310492D01*
X196708779Y-56318326D01*
X196952262Y-56539005D01*
X196960994Y-56547737D01*
X197181668Y-56791214D01*
X197189509Y-56800768D01*
X197230270Y-56855728D01*
X197385251Y-57064696D01*
X197392121Y-57074977D01*
X197561051Y-57356821D01*
X197566880Y-57367726D01*
X197707372Y-57664770D01*
X197712104Y-57676194D01*
X197822805Y-57985582D01*
X197826394Y-57997415D01*
X197906234Y-58316156D01*
X197908646Y-58328283D01*
X197956860Y-58653315D01*
X197958072Y-58665620D01*
X197974348Y-58996906D01*
X197974500Y-59003089D01*
X197974500Y-111996911D01*
X197974348Y-112003094D01*
X197958072Y-112334379D01*
X197956860Y-112346684D01*
X197908646Y-112671716D01*
X197906234Y-112683843D01*
X197826394Y-113002584D01*
X197822805Y-113014417D01*
X197712104Y-113323805D01*
X197707372Y-113335229D01*
X197566880Y-113632273D01*
X197561051Y-113643178D01*
X197392121Y-113925022D01*
X197385251Y-113935303D01*
X197189512Y-114199227D01*
X197181668Y-114208785D01*
X196961000Y-114452256D01*
X196952256Y-114461000D01*
X196708785Y-114681668D01*
X196699227Y-114689512D01*
X196435303Y-114885251D01*
X196425022Y-114892121D01*
X196143178Y-115061051D01*
X196132273Y-115066880D01*
X195835229Y-115207372D01*
X195823805Y-115212104D01*
X195514417Y-115322805D01*
X195502584Y-115326394D01*
X195183843Y-115406234D01*
X195171716Y-115408646D01*
X194846684Y-115456860D01*
X194834379Y-115458072D01*
X194503094Y-115474348D01*
X194496911Y-115474500D01*
X126503089Y-115474500D01*
X126496906Y-115474348D01*
X126165620Y-115458072D01*
X126153315Y-115456860D01*
X125828283Y-115408646D01*
X125816156Y-115406234D01*
X125497415Y-115326394D01*
X125485582Y-115322805D01*
X125176194Y-115212104D01*
X125164770Y-115207372D01*
X124867726Y-115066880D01*
X124856821Y-115061051D01*
X124574977Y-114892121D01*
X124564696Y-114885251D01*
X124300772Y-114689512D01*
X124291214Y-114681668D01*
X124047737Y-114460994D01*
X124039005Y-114452262D01*
X123818326Y-114208779D01*
X123810492Y-114199233D01*
X123614748Y-113935303D01*
X123607878Y-113925022D01*
X123438948Y-113643178D01*
X123433119Y-113632273D01*
X123322368Y-113398111D01*
X123292625Y-113335224D01*
X123287895Y-113323805D01*
X123177191Y-113014407D01*
X123173608Y-113002594D01*
X123093763Y-112683834D01*
X123091353Y-112671716D01*
X123072708Y-112546023D01*
X123043138Y-112346678D01*
X123041927Y-112334379D01*
X123025652Y-112003094D01*
X123025500Y-111996911D01*
X123025500Y-111500000D01*
X139986807Y-111500000D01*
X139987101Y-111504298D01*
X140005183Y-111768659D01*
X140005558Y-111774130D01*
X140006431Y-111778331D01*
X140006432Y-111778338D01*
X140050773Y-111991715D01*
X140061462Y-112043153D01*
X140062899Y-112047196D01*
X140062902Y-112047207D01*
X140152037Y-112298008D01*
X140152040Y-112298015D01*
X140153477Y-112302058D01*
X140155451Y-112305869D01*
X140155453Y-112305872D01*
X140277906Y-112542197D01*
X140277909Y-112542202D01*
X140279889Y-112546023D01*
X140438343Y-112770502D01*
X140625889Y-112971314D01*
X140839031Y-113144718D01*
X141073800Y-113287484D01*
X141325823Y-113396953D01*
X141590404Y-113471085D01*
X141862615Y-113508500D01*
X142133080Y-113508500D01*
X142137385Y-113508500D01*
X142409596Y-113471085D01*
X142674177Y-113396953D01*
X142926200Y-113287484D01*
X143160969Y-113144718D01*
X143374111Y-112971314D01*
X143561657Y-112770502D01*
X143720111Y-112546023D01*
X143846523Y-112302058D01*
X143938538Y-112043153D01*
X143994442Y-111774130D01*
X144013193Y-111500000D01*
X144009680Y-111448638D01*
X150591500Y-111448638D01*
X150591859Y-111451985D01*
X150591860Y-111451988D01*
X150597168Y-111501367D01*
X150597169Y-111501373D01*
X150598011Y-111509201D01*
X150600762Y-111516578D01*
X150600763Y-111516580D01*
X150645962Y-111637763D01*
X150645964Y-111637766D01*
X150649111Y-111646204D01*
X150654508Y-111653414D01*
X150654510Y-111653417D01*
X150731340Y-111756049D01*
X150736739Y-111763261D01*
X150853796Y-111850889D01*
X150990799Y-111901989D01*
X151051362Y-111908500D01*
X153945269Y-111908500D01*
X153948638Y-111908500D01*
X154009201Y-111901989D01*
X154146204Y-111850889D01*
X154263261Y-111763261D01*
X154350889Y-111646204D01*
X154401989Y-111509201D01*
X154408500Y-111448638D01*
X154408500Y-110000000D01*
X155586625Y-110000000D01*
X155586946Y-110004488D01*
X155605778Y-110267810D01*
X155605779Y-110267820D01*
X155606100Y-110272302D01*
X155664130Y-110539060D01*
X155665699Y-110543266D01*
X155665700Y-110543270D01*
X155757961Y-110790632D01*
X155757964Y-110790639D01*
X155759533Y-110794845D01*
X155890367Y-111034449D01*
X156053968Y-111252994D01*
X156247006Y-111446032D01*
X156465551Y-111609633D01*
X156705155Y-111740467D01*
X156960940Y-111835870D01*
X157227698Y-111893900D01*
X157500000Y-111913375D01*
X157772302Y-111893900D01*
X158039060Y-111835870D01*
X158294845Y-111740467D01*
X158534449Y-111609633D01*
X158749513Y-111448638D01*
X160591500Y-111448638D01*
X160591859Y-111451985D01*
X160591860Y-111451988D01*
X160597168Y-111501367D01*
X160597169Y-111501373D01*
X160598011Y-111509201D01*
X160600762Y-111516578D01*
X160600763Y-111516580D01*
X160645962Y-111637763D01*
X160645964Y-111637766D01*
X160649111Y-111646204D01*
X160654508Y-111653414D01*
X160654510Y-111653417D01*
X160731340Y-111756049D01*
X160736739Y-111763261D01*
X160853796Y-111850889D01*
X160990799Y-111901989D01*
X161051362Y-111908500D01*
X163945269Y-111908500D01*
X163948638Y-111908500D01*
X164009201Y-111901989D01*
X164146204Y-111850889D01*
X164263261Y-111763261D01*
X164350889Y-111646204D01*
X164401989Y-111509201D01*
X164408500Y-111448638D01*
X164408500Y-110000000D01*
X165586625Y-110000000D01*
X165586946Y-110004488D01*
X165605778Y-110267810D01*
X165605779Y-110267820D01*
X165606100Y-110272302D01*
X165664130Y-110539060D01*
X165665699Y-110543266D01*
X165665700Y-110543270D01*
X165757961Y-110790632D01*
X165757964Y-110790639D01*
X165759533Y-110794845D01*
X165890367Y-111034449D01*
X166053968Y-111252994D01*
X166247006Y-111446032D01*
X166465551Y-111609633D01*
X166705155Y-111740467D01*
X166960940Y-111835870D01*
X167227698Y-111893900D01*
X167500000Y-111913375D01*
X167772302Y-111893900D01*
X168039060Y-111835870D01*
X168294845Y-111740467D01*
X168534449Y-111609633D01*
X168749513Y-111448638D01*
X170591500Y-111448638D01*
X170591859Y-111451985D01*
X170591860Y-111451988D01*
X170597168Y-111501367D01*
X170597169Y-111501373D01*
X170598011Y-111509201D01*
X170600762Y-111516578D01*
X170600763Y-111516580D01*
X170645962Y-111637763D01*
X170645964Y-111637766D01*
X170649111Y-111646204D01*
X170654508Y-111653414D01*
X170654510Y-111653417D01*
X170731340Y-111756049D01*
X170736739Y-111763261D01*
X170853796Y-111850889D01*
X170990799Y-111901989D01*
X171051362Y-111908500D01*
X173945269Y-111908500D01*
X173948638Y-111908500D01*
X174009201Y-111901989D01*
X174146204Y-111850889D01*
X174263261Y-111763261D01*
X174350889Y-111646204D01*
X174401989Y-111509201D01*
X174408500Y-111448638D01*
X174408500Y-110000000D01*
X175586625Y-110000000D01*
X175586946Y-110004488D01*
X175605778Y-110267810D01*
X175605779Y-110267820D01*
X175606100Y-110272302D01*
X175664130Y-110539060D01*
X175665699Y-110543266D01*
X175665700Y-110543270D01*
X175757961Y-110790632D01*
X175757964Y-110790639D01*
X175759533Y-110794845D01*
X175890367Y-111034449D01*
X176053968Y-111252994D01*
X176247006Y-111446032D01*
X176465551Y-111609633D01*
X176705155Y-111740467D01*
X176960940Y-111835870D01*
X177227698Y-111893900D01*
X177500000Y-111913375D01*
X177772302Y-111893900D01*
X178039060Y-111835870D01*
X178294845Y-111740467D01*
X178534449Y-111609633D01*
X178749513Y-111448638D01*
X180591500Y-111448638D01*
X180591859Y-111451985D01*
X180591860Y-111451988D01*
X180597168Y-111501367D01*
X180597169Y-111501373D01*
X180598011Y-111509201D01*
X180600762Y-111516578D01*
X180600763Y-111516580D01*
X180645962Y-111637763D01*
X180645964Y-111637766D01*
X180649111Y-111646204D01*
X180654508Y-111653414D01*
X180654510Y-111653417D01*
X180731340Y-111756049D01*
X180736739Y-111763261D01*
X180853796Y-111850889D01*
X180990799Y-111901989D01*
X181051362Y-111908500D01*
X183945269Y-111908500D01*
X183948638Y-111908500D01*
X184009201Y-111901989D01*
X184146204Y-111850889D01*
X184263261Y-111763261D01*
X184350889Y-111646204D01*
X184401989Y-111509201D01*
X184408500Y-111448638D01*
X184408500Y-110000000D01*
X185586625Y-110000000D01*
X185586946Y-110004488D01*
X185605778Y-110267810D01*
X185605779Y-110267820D01*
X185606100Y-110272302D01*
X185664130Y-110539060D01*
X185665699Y-110543266D01*
X185665700Y-110543270D01*
X185757961Y-110790632D01*
X185757964Y-110790639D01*
X185759533Y-110794845D01*
X185890367Y-111034449D01*
X186053968Y-111252994D01*
X186247006Y-111446032D01*
X186465551Y-111609633D01*
X186705155Y-111740467D01*
X186960940Y-111835870D01*
X187227698Y-111893900D01*
X187500000Y-111913375D01*
X187772302Y-111893900D01*
X188039060Y-111835870D01*
X188294845Y-111740467D01*
X188534449Y-111609633D01*
X188752994Y-111446032D01*
X188946032Y-111252994D01*
X189109633Y-111034449D01*
X189240467Y-110794845D01*
X189335870Y-110539060D01*
X189393900Y-110272302D01*
X189413375Y-110000000D01*
X189393900Y-109727698D01*
X189335870Y-109460940D01*
X189240467Y-109205155D01*
X189109633Y-108965551D01*
X188946032Y-108747006D01*
X188752994Y-108553968D01*
X188534449Y-108390367D01*
X188294845Y-108259533D01*
X188290639Y-108257964D01*
X188290632Y-108257961D01*
X188043270Y-108165700D01*
X188043266Y-108165699D01*
X188039060Y-108164130D01*
X188034665Y-108163174D01*
X188034662Y-108163173D01*
X187776706Y-108107058D01*
X187776705Y-108107057D01*
X187772302Y-108106100D01*
X187767820Y-108105779D01*
X187767810Y-108105778D01*
X187504488Y-108086946D01*
X187500000Y-108086625D01*
X187495512Y-108086946D01*
X187232189Y-108105778D01*
X187232177Y-108105779D01*
X187227698Y-108106100D01*
X187223296Y-108107057D01*
X187223293Y-108107058D01*
X186965337Y-108163173D01*
X186965330Y-108163174D01*
X186960940Y-108164130D01*
X186956736Y-108165697D01*
X186956729Y-108165700D01*
X186709367Y-108257961D01*
X186709355Y-108257966D01*
X186705155Y-108259533D01*
X186701207Y-108261688D01*
X186701202Y-108261691D01*
X186469510Y-108388205D01*
X186465551Y-108390367D01*
X186461948Y-108393063D01*
X186461942Y-108393068D01*
X186250609Y-108551270D01*
X186250602Y-108551276D01*
X186247006Y-108553968D01*
X186243827Y-108557146D01*
X186243820Y-108557153D01*
X186057153Y-108743820D01*
X186057146Y-108743827D01*
X186053968Y-108747006D01*
X186051276Y-108750602D01*
X186051270Y-108750609D01*
X185893068Y-108961942D01*
X185893063Y-108961948D01*
X185890367Y-108965551D01*
X185888206Y-108969507D01*
X185888205Y-108969510D01*
X185761691Y-109201202D01*
X185761688Y-109201207D01*
X185759533Y-109205155D01*
X185757966Y-109209355D01*
X185757961Y-109209367D01*
X185665700Y-109456729D01*
X185665697Y-109456736D01*
X185664130Y-109460940D01*
X185663174Y-109465330D01*
X185663173Y-109465337D01*
X185608916Y-109714752D01*
X185606100Y-109727698D01*
X185605779Y-109732177D01*
X185605778Y-109732189D01*
X185597135Y-109853048D01*
X185586625Y-110000000D01*
X184408500Y-110000000D01*
X184408500Y-108551362D01*
X184401989Y-108490799D01*
X184350889Y-108353796D01*
X184263261Y-108236739D01*
X184256049Y-108231340D01*
X184153417Y-108154510D01*
X184153414Y-108154508D01*
X184146204Y-108149111D01*
X184137766Y-108145964D01*
X184137763Y-108145962D01*
X184016580Y-108100763D01*
X184016578Y-108100762D01*
X184009201Y-108098011D01*
X184001373Y-108097169D01*
X184001367Y-108097168D01*
X183951988Y-108091860D01*
X183951985Y-108091859D01*
X183948638Y-108091500D01*
X181051362Y-108091500D01*
X181048015Y-108091859D01*
X181048011Y-108091860D01*
X180998632Y-108097168D01*
X180998625Y-108097169D01*
X180990799Y-108098011D01*
X180983423Y-108100761D01*
X180983419Y-108100763D01*
X180862236Y-108145962D01*
X180862230Y-108145965D01*
X180853796Y-108149111D01*
X180846588Y-108154506D01*
X180846582Y-108154510D01*
X180743950Y-108231340D01*
X180743946Y-108231343D01*
X180736739Y-108236739D01*
X180731343Y-108243946D01*
X180731340Y-108243950D01*
X180654510Y-108346582D01*
X180654506Y-108346588D01*
X180649111Y-108353796D01*
X180645965Y-108362230D01*
X180645962Y-108362236D01*
X180600763Y-108483419D01*
X180600761Y-108483423D01*
X180598011Y-108490799D01*
X180597169Y-108498625D01*
X180597168Y-108498632D01*
X180591860Y-108548011D01*
X180591500Y-108551362D01*
X180591500Y-111448638D01*
X178749513Y-111448638D01*
X178752994Y-111446032D01*
X178946032Y-111252994D01*
X179109633Y-111034449D01*
X179240467Y-110794845D01*
X179335870Y-110539060D01*
X179393900Y-110272302D01*
X179413375Y-110000000D01*
X179393900Y-109727698D01*
X179335870Y-109460940D01*
X179240467Y-109205155D01*
X179109633Y-108965551D01*
X178946032Y-108747006D01*
X178752994Y-108553968D01*
X178534449Y-108390367D01*
X178294845Y-108259533D01*
X178290639Y-108257964D01*
X178290632Y-108257961D01*
X178043270Y-108165700D01*
X178043266Y-108165699D01*
X178039060Y-108164130D01*
X178034665Y-108163174D01*
X178034662Y-108163173D01*
X177776706Y-108107058D01*
X177776705Y-108107057D01*
X177772302Y-108106100D01*
X177767820Y-108105779D01*
X177767810Y-108105778D01*
X177504488Y-108086946D01*
X177500000Y-108086625D01*
X177495512Y-108086946D01*
X177232189Y-108105778D01*
X177232177Y-108105779D01*
X177227698Y-108106100D01*
X177223296Y-108107057D01*
X177223293Y-108107058D01*
X176965337Y-108163173D01*
X176965330Y-108163174D01*
X176960940Y-108164130D01*
X176956736Y-108165697D01*
X176956729Y-108165700D01*
X176709367Y-108257961D01*
X176709355Y-108257966D01*
X176705155Y-108259533D01*
X176701207Y-108261688D01*
X176701202Y-108261691D01*
X176469510Y-108388205D01*
X176465551Y-108390367D01*
X176461948Y-108393063D01*
X176461942Y-108393068D01*
X176250609Y-108551270D01*
X176250602Y-108551276D01*
X176247006Y-108553968D01*
X176243827Y-108557146D01*
X176243820Y-108557153D01*
X176057153Y-108743820D01*
X176057146Y-108743827D01*
X176053968Y-108747006D01*
X176051276Y-108750602D01*
X176051270Y-108750609D01*
X175893068Y-108961942D01*
X175893063Y-108961948D01*
X175890367Y-108965551D01*
X175888206Y-108969507D01*
X175888205Y-108969510D01*
X175761691Y-109201202D01*
X175761688Y-109201207D01*
X175759533Y-109205155D01*
X175757966Y-109209355D01*
X175757961Y-109209367D01*
X175665700Y-109456729D01*
X175665697Y-109456736D01*
X175664130Y-109460940D01*
X175663174Y-109465330D01*
X175663173Y-109465337D01*
X175608916Y-109714752D01*
X175606100Y-109727698D01*
X175605779Y-109732177D01*
X175605778Y-109732189D01*
X175597135Y-109853048D01*
X175586625Y-110000000D01*
X174408500Y-110000000D01*
X174408500Y-108551362D01*
X174401989Y-108490799D01*
X174350889Y-108353796D01*
X174263261Y-108236739D01*
X174256049Y-108231340D01*
X174153417Y-108154510D01*
X174153414Y-108154508D01*
X174146204Y-108149111D01*
X174137766Y-108145964D01*
X174137763Y-108145962D01*
X174016580Y-108100763D01*
X174016578Y-108100762D01*
X174009201Y-108098011D01*
X174001373Y-108097169D01*
X174001367Y-108097168D01*
X173951988Y-108091860D01*
X173951985Y-108091859D01*
X173948638Y-108091500D01*
X171051362Y-108091500D01*
X171048015Y-108091859D01*
X171048011Y-108091860D01*
X170998632Y-108097168D01*
X170998625Y-108097169D01*
X170990799Y-108098011D01*
X170983423Y-108100761D01*
X170983419Y-108100763D01*
X170862236Y-108145962D01*
X170862230Y-108145965D01*
X170853796Y-108149111D01*
X170846588Y-108154506D01*
X170846582Y-108154510D01*
X170743950Y-108231340D01*
X170743946Y-108231343D01*
X170736739Y-108236739D01*
X170731343Y-108243946D01*
X170731340Y-108243950D01*
X170654510Y-108346582D01*
X170654506Y-108346588D01*
X170649111Y-108353796D01*
X170645965Y-108362230D01*
X170645962Y-108362236D01*
X170600763Y-108483419D01*
X170600761Y-108483423D01*
X170598011Y-108490799D01*
X170597169Y-108498625D01*
X170597168Y-108498632D01*
X170591860Y-108548011D01*
X170591500Y-108551362D01*
X170591500Y-111448638D01*
X168749513Y-111448638D01*
X168752994Y-111446032D01*
X168946032Y-111252994D01*
X169109633Y-111034449D01*
X169240467Y-110794845D01*
X169335870Y-110539060D01*
X169393900Y-110272302D01*
X169413375Y-110000000D01*
X169393900Y-109727698D01*
X169335870Y-109460940D01*
X169240467Y-109205155D01*
X169109633Y-108965551D01*
X168946032Y-108747006D01*
X168752994Y-108553968D01*
X168534449Y-108390367D01*
X168294845Y-108259533D01*
X168290639Y-108257964D01*
X168290632Y-108257961D01*
X168043270Y-108165700D01*
X168043266Y-108165699D01*
X168039060Y-108164130D01*
X168034665Y-108163174D01*
X168034662Y-108163173D01*
X167776706Y-108107058D01*
X167776705Y-108107057D01*
X167772302Y-108106100D01*
X167767820Y-108105779D01*
X167767810Y-108105778D01*
X167504488Y-108086946D01*
X167500000Y-108086625D01*
X167495512Y-108086946D01*
X167232189Y-108105778D01*
X167232177Y-108105779D01*
X167227698Y-108106100D01*
X167223296Y-108107057D01*
X167223293Y-108107058D01*
X166965337Y-108163173D01*
X166965330Y-108163174D01*
X166960940Y-108164130D01*
X166956736Y-108165697D01*
X166956729Y-108165700D01*
X166709367Y-108257961D01*
X166709355Y-108257966D01*
X166705155Y-108259533D01*
X166701207Y-108261688D01*
X166701202Y-108261691D01*
X166469510Y-108388205D01*
X166465551Y-108390367D01*
X166461948Y-108393063D01*
X166461942Y-108393068D01*
X166250609Y-108551270D01*
X166250602Y-108551276D01*
X166247006Y-108553968D01*
X166243827Y-108557146D01*
X166243820Y-108557153D01*
X166057153Y-108743820D01*
X166057146Y-108743827D01*
X166053968Y-108747006D01*
X166051276Y-108750602D01*
X166051270Y-108750609D01*
X165893068Y-108961942D01*
X165893063Y-108961948D01*
X165890367Y-108965551D01*
X165888206Y-108969507D01*
X165888205Y-108969510D01*
X165761691Y-109201202D01*
X165761688Y-109201207D01*
X165759533Y-109205155D01*
X165757966Y-109209355D01*
X165757961Y-109209367D01*
X165665700Y-109456729D01*
X165665697Y-109456736D01*
X165664130Y-109460940D01*
X165663174Y-109465330D01*
X165663173Y-109465337D01*
X165608916Y-109714752D01*
X165606100Y-109727698D01*
X165605779Y-109732177D01*
X165605778Y-109732189D01*
X165597135Y-109853048D01*
X165586625Y-110000000D01*
X164408500Y-110000000D01*
X164408500Y-108551362D01*
X164401989Y-108490799D01*
X164350889Y-108353796D01*
X164263261Y-108236739D01*
X164256049Y-108231340D01*
X164153417Y-108154510D01*
X164153414Y-108154508D01*
X164146204Y-108149111D01*
X164137766Y-108145964D01*
X164137763Y-108145962D01*
X164016580Y-108100763D01*
X164016578Y-108100762D01*
X164009201Y-108098011D01*
X164001373Y-108097169D01*
X164001367Y-108097168D01*
X163951988Y-108091860D01*
X163951985Y-108091859D01*
X163948638Y-108091500D01*
X161051362Y-108091500D01*
X161048015Y-108091859D01*
X161048011Y-108091860D01*
X160998632Y-108097168D01*
X160998625Y-108097169D01*
X160990799Y-108098011D01*
X160983423Y-108100761D01*
X160983419Y-108100763D01*
X160862236Y-108145962D01*
X160862230Y-108145965D01*
X160853796Y-108149111D01*
X160846588Y-108154506D01*
X160846582Y-108154510D01*
X160743950Y-108231340D01*
X160743946Y-108231343D01*
X160736739Y-108236739D01*
X160731343Y-108243946D01*
X160731340Y-108243950D01*
X160654510Y-108346582D01*
X160654506Y-108346588D01*
X160649111Y-108353796D01*
X160645965Y-108362230D01*
X160645962Y-108362236D01*
X160600763Y-108483419D01*
X160600761Y-108483423D01*
X160598011Y-108490799D01*
X160597169Y-108498625D01*
X160597168Y-108498632D01*
X160591860Y-108548011D01*
X160591500Y-108551362D01*
X160591500Y-111448638D01*
X158749513Y-111448638D01*
X158752994Y-111446032D01*
X158946032Y-111252994D01*
X159109633Y-111034449D01*
X159240467Y-110794845D01*
X159335870Y-110539060D01*
X159393900Y-110272302D01*
X159413375Y-110000000D01*
X159393900Y-109727698D01*
X159335870Y-109460940D01*
X159240467Y-109205155D01*
X159109633Y-108965551D01*
X158946032Y-108747006D01*
X158752994Y-108553968D01*
X158534449Y-108390367D01*
X158294845Y-108259533D01*
X158290639Y-108257964D01*
X158290632Y-108257961D01*
X158043270Y-108165700D01*
X158043266Y-108165699D01*
X158039060Y-108164130D01*
X158034665Y-108163174D01*
X158034662Y-108163173D01*
X157776706Y-108107058D01*
X157776705Y-108107057D01*
X157772302Y-108106100D01*
X157767820Y-108105779D01*
X157767810Y-108105778D01*
X157504488Y-108086946D01*
X157500000Y-108086625D01*
X157495512Y-108086946D01*
X157232189Y-108105778D01*
X157232177Y-108105779D01*
X157227698Y-108106100D01*
X157223296Y-108107057D01*
X157223293Y-108107058D01*
X156965337Y-108163173D01*
X156965330Y-108163174D01*
X156960940Y-108164130D01*
X156956736Y-108165697D01*
X156956729Y-108165700D01*
X156709367Y-108257961D01*
X156709355Y-108257966D01*
X156705155Y-108259533D01*
X156701207Y-108261688D01*
X156701202Y-108261691D01*
X156469510Y-108388205D01*
X156465551Y-108390367D01*
X156461948Y-108393063D01*
X156461942Y-108393068D01*
X156250609Y-108551270D01*
X156250602Y-108551276D01*
X156247006Y-108553968D01*
X156243827Y-108557146D01*
X156243820Y-108557153D01*
X156057153Y-108743820D01*
X156057146Y-108743827D01*
X156053968Y-108747006D01*
X156051276Y-108750602D01*
X156051270Y-108750609D01*
X155893068Y-108961942D01*
X155893063Y-108961948D01*
X155890367Y-108965551D01*
X155888206Y-108969507D01*
X155888205Y-108969510D01*
X155761691Y-109201202D01*
X155761688Y-109201207D01*
X155759533Y-109205155D01*
X155757966Y-109209355D01*
X155757961Y-109209367D01*
X155665700Y-109456729D01*
X155665697Y-109456736D01*
X155664130Y-109460940D01*
X155663174Y-109465330D01*
X155663173Y-109465337D01*
X155608916Y-109714752D01*
X155606100Y-109727698D01*
X155605779Y-109732177D01*
X155605778Y-109732189D01*
X155597135Y-109853048D01*
X155586625Y-110000000D01*
X154408500Y-110000000D01*
X154408500Y-108551362D01*
X154401989Y-108490799D01*
X154350889Y-108353796D01*
X154263261Y-108236739D01*
X154256049Y-108231340D01*
X154153417Y-108154510D01*
X154153414Y-108154508D01*
X154146204Y-108149111D01*
X154137766Y-108145964D01*
X154137763Y-108145962D01*
X154016580Y-108100763D01*
X154016578Y-108100762D01*
X154009201Y-108098011D01*
X154001373Y-108097169D01*
X154001367Y-108097168D01*
X153951988Y-108091860D01*
X153951985Y-108091859D01*
X153948638Y-108091500D01*
X151051362Y-108091500D01*
X151048015Y-108091859D01*
X151048011Y-108091860D01*
X150998632Y-108097168D01*
X150998625Y-108097169D01*
X150990799Y-108098011D01*
X150983423Y-108100761D01*
X150983419Y-108100763D01*
X150862236Y-108145962D01*
X150862230Y-108145965D01*
X150853796Y-108149111D01*
X150846588Y-108154506D01*
X150846582Y-108154510D01*
X150743950Y-108231340D01*
X150743946Y-108231343D01*
X150736739Y-108236739D01*
X150731343Y-108243946D01*
X150731340Y-108243950D01*
X150654510Y-108346582D01*
X150654506Y-108346588D01*
X150649111Y-108353796D01*
X150645965Y-108362230D01*
X150645962Y-108362236D01*
X150600763Y-108483419D01*
X150600761Y-108483423D01*
X150598011Y-108490799D01*
X150597169Y-108498625D01*
X150597168Y-108498632D01*
X150591860Y-108548011D01*
X150591500Y-108551362D01*
X150591500Y-111448638D01*
X144009680Y-111448638D01*
X143994442Y-111225870D01*
X143938538Y-110956847D01*
X143846523Y-110697942D01*
X143720111Y-110453977D01*
X143561657Y-110229498D01*
X143374111Y-110028686D01*
X143160969Y-109855282D01*
X142926200Y-109712516D01*
X142922259Y-109710804D01*
X142922253Y-109710801D01*
X142678112Y-109604756D01*
X142678109Y-109604755D01*
X142674177Y-109603047D01*
X142670052Y-109601891D01*
X142670043Y-109601888D01*
X142413742Y-109530076D01*
X142413732Y-109530074D01*
X142409596Y-109528915D01*
X142405335Y-109528329D01*
X142405324Y-109528327D01*
X142141653Y-109492086D01*
X142141643Y-109492085D01*
X142137385Y-109491500D01*
X141862615Y-109491500D01*
X141858357Y-109492085D01*
X141858346Y-109492086D01*
X141594675Y-109528327D01*
X141594661Y-109528329D01*
X141590404Y-109528915D01*
X141586269Y-109530073D01*
X141586257Y-109530076D01*
X141329956Y-109601888D01*
X141329942Y-109601892D01*
X141325823Y-109603047D01*
X141321895Y-109604753D01*
X141321887Y-109604756D01*
X141077746Y-109710801D01*
X141077733Y-109710807D01*
X141073800Y-109712516D01*
X141070129Y-109714748D01*
X141070122Y-109714752D01*
X140842704Y-109853048D01*
X140842699Y-109853050D01*
X140839031Y-109855282D01*
X140835704Y-109857988D01*
X140835695Y-109857995D01*
X140629225Y-110025971D01*
X140629217Y-110025978D01*
X140625889Y-110028686D01*
X140622957Y-110031824D01*
X140622952Y-110031830D01*
X140441282Y-110226350D01*
X140441274Y-110226358D01*
X140438343Y-110229498D01*
X140435863Y-110233010D01*
X140435860Y-110233015D01*
X140282375Y-110450454D01*
X140282370Y-110450462D01*
X140279889Y-110453977D01*
X140277913Y-110457790D01*
X140277906Y-110457802D01*
X140155453Y-110694127D01*
X140155449Y-110694136D01*
X140153477Y-110697942D01*
X140152042Y-110701978D01*
X140152037Y-110701991D01*
X140062902Y-110952792D01*
X140062897Y-110952807D01*
X140061462Y-110956847D01*
X140060587Y-110961054D01*
X140060587Y-110961057D01*
X140006432Y-111221661D01*
X140006430Y-111221670D01*
X140005558Y-111225870D01*
X140005264Y-111230157D01*
X140005264Y-111230163D01*
X139990320Y-111448638D01*
X139986807Y-111500000D01*
X123025500Y-111500000D01*
X123025500Y-101500000D01*
X129586496Y-101500000D01*
X129606458Y-101689928D01*
X129608495Y-101696200D01*
X129608497Y-101696205D01*
X129663430Y-101865271D01*
X129663433Y-101865278D01*
X129665473Y-101871556D01*
X129760960Y-102036944D01*
X129888747Y-102178866D01*
X130043248Y-102291118D01*
X130217712Y-102368794D01*
X130404513Y-102408500D01*
X130588884Y-102408500D01*
X130595487Y-102408500D01*
X130782288Y-102368794D01*
X130956752Y-102291118D01*
X131111253Y-102178866D01*
X131239040Y-102036944D01*
X131334527Y-101871556D01*
X131393542Y-101689928D01*
X131413504Y-101500000D01*
X131393542Y-101310072D01*
X131368297Y-101232379D01*
X131336569Y-101134728D01*
X131336568Y-101134726D01*
X131334527Y-101128444D01*
X131239040Y-100963056D01*
X131111253Y-100821134D01*
X131105911Y-100817253D01*
X131105908Y-100817250D01*
X131028057Y-100760688D01*
X130956752Y-100708882D01*
X130782288Y-100631206D01*
X130775835Y-100629834D01*
X130775831Y-100629833D01*
X130660963Y-100605417D01*
X133576496Y-100605417D01*
X133577186Y-100611982D01*
X133579206Y-100631206D01*
X133596458Y-100795345D01*
X133598495Y-100801617D01*
X133598497Y-100801622D01*
X133653430Y-100970688D01*
X133653433Y-100970695D01*
X133655473Y-100976973D01*
X133750960Y-101142361D01*
X133878747Y-101284283D01*
X133884089Y-101288164D01*
X133884091Y-101288166D01*
X133927298Y-101319558D01*
X134033248Y-101396535D01*
X134207712Y-101474211D01*
X134394513Y-101513917D01*
X134578884Y-101513917D01*
X134585487Y-101513917D01*
X134772288Y-101474211D01*
X134946752Y-101396535D01*
X135101253Y-101284283D01*
X135229040Y-101142361D01*
X135324527Y-100976973D01*
X135383542Y-100795345D01*
X135403504Y-100605417D01*
X135383542Y-100415489D01*
X135324527Y-100233861D01*
X135265380Y-100131417D01*
X135248500Y-100068418D01*
X135248500Y-98948638D01*
X147591500Y-98948638D01*
X147591859Y-98951985D01*
X147591860Y-98951988D01*
X147597168Y-99001367D01*
X147597169Y-99001373D01*
X147598011Y-99009201D01*
X147600762Y-99016578D01*
X147600763Y-99016580D01*
X147645962Y-99137763D01*
X147645964Y-99137766D01*
X147649111Y-99146204D01*
X147654508Y-99153414D01*
X147654510Y-99153417D01*
X147731340Y-99256049D01*
X147736739Y-99263261D01*
X147853796Y-99350889D01*
X147990799Y-99401989D01*
X148051362Y-99408500D01*
X149745269Y-99408500D01*
X149748638Y-99408500D01*
X149809201Y-99401989D01*
X149946204Y-99350889D01*
X150063261Y-99263261D01*
X150150889Y-99146204D01*
X150201989Y-99009201D01*
X150208500Y-98948638D01*
X160191500Y-98948638D01*
X160191859Y-98951985D01*
X160191860Y-98951988D01*
X160197168Y-99001367D01*
X160197169Y-99001373D01*
X160198011Y-99009201D01*
X160200762Y-99016578D01*
X160200763Y-99016580D01*
X160245962Y-99137763D01*
X160245964Y-99137766D01*
X160249111Y-99146204D01*
X160254508Y-99153414D01*
X160254510Y-99153417D01*
X160331340Y-99256049D01*
X160336739Y-99263261D01*
X160453796Y-99350889D01*
X160590799Y-99401989D01*
X160651362Y-99408500D01*
X162345269Y-99408500D01*
X162348638Y-99408500D01*
X162409201Y-99401989D01*
X162546204Y-99350889D01*
X162663261Y-99263261D01*
X162750889Y-99146204D01*
X162801989Y-99009201D01*
X162808500Y-98948638D01*
X172791500Y-98948638D01*
X172791859Y-98951985D01*
X172791860Y-98951988D01*
X172797168Y-99001367D01*
X172797169Y-99001373D01*
X172798011Y-99009201D01*
X172800762Y-99016578D01*
X172800763Y-99016580D01*
X172845962Y-99137763D01*
X172845964Y-99137766D01*
X172849111Y-99146204D01*
X172854508Y-99153414D01*
X172854510Y-99153417D01*
X172931340Y-99256049D01*
X172936739Y-99263261D01*
X173053796Y-99350889D01*
X173190799Y-99401989D01*
X173251362Y-99408500D01*
X174945269Y-99408500D01*
X174948638Y-99408500D01*
X175009201Y-99401989D01*
X175146204Y-99350889D01*
X175263261Y-99263261D01*
X175350889Y-99146204D01*
X175401989Y-99009201D01*
X175408500Y-98948638D01*
X185291500Y-98948638D01*
X185291859Y-98951985D01*
X185291860Y-98951988D01*
X185297168Y-99001367D01*
X185297169Y-99001373D01*
X185298011Y-99009201D01*
X185300762Y-99016578D01*
X185300763Y-99016580D01*
X185345962Y-99137763D01*
X185345964Y-99137766D01*
X185349111Y-99146204D01*
X185354508Y-99153414D01*
X185354510Y-99153417D01*
X185431340Y-99256049D01*
X185436739Y-99263261D01*
X185553796Y-99350889D01*
X185690799Y-99401989D01*
X185751362Y-99408500D01*
X187445269Y-99408500D01*
X187448638Y-99408500D01*
X187509201Y-99401989D01*
X187646204Y-99350889D01*
X187763261Y-99263261D01*
X187850889Y-99146204D01*
X187901989Y-99009201D01*
X187908500Y-98948638D01*
X187908500Y-97251362D01*
X187901989Y-97190799D01*
X187850889Y-97053796D01*
X187763261Y-96936739D01*
X187756049Y-96931340D01*
X187653417Y-96854510D01*
X187653414Y-96854508D01*
X187646204Y-96849111D01*
X187637766Y-96845964D01*
X187637763Y-96845962D01*
X187516580Y-96800763D01*
X187516578Y-96800762D01*
X187509201Y-96798011D01*
X187501373Y-96797169D01*
X187501367Y-96797168D01*
X187451988Y-96791860D01*
X187451985Y-96791859D01*
X187448638Y-96791500D01*
X185751362Y-96791500D01*
X185748015Y-96791859D01*
X185748011Y-96791860D01*
X185698632Y-96797168D01*
X185698625Y-96797169D01*
X185690799Y-96798011D01*
X185683423Y-96800761D01*
X185683419Y-96800763D01*
X185562236Y-96845962D01*
X185562230Y-96845965D01*
X185553796Y-96849111D01*
X185546588Y-96854506D01*
X185546582Y-96854510D01*
X185443950Y-96931340D01*
X185443946Y-96931343D01*
X185436739Y-96936739D01*
X185431343Y-96943946D01*
X185431340Y-96943950D01*
X185354510Y-97046582D01*
X185354506Y-97046588D01*
X185349111Y-97053796D01*
X185345965Y-97062230D01*
X185345962Y-97062236D01*
X185300763Y-97183419D01*
X185300761Y-97183423D01*
X185298011Y-97190799D01*
X185297169Y-97198625D01*
X185297168Y-97198632D01*
X185291860Y-97248011D01*
X185291500Y-97251362D01*
X185291500Y-98948638D01*
X175408500Y-98948638D01*
X175408500Y-97251362D01*
X175401989Y-97190799D01*
X175350889Y-97053796D01*
X175263261Y-96936739D01*
X175256049Y-96931340D01*
X175153417Y-96854510D01*
X175153414Y-96854508D01*
X175146204Y-96849111D01*
X175137766Y-96845964D01*
X175137763Y-96845962D01*
X175016580Y-96800763D01*
X175016578Y-96800762D01*
X175009201Y-96798011D01*
X175001373Y-96797169D01*
X175001367Y-96797168D01*
X174951988Y-96791860D01*
X174951985Y-96791859D01*
X174948638Y-96791500D01*
X173251362Y-96791500D01*
X173248015Y-96791859D01*
X173248011Y-96791860D01*
X173198632Y-96797168D01*
X173198625Y-96797169D01*
X173190799Y-96798011D01*
X173183423Y-96800761D01*
X173183419Y-96800763D01*
X173062236Y-96845962D01*
X173062230Y-96845965D01*
X173053796Y-96849111D01*
X173046588Y-96854506D01*
X173046582Y-96854510D01*
X172943950Y-96931340D01*
X172943946Y-96931343D01*
X172936739Y-96936739D01*
X172931343Y-96943946D01*
X172931340Y-96943950D01*
X172854510Y-97046582D01*
X172854506Y-97046588D01*
X172849111Y-97053796D01*
X172845965Y-97062230D01*
X172845962Y-97062236D01*
X172800763Y-97183419D01*
X172800761Y-97183423D01*
X172798011Y-97190799D01*
X172797169Y-97198625D01*
X172797168Y-97198632D01*
X172791860Y-97248011D01*
X172791500Y-97251362D01*
X172791500Y-98948638D01*
X162808500Y-98948638D01*
X162808500Y-97251362D01*
X162801989Y-97190799D01*
X162750889Y-97053796D01*
X162663261Y-96936739D01*
X162656049Y-96931340D01*
X162553417Y-96854510D01*
X162553414Y-96854508D01*
X162546204Y-96849111D01*
X162537766Y-96845964D01*
X162537763Y-96845962D01*
X162416580Y-96800763D01*
X162416578Y-96800762D01*
X162409201Y-96798011D01*
X162401373Y-96797169D01*
X162401367Y-96797168D01*
X162351988Y-96791860D01*
X162351985Y-96791859D01*
X162348638Y-96791500D01*
X160651362Y-96791500D01*
X160648015Y-96791859D01*
X160648011Y-96791860D01*
X160598632Y-96797168D01*
X160598625Y-96797169D01*
X160590799Y-96798011D01*
X160583423Y-96800761D01*
X160583419Y-96800763D01*
X160462236Y-96845962D01*
X160462230Y-96845965D01*
X160453796Y-96849111D01*
X160446588Y-96854506D01*
X160446582Y-96854510D01*
X160343950Y-96931340D01*
X160343946Y-96931343D01*
X160336739Y-96936739D01*
X160331343Y-96943946D01*
X160331340Y-96943950D01*
X160254510Y-97046582D01*
X160254506Y-97046588D01*
X160249111Y-97053796D01*
X160245965Y-97062230D01*
X160245962Y-97062236D01*
X160200763Y-97183419D01*
X160200761Y-97183423D01*
X160198011Y-97190799D01*
X160197169Y-97198625D01*
X160197168Y-97198632D01*
X160191860Y-97248011D01*
X160191500Y-97251362D01*
X160191500Y-98948638D01*
X150208500Y-98948638D01*
X150208500Y-97251362D01*
X150201989Y-97190799D01*
X150150889Y-97053796D01*
X150063261Y-96936739D01*
X150056049Y-96931340D01*
X149953417Y-96854510D01*
X149953414Y-96854508D01*
X149946204Y-96849111D01*
X149937766Y-96845964D01*
X149937763Y-96845962D01*
X149816580Y-96800763D01*
X149816578Y-96800762D01*
X149809201Y-96798011D01*
X149801373Y-96797169D01*
X149801367Y-96797168D01*
X149751988Y-96791860D01*
X149751985Y-96791859D01*
X149748638Y-96791500D01*
X148051362Y-96791500D01*
X148048015Y-96791859D01*
X148048011Y-96791860D01*
X147998632Y-96797168D01*
X147998625Y-96797169D01*
X147990799Y-96798011D01*
X147983423Y-96800761D01*
X147983419Y-96800763D01*
X147862236Y-96845962D01*
X147862230Y-96845965D01*
X147853796Y-96849111D01*
X147846588Y-96854506D01*
X147846582Y-96854510D01*
X147743950Y-96931340D01*
X147743946Y-96931343D01*
X147736739Y-96936739D01*
X147731343Y-96943946D01*
X147731340Y-96943950D01*
X147654510Y-97046582D01*
X147654506Y-97046588D01*
X147649111Y-97053796D01*
X147645965Y-97062230D01*
X147645962Y-97062236D01*
X147600763Y-97183419D01*
X147600761Y-97183423D01*
X147598011Y-97190799D01*
X147597169Y-97198625D01*
X147597168Y-97198632D01*
X147591860Y-97248011D01*
X147591500Y-97251362D01*
X147591500Y-98948638D01*
X135248500Y-98948638D01*
X135248500Y-95836999D01*
X135265381Y-95773999D01*
X135324527Y-95671556D01*
X135383542Y-95489928D01*
X135403504Y-95300000D01*
X135383542Y-95110072D01*
X135324527Y-94928444D01*
X135229040Y-94763056D01*
X135101253Y-94621134D01*
X135095911Y-94617253D01*
X135095908Y-94617250D01*
X135018057Y-94560688D01*
X134946752Y-94508882D01*
X134772288Y-94431206D01*
X134765835Y-94429834D01*
X134765831Y-94429833D01*
X134591943Y-94392872D01*
X134591940Y-94392871D01*
X134585487Y-94391500D01*
X134394513Y-94391500D01*
X134388060Y-94392871D01*
X134388056Y-94392872D01*
X134214168Y-94429833D01*
X134214161Y-94429835D01*
X134207712Y-94431206D01*
X134201682Y-94433890D01*
X134201681Y-94433891D01*
X134039278Y-94506197D01*
X134039275Y-94506198D01*
X134033248Y-94508882D01*
X134027907Y-94512762D01*
X134027906Y-94512763D01*
X133884091Y-94617250D01*
X133884083Y-94617256D01*
X133878747Y-94621134D01*
X133874330Y-94626039D01*
X133874325Y-94626044D01*
X133755379Y-94758148D01*
X133750960Y-94763056D01*
X133747661Y-94768769D01*
X133747658Y-94768774D01*
X133658777Y-94922721D01*
X133655473Y-94928444D01*
X133653434Y-94934718D01*
X133653430Y-94934728D01*
X133598497Y-95103794D01*
X133598495Y-95103801D01*
X133596458Y-95110072D01*
X133576496Y-95300000D01*
X133596458Y-95489928D01*
X133598495Y-95496200D01*
X133598497Y-95496205D01*
X133653430Y-95665271D01*
X133653433Y-95665278D01*
X133655473Y-95671556D01*
X133658777Y-95677278D01*
X133714619Y-95773999D01*
X133731500Y-95836999D01*
X133731500Y-100068418D01*
X133714619Y-100131417D01*
X133655473Y-100233861D01*
X133653434Y-100240135D01*
X133653430Y-100240145D01*
X133598497Y-100409211D01*
X133598495Y-100409218D01*
X133596458Y-100415489D01*
X133576496Y-100605417D01*
X130660963Y-100605417D01*
X130601943Y-100592872D01*
X130601940Y-100592871D01*
X130595487Y-100591500D01*
X130404513Y-100591500D01*
X130398060Y-100592871D01*
X130398056Y-100592872D01*
X130224168Y-100629833D01*
X130224161Y-100629835D01*
X130217712Y-100631206D01*
X130211682Y-100633890D01*
X130211681Y-100633891D01*
X130049278Y-100706197D01*
X130049275Y-100706198D01*
X130043248Y-100708882D01*
X130037907Y-100712762D01*
X130037906Y-100712763D01*
X129894091Y-100817250D01*
X129894083Y-100817256D01*
X129888747Y-100821134D01*
X129884330Y-100826039D01*
X129884325Y-100826044D01*
X129765379Y-100958148D01*
X129760960Y-100963056D01*
X129757661Y-100968769D01*
X129757658Y-100968774D01*
X129749621Y-100982695D01*
X129665473Y-101128444D01*
X129663434Y-101134718D01*
X129663430Y-101134728D01*
X129608497Y-101303794D01*
X129608495Y-101303801D01*
X129606458Y-101310072D01*
X129605768Y-101316633D01*
X129605768Y-101316635D01*
X129589062Y-101475583D01*
X129586496Y-101500000D01*
X123025500Y-101500000D01*
X123025500Y-83037500D01*
X130796496Y-83037500D01*
X130797186Y-83044065D01*
X130811635Y-83181545D01*
X130816458Y-83227428D01*
X130818495Y-83233700D01*
X130818497Y-83233705D01*
X130873430Y-83402771D01*
X130873433Y-83402778D01*
X130875473Y-83409056D01*
X130923524Y-83492282D01*
X130960637Y-83556565D01*
X130970960Y-83574444D01*
X131048886Y-83660990D01*
X131086727Y-83703017D01*
X131098747Y-83716366D01*
X131104089Y-83720247D01*
X131104091Y-83720249D01*
X131125597Y-83735874D01*
X131253248Y-83828618D01*
X131427712Y-83906294D01*
X131614513Y-83946000D01*
X131798884Y-83946000D01*
X131805487Y-83946000D01*
X131992288Y-83906294D01*
X132166752Y-83828618D01*
X132321253Y-83716366D01*
X132371993Y-83660012D01*
X132430896Y-83623206D01*
X132500357Y-83623206D01*
X132559261Y-83660013D01*
X132598747Y-83703866D01*
X132604089Y-83707747D01*
X132604091Y-83707749D01*
X132635964Y-83730906D01*
X132753248Y-83816118D01*
X132927712Y-83893794D01*
X133114513Y-83933500D01*
X133298884Y-83933500D01*
X133305487Y-83933500D01*
X133492288Y-83893794D01*
X133666752Y-83816118D01*
X133821253Y-83703866D01*
X133860738Y-83660012D01*
X133919641Y-83623206D01*
X133989102Y-83623206D01*
X134048006Y-83660013D01*
X134098747Y-83716366D01*
X134104089Y-83720247D01*
X134104091Y-83720249D01*
X134125597Y-83735874D01*
X134253248Y-83828618D01*
X134427712Y-83906294D01*
X134614513Y-83946000D01*
X134798884Y-83946000D01*
X134805487Y-83946000D01*
X134992288Y-83906294D01*
X135166752Y-83828618D01*
X135321253Y-83716366D01*
X135449040Y-83574444D01*
X135544527Y-83409056D01*
X135603542Y-83227428D01*
X135623504Y-83037500D01*
X135603542Y-82847572D01*
X135549436Y-82681053D01*
X135546569Y-82672228D01*
X135546568Y-82672226D01*
X135544527Y-82665944D01*
X135449040Y-82500556D01*
X135321253Y-82358634D01*
X135315911Y-82354753D01*
X135315908Y-82354750D01*
X135233915Y-82295179D01*
X135166752Y-82246382D01*
X134992288Y-82168706D01*
X134985835Y-82167334D01*
X134985831Y-82167333D01*
X134811943Y-82130372D01*
X134811940Y-82130371D01*
X134805487Y-82129000D01*
X134614513Y-82129000D01*
X134608060Y-82130371D01*
X134608056Y-82130372D01*
X134434168Y-82167333D01*
X134434161Y-82167335D01*
X134427712Y-82168706D01*
X134421682Y-82171390D01*
X134421681Y-82171391D01*
X134259278Y-82243697D01*
X134259275Y-82243698D01*
X134253248Y-82246382D01*
X134247907Y-82250262D01*
X134247906Y-82250263D01*
X134104091Y-82354750D01*
X134104083Y-82354756D01*
X134098747Y-82358634D01*
X134094331Y-82363537D01*
X134094328Y-82363541D01*
X134059262Y-82402486D01*
X134000356Y-82439293D01*
X133930896Y-82439293D01*
X133871992Y-82402485D01*
X133821253Y-82346134D01*
X133815911Y-82342253D01*
X133815908Y-82342250D01*
X133689298Y-82250263D01*
X133666752Y-82233882D01*
X133492288Y-82156206D01*
X133485835Y-82154834D01*
X133485831Y-82154833D01*
X133311943Y-82117872D01*
X133311940Y-82117871D01*
X133305487Y-82116500D01*
X133114513Y-82116500D01*
X133108060Y-82117871D01*
X133108056Y-82117872D01*
X132934168Y-82154833D01*
X132934161Y-82154835D01*
X132927712Y-82156206D01*
X132921682Y-82158890D01*
X132921681Y-82158891D01*
X132759278Y-82231197D01*
X132759275Y-82231198D01*
X132753248Y-82233882D01*
X132747907Y-82237762D01*
X132747906Y-82237763D01*
X132604091Y-82342250D01*
X132604083Y-82342256D01*
X132598747Y-82346134D01*
X132594331Y-82351037D01*
X132594328Y-82351041D01*
X132548007Y-82402486D01*
X132489101Y-82439293D01*
X132419641Y-82439293D01*
X132360737Y-82402485D01*
X132321253Y-82358634D01*
X132315911Y-82354753D01*
X132315908Y-82354750D01*
X132233915Y-82295179D01*
X132166752Y-82246382D01*
X131992288Y-82168706D01*
X131985835Y-82167334D01*
X131985831Y-82167333D01*
X131811943Y-82130372D01*
X131811940Y-82130371D01*
X131805487Y-82129000D01*
X131614513Y-82129000D01*
X131608060Y-82130371D01*
X131608056Y-82130372D01*
X131434168Y-82167333D01*
X131434161Y-82167335D01*
X131427712Y-82168706D01*
X131421682Y-82171390D01*
X131421681Y-82171391D01*
X131259278Y-82243697D01*
X131259275Y-82243698D01*
X131253248Y-82246382D01*
X131247907Y-82250262D01*
X131247906Y-82250263D01*
X131104091Y-82354750D01*
X131104083Y-82354756D01*
X131098747Y-82358634D01*
X131094330Y-82363539D01*
X131094325Y-82363544D01*
X131003133Y-82464824D01*
X130970960Y-82500556D01*
X130967661Y-82506269D01*
X130967658Y-82506274D01*
X130896715Y-82629152D01*
X130875473Y-82665944D01*
X130873434Y-82672218D01*
X130873430Y-82672228D01*
X130818497Y-82841294D01*
X130818495Y-82841301D01*
X130816458Y-82847572D01*
X130815768Y-82854133D01*
X130815768Y-82854135D01*
X130799581Y-83008148D01*
X130796496Y-83037500D01*
X123025500Y-83037500D01*
X123025500Y-78450000D01*
X131186496Y-78450000D01*
X131206458Y-78639928D01*
X131208495Y-78646200D01*
X131208497Y-78646205D01*
X131263430Y-78815271D01*
X131263433Y-78815278D01*
X131265473Y-78821556D01*
X131319806Y-78915663D01*
X131352436Y-78972181D01*
X131360960Y-78986944D01*
X131438799Y-79073393D01*
X131482965Y-79122445D01*
X131488747Y-79128866D01*
X131643248Y-79241118D01*
X131817712Y-79318794D01*
X132004513Y-79358500D01*
X132188884Y-79358500D01*
X132195487Y-79358500D01*
X132382288Y-79318794D01*
X132556752Y-79241118D01*
X132711253Y-79128866D01*
X132839040Y-78986944D01*
X132934527Y-78821556D01*
X132993542Y-78639928D01*
X133013504Y-78450000D01*
X132993542Y-78260072D01*
X132947498Y-78118365D01*
X132936569Y-78084728D01*
X132936568Y-78084726D01*
X132934527Y-78078444D01*
X132839040Y-77913056D01*
X132711253Y-77771134D01*
X132705911Y-77767253D01*
X132705908Y-77767250D01*
X132597885Y-77688767D01*
X132556752Y-77658882D01*
X132382288Y-77581206D01*
X132375835Y-77579834D01*
X132375831Y-77579833D01*
X132201943Y-77542872D01*
X132201940Y-77542871D01*
X132195487Y-77541500D01*
X132004513Y-77541500D01*
X131998060Y-77542871D01*
X131998056Y-77542872D01*
X131824168Y-77579833D01*
X131824161Y-77579835D01*
X131817712Y-77581206D01*
X131811682Y-77583890D01*
X131811681Y-77583891D01*
X131649278Y-77656197D01*
X131649275Y-77656198D01*
X131643248Y-77658882D01*
X131637907Y-77662762D01*
X131637906Y-77662763D01*
X131494091Y-77767250D01*
X131494083Y-77767256D01*
X131488747Y-77771134D01*
X131484330Y-77776039D01*
X131484325Y-77776044D01*
X131373522Y-77899104D01*
X131360960Y-77913056D01*
X131357661Y-77918769D01*
X131357658Y-77918774D01*
X131276101Y-78060035D01*
X131265473Y-78078444D01*
X131263434Y-78084718D01*
X131263430Y-78084728D01*
X131208497Y-78253794D01*
X131208495Y-78253801D01*
X131206458Y-78260072D01*
X131205768Y-78266633D01*
X131205768Y-78266635D01*
X131196299Y-78356725D01*
X131186496Y-78450000D01*
X123025500Y-78450000D01*
X123025500Y-64500000D01*
X140536496Y-64500000D01*
X140556458Y-64689928D01*
X140558495Y-64696200D01*
X140558497Y-64696205D01*
X140613430Y-64865271D01*
X140613433Y-64865278D01*
X140615473Y-64871556D01*
X140710960Y-65036944D01*
X140838747Y-65178866D01*
X140993248Y-65291118D01*
X141167712Y-65368794D01*
X141354513Y-65408500D01*
X141538884Y-65408500D01*
X141545487Y-65408500D01*
X141732288Y-65368794D01*
X141906752Y-65291118D01*
X142061253Y-65178866D01*
X142189040Y-65036944D01*
X142284527Y-64871556D01*
X142343542Y-64689928D01*
X142363504Y-64500000D01*
X142343542Y-64310072D01*
X142302198Y-64182828D01*
X142286569Y-64134728D01*
X142286568Y-64134726D01*
X142284527Y-64128444D01*
X142189040Y-63963056D01*
X142061253Y-63821134D01*
X142055911Y-63817253D01*
X142055908Y-63817250D01*
X141967498Y-63753017D01*
X141906752Y-63708882D01*
X141732288Y-63631206D01*
X141725835Y-63629834D01*
X141725831Y-63629833D01*
X141551943Y-63592872D01*
X141551940Y-63592871D01*
X141545487Y-63591500D01*
X141354513Y-63591500D01*
X141348060Y-63592871D01*
X141348056Y-63592872D01*
X141174168Y-63629833D01*
X141174161Y-63629835D01*
X141167712Y-63631206D01*
X141161682Y-63633890D01*
X141161681Y-63633891D01*
X140999278Y-63706197D01*
X140999275Y-63706198D01*
X140993248Y-63708882D01*
X140987907Y-63712762D01*
X140987906Y-63712763D01*
X140844091Y-63817250D01*
X140844083Y-63817256D01*
X140838747Y-63821134D01*
X140834330Y-63826039D01*
X140834325Y-63826044D01*
X140715379Y-63958148D01*
X140710960Y-63963056D01*
X140707661Y-63968769D01*
X140707658Y-63968774D01*
X140622595Y-64116108D01*
X140615473Y-64128444D01*
X140613434Y-64134718D01*
X140613430Y-64134728D01*
X140558497Y-64303794D01*
X140558495Y-64303801D01*
X140556458Y-64310072D01*
X140555768Y-64316633D01*
X140555768Y-64316635D01*
X140548819Y-64382749D01*
X140536496Y-64500000D01*
X123025500Y-64500000D01*
X123025500Y-59003089D01*
X123025652Y-58996906D01*
X123029730Y-58913888D01*
X123041927Y-58665613D01*
X123043139Y-58653315D01*
X123091355Y-58328271D01*
X123093762Y-58316168D01*
X123173609Y-57997399D01*
X123177189Y-57985597D01*
X123287900Y-57676181D01*
X123292621Y-57664782D01*
X123370558Y-57500000D01*
X131966844Y-57500000D01*
X131967274Y-57505189D01*
X131984470Y-57712719D01*
X131985436Y-57724368D01*
X132040704Y-57942616D01*
X132042797Y-57947389D01*
X132042799Y-57947393D01*
X132092755Y-58061281D01*
X132131140Y-58148791D01*
X132254278Y-58337268D01*
X132275374Y-58360184D01*
X132403227Y-58499069D01*
X132403231Y-58499073D01*
X132406760Y-58502906D01*
X132584424Y-58641189D01*
X132782426Y-58748342D01*
X132787355Y-58750034D01*
X132787357Y-58750035D01*
X132793116Y-58752012D01*
X132995365Y-58821444D01*
X133217431Y-58858500D01*
X133437358Y-58858500D01*
X133442569Y-58858500D01*
X133664635Y-58821444D01*
X133877574Y-58748342D01*
X134075576Y-58641189D01*
X134253240Y-58502906D01*
X134405722Y-58337268D01*
X134494518Y-58201354D01*
X134540030Y-58159457D01*
X134600000Y-58144271D01*
X134659970Y-58159457D01*
X134705481Y-58201354D01*
X134794278Y-58337268D01*
X134815374Y-58360184D01*
X134943227Y-58499069D01*
X134943231Y-58499073D01*
X134946760Y-58502906D01*
X135124424Y-58641189D01*
X135129000Y-58643665D01*
X135129004Y-58643668D01*
X135170469Y-58666107D01*
X135218741Y-58712423D01*
X135236500Y-58776921D01*
X135236500Y-58791233D01*
X135235972Y-58802416D01*
X135234298Y-58809909D01*
X135234547Y-58817833D01*
X135234547Y-58817835D01*
X135236438Y-58877986D01*
X135236500Y-58881945D01*
X135236500Y-58909856D01*
X135236995Y-58913774D01*
X135236997Y-58913806D01*
X135237008Y-58913888D01*
X135237937Y-58925697D01*
X135239077Y-58961969D01*
X135239078Y-58961976D01*
X135239327Y-58969889D01*
X135241537Y-58977498D01*
X135241538Y-58977500D01*
X135244978Y-58989342D01*
X135248986Y-59008693D01*
X135251526Y-59028797D01*
X135254444Y-59036169D01*
X135254445Y-59036170D01*
X135267800Y-59069901D01*
X135271645Y-59081130D01*
X135281771Y-59115986D01*
X135281773Y-59115992D01*
X135283982Y-59123593D01*
X135288014Y-59130411D01*
X135288015Y-59130413D01*
X135294293Y-59141029D01*
X135302990Y-59158782D01*
X135310448Y-59177617D01*
X135315107Y-59184030D01*
X135315108Y-59184031D01*
X135336432Y-59213381D01*
X135342948Y-59223301D01*
X135356212Y-59245728D01*
X135365458Y-59261362D01*
X135371063Y-59266967D01*
X135379778Y-59275682D01*
X135392618Y-59290715D01*
X135404528Y-59307107D01*
X135410635Y-59312159D01*
X135410636Y-59312160D01*
X135438598Y-59335292D01*
X135447378Y-59343282D01*
X135746342Y-59642246D01*
X135753884Y-59650533D01*
X135758000Y-59657018D01*
X135763779Y-59662444D01*
X135763780Y-59662446D01*
X135807667Y-59703658D01*
X135810508Y-59706412D01*
X135830230Y-59726134D01*
X135833414Y-59728604D01*
X135842437Y-59736309D01*
X135874679Y-59766586D01*
X135881628Y-59770406D01*
X135892429Y-59776344D01*
X135908959Y-59787202D01*
X135918694Y-59794754D01*
X135918697Y-59794756D01*
X135924959Y-59799613D01*
X135965536Y-59817172D01*
X135976171Y-59822381D01*
X136014940Y-59843695D01*
X136034566Y-59848734D01*
X136053259Y-59855134D01*
X136071855Y-59863181D01*
X136079686Y-59864421D01*
X136079689Y-59864422D01*
X136096128Y-59867025D01*
X136115525Y-59870097D01*
X136127125Y-59872498D01*
X136169970Y-59883500D01*
X136190224Y-59883500D01*
X136209934Y-59885050D01*
X136229943Y-59888220D01*
X136273961Y-59884058D01*
X136285819Y-59883500D01*
X137763654Y-59883500D01*
X137811872Y-59893091D01*
X137852749Y-59920405D01*
X140849590Y-62917246D01*
X140857132Y-62925533D01*
X140861248Y-62932018D01*
X140867027Y-62937444D01*
X140867028Y-62937446D01*
X140910915Y-62978658D01*
X140913757Y-62981413D01*
X140933478Y-63001134D01*
X140936662Y-63003604D01*
X140945685Y-63011309D01*
X140977927Y-63041586D01*
X140984876Y-63045406D01*
X140995677Y-63051344D01*
X141012207Y-63062202D01*
X141021942Y-63069754D01*
X141021945Y-63069756D01*
X141028207Y-63074613D01*
X141068784Y-63092172D01*
X141079419Y-63097381D01*
X141118188Y-63118695D01*
X141137814Y-63123734D01*
X141156507Y-63130134D01*
X141175103Y-63138181D01*
X141218766Y-63145095D01*
X141230377Y-63147500D01*
X141273218Y-63158500D01*
X141293479Y-63158500D01*
X141313187Y-63160050D01*
X141333191Y-63163219D01*
X141341083Y-63162473D01*
X141346310Y-63161979D01*
X141377202Y-63159058D01*
X141389059Y-63158500D01*
X143910406Y-63158500D01*
X143958624Y-63168091D01*
X143999501Y-63195405D01*
X147671342Y-66867246D01*
X147678884Y-66875533D01*
X147683000Y-66882018D01*
X147688779Y-66887444D01*
X147688780Y-66887446D01*
X147732667Y-66928658D01*
X147735509Y-66931413D01*
X147755231Y-66951135D01*
X147758359Y-66953561D01*
X147758360Y-66953562D01*
X147758414Y-66953604D01*
X147767446Y-66961317D01*
X147799679Y-66991586D01*
X147806624Y-66995404D01*
X147817430Y-67001345D01*
X147833956Y-67012201D01*
X147843690Y-67019751D01*
X147843692Y-67019752D01*
X147849960Y-67024614D01*
X147890530Y-67042170D01*
X147901186Y-67047390D01*
X147939940Y-67068695D01*
X147959566Y-67073734D01*
X147978259Y-67080134D01*
X147996855Y-67088181D01*
X148004686Y-67089421D01*
X148004689Y-67089422D01*
X148021128Y-67092025D01*
X148040525Y-67095097D01*
X148052125Y-67097498D01*
X148094970Y-67108500D01*
X148115224Y-67108500D01*
X148134934Y-67110050D01*
X148154943Y-67113220D01*
X148198961Y-67109058D01*
X148210819Y-67108500D01*
X158610406Y-67108500D01*
X158658624Y-67118091D01*
X158699501Y-67145405D01*
X163246342Y-71692246D01*
X163253884Y-71700533D01*
X163258000Y-71707018D01*
X163263779Y-71712444D01*
X163263780Y-71712446D01*
X163307667Y-71753658D01*
X163310508Y-71756412D01*
X163330230Y-71776134D01*
X163333414Y-71778604D01*
X163342437Y-71786309D01*
X163374679Y-71816586D01*
X163381628Y-71820406D01*
X163392429Y-71826344D01*
X163408959Y-71837202D01*
X163418694Y-71844754D01*
X163418697Y-71844756D01*
X163424959Y-71849613D01*
X163465536Y-71867172D01*
X163476171Y-71872381D01*
X163514940Y-71893695D01*
X163534566Y-71898734D01*
X163553256Y-71905132D01*
X163564820Y-71910136D01*
X163613111Y-71946991D01*
X163638545Y-72002162D01*
X163635207Y-72062821D01*
X163603872Y-72114867D01*
X160664145Y-75054595D01*
X160623268Y-75081909D01*
X160575050Y-75091500D01*
X158871394Y-75091500D01*
X158859538Y-75090941D01*
X158859534Y-75090940D01*
X158851801Y-75089212D01*
X158843886Y-75089460D01*
X158843879Y-75089460D01*
X158780969Y-75091438D01*
X158777011Y-75091500D01*
X158747906Y-75091500D01*
X158743990Y-75091994D01*
X158743981Y-75091995D01*
X158743495Y-75092057D01*
X158731683Y-75092986D01*
X158693431Y-75094188D01*
X158693424Y-75094189D01*
X158685507Y-75094438D01*
X158677893Y-75096649D01*
X158677891Y-75096650D01*
X158664909Y-75100421D01*
X158645562Y-75104428D01*
X158632135Y-75106124D01*
X158632129Y-75106125D01*
X158624274Y-75107118D01*
X158616910Y-75110033D01*
X158616908Y-75110034D01*
X158581321Y-75124124D01*
X158570094Y-75127968D01*
X158533346Y-75138644D01*
X158533343Y-75138645D01*
X158525737Y-75140855D01*
X158518921Y-75144885D01*
X158518909Y-75144891D01*
X158507270Y-75151775D01*
X158489524Y-75160469D01*
X158476948Y-75165448D01*
X158476944Y-75165449D01*
X158469582Y-75168365D01*
X158463171Y-75173022D01*
X158463172Y-75173022D01*
X158432207Y-75195518D01*
X158422294Y-75202030D01*
X158389356Y-75221511D01*
X158389353Y-75221512D01*
X158382531Y-75225548D01*
X158367364Y-75240714D01*
X158352341Y-75253545D01*
X158341389Y-75261502D01*
X158341383Y-75261506D01*
X158334981Y-75266159D01*
X158329934Y-75272258D01*
X158329928Y-75272265D01*
X158305524Y-75301763D01*
X158297537Y-75310540D01*
X157153481Y-76454597D01*
X157112607Y-76481909D01*
X157064389Y-76491500D01*
X152982055Y-76491500D01*
X152933837Y-76481909D01*
X152892960Y-76454595D01*
X150880760Y-74442394D01*
X150872769Y-74433613D01*
X150868522Y-74426920D01*
X150832264Y-74392872D01*
X150816847Y-74378394D01*
X150814005Y-74375639D01*
X150796246Y-74357880D01*
X150793439Y-74355073D01*
X150789932Y-74352352D01*
X150780910Y-74344647D01*
X150758875Y-74323955D01*
X150747239Y-74313028D01*
X150728443Y-74302694D01*
X150711922Y-74291841D01*
X150701236Y-74283552D01*
X150701229Y-74283548D01*
X150694974Y-74278696D01*
X150687708Y-74275551D01*
X150687702Y-74275548D01*
X150652569Y-74260344D01*
X150641913Y-74255124D01*
X150608385Y-74236692D01*
X150608382Y-74236691D01*
X150601443Y-74232876D01*
X150593769Y-74230905D01*
X150593765Y-74230904D01*
X150580671Y-74227542D01*
X150561974Y-74221141D01*
X150549557Y-74215768D01*
X150549555Y-74215767D01*
X150542282Y-74212620D01*
X150496658Y-74205394D01*
X150485035Y-74202987D01*
X150447973Y-74193471D01*
X150447968Y-74193470D01*
X150440294Y-74191500D01*
X150432365Y-74191500D01*
X150418847Y-74191500D01*
X150399137Y-74189949D01*
X150377954Y-74186594D01*
X150331965Y-74190941D01*
X150320110Y-74191500D01*
X148734444Y-74191500D01*
X148674644Y-74176405D01*
X148629172Y-74134738D01*
X148608923Y-74076481D01*
X148608500Y-74071647D01*
X148608500Y-74066142D01*
X148579376Y-73900974D01*
X148522014Y-73743373D01*
X148438156Y-73598127D01*
X148419286Y-73575639D01*
X148333881Y-73473856D01*
X148330351Y-73469649D01*
X148319262Y-73460344D01*
X148206084Y-73365377D01*
X148206080Y-73365374D01*
X148201873Y-73361844D01*
X148197110Y-73359094D01*
X148061387Y-73280734D01*
X148061385Y-73280733D01*
X148056627Y-73277986D01*
X148042112Y-73272703D01*
X147904201Y-73222507D01*
X147904195Y-73222505D01*
X147899026Y-73220624D01*
X147893606Y-73219668D01*
X147893605Y-73219668D01*
X147739277Y-73192455D01*
X147739271Y-73192454D01*
X147733858Y-73191500D01*
X147724195Y-73191500D01*
X147650000Y-73191500D01*
X147566142Y-73191500D01*
X147560729Y-73192454D01*
X147560722Y-73192455D01*
X147406394Y-73219668D01*
X147406390Y-73219668D01*
X147400974Y-73220624D01*
X147395807Y-73222504D01*
X147395798Y-73222507D01*
X147248540Y-73276105D01*
X147248536Y-73276106D01*
X147243373Y-73277986D01*
X147238618Y-73280730D01*
X147238612Y-73280734D01*
X147102889Y-73359094D01*
X147102883Y-73359097D01*
X147098127Y-73361844D01*
X147093924Y-73365370D01*
X147093915Y-73365377D01*
X146973856Y-73466118D01*
X146973850Y-73466123D01*
X146969649Y-73469649D01*
X146966123Y-73473850D01*
X146966118Y-73473856D01*
X146865377Y-73593915D01*
X146865370Y-73593924D01*
X146861844Y-73598127D01*
X146859097Y-73602883D01*
X146859094Y-73602889D01*
X146780734Y-73738612D01*
X146780730Y-73738618D01*
X146777986Y-73743373D01*
X146776106Y-73748536D01*
X146776105Y-73748540D01*
X146722507Y-73895798D01*
X146722504Y-73895807D01*
X146720624Y-73900974D01*
X146719668Y-73906390D01*
X146719668Y-73906394D01*
X146692455Y-74060722D01*
X146692454Y-74060729D01*
X146691500Y-74066142D01*
X146691500Y-74066812D01*
X146691500Y-74071644D01*
X146691077Y-74076481D01*
X146670828Y-74134738D01*
X146625356Y-74176405D01*
X146565556Y-74191500D01*
X145032056Y-74191500D01*
X145020200Y-74190941D01*
X145020196Y-74190940D01*
X145012463Y-74189212D01*
X145004548Y-74189460D01*
X145004541Y-74189460D01*
X144941631Y-74191438D01*
X144937673Y-74191500D01*
X144908568Y-74191500D01*
X144904652Y-74191994D01*
X144904643Y-74191995D01*
X144904157Y-74192057D01*
X144892345Y-74192986D01*
X144854092Y-74194188D01*
X144854084Y-74194189D01*
X144846169Y-74194438D01*
X144838558Y-74196648D01*
X144838551Y-74196650D01*
X144825570Y-74200421D01*
X144806224Y-74204428D01*
X144792799Y-74206124D01*
X144792795Y-74206124D01*
X144784936Y-74207118D01*
X144777573Y-74210032D01*
X144777565Y-74210035D01*
X144741972Y-74224127D01*
X144730750Y-74227969D01*
X144694011Y-74238643D01*
X144694006Y-74238644D01*
X144686400Y-74240855D01*
X144679583Y-74244886D01*
X144679570Y-74244892D01*
X144667933Y-74251774D01*
X144650194Y-74260465D01*
X144637617Y-74265445D01*
X144637612Y-74265447D01*
X144630244Y-74268365D01*
X144623833Y-74273022D01*
X144623829Y-74273025D01*
X144592872Y-74295517D01*
X144582952Y-74302033D01*
X144550017Y-74321511D01*
X144543193Y-74325547D01*
X144537590Y-74331149D01*
X144537587Y-74331152D01*
X144528021Y-74340718D01*
X144512999Y-74353548D01*
X144505178Y-74359230D01*
X144495647Y-74366155D01*
X144494686Y-74364832D01*
X144466600Y-74382654D01*
X144420222Y-74391500D01*
X144404513Y-74391500D01*
X144398060Y-74392871D01*
X144398056Y-74392872D01*
X144224168Y-74429833D01*
X144224161Y-74429835D01*
X144217712Y-74431206D01*
X144211682Y-74433890D01*
X144211681Y-74433891D01*
X144049278Y-74506197D01*
X144049275Y-74506198D01*
X144043248Y-74508882D01*
X144037907Y-74512762D01*
X144037906Y-74512763D01*
X143894091Y-74617250D01*
X143894083Y-74617256D01*
X143888747Y-74621134D01*
X143884330Y-74626039D01*
X143884325Y-74626044D01*
X143765379Y-74758148D01*
X143760960Y-74763056D01*
X143757661Y-74768769D01*
X143757658Y-74768774D01*
X143671760Y-74917554D01*
X143665473Y-74928444D01*
X143663434Y-74934718D01*
X143663430Y-74934728D01*
X143608497Y-75103794D01*
X143608495Y-75103801D01*
X143606458Y-75110072D01*
X143605768Y-75116633D01*
X143605768Y-75116635D01*
X143592500Y-75242872D01*
X143586496Y-75300000D01*
X143606458Y-75489928D01*
X143608495Y-75496200D01*
X143608497Y-75496205D01*
X143663430Y-75665271D01*
X143663433Y-75665278D01*
X143665473Y-75671556D01*
X143760960Y-75836944D01*
X143888747Y-75978866D01*
X143894089Y-75982747D01*
X143894091Y-75982749D01*
X143936950Y-76013888D01*
X144043248Y-76091118D01*
X144217712Y-76168794D01*
X144404513Y-76208500D01*
X144588884Y-76208500D01*
X144595487Y-76208500D01*
X144782288Y-76168794D01*
X144956752Y-76091118D01*
X145111253Y-75978866D01*
X145239040Y-75836944D01*
X145334527Y-75671556D01*
X145359219Y-75595562D01*
X145385416Y-75550189D01*
X145427803Y-75519393D01*
X145479052Y-75508500D01*
X145811431Y-75508500D01*
X145878202Y-75527647D01*
X145924681Y-75579269D01*
X145934828Y-75636830D01*
X145937186Y-75636830D01*
X145937186Y-75643435D01*
X145936496Y-75650000D01*
X145937186Y-75656565D01*
X145953518Y-75811961D01*
X145956458Y-75839928D01*
X145958495Y-75846200D01*
X145958497Y-75846205D01*
X146013430Y-76015271D01*
X146013433Y-76015278D01*
X146015473Y-76021556D01*
X146078175Y-76130158D01*
X146100469Y-76168774D01*
X146110960Y-76186944D01*
X146238747Y-76328866D01*
X146244089Y-76332747D01*
X146244091Y-76332749D01*
X146277431Y-76356972D01*
X146393248Y-76441118D01*
X146567712Y-76518794D01*
X146754513Y-76558500D01*
X146938884Y-76558500D01*
X146945487Y-76558500D01*
X147132288Y-76518794D01*
X147306752Y-76441118D01*
X147456163Y-76332563D01*
X147491288Y-76314667D01*
X147530224Y-76308500D01*
X150125050Y-76308500D01*
X150173268Y-76318091D01*
X150214145Y-76345405D01*
X151503143Y-77634403D01*
X151535167Y-77688767D01*
X151536819Y-77751841D01*
X151507685Y-77807807D01*
X151430630Y-77893386D01*
X151427331Y-77899099D01*
X151427328Y-77899104D01*
X151338447Y-78053051D01*
X151335143Y-78058774D01*
X151333104Y-78065048D01*
X151333100Y-78065058D01*
X151278167Y-78234124D01*
X151278165Y-78234131D01*
X151276128Y-78240402D01*
X151275438Y-78246963D01*
X151275438Y-78246965D01*
X151262785Y-78367351D01*
X151256166Y-78430330D01*
X151256856Y-78436895D01*
X151264355Y-78508249D01*
X151276128Y-78620258D01*
X151278165Y-78626530D01*
X151278167Y-78626535D01*
X151333100Y-78795601D01*
X151333103Y-78795608D01*
X151335143Y-78801886D01*
X151430630Y-78967274D01*
X151526180Y-79073393D01*
X151542799Y-79091851D01*
X151558417Y-79109196D01*
X151563759Y-79113077D01*
X151563761Y-79113079D01*
X151578731Y-79123955D01*
X151712918Y-79221448D01*
X151887382Y-79299124D01*
X152074183Y-79338830D01*
X152094720Y-79338830D01*
X152142938Y-79348421D01*
X152183814Y-79375734D01*
X154025333Y-81217254D01*
X155865682Y-83057603D01*
X155873671Y-83066382D01*
X155873676Y-83066388D01*
X155877923Y-83073080D01*
X155883699Y-83078504D01*
X155883700Y-83078505D01*
X155929596Y-83121604D01*
X155932437Y-83124358D01*
X155953006Y-83144927D01*
X155956139Y-83147357D01*
X155956511Y-83147646D01*
X155965537Y-83155355D01*
X155999206Y-83186972D01*
X156018005Y-83197307D01*
X156034523Y-83208158D01*
X156045202Y-83216442D01*
X156045205Y-83216443D01*
X156051471Y-83221304D01*
X156093864Y-83239649D01*
X156104520Y-83244869D01*
X156130488Y-83259145D01*
X156145002Y-83267124D01*
X156152678Y-83269094D01*
X156152679Y-83269095D01*
X156165767Y-83272455D01*
X156184477Y-83278860D01*
X156204163Y-83287380D01*
X156249791Y-83294606D01*
X156261406Y-83297011D01*
X156306151Y-83308500D01*
X156327598Y-83308500D01*
X156347307Y-83310050D01*
X156368491Y-83313406D01*
X156414479Y-83309058D01*
X156426335Y-83308500D01*
X160567944Y-83308500D01*
X160579800Y-83309059D01*
X160579803Y-83309059D01*
X160587537Y-83310788D01*
X160658369Y-83308561D01*
X160662327Y-83308500D01*
X160687476Y-83308500D01*
X160691432Y-83308500D01*
X160695831Y-83307943D01*
X160707664Y-83307012D01*
X160753831Y-83305562D01*
X160774416Y-83299581D01*
X160793784Y-83295570D01*
X160794061Y-83295535D01*
X160815064Y-83292882D01*
X160858019Y-83275874D01*
X160869231Y-83272035D01*
X160913600Y-83259145D01*
X160932055Y-83248229D01*
X160949813Y-83239530D01*
X160969756Y-83231635D01*
X161007148Y-83204466D01*
X161017040Y-83197969D01*
X161056807Y-83174453D01*
X161071977Y-83159281D01*
X161087005Y-83146447D01*
X161104357Y-83133841D01*
X161133812Y-83098234D01*
X161141782Y-83089476D01*
X163285854Y-80945405D01*
X163326732Y-80918091D01*
X163374950Y-80908500D01*
X163388884Y-80908500D01*
X163395487Y-80908500D01*
X163582288Y-80868794D01*
X163756752Y-80791118D01*
X163911253Y-80678866D01*
X164039040Y-80536944D01*
X164134527Y-80371556D01*
X164193542Y-80189928D01*
X164213504Y-80000000D01*
X164193542Y-79810072D01*
X164134527Y-79628444D01*
X164039040Y-79463056D01*
X163911253Y-79321134D01*
X163905911Y-79317253D01*
X163905908Y-79317250D01*
X163801121Y-79241118D01*
X163756752Y-79208882D01*
X163750725Y-79206198D01*
X163750717Y-79206194D01*
X163692866Y-79180437D01*
X163645166Y-79143336D01*
X163620226Y-79088292D01*
X163623784Y-79027967D01*
X163655019Y-78976238D01*
X163707610Y-78923647D01*
X163716380Y-78915667D01*
X163723080Y-78911416D01*
X163771652Y-78859690D01*
X163774313Y-78856944D01*
X163794926Y-78836333D01*
X163797634Y-78832840D01*
X163805333Y-78823823D01*
X163836972Y-78790133D01*
X163847300Y-78771345D01*
X163858159Y-78754814D01*
X163871304Y-78737869D01*
X163883053Y-78710717D01*
X163909589Y-78671669D01*
X165485857Y-77095402D01*
X165526732Y-77068091D01*
X165574950Y-77058500D01*
X165588884Y-77058500D01*
X165595487Y-77058500D01*
X165782288Y-77018794D01*
X165956752Y-76941118D01*
X166111253Y-76828866D01*
X166239040Y-76686944D01*
X166334527Y-76521556D01*
X166393542Y-76339928D01*
X166413504Y-76150000D01*
X166393542Y-75960072D01*
X166346242Y-75814498D01*
X166336569Y-75784728D01*
X166336568Y-75784726D01*
X166334527Y-75778444D01*
X166239040Y-75613056D01*
X166111253Y-75471134D01*
X166105911Y-75467253D01*
X166105908Y-75467250D01*
X166028057Y-75410688D01*
X165956752Y-75358882D01*
X165782288Y-75281206D01*
X165775835Y-75279834D01*
X165775831Y-75279833D01*
X165601943Y-75242872D01*
X165601940Y-75242871D01*
X165595487Y-75241500D01*
X165588885Y-75241500D01*
X165582318Y-75240810D01*
X165582533Y-75238759D01*
X165536747Y-75227767D01*
X165492014Y-75189561D01*
X165469501Y-75135211D01*
X165474117Y-75076564D01*
X165504855Y-75026404D01*
X165664625Y-74866635D01*
X165935855Y-74595404D01*
X165976733Y-74568091D01*
X166024951Y-74558500D01*
X166038884Y-74558500D01*
X166045487Y-74558500D01*
X166232288Y-74518794D01*
X166406752Y-74441118D01*
X166561253Y-74328866D01*
X166689040Y-74186944D01*
X166781381Y-74027004D01*
X166827500Y-73980886D01*
X166890500Y-73964005D01*
X166953500Y-73980886D01*
X166999619Y-74027005D01*
X167016500Y-74090005D01*
X167016500Y-76285404D01*
X167006909Y-76333622D01*
X166979595Y-76374500D01*
X166707736Y-76646357D01*
X166699458Y-76653889D01*
X166692982Y-76658000D01*
X166687559Y-76663774D01*
X166687555Y-76663778D01*
X166646370Y-76707635D01*
X166643621Y-76710472D01*
X166626667Y-76727427D01*
X166626660Y-76727434D01*
X166623865Y-76730230D01*
X166621442Y-76733352D01*
X166621426Y-76733371D01*
X166621365Y-76733451D01*
X166613690Y-76742435D01*
X166588838Y-76768902D01*
X166588835Y-76768904D01*
X166583414Y-76774679D01*
X166579600Y-76781614D01*
X166579592Y-76781627D01*
X166573650Y-76792436D01*
X166562803Y-76808949D01*
X166555243Y-76818695D01*
X166555237Y-76818704D01*
X166550386Y-76824959D01*
X166547242Y-76832223D01*
X166547238Y-76832231D01*
X166532824Y-76865540D01*
X166527604Y-76876195D01*
X166510125Y-76907989D01*
X166510121Y-76907997D01*
X166506305Y-76914940D01*
X166504333Y-76922616D01*
X166504331Y-76922624D01*
X166501266Y-76934562D01*
X166494865Y-76953259D01*
X166489968Y-76964576D01*
X166489966Y-76964581D01*
X166486819Y-76971855D01*
X166485579Y-76979680D01*
X166485577Y-76979689D01*
X166479901Y-77015524D01*
X166477495Y-77027144D01*
X166468471Y-77062289D01*
X166468469Y-77062297D01*
X166466500Y-77069970D01*
X166466500Y-77077899D01*
X166466500Y-77090224D01*
X166464949Y-77109935D01*
X166463019Y-77122114D01*
X166463018Y-77122121D01*
X166461780Y-77129943D01*
X166462525Y-77137826D01*
X166462525Y-77137834D01*
X166465941Y-77173961D01*
X166466500Y-77185819D01*
X166466500Y-77847476D01*
X166458131Y-77892630D01*
X166434138Y-77931783D01*
X166360960Y-78013056D01*
X166357661Y-78018769D01*
X166357658Y-78018774D01*
X166275435Y-78161189D01*
X166265473Y-78178444D01*
X166263434Y-78184718D01*
X166263430Y-78184728D01*
X166208497Y-78353794D01*
X166208495Y-78353801D01*
X166206458Y-78360072D01*
X166186496Y-78550000D01*
X166187186Y-78556565D01*
X166205476Y-78730590D01*
X166206458Y-78739928D01*
X166208495Y-78746200D01*
X166208497Y-78746205D01*
X166263430Y-78915271D01*
X166263433Y-78915278D01*
X166265473Y-78921556D01*
X166360960Y-79086944D01*
X166488747Y-79228866D01*
X166494089Y-79232747D01*
X166494091Y-79232749D01*
X166537298Y-79264141D01*
X166643248Y-79341118D01*
X166817712Y-79418794D01*
X167004513Y-79458500D01*
X167188884Y-79458500D01*
X167195487Y-79458500D01*
X167382288Y-79418794D01*
X167556752Y-79341118D01*
X167711253Y-79228866D01*
X167839040Y-79086944D01*
X167934527Y-78921556D01*
X167939701Y-78905634D01*
X167954272Y-78860788D01*
X167967757Y-78819283D01*
X167996952Y-78770694D01*
X168044495Y-78739819D01*
X168099891Y-78733017D01*
X168104513Y-78734000D01*
X168288884Y-78734000D01*
X168295487Y-78734000D01*
X168482288Y-78694294D01*
X168656752Y-78616618D01*
X168811253Y-78504366D01*
X168939040Y-78362444D01*
X169034527Y-78197056D01*
X169093542Y-78015428D01*
X169113504Y-77825500D01*
X169093542Y-77635572D01*
X169059319Y-77530247D01*
X169055385Y-77467703D01*
X169082068Y-77410998D01*
X169132769Y-77374161D01*
X169194945Y-77366307D01*
X169253214Y-77389377D01*
X169393248Y-77491118D01*
X169567712Y-77568794D01*
X169754513Y-77608500D01*
X169938884Y-77608500D01*
X169945487Y-77608500D01*
X170132288Y-77568794D01*
X170306752Y-77491118D01*
X170461253Y-77378866D01*
X170589040Y-77236944D01*
X170601447Y-77215453D01*
X170647565Y-77169335D01*
X170710565Y-77152454D01*
X170773566Y-77169335D01*
X170819685Y-77215454D01*
X170860960Y-77286944D01*
X170988747Y-77428866D01*
X171143248Y-77541118D01*
X171317712Y-77618794D01*
X171504513Y-77658500D01*
X171688884Y-77658500D01*
X171695487Y-77658500D01*
X171882288Y-77618794D01*
X172056752Y-77541118D01*
X172211253Y-77428866D01*
X172339040Y-77286944D01*
X172434527Y-77121556D01*
X172493542Y-76939928D01*
X172513504Y-76750000D01*
X172501877Y-76639379D01*
X172509089Y-76582292D01*
X172540934Y-76534362D01*
X172590769Y-76505590D01*
X172648200Y-76501976D01*
X172701248Y-76524276D01*
X172793248Y-76591118D01*
X172967712Y-76668794D01*
X173154513Y-76708500D01*
X173338884Y-76708500D01*
X173345487Y-76708500D01*
X173532288Y-76668794D01*
X173706752Y-76591118D01*
X173856163Y-76482563D01*
X173891288Y-76464667D01*
X173930224Y-76458500D01*
X178735711Y-76458500D01*
X178783929Y-76468091D01*
X178824806Y-76495405D01*
X179610626Y-77281225D01*
X180139737Y-77810335D01*
X180170475Y-77860494D01*
X180175091Y-77919141D01*
X180152578Y-77973491D01*
X180107845Y-78011697D01*
X180050642Y-78025430D01*
X179956302Y-78025430D01*
X179949849Y-78026801D01*
X179949845Y-78026802D01*
X179775957Y-78063763D01*
X179775950Y-78063765D01*
X179769501Y-78065136D01*
X179763471Y-78067820D01*
X179763470Y-78067821D01*
X179601067Y-78140127D01*
X179601064Y-78140128D01*
X179595037Y-78142812D01*
X179589699Y-78146690D01*
X179589696Y-78146692D01*
X179519234Y-78197885D01*
X179458344Y-78221258D01*
X179393925Y-78211055D01*
X179343238Y-78170009D01*
X179342343Y-78168777D01*
X179339040Y-78163056D01*
X179224038Y-78035333D01*
X179215674Y-78026044D01*
X179215673Y-78026043D01*
X179211253Y-78021134D01*
X179205911Y-78017253D01*
X179205908Y-78017250D01*
X179126927Y-77959867D01*
X179056752Y-77908882D01*
X178882288Y-77831206D01*
X178875835Y-77829834D01*
X178875831Y-77829833D01*
X178701943Y-77792872D01*
X178701940Y-77792871D01*
X178695487Y-77791500D01*
X178504513Y-77791500D01*
X178498060Y-77792871D01*
X178498056Y-77792872D01*
X178324168Y-77829833D01*
X178324161Y-77829835D01*
X178317712Y-77831206D01*
X178311682Y-77833890D01*
X178311681Y-77833891D01*
X178149278Y-77906197D01*
X178149275Y-77906198D01*
X178143248Y-77908882D01*
X178137907Y-77912762D01*
X178137906Y-77912763D01*
X177994085Y-78017254D01*
X177994075Y-78017262D01*
X177988747Y-78021134D01*
X177984332Y-78026037D01*
X177984309Y-78026058D01*
X177930482Y-78054678D01*
X177869518Y-78054678D01*
X177815691Y-78026058D01*
X177815667Y-78026037D01*
X177811253Y-78021134D01*
X177805919Y-78017259D01*
X177805914Y-78017254D01*
X177670367Y-77918774D01*
X177656752Y-77908882D01*
X177482288Y-77831206D01*
X177475835Y-77829834D01*
X177475831Y-77829833D01*
X177301943Y-77792872D01*
X177301940Y-77792871D01*
X177295487Y-77791500D01*
X177104513Y-77791500D01*
X177098060Y-77792871D01*
X177098056Y-77792872D01*
X176924168Y-77829833D01*
X176924161Y-77829835D01*
X176917712Y-77831206D01*
X176911682Y-77833890D01*
X176911681Y-77833891D01*
X176749278Y-77906197D01*
X176749275Y-77906198D01*
X176743248Y-77908882D01*
X176737914Y-77912757D01*
X176737906Y-77912762D01*
X176593837Y-78017436D01*
X176558712Y-78035333D01*
X176519776Y-78041500D01*
X175382056Y-78041500D01*
X175370200Y-78040941D01*
X175370196Y-78040940D01*
X175362463Y-78039212D01*
X175354548Y-78039460D01*
X175354541Y-78039460D01*
X175291631Y-78041438D01*
X175287673Y-78041500D01*
X175258568Y-78041500D01*
X175254652Y-78041994D01*
X175254643Y-78041995D01*
X175254157Y-78042057D01*
X175242345Y-78042986D01*
X175204092Y-78044188D01*
X175204084Y-78044189D01*
X175196169Y-78044438D01*
X175188558Y-78046648D01*
X175188551Y-78046650D01*
X175175570Y-78050421D01*
X175156224Y-78054428D01*
X175142799Y-78056124D01*
X175142795Y-78056124D01*
X175134936Y-78057118D01*
X175127573Y-78060032D01*
X175127565Y-78060035D01*
X175091972Y-78074127D01*
X175080750Y-78077969D01*
X175044011Y-78088643D01*
X175044006Y-78088644D01*
X175036400Y-78090855D01*
X175029583Y-78094886D01*
X175029570Y-78094892D01*
X175017933Y-78101774D01*
X175000194Y-78110465D01*
X174987617Y-78115445D01*
X174987612Y-78115447D01*
X174980244Y-78118365D01*
X174973833Y-78123022D01*
X174973829Y-78123025D01*
X174942872Y-78145517D01*
X174932952Y-78152033D01*
X174913279Y-78163668D01*
X174893193Y-78175547D01*
X174887590Y-78181149D01*
X174887587Y-78181152D01*
X174878021Y-78190718D01*
X174862999Y-78203548D01*
X174852052Y-78211502D01*
X174852050Y-78211503D01*
X174845643Y-78216159D01*
X174840597Y-78222257D01*
X174840593Y-78222262D01*
X174816192Y-78251757D01*
X174808204Y-78260534D01*
X171154145Y-81914595D01*
X171113268Y-81941909D01*
X171065050Y-81951500D01*
X169172056Y-81951500D01*
X169160200Y-81950941D01*
X169160196Y-81950940D01*
X169152463Y-81949212D01*
X169144548Y-81949460D01*
X169144541Y-81949460D01*
X169081631Y-81951438D01*
X169077673Y-81951500D01*
X169048568Y-81951500D01*
X169044652Y-81951994D01*
X169044643Y-81951995D01*
X169044157Y-81952057D01*
X169032345Y-81952986D01*
X168994092Y-81954188D01*
X168994084Y-81954189D01*
X168986169Y-81954438D01*
X168978558Y-81956648D01*
X168978551Y-81956650D01*
X168965570Y-81960421D01*
X168946224Y-81964428D01*
X168932799Y-81966124D01*
X168932795Y-81966124D01*
X168924936Y-81967118D01*
X168917573Y-81970032D01*
X168917565Y-81970035D01*
X168881972Y-81984127D01*
X168870750Y-81987969D01*
X168834011Y-81998643D01*
X168834006Y-81998644D01*
X168826400Y-82000855D01*
X168819583Y-82004886D01*
X168819570Y-82004892D01*
X168807933Y-82011774D01*
X168790194Y-82020465D01*
X168777617Y-82025445D01*
X168777612Y-82025447D01*
X168770244Y-82028365D01*
X168763833Y-82033022D01*
X168763829Y-82033025D01*
X168732872Y-82055517D01*
X168722952Y-82062033D01*
X168701111Y-82074950D01*
X168683193Y-82085547D01*
X168677590Y-82091149D01*
X168677587Y-82091152D01*
X168668021Y-82100718D01*
X168652999Y-82113548D01*
X168642052Y-82121502D01*
X168642050Y-82121503D01*
X168635643Y-82126159D01*
X168630597Y-82132257D01*
X168630593Y-82132262D01*
X168606192Y-82161757D01*
X168598204Y-82170534D01*
X167154902Y-83613836D01*
X167100008Y-83646011D01*
X167036391Y-83647259D01*
X166980277Y-83617264D01*
X166945975Y-83563677D01*
X166934527Y-83528444D01*
X166839040Y-83363056D01*
X166711253Y-83221134D01*
X166705911Y-83217253D01*
X166705908Y-83217250D01*
X166602500Y-83142120D01*
X166556752Y-83108882D01*
X166382288Y-83031206D01*
X166375835Y-83029834D01*
X166375831Y-83029833D01*
X166201943Y-82992872D01*
X166201940Y-82992871D01*
X166195487Y-82991500D01*
X166004513Y-82991500D01*
X165998060Y-82992871D01*
X165998056Y-82992872D01*
X165824168Y-83029833D01*
X165824161Y-83029835D01*
X165817712Y-83031206D01*
X165811682Y-83033890D01*
X165811681Y-83033891D01*
X165649278Y-83106197D01*
X165649275Y-83106198D01*
X165643248Y-83108882D01*
X165637907Y-83112762D01*
X165637906Y-83112763D01*
X165494091Y-83217250D01*
X165494083Y-83217256D01*
X165488747Y-83221134D01*
X165484330Y-83226039D01*
X165484325Y-83226044D01*
X165372684Y-83350035D01*
X165360960Y-83363056D01*
X165357661Y-83368769D01*
X165357658Y-83368774D01*
X165268855Y-83522586D01*
X165265473Y-83528444D01*
X165263434Y-83534718D01*
X165263430Y-83534728D01*
X165208497Y-83703794D01*
X165208495Y-83703801D01*
X165206458Y-83710072D01*
X165205768Y-83716633D01*
X165205768Y-83716635D01*
X165191279Y-83854489D01*
X165186496Y-83900000D01*
X165187186Y-83906565D01*
X165192644Y-83958500D01*
X165206458Y-84089928D01*
X165208495Y-84096200D01*
X165208497Y-84096205D01*
X165250854Y-84226564D01*
X165255470Y-84285211D01*
X165232957Y-84339561D01*
X165188224Y-84377767D01*
X165131021Y-84391500D01*
X157532056Y-84391500D01*
X157520200Y-84390941D01*
X157520196Y-84390940D01*
X157512463Y-84389212D01*
X157504548Y-84389460D01*
X157504541Y-84389460D01*
X157441631Y-84391438D01*
X157437673Y-84391500D01*
X157408568Y-84391500D01*
X157404652Y-84391994D01*
X157404643Y-84391995D01*
X157404157Y-84392057D01*
X157392345Y-84392986D01*
X157354092Y-84394188D01*
X157354084Y-84394189D01*
X157346169Y-84394438D01*
X157338558Y-84396648D01*
X157338551Y-84396650D01*
X157325570Y-84400421D01*
X157306224Y-84404428D01*
X157292799Y-84406124D01*
X157292795Y-84406124D01*
X157284936Y-84407118D01*
X157277573Y-84410032D01*
X157277565Y-84410035D01*
X157241972Y-84424127D01*
X157230750Y-84427969D01*
X157194011Y-84438643D01*
X157194006Y-84438644D01*
X157186400Y-84440855D01*
X157179583Y-84444886D01*
X157179570Y-84444892D01*
X157167933Y-84451774D01*
X157150194Y-84460465D01*
X157137617Y-84465445D01*
X157137612Y-84465447D01*
X157130244Y-84468365D01*
X157123833Y-84473022D01*
X157123829Y-84473025D01*
X157092872Y-84495517D01*
X157082952Y-84502033D01*
X157060274Y-84515445D01*
X157043193Y-84525547D01*
X157037590Y-84531149D01*
X157037587Y-84531152D01*
X157028021Y-84540718D01*
X157012999Y-84553548D01*
X157002052Y-84561502D01*
X157002050Y-84561503D01*
X156995643Y-84566159D01*
X156990597Y-84572257D01*
X156990593Y-84572262D01*
X156966192Y-84601757D01*
X156958204Y-84610534D01*
X153792396Y-87776342D01*
X153783622Y-87784327D01*
X153783605Y-87784340D01*
X153776920Y-87788584D01*
X153771503Y-87794352D01*
X153771495Y-87794359D01*
X153728393Y-87840258D01*
X153725645Y-87843094D01*
X153705073Y-87863667D01*
X153702647Y-87866793D01*
X153702625Y-87866819D01*
X153702325Y-87867206D01*
X153694649Y-87876191D01*
X153668454Y-87904088D01*
X153668451Y-87904091D01*
X153663028Y-87909867D01*
X153659212Y-87916806D01*
X153659205Y-87916817D01*
X153652689Y-87928669D01*
X153641844Y-87945179D01*
X153633556Y-87955864D01*
X153633550Y-87955872D01*
X153628696Y-87962132D01*
X153625549Y-87969402D01*
X153625547Y-87969407D01*
X153610351Y-88004523D01*
X153605131Y-88015178D01*
X153586697Y-88048710D01*
X153586693Y-88048718D01*
X153582876Y-88055663D01*
X153580905Y-88063336D01*
X153580902Y-88063346D01*
X153577541Y-88076438D01*
X153571140Y-88095134D01*
X153565767Y-88107550D01*
X153565765Y-88107554D01*
X153562620Y-88114824D01*
X153561381Y-88122641D01*
X153561380Y-88122648D01*
X153555393Y-88160452D01*
X153552986Y-88172073D01*
X153543471Y-88209130D01*
X153543469Y-88209140D01*
X153541500Y-88216812D01*
X153541500Y-88224741D01*
X153541500Y-88238259D01*
X153539949Y-88257968D01*
X153536594Y-88279152D01*
X153537339Y-88287043D01*
X153537340Y-88287043D01*
X153540941Y-88325138D01*
X153541500Y-88336996D01*
X153541500Y-89532148D01*
X153522933Y-89597983D01*
X153472702Y-89644415D01*
X153405613Y-89657760D01*
X153341440Y-89634085D01*
X153306752Y-89608882D01*
X153132288Y-89531206D01*
X153125835Y-89529834D01*
X153125831Y-89529833D01*
X152951943Y-89492872D01*
X152951940Y-89492871D01*
X152945487Y-89491500D01*
X152754513Y-89491500D01*
X152748060Y-89492871D01*
X152748056Y-89492872D01*
X152574168Y-89529833D01*
X152574161Y-89529835D01*
X152567712Y-89531206D01*
X152561682Y-89533890D01*
X152561681Y-89533891D01*
X152399278Y-89606197D01*
X152399275Y-89606198D01*
X152393248Y-89608882D01*
X152387907Y-89612762D01*
X152387906Y-89612763D01*
X152244091Y-89717250D01*
X152244083Y-89717256D01*
X152238747Y-89721134D01*
X152234330Y-89726039D01*
X152234325Y-89726044D01*
X152175000Y-89791932D01*
X152110960Y-89863056D01*
X152107661Y-89868769D01*
X152107658Y-89868774D01*
X152018777Y-90022721D01*
X152015473Y-90028444D01*
X152013434Y-90034718D01*
X152013430Y-90034728D01*
X151958497Y-90203794D01*
X151958495Y-90203801D01*
X151956458Y-90210072D01*
X151936496Y-90400000D01*
X151937186Y-90406565D01*
X151942644Y-90458500D01*
X151956458Y-90589928D01*
X151958495Y-90596200D01*
X151958497Y-90596205D01*
X152013430Y-90765271D01*
X152013433Y-90765278D01*
X152015473Y-90771556D01*
X152110960Y-90936944D01*
X152238747Y-91078866D01*
X152244089Y-91082747D01*
X152244091Y-91082749D01*
X152244730Y-91083213D01*
X152393248Y-91191118D01*
X152567712Y-91268794D01*
X152754513Y-91308500D01*
X152938884Y-91308500D01*
X152945487Y-91308500D01*
X153132288Y-91268794D01*
X153306752Y-91191118D01*
X153450941Y-91086358D01*
X153498803Y-91065048D01*
X153551197Y-91065048D01*
X153599058Y-91086358D01*
X153743248Y-91191118D01*
X153917712Y-91268794D01*
X154104513Y-91308500D01*
X154288884Y-91308500D01*
X154295487Y-91308500D01*
X154482288Y-91268794D01*
X154656752Y-91191118D01*
X154775942Y-91104520D01*
X154823802Y-91083213D01*
X154876196Y-91083212D01*
X154924060Y-91104523D01*
X154949060Y-91122686D01*
X155043248Y-91191118D01*
X155217712Y-91268794D01*
X155404513Y-91308500D01*
X155588884Y-91308500D01*
X155595487Y-91308500D01*
X155782288Y-91268794D01*
X155956752Y-91191118D01*
X156111253Y-91078866D01*
X156239040Y-90936944D01*
X156334527Y-90771556D01*
X156393542Y-90589928D01*
X156406754Y-90464211D01*
X156418338Y-90423140D01*
X156442966Y-90388292D01*
X160585854Y-86245405D01*
X160626732Y-86218091D01*
X160674950Y-86208500D01*
X166775050Y-86208500D01*
X166786906Y-86209059D01*
X166786909Y-86209059D01*
X166794643Y-86210788D01*
X166865475Y-86208561D01*
X166869433Y-86208500D01*
X166894582Y-86208500D01*
X166898538Y-86208500D01*
X166902937Y-86207943D01*
X166914770Y-86207012D01*
X166960937Y-86205562D01*
X166981522Y-86199581D01*
X167000890Y-86195570D01*
X167022170Y-86192882D01*
X167065125Y-86175874D01*
X167076337Y-86172035D01*
X167120706Y-86159145D01*
X167139161Y-86148229D01*
X167156919Y-86139530D01*
X167176862Y-86131635D01*
X167214254Y-86104466D01*
X167224146Y-86097969D01*
X167263913Y-86074453D01*
X167279083Y-86059281D01*
X167294111Y-86046447D01*
X167311463Y-86033841D01*
X167340918Y-85998234D01*
X167348888Y-85989476D01*
X169532960Y-83805405D01*
X169573838Y-83778091D01*
X169622056Y-83768500D01*
X171557944Y-83768500D01*
X171569800Y-83769059D01*
X171569803Y-83769059D01*
X171577537Y-83770788D01*
X171648369Y-83768561D01*
X171652327Y-83768500D01*
X171677476Y-83768500D01*
X171681432Y-83768500D01*
X171685831Y-83767943D01*
X171697664Y-83767012D01*
X171743831Y-83765562D01*
X171764416Y-83759581D01*
X171783784Y-83755570D01*
X171805064Y-83752882D01*
X171848019Y-83735874D01*
X171859231Y-83732035D01*
X171903600Y-83719145D01*
X171922055Y-83708229D01*
X171939813Y-83699530D01*
X171959756Y-83691635D01*
X171997148Y-83664466D01*
X172007040Y-83657969D01*
X172046807Y-83634453D01*
X172061977Y-83619281D01*
X172077005Y-83606447D01*
X172094357Y-83593841D01*
X172123813Y-83558233D01*
X172131782Y-83549476D01*
X175285853Y-80395405D01*
X175326731Y-80368091D01*
X175374949Y-80358500D01*
X175534786Y-80358500D01*
X175597787Y-80375381D01*
X175643906Y-80421502D01*
X175660786Y-80484503D01*
X175645566Y-80541294D01*
X175646461Y-80541693D01*
X175643946Y-80547340D01*
X175643903Y-80547503D01*
X175643777Y-80547720D01*
X175643774Y-80547725D01*
X175640473Y-80553444D01*
X175638434Y-80559718D01*
X175638430Y-80559728D01*
X175583497Y-80728794D01*
X175583495Y-80728801D01*
X175581458Y-80735072D01*
X175580768Y-80741633D01*
X175580768Y-80741635D01*
X175563230Y-80908500D01*
X175561496Y-80925000D01*
X175562186Y-80931565D01*
X175579583Y-81097094D01*
X175581458Y-81114928D01*
X175583495Y-81121200D01*
X175583497Y-81121205D01*
X175638430Y-81290271D01*
X175638433Y-81290278D01*
X175640473Y-81296556D01*
X175686079Y-81375548D01*
X175730078Y-81451757D01*
X175735960Y-81461944D01*
X175863747Y-81603866D01*
X175869089Y-81607747D01*
X175869091Y-81607749D01*
X175912298Y-81639141D01*
X176018248Y-81716118D01*
X176192712Y-81793794D01*
X176379513Y-81833500D01*
X176563884Y-81833500D01*
X176570487Y-81833500D01*
X176757288Y-81793794D01*
X176931752Y-81716118D01*
X177086253Y-81603866D01*
X177121863Y-81564316D01*
X177171580Y-81530528D01*
X177231292Y-81523620D01*
X177287410Y-81545161D01*
X177327162Y-81590251D01*
X177341500Y-81648626D01*
X177341500Y-82775050D01*
X177331909Y-82823268D01*
X177304595Y-82864145D01*
X175764145Y-84404595D01*
X175723268Y-84431909D01*
X175675050Y-84441500D01*
X172232056Y-84441500D01*
X172220200Y-84440941D01*
X172220196Y-84440940D01*
X172212463Y-84439212D01*
X172204548Y-84439460D01*
X172204541Y-84439460D01*
X172141631Y-84441438D01*
X172137673Y-84441500D01*
X172108568Y-84441500D01*
X172104652Y-84441994D01*
X172104643Y-84441995D01*
X172104157Y-84442057D01*
X172092345Y-84442986D01*
X172054092Y-84444188D01*
X172054084Y-84444189D01*
X172046169Y-84444438D01*
X172038558Y-84446648D01*
X172038551Y-84446650D01*
X172025570Y-84450421D01*
X172006224Y-84454428D01*
X171992799Y-84456124D01*
X171992795Y-84456124D01*
X171984936Y-84457118D01*
X171977573Y-84460032D01*
X171977565Y-84460035D01*
X171941972Y-84474127D01*
X171930750Y-84477969D01*
X171894011Y-84488643D01*
X171894006Y-84488644D01*
X171886400Y-84490855D01*
X171879583Y-84494886D01*
X171879570Y-84494892D01*
X171867933Y-84501774D01*
X171850194Y-84510465D01*
X171837617Y-84515445D01*
X171837612Y-84515447D01*
X171830244Y-84518365D01*
X171823833Y-84523022D01*
X171823829Y-84523025D01*
X171792872Y-84545517D01*
X171782952Y-84552033D01*
X171759067Y-84566159D01*
X171743193Y-84575547D01*
X171737590Y-84581149D01*
X171737587Y-84581152D01*
X171728021Y-84590718D01*
X171712999Y-84603548D01*
X171702052Y-84611502D01*
X171702050Y-84611503D01*
X171695643Y-84616159D01*
X171690597Y-84622257D01*
X171690593Y-84622262D01*
X171666192Y-84651757D01*
X171658204Y-84660534D01*
X166864145Y-89454595D01*
X166823268Y-89481909D01*
X166775050Y-89491500D01*
X166759626Y-89491500D01*
X166753173Y-89492871D01*
X166753169Y-89492872D01*
X166579281Y-89529833D01*
X166579274Y-89529835D01*
X166572825Y-89531206D01*
X166566795Y-89533890D01*
X166566794Y-89533891D01*
X166404391Y-89606197D01*
X166404388Y-89606198D01*
X166398361Y-89608882D01*
X166393020Y-89612762D01*
X166393019Y-89612763D01*
X166279174Y-89695476D01*
X166231310Y-89716787D01*
X166178916Y-89716787D01*
X166131052Y-89695476D01*
X166046552Y-89634084D01*
X166011865Y-89608882D01*
X165837401Y-89531206D01*
X165830948Y-89529834D01*
X165830944Y-89529833D01*
X165657056Y-89492872D01*
X165657053Y-89492871D01*
X165650600Y-89491500D01*
X165459626Y-89491500D01*
X165453173Y-89492871D01*
X165453169Y-89492872D01*
X165279281Y-89529833D01*
X165279274Y-89529835D01*
X165272825Y-89531206D01*
X165266795Y-89533890D01*
X165266794Y-89533891D01*
X165104391Y-89606197D01*
X165104388Y-89606198D01*
X165098361Y-89608882D01*
X165093020Y-89612762D01*
X165093019Y-89612763D01*
X164949204Y-89717250D01*
X164949196Y-89717256D01*
X164943860Y-89721134D01*
X164939443Y-89726039D01*
X164939438Y-89726044D01*
X164880113Y-89791932D01*
X164816073Y-89863056D01*
X164812774Y-89868769D01*
X164812771Y-89868774D01*
X164723890Y-90022721D01*
X164720586Y-90028444D01*
X164718547Y-90034718D01*
X164718543Y-90034728D01*
X164663610Y-90203794D01*
X164663608Y-90203801D01*
X164661571Y-90210072D01*
X164641609Y-90400000D01*
X164642299Y-90406565D01*
X164647757Y-90458500D01*
X164661571Y-90589928D01*
X164663608Y-90596200D01*
X164663610Y-90596205D01*
X164718543Y-90765271D01*
X164718546Y-90765278D01*
X164720586Y-90771556D01*
X164816073Y-90936944D01*
X164943860Y-91078866D01*
X164949202Y-91082747D01*
X164949204Y-91082749D01*
X164949843Y-91083213D01*
X165098361Y-91191118D01*
X165272825Y-91268794D01*
X165459626Y-91308500D01*
X165643997Y-91308500D01*
X165650600Y-91308500D01*
X165837401Y-91268794D01*
X166011865Y-91191118D01*
X166131055Y-91104520D01*
X166178915Y-91083213D01*
X166231309Y-91083212D01*
X166279173Y-91104523D01*
X166304173Y-91122686D01*
X166398361Y-91191118D01*
X166572825Y-91268794D01*
X166759626Y-91308500D01*
X166943997Y-91308500D01*
X166950600Y-91308500D01*
X167137401Y-91268794D01*
X167311865Y-91191118D01*
X167406056Y-91122683D01*
X167453916Y-91101375D01*
X167506310Y-91101375D01*
X167554169Y-91122683D01*
X167648361Y-91191118D01*
X167822825Y-91268794D01*
X168009626Y-91308500D01*
X168193997Y-91308500D01*
X168200600Y-91308500D01*
X168387401Y-91268794D01*
X168561865Y-91191118D01*
X168716366Y-91078866D01*
X168844153Y-90936944D01*
X168939640Y-90771556D01*
X168998655Y-90589928D01*
X169012468Y-90458498D01*
X169024052Y-90417426D01*
X169048680Y-90382578D01*
X173135854Y-86295405D01*
X173176732Y-86268091D01*
X173224950Y-86258500D01*
X176125050Y-86258500D01*
X176136906Y-86259059D01*
X176136909Y-86259059D01*
X176144643Y-86260788D01*
X176215475Y-86258561D01*
X176219433Y-86258500D01*
X176244582Y-86258500D01*
X176248538Y-86258500D01*
X176252937Y-86257943D01*
X176264770Y-86257012D01*
X176310937Y-86255562D01*
X176331522Y-86249581D01*
X176350890Y-86245570D01*
X176372170Y-86242882D01*
X176415125Y-86225874D01*
X176426337Y-86222035D01*
X176470706Y-86209145D01*
X176489161Y-86198229D01*
X176506919Y-86189530D01*
X176526862Y-86181635D01*
X176564254Y-86154466D01*
X176574146Y-86147969D01*
X176613913Y-86124453D01*
X176629083Y-86109281D01*
X176644111Y-86096447D01*
X176661463Y-86083841D01*
X176690918Y-86048234D01*
X176698888Y-86039476D01*
X178907615Y-83830749D01*
X178916383Y-83822771D01*
X178923080Y-83818522D01*
X178971637Y-83766812D01*
X178974298Y-83764066D01*
X178994927Y-83743439D01*
X178997644Y-83739935D01*
X179005345Y-83730917D01*
X179036972Y-83697239D01*
X179047303Y-83678445D01*
X179058154Y-83661926D01*
X179071304Y-83644974D01*
X179083806Y-83616083D01*
X179089652Y-83602574D01*
X179094867Y-83591926D01*
X179107719Y-83568549D01*
X179151064Y-83522586D01*
X179211274Y-83503441D01*
X179273208Y-83515929D01*
X179321294Y-83556911D01*
X179343441Y-83616083D01*
X179355768Y-83733364D01*
X179356458Y-83739928D01*
X179358495Y-83746200D01*
X179358497Y-83746205D01*
X179413430Y-83915271D01*
X179413433Y-83915278D01*
X179415473Y-83921556D01*
X179510960Y-84086944D01*
X179638747Y-84228866D01*
X179793248Y-84341118D01*
X179967712Y-84418794D01*
X180154513Y-84458500D01*
X180338884Y-84458500D01*
X180345487Y-84458500D01*
X180532288Y-84418794D01*
X180706752Y-84341118D01*
X180861253Y-84228866D01*
X180989040Y-84086944D01*
X181084527Y-83921556D01*
X181143542Y-83739928D01*
X181163504Y-83550000D01*
X181161701Y-83532846D01*
X181168914Y-83475756D01*
X181200759Y-83427826D01*
X181250594Y-83399053D01*
X181308025Y-83395441D01*
X181361070Y-83417739D01*
X181393248Y-83441118D01*
X181567712Y-83518794D01*
X181754513Y-83558500D01*
X181775050Y-83558500D01*
X181823268Y-83568091D01*
X181864145Y-83595405D01*
X181976343Y-83707603D01*
X181984332Y-83716382D01*
X181984337Y-83716388D01*
X181988584Y-83723080D01*
X181994360Y-83728504D01*
X181994361Y-83728505D01*
X182040257Y-83771604D01*
X182043099Y-83774359D01*
X182057352Y-83788612D01*
X182089367Y-83842944D01*
X182091043Y-83905985D01*
X182067408Y-83951459D01*
X182069261Y-83952805D01*
X182065378Y-83958148D01*
X182060960Y-83963056D01*
X181965473Y-84128444D01*
X181963434Y-84134718D01*
X181963430Y-84134728D01*
X181908497Y-84303794D01*
X181908495Y-84303801D01*
X181906458Y-84310072D01*
X181905768Y-84316633D01*
X181905768Y-84316635D01*
X181892592Y-84441995D01*
X181886496Y-84500000D01*
X181887186Y-84506565D01*
X181893449Y-84566159D01*
X181906458Y-84689928D01*
X181908495Y-84696200D01*
X181908497Y-84696205D01*
X181963430Y-84865271D01*
X181963433Y-84865278D01*
X181965473Y-84871556D01*
X182060960Y-85036944D01*
X182065379Y-85041851D01*
X182069259Y-85047192D01*
X182067392Y-85048548D01*
X182091026Y-85093935D01*
X182089379Y-85157015D01*
X182057353Y-85211386D01*
X178942396Y-88326342D01*
X178933622Y-88334327D01*
X178933605Y-88334340D01*
X178926920Y-88338584D01*
X178921503Y-88344352D01*
X178921495Y-88344359D01*
X178878393Y-88390258D01*
X178875645Y-88393094D01*
X178855073Y-88413667D01*
X178852647Y-88416793D01*
X178852625Y-88416819D01*
X178852325Y-88417206D01*
X178844649Y-88426191D01*
X178818454Y-88454088D01*
X178818451Y-88454091D01*
X178813028Y-88459867D01*
X178809212Y-88466806D01*
X178809205Y-88466817D01*
X178802689Y-88478669D01*
X178791844Y-88495179D01*
X178783556Y-88505864D01*
X178783550Y-88505872D01*
X178778696Y-88512132D01*
X178775549Y-88519402D01*
X178775547Y-88519407D01*
X178760351Y-88554523D01*
X178755131Y-88565178D01*
X178736697Y-88598710D01*
X178736693Y-88598718D01*
X178732876Y-88605663D01*
X178730905Y-88613336D01*
X178730902Y-88613346D01*
X178727541Y-88626438D01*
X178721140Y-88645134D01*
X178715767Y-88657550D01*
X178715765Y-88657554D01*
X178712620Y-88664824D01*
X178711381Y-88672641D01*
X178711380Y-88672648D01*
X178705393Y-88710452D01*
X178702986Y-88722073D01*
X178693471Y-88759130D01*
X178693469Y-88759140D01*
X178691500Y-88766812D01*
X178691500Y-88774741D01*
X178691500Y-88788259D01*
X178689949Y-88807968D01*
X178686594Y-88829152D01*
X178687339Y-88837043D01*
X178687340Y-88837043D01*
X178690941Y-88875138D01*
X178691500Y-88886996D01*
X178691500Y-89474852D01*
X178676231Y-89534974D01*
X178634125Y-89580524D01*
X178575386Y-89600464D01*
X178514252Y-89589959D01*
X178388322Y-89533892D01*
X178388317Y-89533890D01*
X178382288Y-89531206D01*
X178375835Y-89529834D01*
X178375831Y-89529833D01*
X178201943Y-89492872D01*
X178201940Y-89492871D01*
X178195487Y-89491500D01*
X178004513Y-89491500D01*
X177998060Y-89492871D01*
X177998056Y-89492872D01*
X177824168Y-89529833D01*
X177824161Y-89529835D01*
X177817712Y-89531206D01*
X177811682Y-89533890D01*
X177811681Y-89533891D01*
X177649278Y-89606197D01*
X177649275Y-89606198D01*
X177643248Y-89608882D01*
X177637907Y-89612762D01*
X177637906Y-89612763D01*
X177494091Y-89717250D01*
X177494083Y-89717256D01*
X177488747Y-89721134D01*
X177484330Y-89726039D01*
X177484325Y-89726044D01*
X177425000Y-89791932D01*
X177360960Y-89863056D01*
X177357661Y-89868769D01*
X177357658Y-89868774D01*
X177268777Y-90022721D01*
X177265473Y-90028444D01*
X177263434Y-90034718D01*
X177263430Y-90034728D01*
X177208497Y-90203794D01*
X177208495Y-90203801D01*
X177206458Y-90210072D01*
X177186496Y-90400000D01*
X177187186Y-90406565D01*
X177192644Y-90458500D01*
X177206458Y-90589928D01*
X177208495Y-90596200D01*
X177208497Y-90596205D01*
X177263430Y-90765271D01*
X177263433Y-90765278D01*
X177265473Y-90771556D01*
X177360960Y-90936944D01*
X177488747Y-91078866D01*
X177494089Y-91082747D01*
X177494091Y-91082749D01*
X177494730Y-91083213D01*
X177643248Y-91191118D01*
X177817712Y-91268794D01*
X178004513Y-91308500D01*
X178188884Y-91308500D01*
X178195487Y-91308500D01*
X178382288Y-91268794D01*
X178556752Y-91191118D01*
X178650943Y-91122683D01*
X178698803Y-91101375D01*
X178751197Y-91101375D01*
X178799056Y-91122683D01*
X178893248Y-91191118D01*
X179067712Y-91268794D01*
X179254513Y-91308500D01*
X179438884Y-91308500D01*
X179445487Y-91308500D01*
X179632288Y-91268794D01*
X179806752Y-91191118D01*
X179925942Y-91104520D01*
X179973802Y-91083213D01*
X180026196Y-91083212D01*
X180074060Y-91104523D01*
X180099060Y-91122686D01*
X180193248Y-91191118D01*
X180367712Y-91268794D01*
X180554513Y-91308500D01*
X180738884Y-91308500D01*
X180745487Y-91308500D01*
X180932288Y-91268794D01*
X181106752Y-91191118D01*
X181261253Y-91078866D01*
X181389040Y-90936944D01*
X181484527Y-90771556D01*
X181543542Y-90589928D01*
X181563504Y-90400000D01*
X189786496Y-90400000D01*
X189787186Y-90406565D01*
X189792644Y-90458500D01*
X189806458Y-90589928D01*
X189808495Y-90596200D01*
X189808497Y-90596205D01*
X189863430Y-90765271D01*
X189863433Y-90765278D01*
X189865473Y-90771556D01*
X189960960Y-90936944D01*
X190088747Y-91078866D01*
X190094089Y-91082747D01*
X190094091Y-91082749D01*
X190094730Y-91083213D01*
X190243248Y-91191118D01*
X190417712Y-91268794D01*
X190604513Y-91308500D01*
X190788884Y-91308500D01*
X190795487Y-91308500D01*
X190982288Y-91268794D01*
X191156752Y-91191118D01*
X191311253Y-91078866D01*
X191439040Y-90936944D01*
X191534527Y-90771556D01*
X191593542Y-90589928D01*
X191613504Y-90400000D01*
X191593542Y-90210072D01*
X191534527Y-90028444D01*
X191439040Y-89863056D01*
X191311253Y-89721134D01*
X191305911Y-89717253D01*
X191305908Y-89717250D01*
X191228057Y-89660688D01*
X191156752Y-89608882D01*
X190982288Y-89531206D01*
X190975835Y-89529834D01*
X190975831Y-89529833D01*
X190801943Y-89492872D01*
X190801940Y-89492871D01*
X190795487Y-89491500D01*
X190604513Y-89491500D01*
X190598060Y-89492871D01*
X190598056Y-89492872D01*
X190424168Y-89529833D01*
X190424161Y-89529835D01*
X190417712Y-89531206D01*
X190411682Y-89533890D01*
X190411681Y-89533891D01*
X190249278Y-89606197D01*
X190249275Y-89606198D01*
X190243248Y-89608882D01*
X190237907Y-89612762D01*
X190237906Y-89612763D01*
X190094091Y-89717250D01*
X190094083Y-89717256D01*
X190088747Y-89721134D01*
X190084330Y-89726039D01*
X190084325Y-89726044D01*
X190025000Y-89791932D01*
X189960960Y-89863056D01*
X189957661Y-89868769D01*
X189957658Y-89868774D01*
X189868777Y-90022721D01*
X189865473Y-90028444D01*
X189863434Y-90034718D01*
X189863430Y-90034728D01*
X189808497Y-90203794D01*
X189808495Y-90203801D01*
X189806458Y-90210072D01*
X189786496Y-90400000D01*
X181563504Y-90400000D01*
X181543542Y-90210072D01*
X181484527Y-90028444D01*
X181389040Y-89863056D01*
X181340863Y-89809550D01*
X181316869Y-89770395D01*
X181308500Y-89725241D01*
X181308500Y-89274950D01*
X181318091Y-89226732D01*
X181345405Y-89185855D01*
X181820808Y-88710452D01*
X184407610Y-86123647D01*
X184416380Y-86115667D01*
X184423080Y-86111416D01*
X184471652Y-86059690D01*
X184474313Y-86056944D01*
X184494926Y-86036333D01*
X184497634Y-86032840D01*
X184505333Y-86023823D01*
X184536972Y-85990133D01*
X184547300Y-85971345D01*
X184558159Y-85954814D01*
X184566442Y-85944136D01*
X184571304Y-85937869D01*
X184589665Y-85895437D01*
X184594859Y-85884835D01*
X184617124Y-85844337D01*
X184622459Y-85823557D01*
X184628858Y-85804865D01*
X184637379Y-85785177D01*
X184644606Y-85739543D01*
X184647006Y-85727948D01*
X184658500Y-85683188D01*
X184658500Y-85661742D01*
X184660051Y-85642031D01*
X184662166Y-85628677D01*
X184663406Y-85620849D01*
X184659059Y-85574864D01*
X184658500Y-85563006D01*
X184658500Y-85174759D01*
X184666869Y-85129605D01*
X184690864Y-85090449D01*
X184739040Y-85036944D01*
X184834527Y-84871556D01*
X184893542Y-84689928D01*
X184913504Y-84500000D01*
X184893542Y-84310072D01*
X184834527Y-84128444D01*
X184835703Y-84128061D01*
X184826518Y-84074619D01*
X184846456Y-84015878D01*
X184892007Y-83973770D01*
X184952130Y-83958500D01*
X189612944Y-83958500D01*
X189624800Y-83959059D01*
X189624803Y-83959059D01*
X189632537Y-83960788D01*
X189703369Y-83958561D01*
X189707327Y-83958500D01*
X189732476Y-83958500D01*
X189736432Y-83958500D01*
X189740831Y-83957943D01*
X189752664Y-83957012D01*
X189798831Y-83955562D01*
X189819416Y-83949581D01*
X189838784Y-83945570D01*
X189860064Y-83942882D01*
X189903019Y-83925874D01*
X189914231Y-83922035D01*
X189958600Y-83909145D01*
X189977055Y-83898229D01*
X189994813Y-83889530D01*
X190014756Y-83881635D01*
X190052148Y-83854466D01*
X190062040Y-83847969D01*
X190101807Y-83824453D01*
X190116977Y-83809281D01*
X190132005Y-83796447D01*
X190149357Y-83783841D01*
X190178813Y-83748233D01*
X190186782Y-83739476D01*
X190466899Y-83459359D01*
X190517552Y-83428463D01*
X190576731Y-83424175D01*
X190777282Y-83457641D01*
X190777284Y-83457641D01*
X190782431Y-83458500D01*
X191002358Y-83458500D01*
X191007569Y-83458500D01*
X191229635Y-83421444D01*
X191442574Y-83348342D01*
X191640576Y-83241189D01*
X191818240Y-83102906D01*
X191970722Y-82937268D01*
X192059518Y-82801354D01*
X192105030Y-82759457D01*
X192165000Y-82744271D01*
X192224970Y-82759457D01*
X192270481Y-82801354D01*
X192359278Y-82937268D01*
X192362806Y-82941100D01*
X192508227Y-83099069D01*
X192508231Y-83099073D01*
X192511760Y-83102906D01*
X192689424Y-83241189D01*
X192887426Y-83348342D01*
X192892355Y-83350034D01*
X192892357Y-83350035D01*
X192921594Y-83360072D01*
X193100365Y-83421444D01*
X193322431Y-83458500D01*
X193542358Y-83458500D01*
X193547569Y-83458500D01*
X193769635Y-83421444D01*
X193982574Y-83348342D01*
X194180576Y-83241189D01*
X194358240Y-83102906D01*
X194510722Y-82937268D01*
X194633860Y-82748791D01*
X194724296Y-82542616D01*
X194779564Y-82324368D01*
X194798156Y-82100000D01*
X194779564Y-81875632D01*
X194724296Y-81657384D01*
X194633860Y-81451209D01*
X194510722Y-81262732D01*
X194443363Y-81189561D01*
X194361772Y-81100930D01*
X194361767Y-81100925D01*
X194358240Y-81097094D01*
X194180576Y-80958811D01*
X194176002Y-80956336D01*
X194175995Y-80956331D01*
X194147320Y-80940814D01*
X194099048Y-80894498D01*
X194081289Y-80830000D01*
X194099048Y-80765502D01*
X194147320Y-80719186D01*
X194164162Y-80710072D01*
X194180576Y-80701189D01*
X194358240Y-80562906D01*
X194510722Y-80397268D01*
X194633860Y-80208791D01*
X194724296Y-80002616D01*
X194779564Y-79784368D01*
X194798156Y-79560000D01*
X194779564Y-79335632D01*
X194724296Y-79117384D01*
X194633860Y-78911209D01*
X194510722Y-78722732D01*
X194415507Y-78619302D01*
X194361772Y-78560930D01*
X194361767Y-78560925D01*
X194358240Y-78557094D01*
X194180576Y-78418811D01*
X194176002Y-78416336D01*
X194175995Y-78416331D01*
X194147320Y-78400814D01*
X194099048Y-78354498D01*
X194081289Y-78290000D01*
X194099048Y-78225502D01*
X194147320Y-78179186D01*
X194154045Y-78175547D01*
X194180576Y-78161189D01*
X194358240Y-78022906D01*
X194510722Y-77857268D01*
X194633860Y-77668791D01*
X194724296Y-77462616D01*
X194779564Y-77244368D01*
X194798156Y-77020000D01*
X194779564Y-76795632D01*
X194724296Y-76577384D01*
X194633860Y-76371209D01*
X194510722Y-76182732D01*
X194446655Y-76113137D01*
X194361772Y-76020930D01*
X194361767Y-76020925D01*
X194358240Y-76017094D01*
X194180576Y-75878811D01*
X194176002Y-75876336D01*
X194175995Y-75876331D01*
X194147320Y-75860814D01*
X194099048Y-75814498D01*
X194081289Y-75750000D01*
X194099048Y-75685502D01*
X194147320Y-75639186D01*
X194175990Y-75623671D01*
X194180576Y-75621189D01*
X194358240Y-75482906D01*
X194510722Y-75317268D01*
X194633860Y-75128791D01*
X194724296Y-74922616D01*
X194779564Y-74704368D01*
X194798156Y-74480000D01*
X194779564Y-74255632D01*
X194724296Y-74037384D01*
X194633860Y-73831209D01*
X194510722Y-73642732D01*
X194448958Y-73575639D01*
X194361772Y-73480930D01*
X194361767Y-73480925D01*
X194358240Y-73477094D01*
X194180576Y-73338811D01*
X194175997Y-73336333D01*
X194175994Y-73336331D01*
X193987159Y-73234139D01*
X193987156Y-73234137D01*
X193982574Y-73231658D01*
X193977650Y-73229967D01*
X193977642Y-73229964D01*
X193774565Y-73160248D01*
X193774559Y-73160246D01*
X193769635Y-73158556D01*
X193764498Y-73157698D01*
X193764495Y-73157698D01*
X193552706Y-73122357D01*
X193552703Y-73122356D01*
X193547569Y-73121500D01*
X193322431Y-73121500D01*
X193317297Y-73122356D01*
X193317293Y-73122357D01*
X193105504Y-73157698D01*
X193105498Y-73157699D01*
X193100365Y-73158556D01*
X193095443Y-73160245D01*
X193095434Y-73160248D01*
X192892357Y-73229964D01*
X192892344Y-73229969D01*
X192887426Y-73231658D01*
X192882847Y-73234135D01*
X192882840Y-73234139D01*
X192694005Y-73336331D01*
X192693997Y-73336336D01*
X192689424Y-73338811D01*
X192685313Y-73342010D01*
X192685311Y-73342012D01*
X192515878Y-73473888D01*
X192515872Y-73473893D01*
X192511760Y-73477094D01*
X192508237Y-73480919D01*
X192508227Y-73480930D01*
X192362806Y-73638899D01*
X192362802Y-73638902D01*
X192359278Y-73642732D01*
X192356430Y-73647090D01*
X192356427Y-73647095D01*
X192270483Y-73778643D01*
X192224969Y-73820542D01*
X192165000Y-73835728D01*
X192105031Y-73820542D01*
X192059517Y-73778643D01*
X191973572Y-73647095D01*
X191970722Y-73642732D01*
X191908958Y-73575639D01*
X191821772Y-73480930D01*
X191821767Y-73480925D01*
X191818240Y-73477094D01*
X191640576Y-73338811D01*
X191635997Y-73336333D01*
X191635994Y-73336331D01*
X191447159Y-73234139D01*
X191447156Y-73234137D01*
X191442574Y-73231658D01*
X191437650Y-73229967D01*
X191437642Y-73229964D01*
X191234565Y-73160248D01*
X191234559Y-73160246D01*
X191229635Y-73158556D01*
X191224498Y-73157698D01*
X191224495Y-73157698D01*
X191012706Y-73122357D01*
X191012703Y-73122356D01*
X191007569Y-73121500D01*
X190782431Y-73121500D01*
X190777297Y-73122356D01*
X190777293Y-73122357D01*
X190565504Y-73157698D01*
X190565498Y-73157699D01*
X190560365Y-73158556D01*
X190555443Y-73160245D01*
X190555434Y-73160248D01*
X190352357Y-73229964D01*
X190352344Y-73229969D01*
X190347426Y-73231658D01*
X190342847Y-73234135D01*
X190342840Y-73234139D01*
X190154005Y-73336331D01*
X190153997Y-73336336D01*
X190149424Y-73338811D01*
X190145313Y-73342010D01*
X190145311Y-73342012D01*
X189975878Y-73473888D01*
X189975872Y-73473893D01*
X189971760Y-73477094D01*
X189968237Y-73480919D01*
X189968227Y-73480930D01*
X189822806Y-73638899D01*
X189822802Y-73638902D01*
X189819278Y-73642732D01*
X189816430Y-73647090D01*
X189816427Y-73647095D01*
X189730483Y-73778643D01*
X189684969Y-73820542D01*
X189625000Y-73835728D01*
X189565031Y-73820542D01*
X189519517Y-73778643D01*
X189433572Y-73647095D01*
X189430722Y-73642732D01*
X189368958Y-73575639D01*
X189281772Y-73480930D01*
X189281767Y-73480925D01*
X189278240Y-73477094D01*
X189100576Y-73338811D01*
X189095997Y-73336333D01*
X189095994Y-73336331D01*
X188907159Y-73234139D01*
X188907156Y-73234137D01*
X188902574Y-73231658D01*
X188897650Y-73229967D01*
X188897642Y-73229964D01*
X188694565Y-73160248D01*
X188694559Y-73160246D01*
X188689635Y-73158556D01*
X188684498Y-73157698D01*
X188684495Y-73157698D01*
X188472706Y-73122357D01*
X188472703Y-73122356D01*
X188467569Y-73121500D01*
X188242431Y-73121500D01*
X188237297Y-73122356D01*
X188237293Y-73122357D01*
X188025504Y-73157698D01*
X188025498Y-73157699D01*
X188020365Y-73158556D01*
X188015443Y-73160245D01*
X188015434Y-73160248D01*
X187812357Y-73229964D01*
X187812344Y-73229969D01*
X187807426Y-73231658D01*
X187802847Y-73234135D01*
X187802840Y-73234139D01*
X187614005Y-73336331D01*
X187613997Y-73336336D01*
X187609424Y-73338811D01*
X187605313Y-73342010D01*
X187605311Y-73342012D01*
X187435878Y-73473888D01*
X187435872Y-73473893D01*
X187431760Y-73477094D01*
X187428237Y-73480919D01*
X187428227Y-73480930D01*
X187282806Y-73638899D01*
X187282802Y-73638902D01*
X187279278Y-73642732D01*
X187276430Y-73647090D01*
X187276427Y-73647095D01*
X187213526Y-73743373D01*
X187156140Y-73831209D01*
X187154048Y-73835978D01*
X187154046Y-73835982D01*
X187067799Y-74032606D01*
X187067796Y-74032614D01*
X187065704Y-74037384D01*
X187064423Y-74042440D01*
X187064422Y-74042445D01*
X187015232Y-74236692D01*
X187010436Y-74255632D01*
X187010006Y-74260820D01*
X187010005Y-74260827D01*
X186992909Y-74467147D01*
X186991844Y-74480000D01*
X186992274Y-74485189D01*
X187008808Y-74684728D01*
X187010436Y-74704368D01*
X187065704Y-74922616D01*
X187067797Y-74927389D01*
X187067799Y-74927393D01*
X187093018Y-74984887D01*
X187103200Y-75045906D01*
X187083113Y-75104416D01*
X187037599Y-75146314D01*
X186977630Y-75161500D01*
X184744950Y-75161500D01*
X184696732Y-75151909D01*
X184655855Y-75124595D01*
X179773654Y-70242394D01*
X179765663Y-70233613D01*
X179761416Y-70226920D01*
X179709741Y-70178394D01*
X179706899Y-70175639D01*
X179689140Y-70157880D01*
X179689139Y-70157879D01*
X179686333Y-70155073D01*
X179682826Y-70152352D01*
X179673804Y-70144647D01*
X179645912Y-70118455D01*
X179640133Y-70113028D01*
X179621337Y-70102694D01*
X179604816Y-70091841D01*
X179594130Y-70083552D01*
X179594123Y-70083548D01*
X179587868Y-70078696D01*
X179580602Y-70075551D01*
X179580596Y-70075548D01*
X179545463Y-70060344D01*
X179534807Y-70055124D01*
X179501279Y-70036692D01*
X179501276Y-70036691D01*
X179494337Y-70032876D01*
X179486663Y-70030905D01*
X179486659Y-70030904D01*
X179473565Y-70027542D01*
X179454868Y-70021141D01*
X179442451Y-70015768D01*
X179442449Y-70015767D01*
X179435176Y-70012620D01*
X179389552Y-70005394D01*
X179377929Y-70002987D01*
X179340867Y-69993471D01*
X179340862Y-69993470D01*
X179333188Y-69991500D01*
X179325259Y-69991500D01*
X179311741Y-69991500D01*
X179292031Y-69989949D01*
X179278677Y-69987834D01*
X179270848Y-69986594D01*
X179224859Y-69990941D01*
X179213004Y-69991500D01*
X173830224Y-69991500D01*
X173791288Y-69985333D01*
X173756163Y-69967436D01*
X173612093Y-69862762D01*
X173612089Y-69862760D01*
X173606752Y-69858882D01*
X173432288Y-69781206D01*
X173425835Y-69779834D01*
X173425831Y-69779833D01*
X173251943Y-69742872D01*
X173251940Y-69742871D01*
X173245487Y-69741500D01*
X173054513Y-69741500D01*
X173048060Y-69742871D01*
X173048056Y-69742872D01*
X172874168Y-69779833D01*
X172874161Y-69779835D01*
X172867712Y-69781206D01*
X172861682Y-69783890D01*
X172861681Y-69783891D01*
X172699278Y-69856197D01*
X172699275Y-69856198D01*
X172693248Y-69858882D01*
X172687907Y-69862762D01*
X172687906Y-69862763D01*
X172544091Y-69967250D01*
X172544083Y-69967256D01*
X172538747Y-69971134D01*
X172534330Y-69976039D01*
X172534325Y-69976044D01*
X172437525Y-70083552D01*
X172410960Y-70113056D01*
X172407661Y-70118769D01*
X172407658Y-70118774D01*
X172318777Y-70272721D01*
X172315473Y-70278444D01*
X172313434Y-70284718D01*
X172313430Y-70284728D01*
X172258497Y-70453794D01*
X172258495Y-70453801D01*
X172256458Y-70460072D01*
X172255768Y-70466633D01*
X172255768Y-70466635D01*
X172242500Y-70592872D01*
X172236496Y-70650000D01*
X172256458Y-70839928D01*
X172258495Y-70846200D01*
X172258497Y-70846205D01*
X172313430Y-71015271D01*
X172313433Y-71015278D01*
X172315473Y-71021556D01*
X172410960Y-71186944D01*
X172538747Y-71328866D01*
X172693248Y-71441118D01*
X172867712Y-71518794D01*
X173054513Y-71558500D01*
X173238884Y-71558500D01*
X173245487Y-71558500D01*
X173432288Y-71518794D01*
X173606752Y-71441118D01*
X173756163Y-71332563D01*
X173791288Y-71314667D01*
X173830224Y-71308500D01*
X178925050Y-71308500D01*
X178973268Y-71318091D01*
X179014145Y-71345405D01*
X183815145Y-76146405D01*
X183845883Y-76196564D01*
X183850499Y-76255211D01*
X183827986Y-76309561D01*
X183783253Y-76347767D01*
X183726050Y-76361500D01*
X182759164Y-76361500D01*
X182710946Y-76351909D01*
X182670069Y-76324595D01*
X179987867Y-73642394D01*
X179979876Y-73633613D01*
X179975629Y-73626920D01*
X179923954Y-73578394D01*
X179921112Y-73575639D01*
X179903353Y-73557880D01*
X179903353Y-73557879D01*
X179900546Y-73555073D01*
X179897039Y-73552352D01*
X179888017Y-73544647D01*
X179860125Y-73518455D01*
X179854346Y-73513028D01*
X179835550Y-73502694D01*
X179819029Y-73491841D01*
X179808343Y-73483552D01*
X179808336Y-73483548D01*
X179802081Y-73478696D01*
X179794815Y-73475551D01*
X179794809Y-73475548D01*
X179759676Y-73460344D01*
X179749020Y-73455124D01*
X179715492Y-73436692D01*
X179715489Y-73436691D01*
X179708550Y-73432876D01*
X179700876Y-73430905D01*
X179700872Y-73430904D01*
X179687778Y-73427542D01*
X179669081Y-73421141D01*
X179656664Y-73415768D01*
X179656662Y-73415767D01*
X179649389Y-73412620D01*
X179603765Y-73405394D01*
X179592142Y-73402987D01*
X179555080Y-73393471D01*
X179555075Y-73393470D01*
X179547401Y-73391500D01*
X179539472Y-73391500D01*
X179525954Y-73391500D01*
X179506244Y-73389949D01*
X179492890Y-73387834D01*
X179485061Y-73386594D01*
X179439072Y-73390941D01*
X179427217Y-73391500D01*
X174124950Y-73391500D01*
X174076732Y-73381909D01*
X174035855Y-73354595D01*
X172192969Y-71511709D01*
X172168338Y-71476858D01*
X172156754Y-71435784D01*
X172145925Y-71332749D01*
X172143542Y-71310072D01*
X172084527Y-71128444D01*
X171989040Y-70963056D01*
X171861253Y-70821134D01*
X171855911Y-70817253D01*
X171855908Y-70817250D01*
X171766101Y-70752002D01*
X171706752Y-70708882D01*
X171532288Y-70631206D01*
X171525835Y-70629834D01*
X171525831Y-70629833D01*
X171351943Y-70592872D01*
X171351940Y-70592871D01*
X171345487Y-70591500D01*
X171154513Y-70591500D01*
X171148060Y-70592871D01*
X171148056Y-70592872D01*
X170974168Y-70629833D01*
X170974161Y-70629835D01*
X170967712Y-70631206D01*
X170961682Y-70633890D01*
X170961681Y-70633891D01*
X170799280Y-70706196D01*
X170799277Y-70706197D01*
X170793248Y-70708882D01*
X170787910Y-70712759D01*
X170787905Y-70712763D01*
X170765327Y-70729167D01*
X170708803Y-70752002D01*
X170648174Y-70745629D01*
X170597634Y-70711539D01*
X170592241Y-70705549D01*
X170561253Y-70671134D01*
X170539883Y-70655608D01*
X170453535Y-70592872D01*
X170406752Y-70558882D01*
X170232288Y-70481206D01*
X170225835Y-70479834D01*
X170225831Y-70479833D01*
X170051943Y-70442872D01*
X170051940Y-70442871D01*
X170045487Y-70441500D01*
X169934500Y-70441500D01*
X169871500Y-70424619D01*
X169825381Y-70378500D01*
X169808500Y-70315500D01*
X169808500Y-69384500D01*
X169825381Y-69321500D01*
X169871500Y-69275381D01*
X169934500Y-69258500D01*
X177875050Y-69258500D01*
X177886906Y-69259059D01*
X177886909Y-69259059D01*
X177894643Y-69260788D01*
X177965475Y-69258561D01*
X177969433Y-69258500D01*
X177994582Y-69258500D01*
X177998538Y-69258500D01*
X178002937Y-69257943D01*
X178014770Y-69257012D01*
X178060937Y-69255562D01*
X178081522Y-69249581D01*
X178100890Y-69245570D01*
X178122170Y-69242882D01*
X178165125Y-69225874D01*
X178176337Y-69222035D01*
X178220706Y-69209145D01*
X178239161Y-69198229D01*
X178256919Y-69189530D01*
X178276862Y-69181635D01*
X178314254Y-69154466D01*
X178324146Y-69147969D01*
X178363913Y-69124453D01*
X178379083Y-69109281D01*
X178394111Y-69096447D01*
X178411463Y-69083841D01*
X178440918Y-69048234D01*
X178448888Y-69039476D01*
X179188364Y-68300000D01*
X185636496Y-68300000D01*
X185656458Y-68489928D01*
X185658495Y-68496200D01*
X185658497Y-68496205D01*
X185713430Y-68665271D01*
X185713433Y-68665278D01*
X185715473Y-68671556D01*
X185810960Y-68836944D01*
X185938747Y-68978866D01*
X186093248Y-69091118D01*
X186267712Y-69168794D01*
X186454513Y-69208500D01*
X186638884Y-69208500D01*
X186645487Y-69208500D01*
X186832288Y-69168794D01*
X187006752Y-69091118D01*
X187161253Y-68978866D01*
X187289040Y-68836944D01*
X187384527Y-68671556D01*
X187443542Y-68489928D01*
X187463504Y-68300000D01*
X187443542Y-68110072D01*
X187384527Y-67928444D01*
X187289040Y-67763056D01*
X187161253Y-67621134D01*
X187155911Y-67617253D01*
X187155908Y-67617250D01*
X187061982Y-67549009D01*
X187006752Y-67508882D01*
X186832288Y-67431206D01*
X186825835Y-67429834D01*
X186825831Y-67429833D01*
X186651943Y-67392872D01*
X186651940Y-67392871D01*
X186645487Y-67391500D01*
X186454513Y-67391500D01*
X186448060Y-67392871D01*
X186448056Y-67392872D01*
X186274168Y-67429833D01*
X186274161Y-67429835D01*
X186267712Y-67431206D01*
X186261682Y-67433890D01*
X186261681Y-67433891D01*
X186099278Y-67506197D01*
X186099275Y-67506198D01*
X186093248Y-67508882D01*
X186087907Y-67512762D01*
X186087906Y-67512763D01*
X185944091Y-67617250D01*
X185944083Y-67617256D01*
X185938747Y-67621134D01*
X185934330Y-67626039D01*
X185934325Y-67626044D01*
X185815379Y-67758148D01*
X185810960Y-67763056D01*
X185807661Y-67768769D01*
X185807658Y-67768774D01*
X185754989Y-67860000D01*
X185715473Y-67928444D01*
X185713434Y-67934718D01*
X185713430Y-67934728D01*
X185658497Y-68103794D01*
X185658495Y-68103801D01*
X185656458Y-68110072D01*
X185636496Y-68300000D01*
X179188364Y-68300000D01*
X181388364Y-66100000D01*
X192036844Y-66100000D01*
X192037274Y-66105189D01*
X192052680Y-66291118D01*
X192055436Y-66324368D01*
X192110704Y-66542616D01*
X192112797Y-66547389D01*
X192112799Y-66547393D01*
X192188147Y-66719170D01*
X192201140Y-66748791D01*
X192324278Y-66937268D01*
X192342673Y-66957250D01*
X192473227Y-67099069D01*
X192473231Y-67099073D01*
X192476760Y-67102906D01*
X192654424Y-67241189D01*
X192852426Y-67348342D01*
X192857355Y-67350034D01*
X192857357Y-67350035D01*
X192958895Y-67384892D01*
X193065365Y-67421444D01*
X193287431Y-67458500D01*
X193507358Y-67458500D01*
X193512569Y-67458500D01*
X193734635Y-67421444D01*
X193947574Y-67348342D01*
X194145576Y-67241189D01*
X194323240Y-67102906D01*
X194475722Y-66937268D01*
X194598860Y-66748791D01*
X194689296Y-66542616D01*
X194744564Y-66324368D01*
X194763156Y-66100000D01*
X194744564Y-65875632D01*
X194689296Y-65657384D01*
X194598860Y-65451209D01*
X194475722Y-65262732D01*
X194346832Y-65122721D01*
X194326772Y-65100930D01*
X194326767Y-65100925D01*
X194323240Y-65097094D01*
X194145576Y-64958811D01*
X194140997Y-64956333D01*
X194140994Y-64956331D01*
X193952159Y-64854139D01*
X193952156Y-64854137D01*
X193947574Y-64851658D01*
X193942650Y-64849967D01*
X193942642Y-64849964D01*
X193739565Y-64780248D01*
X193739559Y-64780246D01*
X193734635Y-64778556D01*
X193729498Y-64777698D01*
X193729495Y-64777698D01*
X193517706Y-64742357D01*
X193517703Y-64742356D01*
X193512569Y-64741500D01*
X193287431Y-64741500D01*
X193282297Y-64742356D01*
X193282293Y-64742357D01*
X193070504Y-64777698D01*
X193070498Y-64777699D01*
X193065365Y-64778556D01*
X193060443Y-64780245D01*
X193060434Y-64780248D01*
X192857357Y-64849964D01*
X192857344Y-64849969D01*
X192852426Y-64851658D01*
X192847847Y-64854135D01*
X192847840Y-64854139D01*
X192659005Y-64956331D01*
X192658997Y-64956336D01*
X192654424Y-64958811D01*
X192650313Y-64962010D01*
X192650311Y-64962012D01*
X192480878Y-65093888D01*
X192480872Y-65093893D01*
X192476760Y-65097094D01*
X192473237Y-65100919D01*
X192473227Y-65100930D01*
X192327806Y-65258899D01*
X192327802Y-65258902D01*
X192324278Y-65262732D01*
X192321430Y-65267090D01*
X192321427Y-65267095D01*
X192209089Y-65439042D01*
X192201140Y-65451209D01*
X192199048Y-65455978D01*
X192199046Y-65455982D01*
X192112799Y-65652606D01*
X192112796Y-65652614D01*
X192110704Y-65657384D01*
X192109423Y-65662440D01*
X192109422Y-65662445D01*
X192066508Y-65831909D01*
X192055436Y-65875632D01*
X192055006Y-65880820D01*
X192055005Y-65880827D01*
X192044816Y-66003794D01*
X192036844Y-66100000D01*
X181388364Y-66100000D01*
X183607615Y-63880749D01*
X183616383Y-63872771D01*
X183623080Y-63868522D01*
X183671606Y-63816846D01*
X183674330Y-63814034D01*
X183694927Y-63793439D01*
X183697644Y-63789935D01*
X183705345Y-63780917D01*
X183736972Y-63747239D01*
X183747303Y-63728445D01*
X183758154Y-63711926D01*
X183771304Y-63694974D01*
X183776370Y-63683268D01*
X183789652Y-63652574D01*
X183794867Y-63641926D01*
X183817124Y-63601443D01*
X183822458Y-63580664D01*
X183828858Y-63561972D01*
X183837380Y-63542282D01*
X183844609Y-63496631D01*
X183847010Y-63485038D01*
X183858500Y-63440294D01*
X183858500Y-63418847D01*
X183860051Y-63399137D01*
X183863406Y-63377954D01*
X183859058Y-63331965D01*
X183858500Y-63320110D01*
X183858500Y-61306602D01*
X183872471Y-61248936D01*
X183911284Y-61204057D01*
X183966334Y-61181918D01*
X184025411Y-61187428D01*
X184095365Y-61211444D01*
X184317431Y-61248500D01*
X184537358Y-61248500D01*
X184542569Y-61248500D01*
X184764635Y-61211444D01*
X184977574Y-61138342D01*
X185175576Y-61031189D01*
X185353240Y-60892906D01*
X185505722Y-60727268D01*
X185628860Y-60538791D01*
X185719296Y-60332616D01*
X185774564Y-60114368D01*
X185793156Y-59890000D01*
X185774564Y-59665632D01*
X185719296Y-59447384D01*
X185628860Y-59241209D01*
X185505722Y-59052732D01*
X185377906Y-58913888D01*
X185356772Y-58890930D01*
X185356767Y-58890925D01*
X185353240Y-58887094D01*
X185175576Y-58748811D01*
X185170997Y-58746333D01*
X185170994Y-58746331D01*
X184982159Y-58644139D01*
X184982156Y-58644137D01*
X184977574Y-58641658D01*
X184972650Y-58639967D01*
X184972642Y-58639964D01*
X184769565Y-58570248D01*
X184769559Y-58570246D01*
X184764635Y-58568556D01*
X184759498Y-58567698D01*
X184759495Y-58567698D01*
X184547706Y-58532357D01*
X184547703Y-58532356D01*
X184542569Y-58531500D01*
X184317431Y-58531500D01*
X184312297Y-58532356D01*
X184312293Y-58532357D01*
X184100504Y-58567698D01*
X184100498Y-58567699D01*
X184095365Y-58568556D01*
X184090443Y-58570245D01*
X184090434Y-58570248D01*
X184008790Y-58598277D01*
X183940459Y-58602085D01*
X183880218Y-58569612D01*
X183845836Y-58510438D01*
X183843876Y-58502805D01*
X183842882Y-58494936D01*
X183825869Y-58451966D01*
X183822030Y-58440751D01*
X183811357Y-58404014D01*
X183809145Y-58396400D01*
X183805109Y-58389576D01*
X183805108Y-58389573D01*
X183798227Y-58377938D01*
X183789529Y-58360184D01*
X183781635Y-58340244D01*
X183754483Y-58302874D01*
X183747965Y-58292951D01*
X183728489Y-58260018D01*
X183724453Y-58253193D01*
X183709288Y-58238028D01*
X183696446Y-58222993D01*
X183683841Y-58205643D01*
X183648237Y-58176189D01*
X183639467Y-58168207D01*
X183247010Y-57775750D01*
X183214626Y-57720103D01*
X183213961Y-57655725D01*
X183234564Y-57574368D01*
X183253156Y-57350000D01*
X183234564Y-57125632D01*
X183179296Y-56907384D01*
X183088860Y-56701209D01*
X182965722Y-56512732D01*
X182847791Y-56384626D01*
X182816772Y-56350930D01*
X182816767Y-56350925D01*
X182813240Y-56347094D01*
X182635576Y-56208811D01*
X182630997Y-56206333D01*
X182630994Y-56206331D01*
X182442159Y-56104139D01*
X182442156Y-56104137D01*
X182437574Y-56101658D01*
X182432650Y-56099967D01*
X182432642Y-56099964D01*
X182229565Y-56030248D01*
X182229559Y-56030246D01*
X182224635Y-56028556D01*
X182219498Y-56027698D01*
X182219495Y-56027698D01*
X182007706Y-55992357D01*
X182007703Y-55992356D01*
X182002569Y-55991500D01*
X181777431Y-55991500D01*
X181772297Y-55992356D01*
X181772293Y-55992357D01*
X181560504Y-56027698D01*
X181560498Y-56027699D01*
X181555365Y-56028556D01*
X181550443Y-56030245D01*
X181550434Y-56030248D01*
X181347357Y-56099964D01*
X181347344Y-56099969D01*
X181342426Y-56101658D01*
X181337847Y-56104135D01*
X181337840Y-56104139D01*
X181149005Y-56206331D01*
X181148997Y-56206336D01*
X181144424Y-56208811D01*
X181140313Y-56212010D01*
X181140311Y-56212012D01*
X180970878Y-56343888D01*
X180970872Y-56343893D01*
X180966760Y-56347094D01*
X180963237Y-56350919D01*
X180963227Y-56350930D01*
X180817806Y-56508899D01*
X180817802Y-56508902D01*
X180814278Y-56512732D01*
X180811430Y-56517090D01*
X180811427Y-56517095D01*
X180725483Y-56648643D01*
X180679969Y-56690542D01*
X180620000Y-56705728D01*
X180560031Y-56690542D01*
X180514517Y-56648643D01*
X180502051Y-56629563D01*
X180425722Y-56512732D01*
X180307791Y-56384626D01*
X180276772Y-56350930D01*
X180276767Y-56350925D01*
X180273240Y-56347094D01*
X180095576Y-56208811D01*
X180090997Y-56206333D01*
X180090994Y-56206331D01*
X179902159Y-56104139D01*
X179902156Y-56104137D01*
X179897574Y-56101658D01*
X179892650Y-56099967D01*
X179892642Y-56099964D01*
X179689565Y-56030248D01*
X179689559Y-56030246D01*
X179684635Y-56028556D01*
X179679498Y-56027698D01*
X179679495Y-56027698D01*
X179467706Y-55992357D01*
X179467703Y-55992356D01*
X179462569Y-55991500D01*
X179237431Y-55991500D01*
X179232297Y-55992356D01*
X179232293Y-55992357D01*
X179020504Y-56027698D01*
X179020498Y-56027699D01*
X179015365Y-56028556D01*
X179010443Y-56030245D01*
X179010434Y-56030248D01*
X178807357Y-56099964D01*
X178807344Y-56099969D01*
X178802426Y-56101658D01*
X178797847Y-56104135D01*
X178797840Y-56104139D01*
X178609005Y-56206331D01*
X178608997Y-56206336D01*
X178604424Y-56208811D01*
X178600313Y-56212010D01*
X178600311Y-56212012D01*
X178430878Y-56343888D01*
X178430872Y-56343893D01*
X178426760Y-56347094D01*
X178423237Y-56350919D01*
X178423227Y-56350930D01*
X178277806Y-56508899D01*
X178277802Y-56508902D01*
X178274278Y-56512732D01*
X178271430Y-56517090D01*
X178271427Y-56517095D01*
X178185483Y-56648643D01*
X178139969Y-56690542D01*
X178080000Y-56705728D01*
X178020031Y-56690542D01*
X177974517Y-56648643D01*
X177962051Y-56629563D01*
X177885722Y-56512732D01*
X177767791Y-56384626D01*
X177736772Y-56350930D01*
X177736767Y-56350925D01*
X177733240Y-56347094D01*
X177555576Y-56208811D01*
X177550997Y-56206333D01*
X177550994Y-56206331D01*
X177362159Y-56104139D01*
X177362156Y-56104137D01*
X177357574Y-56101658D01*
X177352650Y-56099967D01*
X177352642Y-56099964D01*
X177149565Y-56030248D01*
X177149559Y-56030246D01*
X177144635Y-56028556D01*
X177139498Y-56027698D01*
X177139495Y-56027698D01*
X176927706Y-55992357D01*
X176927703Y-55992356D01*
X176922569Y-55991500D01*
X176697431Y-55991500D01*
X176692297Y-55992356D01*
X176692293Y-55992357D01*
X176480504Y-56027698D01*
X176480498Y-56027699D01*
X176475365Y-56028556D01*
X176470443Y-56030245D01*
X176470434Y-56030248D01*
X176267357Y-56099964D01*
X176267344Y-56099969D01*
X176262426Y-56101658D01*
X176257847Y-56104135D01*
X176257840Y-56104139D01*
X176069005Y-56206331D01*
X176068997Y-56206336D01*
X176064424Y-56208811D01*
X176060313Y-56212010D01*
X176060311Y-56212012D01*
X175890878Y-56343888D01*
X175890872Y-56343893D01*
X175886760Y-56347094D01*
X175883237Y-56350919D01*
X175883227Y-56350930D01*
X175737806Y-56508899D01*
X175737802Y-56508902D01*
X175734278Y-56512732D01*
X175731430Y-56517090D01*
X175731427Y-56517095D01*
X175645483Y-56648643D01*
X175599969Y-56690542D01*
X175540000Y-56705728D01*
X175480031Y-56690542D01*
X175434517Y-56648643D01*
X175422051Y-56629563D01*
X175345722Y-56512732D01*
X175227791Y-56384626D01*
X175196772Y-56350930D01*
X175196767Y-56350925D01*
X175193240Y-56347094D01*
X175015576Y-56208811D01*
X175010997Y-56206333D01*
X175010994Y-56206331D01*
X174822159Y-56104139D01*
X174822156Y-56104137D01*
X174817574Y-56101658D01*
X174812650Y-56099967D01*
X174812642Y-56099964D01*
X174609565Y-56030248D01*
X174609559Y-56030246D01*
X174604635Y-56028556D01*
X174599498Y-56027698D01*
X174599495Y-56027698D01*
X174387706Y-55992357D01*
X174387703Y-55992356D01*
X174382569Y-55991500D01*
X174157431Y-55991500D01*
X174152297Y-55992356D01*
X174152293Y-55992357D01*
X173940504Y-56027698D01*
X173940498Y-56027699D01*
X173935365Y-56028556D01*
X173930443Y-56030245D01*
X173930434Y-56030248D01*
X173727357Y-56099964D01*
X173727344Y-56099969D01*
X173722426Y-56101658D01*
X173717847Y-56104135D01*
X173717840Y-56104139D01*
X173529005Y-56206331D01*
X173528997Y-56206336D01*
X173524424Y-56208811D01*
X173520313Y-56212010D01*
X173520311Y-56212012D01*
X173350878Y-56343888D01*
X173350872Y-56343893D01*
X173346760Y-56347094D01*
X173343237Y-56350919D01*
X173343227Y-56350930D01*
X173197806Y-56508899D01*
X173197802Y-56508902D01*
X173194278Y-56512732D01*
X173191430Y-56517090D01*
X173191427Y-56517095D01*
X173105483Y-56648643D01*
X173059969Y-56690542D01*
X173000000Y-56705728D01*
X172940031Y-56690542D01*
X172894517Y-56648643D01*
X172882051Y-56629563D01*
X172805722Y-56512732D01*
X172687791Y-56384626D01*
X172656772Y-56350930D01*
X172656767Y-56350925D01*
X172653240Y-56347094D01*
X172475576Y-56208811D01*
X172470997Y-56206333D01*
X172470994Y-56206331D01*
X172282159Y-56104139D01*
X172282156Y-56104137D01*
X172277574Y-56101658D01*
X172272650Y-56099967D01*
X172272642Y-56099964D01*
X172069565Y-56030248D01*
X172069559Y-56030246D01*
X172064635Y-56028556D01*
X172059498Y-56027698D01*
X172059495Y-56027698D01*
X171847706Y-55992357D01*
X171847703Y-55992356D01*
X171842569Y-55991500D01*
X171617431Y-55991500D01*
X171612297Y-55992356D01*
X171612293Y-55992357D01*
X171400504Y-56027698D01*
X171400498Y-56027699D01*
X171395365Y-56028556D01*
X171390443Y-56030245D01*
X171390434Y-56030248D01*
X171187357Y-56099964D01*
X171187344Y-56099969D01*
X171182426Y-56101658D01*
X171177847Y-56104135D01*
X171177840Y-56104139D01*
X170989005Y-56206331D01*
X170988997Y-56206336D01*
X170984424Y-56208811D01*
X170980313Y-56212010D01*
X170980311Y-56212012D01*
X170810878Y-56343888D01*
X170810872Y-56343893D01*
X170806760Y-56347094D01*
X170803237Y-56350919D01*
X170803227Y-56350930D01*
X170657806Y-56508899D01*
X170657802Y-56508902D01*
X170654278Y-56512732D01*
X170651430Y-56517090D01*
X170651427Y-56517095D01*
X170538109Y-56690542D01*
X170531140Y-56701209D01*
X170529048Y-56705978D01*
X170529046Y-56705982D01*
X170442799Y-56902606D01*
X170442796Y-56902614D01*
X170440704Y-56907384D01*
X170439423Y-56912440D01*
X170439422Y-56912445D01*
X170386717Y-57120573D01*
X170385436Y-57125632D01*
X170385006Y-57130820D01*
X170385005Y-57130827D01*
X170373006Y-57275632D01*
X170366844Y-57350000D01*
X170367274Y-57355189D01*
X170385005Y-57569172D01*
X170385005Y-57569177D01*
X170385436Y-57574368D01*
X170386717Y-57579426D01*
X170435302Y-57771286D01*
X170440704Y-57792616D01*
X170442797Y-57797389D01*
X170442799Y-57797393D01*
X170497398Y-57921867D01*
X170531140Y-57998791D01*
X170654278Y-58187268D01*
X170688590Y-58224540D01*
X170803227Y-58349069D01*
X170803231Y-58349073D01*
X170806760Y-58352906D01*
X170984424Y-58491189D01*
X171017680Y-58509186D01*
X171065950Y-58555499D01*
X171083710Y-58619996D01*
X171065953Y-58684494D01*
X171017683Y-58730811D01*
X170989005Y-58746331D01*
X170988997Y-58746336D01*
X170984424Y-58748811D01*
X170980313Y-58752010D01*
X170980311Y-58752012D01*
X170810878Y-58883888D01*
X170810872Y-58883893D01*
X170806760Y-58887094D01*
X170803237Y-58890919D01*
X170803227Y-58890930D01*
X170657806Y-59048899D01*
X170657802Y-59048902D01*
X170654278Y-59052732D01*
X170651430Y-59057090D01*
X170651427Y-59057095D01*
X170565483Y-59188643D01*
X170519969Y-59230542D01*
X170460000Y-59245728D01*
X170400031Y-59230542D01*
X170354517Y-59188643D01*
X170268572Y-59057095D01*
X170265722Y-59052732D01*
X170137906Y-58913888D01*
X170116772Y-58890930D01*
X170116767Y-58890925D01*
X170113240Y-58887094D01*
X169935576Y-58748811D01*
X169930997Y-58746333D01*
X169930994Y-58746331D01*
X169742159Y-58644139D01*
X169742156Y-58644137D01*
X169737574Y-58641658D01*
X169732650Y-58639967D01*
X169732642Y-58639964D01*
X169529565Y-58570248D01*
X169529559Y-58570246D01*
X169524635Y-58568556D01*
X169519498Y-58567698D01*
X169519495Y-58567698D01*
X169307706Y-58532357D01*
X169307703Y-58532356D01*
X169302569Y-58531500D01*
X169077431Y-58531500D01*
X169072297Y-58532356D01*
X169072293Y-58532357D01*
X168860504Y-58567698D01*
X168860498Y-58567699D01*
X168855365Y-58568556D01*
X168850443Y-58570245D01*
X168850434Y-58570248D01*
X168647357Y-58639964D01*
X168647344Y-58639969D01*
X168642426Y-58641658D01*
X168637847Y-58644135D01*
X168637840Y-58644139D01*
X168449005Y-58746331D01*
X168448997Y-58746336D01*
X168444424Y-58748811D01*
X168440313Y-58752010D01*
X168440311Y-58752012D01*
X168270878Y-58883888D01*
X168270872Y-58883893D01*
X168266760Y-58887094D01*
X168263237Y-58890919D01*
X168263227Y-58890930D01*
X168117806Y-59048899D01*
X168117802Y-59048902D01*
X168114278Y-59052732D01*
X168111430Y-59057090D01*
X168111427Y-59057095D01*
X167998109Y-59230542D01*
X167991140Y-59241209D01*
X167989048Y-59245978D01*
X167989046Y-59245982D01*
X167902799Y-59442606D01*
X167902796Y-59442614D01*
X167900704Y-59447384D01*
X167899423Y-59452440D01*
X167899422Y-59452445D01*
X167851358Y-59642246D01*
X167845436Y-59665632D01*
X167845006Y-59670820D01*
X167845005Y-59670827D01*
X167834782Y-59794201D01*
X167826844Y-59890000D01*
X167827274Y-59895189D01*
X167841567Y-60067684D01*
X167845436Y-60114368D01*
X167900704Y-60332616D01*
X167902797Y-60337389D01*
X167902799Y-60337393D01*
X167963506Y-60475791D01*
X167991140Y-60538791D01*
X168114278Y-60727268D01*
X168117806Y-60731100D01*
X168263227Y-60889069D01*
X168263231Y-60889073D01*
X168266760Y-60892906D01*
X168444424Y-61031189D01*
X168642426Y-61138342D01*
X168656664Y-61143230D01*
X168665685Y-61146327D01*
X168722912Y-61186475D01*
X168749931Y-61250948D01*
X168738425Y-61319901D01*
X168691936Y-61372108D01*
X168624774Y-61391500D01*
X141874950Y-61391500D01*
X141826732Y-61381909D01*
X141785855Y-61354595D01*
X139859063Y-59427803D01*
X150791500Y-59427803D01*
X150791784Y-59430781D01*
X150791785Y-59430794D01*
X150796565Y-59480849D01*
X150806581Y-59585739D01*
X150808269Y-59591490D01*
X150808271Y-59591497D01*
X150842014Y-59706413D01*
X150866223Y-59788862D01*
X150868973Y-59794196D01*
X150868975Y-59794201D01*
X150960476Y-59971687D01*
X150960478Y-59971691D01*
X150963229Y-59977026D01*
X150966941Y-59981746D01*
X151090384Y-60138718D01*
X151090388Y-60138723D01*
X151094092Y-60143432D01*
X151098624Y-60147359D01*
X151178484Y-60216559D01*
X151254082Y-60282065D01*
X151437418Y-60387913D01*
X151637473Y-60457153D01*
X151847016Y-60487281D01*
X152058474Y-60477208D01*
X152264204Y-60427298D01*
X152456771Y-60339356D01*
X152629215Y-60216559D01*
X152775303Y-60063346D01*
X152794679Y-60033195D01*
X152837675Y-59992198D01*
X152894680Y-59975459D01*
X152953019Y-59986702D01*
X152999719Y-60023427D01*
X153094092Y-60143432D01*
X153098624Y-60147359D01*
X153178484Y-60216559D01*
X153254082Y-60282065D01*
X153437418Y-60387913D01*
X153637473Y-60457153D01*
X153847016Y-60487281D01*
X154058474Y-60477208D01*
X154264204Y-60427298D01*
X154456771Y-60339356D01*
X154629215Y-60216559D01*
X154775303Y-60063346D01*
X154794679Y-60033195D01*
X154837675Y-59992198D01*
X154894680Y-59975459D01*
X154953019Y-59986702D01*
X154999719Y-60023427D01*
X155094092Y-60143432D01*
X155098624Y-60147359D01*
X155178484Y-60216559D01*
X155254082Y-60282065D01*
X155437418Y-60387913D01*
X155637473Y-60457153D01*
X155847016Y-60487281D01*
X156058474Y-60477208D01*
X156264204Y-60427298D01*
X156456771Y-60339356D01*
X156629215Y-60216559D01*
X156775303Y-60063346D01*
X156889756Y-59885254D01*
X156968436Y-59688721D01*
X157008500Y-59480849D01*
X157008500Y-58772197D01*
X156993419Y-58614261D01*
X156933777Y-58411138D01*
X156836771Y-58222974D01*
X156765476Y-58132315D01*
X156709615Y-58061281D01*
X156709611Y-58061277D01*
X156705908Y-58056568D01*
X156699893Y-58051356D01*
X156550456Y-57921867D01*
X156550454Y-57921865D01*
X156545918Y-57917935D01*
X156362582Y-57812087D01*
X156356909Y-57810123D01*
X156356908Y-57810123D01*
X156168203Y-57744811D01*
X156168198Y-57744809D01*
X156162527Y-57742847D01*
X156156587Y-57741992D01*
X156156579Y-57741991D01*
X155958926Y-57713573D01*
X155958922Y-57713572D01*
X155952984Y-57712719D01*
X155946994Y-57713004D01*
X155946987Y-57713004D01*
X155747528Y-57722506D01*
X155747527Y-57722506D01*
X155741526Y-57722792D01*
X155735693Y-57724206D01*
X155735686Y-57724208D01*
X155541632Y-57771286D01*
X155541630Y-57771286D01*
X155535796Y-57772702D01*
X155530337Y-57775194D01*
X155530334Y-57775196D01*
X155348688Y-57858150D01*
X155348679Y-57858154D01*
X155343229Y-57860644D01*
X155338343Y-57864123D01*
X155338340Y-57864125D01*
X155221407Y-57947393D01*
X155170785Y-57983441D01*
X155166649Y-57987778D01*
X155166644Y-57987783D01*
X155028833Y-58132315D01*
X155028827Y-58132322D01*
X155024697Y-58136654D01*
X155021459Y-58141691D01*
X155021456Y-58141696D01*
X155005319Y-58166806D01*
X154962320Y-58207803D01*
X154905316Y-58224540D01*
X154846979Y-58213296D01*
X154800279Y-58176571D01*
X154797010Y-58172414D01*
X154705908Y-58056568D01*
X154699893Y-58051356D01*
X154550456Y-57921867D01*
X154550454Y-57921865D01*
X154545918Y-57917935D01*
X154362582Y-57812087D01*
X154356909Y-57810123D01*
X154356908Y-57810123D01*
X154168203Y-57744811D01*
X154168198Y-57744809D01*
X154162527Y-57742847D01*
X154156587Y-57741992D01*
X154156579Y-57741991D01*
X153958926Y-57713573D01*
X153958922Y-57713572D01*
X153952984Y-57712719D01*
X153946994Y-57713004D01*
X153946987Y-57713004D01*
X153747528Y-57722506D01*
X153747527Y-57722506D01*
X153741526Y-57722792D01*
X153735693Y-57724206D01*
X153735686Y-57724208D01*
X153541632Y-57771286D01*
X153541630Y-57771286D01*
X153535796Y-57772702D01*
X153530337Y-57775194D01*
X153530334Y-57775196D01*
X153348688Y-57858150D01*
X153348679Y-57858154D01*
X153343229Y-57860644D01*
X153338343Y-57864123D01*
X153338340Y-57864125D01*
X153221407Y-57947393D01*
X153170785Y-57983441D01*
X153166649Y-57987778D01*
X153166644Y-57987783D01*
X153028833Y-58132315D01*
X153028827Y-58132322D01*
X153024697Y-58136654D01*
X153021459Y-58141691D01*
X153021456Y-58141696D01*
X153005319Y-58166806D01*
X152962320Y-58207803D01*
X152905316Y-58224540D01*
X152846979Y-58213296D01*
X152800279Y-58176571D01*
X152797010Y-58172414D01*
X152705908Y-58056568D01*
X152699893Y-58051356D01*
X152550456Y-57921867D01*
X152550454Y-57921865D01*
X152545918Y-57917935D01*
X152362582Y-57812087D01*
X152356909Y-57810123D01*
X152356908Y-57810123D01*
X152168203Y-57744811D01*
X152168198Y-57744809D01*
X152162527Y-57742847D01*
X152156587Y-57741992D01*
X152156579Y-57741991D01*
X151958926Y-57713573D01*
X151958922Y-57713572D01*
X151952984Y-57712719D01*
X151946994Y-57713004D01*
X151946987Y-57713004D01*
X151747528Y-57722506D01*
X151747527Y-57722506D01*
X151741526Y-57722792D01*
X151735693Y-57724206D01*
X151735686Y-57724208D01*
X151541632Y-57771286D01*
X151541630Y-57771286D01*
X151535796Y-57772702D01*
X151530337Y-57775194D01*
X151530334Y-57775196D01*
X151348688Y-57858150D01*
X151348679Y-57858154D01*
X151343229Y-57860644D01*
X151338343Y-57864123D01*
X151338340Y-57864125D01*
X151221407Y-57947393D01*
X151170785Y-57983441D01*
X151166649Y-57987778D01*
X151166644Y-57987783D01*
X151028833Y-58132315D01*
X151028827Y-58132322D01*
X151024697Y-58136654D01*
X151021460Y-58141689D01*
X151021455Y-58141697D01*
X150913488Y-58309697D01*
X150913484Y-58309703D01*
X150910244Y-58314746D01*
X150908014Y-58320315D01*
X150908012Y-58320320D01*
X150833794Y-58505706D01*
X150833790Y-58505716D01*
X150831564Y-58511279D01*
X150830429Y-58517164D01*
X150830428Y-58517170D01*
X150792634Y-58713262D01*
X150792633Y-58713272D01*
X150791500Y-58719151D01*
X150791500Y-59427803D01*
X139859063Y-59427803D01*
X139209721Y-58778461D01*
X139175866Y-58716920D01*
X139180218Y-58646816D01*
X139221421Y-58589938D01*
X139333240Y-58502906D01*
X139485722Y-58337268D01*
X139608860Y-58148791D01*
X139699296Y-57942616D01*
X139754564Y-57724368D01*
X139773156Y-57500000D01*
X139754564Y-57275632D01*
X139699296Y-57057384D01*
X139608860Y-56851209D01*
X139485722Y-56662732D01*
X139379866Y-56547743D01*
X139336772Y-56500930D01*
X139336767Y-56500925D01*
X139333240Y-56497094D01*
X139155576Y-56358811D01*
X139150997Y-56356333D01*
X139150994Y-56356331D01*
X138962159Y-56254139D01*
X138962156Y-56254137D01*
X138957574Y-56251658D01*
X138952650Y-56249967D01*
X138952642Y-56249964D01*
X138749565Y-56180248D01*
X138749559Y-56180246D01*
X138744635Y-56178556D01*
X138739498Y-56177698D01*
X138739495Y-56177698D01*
X138527706Y-56142357D01*
X138527703Y-56142356D01*
X138522569Y-56141500D01*
X138297431Y-56141500D01*
X138292297Y-56142356D01*
X138292293Y-56142357D01*
X138080504Y-56177698D01*
X138080498Y-56177699D01*
X138075365Y-56178556D01*
X138070443Y-56180245D01*
X138070434Y-56180248D01*
X137867357Y-56249964D01*
X137867344Y-56249969D01*
X137862426Y-56251658D01*
X137857847Y-56254135D01*
X137857840Y-56254139D01*
X137669005Y-56356331D01*
X137668997Y-56356336D01*
X137664424Y-56358811D01*
X137660313Y-56362010D01*
X137660311Y-56362012D01*
X137490878Y-56493888D01*
X137490872Y-56493893D01*
X137486760Y-56497094D01*
X137483237Y-56500919D01*
X137483227Y-56500930D01*
X137337806Y-56658899D01*
X137337802Y-56658902D01*
X137334278Y-56662732D01*
X137331430Y-56667090D01*
X137331427Y-56667095D01*
X137245483Y-56798643D01*
X137199969Y-56840542D01*
X137140000Y-56855728D01*
X137080031Y-56840542D01*
X137034517Y-56798643D01*
X137028827Y-56789934D01*
X136945722Y-56662732D01*
X136839866Y-56547743D01*
X136796772Y-56500930D01*
X136796767Y-56500925D01*
X136793240Y-56497094D01*
X136615576Y-56358811D01*
X136610997Y-56356333D01*
X136610994Y-56356331D01*
X136422159Y-56254139D01*
X136422156Y-56254137D01*
X136417574Y-56251658D01*
X136412650Y-56249967D01*
X136412642Y-56249964D01*
X136209565Y-56180248D01*
X136209559Y-56180246D01*
X136204635Y-56178556D01*
X136199498Y-56177698D01*
X136199495Y-56177698D01*
X135987706Y-56142357D01*
X135987703Y-56142356D01*
X135982569Y-56141500D01*
X135757431Y-56141500D01*
X135752297Y-56142356D01*
X135752293Y-56142357D01*
X135540504Y-56177698D01*
X135540498Y-56177699D01*
X135535365Y-56178556D01*
X135530443Y-56180245D01*
X135530434Y-56180248D01*
X135327357Y-56249964D01*
X135327344Y-56249969D01*
X135322426Y-56251658D01*
X135317847Y-56254135D01*
X135317840Y-56254139D01*
X135129005Y-56356331D01*
X135128997Y-56356336D01*
X135124424Y-56358811D01*
X135120313Y-56362010D01*
X135120311Y-56362012D01*
X134950878Y-56493888D01*
X134950872Y-56493893D01*
X134946760Y-56497094D01*
X134943237Y-56500919D01*
X134943227Y-56500930D01*
X134797806Y-56658899D01*
X134797802Y-56658902D01*
X134794278Y-56662732D01*
X134791430Y-56667090D01*
X134791427Y-56667095D01*
X134705483Y-56798643D01*
X134659969Y-56840542D01*
X134600000Y-56855728D01*
X134540031Y-56840542D01*
X134494517Y-56798643D01*
X134488827Y-56789934D01*
X134405722Y-56662732D01*
X134299866Y-56547743D01*
X134256772Y-56500930D01*
X134256767Y-56500925D01*
X134253240Y-56497094D01*
X134075576Y-56358811D01*
X134070997Y-56356333D01*
X134070994Y-56356331D01*
X133882159Y-56254139D01*
X133882156Y-56254137D01*
X133877574Y-56251658D01*
X133872650Y-56249967D01*
X133872642Y-56249964D01*
X133669565Y-56180248D01*
X133669559Y-56180246D01*
X133664635Y-56178556D01*
X133659498Y-56177698D01*
X133659495Y-56177698D01*
X133447706Y-56142357D01*
X133447703Y-56142356D01*
X133442569Y-56141500D01*
X133217431Y-56141500D01*
X133212297Y-56142356D01*
X133212293Y-56142357D01*
X133000504Y-56177698D01*
X133000498Y-56177699D01*
X132995365Y-56178556D01*
X132990443Y-56180245D01*
X132990434Y-56180248D01*
X132787357Y-56249964D01*
X132787344Y-56249969D01*
X132782426Y-56251658D01*
X132777847Y-56254135D01*
X132777840Y-56254139D01*
X132589005Y-56356331D01*
X132588997Y-56356336D01*
X132584424Y-56358811D01*
X132580313Y-56362010D01*
X132580311Y-56362012D01*
X132410878Y-56493888D01*
X132410872Y-56493893D01*
X132406760Y-56497094D01*
X132403237Y-56500919D01*
X132403227Y-56500930D01*
X132257806Y-56658899D01*
X132257802Y-56658902D01*
X132254278Y-56662732D01*
X132251430Y-56667090D01*
X132251427Y-56667095D01*
X132165483Y-56798643D01*
X132131140Y-56851209D01*
X132129048Y-56855978D01*
X132129046Y-56855982D01*
X132042799Y-57052606D01*
X132042796Y-57052614D01*
X132040704Y-57057384D01*
X132039423Y-57062440D01*
X132039422Y-57062445D01*
X132008300Y-57185345D01*
X131985436Y-57275632D01*
X131985006Y-57280820D01*
X131985005Y-57280827D01*
X131967909Y-57487147D01*
X131966844Y-57500000D01*
X123370558Y-57500000D01*
X123433121Y-57367722D01*
X123438948Y-57356821D01*
X123439926Y-57355189D01*
X123607884Y-57074966D01*
X123614741Y-57064705D01*
X123810500Y-56800756D01*
X123818317Y-56791230D01*
X124039015Y-56547726D01*
X124047726Y-56539015D01*
X124291230Y-56318317D01*
X124300756Y-56310500D01*
X124564705Y-56114741D01*
X124574966Y-56107884D01*
X124856825Y-55938945D01*
X124867726Y-55933119D01*
X125164782Y-55792621D01*
X125176181Y-55787900D01*
X125485597Y-55677189D01*
X125497399Y-55673609D01*
X125816168Y-55593762D01*
X125828271Y-55591355D01*
X126153323Y-55543138D01*
X126165613Y-55541927D01*
X126496906Y-55525651D01*
X126503089Y-55525500D01*
X126508285Y-55525500D01*
X194491715Y-55525500D01*
X194496911Y-55525500D01*
X194503093Y-55525651D01*
G37*
%TD.AperFunction*%
%TD*%
M02*
