%TF.GenerationSoftware,KiCad,Pcbnew,(5.1.8)-1*%
%TF.CreationDate,2021-03-21T22:52:41-07:00*%
%TF.ProjectId,smart_motor_controller,736d6172-745f-46d6-9f74-6f725f636f6e,rev?*%
%TF.SameCoordinates,Original*%
%TF.FileFunction,Soldermask,Top*%
%TF.FilePolarity,Negative*%
%FSLAX46Y46*%
G04 Gerber Fmt 4.6, Leading zero omitted, Abs format (unit mm)*
G04 Created by KiCad (PCBNEW (5.1.8)-1) date 2021-03-21 22:52:41*
%MOMM*%
%LPD*%
G01*
G04 APERTURE LIST*
%ADD10O,1.400000X1.400000*%
%ADD11C,1.400000*%
%ADD12C,1.500000*%
%ADD13C,2.000000*%
%ADD14O,1.700000X1.700000*%
%ADD15R,1.700000X1.700000*%
%ADD16C,1.250000*%
%ADD17R,0.400000X1.250000*%
%ADD18O,1.100000X1.900000*%
%ADD19C,1.300000*%
%ADD20C,3.000000*%
%ADD21R,3.000000X3.000000*%
%ADD22C,0.770000*%
%ADD23R,3.100000X2.400000*%
%ADD24R,0.650000X1.060000*%
%ADD25R,0.600000X1.550000*%
%ADD26R,3.100000X2.600000*%
%ADD27R,1.900000X2.500000*%
%ADD28R,2.400000X0.740000*%
%ADD29R,1.200000X1.400000*%
%ADD30C,0.900000*%
%ADD31C,8.600000*%
%ADD32R,1.200000X0.900000*%
%ADD33R,0.900000X1.200000*%
%ADD34C,1.600000*%
%ADD35R,1.600000X1.600000*%
G04 APERTURE END LIST*
D10*
%TO.C,R3*%
X58800000Y-70220000D03*
D11*
X58800000Y-75300000D03*
%TD*%
D10*
%TO.C,R2*%
X56350000Y-70220000D03*
D11*
X56350000Y-75300000D03*
%TD*%
D12*
%TO.C,TP3*%
X95000000Y-77100000D03*
%TD*%
D13*
%TO.C,TP2*%
X115190000Y-56410000D03*
%TD*%
D14*
%TO.C,J5*%
X52540000Y-67620000D03*
D15*
X50000000Y-67620000D03*
%TD*%
D16*
%TO.C,J10*%
X103675000Y-49770000D03*
X108525000Y-49770000D03*
D17*
X104800000Y-49770000D03*
X105450000Y-49770000D03*
X107400000Y-49770000D03*
X106750000Y-49770000D03*
X106100000Y-49770000D03*
D18*
X109700000Y-47100000D03*
X102500000Y-47100000D03*
%TD*%
D19*
%TO.C,SW1*%
X51000000Y-81540000D03*
X51000000Y-79000000D03*
X51000000Y-76460000D03*
%TD*%
D13*
%TO.C,TP1*%
X112700000Y-80350000D03*
%TD*%
D20*
%TO.C,J14*%
X100840000Y-105300000D03*
D21*
X95760000Y-105300000D03*
%TD*%
D20*
%TO.C,J13*%
X90640000Y-105300000D03*
D21*
X85560000Y-105300000D03*
%TD*%
D20*
%TO.C,J12*%
X80440000Y-105300000D03*
D21*
X75360000Y-105300000D03*
%TD*%
D20*
%TO.C,J11*%
X70240000Y-105300000D03*
D21*
X65160000Y-105300000D03*
%TD*%
D20*
%TO.C,J8*%
X92830000Y-50100000D03*
D21*
X87750000Y-50100000D03*
%TD*%
D20*
%TO.C,J2*%
X82640000Y-50100000D03*
D21*
X77560000Y-50100000D03*
%TD*%
D20*
%TO.C,J1*%
X72540000Y-50100000D03*
D21*
X67460000Y-50100000D03*
%TD*%
D20*
%TO.C,J9*%
X120100000Y-62460000D03*
D21*
X120100000Y-67540000D03*
%TD*%
D22*
%TO.C,U7*%
X106700000Y-94650000D03*
X106700000Y-93350000D03*
X109300000Y-94650000D03*
X108000000Y-94650000D03*
X108000000Y-93350000D03*
X109300000Y-93350000D03*
G36*
G01*
X109655000Y-95705000D02*
X110155000Y-95705000D01*
G75*
G02*
X110225000Y-95775000I0J-70000D01*
G01*
X110225000Y-97975000D01*
G75*
G02*
X110155000Y-98045000I-70000J0D01*
G01*
X109655000Y-98045000D01*
G75*
G02*
X109585000Y-97975000I0J70000D01*
G01*
X109585000Y-95775000D01*
G75*
G02*
X109655000Y-95705000I70000J0D01*
G01*
G37*
G36*
G01*
X108385000Y-95705000D02*
X108885000Y-95705000D01*
G75*
G02*
X108955000Y-95775000I0J-70000D01*
G01*
X108955000Y-97975000D01*
G75*
G02*
X108885000Y-98045000I-70000J0D01*
G01*
X108385000Y-98045000D01*
G75*
G02*
X108315000Y-97975000I0J70000D01*
G01*
X108315000Y-95775000D01*
G75*
G02*
X108385000Y-95705000I70000J0D01*
G01*
G37*
G36*
G01*
X107115000Y-95705000D02*
X107615000Y-95705000D01*
G75*
G02*
X107685000Y-95775000I0J-70000D01*
G01*
X107685000Y-97975000D01*
G75*
G02*
X107615000Y-98045000I-70000J0D01*
G01*
X107115000Y-98045000D01*
G75*
G02*
X107045000Y-97975000I0J70000D01*
G01*
X107045000Y-95775000D01*
G75*
G02*
X107115000Y-95705000I70000J0D01*
G01*
G37*
G36*
G01*
X105845000Y-95705000D02*
X106345000Y-95705000D01*
G75*
G02*
X106415000Y-95775000I0J-70000D01*
G01*
X106415000Y-97975000D01*
G75*
G02*
X106345000Y-98045000I-70000J0D01*
G01*
X105845000Y-98045000D01*
G75*
G02*
X105775000Y-97975000I0J70000D01*
G01*
X105775000Y-95775000D01*
G75*
G02*
X105845000Y-95705000I70000J0D01*
G01*
G37*
G36*
G01*
X105845000Y-89955000D02*
X106345000Y-89955000D01*
G75*
G02*
X106415000Y-90025000I0J-70000D01*
G01*
X106415000Y-92225000D01*
G75*
G02*
X106345000Y-92295000I-70000J0D01*
G01*
X105845000Y-92295000D01*
G75*
G02*
X105775000Y-92225000I0J70000D01*
G01*
X105775000Y-90025000D01*
G75*
G02*
X105845000Y-89955000I70000J0D01*
G01*
G37*
G36*
G01*
X107115000Y-89955000D02*
X107615000Y-89955000D01*
G75*
G02*
X107685000Y-90025000I0J-70000D01*
G01*
X107685000Y-92225000D01*
G75*
G02*
X107615000Y-92295000I-70000J0D01*
G01*
X107115000Y-92295000D01*
G75*
G02*
X107045000Y-92225000I0J70000D01*
G01*
X107045000Y-90025000D01*
G75*
G02*
X107115000Y-89955000I70000J0D01*
G01*
G37*
G36*
G01*
X108385000Y-89955000D02*
X108885000Y-89955000D01*
G75*
G02*
X108955000Y-90025000I0J-70000D01*
G01*
X108955000Y-92225000D01*
G75*
G02*
X108885000Y-92295000I-70000J0D01*
G01*
X108385000Y-92295000D01*
G75*
G02*
X108315000Y-92225000I0J70000D01*
G01*
X108315000Y-90025000D01*
G75*
G02*
X108385000Y-89955000I70000J0D01*
G01*
G37*
G36*
G01*
X109655000Y-89955000D02*
X110155000Y-89955000D01*
G75*
G02*
X110225000Y-90025000I0J-70000D01*
G01*
X110225000Y-92225000D01*
G75*
G02*
X110155000Y-92295000I-70000J0D01*
G01*
X109655000Y-92295000D01*
G75*
G02*
X109585000Y-92225000I0J70000D01*
G01*
X109585000Y-90025000D01*
G75*
G02*
X109655000Y-89955000I70000J0D01*
G01*
G37*
D23*
X108000000Y-94000000D03*
%TD*%
D22*
%TO.C,U6*%
X90700000Y-94650000D03*
X90700000Y-93350000D03*
X93300000Y-94650000D03*
X92000000Y-94650000D03*
X92000000Y-93350000D03*
X93300000Y-93350000D03*
G36*
G01*
X93655000Y-95705000D02*
X94155000Y-95705000D01*
G75*
G02*
X94225000Y-95775000I0J-70000D01*
G01*
X94225000Y-97975000D01*
G75*
G02*
X94155000Y-98045000I-70000J0D01*
G01*
X93655000Y-98045000D01*
G75*
G02*
X93585000Y-97975000I0J70000D01*
G01*
X93585000Y-95775000D01*
G75*
G02*
X93655000Y-95705000I70000J0D01*
G01*
G37*
G36*
G01*
X92385000Y-95705000D02*
X92885000Y-95705000D01*
G75*
G02*
X92955000Y-95775000I0J-70000D01*
G01*
X92955000Y-97975000D01*
G75*
G02*
X92885000Y-98045000I-70000J0D01*
G01*
X92385000Y-98045000D01*
G75*
G02*
X92315000Y-97975000I0J70000D01*
G01*
X92315000Y-95775000D01*
G75*
G02*
X92385000Y-95705000I70000J0D01*
G01*
G37*
G36*
G01*
X91115000Y-95705000D02*
X91615000Y-95705000D01*
G75*
G02*
X91685000Y-95775000I0J-70000D01*
G01*
X91685000Y-97975000D01*
G75*
G02*
X91615000Y-98045000I-70000J0D01*
G01*
X91115000Y-98045000D01*
G75*
G02*
X91045000Y-97975000I0J70000D01*
G01*
X91045000Y-95775000D01*
G75*
G02*
X91115000Y-95705000I70000J0D01*
G01*
G37*
G36*
G01*
X89845000Y-95705000D02*
X90345000Y-95705000D01*
G75*
G02*
X90415000Y-95775000I0J-70000D01*
G01*
X90415000Y-97975000D01*
G75*
G02*
X90345000Y-98045000I-70000J0D01*
G01*
X89845000Y-98045000D01*
G75*
G02*
X89775000Y-97975000I0J70000D01*
G01*
X89775000Y-95775000D01*
G75*
G02*
X89845000Y-95705000I70000J0D01*
G01*
G37*
G36*
G01*
X89845000Y-89955000D02*
X90345000Y-89955000D01*
G75*
G02*
X90415000Y-90025000I0J-70000D01*
G01*
X90415000Y-92225000D01*
G75*
G02*
X90345000Y-92295000I-70000J0D01*
G01*
X89845000Y-92295000D01*
G75*
G02*
X89775000Y-92225000I0J70000D01*
G01*
X89775000Y-90025000D01*
G75*
G02*
X89845000Y-89955000I70000J0D01*
G01*
G37*
G36*
G01*
X91115000Y-89955000D02*
X91615000Y-89955000D01*
G75*
G02*
X91685000Y-90025000I0J-70000D01*
G01*
X91685000Y-92225000D01*
G75*
G02*
X91615000Y-92295000I-70000J0D01*
G01*
X91115000Y-92295000D01*
G75*
G02*
X91045000Y-92225000I0J70000D01*
G01*
X91045000Y-90025000D01*
G75*
G02*
X91115000Y-89955000I70000J0D01*
G01*
G37*
G36*
G01*
X92385000Y-89955000D02*
X92885000Y-89955000D01*
G75*
G02*
X92955000Y-90025000I0J-70000D01*
G01*
X92955000Y-92225000D01*
G75*
G02*
X92885000Y-92295000I-70000J0D01*
G01*
X92385000Y-92295000D01*
G75*
G02*
X92315000Y-92225000I0J70000D01*
G01*
X92315000Y-90025000D01*
G75*
G02*
X92385000Y-89955000I70000J0D01*
G01*
G37*
G36*
G01*
X93655000Y-89955000D02*
X94155000Y-89955000D01*
G75*
G02*
X94225000Y-90025000I0J-70000D01*
G01*
X94225000Y-92225000D01*
G75*
G02*
X94155000Y-92295000I-70000J0D01*
G01*
X93655000Y-92295000D01*
G75*
G02*
X93585000Y-92225000I0J70000D01*
G01*
X93585000Y-90025000D01*
G75*
G02*
X93655000Y-89955000I70000J0D01*
G01*
G37*
D23*
X92000000Y-94000000D03*
%TD*%
D22*
%TO.C,U5*%
X74700000Y-94650000D03*
X74700000Y-93350000D03*
X77300000Y-94650000D03*
X76000000Y-94650000D03*
X76000000Y-93350000D03*
X77300000Y-93350000D03*
G36*
G01*
X77655000Y-95705000D02*
X78155000Y-95705000D01*
G75*
G02*
X78225000Y-95775000I0J-70000D01*
G01*
X78225000Y-97975000D01*
G75*
G02*
X78155000Y-98045000I-70000J0D01*
G01*
X77655000Y-98045000D01*
G75*
G02*
X77585000Y-97975000I0J70000D01*
G01*
X77585000Y-95775000D01*
G75*
G02*
X77655000Y-95705000I70000J0D01*
G01*
G37*
G36*
G01*
X76385000Y-95705000D02*
X76885000Y-95705000D01*
G75*
G02*
X76955000Y-95775000I0J-70000D01*
G01*
X76955000Y-97975000D01*
G75*
G02*
X76885000Y-98045000I-70000J0D01*
G01*
X76385000Y-98045000D01*
G75*
G02*
X76315000Y-97975000I0J70000D01*
G01*
X76315000Y-95775000D01*
G75*
G02*
X76385000Y-95705000I70000J0D01*
G01*
G37*
G36*
G01*
X75115000Y-95705000D02*
X75615000Y-95705000D01*
G75*
G02*
X75685000Y-95775000I0J-70000D01*
G01*
X75685000Y-97975000D01*
G75*
G02*
X75615000Y-98045000I-70000J0D01*
G01*
X75115000Y-98045000D01*
G75*
G02*
X75045000Y-97975000I0J70000D01*
G01*
X75045000Y-95775000D01*
G75*
G02*
X75115000Y-95705000I70000J0D01*
G01*
G37*
G36*
G01*
X73845000Y-95705000D02*
X74345000Y-95705000D01*
G75*
G02*
X74415000Y-95775000I0J-70000D01*
G01*
X74415000Y-97975000D01*
G75*
G02*
X74345000Y-98045000I-70000J0D01*
G01*
X73845000Y-98045000D01*
G75*
G02*
X73775000Y-97975000I0J70000D01*
G01*
X73775000Y-95775000D01*
G75*
G02*
X73845000Y-95705000I70000J0D01*
G01*
G37*
G36*
G01*
X73845000Y-89955000D02*
X74345000Y-89955000D01*
G75*
G02*
X74415000Y-90025000I0J-70000D01*
G01*
X74415000Y-92225000D01*
G75*
G02*
X74345000Y-92295000I-70000J0D01*
G01*
X73845000Y-92295000D01*
G75*
G02*
X73775000Y-92225000I0J70000D01*
G01*
X73775000Y-90025000D01*
G75*
G02*
X73845000Y-89955000I70000J0D01*
G01*
G37*
G36*
G01*
X75115000Y-89955000D02*
X75615000Y-89955000D01*
G75*
G02*
X75685000Y-90025000I0J-70000D01*
G01*
X75685000Y-92225000D01*
G75*
G02*
X75615000Y-92295000I-70000J0D01*
G01*
X75115000Y-92295000D01*
G75*
G02*
X75045000Y-92225000I0J70000D01*
G01*
X75045000Y-90025000D01*
G75*
G02*
X75115000Y-89955000I70000J0D01*
G01*
G37*
G36*
G01*
X76385000Y-89955000D02*
X76885000Y-89955000D01*
G75*
G02*
X76955000Y-90025000I0J-70000D01*
G01*
X76955000Y-92225000D01*
G75*
G02*
X76885000Y-92295000I-70000J0D01*
G01*
X76385000Y-92295000D01*
G75*
G02*
X76315000Y-92225000I0J70000D01*
G01*
X76315000Y-90025000D01*
G75*
G02*
X76385000Y-89955000I70000J0D01*
G01*
G37*
G36*
G01*
X77655000Y-89955000D02*
X78155000Y-89955000D01*
G75*
G02*
X78225000Y-90025000I0J-70000D01*
G01*
X78225000Y-92225000D01*
G75*
G02*
X78155000Y-92295000I-70000J0D01*
G01*
X77655000Y-92295000D01*
G75*
G02*
X77585000Y-92225000I0J70000D01*
G01*
X77585000Y-90025000D01*
G75*
G02*
X77655000Y-89955000I70000J0D01*
G01*
G37*
D23*
X76000000Y-94000000D03*
%TD*%
D22*
%TO.C,U4*%
X58700000Y-94650000D03*
X58700000Y-93350000D03*
X61300000Y-94650000D03*
X60000000Y-94650000D03*
X60000000Y-93350000D03*
X61300000Y-93350000D03*
G36*
G01*
X61655000Y-95705000D02*
X62155000Y-95705000D01*
G75*
G02*
X62225000Y-95775000I0J-70000D01*
G01*
X62225000Y-97975000D01*
G75*
G02*
X62155000Y-98045000I-70000J0D01*
G01*
X61655000Y-98045000D01*
G75*
G02*
X61585000Y-97975000I0J70000D01*
G01*
X61585000Y-95775000D01*
G75*
G02*
X61655000Y-95705000I70000J0D01*
G01*
G37*
G36*
G01*
X60385000Y-95705000D02*
X60885000Y-95705000D01*
G75*
G02*
X60955000Y-95775000I0J-70000D01*
G01*
X60955000Y-97975000D01*
G75*
G02*
X60885000Y-98045000I-70000J0D01*
G01*
X60385000Y-98045000D01*
G75*
G02*
X60315000Y-97975000I0J70000D01*
G01*
X60315000Y-95775000D01*
G75*
G02*
X60385000Y-95705000I70000J0D01*
G01*
G37*
G36*
G01*
X59115000Y-95705000D02*
X59615000Y-95705000D01*
G75*
G02*
X59685000Y-95775000I0J-70000D01*
G01*
X59685000Y-97975000D01*
G75*
G02*
X59615000Y-98045000I-70000J0D01*
G01*
X59115000Y-98045000D01*
G75*
G02*
X59045000Y-97975000I0J70000D01*
G01*
X59045000Y-95775000D01*
G75*
G02*
X59115000Y-95705000I70000J0D01*
G01*
G37*
G36*
G01*
X57845000Y-95705000D02*
X58345000Y-95705000D01*
G75*
G02*
X58415000Y-95775000I0J-70000D01*
G01*
X58415000Y-97975000D01*
G75*
G02*
X58345000Y-98045000I-70000J0D01*
G01*
X57845000Y-98045000D01*
G75*
G02*
X57775000Y-97975000I0J70000D01*
G01*
X57775000Y-95775000D01*
G75*
G02*
X57845000Y-95705000I70000J0D01*
G01*
G37*
G36*
G01*
X57845000Y-89955000D02*
X58345000Y-89955000D01*
G75*
G02*
X58415000Y-90025000I0J-70000D01*
G01*
X58415000Y-92225000D01*
G75*
G02*
X58345000Y-92295000I-70000J0D01*
G01*
X57845000Y-92295000D01*
G75*
G02*
X57775000Y-92225000I0J70000D01*
G01*
X57775000Y-90025000D01*
G75*
G02*
X57845000Y-89955000I70000J0D01*
G01*
G37*
G36*
G01*
X59115000Y-89955000D02*
X59615000Y-89955000D01*
G75*
G02*
X59685000Y-90025000I0J-70000D01*
G01*
X59685000Y-92225000D01*
G75*
G02*
X59615000Y-92295000I-70000J0D01*
G01*
X59115000Y-92295000D01*
G75*
G02*
X59045000Y-92225000I0J70000D01*
G01*
X59045000Y-90025000D01*
G75*
G02*
X59115000Y-89955000I70000J0D01*
G01*
G37*
G36*
G01*
X60385000Y-89955000D02*
X60885000Y-89955000D01*
G75*
G02*
X60955000Y-90025000I0J-70000D01*
G01*
X60955000Y-92225000D01*
G75*
G02*
X60885000Y-92295000I-70000J0D01*
G01*
X60385000Y-92295000D01*
G75*
G02*
X60315000Y-92225000I0J70000D01*
G01*
X60315000Y-90025000D01*
G75*
G02*
X60385000Y-89955000I70000J0D01*
G01*
G37*
G36*
G01*
X61655000Y-89955000D02*
X62155000Y-89955000D01*
G75*
G02*
X62225000Y-90025000I0J-70000D01*
G01*
X62225000Y-92225000D01*
G75*
G02*
X62155000Y-92295000I-70000J0D01*
G01*
X61655000Y-92295000D01*
G75*
G02*
X61585000Y-92225000I0J70000D01*
G01*
X61585000Y-90025000D01*
G75*
G02*
X61655000Y-89955000I70000J0D01*
G01*
G37*
D23*
X60000000Y-94000000D03*
%TD*%
D24*
%TO.C,U3*%
X107200000Y-56200000D03*
X108150000Y-56200000D03*
X106250000Y-56200000D03*
X106250000Y-54000000D03*
X107200000Y-54000000D03*
X108150000Y-54000000D03*
%TD*%
%TO.C,U2*%
G36*
G01*
X74100000Y-66985000D02*
X74100000Y-65585000D01*
G75*
G02*
X74175000Y-65510000I75000J0D01*
G01*
X74325000Y-65510000D01*
G75*
G02*
X74400000Y-65585000I0J-75000D01*
G01*
X74400000Y-66985000D01*
G75*
G02*
X74325000Y-67060000I-75000J0D01*
G01*
X74175000Y-67060000D01*
G75*
G02*
X74100000Y-66985000I0J75000D01*
G01*
G37*
G36*
G01*
X74600000Y-66985000D02*
X74600000Y-65585000D01*
G75*
G02*
X74675000Y-65510000I75000J0D01*
G01*
X74825000Y-65510000D01*
G75*
G02*
X74900000Y-65585000I0J-75000D01*
G01*
X74900000Y-66985000D01*
G75*
G02*
X74825000Y-67060000I-75000J0D01*
G01*
X74675000Y-67060000D01*
G75*
G02*
X74600000Y-66985000I0J75000D01*
G01*
G37*
G36*
G01*
X75100000Y-66985000D02*
X75100000Y-65585000D01*
G75*
G02*
X75175000Y-65510000I75000J0D01*
G01*
X75325000Y-65510000D01*
G75*
G02*
X75400000Y-65585000I0J-75000D01*
G01*
X75400000Y-66985000D01*
G75*
G02*
X75325000Y-67060000I-75000J0D01*
G01*
X75175000Y-67060000D01*
G75*
G02*
X75100000Y-66985000I0J75000D01*
G01*
G37*
G36*
G01*
X75600000Y-66985000D02*
X75600000Y-65585000D01*
G75*
G02*
X75675000Y-65510000I75000J0D01*
G01*
X75825000Y-65510000D01*
G75*
G02*
X75900000Y-65585000I0J-75000D01*
G01*
X75900000Y-66985000D01*
G75*
G02*
X75825000Y-67060000I-75000J0D01*
G01*
X75675000Y-67060000D01*
G75*
G02*
X75600000Y-66985000I0J75000D01*
G01*
G37*
G36*
G01*
X76100000Y-66985000D02*
X76100000Y-65585000D01*
G75*
G02*
X76175000Y-65510000I75000J0D01*
G01*
X76325000Y-65510000D01*
G75*
G02*
X76400000Y-65585000I0J-75000D01*
G01*
X76400000Y-66985000D01*
G75*
G02*
X76325000Y-67060000I-75000J0D01*
G01*
X76175000Y-67060000D01*
G75*
G02*
X76100000Y-66985000I0J75000D01*
G01*
G37*
G36*
G01*
X76600000Y-66985000D02*
X76600000Y-65585000D01*
G75*
G02*
X76675000Y-65510000I75000J0D01*
G01*
X76825000Y-65510000D01*
G75*
G02*
X76900000Y-65585000I0J-75000D01*
G01*
X76900000Y-66985000D01*
G75*
G02*
X76825000Y-67060000I-75000J0D01*
G01*
X76675000Y-67060000D01*
G75*
G02*
X76600000Y-66985000I0J75000D01*
G01*
G37*
G36*
G01*
X77100000Y-66985000D02*
X77100000Y-65585000D01*
G75*
G02*
X77175000Y-65510000I75000J0D01*
G01*
X77325000Y-65510000D01*
G75*
G02*
X77400000Y-65585000I0J-75000D01*
G01*
X77400000Y-66985000D01*
G75*
G02*
X77325000Y-67060000I-75000J0D01*
G01*
X77175000Y-67060000D01*
G75*
G02*
X77100000Y-66985000I0J75000D01*
G01*
G37*
G36*
G01*
X77600000Y-66985000D02*
X77600000Y-65585000D01*
G75*
G02*
X77675000Y-65510000I75000J0D01*
G01*
X77825000Y-65510000D01*
G75*
G02*
X77900000Y-65585000I0J-75000D01*
G01*
X77900000Y-66985000D01*
G75*
G02*
X77825000Y-67060000I-75000J0D01*
G01*
X77675000Y-67060000D01*
G75*
G02*
X77600000Y-66985000I0J75000D01*
G01*
G37*
G36*
G01*
X78100000Y-66985000D02*
X78100000Y-65585000D01*
G75*
G02*
X78175000Y-65510000I75000J0D01*
G01*
X78325000Y-65510000D01*
G75*
G02*
X78400000Y-65585000I0J-75000D01*
G01*
X78400000Y-66985000D01*
G75*
G02*
X78325000Y-67060000I-75000J0D01*
G01*
X78175000Y-67060000D01*
G75*
G02*
X78100000Y-66985000I0J75000D01*
G01*
G37*
G36*
G01*
X78600000Y-66985000D02*
X78600000Y-65585000D01*
G75*
G02*
X78675000Y-65510000I75000J0D01*
G01*
X78825000Y-65510000D01*
G75*
G02*
X78900000Y-65585000I0J-75000D01*
G01*
X78900000Y-66985000D01*
G75*
G02*
X78825000Y-67060000I-75000J0D01*
G01*
X78675000Y-67060000D01*
G75*
G02*
X78600000Y-66985000I0J75000D01*
G01*
G37*
G36*
G01*
X79100000Y-66985000D02*
X79100000Y-65585000D01*
G75*
G02*
X79175000Y-65510000I75000J0D01*
G01*
X79325000Y-65510000D01*
G75*
G02*
X79400000Y-65585000I0J-75000D01*
G01*
X79400000Y-66985000D01*
G75*
G02*
X79325000Y-67060000I-75000J0D01*
G01*
X79175000Y-67060000D01*
G75*
G02*
X79100000Y-66985000I0J75000D01*
G01*
G37*
G36*
G01*
X79600000Y-66985000D02*
X79600000Y-65585000D01*
G75*
G02*
X79675000Y-65510000I75000J0D01*
G01*
X79825000Y-65510000D01*
G75*
G02*
X79900000Y-65585000I0J-75000D01*
G01*
X79900000Y-66985000D01*
G75*
G02*
X79825000Y-67060000I-75000J0D01*
G01*
X79675000Y-67060000D01*
G75*
G02*
X79600000Y-66985000I0J75000D01*
G01*
G37*
G36*
G01*
X80100000Y-66985000D02*
X80100000Y-65585000D01*
G75*
G02*
X80175000Y-65510000I75000J0D01*
G01*
X80325000Y-65510000D01*
G75*
G02*
X80400000Y-65585000I0J-75000D01*
G01*
X80400000Y-66985000D01*
G75*
G02*
X80325000Y-67060000I-75000J0D01*
G01*
X80175000Y-67060000D01*
G75*
G02*
X80100000Y-66985000I0J75000D01*
G01*
G37*
G36*
G01*
X80600000Y-66985000D02*
X80600000Y-65585000D01*
G75*
G02*
X80675000Y-65510000I75000J0D01*
G01*
X80825000Y-65510000D01*
G75*
G02*
X80900000Y-65585000I0J-75000D01*
G01*
X80900000Y-66985000D01*
G75*
G02*
X80825000Y-67060000I-75000J0D01*
G01*
X80675000Y-67060000D01*
G75*
G02*
X80600000Y-66985000I0J75000D01*
G01*
G37*
G36*
G01*
X81100000Y-66985000D02*
X81100000Y-65585000D01*
G75*
G02*
X81175000Y-65510000I75000J0D01*
G01*
X81325000Y-65510000D01*
G75*
G02*
X81400000Y-65585000I0J-75000D01*
G01*
X81400000Y-66985000D01*
G75*
G02*
X81325000Y-67060000I-75000J0D01*
G01*
X81175000Y-67060000D01*
G75*
G02*
X81100000Y-66985000I0J75000D01*
G01*
G37*
G36*
G01*
X81600000Y-66985000D02*
X81600000Y-65585000D01*
G75*
G02*
X81675000Y-65510000I75000J0D01*
G01*
X81825000Y-65510000D01*
G75*
G02*
X81900000Y-65585000I0J-75000D01*
G01*
X81900000Y-66985000D01*
G75*
G02*
X81825000Y-67060000I-75000J0D01*
G01*
X81675000Y-67060000D01*
G75*
G02*
X81600000Y-66985000I0J75000D01*
G01*
G37*
G36*
G01*
X82900000Y-68285000D02*
X82900000Y-68135000D01*
G75*
G02*
X82975000Y-68060000I75000J0D01*
G01*
X84375000Y-68060000D01*
G75*
G02*
X84450000Y-68135000I0J-75000D01*
G01*
X84450000Y-68285000D01*
G75*
G02*
X84375000Y-68360000I-75000J0D01*
G01*
X82975000Y-68360000D01*
G75*
G02*
X82900000Y-68285000I0J75000D01*
G01*
G37*
G36*
G01*
X82900000Y-68785000D02*
X82900000Y-68635000D01*
G75*
G02*
X82975000Y-68560000I75000J0D01*
G01*
X84375000Y-68560000D01*
G75*
G02*
X84450000Y-68635000I0J-75000D01*
G01*
X84450000Y-68785000D01*
G75*
G02*
X84375000Y-68860000I-75000J0D01*
G01*
X82975000Y-68860000D01*
G75*
G02*
X82900000Y-68785000I0J75000D01*
G01*
G37*
G36*
G01*
X82900000Y-69285000D02*
X82900000Y-69135000D01*
G75*
G02*
X82975000Y-69060000I75000J0D01*
G01*
X84375000Y-69060000D01*
G75*
G02*
X84450000Y-69135000I0J-75000D01*
G01*
X84450000Y-69285000D01*
G75*
G02*
X84375000Y-69360000I-75000J0D01*
G01*
X82975000Y-69360000D01*
G75*
G02*
X82900000Y-69285000I0J75000D01*
G01*
G37*
G36*
G01*
X82900000Y-69785000D02*
X82900000Y-69635000D01*
G75*
G02*
X82975000Y-69560000I75000J0D01*
G01*
X84375000Y-69560000D01*
G75*
G02*
X84450000Y-69635000I0J-75000D01*
G01*
X84450000Y-69785000D01*
G75*
G02*
X84375000Y-69860000I-75000J0D01*
G01*
X82975000Y-69860000D01*
G75*
G02*
X82900000Y-69785000I0J75000D01*
G01*
G37*
G36*
G01*
X82900000Y-70285000D02*
X82900000Y-70135000D01*
G75*
G02*
X82975000Y-70060000I75000J0D01*
G01*
X84375000Y-70060000D01*
G75*
G02*
X84450000Y-70135000I0J-75000D01*
G01*
X84450000Y-70285000D01*
G75*
G02*
X84375000Y-70360000I-75000J0D01*
G01*
X82975000Y-70360000D01*
G75*
G02*
X82900000Y-70285000I0J75000D01*
G01*
G37*
G36*
G01*
X82900000Y-70785000D02*
X82900000Y-70635000D01*
G75*
G02*
X82975000Y-70560000I75000J0D01*
G01*
X84375000Y-70560000D01*
G75*
G02*
X84450000Y-70635000I0J-75000D01*
G01*
X84450000Y-70785000D01*
G75*
G02*
X84375000Y-70860000I-75000J0D01*
G01*
X82975000Y-70860000D01*
G75*
G02*
X82900000Y-70785000I0J75000D01*
G01*
G37*
G36*
G01*
X82900000Y-71285000D02*
X82900000Y-71135000D01*
G75*
G02*
X82975000Y-71060000I75000J0D01*
G01*
X84375000Y-71060000D01*
G75*
G02*
X84450000Y-71135000I0J-75000D01*
G01*
X84450000Y-71285000D01*
G75*
G02*
X84375000Y-71360000I-75000J0D01*
G01*
X82975000Y-71360000D01*
G75*
G02*
X82900000Y-71285000I0J75000D01*
G01*
G37*
G36*
G01*
X82900000Y-71785000D02*
X82900000Y-71635000D01*
G75*
G02*
X82975000Y-71560000I75000J0D01*
G01*
X84375000Y-71560000D01*
G75*
G02*
X84450000Y-71635000I0J-75000D01*
G01*
X84450000Y-71785000D01*
G75*
G02*
X84375000Y-71860000I-75000J0D01*
G01*
X82975000Y-71860000D01*
G75*
G02*
X82900000Y-71785000I0J75000D01*
G01*
G37*
G36*
G01*
X82900000Y-72285000D02*
X82900000Y-72135000D01*
G75*
G02*
X82975000Y-72060000I75000J0D01*
G01*
X84375000Y-72060000D01*
G75*
G02*
X84450000Y-72135000I0J-75000D01*
G01*
X84450000Y-72285000D01*
G75*
G02*
X84375000Y-72360000I-75000J0D01*
G01*
X82975000Y-72360000D01*
G75*
G02*
X82900000Y-72285000I0J75000D01*
G01*
G37*
G36*
G01*
X82900000Y-72785000D02*
X82900000Y-72635000D01*
G75*
G02*
X82975000Y-72560000I75000J0D01*
G01*
X84375000Y-72560000D01*
G75*
G02*
X84450000Y-72635000I0J-75000D01*
G01*
X84450000Y-72785000D01*
G75*
G02*
X84375000Y-72860000I-75000J0D01*
G01*
X82975000Y-72860000D01*
G75*
G02*
X82900000Y-72785000I0J75000D01*
G01*
G37*
G36*
G01*
X82900000Y-73285000D02*
X82900000Y-73135000D01*
G75*
G02*
X82975000Y-73060000I75000J0D01*
G01*
X84375000Y-73060000D01*
G75*
G02*
X84450000Y-73135000I0J-75000D01*
G01*
X84450000Y-73285000D01*
G75*
G02*
X84375000Y-73360000I-75000J0D01*
G01*
X82975000Y-73360000D01*
G75*
G02*
X82900000Y-73285000I0J75000D01*
G01*
G37*
G36*
G01*
X82900000Y-73785000D02*
X82900000Y-73635000D01*
G75*
G02*
X82975000Y-73560000I75000J0D01*
G01*
X84375000Y-73560000D01*
G75*
G02*
X84450000Y-73635000I0J-75000D01*
G01*
X84450000Y-73785000D01*
G75*
G02*
X84375000Y-73860000I-75000J0D01*
G01*
X82975000Y-73860000D01*
G75*
G02*
X82900000Y-73785000I0J75000D01*
G01*
G37*
G36*
G01*
X82900000Y-74285000D02*
X82900000Y-74135000D01*
G75*
G02*
X82975000Y-74060000I75000J0D01*
G01*
X84375000Y-74060000D01*
G75*
G02*
X84450000Y-74135000I0J-75000D01*
G01*
X84450000Y-74285000D01*
G75*
G02*
X84375000Y-74360000I-75000J0D01*
G01*
X82975000Y-74360000D01*
G75*
G02*
X82900000Y-74285000I0J75000D01*
G01*
G37*
G36*
G01*
X82900000Y-74785000D02*
X82900000Y-74635000D01*
G75*
G02*
X82975000Y-74560000I75000J0D01*
G01*
X84375000Y-74560000D01*
G75*
G02*
X84450000Y-74635000I0J-75000D01*
G01*
X84450000Y-74785000D01*
G75*
G02*
X84375000Y-74860000I-75000J0D01*
G01*
X82975000Y-74860000D01*
G75*
G02*
X82900000Y-74785000I0J75000D01*
G01*
G37*
G36*
G01*
X82900000Y-75285000D02*
X82900000Y-75135000D01*
G75*
G02*
X82975000Y-75060000I75000J0D01*
G01*
X84375000Y-75060000D01*
G75*
G02*
X84450000Y-75135000I0J-75000D01*
G01*
X84450000Y-75285000D01*
G75*
G02*
X84375000Y-75360000I-75000J0D01*
G01*
X82975000Y-75360000D01*
G75*
G02*
X82900000Y-75285000I0J75000D01*
G01*
G37*
G36*
G01*
X82900000Y-75785000D02*
X82900000Y-75635000D01*
G75*
G02*
X82975000Y-75560000I75000J0D01*
G01*
X84375000Y-75560000D01*
G75*
G02*
X84450000Y-75635000I0J-75000D01*
G01*
X84450000Y-75785000D01*
G75*
G02*
X84375000Y-75860000I-75000J0D01*
G01*
X82975000Y-75860000D01*
G75*
G02*
X82900000Y-75785000I0J75000D01*
G01*
G37*
G36*
G01*
X81600000Y-78335000D02*
X81600000Y-76935000D01*
G75*
G02*
X81675000Y-76860000I75000J0D01*
G01*
X81825000Y-76860000D01*
G75*
G02*
X81900000Y-76935000I0J-75000D01*
G01*
X81900000Y-78335000D01*
G75*
G02*
X81825000Y-78410000I-75000J0D01*
G01*
X81675000Y-78410000D01*
G75*
G02*
X81600000Y-78335000I0J75000D01*
G01*
G37*
G36*
G01*
X81100000Y-78335000D02*
X81100000Y-76935000D01*
G75*
G02*
X81175000Y-76860000I75000J0D01*
G01*
X81325000Y-76860000D01*
G75*
G02*
X81400000Y-76935000I0J-75000D01*
G01*
X81400000Y-78335000D01*
G75*
G02*
X81325000Y-78410000I-75000J0D01*
G01*
X81175000Y-78410000D01*
G75*
G02*
X81100000Y-78335000I0J75000D01*
G01*
G37*
G36*
G01*
X80600000Y-78335000D02*
X80600000Y-76935000D01*
G75*
G02*
X80675000Y-76860000I75000J0D01*
G01*
X80825000Y-76860000D01*
G75*
G02*
X80900000Y-76935000I0J-75000D01*
G01*
X80900000Y-78335000D01*
G75*
G02*
X80825000Y-78410000I-75000J0D01*
G01*
X80675000Y-78410000D01*
G75*
G02*
X80600000Y-78335000I0J75000D01*
G01*
G37*
G36*
G01*
X80100000Y-78335000D02*
X80100000Y-76935000D01*
G75*
G02*
X80175000Y-76860000I75000J0D01*
G01*
X80325000Y-76860000D01*
G75*
G02*
X80400000Y-76935000I0J-75000D01*
G01*
X80400000Y-78335000D01*
G75*
G02*
X80325000Y-78410000I-75000J0D01*
G01*
X80175000Y-78410000D01*
G75*
G02*
X80100000Y-78335000I0J75000D01*
G01*
G37*
G36*
G01*
X79600000Y-78335000D02*
X79600000Y-76935000D01*
G75*
G02*
X79675000Y-76860000I75000J0D01*
G01*
X79825000Y-76860000D01*
G75*
G02*
X79900000Y-76935000I0J-75000D01*
G01*
X79900000Y-78335000D01*
G75*
G02*
X79825000Y-78410000I-75000J0D01*
G01*
X79675000Y-78410000D01*
G75*
G02*
X79600000Y-78335000I0J75000D01*
G01*
G37*
G36*
G01*
X79100000Y-78335000D02*
X79100000Y-76935000D01*
G75*
G02*
X79175000Y-76860000I75000J0D01*
G01*
X79325000Y-76860000D01*
G75*
G02*
X79400000Y-76935000I0J-75000D01*
G01*
X79400000Y-78335000D01*
G75*
G02*
X79325000Y-78410000I-75000J0D01*
G01*
X79175000Y-78410000D01*
G75*
G02*
X79100000Y-78335000I0J75000D01*
G01*
G37*
G36*
G01*
X78600000Y-78335000D02*
X78600000Y-76935000D01*
G75*
G02*
X78675000Y-76860000I75000J0D01*
G01*
X78825000Y-76860000D01*
G75*
G02*
X78900000Y-76935000I0J-75000D01*
G01*
X78900000Y-78335000D01*
G75*
G02*
X78825000Y-78410000I-75000J0D01*
G01*
X78675000Y-78410000D01*
G75*
G02*
X78600000Y-78335000I0J75000D01*
G01*
G37*
G36*
G01*
X78100000Y-78335000D02*
X78100000Y-76935000D01*
G75*
G02*
X78175000Y-76860000I75000J0D01*
G01*
X78325000Y-76860000D01*
G75*
G02*
X78400000Y-76935000I0J-75000D01*
G01*
X78400000Y-78335000D01*
G75*
G02*
X78325000Y-78410000I-75000J0D01*
G01*
X78175000Y-78410000D01*
G75*
G02*
X78100000Y-78335000I0J75000D01*
G01*
G37*
G36*
G01*
X77600000Y-78335000D02*
X77600000Y-76935000D01*
G75*
G02*
X77675000Y-76860000I75000J0D01*
G01*
X77825000Y-76860000D01*
G75*
G02*
X77900000Y-76935000I0J-75000D01*
G01*
X77900000Y-78335000D01*
G75*
G02*
X77825000Y-78410000I-75000J0D01*
G01*
X77675000Y-78410000D01*
G75*
G02*
X77600000Y-78335000I0J75000D01*
G01*
G37*
G36*
G01*
X77100000Y-78335000D02*
X77100000Y-76935000D01*
G75*
G02*
X77175000Y-76860000I75000J0D01*
G01*
X77325000Y-76860000D01*
G75*
G02*
X77400000Y-76935000I0J-75000D01*
G01*
X77400000Y-78335000D01*
G75*
G02*
X77325000Y-78410000I-75000J0D01*
G01*
X77175000Y-78410000D01*
G75*
G02*
X77100000Y-78335000I0J75000D01*
G01*
G37*
G36*
G01*
X76600000Y-78335000D02*
X76600000Y-76935000D01*
G75*
G02*
X76675000Y-76860000I75000J0D01*
G01*
X76825000Y-76860000D01*
G75*
G02*
X76900000Y-76935000I0J-75000D01*
G01*
X76900000Y-78335000D01*
G75*
G02*
X76825000Y-78410000I-75000J0D01*
G01*
X76675000Y-78410000D01*
G75*
G02*
X76600000Y-78335000I0J75000D01*
G01*
G37*
G36*
G01*
X76100000Y-78335000D02*
X76100000Y-76935000D01*
G75*
G02*
X76175000Y-76860000I75000J0D01*
G01*
X76325000Y-76860000D01*
G75*
G02*
X76400000Y-76935000I0J-75000D01*
G01*
X76400000Y-78335000D01*
G75*
G02*
X76325000Y-78410000I-75000J0D01*
G01*
X76175000Y-78410000D01*
G75*
G02*
X76100000Y-78335000I0J75000D01*
G01*
G37*
G36*
G01*
X75600000Y-78335000D02*
X75600000Y-76935000D01*
G75*
G02*
X75675000Y-76860000I75000J0D01*
G01*
X75825000Y-76860000D01*
G75*
G02*
X75900000Y-76935000I0J-75000D01*
G01*
X75900000Y-78335000D01*
G75*
G02*
X75825000Y-78410000I-75000J0D01*
G01*
X75675000Y-78410000D01*
G75*
G02*
X75600000Y-78335000I0J75000D01*
G01*
G37*
G36*
G01*
X75100000Y-78335000D02*
X75100000Y-76935000D01*
G75*
G02*
X75175000Y-76860000I75000J0D01*
G01*
X75325000Y-76860000D01*
G75*
G02*
X75400000Y-76935000I0J-75000D01*
G01*
X75400000Y-78335000D01*
G75*
G02*
X75325000Y-78410000I-75000J0D01*
G01*
X75175000Y-78410000D01*
G75*
G02*
X75100000Y-78335000I0J75000D01*
G01*
G37*
G36*
G01*
X74600000Y-78335000D02*
X74600000Y-76935000D01*
G75*
G02*
X74675000Y-76860000I75000J0D01*
G01*
X74825000Y-76860000D01*
G75*
G02*
X74900000Y-76935000I0J-75000D01*
G01*
X74900000Y-78335000D01*
G75*
G02*
X74825000Y-78410000I-75000J0D01*
G01*
X74675000Y-78410000D01*
G75*
G02*
X74600000Y-78335000I0J75000D01*
G01*
G37*
G36*
G01*
X74100000Y-78335000D02*
X74100000Y-76935000D01*
G75*
G02*
X74175000Y-76860000I75000J0D01*
G01*
X74325000Y-76860000D01*
G75*
G02*
X74400000Y-76935000I0J-75000D01*
G01*
X74400000Y-78335000D01*
G75*
G02*
X74325000Y-78410000I-75000J0D01*
G01*
X74175000Y-78410000D01*
G75*
G02*
X74100000Y-78335000I0J75000D01*
G01*
G37*
G36*
G01*
X71550000Y-75785000D02*
X71550000Y-75635000D01*
G75*
G02*
X71625000Y-75560000I75000J0D01*
G01*
X73025000Y-75560000D01*
G75*
G02*
X73100000Y-75635000I0J-75000D01*
G01*
X73100000Y-75785000D01*
G75*
G02*
X73025000Y-75860000I-75000J0D01*
G01*
X71625000Y-75860000D01*
G75*
G02*
X71550000Y-75785000I0J75000D01*
G01*
G37*
G36*
G01*
X71550000Y-75285000D02*
X71550000Y-75135000D01*
G75*
G02*
X71625000Y-75060000I75000J0D01*
G01*
X73025000Y-75060000D01*
G75*
G02*
X73100000Y-75135000I0J-75000D01*
G01*
X73100000Y-75285000D01*
G75*
G02*
X73025000Y-75360000I-75000J0D01*
G01*
X71625000Y-75360000D01*
G75*
G02*
X71550000Y-75285000I0J75000D01*
G01*
G37*
G36*
G01*
X71550000Y-74785000D02*
X71550000Y-74635000D01*
G75*
G02*
X71625000Y-74560000I75000J0D01*
G01*
X73025000Y-74560000D01*
G75*
G02*
X73100000Y-74635000I0J-75000D01*
G01*
X73100000Y-74785000D01*
G75*
G02*
X73025000Y-74860000I-75000J0D01*
G01*
X71625000Y-74860000D01*
G75*
G02*
X71550000Y-74785000I0J75000D01*
G01*
G37*
G36*
G01*
X71550000Y-74285000D02*
X71550000Y-74135000D01*
G75*
G02*
X71625000Y-74060000I75000J0D01*
G01*
X73025000Y-74060000D01*
G75*
G02*
X73100000Y-74135000I0J-75000D01*
G01*
X73100000Y-74285000D01*
G75*
G02*
X73025000Y-74360000I-75000J0D01*
G01*
X71625000Y-74360000D01*
G75*
G02*
X71550000Y-74285000I0J75000D01*
G01*
G37*
G36*
G01*
X71550000Y-73785000D02*
X71550000Y-73635000D01*
G75*
G02*
X71625000Y-73560000I75000J0D01*
G01*
X73025000Y-73560000D01*
G75*
G02*
X73100000Y-73635000I0J-75000D01*
G01*
X73100000Y-73785000D01*
G75*
G02*
X73025000Y-73860000I-75000J0D01*
G01*
X71625000Y-73860000D01*
G75*
G02*
X71550000Y-73785000I0J75000D01*
G01*
G37*
G36*
G01*
X71550000Y-73285000D02*
X71550000Y-73135000D01*
G75*
G02*
X71625000Y-73060000I75000J0D01*
G01*
X73025000Y-73060000D01*
G75*
G02*
X73100000Y-73135000I0J-75000D01*
G01*
X73100000Y-73285000D01*
G75*
G02*
X73025000Y-73360000I-75000J0D01*
G01*
X71625000Y-73360000D01*
G75*
G02*
X71550000Y-73285000I0J75000D01*
G01*
G37*
G36*
G01*
X71550000Y-72785000D02*
X71550000Y-72635000D01*
G75*
G02*
X71625000Y-72560000I75000J0D01*
G01*
X73025000Y-72560000D01*
G75*
G02*
X73100000Y-72635000I0J-75000D01*
G01*
X73100000Y-72785000D01*
G75*
G02*
X73025000Y-72860000I-75000J0D01*
G01*
X71625000Y-72860000D01*
G75*
G02*
X71550000Y-72785000I0J75000D01*
G01*
G37*
G36*
G01*
X71550000Y-72285000D02*
X71550000Y-72135000D01*
G75*
G02*
X71625000Y-72060000I75000J0D01*
G01*
X73025000Y-72060000D01*
G75*
G02*
X73100000Y-72135000I0J-75000D01*
G01*
X73100000Y-72285000D01*
G75*
G02*
X73025000Y-72360000I-75000J0D01*
G01*
X71625000Y-72360000D01*
G75*
G02*
X71550000Y-72285000I0J75000D01*
G01*
G37*
G36*
G01*
X71550000Y-71785000D02*
X71550000Y-71635000D01*
G75*
G02*
X71625000Y-71560000I75000J0D01*
G01*
X73025000Y-71560000D01*
G75*
G02*
X73100000Y-71635000I0J-75000D01*
G01*
X73100000Y-71785000D01*
G75*
G02*
X73025000Y-71860000I-75000J0D01*
G01*
X71625000Y-71860000D01*
G75*
G02*
X71550000Y-71785000I0J75000D01*
G01*
G37*
G36*
G01*
X71550000Y-71285000D02*
X71550000Y-71135000D01*
G75*
G02*
X71625000Y-71060000I75000J0D01*
G01*
X73025000Y-71060000D01*
G75*
G02*
X73100000Y-71135000I0J-75000D01*
G01*
X73100000Y-71285000D01*
G75*
G02*
X73025000Y-71360000I-75000J0D01*
G01*
X71625000Y-71360000D01*
G75*
G02*
X71550000Y-71285000I0J75000D01*
G01*
G37*
G36*
G01*
X71550000Y-70785000D02*
X71550000Y-70635000D01*
G75*
G02*
X71625000Y-70560000I75000J0D01*
G01*
X73025000Y-70560000D01*
G75*
G02*
X73100000Y-70635000I0J-75000D01*
G01*
X73100000Y-70785000D01*
G75*
G02*
X73025000Y-70860000I-75000J0D01*
G01*
X71625000Y-70860000D01*
G75*
G02*
X71550000Y-70785000I0J75000D01*
G01*
G37*
G36*
G01*
X71550000Y-70285000D02*
X71550000Y-70135000D01*
G75*
G02*
X71625000Y-70060000I75000J0D01*
G01*
X73025000Y-70060000D01*
G75*
G02*
X73100000Y-70135000I0J-75000D01*
G01*
X73100000Y-70285000D01*
G75*
G02*
X73025000Y-70360000I-75000J0D01*
G01*
X71625000Y-70360000D01*
G75*
G02*
X71550000Y-70285000I0J75000D01*
G01*
G37*
G36*
G01*
X71550000Y-69785000D02*
X71550000Y-69635000D01*
G75*
G02*
X71625000Y-69560000I75000J0D01*
G01*
X73025000Y-69560000D01*
G75*
G02*
X73100000Y-69635000I0J-75000D01*
G01*
X73100000Y-69785000D01*
G75*
G02*
X73025000Y-69860000I-75000J0D01*
G01*
X71625000Y-69860000D01*
G75*
G02*
X71550000Y-69785000I0J75000D01*
G01*
G37*
G36*
G01*
X71550000Y-69285000D02*
X71550000Y-69135000D01*
G75*
G02*
X71625000Y-69060000I75000J0D01*
G01*
X73025000Y-69060000D01*
G75*
G02*
X73100000Y-69135000I0J-75000D01*
G01*
X73100000Y-69285000D01*
G75*
G02*
X73025000Y-69360000I-75000J0D01*
G01*
X71625000Y-69360000D01*
G75*
G02*
X71550000Y-69285000I0J75000D01*
G01*
G37*
G36*
G01*
X71550000Y-68785000D02*
X71550000Y-68635000D01*
G75*
G02*
X71625000Y-68560000I75000J0D01*
G01*
X73025000Y-68560000D01*
G75*
G02*
X73100000Y-68635000I0J-75000D01*
G01*
X73100000Y-68785000D01*
G75*
G02*
X73025000Y-68860000I-75000J0D01*
G01*
X71625000Y-68860000D01*
G75*
G02*
X71550000Y-68785000I0J75000D01*
G01*
G37*
G36*
G01*
X71550000Y-68285000D02*
X71550000Y-68135000D01*
G75*
G02*
X71625000Y-68060000I75000J0D01*
G01*
X73025000Y-68060000D01*
G75*
G02*
X73100000Y-68135000I0J-75000D01*
G01*
X73100000Y-68285000D01*
G75*
G02*
X73025000Y-68360000I-75000J0D01*
G01*
X71625000Y-68360000D01*
G75*
G02*
X71550000Y-68285000I0J75000D01*
G01*
G37*
%TD*%
D25*
%TO.C,U1*%
X104215000Y-78620000D03*
X102945000Y-78620000D03*
X101675000Y-78620000D03*
X100405000Y-78620000D03*
X100405000Y-73220000D03*
X101675000Y-73220000D03*
X102945000Y-73220000D03*
X104215000Y-73220000D03*
D26*
X102310000Y-75920000D03*
%TD*%
%TO.C,R15*%
G36*
G01*
X77770000Y-56115000D02*
X77770000Y-56485000D01*
G75*
G02*
X77635000Y-56620000I-135000J0D01*
G01*
X77365000Y-56620000D01*
G75*
G02*
X77230000Y-56485000I0J135000D01*
G01*
X77230000Y-56115000D01*
G75*
G02*
X77365000Y-55980000I135000J0D01*
G01*
X77635000Y-55980000D01*
G75*
G02*
X77770000Y-56115000I0J-135000D01*
G01*
G37*
G36*
G01*
X78790000Y-56115000D02*
X78790000Y-56485000D01*
G75*
G02*
X78655000Y-56620000I-135000J0D01*
G01*
X78385000Y-56620000D01*
G75*
G02*
X78250000Y-56485000I0J135000D01*
G01*
X78250000Y-56115000D01*
G75*
G02*
X78385000Y-55980000I135000J0D01*
G01*
X78655000Y-55980000D01*
G75*
G02*
X78790000Y-56115000I0J-135000D01*
G01*
G37*
%TD*%
%TO.C,R14*%
G36*
G01*
X72240000Y-56485000D02*
X72240000Y-56115000D01*
G75*
G02*
X72375000Y-55980000I135000J0D01*
G01*
X72645000Y-55980000D01*
G75*
G02*
X72780000Y-56115000I0J-135000D01*
G01*
X72780000Y-56485000D01*
G75*
G02*
X72645000Y-56620000I-135000J0D01*
G01*
X72375000Y-56620000D01*
G75*
G02*
X72240000Y-56485000I0J135000D01*
G01*
G37*
G36*
G01*
X71220000Y-56485000D02*
X71220000Y-56115000D01*
G75*
G02*
X71355000Y-55980000I135000J0D01*
G01*
X71625000Y-55980000D01*
G75*
G02*
X71760000Y-56115000I0J-135000D01*
G01*
X71760000Y-56485000D01*
G75*
G02*
X71625000Y-56620000I-135000J0D01*
G01*
X71355000Y-56620000D01*
G75*
G02*
X71220000Y-56485000I0J135000D01*
G01*
G37*
%TD*%
%TO.C,R13*%
G36*
G01*
X105360000Y-88815000D02*
X105360000Y-89185000D01*
G75*
G02*
X105225000Y-89320000I-135000J0D01*
G01*
X104955000Y-89320000D01*
G75*
G02*
X104820000Y-89185000I0J135000D01*
G01*
X104820000Y-88815000D01*
G75*
G02*
X104955000Y-88680000I135000J0D01*
G01*
X105225000Y-88680000D01*
G75*
G02*
X105360000Y-88815000I0J-135000D01*
G01*
G37*
G36*
G01*
X106380000Y-88815000D02*
X106380000Y-89185000D01*
G75*
G02*
X106245000Y-89320000I-135000J0D01*
G01*
X105975000Y-89320000D01*
G75*
G02*
X105840000Y-89185000I0J135000D01*
G01*
X105840000Y-88815000D01*
G75*
G02*
X105975000Y-88680000I135000J0D01*
G01*
X106245000Y-88680000D01*
G75*
G02*
X106380000Y-88815000I0J-135000D01*
G01*
G37*
%TD*%
%TO.C,R12*%
G36*
G01*
X89370000Y-88855000D02*
X89370000Y-89225000D01*
G75*
G02*
X89235000Y-89360000I-135000J0D01*
G01*
X88965000Y-89360000D01*
G75*
G02*
X88830000Y-89225000I0J135000D01*
G01*
X88830000Y-88855000D01*
G75*
G02*
X88965000Y-88720000I135000J0D01*
G01*
X89235000Y-88720000D01*
G75*
G02*
X89370000Y-88855000I0J-135000D01*
G01*
G37*
G36*
G01*
X90390000Y-88855000D02*
X90390000Y-89225000D01*
G75*
G02*
X90255000Y-89360000I-135000J0D01*
G01*
X89985000Y-89360000D01*
G75*
G02*
X89850000Y-89225000I0J135000D01*
G01*
X89850000Y-88855000D01*
G75*
G02*
X89985000Y-88720000I135000J0D01*
G01*
X90255000Y-88720000D01*
G75*
G02*
X90390000Y-88855000I0J-135000D01*
G01*
G37*
%TD*%
%TO.C,R11*%
G36*
G01*
X73350000Y-88815000D02*
X73350000Y-89185000D01*
G75*
G02*
X73215000Y-89320000I-135000J0D01*
G01*
X72945000Y-89320000D01*
G75*
G02*
X72810000Y-89185000I0J135000D01*
G01*
X72810000Y-88815000D01*
G75*
G02*
X72945000Y-88680000I135000J0D01*
G01*
X73215000Y-88680000D01*
G75*
G02*
X73350000Y-88815000I0J-135000D01*
G01*
G37*
G36*
G01*
X74370000Y-88815000D02*
X74370000Y-89185000D01*
G75*
G02*
X74235000Y-89320000I-135000J0D01*
G01*
X73965000Y-89320000D01*
G75*
G02*
X73830000Y-89185000I0J135000D01*
G01*
X73830000Y-88815000D01*
G75*
G02*
X73965000Y-88680000I135000J0D01*
G01*
X74235000Y-88680000D01*
G75*
G02*
X74370000Y-88815000I0J-135000D01*
G01*
G37*
%TD*%
%TO.C,R10*%
G36*
G01*
X57360000Y-88805000D02*
X57360000Y-89175000D01*
G75*
G02*
X57225000Y-89310000I-135000J0D01*
G01*
X56955000Y-89310000D01*
G75*
G02*
X56820000Y-89175000I0J135000D01*
G01*
X56820000Y-88805000D01*
G75*
G02*
X56955000Y-88670000I135000J0D01*
G01*
X57225000Y-88670000D01*
G75*
G02*
X57360000Y-88805000I0J-135000D01*
G01*
G37*
G36*
G01*
X58380000Y-88805000D02*
X58380000Y-89175000D01*
G75*
G02*
X58245000Y-89310000I-135000J0D01*
G01*
X57975000Y-89310000D01*
G75*
G02*
X57840000Y-89175000I0J135000D01*
G01*
X57840000Y-88805000D01*
G75*
G02*
X57975000Y-88670000I135000J0D01*
G01*
X58245000Y-88670000D01*
G75*
G02*
X58380000Y-88805000I0J-135000D01*
G01*
G37*
%TD*%
%TO.C,R7*%
G36*
G01*
X80405000Y-59795000D02*
X80405000Y-59245000D01*
G75*
G02*
X80605000Y-59045000I200000J0D01*
G01*
X81005000Y-59045000D01*
G75*
G02*
X81205000Y-59245000I0J-200000D01*
G01*
X81205000Y-59795000D01*
G75*
G02*
X81005000Y-59995000I-200000J0D01*
G01*
X80605000Y-59995000D01*
G75*
G02*
X80405000Y-59795000I0J200000D01*
G01*
G37*
G36*
G01*
X78755000Y-59795000D02*
X78755000Y-59245000D01*
G75*
G02*
X78955000Y-59045000I200000J0D01*
G01*
X79355000Y-59045000D01*
G75*
G02*
X79555000Y-59245000I0J-200000D01*
G01*
X79555000Y-59795000D01*
G75*
G02*
X79355000Y-59995000I-200000J0D01*
G01*
X78955000Y-59995000D01*
G75*
G02*
X78755000Y-59795000I0J200000D01*
G01*
G37*
%TD*%
%TO.C,R6*%
G36*
G01*
X70770000Y-70775000D02*
X70770000Y-71145000D01*
G75*
G02*
X70635000Y-71280000I-135000J0D01*
G01*
X70365000Y-71280000D01*
G75*
G02*
X70230000Y-71145000I0J135000D01*
G01*
X70230000Y-70775000D01*
G75*
G02*
X70365000Y-70640000I135000J0D01*
G01*
X70635000Y-70640000D01*
G75*
G02*
X70770000Y-70775000I0J-135000D01*
G01*
G37*
G36*
G01*
X69750000Y-70775000D02*
X69750000Y-71145000D01*
G75*
G02*
X69615000Y-71280000I-135000J0D01*
G01*
X69345000Y-71280000D01*
G75*
G02*
X69210000Y-71145000I0J135000D01*
G01*
X69210000Y-70775000D01*
G75*
G02*
X69345000Y-70640000I135000J0D01*
G01*
X69615000Y-70640000D01*
G75*
G02*
X69750000Y-70775000I0J-135000D01*
G01*
G37*
%TD*%
%TO.C,R5*%
G36*
G01*
X99620000Y-80620000D02*
X99620000Y-80990000D01*
G75*
G02*
X99485000Y-81125000I-135000J0D01*
G01*
X99215000Y-81125000D01*
G75*
G02*
X99080000Y-80990000I0J135000D01*
G01*
X99080000Y-80620000D01*
G75*
G02*
X99215000Y-80485000I135000J0D01*
G01*
X99485000Y-80485000D01*
G75*
G02*
X99620000Y-80620000I0J-135000D01*
G01*
G37*
G36*
G01*
X100640000Y-80620000D02*
X100640000Y-80990000D01*
G75*
G02*
X100505000Y-81125000I-135000J0D01*
G01*
X100235000Y-81125000D01*
G75*
G02*
X100100000Y-80990000I0J135000D01*
G01*
X100100000Y-80620000D01*
G75*
G02*
X100235000Y-80485000I135000J0D01*
G01*
X100505000Y-80485000D01*
G75*
G02*
X100640000Y-80620000I0J-135000D01*
G01*
G37*
%TD*%
%TO.C,R4*%
G36*
G01*
X54145000Y-78250000D02*
X53775000Y-78250000D01*
G75*
G02*
X53640000Y-78115000I0J135000D01*
G01*
X53640000Y-77845000D01*
G75*
G02*
X53775000Y-77710000I135000J0D01*
G01*
X54145000Y-77710000D01*
G75*
G02*
X54280000Y-77845000I0J-135000D01*
G01*
X54280000Y-78115000D01*
G75*
G02*
X54145000Y-78250000I-135000J0D01*
G01*
G37*
G36*
G01*
X54145000Y-79270000D02*
X53775000Y-79270000D01*
G75*
G02*
X53640000Y-79135000I0J135000D01*
G01*
X53640000Y-78865000D01*
G75*
G02*
X53775000Y-78730000I135000J0D01*
G01*
X54145000Y-78730000D01*
G75*
G02*
X54280000Y-78865000I0J-135000D01*
G01*
X54280000Y-79135000D01*
G75*
G02*
X54145000Y-79270000I-135000J0D01*
G01*
G37*
%TD*%
%TO.C,R1*%
G36*
G01*
X100645000Y-81720000D02*
X100645000Y-82090000D01*
G75*
G02*
X100510000Y-82225000I-135000J0D01*
G01*
X100240000Y-82225000D01*
G75*
G02*
X100105000Y-82090000I0J135000D01*
G01*
X100105000Y-81720000D01*
G75*
G02*
X100240000Y-81585000I135000J0D01*
G01*
X100510000Y-81585000D01*
G75*
G02*
X100645000Y-81720000I0J-135000D01*
G01*
G37*
G36*
G01*
X101665000Y-81720000D02*
X101665000Y-82090000D01*
G75*
G02*
X101530000Y-82225000I-135000J0D01*
G01*
X101260000Y-82225000D01*
G75*
G02*
X101125000Y-82090000I0J135000D01*
G01*
X101125000Y-81720000D01*
G75*
G02*
X101260000Y-81585000I135000J0D01*
G01*
X101530000Y-81585000D01*
G75*
G02*
X101665000Y-81720000I0J-135000D01*
G01*
G37*
%TD*%
%TO.C,L2*%
G36*
G01*
X69790000Y-76782500D02*
X69790000Y-76437500D01*
G75*
G02*
X69937500Y-76290000I147500J0D01*
G01*
X70232500Y-76290000D01*
G75*
G02*
X70380000Y-76437500I0J-147500D01*
G01*
X70380000Y-76782500D01*
G75*
G02*
X70232500Y-76930000I-147500J0D01*
G01*
X69937500Y-76930000D01*
G75*
G02*
X69790000Y-76782500I0J147500D01*
G01*
G37*
G36*
G01*
X68820000Y-76782500D02*
X68820000Y-76437500D01*
G75*
G02*
X68967500Y-76290000I147500J0D01*
G01*
X69262500Y-76290000D01*
G75*
G02*
X69410000Y-76437500I0J-147500D01*
G01*
X69410000Y-76782500D01*
G75*
G02*
X69262500Y-76930000I-147500J0D01*
G01*
X68967500Y-76930000D01*
G75*
G02*
X68820000Y-76782500I0J147500D01*
G01*
G37*
%TD*%
D27*
%TO.C,L1*%
X105060000Y-69010000D03*
X109160000Y-69010000D03*
%TD*%
D14*
%TO.C,J7*%
X52540000Y-65080000D03*
D15*
X50000000Y-65080000D03*
%TD*%
D14*
%TO.C,J6*%
X52540000Y-62540000D03*
D15*
X50000000Y-62540000D03*
%TD*%
D28*
%TO.C,J4*%
X93180000Y-60260000D03*
X97080000Y-60260000D03*
X93180000Y-61530000D03*
X97080000Y-61530000D03*
X93180000Y-62800000D03*
X97080000Y-62800000D03*
X93180000Y-64070000D03*
X97080000Y-64070000D03*
X93180000Y-65340000D03*
X97080000Y-65340000D03*
%TD*%
D14*
%TO.C,J3*%
X52540000Y-60000000D03*
D15*
X50000000Y-60000000D03*
%TD*%
D29*
%TO.C,HSE1*%
X65850000Y-69060000D03*
X65850000Y-71260000D03*
X67550000Y-71260000D03*
X67550000Y-69060000D03*
%TD*%
D30*
%TO.C,H4*%
X122280419Y-102719581D03*
X120000000Y-101775000D03*
X117719581Y-102719581D03*
X116775000Y-105000000D03*
X117719581Y-107280419D03*
X120000000Y-108225000D03*
X122280419Y-107280419D03*
X123225000Y-105000000D03*
D31*
X120000000Y-105000000D03*
%TD*%
D30*
%TO.C,H3*%
X52280419Y-47719581D03*
X50000000Y-46775000D03*
X47719581Y-47719581D03*
X46775000Y-50000000D03*
X47719581Y-52280419D03*
X50000000Y-53225000D03*
X52280419Y-52280419D03*
X53225000Y-50000000D03*
D31*
X50000000Y-50000000D03*
%TD*%
D30*
%TO.C,H2*%
X122280419Y-47719581D03*
X120000000Y-46775000D03*
X117719581Y-47719581D03*
X116775000Y-50000000D03*
X117719581Y-52280419D03*
X120000000Y-53225000D03*
X122280419Y-52280419D03*
X123225000Y-50000000D03*
D31*
X120000000Y-50000000D03*
%TD*%
D30*
%TO.C,H1*%
X52280419Y-102719581D03*
X50000000Y-101775000D03*
X47719581Y-102719581D03*
X46775000Y-105000000D03*
X47719581Y-107280419D03*
X50000000Y-108225000D03*
X52280419Y-107280419D03*
X53225000Y-105000000D03*
D31*
X50000000Y-105000000D03*
%TD*%
D32*
%TO.C,D4*%
X106410000Y-75310000D03*
X106410000Y-78610000D03*
%TD*%
%TO.C,D3*%
G36*
G01*
X80350000Y-61546250D02*
X80350000Y-61033750D01*
G75*
G02*
X80568750Y-60815000I218750J0D01*
G01*
X81006250Y-60815000D01*
G75*
G02*
X81225000Y-61033750I0J-218750D01*
G01*
X81225000Y-61546250D01*
G75*
G02*
X81006250Y-61765000I-218750J0D01*
G01*
X80568750Y-61765000D01*
G75*
G02*
X80350000Y-61546250I0J218750D01*
G01*
G37*
G36*
G01*
X78775000Y-61546250D02*
X78775000Y-61033750D01*
G75*
G02*
X78993750Y-60815000I218750J0D01*
G01*
X79431250Y-60815000D01*
G75*
G02*
X79650000Y-61033750I0J-218750D01*
G01*
X79650000Y-61546250D01*
G75*
G02*
X79431250Y-61765000I-218750J0D01*
G01*
X78993750Y-61765000D01*
G75*
G02*
X78775000Y-61546250I0J218750D01*
G01*
G37*
%TD*%
D33*
%TO.C,D2*%
X120000000Y-84300000D03*
X116700000Y-84300000D03*
%TD*%
D32*
%TO.C,D1*%
X116700000Y-78500000D03*
X116700000Y-81800000D03*
%TD*%
D34*
%TO.C,C23*%
X67000000Y-95000000D03*
D35*
X69000000Y-95000000D03*
%TD*%
%TO.C,C22*%
G36*
G01*
X103950000Y-96325000D02*
X104450000Y-96325000D01*
G75*
G02*
X104675000Y-96550000I0J-225000D01*
G01*
X104675000Y-97000000D01*
G75*
G02*
X104450000Y-97225000I-225000J0D01*
G01*
X103950000Y-97225000D01*
G75*
G02*
X103725000Y-97000000I0J225000D01*
G01*
X103725000Y-96550000D01*
G75*
G02*
X103950000Y-96325000I225000J0D01*
G01*
G37*
G36*
G01*
X103950000Y-94775000D02*
X104450000Y-94775000D01*
G75*
G02*
X104675000Y-95000000I0J-225000D01*
G01*
X104675000Y-95450000D01*
G75*
G02*
X104450000Y-95675000I-225000J0D01*
G01*
X103950000Y-95675000D01*
G75*
G02*
X103725000Y-95450000I0J225000D01*
G01*
X103725000Y-95000000D01*
G75*
G02*
X103950000Y-94775000I225000J0D01*
G01*
G37*
%TD*%
D34*
%TO.C,C21*%
X51000000Y-95000000D03*
D35*
X53000000Y-95000000D03*
%TD*%
%TO.C,C20*%
G36*
G01*
X87750000Y-96325000D02*
X88250000Y-96325000D01*
G75*
G02*
X88475000Y-96550000I0J-225000D01*
G01*
X88475000Y-97000000D01*
G75*
G02*
X88250000Y-97225000I-225000J0D01*
G01*
X87750000Y-97225000D01*
G75*
G02*
X87525000Y-97000000I0J225000D01*
G01*
X87525000Y-96550000D01*
G75*
G02*
X87750000Y-96325000I225000J0D01*
G01*
G37*
G36*
G01*
X87750000Y-94775000D02*
X88250000Y-94775000D01*
G75*
G02*
X88475000Y-95000000I0J-225000D01*
G01*
X88475000Y-95450000D01*
G75*
G02*
X88250000Y-95675000I-225000J0D01*
G01*
X87750000Y-95675000D01*
G75*
G02*
X87525000Y-95450000I0J225000D01*
G01*
X87525000Y-95000000D01*
G75*
G02*
X87750000Y-94775000I225000J0D01*
G01*
G37*
%TD*%
D34*
%TO.C,C19*%
X99200000Y-95000000D03*
D35*
X101200000Y-95000000D03*
%TD*%
%TO.C,C18*%
G36*
G01*
X67460000Y-72790000D02*
X67460000Y-73130000D01*
G75*
G02*
X67320000Y-73270000I-140000J0D01*
G01*
X67040000Y-73270000D01*
G75*
G02*
X66900000Y-73130000I0J140000D01*
G01*
X66900000Y-72790000D01*
G75*
G02*
X67040000Y-72650000I140000J0D01*
G01*
X67320000Y-72650000D01*
G75*
G02*
X67460000Y-72790000I0J-140000D01*
G01*
G37*
G36*
G01*
X66500000Y-72790000D02*
X66500000Y-73130000D01*
G75*
G02*
X66360000Y-73270000I-140000J0D01*
G01*
X66080000Y-73270000D01*
G75*
G02*
X65940000Y-73130000I0J140000D01*
G01*
X65940000Y-72790000D01*
G75*
G02*
X66080000Y-72650000I140000J0D01*
G01*
X66360000Y-72650000D01*
G75*
G02*
X66500000Y-72790000I0J-140000D01*
G01*
G37*
%TD*%
%TO.C,C17*%
G36*
G01*
X66040000Y-67330000D02*
X66040000Y-66990000D01*
G75*
G02*
X66180000Y-66850000I140000J0D01*
G01*
X66460000Y-66850000D01*
G75*
G02*
X66600000Y-66990000I0J-140000D01*
G01*
X66600000Y-67330000D01*
G75*
G02*
X66460000Y-67470000I-140000J0D01*
G01*
X66180000Y-67470000D01*
G75*
G02*
X66040000Y-67330000I0J140000D01*
G01*
G37*
G36*
G01*
X67000000Y-67330000D02*
X67000000Y-66990000D01*
G75*
G02*
X67140000Y-66850000I140000J0D01*
G01*
X67420000Y-66850000D01*
G75*
G02*
X67560000Y-66990000I0J-140000D01*
G01*
X67560000Y-67330000D01*
G75*
G02*
X67420000Y-67470000I-140000J0D01*
G01*
X67140000Y-67470000D01*
G75*
G02*
X67000000Y-67330000I0J140000D01*
G01*
G37*
%TD*%
%TO.C,C16*%
G36*
G01*
X86060000Y-67300000D02*
X85560000Y-67300000D01*
G75*
G02*
X85335000Y-67075000I0J225000D01*
G01*
X85335000Y-66625000D01*
G75*
G02*
X85560000Y-66400000I225000J0D01*
G01*
X86060000Y-66400000D01*
G75*
G02*
X86285000Y-66625000I0J-225000D01*
G01*
X86285000Y-67075000D01*
G75*
G02*
X86060000Y-67300000I-225000J0D01*
G01*
G37*
G36*
G01*
X86060000Y-68850000D02*
X85560000Y-68850000D01*
G75*
G02*
X85335000Y-68625000I0J225000D01*
G01*
X85335000Y-68175000D01*
G75*
G02*
X85560000Y-67950000I225000J0D01*
G01*
X86060000Y-67950000D01*
G75*
G02*
X86285000Y-68175000I0J-225000D01*
G01*
X86285000Y-68625000D01*
G75*
G02*
X86060000Y-68850000I-225000J0D01*
G01*
G37*
%TD*%
%TO.C,C15*%
G36*
G01*
X82925000Y-80010000D02*
X82925000Y-79510000D01*
G75*
G02*
X83150000Y-79285000I225000J0D01*
G01*
X83600000Y-79285000D01*
G75*
G02*
X83825000Y-79510000I0J-225000D01*
G01*
X83825000Y-80010000D01*
G75*
G02*
X83600000Y-80235000I-225000J0D01*
G01*
X83150000Y-80235000D01*
G75*
G02*
X82925000Y-80010000I0J225000D01*
G01*
G37*
G36*
G01*
X81375000Y-80010000D02*
X81375000Y-79510000D01*
G75*
G02*
X81600000Y-79285000I225000J0D01*
G01*
X82050000Y-79285000D01*
G75*
G02*
X82275000Y-79510000I0J-225000D01*
G01*
X82275000Y-80010000D01*
G75*
G02*
X82050000Y-80235000I-225000J0D01*
G01*
X81600000Y-80235000D01*
G75*
G02*
X81375000Y-80010000I0J225000D01*
G01*
G37*
%TD*%
%TO.C,C14*%
G36*
G01*
X69420000Y-74360000D02*
X69420000Y-74700000D01*
G75*
G02*
X69280000Y-74840000I-140000J0D01*
G01*
X69000000Y-74840000D01*
G75*
G02*
X68860000Y-74700000I0J140000D01*
G01*
X68860000Y-74360000D01*
G75*
G02*
X69000000Y-74220000I140000J0D01*
G01*
X69280000Y-74220000D01*
G75*
G02*
X69420000Y-74360000I0J-140000D01*
G01*
G37*
G36*
G01*
X70380000Y-74360000D02*
X70380000Y-74700000D01*
G75*
G02*
X70240000Y-74840000I-140000J0D01*
G01*
X69960000Y-74840000D01*
G75*
G02*
X69820000Y-74700000I0J140000D01*
G01*
X69820000Y-74360000D01*
G75*
G02*
X69960000Y-74220000I140000J0D01*
G01*
X70240000Y-74220000D01*
G75*
G02*
X70380000Y-74360000I0J-140000D01*
G01*
G37*
%TD*%
%TO.C,C13*%
G36*
G01*
X69420000Y-75360000D02*
X69420000Y-75700000D01*
G75*
G02*
X69280000Y-75840000I-140000J0D01*
G01*
X69000000Y-75840000D01*
G75*
G02*
X68860000Y-75700000I0J140000D01*
G01*
X68860000Y-75360000D01*
G75*
G02*
X69000000Y-75220000I140000J0D01*
G01*
X69280000Y-75220000D01*
G75*
G02*
X69420000Y-75360000I0J-140000D01*
G01*
G37*
G36*
G01*
X70380000Y-75360000D02*
X70380000Y-75700000D01*
G75*
G02*
X70240000Y-75840000I-140000J0D01*
G01*
X69960000Y-75840000D01*
G75*
G02*
X69820000Y-75700000I0J140000D01*
G01*
X69820000Y-75360000D01*
G75*
G02*
X69960000Y-75220000I140000J0D01*
G01*
X70240000Y-75220000D01*
G75*
G02*
X70380000Y-75360000I0J-140000D01*
G01*
G37*
%TD*%
%TO.C,C12*%
G36*
G01*
X71750000Y-96325000D02*
X72250000Y-96325000D01*
G75*
G02*
X72475000Y-96550000I0J-225000D01*
G01*
X72475000Y-97000000D01*
G75*
G02*
X72250000Y-97225000I-225000J0D01*
G01*
X71750000Y-97225000D01*
G75*
G02*
X71525000Y-97000000I0J225000D01*
G01*
X71525000Y-96550000D01*
G75*
G02*
X71750000Y-96325000I225000J0D01*
G01*
G37*
G36*
G01*
X71750000Y-94775000D02*
X72250000Y-94775000D01*
G75*
G02*
X72475000Y-95000000I0J-225000D01*
G01*
X72475000Y-95450000D01*
G75*
G02*
X72250000Y-95675000I-225000J0D01*
G01*
X71750000Y-95675000D01*
G75*
G02*
X71525000Y-95450000I0J225000D01*
G01*
X71525000Y-95000000D01*
G75*
G02*
X71750000Y-94775000I225000J0D01*
G01*
G37*
%TD*%
D34*
%TO.C,C11*%
X83000000Y-95000000D03*
D35*
X85000000Y-95000000D03*
%TD*%
%TO.C,C10*%
G36*
G01*
X55750000Y-96325000D02*
X56250000Y-96325000D01*
G75*
G02*
X56475000Y-96550000I0J-225000D01*
G01*
X56475000Y-97000000D01*
G75*
G02*
X56250000Y-97225000I-225000J0D01*
G01*
X55750000Y-97225000D01*
G75*
G02*
X55525000Y-97000000I0J225000D01*
G01*
X55525000Y-96550000D01*
G75*
G02*
X55750000Y-96325000I225000J0D01*
G01*
G37*
G36*
G01*
X55750000Y-94775000D02*
X56250000Y-94775000D01*
G75*
G02*
X56475000Y-95000000I0J-225000D01*
G01*
X56475000Y-95450000D01*
G75*
G02*
X56250000Y-95675000I-225000J0D01*
G01*
X55750000Y-95675000D01*
G75*
G02*
X55525000Y-95450000I0J225000D01*
G01*
X55525000Y-95000000D01*
G75*
G02*
X55750000Y-94775000I225000J0D01*
G01*
G37*
%TD*%
%TO.C,C8*%
G36*
G01*
X73540000Y-64230000D02*
X73540000Y-64570000D01*
G75*
G02*
X73400000Y-64710000I-140000J0D01*
G01*
X73120000Y-64710000D01*
G75*
G02*
X72980000Y-64570000I0J140000D01*
G01*
X72980000Y-64230000D01*
G75*
G02*
X73120000Y-64090000I140000J0D01*
G01*
X73400000Y-64090000D01*
G75*
G02*
X73540000Y-64230000I0J-140000D01*
G01*
G37*
G36*
G01*
X74500000Y-64230000D02*
X74500000Y-64570000D01*
G75*
G02*
X74360000Y-64710000I-140000J0D01*
G01*
X74080000Y-64710000D01*
G75*
G02*
X73940000Y-64570000I0J140000D01*
G01*
X73940000Y-64230000D01*
G75*
G02*
X74080000Y-64090000I140000J0D01*
G01*
X74360000Y-64090000D01*
G75*
G02*
X74500000Y-64230000I0J-140000D01*
G01*
G37*
%TD*%
%TO.C,C7*%
G36*
G01*
X83500000Y-65830000D02*
X83500000Y-66170000D01*
G75*
G02*
X83360000Y-66310000I-140000J0D01*
G01*
X83080000Y-66310000D01*
G75*
G02*
X82940000Y-66170000I0J140000D01*
G01*
X82940000Y-65830000D01*
G75*
G02*
X83080000Y-65690000I140000J0D01*
G01*
X83360000Y-65690000D01*
G75*
G02*
X83500000Y-65830000I0J-140000D01*
G01*
G37*
G36*
G01*
X84460000Y-65830000D02*
X84460000Y-66170000D01*
G75*
G02*
X84320000Y-66310000I-140000J0D01*
G01*
X84040000Y-66310000D01*
G75*
G02*
X83900000Y-66170000I0J140000D01*
G01*
X83900000Y-65830000D01*
G75*
G02*
X84040000Y-65690000I140000J0D01*
G01*
X84320000Y-65690000D01*
G75*
G02*
X84460000Y-65830000I0J-140000D01*
G01*
G37*
%TD*%
%TO.C,C6*%
G36*
G01*
X84180000Y-77300000D02*
X83840000Y-77300000D01*
G75*
G02*
X83700000Y-77160000I0J140000D01*
G01*
X83700000Y-76880000D01*
G75*
G02*
X83840000Y-76740000I140000J0D01*
G01*
X84180000Y-76740000D01*
G75*
G02*
X84320000Y-76880000I0J-140000D01*
G01*
X84320000Y-77160000D01*
G75*
G02*
X84180000Y-77300000I-140000J0D01*
G01*
G37*
G36*
G01*
X84180000Y-78260000D02*
X83840000Y-78260000D01*
G75*
G02*
X83700000Y-78120000I0J140000D01*
G01*
X83700000Y-77840000D01*
G75*
G02*
X83840000Y-77700000I140000J0D01*
G01*
X84180000Y-77700000D01*
G75*
G02*
X84320000Y-77840000I0J-140000D01*
G01*
X84320000Y-78120000D01*
G75*
G02*
X84180000Y-78260000I-140000J0D01*
G01*
G37*
%TD*%
%TO.C,C5*%
G36*
G01*
X74860000Y-79170000D02*
X74860000Y-79510000D01*
G75*
G02*
X74720000Y-79650000I-140000J0D01*
G01*
X74440000Y-79650000D01*
G75*
G02*
X74300000Y-79510000I0J140000D01*
G01*
X74300000Y-79170000D01*
G75*
G02*
X74440000Y-79030000I140000J0D01*
G01*
X74720000Y-79030000D01*
G75*
G02*
X74860000Y-79170000I0J-140000D01*
G01*
G37*
G36*
G01*
X75820000Y-79170000D02*
X75820000Y-79510000D01*
G75*
G02*
X75680000Y-79650000I-140000J0D01*
G01*
X75400000Y-79650000D01*
G75*
G02*
X75260000Y-79510000I0J140000D01*
G01*
X75260000Y-79170000D01*
G75*
G02*
X75400000Y-79030000I140000J0D01*
G01*
X75680000Y-79030000D01*
G75*
G02*
X75820000Y-79170000I0J-140000D01*
G01*
G37*
%TD*%
%TO.C,C4*%
G36*
G01*
X71150000Y-66830000D02*
X71150000Y-67170000D01*
G75*
G02*
X71010000Y-67310000I-140000J0D01*
G01*
X70730000Y-67310000D01*
G75*
G02*
X70590000Y-67170000I0J140000D01*
G01*
X70590000Y-66830000D01*
G75*
G02*
X70730000Y-66690000I140000J0D01*
G01*
X71010000Y-66690000D01*
G75*
G02*
X71150000Y-66830000I0J-140000D01*
G01*
G37*
G36*
G01*
X72110000Y-66830000D02*
X72110000Y-67170000D01*
G75*
G02*
X71970000Y-67310000I-140000J0D01*
G01*
X71690000Y-67310000D01*
G75*
G02*
X71550000Y-67170000I0J140000D01*
G01*
X71550000Y-66830000D01*
G75*
G02*
X71690000Y-66690000I140000J0D01*
G01*
X71970000Y-66690000D01*
G75*
G02*
X72110000Y-66830000I0J-140000D01*
G01*
G37*
%TD*%
%TO.C,C3*%
G36*
G01*
X73130000Y-62700000D02*
X73130000Y-63200000D01*
G75*
G02*
X72905000Y-63425000I-225000J0D01*
G01*
X72455000Y-63425000D01*
G75*
G02*
X72230000Y-63200000I0J225000D01*
G01*
X72230000Y-62700000D01*
G75*
G02*
X72455000Y-62475000I225000J0D01*
G01*
X72905000Y-62475000D01*
G75*
G02*
X73130000Y-62700000I0J-225000D01*
G01*
G37*
G36*
G01*
X74680000Y-62700000D02*
X74680000Y-63200000D01*
G75*
G02*
X74455000Y-63425000I-225000J0D01*
G01*
X74005000Y-63425000D01*
G75*
G02*
X73780000Y-63200000I0J225000D01*
G01*
X73780000Y-62700000D01*
G75*
G02*
X74005000Y-62475000I225000J0D01*
G01*
X74455000Y-62475000D01*
G75*
G02*
X74680000Y-62700000I0J-225000D01*
G01*
G37*
%TD*%
%TO.C,C2*%
G36*
G01*
X108010000Y-73090000D02*
X108010000Y-73430000D01*
G75*
G02*
X107870000Y-73570000I-140000J0D01*
G01*
X107590000Y-73570000D01*
G75*
G02*
X107450000Y-73430000I0J140000D01*
G01*
X107450000Y-73090000D01*
G75*
G02*
X107590000Y-72950000I140000J0D01*
G01*
X107870000Y-72950000D01*
G75*
G02*
X108010000Y-73090000I0J-140000D01*
G01*
G37*
G36*
G01*
X108970000Y-73090000D02*
X108970000Y-73430000D01*
G75*
G02*
X108830000Y-73570000I-140000J0D01*
G01*
X108550000Y-73570000D01*
G75*
G02*
X108410000Y-73430000I0J140000D01*
G01*
X108410000Y-73090000D01*
G75*
G02*
X108550000Y-72950000I140000J0D01*
G01*
X108830000Y-72950000D01*
G75*
G02*
X108970000Y-73090000I0J-140000D01*
G01*
G37*
%TD*%
%TO.C,R9*%
G36*
G01*
X98225000Y-73775000D02*
X98775000Y-73775000D01*
G75*
G02*
X98975000Y-73975000I0J-200000D01*
G01*
X98975000Y-74375000D01*
G75*
G02*
X98775000Y-74575000I-200000J0D01*
G01*
X98225000Y-74575000D01*
G75*
G02*
X98025000Y-74375000I0J200000D01*
G01*
X98025000Y-73975000D01*
G75*
G02*
X98225000Y-73775000I200000J0D01*
G01*
G37*
G36*
G01*
X98225000Y-75425000D02*
X98775000Y-75425000D01*
G75*
G02*
X98975000Y-75625000I0J-200000D01*
G01*
X98975000Y-76025000D01*
G75*
G02*
X98775000Y-76225000I-200000J0D01*
G01*
X98225000Y-76225000D01*
G75*
G02*
X98025000Y-76025000I0J200000D01*
G01*
X98025000Y-75625000D01*
G75*
G02*
X98225000Y-75425000I200000J0D01*
G01*
G37*
%TD*%
%TO.C,C1*%
G36*
G01*
X102725000Y-81950001D02*
X102725000Y-80649999D01*
G75*
G02*
X102974999Y-80400000I249999J0D01*
G01*
X103625001Y-80400000D01*
G75*
G02*
X103875000Y-80649999I0J-249999D01*
G01*
X103875000Y-81950001D01*
G75*
G02*
X103625001Y-82200000I-249999J0D01*
G01*
X102974999Y-82200000D01*
G75*
G02*
X102725000Y-81950001I0J249999D01*
G01*
G37*
G36*
G01*
X105675000Y-81950001D02*
X105675000Y-80649999D01*
G75*
G02*
X105924999Y-80400000I249999J0D01*
G01*
X106575001Y-80400000D01*
G75*
G02*
X106825000Y-80649999I0J-249999D01*
G01*
X106825000Y-81950001D01*
G75*
G02*
X106575001Y-82200000I-249999J0D01*
G01*
X105924999Y-82200000D01*
G75*
G02*
X105675000Y-81950001I0J249999D01*
G01*
G37*
%TD*%
%TO.C,R8*%
G36*
G01*
X98225000Y-70615000D02*
X98775000Y-70615000D01*
G75*
G02*
X98975000Y-70815000I0J-200000D01*
G01*
X98975000Y-71215000D01*
G75*
G02*
X98775000Y-71415000I-200000J0D01*
G01*
X98225000Y-71415000D01*
G75*
G02*
X98025000Y-71215000I0J200000D01*
G01*
X98025000Y-70815000D01*
G75*
G02*
X98225000Y-70615000I200000J0D01*
G01*
G37*
G36*
G01*
X98225000Y-72265000D02*
X98775000Y-72265000D01*
G75*
G02*
X98975000Y-72465000I0J-200000D01*
G01*
X98975000Y-72865000D01*
G75*
G02*
X98775000Y-73065000I-200000J0D01*
G01*
X98225000Y-73065000D01*
G75*
G02*
X98025000Y-72865000I0J200000D01*
G01*
X98025000Y-72465000D01*
G75*
G02*
X98225000Y-72265000I200000J0D01*
G01*
G37*
%TD*%
%TO.C,C9*%
G36*
G01*
X96420000Y-70575000D02*
X96920000Y-70575000D01*
G75*
G02*
X97145000Y-70800000I0J-225000D01*
G01*
X97145000Y-71250000D01*
G75*
G02*
X96920000Y-71475000I-225000J0D01*
G01*
X96420000Y-71475000D01*
G75*
G02*
X96195000Y-71250000I0J225000D01*
G01*
X96195000Y-70800000D01*
G75*
G02*
X96420000Y-70575000I225000J0D01*
G01*
G37*
G36*
G01*
X96420000Y-72125000D02*
X96920000Y-72125000D01*
G75*
G02*
X97145000Y-72350000I0J-225000D01*
G01*
X97145000Y-72800000D01*
G75*
G02*
X96920000Y-73025000I-225000J0D01*
G01*
X96420000Y-73025000D01*
G75*
G02*
X96195000Y-72800000I0J225000D01*
G01*
X96195000Y-72350000D01*
G75*
G02*
X96420000Y-72125000I225000J0D01*
G01*
G37*
%TD*%
M02*
