#VRML V2.0 utf8
# 3D model generated by easyeda2kicad.py (https://github.com/uPesy/easyeda2kicad.py)

Shape{
    appearance Appearance {
        material  Material 	{
            diffuseColor 0.8823529411764706 0.8823529411764706 0.8823529411764706
            specularColor 0.7529411764705882 0.7529411764705882 0.7529411764705882
            ambientIntensity 1.0
            transparency 1.0
            shininess 0.5
        }
    }
    geometry IndexedFaceSet {
        ccw TRUE
        solid FALSE
        coord DEF co Coordinate {
            point [
                -0.3709 -0.1225 0.0039, -0.3709 -0.1225 0.0, -0.3793 -0.1182 0.0, -0.3793 -0.1182 0.0039, -0.5343 -0.1161 0.0039, -0.5343 -0.1161 0.0, -0.5343 -0.2166 0.0, -0.5343 -0.2166 0.0039, -0.5217 -0.2166 0.0, -0.5217 -0.2166 0.0039, -0.5217 -0.1289 0.0, -0.5217 -0.1289 0.0039, -0.4589 -0.1289 0.0, -0.4589 -0.1289 0.0039, -0.4589 -0.1161 0.0, -0.4589 -0.1161 0.0039, -0.4232 -0.1973 0.0, -0.4358 -0.2016 0.0, -0.4274 -0.1909 0.0, -0.3604 -0.1909 0.0, -0.3625 -0.2016 0.0, -0.373 -0.1909 0.0, -0.4191 -0.1182 0.0, -0.4086 -0.1289 0.0, -0.417 -0.131 0.0, -0.3897 -0.1289 0.0, -0.3814 -0.131 0.0, -0.3751 -0.1353 0.0, -0.3897 -0.1161 0.0, -0.4086 -0.1161 0.0, -0.4232 -0.1353 0.0, -0.4274 -0.1225 0.0, -0.4274 -0.1417 0.0, -0.4358 -0.131 0.0, -0.44 -0.1396 0.0, -0.4295 -0.1503 0.0, -0.44 -0.1931 0.0, -0.4295 -0.1824 0.0, -0.4421 -0.1824 0.0, -0.4421 -0.1503 0.0, -0.417 -0.2016 0.0, -0.4274 -0.2102 0.0, -0.4191 -0.2145 0.0, -0.4086 -0.2038 0.0, -0.3897 -0.2166 0.0, -0.4086 -0.2166 0.0, -0.3897 -0.2038 0.0, -0.3814 -0.2016 0.0, -0.3793 -0.2145 0.0, -0.3751 -0.1973 0.0, -0.3709 -0.2102 0.0, -0.3625 -0.131 0.0, -0.373 -0.1417 0.0, -0.3604 -0.1417 0.0, -0.3437 -0.1161 0.0, -0.3311 -0.1631 0.0, -0.3437 -0.2166 0.0, -0.3311 -0.176 0.0, -0.2683 -0.1161 0.0, -0.3311 -0.1289 0.0, -0.2766 -0.1631 0.0, -0.2766 -0.176 0.0, -0.3311 -0.2038 0.0, -0.2683 -0.2038 0.0, -0.2683 -0.2166 0.0, -0.2683 -0.1289 0.0, -0.1698 -0.1396 0.0, -0.1803 -0.1503 0.0, -0.1824 -0.1417 0.0, -0.1677 -0.1503 0.0, -0.1803 -0.1824 0.0, -0.1677 -0.1824 0.0, -0.174 -0.2016 0.0, -0.1866 -0.1973 0.0, -0.1824 -0.1909 0.0, -0.1929 -0.2016 0.0, -0.1824 -0.2102 0.0, -0.1908 -0.2145 0.0, -0.2012 -0.2038 0.0, -0.2012 -0.2166 0.0, -0.1698 -0.1931 0.0, -0.2389 -0.2038 0.0, -0.2515 -0.2166 0.0, -0.2389 -0.1289 0.0, -0.2515 -0.1161 0.0, -0.2012 -0.1289 0.0, -0.1908 -0.1182 0.0, -0.1929 -0.131 0.0, -0.1866 -0.1353 0.0, -0.1824 -0.1225 0.0, -0.174 -0.131 0.0, -0.2012 -0.1161 0.0, -0.0672 -0.1161 0.0, -0.1007 -0.2166 0.0, -0.0902 -0.1503 0.0, -0.13 -0.1417 0.0, -0.151 -0.1161 0.0, -0.1384 -0.1161 0.0, -0.1279 -0.1503 0.0, -0.0798 -0.1161 0.0, -0.0881 -0.1417 0.0, -0.1175 -0.2166 0.0, -0.1091 -0.208 0.0, -0.373 -0.1417 0.0039, -0.3604 -0.1417 0.0039, -0.3625 -0.131 0.0039, -0.3751 -0.1353 0.0039, -0.3814 -0.131 0.0039, -0.3897 -0.1289 0.0039, -0.4086 -0.1289 0.0039, -0.417 -0.131 0.0039, -0.4232 -0.1353 0.0039, -0.4274 -0.1417 0.0039, -0.4295 -0.1503 0.0039, -0.4295 -0.1824 0.0039, -0.4274 -0.1909 0.0039, -0.4232 -0.1973 0.0039, -0.417 -0.2016 0.0039, -0.4086 -0.2038 0.0039, -0.3897 -0.2038 0.0039, -0.3814 -0.2016 0.0039, -0.3751 -0.1973 0.0039, -0.373 -0.1909 0.0039, -0.3604 -0.1909 0.0039, -0.3625 -0.2016 0.0039, -0.3709 -0.2102 0.0039, -0.3793 -0.2145 0.0039, -0.3897 -0.2166 0.0039, -0.4086 -0.2166 0.0039, -0.4191 -0.2145 0.0039, -0.4274 -0.2102 0.0039, -0.4358 -0.2016 0.0039, -0.44 -0.1931 0.0039, -0.4421 -0.1824 0.0039, -0.4421 -0.1503 0.0039, -0.44 -0.1396 0.0039, -0.4358 -0.131 0.0039, -0.4274 -0.1225 0.0039, -0.4191 -0.1182 0.0039, -0.4086 -0.1161 0.0039, -0.3897 -0.1161 0.0039, -0.3311 -0.1289 0.0039, -0.2683 -0.1289 0.0039, -0.2683 -0.1161 0.0039, -0.3437 -0.1161 0.0039, -0.3437 -0.2166 0.0039, -0.2683 -0.2166 0.0039, -0.2683 -0.2038 0.0039, -0.3311 -0.2038 0.0039, -0.3311 -0.176 0.0039, -0.2766 -0.176 0.0039, -0.2766 -0.1631 0.0039, -0.3311 -0.1631 0.0039, -0.2515 -0.2166 0.0039, -0.2012 -0.2166 0.0039, -0.1908 -0.2145 0.0039, -0.1824 -0.2102 0.0039, -0.174 -0.2016 0.0039, -0.1698 -0.1931 0.0039, -0.1677 -0.1824 0.0039, -0.1677 -0.1503 0.0039, -0.1698 -0.1396 0.0039, -0.174 -0.131 0.0039, -0.1824 -0.1225 0.0039, -0.1908 -0.1182 0.0039, -0.2012 -0.1161 0.0039, -0.2515 -0.1161 0.0039, -0.2012 -0.2038 0.0039, -0.2389 -0.2038 0.0039, -0.2389 -0.1289 0.0039, -0.2012 -0.1289 0.0039, -0.1929 -0.131 0.0039, -0.1866 -0.1353 0.0039, -0.1824 -0.1417 0.0039, -0.1803 -0.1503 0.0039, -0.1803 -0.1824 0.0039, -0.1824 -0.1909 0.0039, -0.1866 -0.1973 0.0039, -0.1929 -0.2016 0.0039, -0.1175 -0.2166 0.0039, -0.1007 -0.2166 0.0039, -0.0672 -0.1161 0.0039, -0.0798 -0.1161 0.0039, -0.0881 -0.1417 0.0039, -0.13 -0.1417 0.0039, -0.1384 -0.1161 0.0039, -0.151 -0.1161 0.0039, -0.0902 -0.1503 0.0039, -0.1091 -0.208 0.0039, -0.1279 -0.1503 0.0039, 0.7759 -0.3168 0.5157, 0.7759 -0.3168 0.5945, 0.7844 -0.3295 0.5945, 0.7874 -0.3446 0.5945, 0.7844 -0.3295 0.5157, 0.7874 -0.3446 0.5157, 0.7631 -0.3082 0.5157, 0.7631 -0.3082 0.5945, 0.748 -0.3052 0.5157, 0.748 -0.3052 0.5945, 0.7759 0.3168 0.5945, 0.7759 0.3168 0.5157, 0.7844 0.3295 0.5157, 0.7874 0.3446 0.5157, 0.7844 0.3295 0.5945, 0.7874 0.3446 0.5945, 0.7631 0.3082 0.5945, 0.7631 0.3082 0.5157, 0.748 0.3052 0.5945, 0.748 0.3052 0.5157, -0.7759 -0.3168 0.5945, -0.7759 -0.3168 0.5157, -0.7844 -0.3295 0.5157, -0.7874 -0.3446 0.5157, -0.7844 -0.3295 0.5945, -0.7874 -0.3446 0.5945, -0.7631 -0.3082 0.5945, -0.7631 -0.3082 0.5157, -0.748 -0.3052 0.5945, -0.748 -0.3052 0.5157, -0.7759 0.3168 0.5157, -0.7759 0.3168 0.5945, -0.7844 0.3295 0.5945, -0.7874 0.3446 0.5945, -0.7844 0.3295 0.5157, -0.7874 0.3446 0.5157, -0.7631 0.3082 0.5157, -0.7631 0.3082 0.5945, -0.748 0.3052 0.5157, -0.748 0.3052 0.5945
            ]
        }
        coordIndex [
            0,1,2,-1,0,2,3,-1,4,5,6,-1,4,6,7,-1,7,6,8,-1,7,8,9,-1,9,8,10,-1,9,10,11,-1,11,10,12,-1,11,12,13,-1,13,12,14,-1,13,14,15,-1,15,14,5,-1,15,5,4,-1,10,14,12,-1,10,6,5,-1,10,8,6,-1,14,10,5,-1,16,17,18,-1,19,20,21,-1,22,23,24,-1,25,2,26,-1,26,1,27,-1,28,23,29,-1,30,31,24,-1,32,33,30,-1,34,33,32,-1,32,35,34,-1,18,36,37,-1,35,38,39,-1,40,41,16,-1,42,41,40,-1,43,42,40,-1,44,45,46,-1,47,48,46,-1,49,50,47,-1,21,20,49,-1,27,51,52,-1,20,50,49,-1,50,48,47,-1,48,44,46,-1,45,43,46,-1,45,42,43,-1,16,41,17,-1,17,36,18,-1,36,38,37,-1,37,38,35,-1,39,34,35,-1,30,33,31,-1,24,31,22,-1,22,29,23,-1,28,25,23,-1,28,2,25,-1,2,1,26,-1,1,51,27,-1,51,53,52,-1,54,55,56,-1,55,57,56,-1,54,58,59,-1,57,60,61,-1,62,63,64,-1,64,56,62,-1,62,56,57,-1,60,57,55,-1,55,54,59,-1,58,65,59,-1,66,67,68,-1,69,67,66,-1,69,70,67,-1,69,71,70,-1,72,73,74,-1,75,73,76,-1,77,75,76,-1,77,78,75,-1,78,77,79,-1,70,80,74,-1,81,79,82,-1,83,82,84,-1,85,86,87,-1,81,78,79,-1,88,87,89,-1,76,73,72,-1,72,74,80,-1,80,70,71,-1,88,90,68,-1,90,66,68,-1,90,88,89,-1,89,87,86,-1,91,85,83,-1,86,85,91,-1,82,83,81,-1,91,83,84,-1,92,93,94,-1,95,96,97,-1,95,98,96,-1,99,92,100,-1,94,98,100,-1,94,100,92,-1,93,101,102,-1,98,95,100,-1,93,102,94,-1,102,101,98,-1,96,98,101,-1,103,52,53,-1,103,53,104,-1,104,53,51,-1,104,51,105,-1,105,51,1,-1,105,1,0,-1,106,27,52,-1,106,52,103,-1,107,26,27,-1,107,27,106,-1,108,25,26,-1,108,26,107,-1,109,23,25,-1,109,25,108,-1,110,24,23,-1,110,23,109,-1,111,30,24,-1,111,24,110,-1,112,32,30,-1,112,30,111,-1,113,35,32,-1,113,32,112,-1,114,37,35,-1,114,35,113,-1,115,18,37,-1,115,37,114,-1,116,16,18,-1,116,18,115,-1,117,40,16,-1,117,16,116,-1,118,43,40,-1,118,40,117,-1,119,46,43,-1,119,43,118,-1,120,47,46,-1,120,46,119,-1,121,49,47,-1,121,47,120,-1,122,21,49,-1,122,49,121,-1,123,19,21,-1,123,21,122,-1,124,20,19,-1,124,19,123,-1,125,50,20,-1,125,20,124,-1,126,48,50,-1,126,50,125,-1,127,44,48,-1,127,48,126,-1,128,45,44,-1,128,44,127,-1,129,42,45,-1,129,45,128,-1,130,41,42,-1,130,42,129,-1,131,17,41,-1,131,41,130,-1,132,36,17,-1,132,17,131,-1,133,38,36,-1,133,36,132,-1,134,39,38,-1,134,38,133,-1,135,34,39,-1,135,39,134,-1,136,33,34,-1,136,34,135,-1,137,31,33,-1,137,33,136,-1,138,22,31,-1,138,31,137,-1,139,29,22,-1,139,22,138,-1,140,28,29,-1,140,29,139,-1,3,2,28,-1,3,28,140,-1,141,59,65,-1,141,65,142,-1,142,65,58,-1,142,58,143,-1,143,58,54,-1,143,54,144,-1,144,54,56,-1,144,56,145,-1,145,56,64,-1,145,64,146,-1,146,64,63,-1,146,63,147,-1,147,63,62,-1,147,62,148,-1,148,62,57,-1,148,57,149,-1,149,57,61,-1,149,61,150,-1,150,61,60,-1,150,60,151,-1,151,60,55,-1,151,55,152,-1,152,55,59,-1,152,59,141,-1,153,82,79,-1,153,79,154,-1,154,79,77,-1,154,77,155,-1,155,77,76,-1,155,76,156,-1,156,76,72,-1,156,72,157,-1,157,72,80,-1,157,80,158,-1,158,80,71,-1,158,71,159,-1,159,71,69,-1,159,69,160,-1,160,69,66,-1,160,66,161,-1,161,66,90,-1,161,90,162,-1,162,90,89,-1,162,89,163,-1,163,89,86,-1,163,86,164,-1,164,86,91,-1,164,91,165,-1,165,91,84,-1,165,84,166,-1,166,84,82,-1,166,82,153,-1,167,78,81,-1,167,81,168,-1,168,81,83,-1,168,83,169,-1,169,83,85,-1,169,85,170,-1,170,85,87,-1,170,87,171,-1,171,87,88,-1,171,88,172,-1,172,88,68,-1,172,68,173,-1,173,68,67,-1,173,67,174,-1,174,67,70,-1,174,70,175,-1,175,70,74,-1,175,74,176,-1,176,74,73,-1,176,73,177,-1,177,73,75,-1,177,75,178,-1,178,75,78,-1,178,78,167,-1,179,101,93,-1,179,93,180,-1,180,93,92,-1,180,92,181,-1,181,92,99,-1,181,99,182,-1,182,99,100,-1,182,100,183,-1,183,100,95,-1,183,95,184,-1,184,95,97,-1,184,97,185,-1,185,97,96,-1,185,96,186,-1,186,96,101,-1,186,101,179,-1,187,94,102,-1,187,102,188,-1,188,102,98,-1,188,98,189,-1,189,98,94,-1,189,94,187,-1,190,191,192,-1,193,194,192,-1,190,192,194,-1,195,194,193,-1,196,191,190,-1,197,196,198,-1,196,197,191,-1,197,198,199,-1,200,201,202,-1,203,204,202,-1,200,202,204,-1,205,204,203,-1,206,201,200,-1,207,206,208,-1,206,207,201,-1,207,208,209,-1,210,211,212,-1,213,214,212,-1,210,212,214,-1,215,214,213,-1,216,211,210,-1,217,216,218,-1,216,217,211,-1,217,218,219,-1,220,221,222,-1,223,224,222,-1,220,222,224,-1,225,224,223,-1,226,221,220,-1,227,226,228,-1,226,227,221,-1,227,228,229,-1,
        ]
    }
}
Shape{
    appearance Appearance {
        material  Material 	{
            diffuseColor 0.2549019607843137 0.2549019607843137 0.2549019607843137
            specularColor 0.7529411764705882 0.7529411764705882 0.7529411764705882
            ambientIntensity 1.0
            transparency 1.0
            shininess 0.5
        }
    }
    geometry IndexedFaceSet {
        ccw TRUE
        solid FALSE
        coord DEF co Coordinate {
            point [
                0.6299 0.2756 0.0039, 0.5215 0.4274 0.0039, 0.5578 0.403 0.0039, 0.7874 0.374 0.0039, 0.5906 0.374 0.0039, -0.2292 0.3636 0.0039, -0.2529 0.3735 0.0039, -0.3543 0.4724 0.0039, 0.4409 0.461 0.0039, 0.4823 0.4469 0.0039, 0.3543 0.4724 0.0039, 0.398 0.4696 0.0039, -0.3735 0.2529 0.0039, -0.3636 0.2292 0.0039, -0.6299 0.2756 0.0039, -0.0798 -0.1161 0.0039, -0.348 0.2088 0.0039, -0.0672 -0.1161 0.0039, -0.3543 0.5709 0.0039, 0.3543 0.5709 0.0039, -0.5906 0.374 0.0039, -0.5578 0.403 0.0039, -0.3735 0.3039 0.0039, -0.5215 0.4274 0.0039, -0.3636 0.3276 0.0039, -0.3768 0.2784 0.0039, 0.3543 -0.4724 0.0039, 0.2784 -0.3768 0.0039, 0.3039 -0.3735 0.0039, -0.1824 -0.2102 0.0039, -0.1175 -0.2166 0.0039, -0.1908 -0.2145 0.0039, -0.7874 0.2756 0.0039, -0.7874 0.374 0.0039, -0.7874 -0.374 0.0039, -0.7874 -0.2756 0.0039, -0.6299 -0.2756 0.0039, -0.4409 -0.461 0.0039, -0.3897 -0.2166 0.0039, -0.398 -0.4696 0.0039, -0.5906 -0.374 0.0039, -0.3543 -0.4724 0.0039, -0.3437 -0.2166 0.0039, -0.2683 -0.2166 0.0039, -0.3793 -0.2145 0.0039, -0.2515 -0.2166 0.0039, 0.4823 -0.4469 0.0039, 0.348 -0.348 0.0039, 0.5215 -0.4274 0.0039, 0.2529 -0.3735 0.0039, 0.2292 -0.3636 0.0039, 0.3768 -0.2784 0.0039, 0.6299 -0.2756 0.0039, 0.3735 -0.3039 0.0039, 0.5578 -0.403 0.0039, 0.3636 -0.3276 0.0039, 0.3735 -0.2529 0.0039, 0.5906 -0.374 0.0039, 0.348 -0.2088 0.0039, 0.3636 -0.2292 0.0039, -0.3311 -0.1631 0.0039, -0.3311 -0.1289 0.0039, -0.2766 -0.1631 0.0039, 0.7874 -0.374 0.0039, 0.7874 -0.2756 0.0039, -0.3437 -0.1161 0.0039, -0.2683 -0.1161 0.0039, 0.7874 0.2756 0.0039, -0.4823 -0.4469 0.0039, -0.1384 -0.1161 0.0039, -0.348 0.348 0.0039, -0.4823 0.4469 0.0039, -0.1007 -0.2166 0.0039, -0.0881 -0.1417 0.0039, -0.13 -0.1417 0.0039, 0.2088 -0.348 0.0039, -0.2088 0.348 0.0039, 0.4409 -0.461 0.0039, -0.151 -0.1161 0.0039, -0.2012 -0.1161 0.0039, -0.4086 -0.2166 0.0039, -0.5215 -0.4274 0.0039, -0.2012 -0.2166 0.0039, -0.1908 -0.1182 0.0039, -0.1824 -0.1225 0.0039, -0.1698 -0.1396 0.0039, -0.174 -0.131 0.0039, -0.1677 -0.1503 0.0039, -0.1677 -0.1824 0.0039, -0.1698 -0.1931 0.0039, -0.174 -0.2016 0.0039, -0.2515 -0.1161 0.0039, -0.3897 -0.1289 0.0039, -0.373 -0.1417 0.0039, -0.4086 -0.1289 0.0039, -0.2683 -0.1289 0.0039, -0.2766 -0.176 0.0039, -0.3311 -0.176 0.0039, -0.3311 -0.2038 0.0039, -0.2683 -0.2038 0.0039, -0.3709 -0.2102 0.0039, -0.3751 -0.1353 0.0039, -0.3814 -0.131 0.0039, -0.3604 -0.1909 0.0039, -0.3604 -0.1417 0.0039, -0.4232 -0.1353 0.0039, -0.417 -0.131 0.0039, -0.4274 -0.1417 0.0039, -0.5578 -0.403 0.0039, -0.4191 -0.2145 0.0039, -0.4358 -0.131 0.0039, -0.44 -0.1396 0.0039, -0.4589 -0.1289 0.0039, -0.4295 -0.1503 0.0039, -0.5217 -0.1289 0.0039, -0.4421 -0.1503 0.0039, -0.4295 -0.1824 0.0039, -0.373 -0.1909 0.0039, -0.417 -0.2016 0.0039, -0.4232 -0.1973 0.0039, -0.4086 -0.2038 0.0039, -0.4358 -0.2016 0.0039, -0.5217 -0.2166 0.0039, -0.44 -0.1931 0.0039, -0.4274 -0.1909 0.0039, -0.4274 -0.2102 0.0039, -0.3897 -0.2038 0.0039, -0.3751 -0.1973 0.0039, -0.3814 -0.2016 0.0039, -0.3625 -0.2016 0.0039, -0.4421 -0.1824 0.0039, -0.4589 -0.1161 0.0039, -0.4191 -0.1182 0.0039, -0.4274 -0.1225 0.0039, -0.3897 -0.1161 0.0039, -0.4086 -0.1161 0.0039, -0.5343 -0.1161 0.0039, -0.3793 -0.1182 0.0039, -0.3709 -0.1225 0.0039, -0.3625 -0.131 0.0039, -0.5343 -0.2166 0.0039, 0.398 -0.4696 0.0039, 0.3276 -0.3636 0.0039, 0.3543 -0.5709 0.0039, -0.3543 -0.5709 0.0039, -0.4409 0.461 0.0039, -0.398 0.4696 0.0039, -0.3276 0.3636 0.0039, -0.3039 0.3735 0.0039, -0.2784 0.3768 0.0039, -0.1803 -0.1824 0.0039, -0.1824 -0.1909 0.0039, -0.1866 -0.1973 0.0039, -0.1803 -0.1503 0.0039, -0.2012 -0.1289 0.0039, -0.1929 -0.131 0.0039, -0.1929 -0.2016 0.0039, -0.1866 -0.1353 0.0039, -0.1824 -0.1417 0.0039, -0.2012 -0.2038 0.0039, -0.2389 -0.2038 0.0039, -0.2389 -0.1289 0.0039, -0.1279 -0.1503 0.0039, -0.0902 -0.1503 0.0039, -0.1091 -0.208 0.0039, 0.6299 0.2559 0.0461, 0.6299 0.2756 0.063, 0.6299 -0.2559 0.0461, 0.6299 -0.2559 0.0068, 0.6299 0.2559 0.0068, 0.6299 -0.2756 0.063, 0.7874 0.2756 0.063, 0.7874 -0.2756 0.063, 0.7874 0.5709 0.1732, 0.7874 0.1673 0.2874, 0.7874 0.374 0.1732, 0.7874 0.1673 0.5079, 0.7874 0.5118 0.5079, 0.7874 -0.1673 0.5079, 0.7874 -0.5118 0.5079, 0.7874 -0.1673 0.2874, 0.7874 -0.5709 0.1732, 0.7874 -0.374 0.1732, 0.5906 -0.374 0.1732, 0.4823 -0.4469 0.1732, 0.4409 -0.461 0.1732, 0.398 -0.4696 0.1732, 0.3543 -0.4724 0.1732, 0.5215 -0.4274 0.1732, 0.5578 -0.403 0.1732, -0.5118 -0.4724 0.1732, -0.7874 -0.5709 0.1732, -0.7874 -0.374 0.1732, -0.5118 -0.5709 0.1732, -0.4409 -0.461 0.1732, -0.4823 -0.4469 0.1732, -0.398 -0.4696 0.1732, -0.5906 -0.374 0.1732, -0.5578 -0.403 0.1732, -0.5215 -0.4274 0.1732, -0.3543 -0.4724 0.1732, 0.5118 -0.4724 0.1732, 0.5118 -0.5709 0.1732, -0.5118 0.4724 0.1732, -0.398 0.4696 0.1732, -0.4409 0.461 0.1732, -0.5215 0.4274 0.1732, -0.5578 0.403 0.1732, -0.4823 0.4469 0.1732, -0.7874 0.374 0.1732, -0.7874 0.5709 0.1732, -0.5906 0.374 0.1732, -0.3543 0.4724 0.1732, -0.5118 0.5709 0.1732, 0.5215 0.4274 0.1732, 0.4823 0.4469 0.1732, 0.5118 0.4724 0.1732, 0.5118 0.5709 0.1732, 0.4409 0.461 0.1732, 0.5578 0.403 0.1732, 0.5906 0.374 0.1732, 0.398 0.4696 0.1732, 0.3543 0.4724 0.1732, -0.5118 -0.4724 0.5079, 0.5118 -0.4724 0.5079, -0.7874 0.5118 0.5079, -0.7874 0.1673 0.5079, -0.7165 0.1673 0.5079, -0.5118 0.4724 0.5079, -0.5118 0.5118 0.5079, 0.7165 -0.1673 0.5079, 0.025 0.3337 0.5079, -0.025 0.3337 0.5079, -0.7165 -0.1673 0.5079, -0.7874 -0.1673 0.5079, -0.7874 -0.5118 0.5079, 0.3198 -0.0986 0.5079, 0.3015 -0.1452 0.5079, -0.5118 -0.5118 0.5079, 0.5118 -0.5118 0.5079, -0.3309 0.0499 0.5079, -0.3346 0.0 0.5079, 0.1223 0.3115 0.5079, 0.1673 0.2898 0.5079, 0.5118 0.4724 0.5079, 0.7165 0.1673 0.5079, 0.5118 0.5118 0.5079, 0.2453 0.2276 0.5079, 0.2765 0.1885 0.5079, -0.0745 -0.3263 0.5079, -0.025 -0.3337 0.5079, -0.3198 0.0986 0.5079, -0.3015 0.1452 0.5079, -0.2765 0.1885 0.5079, -0.2086 0.2616 0.5079, -0.2453 0.2276 0.5079, -0.1223 0.3115 0.5079, -0.1673 0.2898 0.5079, -0.0745 0.3263 0.5079, 0.0745 0.3263 0.5079, 0.2086 0.2616 0.5079, 0.3015 0.1452 0.5079, 0.3198 0.0986 0.5079, 0.3346 0.0 0.5079, 0.3309 0.0499 0.5079, 0.3309 -0.0499 0.5079, 0.025 -0.3337 0.5079, 0.2765 -0.1885 0.5079, 0.2086 -0.2616 0.5079, 0.2453 -0.2276 0.5079, 0.1223 -0.3115 0.5079, 0.1673 -0.2898 0.5079, 0.0745 -0.3263 0.5079, -0.1673 -0.2898 0.5079, -0.1223 -0.3115 0.5079, -0.2086 -0.2616 0.5079, -0.2453 -0.2276 0.5079, -0.2765 -0.1885 0.5079, -0.3198 -0.0986 0.5079, -0.3015 -0.1452 0.5079, -0.3309 -0.0499 0.5079, 0.025 0.3337 0.9291, 0.0745 0.3263 0.9291, 0.1223 0.3115 0.9291, 0.1673 0.2898 0.9291, 0.2086 0.2616 0.9291, 0.2453 0.2276 0.9291, 0.2765 0.1885 0.9291, 0.3015 0.1452 0.9291, 0.3198 0.0986 0.9291, 0.3309 0.0499 0.9291, 0.3346 -0.0 0.9291, -0.025 0.3337 0.9291, -0.0745 0.3263 0.9291, -0.1223 0.3115 0.9291, -0.1673 0.2898 0.9291, -0.2086 0.2616 0.9291, -0.2453 0.2276 0.9291, -0.2765 0.1885 0.9291, -0.3015 0.1452 0.9291, -0.3198 0.0986 0.9291, -0.3309 0.0499 0.9291, -0.3346 -0.0 0.9291, 0.2741 0.1869 0.9474, 0.2989 0.1439 0.9474, 0.3281 0.0494 0.9474, 0.3198 0.0482 0.9638, 0.3234 0.0 0.9638, 0.2068 0.2594 0.9474, 0.3318 0.0 0.9474, -0.2796 0.1346 0.9769, -0.2965 0.0915 0.9769, -0.2647 0.1275 0.9853, 0.2796 0.1346 0.9769, 0.2564 0.1748 0.9769, 0.2647 0.1275 0.9853, 0.1212 0.3088 0.9474, 0.2275 0.2111 0.9769, 0.2428 0.1655 0.9853, 0.0738 0.3234 0.9474, 0.1832 0.2297 0.9853, 0.1935 0.2426 0.9769, 0.1552 0.2687 0.9769, -0.0738 0.3234 0.9474, -0.0248 0.3308 0.9474, 0.069 0.3025 0.9769, 0.0232 0.3094 0.9769, 0.0654 0.2865 0.9853, -0.2068 0.2594 0.9474, -0.1659 0.2873 0.9474, -0.1134 0.2889 0.9769, -0.0654 0.2865 0.9853, -0.069 0.3025 0.9769, -0.2154 0.1999 0.9853, -0.2275 0.2111 0.9769, -0.2564 0.1748 0.9769, -0.1832 0.2297 0.9853, -0.1935 0.2426 0.9769, -0.2808 0.0866 0.9853, -0.3068 0.0462 0.9769, -0.2906 0.0438 0.9853, -0.3281 0.0494 0.9474, -0.2428 0.1655 0.9853, -0.2483 0.1196 0.9882, -0.2633 0.0813 0.9882, -0.3198 0.0482 0.9638, -0.3318 0.0 0.9474, -0.3234 0.0 0.9638, -0.309 0.0953 0.9638, -0.317 0.0978 0.9474, -0.2725 0.0411 0.9882, -0.2938 0.0 0.9853, -0.2756 -0.0 0.9882, -0.2741 0.1869 0.9474, -0.2989 0.1439 0.9474, -0.1552 0.2687 0.9769, -0.1074 0.2735 0.9853, -0.1469 0.2545 0.9853, -0.1212 0.3088 0.9474, -0.0232 0.3094 0.9769, 0.022 0.293 0.9853, -0.022 0.293 0.9853, 0.0248 0.3308 0.9474, 0.1469 0.2545 0.9853, 0.1134 0.2889 0.9769, 0.1074 0.2735 0.9853, 0.1659 0.2873 0.9474, 0.2432 0.2257 0.9474, 0.2154 0.1999 0.9853, 0.317 0.0978 0.9474, 0.2808 0.0866 0.9853, 0.2965 0.0915 0.9769, 0.2906 0.0438 0.9853, 0.3068 0.0462 0.9769, 0.3103 0.0 0.9769, 0.2938 0.0 0.9853, 0.2756 -0.0 0.9882, 0.309 0.0953 0.9638, 0.2725 0.0411 0.9882, 0.2913 0.1403 0.9638, 0.2634 0.0812 0.9882, 0.2672 0.1822 0.9638, 0.2483 0.1195 0.9882, 0.237 0.2199 0.9638, 0.2277 0.1552 0.9882, 0.2021 0.1874 0.9882, 0.2016 0.2528 0.9638, 0.1719 0.2154 0.9882, 0.1617 0.28 0.9638, 0.1378 0.2386 0.9882, 0.1181 0.301 0.9638, 0.1007 0.2565 0.9882, 0.072 0.3153 0.9638, 0.0614 0.2687 0.9882, 0.0242 0.3225 0.9638, 0.0206 0.2748 0.9882, -0.0242 0.3225 0.9638, -0.0206 0.2748 0.9882, -0.072 0.3153 0.9638, -0.0613 0.2687 0.9882, -0.1181 0.301 0.9638, -0.1006 0.2566 0.9882, -0.1617 0.28 0.9638, -0.1377 0.2387 0.9882, -0.2432 0.2257 0.9474, -0.2016 0.2528 0.9638, -0.1718 0.2155 0.9882, -0.237 0.2199 0.9638, -0.202 0.1875 0.9882, -0.2672 0.1822 0.9638, -0.2913 0.1403 0.9638, -0.2277 0.1553 0.9882, -0.3103 0.0 0.9769, -0.202 -0.1875 0.9882, -0.1718 -0.2155 0.9882, -0.1377 -0.2387 0.9882, 0.2725 -0.0411 0.9882, -0.2277 -0.1553 0.9882, -0.1006 -0.2566 0.9882, -0.0613 -0.2687 0.9882, -0.2483 -0.1196 0.9882, -0.0206 -0.2748 0.9882, 0.0206 -0.2748 0.9882, -0.2633 -0.0813 0.9882, 0.0614 -0.2687 0.9882, -0.2725 -0.0411 0.9882, 0.1007 -0.2565 0.9882, 0.1719 -0.2154 0.9882, 0.1378 -0.2386 0.9882, 0.2483 -0.1195 0.9882, 0.2021 -0.1874 0.9882, 0.2277 -0.1552 0.9882, 0.2634 -0.0812 0.9882, -0.2765 -0.1885 0.9291, -0.2741 -0.1869 0.9474, -0.2989 -0.1439 0.9474, -0.3281 -0.0494 0.9474, -0.3198 -0.0482 0.9638, -0.2086 -0.2616 0.9291, -0.1673 -0.2898 0.9291, -0.2068 -0.2594 0.9474, -0.3309 -0.0499 0.9291, 0.2796 -0.1346 0.9769, 0.2965 -0.0915 0.9769, 0.2647 -0.1275 0.9853, -0.2796 -0.1346 0.9769, -0.2564 -0.1748 0.9769, -0.2647 -0.1275 0.9853, -0.1212 -0.3088 0.9474, -0.1223 -0.3115 0.9291, -0.0745 -0.3263 0.9291, -0.2275 -0.2111 0.9769, -0.2428 -0.1655 0.9853, -0.0738 -0.3234 0.9474, -0.1832 -0.2297 0.9853, -0.1935 -0.2426 0.9769, -0.1552 -0.2687 0.9769, 0.0745 -0.3263 0.9291, 0.0738 -0.3234 0.9474, 0.0248 -0.3308 0.9474, -0.069 -0.3025 0.9769, -0.0232 -0.3094 0.9769, -0.0654 -0.2865 0.9853, 0.2068 -0.2594 0.9474, 0.1659 -0.2873 0.9474, 0.2086 -0.2616 0.9291, 0.1134 -0.2889 0.9769, 0.0654 -0.2865 0.9853, 0.069 -0.3025 0.9769, 0.2154 -0.1999 0.9853, 0.2275 -0.2111 0.9769, 0.2564 -0.1748 0.9769, 0.1832 -0.2297 0.9853, 0.1935 -0.2426 0.9769, 0.2808 -0.0866 0.9853, 0.3068 -0.0462 0.9769, 0.2906 -0.0438 0.9853, 0.3309 -0.0499 0.9291, 0.3281 -0.0494 0.9474, 0.2428 -0.1655 0.9853, 0.3198 -0.0482 0.9638, 0.309 -0.0953 0.9638, 0.317 -0.0978 0.9474, 0.3198 -0.0986 0.9291, 0.3015 -0.1452 0.9291, 0.2741 -0.1869 0.9474, 0.2765 -0.1885 0.9291, 0.2989 -0.1439 0.9474, 0.1552 -0.2687 0.9769, 0.1074 -0.2735 0.9853, 0.1469 -0.2545 0.9853, 0.1212 -0.3088 0.9474, 0.1223 -0.3115 0.9291, 0.1673 -0.2898 0.9291, 0.0232 -0.3094 0.9769, -0.022 -0.293 0.9853, 0.022 -0.293 0.9853, -0.025 -0.3337 0.9291, -0.0248 -0.3308 0.9474, 0.025 -0.3337 0.9291, -0.1469 -0.2545 0.9853, -0.1134 -0.2889 0.9769, -0.1074 -0.2735 0.9853, -0.1659 -0.2873 0.9474, -0.2453 -0.2276 0.9291, -0.2432 -0.2257 0.9474, -0.2154 -0.1999 0.9853, -0.317 -0.0978 0.9474, -0.3015 -0.1452 0.9291, -0.2808 -0.0866 0.9853, -0.2965 -0.0915 0.9769, -0.3198 -0.0986 0.9291, -0.2906 -0.0438 0.9853, -0.3068 -0.0462 0.9769, -0.309 -0.0953 0.9638, -0.2913 -0.1403 0.9638, -0.2672 -0.1822 0.9638, -0.237 -0.2199 0.9638, -0.2016 -0.2528 0.9638, -0.1617 -0.28 0.9638, -0.1181 -0.301 0.9638, -0.072 -0.3153 0.9638, -0.0242 -0.3225 0.9638, 0.0242 -0.3225 0.9638, 0.072 -0.3153 0.9638, 0.1181 -0.301 0.9638, 0.2453 -0.2276 0.9291, 0.1617 -0.28 0.9638, 0.2432 -0.2257 0.9474, 0.2016 -0.2528 0.9638, 0.237 -0.2199 0.9638, 0.2672 -0.1822 0.9638, 0.2913 -0.1403 0.9638, -0.7874 -0.1673 0.2874, -0.7874 -0.2756 0.063, -0.7874 0.1673 0.2874, -0.7874 0.2756 0.063, -0.6299 0.2756 0.063, -0.6299 -0.2756 0.063, -0.6299 0.2559 0.0461, -0.6299 0.2559 0.0068, -0.6299 -0.2559 0.0068, -0.6299 -0.2559 0.0461, -0.3543 0.5709 0.1732, 0.3543 0.5709 0.1732, -0.7165 0.1673 0.2874, -0.7165 -0.1673 0.2874, -0.3543 -0.5709 0.1732, 0.3543 -0.5709 0.1732, 0.7165 0.1673 0.2874, 0.7165 -0.1673 0.2874, -0.3535 0.3419 0.063, -0.363 0.3287 0.063, -0.3701 0.3141 0.063, -0.3421 0.3534 0.063, -0.3142 0.37 0.063, -0.3288 0.3629 0.063, -0.2987 0.3747 0.063, -0.2825 0.3767 0.063, -0.2663 0.3761 0.063, -0.2352 0.3668 0.063, -0.2504 0.3727 0.063, -0.2213 0.3585 0.063, -0.2089 0.3479 0.063, -0.3747 0.2985 0.063, -0.3767 0.2824 0.063, -0.376 0.2661 0.063, -0.3727 0.2503 0.063, -0.3668 0.2351 0.063, -0.3585 0.2213 0.063, -0.348 0.2088 0.063, -0.1085 -0.0307 0.0236, -0.3213 0.1821 0.0236, -0.0307 -0.1085 0.0236, 0.1821 -0.3213 0.0236, 0.191 -0.3302 0.063, 0.1998 -0.3391 0.063, 0.2089 -0.3479 0.063, 0.1821 -0.3213 0.063, -0.1085 -0.0307 0.063, -0.0307 -0.1085 0.063, -0.3213 0.1821 0.063, -0.1821 0.3213 0.0236, 0.0307 0.1085 0.0236, 0.3213 -0.1821 0.0236, 0.1085 0.0307 0.0236, 0.0307 0.1085 0.063, 0.1085 0.0307 0.063, -0.1998 0.3391 0.063, -0.191 0.3302 0.063, -0.1821 0.3213 0.063, 0.3213 -0.1821 0.063, 0.3535 -0.3419 0.063, 0.3701 -0.3141 0.063, 0.363 -0.3287 0.063, 0.3421 -0.3534 0.063, 0.3142 -0.37 0.063, 0.3288 -0.3629 0.063, 0.2987 -0.3747 0.063, 0.3767 -0.2824 0.063, 0.3747 -0.2985 0.063, 0.2825 -0.3767 0.063, 0.376 -0.2661 0.063, 0.2663 -0.3761 0.063, 0.2504 -0.3727 0.063, 0.3727 -0.2503 0.063, 0.2352 -0.3668 0.063, 0.2213 -0.3585 0.063, 0.3668 -0.2351 0.063, 0.3585 -0.2213 0.063, 0.348 -0.2088 0.063
            ]
        }
        coordIndex [
            0,1,2,-1,3,0,4,-1,5,6,7,-1,8,9,10,-1,8,10,11,-1,0,10,1,-1,9,1,10,-1,12,13,14,-1,15,16,17,-1,18,19,5,-1,20,21,22,-1,21,23,24,-1,13,16,14,-1,14,22,25,-1,12,14,25,-1,26,27,28,-1,29,30,31,-1,32,33,14,-1,34,35,36,-1,37,38,39,-1,33,20,14,-1,34,36,40,-1,41,42,43,-1,44,42,38,-1,43,45,41,-1,41,39,42,-1,38,42,39,-1,46,47,48,-1,49,26,50,-1,51,52,53,-1,54,48,55,-1,52,51,56,-1,26,49,27,-1,53,57,54,-1,58,52,59,-1,59,52,56,-1,60,61,62,-1,63,57,52,-1,63,52,64,-1,65,16,66,-1,3,67,0,-1,0,2,4,-1,38,37,68,-1,15,69,16,-1,70,23,71,-1,41,30,72,-1,69,73,74,-1,16,75,17,-1,69,15,73,-1,72,17,75,-1,76,10,0,-1,46,77,47,-1,78,79,16,-1,80,68,81,-1,78,16,69,-1,82,31,30,-1,78,83,79,-1,78,84,83,-1,78,85,86,-1,78,86,84,-1,85,78,87,-1,78,30,87,-1,30,88,87,-1,30,89,88,-1,30,90,89,-1,30,29,90,-1,41,82,30,-1,45,82,41,-1,91,66,16,-1,92,93,94,-1,45,62,91,-1,62,95,91,-1,45,96,62,-1,97,96,98,-1,45,99,96,-1,96,99,98,-1,99,45,43,-1,100,42,44,-1,101,93,102,-1,91,16,79,-1,95,62,61,-1,91,95,66,-1,103,104,42,-1,102,93,92,-1,104,103,93,-1,105,106,94,-1,107,105,94,-1,108,109,80,-1,110,111,112,-1,107,94,93,-1,107,93,113,-1,114,112,115,-1,116,113,117,-1,118,119,120,-1,121,122,123,-1,119,124,120,-1,121,125,122,-1,124,117,120,-1,125,109,122,-1,117,126,120,-1,40,122,109,-1,80,38,68,-1,109,108,40,-1,127,128,117,-1,126,117,128,-1,124,116,117,-1,117,113,93,-1,104,65,42,-1,93,103,117,-1,42,129,103,-1,100,129,42,-1,80,81,108,-1,130,114,115,-1,112,131,110,-1,122,40,36,-1,132,133,131,-1,16,134,135,-1,131,136,16,-1,16,65,134,-1,65,137,134,-1,65,138,137,-1,138,65,139,-1,65,104,139,-1,131,133,110,-1,14,136,36,-1,16,135,131,-1,132,131,135,-1,111,115,112,-1,114,130,122,-1,36,140,122,-1,130,123,122,-1,136,140,36,-1,10,5,19,-1,52,58,0,-1,76,0,58,-1,75,41,72,-1,57,53,52,-1,55,53,54,-1,47,55,48,-1,77,141,142,-1,142,47,77,-1,28,142,26,-1,141,26,142,-1,50,26,143,-1,41,50,144,-1,50,143,144,-1,41,75,50,-1,145,70,71,-1,136,14,16,-1,20,22,14,-1,24,22,21,-1,70,24,23,-1,145,146,147,-1,147,70,145,-1,148,147,7,-1,146,7,147,-1,6,149,7,-1,7,149,148,-1,7,18,5,-1,5,10,76,-1,150,151,152,-1,153,154,155,-1,150,152,156,-1,153,157,158,-1,155,157,153,-1,153,150,154,-1,159,154,150,-1,160,161,159,-1,150,156,159,-1,159,161,154,-1,162,163,164,-1,165,0,166,-1,167,165,166,-1,168,52,169,-1,165,169,0,-1,52,167,170,-1,166,170,167,-1,52,168,167,-1,52,0,169,-1,0,67,171,-1,0,171,166,-1,172,166,171,-1,166,172,170,-1,170,172,64,-1,170,64,52,-1,173,174,175,-1,171,3,175,-1,175,174,171,-1,3,171,67,-1,176,174,177,-1,173,177,174,-1,178,179,180,-1,180,181,182,-1,174,180,171,-1,63,64,172,-1,180,179,181,-1,180,182,172,-1,63,172,182,-1,180,172,171,-1,57,63,182,-1,182,183,57,-1,46,184,185,-1,186,141,77,-1,46,185,77,-1,186,187,141,-1,187,26,141,-1,185,186,77,-1,48,184,46,-1,48,54,188,-1,188,184,48,-1,189,54,57,-1,54,189,188,-1,189,57,183,-1,190,191,192,-1,190,193,191,-1,194,190,195,-1,194,196,190,-1,192,197,198,-1,199,190,198,-1,192,198,190,-1,190,196,200,-1,190,199,195,-1,189,182,201,-1,185,201,186,-1,201,188,189,-1,201,185,184,-1,182,181,201,-1,183,182,189,-1,201,187,186,-1,188,201,184,-1,181,202,201,-1,203,204,205,-1,206,207,203,-1,205,208,203,-1,203,207,209,-1,209,210,203,-1,207,211,209,-1,204,203,212,-1,206,203,208,-1,210,213,203,-1,214,215,216,-1,173,216,217,-1,216,215,218,-1,216,173,175,-1,216,175,219,-1,175,220,219,-1,216,219,214,-1,221,222,216,-1,218,221,216,-1,223,200,187,-1,200,223,190,-1,201,224,187,-1,224,223,187,-1,225,226,227,-1,228,229,225,-1,230,224,179,-1,231,228,232,-1,233,234,235,-1,225,227,228,-1,236,237,230,-1,238,223,235,-1,233,235,223,-1,224,239,179,-1,178,230,179,-1,240,227,241,-1,242,243,244,-1,245,176,177,-1,244,177,246,-1,245,177,244,-1,247,248,245,-1,227,233,241,-1,249,223,250,-1,227,251,252,-1,240,251,227,-1,228,227,253,-1,252,253,227,-1,254,228,255,-1,228,253,255,-1,256,228,257,-1,228,254,257,-1,228,258,232,-1,228,256,258,-1,259,244,231,-1,228,231,244,-1,244,259,242,-1,244,260,247,-1,243,260,244,-1,244,247,245,-1,245,261,262,-1,248,261,245,-1,230,245,263,-1,264,263,245,-1,262,264,245,-1,230,263,265,-1,224,266,250,-1,265,236,230,-1,224,230,267,-1,237,267,230,-1,268,224,269,-1,224,267,269,-1,270,224,271,-1,224,268,271,-1,224,272,266,-1,224,270,272,-1,273,223,274,-1,224,250,223,-1,223,249,274,-1,223,275,276,-1,273,275,223,-1,277,233,276,-1,223,276,233,-1,278,233,279,-1,233,277,279,-1,241,233,280,-1,233,278,280,-1,231,232,281,-1,282,259,231,-1,231,281,282,-1,259,283,242,-1,283,259,282,-1,243,242,284,-1,283,284,242,-1,285,260,243,-1,243,284,285,-1,260,286,247,-1,286,260,285,-1,248,247,287,-1,286,287,247,-1,288,261,248,-1,248,287,288,-1,261,289,262,-1,289,261,288,-1,264,262,290,-1,289,290,262,-1,291,263,264,-1,264,290,291,-1,281,232,292,-1,293,292,258,-1,232,258,292,-1,256,294,293,-1,293,258,256,-1,294,257,295,-1,257,294,256,-1,296,295,254,-1,257,254,295,-1,255,297,296,-1,296,254,255,-1,297,253,298,-1,253,297,255,-1,299,298,252,-1,253,252,298,-1,251,300,299,-1,299,252,251,-1,300,240,301,-1,240,300,251,-1,240,241,301,-1,301,241,302,-1,287,303,304,-1,305,306,307,-1,285,284,308,-1,290,305,309,-1,291,290,309,-1,310,311,312,-1,313,314,315,-1,316,283,282,-1,314,317,318,-1,316,282,319,-1,320,321,322,-1,293,323,324,-1,325,326,327,-1,328,329,296,-1,330,331,332,-1,333,334,335,-1,336,337,334,-1,338,339,340,-1,301,302,341,-1,312,342,310,-1,343,338,344,-1,345,346,347,-1,342,335,310,-1,302,346,341,-1,348,341,345,-1,349,300,301,-1,350,351,352,-1,299,353,298,-1,354,299,300,-1,330,355,356,-1,337,357,355,-1,358,323,294,-1,329,358,295,-1,326,359,360,-1,359,332,361,-1,281,362,319,-1,292,324,362,-1,363,322,364,-1,365,364,325,-1,308,284,366,-1,366,283,316,-1,286,367,303,-1,321,368,317,-1,304,369,288,-1,370,371,313,-1,369,305,289,-1,372,373,371,-1,306,373,374,-1,373,375,374,-1,375,372,376,-1,309,305,307,-1,290,289,305,-1,371,373,377,-1,307,306,374,-1,377,306,369,-1,372,370,378,-1,376,372,378,-1,375,373,372,-1,305,369,306,-1,289,288,369,-1,371,370,372,-1,306,377,373,-1,379,377,304,-1,371,379,313,-1,380,370,315,-1,370,380,378,-1,369,304,377,-1,288,287,304,-1,314,313,381,-1,377,379,371,-1,381,379,303,-1,315,318,382,-1,380,315,382,-1,370,313,315,-1,304,303,379,-1,287,286,303,-1,317,314,383,-1,379,381,313,-1,383,381,367,-1,318,368,384,-1,382,318,384,-1,315,314,318,-1,303,367,381,-1,286,285,367,-1,385,384,368,-1,381,383,314,-1,383,308,386,-1,318,317,368,-1,317,386,321,-1,385,368,320,-1,383,367,308,-1,285,308,367,-1,385,320,387,-1,383,386,317,-1,386,366,388,-1,368,321,320,-1,321,388,322,-1,387,320,363,-1,308,366,386,-1,284,283,366,-1,387,363,389,-1,386,388,321,-1,319,282,281,-1,320,322,363,-1,322,390,364,-1,389,363,365,-1,388,316,390,-1,316,388,366,-1,389,365,391,-1,388,390,322,-1,295,358,294,-1,363,364,365,-1,364,392,325,-1,391,365,327,-1,390,319,392,-1,316,319,390,-1,391,327,393,-1,390,392,364,-1,394,392,362,-1,365,325,327,-1,325,394,326,-1,393,327,360,-1,319,362,392,-1,281,292,362,-1,393,360,395,-1,392,394,325,-1,396,394,324,-1,327,326,360,-1,326,396,359,-1,395,360,361,-1,362,324,394,-1,292,293,324,-1,395,361,397,-1,394,396,326,-1,396,323,398,-1,360,359,361,-1,359,398,332,-1,397,361,331,-1,324,323,396,-1,293,294,323,-1,397,331,399,-1,396,398,359,-1,329,295,296,-1,361,332,331,-1,332,400,330,-1,399,331,356,-1,398,358,400,-1,358,398,323,-1,399,356,401,-1,398,400,332,-1,328,296,297,-1,331,330,356,-1,330,402,355,-1,401,356,357,-1,400,329,402,-1,358,329,400,-1,401,357,403,-1,400,402,330,-1,404,297,298,-1,356,355,357,-1,355,405,337,-1,403,357,336,-1,402,328,405,-1,329,328,402,-1,403,336,406,-1,402,405,355,-1,407,405,404,-1,357,337,336,-1,337,407,334,-1,406,336,333,-1,405,328,404,-1,297,404,328,-1,406,333,408,-1,405,407,337,-1,409,407,353,-1,336,334,333,-1,334,409,335,-1,408,333,342,-1,407,404,353,-1,298,353,404,-1,335,410,310,-1,407,409,334,-1,410,409,354,-1,342,312,411,-1,408,342,411,-1,333,335,342,-1,409,353,354,-1,299,354,353,-1,312,311,338,-1,409,410,335,-1,349,348,410,-1,348,311,310,-1,343,312,338,-1,312,343,411,-1,410,354,349,-1,300,349,354,-1,345,339,311,-1,410,348,310,-1,345,311,348,-1,350,344,340,-1,338,311,339,-1,344,338,340,-1,349,301,341,-1,348,349,341,-1,339,347,412,-1,346,345,341,-1,340,412,351,-1,347,339,345,-1,412,340,339,-1,351,350,340,-1,413,414,415,-1,416,401,403,-1,417,413,418,-1,415,418,413,-1,419,420,417,-1,417,418,419,-1,421,420,419,-1,422,423,421,-1,420,421,423,-1,422,424,425,-1,425,423,422,-1,352,424,426,-1,424,352,425,-1,427,343,344,-1,428,350,426,-1,406,408,429,-1,411,430,431,-1,401,376,399,-1,432,416,403,-1,382,393,395,-1,380,397,378,-1,389,385,387,-1,385,391,384,-1,393,384,391,-1,391,385,389,-1,395,380,382,-1,393,382,384,-1,397,399,378,-1,395,397,380,-1,376,401,416,-1,378,399,376,-1,406,432,403,-1,429,408,431,-1,432,406,429,-1,431,408,411,-1,430,343,427,-1,430,411,343,-1,428,344,350,-1,428,427,344,-1,350,352,426,-1,433,434,435,-1,436,437,347,-1,438,439,440,-1,441,436,346,-1,302,441,346,-1,442,443,444,-1,445,446,447,-1,448,449,450,-1,446,451,452,-1,448,450,453,-1,454,455,456,-1,457,458,459,-1,460,461,462,-1,463,464,465,-1,466,467,468,-1,469,470,471,-1,472,473,470,-1,474,475,476,-1,477,291,478,-1,444,479,442,-1,429,474,432,-1,480,309,307,-1,479,471,442,-1,291,309,478,-1,481,478,480,-1,482,483,477,-1,416,375,376,-1,484,485,486,-1,487,484,483,-1,466,488,489,-1,473,490,488,-1,491,458,492,-1,464,491,493,-1,461,494,495,-1,494,468,496,-1,497,498,453,-1,499,459,498,-1,500,456,501,-1,502,501,460,-1,440,439,503,-1,503,449,448,-1,504,505,434,-1,455,506,451,-1,435,507,508,-1,509,510,445,-1,507,436,511,-1,512,513,510,-1,437,513,412,-1,513,351,412,-1,351,512,352,-1,346,436,347,-1,441,511,436,-1,510,513,514,-1,347,437,412,-1,514,437,507,-1,512,509,425,-1,352,512,425,-1,351,513,512,-1,436,507,437,-1,511,508,507,-1,510,509,512,-1,437,514,513,-1,515,514,435,-1,510,515,445,-1,423,509,447,-1,509,423,425,-1,507,435,514,-1,508,433,435,-1,446,445,516,-1,514,515,510,-1,516,515,434,-1,447,452,420,-1,423,447,420,-1,509,445,447,-1,435,434,515,-1,433,504,434,-1,451,446,517,-1,515,516,445,-1,517,516,505,-1,452,506,417,-1,420,452,417,-1,447,446,452,-1,434,505,516,-1,504,438,505,-1,413,417,506,-1,516,517,446,-1,517,440,518,-1,452,451,506,-1,451,518,455,-1,413,506,454,-1,517,505,440,-1,438,440,505,-1,413,454,414,-1,517,518,451,-1,518,503,519,-1,506,455,454,-1,455,519,456,-1,414,454,500,-1,440,503,518,-1,439,449,503,-1,414,500,415,-1,518,519,455,-1,453,450,497,-1,454,456,500,-1,456,520,501,-1,415,500,502,-1,519,448,520,-1,448,519,503,-1,415,502,418,-1,519,520,456,-1,493,491,492,-1,500,501,502,-1,501,521,460,-1,418,502,462,-1,520,453,521,-1,448,453,520,-1,418,462,419,-1,520,521,501,-1,522,521,498,-1,502,460,462,-1,460,522,461,-1,419,462,495,-1,453,498,521,-1,497,499,498,-1,419,495,421,-1,521,522,460,-1,523,522,459,-1,462,461,495,-1,461,523,494,-1,421,495,496,-1,498,459,522,-1,499,457,459,-1,421,496,422,-1,522,523,461,-1,523,458,524,-1,495,494,496,-1,494,524,468,-1,422,496,467,-1,459,458,523,-1,457,492,458,-1,422,467,424,-1,523,524,494,-1,464,493,465,-1,496,468,467,-1,468,525,466,-1,424,467,489,-1,524,491,525,-1,491,524,458,-1,424,489,426,-1,524,525,468,-1,463,465,526,-1,467,466,489,-1,466,527,488,-1,426,489,490,-1,525,464,527,-1,491,464,525,-1,426,490,428,-1,525,527,466,-1,528,526,486,-1,489,488,490,-1,488,529,473,-1,428,490,472,-1,527,463,529,-1,464,463,527,-1,428,472,427,-1,527,529,488,-1,530,529,528,-1,490,473,472,-1,473,530,470,-1,427,472,469,-1,529,463,528,-1,526,528,463,-1,427,469,430,-1,529,530,473,-1,531,530,485,-1,472,470,469,-1,470,531,471,-1,430,469,479,-1,530,528,485,-1,486,485,528,-1,471,532,442,-1,530,531,470,-1,532,531,487,-1,479,444,431,-1,430,479,431,-1,469,471,479,-1,531,485,487,-1,484,487,485,-1,444,443,474,-1,531,532,471,-1,482,481,532,-1,481,443,442,-1,429,444,474,-1,444,429,431,-1,532,487,482,-1,483,482,487,-1,480,475,443,-1,532,481,442,-1,480,443,481,-1,416,432,476,-1,474,443,475,-1,432,474,476,-1,482,477,478,-1,481,482,478,-1,475,307,374,-1,309,480,478,-1,476,374,375,-1,307,475,480,-1,374,476,475,-1,375,416,476,-1,250,266,497,-1,450,249,250,-1,250,497,450,-1,249,449,274,-1,449,249,450,-1,273,274,439,-1,449,439,274,-1,438,275,273,-1,273,439,438,-1,275,504,276,-1,504,275,438,-1,277,276,433,-1,504,433,276,-1,508,279,277,-1,277,433,508,-1,279,511,278,-1,511,279,508,-1,280,278,441,-1,511,441,278,-1,302,241,280,-1,280,441,302,-1,497,266,499,-1,457,499,272,-1,266,272,499,-1,270,492,457,-1,457,272,270,-1,492,271,493,-1,271,492,270,-1,465,493,268,-1,271,268,493,-1,269,526,465,-1,465,268,269,-1,526,267,486,-1,267,526,269,-1,484,486,237,-1,267,237,486,-1,236,483,484,-1,484,237,236,-1,483,265,477,-1,265,483,236,-1,265,263,477,-1,477,263,291,-1,228,244,222,-1,222,212,228,-1,222,244,216,-1,212,203,228,-1,203,229,228,-1,203,213,229,-1,213,210,225,-1,213,225,229,-1,246,173,217,-1,173,246,177,-1,191,533,192,-1,534,34,192,-1,192,533,534,-1,34,534,35,-1,234,533,235,-1,191,235,533,-1,226,225,535,-1,535,210,209,-1,533,535,534,-1,33,32,536,-1,535,225,210,-1,535,209,536,-1,33,536,209,-1,535,536,534,-1,534,536,537,-1,537,538,534,-1,538,35,534,-1,538,36,35,-1,539,14,540,-1,539,537,14,-1,14,36,540,-1,541,540,36,-1,537,539,542,-1,36,538,542,-1,537,542,538,-1,36,542,541,-1,536,32,14,-1,14,537,536,-1,20,33,209,-1,209,211,20,-1,71,208,205,-1,204,146,145,-1,71,205,145,-1,204,212,146,-1,212,7,146,-1,205,204,145,-1,23,208,71,-1,23,21,206,-1,206,208,23,-1,207,21,20,-1,21,207,206,-1,207,20,211,-1,18,212,543,-1,18,7,212,-1,222,544,543,-1,222,543,212,-1,544,18,543,-1,18,544,19,-1,10,544,222,-1,10,19,544,-1,9,215,214,-1,219,2,1,-1,9,214,1,-1,219,220,2,-1,220,4,2,-1,214,219,1,-1,8,215,9,-1,8,11,218,-1,218,215,8,-1,221,11,10,-1,11,221,218,-1,221,10,222,-1,3,4,220,-1,220,175,3,-1,545,226,535,-1,545,227,226,-1,227,546,233,-1,546,227,545,-1,533,234,233,-1,233,546,533,-1,535,533,546,-1,546,545,535,-1,238,191,193,-1,191,238,235,-1,202,181,179,-1,202,179,239,-1,190,223,238,-1,190,238,193,-1,201,202,239,-1,239,224,201,-1,34,40,197,-1,197,192,34,-1,68,199,81,-1,198,108,81,-1,199,198,81,-1,199,68,195,-1,197,40,108,-1,198,197,108,-1,68,37,195,-1,37,39,194,-1,194,195,37,-1,196,39,41,-1,39,196,194,-1,196,41,200,-1,41,547,200,-1,41,144,547,-1,547,548,187,-1,187,200,547,-1,547,143,548,-1,143,547,144,-1,143,187,548,-1,143,26,187,-1,246,217,216,-1,246,216,244,-1,549,174,176,-1,549,176,245,-1,550,245,230,-1,550,549,245,-1,174,550,180,-1,550,174,549,-1,230,178,180,-1,230,180,550,-1,24,70,551,-1,24,552,553,-1,551,552,24,-1,147,554,70,-1,551,70,554,-1,555,556,147,-1,147,556,554,-1,555,148,557,-1,148,555,147,-1,149,558,557,-1,557,148,149,-1,6,559,149,-1,558,149,559,-1,560,561,6,-1,6,561,559,-1,560,5,562,-1,5,560,6,-1,562,5,76,-1,562,76,563,-1,22,24,553,-1,25,22,564,-1,553,564,22,-1,565,566,25,-1,565,25,564,-1,567,12,566,-1,25,566,12,-1,12,568,13,-1,568,12,567,-1,569,16,13,-1,13,568,569,-1,569,570,16,-1,571,16,572,-1,75,573,574,-1,574,575,576,-1,577,574,576,-1,574,577,75,-1,575,574,578,-1,573,75,571,-1,16,571,75,-1,573,579,580,-1,579,573,571,-1,572,570,581,-1,570,572,16,-1,572,582,583,-1,572,583,571,-1,584,574,573,-1,584,573,585,-1,571,583,586,-1,586,579,571,-1,579,586,587,-1,579,587,580,-1,558,559,566,-1,552,551,553,-1,551,554,553,-1,555,553,554,-1,554,556,555,-1,553,557,564,-1,557,553,555,-1,558,565,557,-1,564,557,565,-1,566,565,558,-1,566,561,567,-1,561,566,559,-1,568,567,560,-1,561,560,567,-1,562,569,568,-1,568,560,562,-1,570,562,563,-1,562,570,569,-1,570,588,589,-1,563,588,570,-1,590,581,589,-1,589,581,570,-1,575,578,591,-1,592,593,594,-1,592,595,593,-1,593,595,596,-1,597,596,595,-1,593,596,598,-1,599,600,598,-1,598,600,593,-1,601,602,599,-1,599,598,601,-1,603,604,602,-1,603,602,601,-1,605,604,606,-1,604,605,602,-1,607,608,606,-1,605,606,608,-1,609,607,610,-1,609,608,607,-1,576,610,577,-1,610,607,577,-1,610,576,575,-1,591,610,575,-1,585,573,580,-1,580,587,585,-1,582,76,583,-1,582,563,76,-1,583,76,585,-1,583,585,587,-1,610,584,58,-1,583,587,586,-1,58,585,76,-1,585,58,584,-1,584,610,591,-1,582,589,588,-1,582,588,563,-1,590,589,582,-1,582,572,581,-1,581,590,582,-1,574,584,591,-1,591,578,574,-1,55,47,592,-1,592,47,595,-1,592,594,55,-1,594,593,55,-1,596,597,142,-1,47,142,595,-1,598,596,28,-1,142,28,596,-1,603,601,27,-1,27,601,598,-1,49,604,603,-1,49,603,27,-1,595,142,597,-1,598,28,27,-1,606,50,607,-1,49,606,604,-1,607,75,577,-1,75,607,50,-1,49,50,606,-1,53,55,593,-1,51,53,600,-1,593,600,53,-1,599,602,51,-1,599,51,600,-1,605,56,602,-1,51,602,56,-1,56,608,59,-1,608,56,605,-1,609,58,59,-1,59,608,609,-1,609,610,58,-1,
        ]
    }
}
Shape{
    appearance Appearance {
        material  Material 	{
            diffuseColor 0.8117647058823529 0.8117647058823529 0.8117647058823529
            specularColor 0.7529411764705882 0.7529411764705882 0.7529411764705882
            ambientIntensity 1.0
            transparency 1.0
            shininess 0.5
        }
    }
    geometry IndexedFaceSet {
        ccw TRUE
        solid FALSE
        coord DEF co Coordinate {
            point [
                -0.9843 0.2559 0.0461, -0.6299 0.2559 0.0461, -0.6299 0.2559 0.0068, -0.9843 0.2559 0.0068, 0.9843 0.2559 0.0068, 0.6299 0.2559 0.0461, 0.9843 0.2559 0.0461, 0.6299 0.2559 0.0068, -0.6299 -0.2559 0.0461, -0.9843 -0.2559 0.0461, -0.9843 -0.2559 0.0068, -0.6299 -0.2559 0.0068, 0.6299 -0.2559 0.0461, 0.9843 -0.2559 0.0068, 0.9843 -0.2559 0.0461, 0.6299 -0.2559 0.0068, -0.503 -0.5593 0.583, 0.503 -0.5593 0.583, 0.503 -0.5466 0.5915, 0.503 -0.5315 0.5945, -0.503 -0.5466 0.5915, -0.503 -0.5315 0.5945, -0.503 -0.5679 0.5702, 0.503 -0.5679 0.5702, -0.503 -0.5709 0.5551, 0.503 -0.5709 0.5551, 0.503 -0.5315 0.5157, 0.503 -0.4921 0.4075, 0.503 -0.4921 0.5157, 0.503 -0.4921 0.2992, 0.503 -0.5709 0.3123, 0.503 -0.5709 0.4337, 0.503 -0.5709 0.1909, 0.503 -0.4921 0.1909, 0.5128 -0.5144 0.5157, 0.5128 -0.5144 0.5945, 0.5056 -0.5217 0.5157, 0.5226 -0.5118 0.5945, 0.5226 -0.5118 0.5157, 0.5056 -0.5217 0.5945, -0.7874 -0.3446 0.5945, -0.7147 -0.3027 0.5945, -0.7305 -0.3052 0.5945, -0.0504 -0.3507 0.5945, 0.0 -0.3543 0.5945, 0.7844 -0.4875 0.5945, 0.7874 -0.4724 0.5945, 0.748 -0.5118 0.5945, -0.7004 0.1673 0.5945, -0.34 0.0998 0.5945, -0.6891 0.1786 0.5945, -0.3543 0.0 0.5945, -0.7147 0.16 0.5945, -0.7147 -0.16 0.5945, -0.7147 0.3027 0.5945, -0.7874 0.4724 0.5945, -0.7874 0.3446 0.5945, -0.7305 0.3052 0.5945, -0.0 0.3543 0.5945, 0.503 0.5315 0.5945, -0.503 0.5315 0.5945, 0.34 0.0998 0.5945, 0.6891 0.1786 0.5945, 0.6818 0.1928 0.5945, 0.7147 0.16 0.5945, 0.7147 -0.16 0.5945, 0.7305 -0.1575 0.5945, 0.7004 0.1673 0.5945, 0.3507 0.0504 0.5945, 0.3543 0.0 0.5945, 0.7305 0.1575 0.5945, 0.7646 -0.1575 0.5945, 0.7646 0.1575 0.5945, 0.7874 -0.3446 0.5945, 0.7147 -0.3027 0.5945, 0.3507 -0.0504 0.5945, -0.7844 0.3295 0.5945, -0.7759 0.3168 0.5945, -0.748 0.3052 0.5945, -0.232 0.2678 0.5945, -0.5128 0.5144 0.5945, -0.5226 0.5118 0.5945, 0.1916 0.2981 0.5945, 0.5056 0.5217 0.5945, 0.1472 0.3223 0.5945, 0.0504 0.3507 0.5945, -0.6793 0.2087 0.5945, -0.3223 0.1472 0.5945, -0.2981 0.1916 0.5945, 0.5128 0.5144 0.5945, 0.7759 0.5003 0.5945, 0.7631 0.5088 0.5945, 0.748 0.5118 0.5945, 0.7844 0.4875 0.5945, 0.7874 0.4724 0.5945, 0.5226 0.5118 0.5945, 0.7147 0.3027 0.5945, 0.7874 0.3446 0.5945, 0.748 0.3052 0.5945, 0.7844 0.3295 0.5945, 0.7305 0.3052 0.5945, 0.7631 0.3082 0.5945, 0.7759 0.3168 0.5945, 0.7004 0.2955 0.5945, 0.6891 0.2841 0.5945, 0.232 0.2678 0.5945, -0.2678 0.232 0.5945, -0.6818 0.2699 0.5945, -0.1916 0.2981 0.5945, -0.7631 0.3082 0.5945, -0.7631 0.5088 0.5945, -0.7759 0.5003 0.5945, -0.748 0.5118 0.5945, -0.7844 0.4875 0.5945, -0.6818 -0.1928 0.5945, -0.34 -0.0998 0.5945, -0.6891 -0.1786 0.5945, -0.3507 0.0504 0.5945, -0.2678 -0.232 0.5945, -0.6793 -0.2541 0.5945, -0.6818 -0.2699 0.5945, 0.6818 0.2699 0.5945, 0.2678 0.232 0.5945, 0.6793 0.2541 0.5945, 0.6891 -0.1786 0.5945, 0.7004 -0.1673 0.5945, 0.34 -0.0998 0.5945, -0.5056 -0.5217 0.5945, -0.1472 -0.3223 0.5945, -0.1916 -0.2981 0.5945, -0.7305 0.1575 0.5945, -0.6793 0.2541 0.5945, -0.7004 0.2955 0.5945, -0.6891 0.2841 0.5945, -0.6818 0.1928 0.5945, -0.2981 -0.1916 0.5945, -0.6793 -0.2087 0.5945, -0.3223 -0.1472 0.5945, -0.7305 -0.1575 0.5945, -0.6891 -0.2841 0.5945, -0.7646 0.1575 0.5945, -0.7646 -0.1575 0.5945, -0.232 -0.2678 0.5945, -0.5128 -0.5144 0.5945, -0.3507 -0.0504 0.5945, 0.2981 -0.1916 0.5945, 0.6793 -0.2087 0.5945, 0.3223 -0.1472 0.5945, -0.7004 -0.1673 0.5945, -0.7759 -0.3168 0.5945, -0.7844 -0.3295 0.5945, -0.748 -0.3052 0.5945, -0.5226 -0.5118 0.5945, -0.748 -0.5118 0.5945, -0.7844 -0.4875 0.5945, -0.7759 -0.5003 0.5945, -0.7631 -0.5088 0.5945, -0.7874 -0.4724 0.5945, -0.7631 -0.3082 0.5945, -0.7004 -0.2955 0.5945, 0.6818 -0.1928 0.5945, 0.232 -0.2678 0.5945, 0.6891 -0.2841 0.5945, 0.7004 -0.2955 0.5945, 0.1916 -0.2981 0.5945, 0.2678 -0.232 0.5945, 0.6818 -0.2699 0.5945, 0.6793 -0.2541 0.5945, 0.7759 -0.5003 0.5945, 0.7631 -0.5088 0.5945, 0.7305 -0.3052 0.5945, 0.7844 -0.3295 0.5945, 0.748 -0.3052 0.5945, 0.7631 -0.3082 0.5945, 0.7759 -0.3168 0.5945, 0.6793 0.2087 0.5945, 0.3223 0.1472 0.5945, 0.0504 -0.3507 0.5945, 0.1472 -0.3223 0.5945, 0.0998 -0.34 0.5945, -0.0998 -0.34 0.5945, -0.0504 0.3507 0.5945, -0.5056 0.5217 0.5945, -0.1472 0.3223 0.5945, -0.0998 0.34 0.5945, 0.0998 0.34 0.5945, 0.2981 0.1916 0.5945, 0.3507 -0.0504 0.5157, 0.34 -0.0998 0.5157, 0.3543 0.0 0.5157, 0.2981 -0.1916 0.5157, 0.2678 -0.232 0.5157, 0.3223 -0.1472 0.5157, 0.1916 -0.2981 0.5157, 0.1472 -0.3223 0.5157, 0.232 -0.2678 0.5157, 0.0 -0.3543 0.5157, 0.0504 -0.3507 0.5157, 0.0998 -0.34 0.5157, -0.0998 -0.34 0.5157, -0.1472 -0.3223 0.5157, -0.0504 -0.3507 0.5157, -0.232 -0.2678 0.5157, -0.2678 -0.232 0.5157, -0.1916 -0.2981 0.5157, -0.2981 -0.1916 0.5157, -0.3223 -0.1472 0.5157, -0.34 -0.0998 0.5157, -0.3507 -0.0504 0.5157, -0.3543 0.0 0.5157, -0.503 -0.4921 0.5157, -0.6891 -0.2841 0.5157, 0.748 -0.5118 0.5157, 0.7759 -0.5003 0.5157, 0.7631 -0.5088 0.5157, -0.34 0.0998 0.5157, -0.6818 0.1928 0.5157, -0.3223 0.1472 0.5157, -0.7004 0.1673 0.5157, -0.6891 0.1786 0.5157, -0.7759 0.5003 0.5157, -0.7631 0.5088 0.5157, -0.748 0.5118 0.5157, -0.7844 0.4875 0.5157, -0.0504 0.3507 0.5157, -0.503 0.4921 0.5157, 0.0 0.3543 0.5157, -0.6793 0.2087 0.5157, 0.6793 0.2087 0.5157, 0.2981 0.1916 0.5157, 0.6793 0.2541 0.5157, 0.7759 -0.3168 0.5157, 0.748 -0.3052 0.5157, 0.7631 -0.3082 0.5157, 0.7147 0.16 0.5157, 0.7305 -0.1575 0.5157, 0.7147 -0.16 0.5157, 0.6891 0.1786 0.5157, 0.7004 0.1673 0.5157, 0.34 0.0998 0.5157, 0.3507 0.0504 0.5157, 0.7305 0.1575 0.5157, 0.745 -0.1575 0.5157, 0.745 0.1575 0.5157, 0.7874 -0.4724 0.5157, 0.3223 0.1472 0.5157, -0.7844 0.3295 0.5157, -0.7874 0.3446 0.5157, -0.7305 0.3052 0.5157, -0.748 0.3052 0.5157, 0.5128 0.5144 0.5157, 0.503 0.4921 0.5157, 0.5056 0.5217 0.5157, 0.0504 0.3507 0.5157, 0.0998 0.34 0.5157, 0.6891 0.2841 0.5157, 0.2678 0.232 0.5157, -0.2981 0.1916 0.5157, 0.5226 0.5118 0.5157, 0.7759 0.5003 0.5157, 0.748 0.5118 0.5157, 0.7631 0.5088 0.5157, 0.7844 0.4875 0.5157, 0.7874 0.4724 0.5157, 0.7147 0.3027 0.5157, 0.7874 0.3446 0.5157, 0.748 0.3052 0.5157, 0.7305 0.3052 0.5157, 0.7844 0.3295 0.5157, 0.7759 0.3168 0.5157, 0.7631 0.3082 0.5157, 0.7147 -0.3027 0.5157, 0.7305 -0.3052 0.5157, 0.7874 -0.3446 0.5157, 0.7004 0.2955 0.5157, -0.3507 0.0504 0.5157, 0.503 0.5315 0.5157, -0.7631 0.3082 0.5157, -0.7759 0.3168 0.5157, -0.7147 0.3027 0.5157, -0.7874 0.4724 0.5157, -0.5128 0.5144 0.5157, -0.5056 0.5217 0.5157, -0.503 0.5315 0.5157, -0.5226 0.5118 0.5157, 0.1916 0.2981 0.5157, 0.1472 0.3223 0.5157, 0.6818 0.2699 0.5157, 0.232 0.2678 0.5157, -0.7305 0.1575 0.5157, -0.7147 0.16 0.5157, -0.7147 -0.16 0.5157, -0.6891 0.2841 0.5157, -0.7004 0.2955 0.5157, -0.2678 0.232 0.5157, -0.6818 0.2699 0.5157, -0.6891 -0.1786 0.5157, -0.6818 -0.1928 0.5157, -0.7305 -0.1575 0.5157, -0.6793 -0.2087 0.5157, -0.745 0.1575 0.5157, 0.6818 0.1928 0.5157, -0.745 -0.1575 0.5157, -0.6818 -0.2699 0.5157, -0.6793 -0.2541 0.5157, 0.7004 -0.1673 0.5157, -0.5056 -0.5217 0.5157, -0.5128 -0.5144 0.5157, -0.7004 -0.1673 0.5157, -0.7759 -0.3168 0.5157, -0.748 -0.3052 0.5157, -0.7844 -0.3295 0.5157, -0.5226 -0.5118 0.5157, -0.7004 -0.2955 0.5157, -0.748 -0.5118 0.5157, -0.7759 -0.5003 0.5157, -0.7844 -0.4875 0.5157, -0.7631 -0.5088 0.5157, -0.7874 -0.3446 0.5157, -0.7147 -0.3027 0.5157, -0.7874 -0.4724 0.5157, -0.7305 -0.3052 0.5157, -0.7631 -0.3082 0.5157, -0.503 -0.5315 0.5157, 0.6891 -0.1786 0.5157, 0.7004 -0.2955 0.5157, 0.6793 -0.2087 0.5157, 0.6818 -0.1928 0.5157, 0.6891 -0.2841 0.5157, 0.6818 -0.2699 0.5157, 0.6793 -0.2541 0.5157, 0.7844 -0.4875 0.5157, 0.7844 -0.3295 0.5157, -0.6793 0.2541 0.5157, -0.1916 0.2981 0.5157, -0.232 0.2678 0.5157, -0.0998 0.34 0.5157, -0.1472 0.3223 0.5157, 0.7925 -0.1575 0.583, 0.7797 -0.1575 0.5915, 0.804 -0.1575 0.5551, 0.745 -0.1575 0.3362, 0.804 -0.1575 0.3362, 0.801 -0.1575 0.5702, 0.7925 0.1575 0.583, 0.801 0.1575 0.5702, 0.804 0.1575 0.5551, 0.7797 0.1575 0.5915, 0.804 0.1575 0.3362, 0.745 0.1575 0.3362, -0.804 -0.1575 0.5551, -0.804 -0.1575 0.3362, -0.7925 -0.1575 0.583, -0.801 -0.1575 0.5702, -0.745 -0.1575 0.3362, -0.7797 -0.1575 0.5915, -0.7925 0.1575 0.583, -0.801 0.1575 0.5702, -0.804 0.1575 0.5551, -0.7797 0.1575 0.5915, -0.745 0.1575 0.3362, -0.804 0.1575 0.3362, -0.804 0.1181 0.2969, -0.804 0.1459 0.3084, -0.804 0.1332 0.2998, -0.804 -0.1181 0.2969, -0.804 -0.1332 0.2998, -0.804 -0.1459 0.3084, -0.804 0.1545 0.3212, -0.804 -0.1545 0.3212, -0.745 -0.1459 0.3084, -0.745 -0.1545 0.3212, -0.745 -0.1332 0.2998, -0.745 -0.1181 0.2969, -0.745 0.1459 0.3084, -0.745 0.1545 0.3212, -0.745 0.1181 0.2969, -0.745 0.1332 0.2998, 0.503 0.5709 0.3123, 0.503 0.5709 0.4337, 0.503 0.4921 0.4075, 0.503 0.4921 0.2992, 0.503 0.4921 0.1909, 0.503 0.5709 0.1909, 0.503 0.5709 0.5551, 0.503 0.5679 0.5702, 0.503 0.5593 0.583, 0.503 0.5466 0.5915, -0.503 0.5593 0.583, -0.503 0.5466 0.5915, -0.503 0.5679 0.5702, -0.503 0.5709 0.5551, -0.503 0.4921 0.4042, -0.503 0.4921 0.2927, -0.503 0.5709 0.3058, -0.503 0.5709 0.4304, -0.503 0.5709 0.1811, -0.503 0.4921 0.1811, 0.3354 0.4921 0.1978, -0.3354 0.4921 0.1978, 0.3203 0.4921 0.2008, 0.3481 0.4921 0.1893, -0.3203 0.4921 0.2008, 0.3597 0.4921 0.1614, 0.3597 0.4921 0.0827, 0.503 0.4921 0.0433, -0.3567 0.4921 0.1765, -0.3597 0.4921 0.1614, -0.3481 0.4921 0.1893, 0.3712 0.4921 0.0548, 0.384 0.4921 0.0463, 0.399 0.4921 0.0433, -0.503 0.4921 0.0433, -0.3627 0.4921 0.0676, -0.3597 0.4921 0.0827, -0.3712 0.4921 0.0548, -0.399 0.4921 0.0433, -0.384 0.4921 0.0463, 0.3627 0.4921 0.0676, 0.3567 0.4921 0.1765, 0.3712 0.5709 0.0548, 0.384 0.5709 0.0463, 0.399 0.5709 0.0433, 0.3627 0.5709 0.0676, 0.3597 0.5709 0.0827, -0.4337 0.5709 0.0433, -0.3627 0.5709 0.0676, -0.4164 0.5709 0.0433, -0.4856 0.5709 0.0433, -0.3597 0.5709 0.0827, -0.4683 0.5709 0.0433, -0.451 0.5709 0.0433, -0.503 0.5709 0.0433, -0.399 0.5709 0.0433, -0.3712 0.5709 0.0548, -0.384 0.5709 0.0463, 0.4337 0.5709 0.0433, 0.4164 0.5709 0.0433, -0.3567 0.5709 0.1765, -0.3597 0.5709 0.1614, -0.3481 0.5709 0.1893, -0.3354 0.5709 0.1978, -0.3203 0.5709 0.2008, 0.3203 0.5709 0.2008, 0.3354 0.5709 0.1978, 0.3481 0.5709 0.1893, 0.4856 0.5709 0.0433, 0.451 0.5709 0.0433, 0.4683 0.5709 0.0433, 0.3597 0.5709 0.1614, 0.503 0.5709 0.0433, 0.3567 0.5709 0.1765, -0.5128 0.5707 0.1641, -0.5235 0.57 0.0433, -0.5226 0.5701 0.1614, -0.5639 0.5632 0.0433, -0.5869 0.5561 0.1614, -0.5553 0.5652 0.1614, -0.5438 0.5675 0.0433, -0.6211 0.5408 0.0433, -0.6171 0.5429 0.1614, -0.6026 0.5498 0.0433, -0.5835 0.5573 0.0433, -0.6553 0.5182 0.0433, -0.6453 0.5257 0.1614, -0.6387 0.5302 0.0433, -0.671 0.5049 0.0433, -0.671 0.5049 0.1614, -0.5056 0.5709 0.1713, -0.5128 0.4919 0.1641, -0.5226 0.4914 0.1614, -0.5056 0.4921 0.1713, -0.5597 0.486 0.1614, -0.5956 0.4755 0.1614, -0.5895 0.4777 0.0433, -0.5468 0.4885 0.0433, -0.6297 0.46 0.1614, -0.6297 0.46 0.0433, -0.6765 0.467 0.1614, -0.6624 0.4578 0.1614, -0.6799 0.494 0.1614, -0.6854 0.4811 0.1614, -0.6458 0.4554 0.1614, -0.6624 0.4578 0.0433, -0.6765 0.467 0.0433, -0.6854 0.4811 0.0433, -0.6458 0.4554 0.0433, -0.6799 0.494 0.0433, 0.5468 0.4885 0.0433, 0.6026 0.5498 0.0433, 0.6211 0.5408 0.0433, 0.5835 0.5573 0.0433, 0.5235 0.57 0.0433, 0.5438 0.5675 0.0433, 0.5639 0.5632 0.0433, 0.6387 0.5302 0.0433, 0.671 0.5049 0.0433, 0.5895 0.4777 0.0433, 0.6553 0.5182 0.0433, 0.6799 0.494 0.0433, 0.6854 0.4811 0.0433, 0.6624 0.4578 0.0433, 0.6458 0.4554 0.0433, 0.6297 0.46 0.0433, 0.6765 0.467 0.0433, 0.5116 0.492 0.1701, 0.5052 0.4921 0.1797, 0.5661 0.4845 0.1614, 0.5325 0.4905 0.1614, 0.5212 0.4915 0.1637, 0.5987 0.4743 0.1614, 0.6297 0.46 0.1614, 0.5325 0.5691 0.1614, 0.5212 0.5702 0.1637, 0.5116 0.5707 0.1701, 0.5052 0.5709 0.1797, 0.6406 0.5289 0.1614, 0.671 0.5049 0.1614, 0.6068 0.548 0.1614, 0.5705 0.5615 0.1614, 0.6765 0.467 0.1614, 0.6799 0.494 0.1614, 0.6854 0.4811 0.1614, 0.6624 0.4578 0.1614, 0.6458 0.4554 0.1614, -0.503 -0.5709 0.3058, -0.503 -0.5709 0.4304, -0.503 -0.4921 0.4042, -0.503 -0.4921 0.2927, -0.503 -0.4921 0.1811, -0.503 -0.5709 0.1811, -0.4337 -0.5709 0.0433, -0.4164 -0.5709 0.0433, -0.3627 -0.5709 0.0676, -0.4856 -0.5709 0.0433, -0.4683 -0.5709 0.0433, -0.3597 -0.5709 0.0827, -0.451 -0.5709 0.0433, -0.503 -0.5709 0.0433, -0.399 -0.5709 0.0433, -0.384 -0.5709 0.0463, -0.3712 -0.5709 0.0548, 0.3627 -0.5709 0.0676, 0.4164 -0.5709 0.0433, 0.4337 -0.5709 0.0433, -0.3567 -0.5709 0.1765, -0.3597 -0.5709 0.1614, -0.3481 -0.5709 0.1893, -0.3354 -0.5709 0.1978, -0.3203 -0.5709 0.2008, 0.3203 -0.5709 0.2008, 0.3354 -0.5709 0.1978, 0.3481 -0.5709 0.1893, 0.3597 -0.5709 0.0827, 0.4856 -0.5709 0.0433, 0.3712 -0.5709 0.0548, 0.384 -0.5709 0.0463, 0.399 -0.5709 0.0433, 0.451 -0.5709 0.0433, 0.4683 -0.5709 0.0433, 0.3597 -0.5709 0.1614, 0.503 -0.5709 0.0433, 0.3567 -0.5709 0.1765, 0.5116 -0.5707 0.1701, 0.5235 -0.57 0.0433, 0.5212 -0.5702 0.1637, 0.5438 -0.5675 0.0433, 0.5639 -0.5632 0.0433, 0.5705 -0.5615 0.1614, 0.5325 -0.5691 0.1614, 0.6211 -0.5408 0.0433, 0.6068 -0.548 0.1614, 0.6026 -0.5498 0.0433, 0.5835 -0.5573 0.0433, 0.6553 -0.5182 0.0433, 0.6406 -0.5289 0.1614, 0.6387 -0.5302 0.0433, 0.671 -0.5049 0.0433, 0.671 -0.5049 0.1614, 0.5052 -0.5709 0.1797, 0.5212 -0.4915 0.1637, 0.5116 -0.492 0.1701, 0.5325 -0.4905 0.1614, 0.5052 -0.4921 0.1797, 0.5468 -0.4885 0.0433, 0.503 -0.4921 0.0433, 0.6297 -0.46 0.0433, 0.5987 -0.4743 0.1614, 0.6297 -0.46 0.1614, 0.5895 -0.4777 0.0433, 0.5661 -0.4845 0.1614, 0.6799 -0.494 0.1614, 0.6854 -0.4811 0.1614, 0.6765 -0.467 0.1614, 0.6624 -0.4578 0.1614, 0.6458 -0.4554 0.1614, 0.6624 -0.4578 0.0433, 0.6765 -0.467 0.0433, 0.6854 -0.4811 0.0433, 0.6458 -0.4554 0.0433, 0.6799 -0.494 0.0433, 0.399 -0.4921 0.0433, 0.3712 -0.4921 0.0548, 0.384 -0.4921 0.0463, 0.3627 -0.4921 0.0676, 0.3597 -0.4921 0.0827, 0.3481 -0.4921 0.1893, 0.3354 -0.4921 0.1978, -0.3354 -0.4921 0.1978, 0.3203 -0.4921 0.2008, 0.3567 -0.4921 0.1765, -0.3203 -0.4921 0.2008, -0.3567 -0.4921 0.1765, -0.3597 -0.4921 0.1614, -0.3481 -0.4921 0.1893, -0.503 -0.4921 0.0433, -0.3597 -0.4921 0.0827, -0.3627 -0.4921 0.0676, -0.3712 -0.4921 0.0548, -0.384 -0.4921 0.0463, -0.399 -0.4921 0.0433, 0.3597 -0.4921 0.1614, -0.5128 -0.4919 0.1641, -0.5056 -0.4921 0.1713, -0.5468 -0.4885 0.0433, -0.5226 -0.4914 0.1614, -0.5597 -0.486 0.1614, -0.5895 -0.4777 0.0433, -0.5956 -0.4755 0.1614, -0.6297 -0.46 0.0433, -0.6297 -0.46 0.1614, -0.5226 -0.5701 0.1614, -0.5128 -0.5707 0.1641, -0.5056 -0.5709 0.1713, -0.6387 -0.5302 0.0433, -0.6211 -0.5408 0.0433, -0.6171 -0.5429 0.1614, -0.6453 -0.5257 0.1614, -0.6553 -0.5182 0.0433, -0.671 -0.5049 0.1614, -0.671 -0.5049 0.0433, -0.6026 -0.5498 0.0433, -0.5835 -0.5573 0.0433, -0.5869 -0.5561 0.1614, -0.5639 -0.5632 0.0433, -0.5553 -0.5652 0.1614, -0.5438 -0.5675 0.0433, -0.5235 -0.57 0.0433, -0.6765 -0.467 0.1614, -0.6799 -0.494 0.1614, -0.6854 -0.4811 0.1614, -0.6624 -0.4578 0.1614, -0.6458 -0.4554 0.1614, -0.6799 -0.494 0.0433, -0.6854 -0.4811 0.0433, -0.6624 -0.4578 0.0433, -0.6458 -0.4554 0.0433, -0.6765 -0.467 0.0433, 0.745 0.1181 0.2969, 0.745 0.1459 0.3084, 0.745 0.1332 0.2998, 0.745 -0.1181 0.2969, 0.745 0.1545 0.3212, 0.745 -0.1332 0.2998, 0.745 -0.1459 0.3084, 0.745 -0.1545 0.3212, 0.804 -0.1459 0.3084, 0.804 -0.1545 0.3212, 0.804 -0.1332 0.2998, 0.804 -0.1181 0.2969, 0.804 0.1181 0.2969, 0.804 0.1332 0.2998, 0.804 0.1459 0.3084, 0.804 0.1545 0.3212
            ]
        }
        coordIndex [
            0,1,2,-1,2,3,0,-1,4,5,6,-1,4,7,5,-1,8,0,9,-1,0,8,1,-1,9,10,11,-1,9,11,8,-1,12,13,14,-1,13,12,15,-1,2,11,10,-1,2,10,3,-1,3,10,9,-1,3,9,0,-1,14,6,5,-1,14,5,12,-1,6,14,13,-1,6,13,4,-1,15,4,13,-1,4,15,7,-1,16,17,18,-1,19,20,18,-1,16,18,20,-1,21,20,19,-1,22,17,16,-1,23,22,24,-1,22,23,17,-1,23,24,25,-1,26,27,28,-1,29,26,30,-1,25,31,17,-1,29,32,33,-1,27,26,29,-1,32,29,30,-1,30,26,31,-1,23,25,17,-1,26,18,17,-1,17,31,26,-1,18,26,19,-1,34,35,36,-1,37,34,38,-1,34,37,35,-1,35,39,36,-1,36,39,26,-1,39,19,26,-1,40,41,42,-1,43,21,44,-1,45,46,47,-1,48,49,50,-1,51,52,53,-1,54,55,56,-1,56,57,54,-1,58,59,60,-1,61,62,63,-1,64,65,66,-1,67,68,64,-1,64,69,65,-1,70,64,66,-1,71,70,66,-1,71,72,70,-1,73,74,46,-1,69,75,65,-1,76,77,78,-1,78,57,76,-1,79,80,81,-1,82,83,84,-1,85,59,58,-1,86,87,88,-1,82,89,83,-1,90,91,92,-1,93,92,94,-1,95,94,92,-1,96,97,94,-1,98,99,100,-1,98,101,102,-1,97,100,99,-1,99,98,102,-1,97,96,100,-1,93,90,92,-1,103,96,95,-1,94,95,96,-1,104,103,95,-1,95,89,105,-1,106,107,88,-1,79,108,80,-1,76,57,56,-1,78,77,109,-1,110,111,112,-1,113,55,112,-1,111,113,112,-1,112,55,81,-1,114,115,116,-1,49,48,117,-1,105,89,82,-1,118,119,120,-1,121,122,123,-1,124,125,126,-1,127,128,129,-1,130,53,52,-1,107,131,88,-1,132,133,81,-1,54,132,81,-1,54,81,55,-1,87,86,134,-1,119,135,136,-1,137,136,135,-1,130,138,53,-1,118,120,139,-1,130,140,138,-1,126,125,75,-1,138,140,141,-1,118,139,142,-1,143,129,142,-1,144,51,53,-1,145,146,147,-1,115,144,148,-1,148,116,115,-1,149,150,151,-1,129,143,127,-1,142,152,143,-1,153,154,155,-1,155,156,153,-1,40,157,41,-1,153,152,157,-1,150,42,151,-1,42,150,40,-1,151,158,149,-1,157,154,153,-1,157,152,41,-1,152,159,41,-1,159,152,139,-1,160,126,147,-1,161,35,37,-1,160,124,126,-1,162,37,163,-1,164,35,161,-1,147,146,160,-1,145,165,166,-1,166,167,145,-1,47,46,37,-1,21,19,44,-1,163,37,74,-1,45,47,168,-1,46,74,37,-1,168,47,169,-1,74,73,170,-1,170,73,171,-1,171,172,170,-1,173,172,174,-1,172,171,174,-1,75,125,65,-1,175,176,63,-1,165,162,166,-1,146,145,167,-1,161,37,162,-1,162,165,161,-1,44,19,177,-1,39,164,178,-1,164,39,35,-1,19,39,179,-1,178,179,39,-1,19,179,177,-1,21,180,127,-1,180,21,43,-1,180,128,127,-1,152,142,139,-1,115,114,137,-1,119,118,135,-1,114,136,137,-1,144,53,148,-1,51,117,52,-1,49,134,50,-1,52,117,48,-1,87,134,49,-1,86,88,131,-1,104,105,122,-1,79,133,106,-1,133,107,106,-1,58,60,181,-1,81,133,79,-1,182,108,183,-1,108,182,80,-1,60,182,184,-1,183,184,182,-1,60,184,181,-1,59,185,83,-1,185,59,85,-1,185,84,83,-1,95,105,104,-1,186,123,122,-1,121,104,122,-1,175,186,176,-1,186,175,123,-1,176,61,63,-1,62,61,67,-1,64,68,69,-1,67,61,68,-1,126,187,188,-1,189,75,69,-1,190,191,165,-1,145,147,192,-1,178,193,194,-1,164,161,195,-1,196,44,197,-1,198,177,179,-1,199,200,128,-1,43,201,180,-1,118,202,203,-1,142,129,204,-1,203,205,135,-1,135,118,203,-1,206,137,205,-1,135,205,137,-1,115,206,207,-1,206,115,137,-1,207,208,144,-1,144,115,207,-1,209,51,208,-1,144,208,51,-1,204,202,142,-1,142,202,118,-1,200,129,128,-1,200,204,129,-1,199,180,201,-1,199,128,180,-1,43,44,196,-1,201,43,196,-1,177,198,197,-1,44,177,197,-1,178,194,179,-1,179,194,198,-1,195,193,164,-1,164,193,178,-1,191,161,165,-1,191,195,161,-1,190,145,192,-1,190,165,145,-1,147,126,188,-1,192,147,188,-1,75,189,187,-1,126,75,187,-1,203,210,211,-1,212,213,214,-1,215,216,217,-1,215,218,219,-1,220,221,222,-1,222,223,220,-1,224,225,226,-1,227,217,216,-1,228,229,230,-1,231,232,233,-1,234,235,236,-1,237,238,239,-1,240,239,238,-1,241,235,234,-1,242,235,241,-1,242,241,243,-1,212,28,244,-1,245,229,228,-1,246,247,248,-1,248,249,246,-1,250,251,252,-1,253,251,254,-1,255,256,251,-1,227,257,217,-1,250,258,251,-1,259,260,261,-1,262,263,260,-1,251,258,260,-1,264,263,265,-1,266,267,268,-1,266,269,270,-1,265,268,267,-1,268,269,266,-1,265,267,264,-1,262,260,259,-1,271,272,273,-1,263,264,251,-1,251,260,263,-1,264,274,251,-1,255,251,274,-1,275,218,215,-1,252,251,276,-1,277,278,249,-1,248,247,279,-1,249,278,246,-1,223,222,280,-1,281,282,225,-1,225,282,283,-1,225,284,281,-1,284,225,222,-1,225,280,222,-1,219,216,215,-1,285,286,251,-1,287,256,255,-1,256,288,251,-1,236,189,234,-1,201,210,199,-1,289,290,291,-1,292,293,225,-1,225,293,279,-1,280,225,279,-1,280,279,247,-1,294,295,292,-1,296,207,297,-1,209,290,275,-1,289,291,298,-1,299,297,206,-1,289,298,300,-1,237,239,301,-1,298,302,300,-1,303,304,203,-1,204,200,210,-1,187,305,188,-1,306,307,210,-1,290,209,291,-1,291,208,308,-1,309,310,311,-1,307,312,210,-1,210,313,211,-1,314,315,316,-1,315,314,317,-1,318,319,320,-1,312,314,210,-1,311,310,321,-1,321,318,311,-1,310,309,322,-1,321,319,318,-1,320,314,316,-1,314,320,210,-1,210,320,319,-1,306,210,323,-1,319,313,210,-1,324,188,305,-1,28,325,271,-1,326,192,327,-1,325,28,328,-1,328,191,329,-1,330,190,326,-1,196,197,28,-1,36,26,28,-1,38,28,212,-1,28,38,34,-1,28,34,36,-1,212,244,331,-1,244,28,271,-1,331,213,212,-1,272,332,273,-1,271,273,244,-1,232,332,272,-1,332,232,231,-1,230,256,287,-1,275,290,218,-1,189,240,234,-1,333,295,257,-1,333,257,227,-1,292,225,294,-1,257,295,294,-1,334,335,225,-1,225,335,294,-1,336,337,225,-1,225,337,334,-1,225,224,336,-1,253,226,251,-1,225,251,226,-1,286,254,251,-1,288,285,251,-1,239,245,301,-1,230,229,256,-1,301,245,228,-1,240,238,234,-1,189,236,187,-1,188,324,327,-1,236,305,187,-1,327,192,188,-1,203,202,210,-1,192,326,190,-1,329,191,190,-1,190,330,329,-1,195,191,28,-1,191,328,28,-1,194,193,28,-1,28,193,195,-1,28,197,198,-1,28,198,194,-1,201,196,210,-1,28,210,196,-1,200,199,210,-1,202,204,210,-1,205,203,304,-1,211,303,203,-1,299,206,205,-1,205,304,299,-1,206,297,207,-1,296,308,207,-1,291,209,208,-1,308,208,207,-1,49,275,215,-1,209,117,51,-1,257,294,106,-1,88,87,217,-1,183,334,337,-1,108,79,335,-1,226,58,224,-1,336,181,184,-1,254,286,84,-1,85,253,185,-1,122,288,256,-1,105,82,285,-1,256,229,186,-1,186,122,256,-1,245,176,229,-1,186,229,176,-1,61,245,239,-1,245,61,176,-1,239,240,68,-1,68,61,239,-1,189,69,240,-1,68,240,69,-1,285,288,105,-1,105,288,122,-1,286,82,84,-1,286,285,82,-1,254,185,253,-1,254,84,185,-1,85,58,226,-1,253,85,226,-1,181,336,224,-1,58,181,224,-1,183,337,184,-1,184,337,336,-1,335,334,108,-1,108,334,183,-1,294,79,106,-1,294,335,79,-1,257,88,217,-1,257,106,88,-1,87,49,215,-1,217,87,215,-1,117,209,275,-1,49,117,275,-1,172,272,170,-1,272,172,232,-1,163,325,162,-1,271,163,74,-1,163,271,325,-1,272,271,74,-1,272,74,170,-1,325,328,162,-1,328,329,166,-1,166,162,328,-1,166,329,167,-1,329,330,167,-1,167,330,326,-1,167,326,146,-1,124,324,125,-1,327,124,160,-1,124,327,324,-1,326,327,160,-1,326,160,146,-1,324,305,125,-1,305,236,65,-1,65,125,305,-1,65,236,66,-1,236,235,66,-1,66,235,242,-1,338,339,340,-1,66,242,71,-1,242,341,342,-1,342,340,242,-1,339,242,340,-1,340,343,338,-1,242,339,71,-1,344,338,343,-1,340,345,343,-1,344,343,345,-1,346,345,340,-1,347,338,344,-1,339,347,72,-1,347,339,338,-1,339,72,71,-1,348,243,346,-1,243,348,349,-1,241,70,243,-1,72,243,70,-1,346,243,347,-1,72,347,243,-1,345,346,344,-1,346,347,344,-1,67,238,62,-1,234,67,64,-1,67,234,238,-1,241,234,64,-1,241,64,70,-1,238,237,62,-1,237,301,63,-1,63,62,237,-1,63,301,175,-1,301,228,175,-1,175,228,230,-1,175,230,123,-1,104,255,103,-1,287,104,121,-1,104,287,255,-1,230,287,121,-1,230,121,123,-1,255,274,103,-1,274,264,96,-1,96,103,274,-1,96,264,100,-1,264,267,100,-1,100,267,266,-1,100,266,98,-1,46,244,273,-1,46,273,73,-1,97,263,94,-1,263,97,265,-1,168,213,331,-1,244,45,331,-1,168,331,45,-1,46,45,244,-1,169,213,168,-1,214,169,47,-1,169,214,213,-1,214,47,212,-1,153,312,152,-1,312,153,314,-1,37,38,212,-1,37,212,47,-1,155,315,317,-1,314,156,317,-1,155,317,156,-1,153,156,314,-1,154,315,155,-1,316,154,157,-1,154,316,315,-1,316,157,320,-1,40,320,157,-1,320,40,318,-1,55,280,247,-1,55,247,56,-1,321,151,42,-1,321,310,151,-1,313,41,159,-1,42,319,321,-1,120,304,303,-1,303,211,139,-1,139,211,159,-1,120,119,304,-1,120,303,139,-1,313,319,41,-1,211,313,159,-1,42,41,319,-1,119,136,299,-1,299,304,119,-1,296,114,116,-1,136,297,299,-1,53,298,291,-1,291,308,148,-1,148,308,116,-1,53,138,298,-1,53,291,148,-1,296,297,114,-1,308,296,116,-1,136,114,297,-1,302,350,351,-1,302,298,138,-1,350,352,353,-1,302,351,354,-1,350,302,355,-1,355,352,350,-1,355,302,141,-1,302,138,141,-1,352,356,357,-1,358,353,357,-1,352,357,353,-1,350,353,358,-1,355,356,352,-1,359,355,141,-1,355,359,356,-1,359,141,140,-1,300,360,361,-1,300,140,130,-1,130,289,300,-1,140,300,359,-1,358,356,359,-1,356,358,357,-1,300,358,359,-1,358,300,361,-1,362,363,364,-1,365,366,367,-1,362,361,368,-1,363,362,368,-1,351,362,365,-1,351,365,369,-1,362,351,361,-1,369,365,367,-1,350,361,351,-1,350,358,361,-1,367,370,371,-1,354,369,371,-1,367,371,369,-1,351,369,354,-1,366,370,367,-1,372,366,365,-1,366,372,370,-1,372,365,373,-1,374,375,376,-1,376,375,360,-1,376,377,374,-1,360,373,376,-1,302,354,300,-1,360,300,354,-1,371,373,354,-1,360,354,373,-1,372,373,370,-1,373,371,370,-1,374,363,368,-1,361,375,368,-1,374,368,375,-1,360,375,361,-1,377,363,374,-1,364,377,376,-1,377,364,363,-1,364,376,362,-1,365,376,373,-1,376,365,362,-1,218,52,48,-1,130,290,289,-1,134,227,216,-1,216,219,50,-1,50,219,48,-1,134,86,227,-1,134,216,50,-1,218,290,52,-1,219,218,48,-1,130,52,290,-1,86,131,333,-1,333,227,86,-1,292,107,133,-1,131,295,333,-1,54,248,279,-1,279,293,132,-1,132,293,133,-1,54,57,248,-1,54,279,132,-1,292,295,107,-1,293,292,133,-1,131,107,295,-1,57,78,249,-1,249,248,57,-1,111,220,223,-1,280,113,223,-1,111,223,113,-1,55,113,280,-1,110,220,111,-1,221,110,112,-1,110,221,220,-1,221,112,222,-1,92,258,95,-1,258,92,260,-1,81,284,222,-1,81,222,112,-1,90,259,261,-1,260,91,261,-1,90,261,91,-1,92,91,260,-1,93,259,90,-1,262,93,94,-1,93,262,259,-1,262,94,263,-1,89,250,83,-1,258,89,95,-1,89,258,250,-1,250,252,83,-1,83,252,59,-1,252,276,59,-1,378,379,276,-1,276,251,380,-1,381,378,276,-1,381,382,383,-1,380,381,276,-1,383,378,381,-1,384,385,386,-1,384,386,379,-1,276,386,387,-1,386,276,379,-1,276,387,59,-1,386,388,389,-1,60,387,389,-1,386,389,387,-1,59,387,60,-1,385,388,386,-1,390,385,384,-1,385,390,388,-1,390,384,391,-1,283,392,225,-1,393,283,394,-1,391,395,388,-1,393,396,397,-1,392,283,393,-1,396,393,394,-1,394,283,395,-1,390,391,388,-1,283,389,388,-1,388,395,283,-1,389,283,60,-1,281,80,282,-1,81,281,284,-1,281,81,80,-1,80,182,282,-1,282,182,283,-1,182,60,283,-1,382,381,398,-1,397,399,393,-1,380,400,381,-1,398,381,400,-1,380,251,225,-1,401,382,398,-1,402,392,393,-1,403,404,382,-1,404,405,382,-1,402,393,399,-1,406,397,407,-1,399,397,408,-1,409,410,411,-1,412,413,414,-1,415,416,417,-1,412,416,413,-1,415,413,416,-1,418,409,411,-1,412,414,397,-1,407,397,414,-1,402,400,392,-1,406,408,397,-1,380,225,392,-1,380,392,400,-1,382,401,419,-1,419,403,382,-1,405,404,418,-1,405,418,411,-1,409,420,421,-1,422,410,421,-1,409,421,410,-1,411,410,422,-1,418,420,409,-1,423,418,404,-1,418,423,420,-1,423,404,424,-1,425,426,427,-1,428,429,430,-1,431,429,425,-1,396,428,432,-1,433,434,435,-1,434,433,427,-1,425,429,426,-1,434,427,426,-1,431,430,429,-1,396,429,428,-1,423,436,437,-1,438,439,396,-1,396,439,429,-1,396,440,438,-1,441,396,394,-1,396,441,440,-1,394,395,442,-1,442,441,394,-1,443,442,379,-1,379,378,443,-1,383,444,378,-1,444,383,445,-1,443,378,444,-1,424,383,446,-1,420,422,421,-1,422,420,437,-1,436,423,424,-1,437,420,423,-1,424,447,436,-1,446,448,424,-1,424,448,447,-1,424,449,383,-1,450,446,383,-1,451,383,449,-1,451,445,383,-1,379,442,395,-1,379,395,384,-1,395,391,384,-1,452,453,454,-1,455,456,457,-1,458,457,454,-1,459,460,461,-1,456,462,461,-1,463,464,465,-1,460,465,464,-1,463,466,467,-1,467,464,463,-1,459,465,460,-1,460,456,461,-1,462,456,455,-1,455,457,458,-1,453,452,432,-1,458,454,453,-1,396,432,468,-1,432,452,468,-1,469,468,452,-1,470,469,452,-1,470,452,454,-1,469,471,468,-1,468,471,396,-1,471,397,396,-1,470,412,469,-1,472,473,474,-1,471,412,397,-1,471,469,412,-1,412,470,475,-1,476,477,473,-1,475,472,474,-1,477,474,473,-1,470,472,475,-1,467,476,473,-1,476,478,479,-1,476,467,480,-1,481,478,480,-1,480,478,476,-1,482,476,479,-1,464,473,460,-1,473,464,467,-1,460,473,472,-1,472,470,456,-1,456,460,472,-1,470,457,456,-1,457,470,454,-1,478,483,479,-1,478,481,484,-1,484,483,478,-1,481,485,484,-1,486,479,483,-1,482,486,477,-1,486,482,479,-1,482,477,476,-1,475,459,461,-1,461,462,412,-1,461,412,475,-1,453,412,458,-1,462,455,412,-1,455,458,412,-1,459,475,465,-1,466,463,474,-1,474,463,475,-1,474,485,487,-1,483,477,486,-1,477,485,474,-1,485,477,484,-1,483,484,477,-1,465,475,463,-1,487,466,474,-1,428,412,432,-1,453,432,412,-1,412,428,430,-1,416,412,431,-1,430,431,412,-1,425,416,431,-1,416,425,427,-1,427,433,416,-1,434,415,417,-1,416,435,417,-1,434,417,435,-1,433,435,416,-1,426,415,434,-1,413,426,429,-1,426,413,415,-1,413,429,414,-1,414,429,439,-1,439,407,414,-1,438,440,408,-1,438,406,439,-1,406,438,408,-1,439,406,407,-1,399,408,440,-1,441,402,399,-1,399,440,441,-1,441,442,402,-1,402,443,400,-1,402,442,443,-1,419,401,445,-1,419,451,403,-1,451,419,445,-1,403,451,449,-1,444,445,401,-1,398,443,444,-1,444,401,398,-1,398,400,443,-1,404,449,424,-1,449,404,403,-1,485,480,487,-1,481,480,485,-1,467,487,480,-1,487,467,466,-1,488,489,490,-1,489,405,491,-1,489,488,405,-1,492,493,405,-1,491,405,494,-1,494,405,493,-1,490,495,488,-1,496,497,498,-1,497,488,498,-1,497,499,500,-1,501,502,503,-1,503,497,500,-1,500,504,503,-1,501,503,504,-1,495,498,488,-1,499,497,496,-1,446,450,405,-1,492,405,450,-1,405,448,446,-1,411,447,405,-1,448,405,447,-1,436,447,411,-1,411,437,436,-1,437,411,422,-1,405,505,506,-1,507,508,488,-1,488,509,405,-1,507,497,510,-1,497,507,488,-1,510,497,503,-1,510,503,511,-1,509,488,508,-1,405,509,505,-1,382,405,506,-1,509,508,512,-1,513,505,509,-1,509,512,513,-1,513,514,505,-1,506,505,514,-1,515,382,506,-1,506,514,515,-1,515,383,382,-1,495,490,516,-1,492,512,493,-1,516,517,498,-1,498,495,516,-1,517,496,498,-1,518,516,490,-1,489,491,518,-1,489,518,490,-1,519,491,494,-1,491,519,518,-1,512,519,493,-1,494,493,519,-1,450,383,515,-1,515,514,450,-1,513,492,514,-1,450,514,492,-1,512,492,513,-1,511,520,521,-1,521,520,522,-1,520,511,523,-1,511,524,523,-1,517,511,521,-1,507,518,519,-1,511,517,510,-1,512,508,519,-1,507,519,508,-1,507,516,518,-1,517,516,510,-1,516,507,510,-1,522,499,521,-1,500,499,522,-1,496,521,499,-1,521,496,517,-1,504,523,501,-1,504,500,520,-1,520,523,504,-1,500,522,520,-1,524,501,523,-1,502,524,511,-1,524,502,501,-1,502,511,503,-1,143,307,127,-1,312,143,152,-1,143,312,307,-1,307,306,127,-1,127,306,21,-1,306,323,21,-1,525,526,323,-1,323,210,527,-1,528,525,323,-1,528,529,530,-1,527,528,323,-1,530,525,528,-1,24,22,16,-1,24,16,526,-1,323,16,20,-1,16,323,526,-1,323,20,21,-1,531,532,533,-1,534,535,536,-1,537,531,536,-1,530,538,534,-1,539,540,541,-1,541,532,539,-1,531,533,536,-1,541,533,532,-1,537,536,535,-1,530,534,536,-1,542,543,544,-1,545,530,546,-1,530,536,546,-1,530,545,547,-1,548,525,530,-1,530,547,548,-1,525,549,526,-1,549,525,548,-1,550,31,549,-1,31,550,30,-1,32,30,551,-1,551,552,32,-1,550,551,30,-1,553,554,32,-1,555,556,557,-1,557,543,555,-1,544,553,542,-1,543,542,555,-1,553,544,558,-1,554,553,559,-1,553,558,559,-1,553,32,560,-1,561,32,554,-1,562,560,32,-1,562,32,552,-1,31,526,549,-1,31,25,526,-1,526,25,24,-1,563,564,565,-1,566,567,568,-1,564,566,569,-1,570,571,572,-1,571,568,573,-1,574,575,576,-1,575,570,576,-1,574,577,578,-1,578,575,574,-1,571,570,575,-1,572,571,573,-1,573,568,567,-1,564,569,565,-1,566,568,569,-1,564,563,561,-1,32,561,579,-1,561,563,579,-1,580,581,563,-1,580,565,582,-1,565,580,563,-1,582,565,569,-1,579,563,581,-1,583,32,579,-1,579,581,583,-1,583,33,32,-1,580,584,585,-1,582,584,580,-1,581,585,583,-1,581,580,585,-1,33,583,585,-1,586,587,588,-1,589,590,587,-1,584,590,589,-1,586,589,587,-1,582,590,584,-1,578,591,588,-1,592,593,591,-1,593,594,588,-1,595,588,594,-1,593,588,591,-1,578,587,575,-1,578,588,587,-1,575,587,590,-1,571,590,568,-1,571,575,590,-1,590,582,568,-1,568,582,569,-1,593,596,594,-1,593,592,597,-1,597,596,593,-1,592,598,597,-1,599,594,596,-1,595,599,586,-1,599,595,594,-1,595,586,588,-1,584,570,572,-1,572,573,585,-1,572,585,584,-1,564,585,566,-1,573,567,585,-1,567,566,585,-1,570,584,576,-1,577,574,589,-1,589,574,584,-1,589,598,600,-1,596,586,599,-1,586,598,589,-1,598,586,597,-1,596,597,586,-1,576,584,574,-1,600,577,589,-1,554,585,561,-1,564,561,585,-1,585,554,559,-1,601,585,558,-1,559,558,585,-1,544,601,558,-1,601,544,543,-1,543,557,601,-1,555,602,603,-1,601,556,603,-1,555,603,556,-1,557,556,601,-1,542,602,555,-1,604,542,553,-1,542,604,602,-1,604,553,605,-1,606,607,33,-1,607,29,33,-1,529,528,608,-1,27,29,609,-1,607,609,29,-1,27,210,28,-1,606,33,610,-1,611,528,527,-1,611,608,528,-1,612,613,529,-1,608,614,529,-1,615,616,617,-1,618,619,620,-1,615,617,620,-1,618,620,617,-1,602,601,603,-1,615,529,616,-1,613,616,529,-1,604,585,601,-1,611,527,609,-1,612,529,614,-1,27,527,210,-1,27,609,527,-1,33,621,610,-1,621,33,605,-1,605,33,585,-1,585,604,605,-1,602,604,601,-1,615,622,623,-1,624,625,615,-1,626,627,628,-1,627,626,624,-1,628,627,629,-1,628,629,630,-1,624,626,625,-1,615,625,622,-1,529,615,623,-1,622,625,631,-1,631,632,622,-1,632,623,622,-1,623,632,633,-1,623,633,529,-1,633,530,529,-1,634,635,636,-1,538,633,632,-1,637,638,634,-1,634,636,637,-1,639,638,637,-1,639,640,638,-1,635,641,636,-1,641,642,643,-1,643,636,641,-1,643,644,645,-1,644,643,642,-1,631,645,646,-1,644,646,645,-1,631,646,647,-1,538,632,647,-1,538,530,633,-1,631,647,632,-1,630,648,649,-1,649,648,650,-1,648,630,651,-1,630,652,651,-1,639,630,649,-1,626,636,643,-1,630,639,628,-1,631,625,645,-1,625,643,645,-1,643,625,626,-1,628,637,636,-1,628,636,626,-1,628,639,637,-1,650,653,649,-1,654,653,650,-1,640,649,653,-1,649,640,639,-1,624,641,635,-1,641,615,642,-1,641,624,615,-1,647,646,615,-1,642,615,644,-1,644,615,646,-1,635,634,624,-1,640,627,638,-1,627,624,638,-1,627,653,654,-1,655,656,629,-1,629,627,654,-1,654,657,629,-1,655,629,657,-1,634,638,624,-1,653,627,640,-1,534,538,615,-1,647,615,538,-1,615,535,534,-1,620,537,615,-1,535,615,537,-1,531,537,620,-1,620,532,531,-1,532,620,539,-1,618,541,540,-1,539,619,540,-1,618,540,619,-1,620,619,539,-1,617,541,618,-1,533,617,616,-1,617,533,541,-1,533,616,536,-1,616,546,536,-1,546,616,613,-1,612,614,547,-1,612,545,613,-1,545,612,547,-1,613,545,546,-1,548,547,614,-1,608,549,548,-1,548,614,608,-1,608,611,549,-1,550,549,611,-1,550,611,609,-1,562,552,606,-1,562,610,560,-1,610,562,606,-1,560,610,621,-1,607,606,552,-1,551,609,607,-1,607,552,551,-1,551,550,609,-1,605,553,560,-1,560,621,605,-1,657,651,655,-1,657,654,648,-1,648,651,657,-1,654,650,648,-1,652,655,651,-1,656,652,630,-1,652,656,655,-1,656,630,629,-1,598,591,600,-1,592,591,598,-1,578,600,591,-1,600,578,577,-1,658,659,660,-1,341,349,661,-1,662,659,658,-1,662,658,349,-1,242,243,341,-1,349,341,243,-1,663,664,661,-1,664,665,661,-1,661,665,341,-1,661,349,658,-1,664,666,667,-1,342,665,667,-1,664,667,665,-1,341,665,342,-1,663,666,664,-1,668,663,661,-1,663,668,666,-1,668,661,669,-1,670,671,672,-1,670,342,669,-1,673,348,670,-1,673,670,672,-1,669,666,668,-1,667,669,342,-1,667,666,669,-1,348,342,670,-1,342,348,340,-1,348,346,340,-1,672,659,662,-1,349,673,662,-1,672,662,673,-1,348,673,349,-1,671,659,672,-1,660,671,670,-1,671,660,659,-1,660,670,658,-1,669,661,658,-1,658,670,669,-1,
        ]
    }
}